<svg width="966" height="492" viewBox="0 0 966 492" fill="none" xmlns="http://www.w3.org/2000/svg">
<g opacity="0.6" clip-path="url(#clip0_594_361)">
<path opacity="0.85" d="M1924 87.7289C1634.25 29.7782 1373.47 145.68 1025.76 87.7289C678.06 29.7782 359.331 145.68 98.5532 87.7289C-17.3481 58.7536 -104.274 87.7289 -162.225 73.2413V580.31H1924V87.7289Z" fill="#E6E1D8"/>
<path opacity="0.14" d="M1924 203.729C1605.27 145.778 1315.52 261.68 967.814 203.729C649.085 151.573 330.356 261.68 69.5779 203.729C-46.3235 177.651 -118.762 203.729 -162.225 195.036V580.408H1924V203.729Z" fill="#E53935"/>
<path opacity="0.15" d="M1924 332.729C1576.3 274.778 1257.57 390.68 909.863 332.729C591.134 280.573 272.405 390.68 11.6272 332.729C-75.2988 315.344 -133.25 332.729 -162.225 326.934V593.507H1924V332.729Z" fill="#56554F"/>
<path opacity="0.92" d="M1924 451.401C1547.32 393.45 1228.59 494.864 851.912 451.401C533.183 413.733 214.455 494.864 -17.3481 451.401C-104.274 434.016 -147.737 451.401 -162.225 448.504V567.303H1924V451.401Z" fill="#1A1917"/>
</g>
<defs>
<clipPath id="clip0_594_361">
<rect width="966" height="492" fill="white" transform="matrix(-1 0 0 1 966 0)"/>
</clipPath>
</defs>
</svg>
