<svg width="48" height="48" viewBox="0 0 48 48" fill="none" xmlns="http://www.w3.org/2000/svg">
<g clip-path="url(#clip0_487_15822)">
<path d="M22.2857 9.93876H25.7143C25.8658 9.93876 26.0112 9.87855 26.1184 9.77139C26.2255 9.66422 26.2857 9.51888 26.2857 9.36733C26.2857 9.21578 26.2255 9.07043 26.1184 8.96327C26.0112 8.8561 25.8658 8.7959 25.7143 8.7959H22.2857C22.1342 8.7959 21.9888 8.8561 21.8817 8.96327C21.7745 9.07043 21.7143 9.21578 21.7143 9.36733C21.7143 9.51888 21.7745 9.66422 21.8817 9.77139C21.9888 9.87855 22.1342 9.93876 22.2857 9.93876Z" fill="#E53935"/>
<path d="M22.2857 11.6531H25.7143C25.8658 11.6531 26.0112 11.5929 26.1184 11.4857C26.2255 11.3786 26.2857 11.2332 26.2857 11.0817C26.2857 10.9301 26.2255 10.7848 26.1184 10.6776C26.0112 10.5705 25.8658 10.5103 25.7143 10.5103H22.2857C22.1342 10.5103 21.9888 10.5705 21.8817 10.6776C21.7745 10.7848 21.7143 10.9301 21.7143 11.0817C21.7143 11.2332 21.7745 11.3786 21.8817 11.4857C21.9888 11.5929 22.1342 11.6531 22.2857 11.6531Z" fill="#1A1917"/>
<path d="M22.2857 13.3672H25.7143C25.8658 13.3672 26.0112 13.307 26.1184 13.1999C26.2255 13.0927 26.2857 12.9473 26.2857 12.7958C26.2857 12.6442 26.2255 12.4989 26.1184 12.3917C26.0112 12.2846 25.8658 12.2244 25.7143 12.2244H22.2857C22.1342 12.2244 21.9888 12.2846 21.8817 12.3917C21.7745 12.4989 21.7143 12.6442 21.7143 12.7958C21.7143 12.9473 21.7745 13.0927 21.8817 13.1999C21.9888 13.307 22.1342 13.3672 22.2857 13.3672Z" fill="#E53935"/>
<path d="M16.8571 35.9387C16.9701 35.9387 17.0806 35.9052 17.1746 35.8424C17.2685 35.7796 17.3417 35.6903 17.385 35.5859C17.4282 35.4815 17.4395 35.3666 17.4175 35.2558C17.3955 35.145 17.341 35.0432 17.2611 34.9632L16.1183 33.8204C16.0111 33.7136 15.8658 33.6537 15.7145 33.6538C15.5632 33.654 15.418 33.7141 15.311 33.8212C15.204 33.9282 15.1438 34.0733 15.1437 34.2246C15.1435 34.376 15.2034 34.5212 15.3103 34.6284L16.4531 35.7713C16.5061 35.8244 16.5691 35.8666 16.6384 35.8953C16.7078 35.924 16.7821 35.9388 16.8571 35.9387Z" fill="#E53935"/>
<path d="M19.1429 35.0815C19.2944 35.0815 19.4398 35.0213 19.5469 34.9141C19.6541 34.807 19.7143 34.6616 19.7143 34.5101V32.7958C19.7143 32.6442 19.6541 32.4989 19.5469 32.3917C19.4398 32.2846 19.2944 32.2244 19.1429 32.2244C18.9913 32.2244 18.846 32.2846 18.7388 32.3917C18.6316 32.4989 18.5714 32.6442 18.5714 32.7958V34.5101C18.5714 34.6616 18.6317 34.807 18.7388 34.9141C18.846 35.0213 18.9913 35.0815 19.1429 35.0815Z" fill="#E53935"/>
<path d="M31.8817 33.8206L30.7388 34.9634C30.6857 35.0165 30.6436 35.0795 30.6149 35.1488C30.5862 35.2181 30.5714 35.2924 30.5714 35.3675C30.5713 35.4425 30.5861 35.5168 30.6148 35.5862C30.6435 35.6555 30.6856 35.7185 30.7387 35.7716C30.7918 35.8247 30.8548 35.8667 30.9241 35.8955C30.9934 35.9242 31.0678 35.9389 31.1428 35.9389C31.2179 35.9389 31.2922 35.9241 31.3615 35.8954C31.4308 35.8667 31.4938 35.8245 31.5469 35.7715L32.6897 34.6286C32.7964 34.5213 32.8562 34.3762 32.856 34.2249C32.8558 34.0736 32.7956 33.9286 32.6886 33.8216C32.5817 33.7147 32.4367 33.6545 32.2854 33.6543C32.1341 33.6541 31.9889 33.7139 31.8817 33.8206Z" fill="#E53935"/>
<path d="M28.2857 32.7958V34.5101C28.2857 34.6616 28.3459 34.807 28.4531 34.9141C28.5602 35.0213 28.7056 35.0815 28.8571 35.0815C29.0087 35.0815 29.154 35.0213 29.2612 34.9141C29.3684 34.807 29.4286 34.6616 29.4286 34.5101V32.7958C29.4286 32.6442 29.3684 32.4989 29.2612 32.3917C29.154 32.2846 29.0087 32.2244 28.8571 32.2244C28.7056 32.2244 28.5602 32.2846 28.4531 32.3917C28.3459 32.4989 28.2857 32.6442 28.2857 32.7958Z" fill="#E53935"/>
<path d="M0.571429 43.3675C0.88702 43.3675 1.14286 43.1116 1.14286 42.796C1.14286 42.4804 0.88702 42.2246 0.571429 42.2246C0.255837 42.2246 0 42.4804 0 42.796C0 43.1116 0.255837 43.3675 0.571429 43.3675Z" fill="#1A1917"/>
<path d="M3.14287 42.2246H2.28572C2.13417 42.2246 1.98883 42.2848 1.88166 42.392C1.7745 42.4991 1.71429 42.6445 1.71429 42.796C1.71429 42.9476 1.7745 43.0929 1.88166 43.2001C1.98883 43.3073 2.13417 43.3675 2.28572 43.3675H3.14287C3.29442 43.3675 3.43976 43.3073 3.54693 43.2001C3.65409 43.0929 3.71429 42.9476 3.71429 42.796C3.71429 42.6445 3.65409 42.4991 3.54693 42.392C3.43976 42.2848 3.29442 42.2246 3.14287 42.2246Z" fill="#1A1917"/>
<path d="M33.7583 44.5103H31.3846C31.241 44.5218 31.1069 44.587 31.0092 44.6928C30.9114 44.7987 30.8571 44.9376 30.8571 45.0817C30.8571 45.2258 30.9114 45.3646 31.0092 45.4705C31.1069 45.5764 31.241 45.6416 31.3846 45.6531H33.7583C33.9019 45.6416 34.036 45.5764 34.1337 45.4705C34.2315 45.3646 34.2857 45.2258 34.2857 45.0817C34.2857 44.9376 34.2315 44.7987 34.1337 44.6928C34.036 44.587 33.9019 44.5218 33.7583 44.5103Z" fill="#E53935"/>
<path d="M16.6154 44.5103H14.2417C14.0981 44.5218 13.964 44.587 13.8663 44.6928C13.7685 44.7987 13.7143 44.9376 13.7143 45.0817C13.7143 45.2258 13.7685 45.3646 13.8663 45.4705C13.964 45.5764 14.0981 45.6416 14.2417 45.6531H16.6154C16.759 45.6416 16.8931 45.5764 16.9908 45.4705C17.0886 45.3646 17.1429 45.2258 17.1429 45.0817C17.1429 44.9376 17.0886 44.7987 16.9908 44.6928C16.8931 44.587 16.759 44.5218 16.6154 44.5103Z" fill="#E53935"/>
<path d="M29.7143 44.5103H18.2857C18.1342 44.5103 17.9888 44.5705 17.8817 44.6776C17.7745 44.7848 17.7143 44.9301 17.7143 45.0817C17.7143 45.2332 17.7745 45.3786 17.8817 45.4857C17.9888 45.5929 18.1342 45.6531 18.2857 45.6531H22.84V46.2245H20.5714C20.4199 46.2245 20.2745 46.2847 20.1674 46.3919C20.0602 46.4991 20 46.6444 20 46.796C20 46.9475 20.0602 47.0929 20.1674 47.2C20.2745 47.3072 20.4199 47.3674 20.5714 47.3674H27.7143C27.8658 47.3674 28.0112 47.3072 28.1184 47.2C28.2255 47.0929 28.2857 46.9475 28.2857 46.796C28.2857 46.6444 28.2255 46.4991 28.1184 46.3919C28.0112 46.2847 27.8658 46.2245 27.7143 46.2245H25.16V45.6531H29.7143C29.8658 45.6531 30.0112 45.5929 30.1184 45.4857C30.2255 45.3786 30.2857 45.2332 30.2857 45.0817C30.2857 44.9301 30.2255 44.7848 30.1184 44.6776C30.0112 44.5705 29.8658 44.5103 29.7143 44.5103Z" fill="#E53935"/>
<path d="M45.7143 42.2244H44.8572C44.7056 42.2244 44.5603 42.2846 44.4531 42.3917C44.3459 42.4989 44.2857 42.6442 44.2857 42.7958C44.2857 42.9473 44.3459 43.0927 44.4531 43.1999C44.5603 43.307 44.7056 43.3672 44.8572 43.3672H45.7143C45.8659 43.3672 46.0112 43.307 46.1184 43.1999C46.2255 43.0927 46.2857 42.9473 46.2857 42.7958C46.2857 42.6442 46.2255 42.4989 46.1184 42.3917C46.0112 42.2846 45.8659 42.2244 45.7143 42.2244Z" fill="#1A1917"/>
<path d="M47.4286 43.3672C47.7442 43.3672 48 43.1114 48 42.7958C48 42.4802 47.7442 42.2244 47.4286 42.2244C47.113 42.2244 46.8571 42.4802 46.8571 42.7958C46.8571 43.1114 47.113 43.3672 47.4286 43.3672Z" fill="#1A1917"/>
<path d="M43.0632 42.2243H42.2075C42.173 42.1637 42.1276 42.11 42.0737 42.0658L39.755 40.1905C39.6869 40.1355 39.6071 40.0968 39.5216 40.0775C39.4362 40.0582 39.3475 40.0588 39.2623 40.0792L36.1903 40.8161L34.9074 37.7731C34.8506 37.6384 34.7444 37.5306 34.6105 37.4718C34.4766 37.4131 34.3253 37.408 34.1878 37.4576L31.1063 38.5644L29.32 36.9439C29.2097 36.844 29.0649 36.7911 28.9163 36.7963C28.7676 36.8014 28.6268 36.8643 28.5237 36.9715L24.9865 40.6569L25.6115 33.9059C25.7245 33.868 25.8227 33.7957 25.8924 33.699C25.9621 33.6024 25.9997 33.4863 26 33.3672V31.0814C26.1516 31.0814 26.2969 31.0212 26.4041 30.9141C26.5112 30.8069 26.5714 30.6616 26.5714 30.51C26.5714 30.3585 26.5112 30.2131 26.4041 30.1059C26.2969 29.9988 26.1516 29.9386 26 29.9386V29.3672C26.1516 29.3672 26.2969 29.3069 26.4041 29.1998C26.5112 29.0926 26.5714 28.9473 26.5714 28.7957C26.5714 28.6442 26.5112 28.4988 26.4041 28.3917C26.2969 28.2845 26.1516 28.2243 26 28.2243V27.6529C26.1516 27.6529 26.2969 27.5927 26.4041 27.4855C26.5112 27.3783 26.5714 27.233 26.5714 27.0814C26.5714 26.9299 26.5112 26.7845 26.4041 26.6774C26.2969 26.5702 26.1516 26.51 26 26.51V20.2243H27.1432C27.4462 20.224 27.7367 20.1035 27.9509 19.8892C28.1652 19.6749 28.2857 19.3844 28.286 19.0814V17.8067C28.286 17.2587 28.8965 16.7957 29.6192 16.7957H29.7143C29.8658 16.7957 30.0112 16.7355 30.1183 16.6283C30.2255 16.5212 30.2857 16.3758 30.2857 16.2243V15.6529H31.4286C31.6813 15.6521 31.9266 15.5676 32.126 15.4125C32.3255 15.2573 32.4679 15.0404 32.5309 14.7957H37.5874C37.7098 14.7957 37.8289 14.7564 37.9273 14.6836C38.0257 14.6108 38.0981 14.5083 38.1339 14.3913L38.8323 12.1056C38.8584 12.0201 38.8641 11.9298 38.8489 11.8417C38.8338 11.7537 38.7982 11.6705 38.745 11.5987C38.6919 11.5269 38.6227 11.4685 38.5429 11.4283C38.4631 11.3881 38.375 11.3672 38.2857 11.3672H32.5309C32.4679 11.1224 32.3255 10.9055 32.126 10.7504C31.9266 10.5953 31.6813 10.5108 31.4286 10.51H30.2857V8.2243C30.2852 7.76979 30.1045 7.33404 29.7831 7.01266C29.4617 6.69128 29.0259 6.51051 28.5714 6.51001H19.4286C18.9741 6.51051 18.5383 6.69128 18.2169 7.01266C17.8956 7.33404 17.7148 7.76979 17.7143 8.2243V10.51H16.5714C16.3188 10.5108 16.0735 10.5953 15.874 10.7504C15.6745 10.9055 15.5321 11.1224 15.4692 11.3672H9.14287C9.05234 11.3672 8.96311 11.3887 8.88253 11.43C8.80195 11.4712 8.73233 11.5311 8.67939 11.6045C8.62645 11.6779 8.59172 11.7629 8.57804 11.8524C8.56437 11.9419 8.57214 12.0333 8.60073 12.1192L9.36273 14.405C9.40068 14.5187 9.47345 14.6177 9.57074 14.6878C9.66804 14.7579 9.78493 14.7957 9.90487 14.7957H10.8572V15.9386C10.8572 16.0901 10.9174 16.2355 11.0245 16.3426C11.1317 16.4498 11.277 16.51 11.4286 16.51H12.5714C13.0776 16.5091 13.5692 16.3403 13.9692 16.0301C14.3692 15.7199 14.655 15.2858 14.7819 14.7957H15.4692C15.5321 15.0404 15.6745 15.2573 15.874 15.4125C16.0735 15.5676 16.3188 15.6521 16.5714 15.6529H17.7143V16.2243C17.7143 16.3758 17.7745 16.5212 17.8817 16.6283C17.9888 16.7355 18.1342 16.7957 18.2857 16.7957H18.3809C19.1035 16.7957 19.7143 17.2588 19.7143 17.8067V19.0814C19.7146 19.3844 19.8351 19.6749 20.0494 19.8892C20.2636 20.1035 20.5541 20.224 20.8572 20.2243H22V26.51C21.8485 26.51 21.7031 26.5702 21.5959 26.6774C21.4888 26.7845 21.4286 26.9299 21.4286 27.0814C21.4286 27.233 21.4888 27.3783 21.5959 27.4855C21.7031 27.5927 21.8485 27.6529 22 27.6529V28.2243C21.8485 28.2243 21.7031 28.2845 21.5959 28.3917C21.4888 28.4988 21.4286 28.6442 21.4286 28.7957C21.4286 28.9473 21.4888 29.0926 21.5959 29.1998C21.7031 29.3069 21.8485 29.3672 22 29.3672V29.9386C21.8485 29.9386 21.7031 29.9988 21.5959 30.1059C21.4888 30.2131 21.4286 30.3585 21.4286 30.51C21.4286 30.6616 21.4888 30.8069 21.5959 30.9141C21.7031 31.0212 21.8485 31.0814 22 31.0814V33.3672C22.0003 33.4863 22.0379 33.6024 22.1076 33.699C22.1773 33.7957 22.2755 33.868 22.3885 33.9059L23.0135 40.6569L19.4763 36.9715C19.3733 36.8641 19.2325 36.8011 19.0837 36.7959C18.935 36.7908 18.7902 36.8439 18.68 36.9439L16.8937 38.5644L13.8122 37.4576C13.6747 37.4081 13.5234 37.4133 13.3896 37.472C13.2557 37.5307 13.1494 37.6385 13.0926 37.7731L11.8097 40.8161L8.73772 40.0792C8.65255 40.0588 8.56383 40.0582 8.47839 40.0775C8.39296 40.0968 8.3131 40.1355 8.24498 40.1905L5.92635 42.0658C5.8724 42.11 5.82705 42.1637 5.79256 42.2243H4.93678C4.85548 42.2137 4.77286 42.2205 4.69442 42.2444C4.61599 42.2682 4.54354 42.3085 4.48193 42.3626C4.42032 42.4167 4.37095 42.4833 4.33714 42.558C4.30332 42.6327 4.28583 42.7137 4.28583 42.7957C4.28583 42.8777 4.30332 42.9587 4.33714 43.0334C4.37095 43.1081 4.42032 43.1747 4.48193 43.2288C4.54354 43.2829 4.61599 43.3232 4.69442 43.3471C4.77286 43.3709 4.85548 43.3778 4.93678 43.3671H43.0632C43.1445 43.3778 43.2272 43.3709 43.3056 43.3471C43.384 43.3232 43.4565 43.2829 43.5181 43.2288C43.5797 43.1747 43.6291 43.1081 43.6629 43.0334C43.6967 42.9587 43.7142 42.8777 43.7142 42.7957C43.7142 42.7137 43.6967 42.6327 43.6629 42.558C43.6291 42.4833 43.5797 42.4167 43.5181 42.3626C43.4565 42.3085 43.384 42.2682 43.3056 42.2444C43.2272 42.2205 43.1445 42.2137 43.0632 42.2243ZM32.5714 12.51H37.5137L37.1644 13.6529H32.5714V12.51ZM30.2857 11.6529H31.4286L31.4294 14.51H30.2857V11.6529ZM12.5714 15.3672H12V14.7957H13.5608C13.4605 14.9694 13.3163 15.1136 13.1426 15.2139C12.969 15.3142 12.772 15.3671 12.5714 15.3672ZM15.4286 13.6529H10.3167L9.93584 12.51H15.4286V13.6529ZM17.7143 14.51H16.5714V11.6529H17.7143V14.51ZM39.2553 41.2561L40.4524 42.2243H36.2104L36.3455 41.9541L39.2553 41.2561ZM28.9637 38.1638L30.5926 39.6414C30.6695 39.7109 30.7637 39.7582 30.8653 39.7783C30.9669 39.7984 31.0721 39.7907 31.1696 39.7558L34.0647 38.7159L35.2641 41.5611L34.9325 42.2243H25.0664L28.9637 38.1638ZM24.8572 27.6529V28.2243H23.1429V27.6529H24.8572ZM23.1429 26.51V20.2243H24.8572V26.51H23.1429ZM24.8572 29.3672V29.9386H23.1429V29.3672H24.8572ZM24.8572 31.0814V32.7957H23.1429V31.0814H24.8572ZM24.4608 33.9386L24 38.9151L23.5393 33.9386L24.4608 33.9386ZM18.8572 8.2243C18.8573 8.0728 18.9176 7.92755 19.0247 7.82043C19.1318 7.7133 19.2771 7.65304 19.4286 7.65287H28.5714C28.7229 7.65304 28.8682 7.7133 28.9753 7.82043C29.0824 7.92755 29.1427 8.0728 29.1429 8.2243V9.93858H27.8094C27.6579 9.93859 27.5125 9.9988 27.4054 10.106C27.2982 10.2131 27.238 10.3585 27.238 10.51V14.51H20.762V10.51C20.762 10.3585 20.7018 10.2131 20.5946 10.106C20.4875 9.9988 20.3421 9.93859 20.1906 9.93858H18.8572V8.2243ZM20.8572 19.0814V17.8067C20.8572 16.7609 19.9954 15.8875 18.8572 15.6938V11.0814H19.6192V14.51C19.6195 14.813 19.74 15.1035 19.9542 15.3178C20.1685 15.532 20.459 15.6525 20.762 15.6529H27.238C27.541 15.6525 27.8315 15.532 28.0458 15.3178C28.26 15.1035 28.3805 14.813 28.3809 14.51V11.0814H29.1429V15.6938C28.0049 15.8876 27.1432 16.7609 27.1432 17.8067V19.0814H20.8572ZM13.9353 38.7159L16.8304 39.7558C16.9279 39.7911 17.0331 39.799 17.1348 39.7789C17.2365 39.7587 17.3307 39.7112 17.4074 39.6414L19.0363 38.1638C19.0363 38.1638 21.6751 40.913 22.9336 42.2243H13.0675L12.7359 41.5611L13.9353 38.7159ZM8.74471 41.2561L11.6545 41.9541L11.7896 42.2243H7.5476L8.74471 41.2561Z" fill="#1A1917"/>
</g>
<defs>
<clipPath id="clip0_487_15822">
<rect width="48" height="48" fill="white"/>
</clipPath>
</defs>
</svg>
