<svg width="48" height="48" viewBox="0 0 48 48" fill="none" xmlns="http://www.w3.org/2000/svg">
<g clip-path="url(#clip0_487_15868)">
<path d="M32.5714 17.75H15.4286C15.277 17.75 15.1317 17.8102 15.0245 17.9174C14.9174 18.0245 14.8571 18.1699 14.8571 18.3214C14.8571 18.473 14.9174 18.6183 15.0245 18.7255C15.1317 18.8327 15.277 18.8929 15.4286 18.8929H32.5714C32.723 18.8929 32.8683 18.8327 32.9755 18.7255C33.0827 18.6183 33.1429 18.473 33.1429 18.3214C33.1429 18.1699 33.0827 18.0245 32.9755 17.9174C32.8683 17.8102 32.723 17.75 32.5714 17.75Z" fill="#E53935"/>
<path d="M25.4286 20.6071C25.4286 20.4555 25.3684 20.3102 25.2612 20.203C25.154 20.0959 25.0087 20.0357 24.8571 20.0356H15.4286C15.277 20.0356 15.1317 20.0958 15.0245 20.203C14.9174 20.3102 14.8571 20.4555 14.8571 20.6071C14.8571 20.7586 14.9174 20.904 15.0245 21.0111C15.1317 21.1183 15.277 21.1785 15.4286 21.1785H24.8571C25.0087 21.1785 25.154 21.1183 25.2612 21.0111C25.3684 20.904 25.4286 20.7586 25.4286 20.6071Z" fill="#1A1917"/>
<path d="M32.5714 15.4644H15.4286C15.277 15.4644 15.1317 15.5246 15.0245 15.6317C14.9174 15.7389 14.8571 15.8842 14.8571 16.0358C14.8571 16.1873 14.9174 16.3327 15.0245 16.4398C15.1317 16.547 15.277 16.6072 15.4286 16.6072H32.5714C32.723 16.6072 32.8683 16.547 32.9755 16.4398C33.0827 16.3327 33.1429 16.1873 33.1429 16.0358C33.1429 15.8842 33.0827 15.7389 32.9755 15.6317C32.8683 15.5246 32.723 15.4644 32.5714 15.4644Z" fill="#1A1917"/>
<path d="M28.3675 34.6348C28.3599 34.6376 28.1356 34.7235 28.0725 34.7533C28.0268 34.8019 27.9498 34.8962 27.8912 34.9682C27.784 35.0993 27.6563 35.2539 27.5047 35.4104L28.4068 36.8476L27.3471 36.8666C27.2495 36.8684 27.1539 36.8952 27.0696 36.9444C26.9852 36.9936 26.9149 37.0635 26.8652 37.1476L26.315 38.0801L25.2029 36.3078C24.9022 36.2771 24.6049 36.2202 24.3142 36.1378C24.2849 36.1303 24.0165 36.0661 24 36.0636C23.9838 36.0661 23.7187 36.1295 23.6858 36.1381C23.3951 36.2204 23.0977 36.2772 22.7971 36.3078L21.685 38.0801L21.1348 37.1476C21.0851 37.0635 21.0148 36.9936 20.9304 36.9444C20.8461 36.8952 20.7505 36.8684 20.6529 36.8666L19.5932 36.8476L20.4953 35.4104C20.3437 35.2539 20.216 35.0996 20.1088 34.9682C20.048 34.8937 19.9671 34.7947 19.9221 34.7481C19.8795 34.7294 19.6401 34.6376 19.6325 34.6348L18.0873 37.0971C18.0336 37.1829 18.0035 37.2814 18.0003 37.3825C17.997 37.4837 18.0207 37.5839 18.0689 37.6729C18.1171 37.762 18.188 37.8366 18.2745 37.8892C18.361 37.9418 18.4599 37.9705 18.5611 37.9724L20.3128 38.0036L21.178 39.4696C21.2279 39.554 21.2986 39.6242 21.3835 39.6734C21.4683 39.7226 21.5643 39.7492 21.6624 39.7506H21.6702C21.767 39.7506 21.8621 39.726 21.9468 39.6791C22.0315 39.6323 22.1029 39.5647 22.1543 39.4827L24 36.541L25.8457 39.4827C25.8971 39.5647 25.9685 39.6323 26.0532 39.6791C26.1379 39.726 26.233 39.7506 26.3298 39.7506H26.3376C26.4357 39.7492 26.5317 39.7226 26.6165 39.6734C26.7014 39.6242 26.7721 39.554 26.822 39.4696L27.6872 38.0036L29.4389 37.9724C29.5401 37.9705 29.639 37.9418 29.7255 37.8892C29.812 37.8366 29.8829 37.762 29.9311 37.6729C29.9793 37.5839 30.003 37.4837 29.9997 37.3825C29.9965 37.2814 29.9664 37.1829 29.9127 37.0971L28.3675 34.6348Z" fill="#1A1917"/>
<path d="M29.5064 27.4033C29.4588 27.2117 29.4339 27.0151 29.4322 26.8177C29.4487 26.358 29.3275 25.9038 29.084 25.5136C28.7821 25.1619 28.3829 24.9073 27.9367 24.782C27.7489 24.7203 27.5691 24.6368 27.4009 24.5331C27.2532 24.4088 27.1206 24.2676 27.0059 24.1123C26.745 23.7253 26.3744 23.4251 25.9417 23.2502C25.7883 23.2018 25.6282 23.1776 25.4673 23.1787C25.1741 23.1902 24.8836 23.2395 24.603 23.3255C24.4071 23.3867 24.2047 23.4247 24 23.4388C23.7953 23.4247 23.5929 23.3867 23.397 23.3255C23.1165 23.2395 22.8259 23.1902 22.5327 23.1787C22.3719 23.1777 22.212 23.2017 22.0586 23.2499C21.6258 23.425 21.2552 23.7253 20.9941 24.1123C20.8794 24.2678 20.7467 24.4091 20.5988 24.5334C20.4306 24.6368 20.2509 24.7202 20.0633 24.7817C19.6172 24.907 19.2181 25.1613 18.916 25.5127C18.6725 25.9032 18.5513 26.3575 18.5678 26.8174C18.5661 27.0148 18.5412 27.2113 18.4936 27.4028C18.4212 27.5762 18.3287 27.7404 18.2179 27.8922C17.9259 28.2615 17.7506 28.7094 17.7143 29.1787C17.7505 29.6484 17.926 30.0965 18.2182 30.4659C18.3286 30.6175 18.421 30.7815 18.4936 30.9544C18.5412 31.146 18.5661 31.3426 18.5678 31.5401C18.5512 31.9999 18.6725 32.4541 18.916 32.8445C19.218 33.1963 19.6173 33.4508 20.0636 33.5761C20.2513 33.6378 20.4311 33.7213 20.5993 33.8249C20.747 33.9492 20.8796 34.0903 20.9944 34.2454C21.2553 34.6325 21.6259 34.9328 22.0586 35.1079C22.2119 35.156 22.3717 35.1799 22.5324 35.1787C22.8256 35.1674 23.1162 35.1182 23.3968 35.0323C23.5927 34.9711 23.7952 34.9331 24 34.919C24.2048 34.9331 24.4073 34.9711 24.6032 35.0323C24.8838 35.1182 25.1744 35.1674 25.4676 35.1787C25.6283 35.1799 25.7881 35.156 25.9414 35.1079C26.3741 34.9328 26.7447 34.6325 27.0056 34.2454C27.1205 34.0902 27.2532 33.9489 27.4009 33.8244C27.5691 33.7212 27.7487 33.638 27.9361 33.5763C28.3823 33.4509 28.7816 33.1965 29.0837 32.845C29.3274 32.4546 29.4488 32.0003 29.4322 31.5403C29.4339 31.343 29.4588 31.1465 29.5064 30.955C29.5789 30.7818 29.6713 30.6176 29.7818 30.4659C30.074 30.0965 30.2495 29.6484 30.2857 29.1787C30.2494 28.7094 30.0741 28.2615 29.7821 27.8922C29.6715 27.7405 29.579 27.5765 29.5064 27.4033ZM28.8267 29.8383C28.6579 30.0726 28.5213 30.3284 28.4205 30.5989C28.3394 30.8845 28.2959 31.1794 28.291 31.4762C28.302 31.7136 28.2581 31.9504 28.1629 32.1681C27.9803 32.3289 27.7631 32.4455 27.5282 32.5088C27.2474 32.6032 26.98 32.7337 26.733 32.8972C26.5021 33.0779 26.2961 33.2882 26.1203 33.5228C25.9854 33.7276 25.8043 33.8979 25.5915 34.0197C25.3544 34.04 25.1158 34.0082 24.8923 33.9265C24.6025 33.8383 24.3027 33.7878 24 33.7761C23.6974 33.7878 23.3975 33.8383 23.1077 33.9265C22.8841 34.008 22.6454 34.0398 22.4082 34.0197C22.1955 33.898 22.0144 33.7279 21.8797 33.5231C21.704 33.2887 21.4982 33.0785 21.2676 32.8978C21.0203 32.734 20.7527 32.6031 20.4715 32.5085C20.2367 32.4451 20.0196 32.3286 19.8371 32.1679C19.7418 31.9501 19.698 31.7133 19.709 31.4759C19.704 31.179 19.6605 30.8841 19.5795 30.5984C19.4786 30.3281 19.342 30.0725 19.1733 29.8383C19.0167 29.6469 18.9084 29.4207 18.8572 29.1787C18.9084 28.9371 19.0167 28.7112 19.173 28.52C19.342 28.2856 19.4787 28.0296 19.5795 27.7588C19.6606 27.4733 19.7041 27.1784 19.709 26.8816C19.698 26.6442 19.7418 26.4074 19.8371 26.1896C20.0196 26.0291 20.2366 25.9128 20.4713 25.8495C20.7523 25.7549 21.0199 25.6241 21.2673 25.4605C21.4979 25.2798 21.7037 25.0695 21.8795 24.835C22.0145 24.6301 22.1958 24.4597 22.4088 24.3378C22.6458 24.318 22.8842 24.3499 23.1077 24.4313C23.3975 24.5195 23.6974 24.57 24 24.5817C24.3027 24.57 24.6025 24.5195 24.8923 24.4313C25.1157 24.349 25.3546 24.3172 25.5918 24.3381C25.8046 24.4599 25.9857 24.6302 26.1205 24.835C26.2962 25.0692 26.5018 25.2793 26.7321 25.46C26.9797 25.6238 27.2474 25.7548 27.5287 25.8495C27.7635 25.9129 27.9805 26.0295 28.1629 26.1902C28.2582 26.408 28.302 26.6447 28.291 26.8821C28.296 27.1789 28.3395 27.4738 28.4205 27.7594C28.5214 28.0299 28.6581 28.2857 28.827 28.52C28.9833 28.7112 29.0916 28.9371 29.1429 29.1787C29.0917 29.4207 28.9833 29.6469 28.8267 29.8383Z" fill="#E53935"/>
<path d="M24 25.4644C23.2654 25.4644 22.5473 25.6822 21.9364 26.0903C21.3256 26.4985 20.8496 27.0785 20.5684 27.7572C20.2873 28.4359 20.2138 29.1828 20.3571 29.9033C20.5004 30.6238 20.8541 31.2856 21.3736 31.805C21.893 32.3245 22.5549 32.6782 23.2754 32.8216C23.9959 32.9649 24.7427 32.8913 25.4214 32.6102C26.1001 32.3291 26.6802 31.853 27.0883 31.2422C27.4964 30.6314 27.7143 29.9133 27.7143 29.1786C27.7131 28.1939 27.3215 27.2498 26.6251 26.5535C25.9288 25.8572 24.9847 25.4655 24 25.4644ZM24 31.7501C23.4914 31.7501 22.9943 31.5993 22.5714 31.3167C22.1485 31.0342 21.8189 30.6326 21.6243 30.1627C21.4297 29.6928 21.3788 29.1758 21.478 28.677C21.5772 28.1782 21.8221 27.72 22.1817 27.3604C22.5413 27.0007 22.9995 26.7558 23.4983 26.6566C23.9971 26.5574 24.5142 26.6083 24.984 26.803C25.4539 26.9976 25.8555 27.3272 26.1381 27.75C26.4206 28.1729 26.5714 28.6701 26.5714 29.1786C26.5707 29.8604 26.2995 30.514 25.8174 30.9961C25.3354 31.4782 24.6818 31.7493 24 31.7501Z" fill="#1A1917"/>
<path d="M15.4286 12.6072H17.7143C17.8658 12.6072 18.0112 12.547 18.1184 12.4398C18.2255 12.3327 18.2857 12.1873 18.2857 12.0358C18.2857 11.8842 18.2255 11.7389 18.1184 11.6317C18.0112 11.5246 17.8658 11.4644 17.7143 11.4644H15.4286C15.277 11.4644 15.1317 11.5246 15.0245 11.6317C14.9174 11.7389 14.8571 11.8842 14.8571 12.0358C14.8571 12.1873 14.9174 12.3327 15.0245 12.4398C15.1317 12.547 15.277 12.6072 15.4286 12.6072Z" fill="#E53935"/>
<path d="M24.7455 28.4988L23.6147 29.1793L23.4235 28.9137C23.3797 28.8528 23.3243 28.801 23.2606 28.7615C23.1968 28.722 23.1258 28.6954 23.0517 28.6833C22.9776 28.6712 22.9019 28.6738 22.8288 28.691C22.7558 28.7081 22.6868 28.7395 22.6259 28.7834C22.565 28.8272 22.5133 28.8826 22.4738 28.9465C22.4343 29.0103 22.4077 29.0813 22.3957 29.1554C22.3836 29.2294 22.3863 29.3052 22.4035 29.3782C22.4207 29.4513 22.4522 29.5202 22.4961 29.5811L22.9947 30.2739C23.0794 30.3891 23.2038 30.4688 23.3439 30.4976C23.484 30.5265 23.6297 30.5023 23.753 30.4299L25.3348 29.4782C25.4647 29.4 25.5582 29.2735 25.5948 29.1264C25.6314 28.9793 25.608 28.8237 25.5299 28.6938C25.4517 28.564 25.3252 28.4705 25.1781 28.4339C25.031 28.3973 24.8754 28.4207 24.7455 28.4988Z" fill="#E53935"/>
<path d="M0.571429 42.6072C0.88702 42.6072 1.14286 42.3514 1.14286 42.0358C1.14286 41.7202 0.88702 41.4644 0.571429 41.4644C0.255837 41.4644 0 41.7202 0 42.0358C0 42.3514 0.255837 42.6072 0.571429 42.6072Z" fill="#1A1917"/>
<path d="M3.14287 41.4644H2.28572C2.13417 41.4644 1.98883 41.5246 1.88166 41.6317C1.7745 41.7389 1.71429 41.8842 1.71429 42.0358C1.71429 42.1873 1.7745 42.3327 1.88166 42.4398C1.98883 42.547 2.13417 42.6072 2.28572 42.6072H3.14287C3.29442 42.6072 3.43976 42.547 3.54693 42.4398C3.65409 42.3327 3.71429 42.1873 3.71429 42.0358C3.71429 41.8842 3.65409 41.7389 3.54693 41.6317C3.43976 41.5246 3.29442 41.4644 3.14287 41.4644Z" fill="#1A1917"/>
<path d="M45.7143 41.4644H44.8571C44.7056 41.4644 44.5602 41.5246 44.4531 41.6317C44.3459 41.7389 44.2857 41.8842 44.2857 42.0358C44.2857 42.1873 44.3459 42.3327 44.4531 42.4398C44.5602 42.547 44.7056 42.6072 44.8571 42.6072H45.7143C45.8658 42.6072 46.0112 42.547 46.1183 42.4398C46.2255 42.3327 46.2857 42.1873 46.2857 42.0358C46.2857 41.8842 46.2255 41.7389 46.1183 41.6317C46.0112 41.5246 45.8658 41.4644 45.7143 41.4644Z" fill="#1A1917"/>
<path d="M47.4286 42.6072C47.7442 42.6072 48 42.3514 48 42.0358C48 41.7202 47.7442 41.4644 47.4286 41.4644C47.113 41.4644 46.8571 41.7202 46.8571 42.0358C46.8571 42.3514 47.113 42.6072 47.4286 42.6072Z" fill="#1A1917"/>
<path d="M33.7583 43.75H31.3846C31.241 43.7615 31.1069 43.8267 31.0092 43.9326C30.9114 44.0385 30.8571 44.1773 30.8571 44.3214C30.8571 44.4655 30.9114 44.6044 31.0092 44.7103C31.1069 44.8162 31.241 44.8813 31.3846 44.8929H33.7583C33.9019 44.8813 34.036 44.8162 34.1337 44.7103C34.2315 44.6044 34.2857 44.4655 34.2857 44.3214C34.2857 44.1773 34.2315 44.0385 34.1337 43.9326C34.036 43.8267 33.9019 43.7615 33.7583 43.75Z" fill="#E53935"/>
<path d="M16.6154 43.75H14.2417C14.0981 43.7615 13.964 43.8267 13.8663 43.9326C13.7685 44.0385 13.7143 44.1773 13.7143 44.3214C13.7143 44.4655 13.7685 44.6044 13.8663 44.7103C13.964 44.8162 14.0981 44.8813 14.2417 44.8929H16.6154C16.759 44.8813 16.8931 44.8162 16.9908 44.7103C17.0886 44.6044 17.1429 44.4655 17.1429 44.3214C17.1429 44.1773 17.0886 44.0385 16.9908 43.9326C16.8931 43.8267 16.759 43.7615 16.6154 43.75Z" fill="#E53935"/>
<path d="M29.7143 43.75H18.2857C18.1342 43.75 17.9888 43.8102 17.8817 43.9174C17.7745 44.0245 17.7143 44.1699 17.7143 44.3214C17.7143 44.473 17.7745 44.6183 17.8817 44.7255C17.9888 44.8327 18.1342 44.8929 18.2857 44.8929H22.84V45.4643H20.5714C20.4199 45.4643 20.2745 45.5245 20.1674 45.6317C20.0602 45.7388 20 45.8842 20 46.0357C20 46.1873 20.0602 46.3326 20.1674 46.4398C20.2745 46.5469 20.4199 46.6071 20.5714 46.6071H27.7143C27.8658 46.6071 28.0112 46.5469 28.1184 46.4398C28.2255 46.3326 28.2857 46.1873 28.2857 46.0357C28.2857 45.8842 28.2255 45.7388 28.1184 45.6317C28.0112 45.5245 27.8658 45.4643 27.7143 45.4643H25.16V44.8929H29.7143C29.8658 44.8929 30.0112 44.8327 30.1184 44.7255C30.2255 44.6183 30.2857 44.473 30.2857 44.3214C30.2857 44.1699 30.2255 44.0245 30.1184 43.9174C30.0112 43.8102 29.8658 43.75 29.7143 43.75Z" fill="#E53935"/>
<path d="M43.0632 41.4643H36.4714C36.5372 41.281 36.571 41.0877 36.5714 40.8929V13.6393C36.5787 13.4334 36.52 13.2306 36.404 13.0603L29.5469 6.20316C29.3459 6.08189 29.1133 6.02358 28.8789 6.03576H13.1429C12.6884 6.03626 12.2526 6.21703 11.9312 6.53841C11.6098 6.8598 11.4291 7.29554 11.4286 7.75005V40.8929C11.429 41.0877 11.4628 41.281 11.5286 41.4643H4.93678C4.85548 41.4537 4.77286 41.4606 4.69442 41.4844C4.61599 41.5083 4.54354 41.5486 4.48193 41.6027C4.42032 41.6568 4.37095 41.7234 4.33714 41.7981C4.30332 41.8727 4.28583 41.9538 4.28583 42.0358C4.28583 42.1177 4.30332 42.1988 4.33714 42.2735C4.37095 42.3482 4.42032 42.4148 4.48193 42.4689C4.54354 42.5229 4.61599 42.5633 4.69442 42.5871C4.77286 42.611 4.85548 42.6178 4.93678 42.6072H43.0632C43.1445 42.6178 43.2272 42.611 43.3056 42.5871C43.384 42.5633 43.4565 42.5229 43.5181 42.4689C43.5797 42.4148 43.6291 42.3482 43.6629 42.2735C43.6967 42.1988 43.7142 42.1177 43.7142 42.0358C43.7142 41.9538 43.6967 41.8727 43.6629 41.7981C43.6291 41.7234 43.5797 41.6568 43.5181 41.6027C43.4565 41.5486 43.384 41.5083 43.3056 41.4844C43.2272 41.4606 43.1445 41.4537 43.0632 41.4643ZM29.7143 7.98664L34.6205 12.8929H30.2433C30.1012 12.8908 29.9657 12.8325 29.8665 12.7306C29.7673 12.6288 29.7126 12.4918 29.7143 12.3496V7.98664ZM13.1429 41.4643C12.9914 41.4641 12.8461 41.4039 12.739 41.2967C12.6319 41.1896 12.5716 41.0444 12.5714 40.8929V7.75005C12.5716 7.59856 12.6319 7.45333 12.739 7.34621C12.8461 7.23909 12.9914 7.17882 13.1429 7.17862H28.5714V12.3496C28.5701 12.7948 28.7453 13.2223 29.0587 13.5384C29.3722 13.8545 29.7982 14.0333 30.2433 14.0358H35.4286V40.8929C35.4284 41.0444 35.3681 41.1896 35.261 41.2967C35.1539 41.4039 35.0086 41.4641 34.8572 41.4643L13.1429 41.4643Z" fill="#1A1917"/>
</g>
<defs>
<clipPath id="clip0_487_15868">
<rect width="48" height="48" fill="white"/>
</clipPath>
</defs>
</svg>
