<svg width="48" height="48" viewBox="0 0 48 48" fill="none" xmlns="http://www.w3.org/2000/svg">
<path d="M13.1427 8.36958C13.1362 8.22568 13.187 8.08508 13.2839 7.97847C13.3807 7.87185 13.5158 7.80788 13.6597 7.8005H34.3399C34.4838 7.80788 34.6189 7.87185 34.7157 7.97847C34.8126 8.08508 34.8634 8.22568 34.8569 8.36958V20.3601L35.9998 21.4997V8.36958C36.008 7.92064 35.8379 7.48676 35.5268 7.16304C35.2156 6.83931 34.7888 6.65215 34.3399 6.64258H13.6597C13.2108 6.65215 12.784 6.83931 12.4728 7.16304C12.1617 7.48676 11.9916 7.92064 11.9998 8.36958V21.3721L13.1427 20.199V8.36958Z" fill="#2D4356"/>
<path d="M19.4287 15.214C19.4287 16.1182 19.6968 17.002 20.1991 17.7538C20.7015 18.5055 21.4154 19.0915 22.2507 19.4375C23.086 19.7835 24.0052 19.874 24.892 19.6976C25.7788 19.5212 26.5933 19.0858 27.2326 18.4465C27.872 17.8072 28.3073 16.9926 28.4837 16.1058C28.6601 15.2191 28.5696 14.2999 28.2236 13.4646C27.8776 12.6293 27.2917 11.9153 26.5399 11.413C25.7881 10.9107 24.9043 10.6426 24.0001 10.6426C22.7881 10.644 21.6262 11.126 20.7692 11.983C19.9122 12.8401 19.4301 14.002 19.4287 15.214ZM27.4287 15.214C27.4287 15.8921 27.2276 16.555 26.8509 17.1188C26.4742 17.6826 25.9387 18.1221 25.3122 18.3816C24.6857 18.6411 23.9963 18.709 23.3313 18.5767C22.6662 18.4444 22.0553 18.1179 21.5758 17.6384C21.0963 17.1589 20.7697 16.548 20.6374 15.8829C20.5052 15.2178 20.5731 14.5284 20.8326 13.9019C21.0921 13.2755 21.5315 12.74 22.0953 12.3633C22.6592 11.9865 23.322 11.7854 24.0001 11.7854C24.9091 11.7864 25.7806 12.148 26.4234 12.7907C27.0662 13.4335 27.4277 14.305 27.4287 15.214Z" fill="#E53935"/>
<path d="M22.991 14.7601C22.8882 14.6488 22.7453 14.5829 22.5939 14.577C22.4425 14.571 22.2949 14.6254 22.1836 14.7283C22.0723 14.8311 22.0064 14.974 22.0004 15.1254C21.9945 15.2768 22.0489 15.4244 22.1518 15.5357L23.0041 16.4584C23.0985 16.5604 23.2269 16.6246 23.3652 16.6389C23.5035 16.6532 23.6423 16.6166 23.7555 16.5359L25.7603 15.1075C25.8215 15.0639 25.8735 15.0087 25.9133 14.9451C25.9532 14.8815 25.9801 14.8106 25.9925 14.7365C26.005 14.6625 26.0027 14.5867 25.9858 14.5135C25.969 14.4403 25.9379 14.3712 25.8943 14.3101C25.8507 14.2489 25.7955 14.197 25.7318 14.1572C25.6681 14.1174 25.5972 14.0905 25.5232 14.0781C25.4491 14.0658 25.3733 14.0681 25.3002 14.085C25.227 14.1019 25.1579 14.1331 25.0968 14.1767L23.5019 15.3131L22.991 14.7601Z" fill="#E53935"/>
<path d="M0.571429 43.2151C0.88702 43.2151 1.14286 42.9593 1.14286 42.6437C1.14286 42.3281 0.88702 42.0723 0.571429 42.0723C0.255837 42.0723 0 42.3281 0 42.6437C0 42.9593 0.255837 43.2151 0.571429 43.2151Z" fill="#2D4356"/>
<path d="M3.14293 42.0723H2.28578C2.13423 42.0723 1.98889 42.1325 1.88172 42.2396C1.77456 42.3468 1.71436 42.4921 1.71436 42.6437C1.71436 42.7952 1.77456 42.9406 1.88172 43.0478C1.98889 43.1549 2.13423 43.2151 2.28578 43.2151H3.14293C3.29448 43.2151 3.43982 43.1549 3.54699 43.0478C3.65415 42.9406 3.71436 42.7952 3.71436 42.6437C3.71436 42.4921 3.65415 42.3468 3.54699 42.2396C3.43982 42.1325 3.29448 42.0723 3.14293 42.0723Z" fill="#2D4356"/>
<path d="M45.7142 42.0723H44.8571C44.7055 42.0723 44.5602 42.1325 44.453 42.2396C44.3458 42.3468 44.2856 42.4921 44.2856 42.6437C44.2856 42.7952 44.3458 42.9406 44.453 43.0478C44.5602 43.1549 44.7055 43.2151 44.8571 43.2151H45.7142C45.8658 43.2151 46.0111 43.1549 46.1183 43.0478C46.2254 42.9406 46.2856 42.7952 46.2856 42.6437C46.2856 42.4921 46.2254 42.3468 46.1183 42.2396C46.0111 42.1325 45.8658 42.0723 45.7142 42.0723Z" fill="#2D4356"/>
<path d="M47.4284 43.2151C47.744 43.2151 47.9998 42.9593 47.9998 42.6437C47.9998 42.3281 47.744 42.0723 47.4284 42.0723C47.1128 42.0723 46.8569 42.3281 46.8569 42.6437C46.8569 42.9593 47.1128 43.2151 47.4284 43.2151Z" fill="#2D4356"/>
<path d="M33.758 44.3574H31.3844C31.2408 44.3689 31.1067 44.4341 31.009 44.54C30.9112 44.6459 30.8569 44.7847 30.8569 44.9289C30.8569 45.073 30.9112 45.2118 31.009 45.3177C31.1067 45.4236 31.2408 45.4888 31.3844 45.5003H33.758C33.9017 45.4888 34.0357 45.4236 34.1335 45.3177C34.2312 45.2118 34.2855 45.073 34.2855 44.9289C34.2855 44.7847 34.2312 44.6459 34.1335 44.54C34.0357 44.4341 33.9017 44.3689 33.758 44.3574Z" fill="#E53935"/>
<path d="M16.6155 44.3574H14.2418C14.0982 44.3689 13.9641 44.4341 13.8664 44.54C13.7686 44.6459 13.7144 44.7847 13.7144 44.9289C13.7144 45.073 13.7686 45.2118 13.8664 45.3177C13.9641 45.4236 14.0982 45.4888 14.2418 45.5003H16.6155C16.7591 45.4888 16.8932 45.4236 16.9909 45.3177C17.0887 45.2118 17.1429 45.073 17.1429 44.9289C17.1429 44.7847 17.0887 44.6459 16.9909 44.54C16.8932 44.4341 16.7591 44.3689 16.6155 44.3574Z" fill="#E53935"/>
<path d="M29.7144 44.3574H18.2858C18.1342 44.3574 17.9889 44.4176 17.8817 44.5248C17.7746 44.632 17.7144 44.7773 17.7144 44.9289C17.7144 45.0804 17.7746 45.2257 17.8817 45.3329C17.9889 45.4401 18.1342 45.5003 18.2858 45.5003H22.8401V46.0717H20.5715C20.4199 46.0717 20.2746 46.1319 20.1674 46.2391C20.0603 46.3462 20.0001 46.4916 20.0001 46.6431C20.0001 46.7947 20.0603 46.94 20.1674 47.0472C20.2746 47.1544 20.4199 47.2146 20.5715 47.2146H27.7144C27.8659 47.2146 28.0113 47.1544 28.1184 47.0472C28.2256 46.94 28.2858 46.7947 28.2858 46.6431C28.2858 46.4916 28.2256 46.3462 28.1184 46.2391C28.0113 46.1319 27.8659 46.0717 27.7144 46.0717H25.1601V45.5003H29.7144C29.8659 45.5003 30.0113 45.4401 30.1184 45.3329C30.2256 45.2257 30.2858 45.0804 30.2858 44.9289C30.2858 44.7773 30.2256 44.632 30.1184 44.5248C30.0113 44.4176 29.8659 44.3574 29.7144 44.3574Z" fill="#E53935"/>
<path d="M43.063 42.072H26.9464C27.1081 41.8381 27.2175 41.5722 27.2671 41.2922C27.4664 41.3511 27.6729 41.3823 27.8807 41.3849C28.3663 41.39 28.8362 41.2129 29.1977 40.8887C29.5592 40.5644 29.7862 40.1165 29.8338 39.6332C29.9762 39.6642 30.1215 39.6798 30.2672 39.6795C30.5326 39.6818 30.7957 39.6299 31.0403 39.5269C31.285 39.424 31.506 39.2722 31.6899 39.0808C31.8738 38.8894 32.0167 38.6625 32.1098 38.414C32.203 38.1654 32.2444 37.9005 32.2315 37.6354C32.2558 37.6386 32.2803 37.6394 32.3047 37.6378C32.5654 37.6395 32.8238 37.5894 33.0649 37.4903C33.3059 37.3913 33.5249 37.2452 33.7091 37.0608C34.0866 36.6681 34.2931 36.1419 34.2836 35.5973C34.274 35.0527 34.0491 34.534 33.658 34.1549L32.9893 33.4858L36.2973 30.136C36.4302 30.1725 36.5672 30.1921 36.705 30.1943C37.1289 30.1955 37.5362 30.0298 37.8387 29.733L39.2398 28.3579C39.3899 28.2107 39.5093 28.035 39.5907 27.8411C39.6721 27.6472 39.7141 27.439 39.7141 27.2287C39.7141 27.0184 39.6721 26.8102 39.5907 26.6163C39.5093 26.4224 39.3899 26.2467 39.2398 26.0995L32.7143 19.6777C32.411 19.3818 32.004 19.2162 31.5803 19.2161C31.1565 19.2161 30.7495 19.3816 30.4461 19.6775L29.0451 21.0526C28.8621 21.2251 28.7251 21.4406 28.6464 21.6795C28.5677 21.9184 28.5498 22.1731 28.5944 22.4206L27.8704 23.1526C27.8293 23.1952 27.7791 23.228 27.7236 23.2486C27.6681 23.2692 27.6087 23.2771 27.5498 23.2717L25.6189 23.1076C25.3931 23.0891 25.1661 23.1201 24.9537 23.1987C24.7412 23.2772 24.5486 23.4013 24.3892 23.5622L23.7335 24.2251L23.5261 24.0176C23.3844 23.8749 23.2159 23.7617 23.0302 23.6844C22.8445 23.6071 22.6454 23.5673 22.4443 23.5672L20.4886 23.5619C20.4373 23.5619 20.3865 23.5518 20.3392 23.532C20.2918 23.5123 20.2488 23.4834 20.2127 23.447L19.1237 22.3572C19.1515 22.1214 19.1262 21.8823 19.0496 21.6575C18.9731 21.4326 18.8473 21.2278 18.6813 21.0579L17.3211 19.6836C17.1749 19.5352 17.0007 19.4172 16.8086 19.3368C16.6164 19.2563 16.4102 19.2148 16.2019 19.2148C15.9936 19.2148 15.7873 19.2563 15.5952 19.3368C15.403 19.4172 15.2288 19.5352 15.0827 19.6836L8.74423 26.1053C8.45017 26.4054 8.28549 26.8089 8.28555 27.229C8.2856 27.6492 8.45038 28.0526 8.74451 28.3527L10.1051 29.7272C10.3009 29.9308 10.5494 30.0761 10.8229 30.147C11.0964 30.2178 11.3842 30.2114 11.6543 30.1285L14.426 32.9018L13.62 33.6953C13.4685 33.8439 13.3482 34.0212 13.266 34.2169C13.1838 34.4126 13.1415 34.6227 13.1415 34.8349C13.1415 35.0471 13.1838 35.2572 13.266 35.4529C13.3482 35.6486 13.4685 35.8259 13.62 35.9745L14.2244 36.5697C14.5002 36.8379 14.8626 36.9989 15.2465 37.0238C15.2744 37.406 15.4399 37.765 15.7122 38.0346L16.3163 38.6292C16.5921 38.8974 16.9545 39.0585 17.3384 39.0836C17.3664 39.4657 17.5319 39.8246 17.8044 40.0939L18.4085 40.6888C18.6841 40.9572 19.0466 41.1184 19.4305 41.1435C19.4581 41.488 19.5974 41.814 19.8274 42.072H4.93659C4.8553 42.0614 4.77268 42.0682 4.69424 42.0921C4.6158 42.1159 4.54336 42.1562 4.48175 42.2103C4.42013 42.2644 4.37077 42.331 4.33695 42.4057C4.30314 42.4804 4.28564 42.5614 4.28564 42.6434C4.28564 42.7254 4.30314 42.8064 4.33695 42.8811C4.37077 42.9558 4.42013 43.0224 4.48175 43.0765C4.54336 43.1306 4.6158 43.1709 4.69424 43.1948C4.77268 43.2186 4.8553 43.2255 4.93659 43.2149H43.063C43.1443 43.2255 43.227 43.2186 43.3054 43.1948C43.3838 43.1709 43.4563 43.1306 43.5179 43.0765C43.5795 43.0224 43.6289 42.9558 43.6627 42.8811C43.6965 42.8064 43.714 42.7254 43.714 42.6434C43.714 42.5614 43.6965 42.4804 43.6627 42.4057C43.6289 42.331 43.5795 42.2644 43.5179 42.2103C43.4563 42.1562 43.3838 42.1159 43.3054 42.0921C43.227 42.0682 43.1443 42.0614 43.063 42.072ZM29.847 21.8674L31.2472 20.4925C31.3363 20.4059 31.4557 20.3573 31.5799 20.3573C31.7042 20.3573 31.8236 20.4059 31.9127 20.4925C31.9127 20.4925 38.4077 26.8846 38.4377 26.9141C38.5199 26.998 38.5659 27.1108 38.5661 27.2282C38.5662 27.3457 38.5204 27.4585 38.4384 27.5426L37.0374 28.9177C36.9484 29.0046 36.829 29.0533 36.7046 29.0533C36.5802 29.0533 36.4608 29.0046 36.3719 28.9177L29.8471 22.4963C29.7648 22.4123 29.7188 22.2994 29.7188 22.1819C29.7188 22.0643 29.7648 21.9514 29.847 21.8674ZM25.2014 24.3661C25.2426 24.3235 25.2929 24.2906 25.3485 24.2699C25.404 24.2493 25.4635 24.2413 25.5226 24.2467L27.4535 24.4107C27.6792 24.4292 27.9061 24.3981 28.1185 24.3195C28.3309 24.241 28.5235 24.117 28.6829 23.9562L29.1851 23.4486L35.3265 29.4926L32.1814 32.6775L26.7914 27.2846L26.8089 27.2669C26.8618 27.2136 26.9036 27.1504 26.9319 27.0809C26.9603 27.0114 26.9747 26.9369 26.9743 26.8619C26.974 26.7868 26.9588 26.7125 26.9297 26.6433C26.9006 26.5741 26.8581 26.5113 26.8048 26.4586C26.7514 26.4058 26.6881 26.364 26.6186 26.3357C26.5491 26.3073 26.4747 26.293 26.3996 26.2934C26.3245 26.2939 26.2503 26.3091 26.1811 26.3383C26.1119 26.3674 26.0491 26.4099 25.9964 26.4633L23.6857 28.7994C23.6292 28.8565 23.5853 28.9249 23.5571 29.0001C23.5288 29.0753 23.5167 29.1556 23.5217 29.2358C23.5713 30.0564 23.0646 30.9178 22.758 31.3587C22.7256 31.4061 22.6837 31.4463 22.635 31.4768C22.5863 31.5072 22.5318 31.5273 22.475 31.5356L21.6041 31.6528C21.5398 31.6587 21.4749 31.6497 21.4146 31.6266C21.3543 31.6036 21.3 31.567 21.256 31.5197C21.212 31.4723 21.1795 31.4156 21.1608 31.3537C21.1422 31.2919 21.138 31.2266 21.1485 31.1628L21.701 28.0125C21.7157 27.9278 21.756 27.8496 21.8165 27.7884L25.2014 24.3661ZM11.5295 28.9238C11.4477 29.0039 11.3378 29.0486 11.2234 29.0485C11.1089 29.0483 10.9991 29.0033 10.9176 28.923L9.55731 27.549C9.47345 27.4635 9.4265 27.3484 9.42655 27.2286C9.42661 27.1088 9.47366 26.9938 9.55759 26.9084C9.55759 26.9084 15.8942 20.4886 15.8961 20.4867C15.9773 20.4056 16.0875 20.3601 16.2023 20.3602C16.3171 20.3603 16.4271 20.406 16.5082 20.4873L17.8685 21.8615C17.9524 21.9471 17.9993 22.0621 17.9993 22.1818C17.9993 22.3016 17.9524 22.4166 17.8685 22.5022L11.5295 28.9238ZM12.6042 29.4619L18.569 23.4193L19.4043 24.255C19.546 24.3976 19.7145 24.5107 19.9001 24.5879C20.0857 24.6651 20.2848 24.7049 20.4858 24.7048L22.4407 24.7102C22.4922 24.7101 22.5431 24.7203 22.5906 24.7401C22.6381 24.7598 22.6813 24.7888 22.7175 24.8254L22.9297 25.0378L21.0043 26.9846C20.7794 27.211 20.6297 27.5011 20.5754 27.8155C20.5754 27.8155 20.0235 30.962 20.0229 30.9653C19.9874 31.205 20.0071 31.4497 20.0803 31.6807C20.1536 31.9118 20.2785 32.1231 20.4457 32.2986C20.6128 32.4741 20.8178 32.6091 21.045 32.6936C21.2722 32.778 21.5156 32.8095 21.7568 32.7857L22.6274 32.6685C22.8413 32.6388 23.0467 32.5651 23.2306 32.452C23.4146 32.3389 23.5731 32.1888 23.6961 32.0113C24.0574 31.4921 24.6359 30.4995 24.6666 29.4331L25.9877 28.0973L32.8494 34.9627C33.0265 35.1275 33.1313 35.3556 33.1409 35.5973C33.1504 35.839 33.064 36.0747 32.9005 36.253C32.7203 36.4115 32.486 36.4946 32.2462 36.485C32.0064 36.4755 31.7795 36.374 31.6125 36.2016L27.2674 31.8537C27.1602 31.7468 27.0149 31.6868 26.8635 31.6869C26.7121 31.687 26.5669 31.7471 26.4598 31.8542C26.3526 31.9612 26.2924 32.1063 26.2922 32.2578C26.292 32.4092 26.3519 32.5545 26.4587 32.6618L30.7862 36.9918C30.9678 37.1566 31.077 37.3865 31.0899 37.6314C31.1028 37.8763 31.0185 38.1164 30.8552 38.2994C30.6706 38.4586 30.4316 38.5404 30.1882 38.5275C29.9447 38.5146 29.7157 38.4081 29.549 38.2302L25.1866 33.8653C25.0795 33.758 24.9341 33.6978 24.7825 33.6977C24.6309 33.6977 24.4855 33.7578 24.3783 33.865C24.2711 33.9721 24.2108 34.1175 24.2107 34.2691C24.2107 34.4207 24.2709 34.5661 24.378 34.6733L28.4005 38.6979C28.5819 38.8627 28.6908 39.0925 28.7036 39.3372C28.7165 39.582 28.6321 39.8219 28.469 40.0048C28.2844 40.1639 28.0454 40.2455 27.802 40.2327C27.5586 40.2199 27.3296 40.1136 27.1627 39.9359L22.8004 35.5707C22.6932 35.4635 22.5479 35.4032 22.3963 35.4032C22.2447 35.4031 22.0993 35.4633 21.992 35.5704C21.8848 35.6776 21.8245 35.823 21.8245 35.9746C21.8244 36.1262 21.8846 36.2716 21.9918 36.3788L25.8702 40.2595C25.9605 40.3387 26.0337 40.4355 26.085 40.544C26.1364 40.6526 26.165 40.7705 26.1689 40.8906C26.1728 41.0106 26.1521 41.1301 26.1079 41.2418C26.0637 41.3535 25.9971 41.4549 25.9122 41.5398C25.8272 41.6247 25.7257 41.6912 25.614 41.7352C25.5023 41.7793 25.3827 41.7999 25.2627 41.7959C25.1427 41.7918 25.0247 41.7632 24.9162 41.7117C24.8078 41.6602 24.711 41.587 24.6319 41.4966L24.3182 41.1826C24.5161 40.8749 24.6017 40.5083 24.5604 40.1448C24.5192 39.7813 24.3538 39.4431 24.092 39.1875L23.4879 38.5929C23.212 38.3247 22.8496 38.1636 22.4656 38.1386C22.4379 37.7565 22.2724 37.3975 21.9998 37.1283L21.3957 36.5331C21.1199 36.265 20.7576 36.1039 20.3737 36.0788C20.3457 35.6967 20.1801 35.3378 19.9077 35.0684L19.3036 34.4733C19.0278 34.205 18.6654 34.0439 18.2815 34.0189C18.2535 33.6368 18.088 33.2777 17.8155 33.0083L17.2114 32.414C16.9613 32.1709 16.64 32.0141 16.2945 31.9666C15.949 31.9191 15.5973 31.9834 15.2909 32.1501L12.6042 29.4619ZM23.5908 42.072H23.4778L23.5347 42.0159L23.5908 42.072ZM15.7122 35.7549C15.6204 35.8444 15.4973 35.8946 15.3692 35.8946C15.241 35.8947 15.1178 35.8446 15.026 35.7552L14.4219 35.1603C14.3363 35.0737 14.2883 34.9568 14.2883 34.835C14.2883 34.7133 14.3363 34.5964 14.4219 34.5098L15.7236 33.2282C15.8153 33.1386 15.9384 33.0885 16.0666 33.0886C16.1948 33.0886 16.3178 33.1389 16.4095 33.2285C16.4095 33.2285 17.0114 33.821 17.0136 33.8231C17.0564 33.8657 17.0904 33.9164 17.1136 33.9722C17.1368 34.028 17.1488 34.0879 17.1488 34.1483C17.1488 34.2088 17.1368 34.2686 17.1136 34.3244C17.0904 34.3803 17.0564 34.4309 17.0136 34.4736L15.7122 35.7549ZM17.8043 37.8144C17.7126 37.9039 17.5895 37.954 17.4613 37.954C17.3331 37.954 17.21 37.9039 17.1182 37.8144L16.5141 37.2201C16.4714 37.1774 16.4375 37.1266 16.4143 37.0708C16.3912 37.015 16.3793 36.9552 16.3793 36.8947C16.3793 36.8343 16.3912 36.7745 16.4143 36.7186C16.4375 36.6628 16.4714 36.6121 16.5141 36.5694C16.5141 36.5694 17.8132 35.29 17.8152 35.288C17.9081 35.2006 18.0309 35.152 18.1584 35.1519C18.2859 35.1518 18.4087 35.2004 18.5017 35.2878L19.1058 35.8829C19.1486 35.9256 19.1825 35.9763 19.2057 36.0321C19.2289 36.0879 19.2408 36.1477 19.2408 36.2081C19.2408 36.2686 19.2289 36.3284 19.2057 36.3842C19.1825 36.44 19.1486 36.4907 19.1058 36.5334L17.8043 37.8144ZM19.2104 39.8745C19.2104 39.8745 18.6076 39.2809 18.606 39.2794C18.5208 39.1926 18.473 39.0757 18.4731 38.9541C18.4731 38.8324 18.521 38.7156 18.6063 38.6289C18.6063 38.6289 19.906 37.3495 19.9077 37.3479C20.0004 37.2602 20.1231 37.2113 20.2507 37.2113C20.3783 37.2112 20.501 37.26 20.5938 37.3476C20.5938 37.3476 21.1963 37.9412 21.1979 37.9428C21.2834 38.0295 21.3312 38.1463 21.3312 38.268C21.3312 38.3897 21.2834 38.5065 21.1979 38.5932L19.8965 39.8743C19.8048 39.9639 19.6817 40.0141 19.5535 40.0142C19.4253 40.0142 19.3021 39.9641 19.2104 39.8745ZM21.3025 41.9341L20.6984 41.3392C20.6555 41.2966 20.6215 41.2459 20.5982 41.1901C20.575 41.1343 20.563 41.0744 20.563 41.014C20.563 40.9535 20.575 40.8936 20.5982 40.8378C20.6215 40.782 20.6555 40.7313 20.6984 40.6887L21.9998 39.4074C22.0916 39.3178 22.2147 39.2677 22.343 39.2678C22.4712 39.2678 22.5943 39.3181 22.686 39.4077C22.686 39.4077 23.2884 40.0004 23.2901 40.0021C23.3759 40.0886 23.424 40.2055 23.424 40.3274C23.424 40.4493 23.3759 40.5662 23.2901 40.6528L21.9884 41.9341C21.9018 42.0188 21.7865 42.068 21.6654 42.072H21.6255C21.5044 42.068 21.3892 42.0188 21.3025 41.9341Z" fill="#2D4356"/>
</svg>
