<svg width="24" height="24" viewBox="0 0 24 24" fill="none" xmlns="http://www.w3.org/2000/svg">
<g clip-path="url(#clip0_487_16329)">
<path d="M9.87221 15.6014L4.15793 18.4586C4.12436 18.4753 4.09443 18.4986 4.06985 18.5269C4.04526 18.5553 4.0265 18.5882 4.01463 18.6238C4.00277 18.6594 3.99803 18.697 4.00069 18.7344C4.00335 18.7718 4.01336 18.8084 4.03014 18.8419C4.06403 18.9097 4.12346 18.9613 4.19536 18.9852C4.23095 18.9971 4.26854 19.0018 4.30597 18.9992C4.3434 18.9965 4.37994 18.9865 4.41351 18.9697L10.1278 16.1126C10.1956 16.0787 10.2471 16.0192 10.271 15.9474C10.295 15.8755 10.2894 15.797 10.2555 15.7292C10.2216 15.6615 10.1622 15.6099 10.0903 15.586C10.0184 15.562 9.93999 15.5676 9.87221 15.6014Z" fill="#B8B8B8"/>
<path d="M19.9699 18.842C19.9866 18.8084 19.9967 18.7719 19.9993 18.7344C20.002 18.697 19.9972 18.6594 19.9854 18.6238C19.9735 18.5882 19.9548 18.5553 19.9302 18.5269C19.9056 18.4986 19.8756 18.4754 19.8421 18.4586L14.1278 15.6015C14.06 15.5676 13.9815 15.562 13.9096 15.586C13.8377 15.6099 13.7783 15.6615 13.7444 15.7292C13.7105 15.797 13.7049 15.8755 13.7289 15.9474C13.7529 16.0193 13.8044 16.0787 13.8722 16.1126L19.5865 18.9698C19.6543 19.0036 19.7327 19.0092 19.8046 18.9852C19.8765 18.9613 19.936 18.9097 19.9699 18.842Z" fill="#B8B8B8"/>
<path d="M11 10.1426C10.9242 10.1426 10.8516 10.1727 10.798 10.2263C10.7444 10.2798 10.7143 10.3525 10.7143 10.4283V13.8685L11.2857 14.1648V10.4283C11.2857 10.3525 11.2556 10.2798 11.202 10.2263C11.1484 10.1727 11.0758 10.1426 11 10.1426Z" fill="#B8B8B8"/>
<path d="M9.85709 11.5791C9.78346 11.5791 9.71285 11.6084 9.66078 11.6604C9.60872 11.7125 9.57947 11.7831 9.57947 11.8567V13.2798L10.1347 13.5677V11.8567C10.1347 11.7831 10.1055 11.7125 10.0534 11.6604C10.0013 11.6084 9.93072 11.5791 9.85709 11.5791Z" fill="#B8B8B8"/>
<path d="M12.4286 14.3134V8.71443C12.4286 8.63865 12.3985 8.56598 12.3449 8.51239C12.2913 8.45881 12.2187 8.42871 12.1429 8.42871C12.0671 8.42871 11.9944 8.45881 11.9409 8.51239C11.8873 8.56598 11.8572 8.63865 11.8572 8.71443V14.4615L12 14.5356L12.4286 14.3134Z" fill="#B8B8B8"/>
<path d="M13.566 7.57129C13.566 7.49696 13.5365 7.42567 13.4839 7.37311C13.4313 7.32054 13.36 7.29102 13.2857 7.29102C13.2114 7.29102 13.1401 7.32054 13.0875 7.37311C13.035 7.42567 13.0054 7.49696 13.0054 7.57129V14.0138L13.566 13.7232V7.57129Z" fill="#B8B8B8"/>
<path d="M14.7112 6.42845C14.7114 6.39122 14.7042 6.35433 14.6901 6.31989C14.6759 6.28546 14.6551 6.25415 14.6289 6.22777C14.6026 6.20139 14.5714 6.18045 14.537 6.16617C14.5027 6.15188 14.4658 6.14453 14.4286 6.14453C14.3913 6.14453 14.3545 6.15188 14.3201 6.16617C14.2857 6.18045 14.2545 6.20139 14.2283 6.22777C14.202 6.25415 14.1812 6.28546 14.1671 6.31989C14.1529 6.35433 14.1458 6.39122 14.1459 6.42845V13.4225L14.7112 13.1294V6.42845Z" fill="#B8B8B8"/>
<path d="M0.285714 20.1427C0.44351 20.1427 0.571429 20.0148 0.571429 19.857C0.571429 19.6992 0.44351 19.5713 0.285714 19.5713C0.127919 19.5713 0 19.6992 0 19.857C0 20.0148 0.127919 20.1427 0.285714 20.1427Z" fill="#B8B8B8"/>
<path d="M1.57146 19.5713H1.14289C1.06712 19.5713 0.994443 19.6014 0.940862 19.655C0.88728 19.7086 0.857178 19.7812 0.857178 19.857C0.857178 19.9328 0.88728 20.0055 0.940862 20.059C0.994443 20.1126 1.06712 20.1427 1.14289 20.1427H1.57146C1.64724 20.1427 1.71991 20.1126 1.77349 20.059C1.82708 20.0055 1.85718 19.9328 1.85718 19.857C1.85718 19.7812 1.82708 19.7086 1.77349 19.655C1.71991 19.6014 1.64724 19.5713 1.57146 19.5713Z" fill="#B8B8B8"/>
<path d="M22.8571 19.5713H22.4285C22.3528 19.5713 22.2801 19.6014 22.2265 19.655C22.1729 19.7086 22.1428 19.7812 22.1428 19.857C22.1428 19.9328 22.1729 20.0055 22.2265 20.059C22.2801 20.1126 22.3528 20.1427 22.4285 20.1427H22.8571C22.9329 20.1427 23.0056 20.1126 23.0591 20.059C23.1127 20.0055 23.1428 19.9328 23.1428 19.857C23.1428 19.7812 23.1127 19.7086 23.0591 19.655C23.0056 19.6014 22.9329 19.5713 22.8571 19.5713Z" fill="#B8B8B8"/>
<path d="M23.7143 20.1427C23.8721 20.1427 24 20.0148 24 19.857C24 19.6992 23.8721 19.5713 23.7143 19.5713C23.5565 19.5713 23.4286 19.6992 23.4286 19.857C23.4286 20.0148 23.5565 20.1427 23.7143 20.1427Z" fill="#B8B8B8"/>
<path d="M21.5316 19.5711H20.9297C21.0312 19.4288 21.1037 19.2678 21.1429 19.0974V10.5213C21.0248 9.79619 20.5163 9.28589 19.8892 9.28589H18.0007V6.1263C17.995 5.74666 17.8389 5.38479 17.5668 5.12004C17.2946 4.85529 16.9286 4.70926 16.549 4.71398H7.73674C7.3571 4.70926 6.99107 4.85529 6.71893 5.12004C6.44679 5.38479 6.29075 5.74666 6.28501 6.1263V9.28589H3.99259C3.84317 9.28617 3.69525 9.31588 3.55731 9.37333C3.41937 9.43078 3.2941 9.51485 3.18865 9.62073C3.08321 9.72661 2.99966 9.85223 2.94278 9.99041C2.88589 10.1286 2.8568 10.2766 2.85714 10.426V19.0023C2.8571 19.202 2.90963 19.3982 3.00947 19.5711H2.46838C2.42773 19.5658 2.38642 19.5692 2.3472 19.5812C2.30799 19.5931 2.27176 19.6132 2.24096 19.6403C2.21015 19.6673 2.18547 19.7006 2.16856 19.738C2.15165 19.7753 2.14291 19.8158 2.14291 19.8568C2.14291 19.8978 2.15165 19.9383 2.16856 19.9757C2.18547 20.013 2.21015 20.0463 2.24096 20.0734C2.27176 20.1004 2.30799 20.1206 2.3472 20.1325C2.38642 20.1444 2.42773 20.1479 2.46838 20.1425H21.5316C21.5723 20.1479 21.6136 20.1444 21.6528 20.1325C21.692 20.1206 21.7282 20.1004 21.759 20.0734C21.7898 20.0463 21.8145 20.013 21.8314 19.9757C21.8483 19.9383 21.8571 19.8978 21.8571 19.8568C21.8571 19.8158 21.8483 19.7753 21.8314 19.738C21.8145 19.7006 21.7898 19.6673 21.759 19.6403C21.7282 19.6132 21.692 19.5931 21.6528 19.5812C21.6136 19.5692 21.5723 19.5658 21.5316 19.5711ZM6.85784 12.4286V6.1263C6.86344 5.89854 6.95909 5.6823 7.12383 5.52494C7.28857 5.36758 7.50897 5.28194 7.73674 5.28677H16.549C16.7767 5.28194 16.9971 5.36758 17.1619 5.52494C17.3266 5.6823 17.4223 5.89854 17.4279 6.1263V12.2838C17.4279 12.2866 17.4286 12.2891 17.4287 12.2919L12 15.1066L6.8567 12.4399C6.85685 12.4361 6.85784 12.4325 6.85784 12.4286ZM3.42857 19.0023V10.426C3.42813 10.2759 3.48726 10.1317 3.59299 10.0251C3.69873 9.91844 3.84244 9.85811 3.99259 9.8573H6.28501V12.1435L4.41727 11.175C4.38394 11.1575 4.34747 11.1467 4.30996 11.1433C4.27244 11.1399 4.23463 11.144 4.19869 11.1552C4.16275 11.1665 4.12939 11.1848 4.10054 11.209C4.07168 11.2332 4.0479 11.2629 4.03055 11.2963C4.01321 11.3297 4.00265 11.3663 3.99948 11.4038C3.99631 11.4413 4.00059 11.4791 4.01207 11.515C4.02356 11.5509 4.04203 11.5841 4.06641 11.6128C4.0908 11.6415 4.12062 11.6651 4.15415 11.6823L11.8684 15.6821C11.9091 15.7032 11.9542 15.7142 12 15.7142C12.0458 15.7142 12.0909 15.7032 12.1316 15.6821L19.8458 11.6823C19.8794 11.6651 19.9092 11.6415 19.9336 11.6128C19.958 11.5841 19.9764 11.5509 19.9879 11.515C19.9994 11.4791 20.0037 11.4413 20.0005 11.4038C19.9973 11.3663 19.9868 11.3297 19.9694 11.2963C19.9521 11.2629 19.9283 11.2332 19.8995 11.209C19.8706 11.1848 19.8372 11.1665 19.8013 11.1552C19.7654 11.144 19.7276 11.1399 19.69 11.1433C19.6525 11.1467 19.6161 11.1575 19.5827 11.175L18.0007 11.9953V9.8573H19.8892C20.2176 9.8573 20.488 10.1426 20.5714 10.5715V19.0247C20.5256 19.1736 20.4361 19.3054 20.3145 19.4028C20.1929 19.5002 20.0448 19.5589 19.8895 19.5711H3.99234C3.84221 19.5702 3.69855 19.5099 3.59287 19.4032C3.48718 19.2966 3.4281 19.1524 3.42857 19.0023Z" fill="#B8B8B8"/>
<path d="M16.8791 20.8574H15.6923C15.6205 20.8632 15.5535 20.8958 15.5046 20.9487C15.4557 21.0017 15.4286 21.0711 15.4286 21.1431C15.4286 21.2152 15.4557 21.2846 15.5046 21.3376C15.5535 21.3905 15.6205 21.4231 15.6923 21.4289H16.8791C16.951 21.4231 17.018 21.3905 17.0669 21.3376C17.1157 21.2846 17.1429 21.2152 17.1429 21.1431C17.1429 21.0711 17.1157 21.0017 17.0669 20.9487C17.018 20.8958 16.951 20.8632 16.8791 20.8574Z" fill="#E53935"/>
<path d="M8.30773 20.8574H7.12091C7.04909 20.8632 6.98207 20.8958 6.93319 20.9487C6.88432 21.0017 6.85718 21.0711 6.85718 21.1431C6.85718 21.2152 6.88432 21.2846 6.93319 21.3376C6.98207 21.3905 7.04909 21.4231 7.12091 21.4289H8.30773C8.37956 21.4231 8.44658 21.3905 8.49546 21.3376C8.54433 21.2846 8.57147 21.2152 8.57147 21.1431C8.57147 21.0711 8.54433 21.0017 8.49546 20.9487C8.44658 20.8958 8.37956 20.8632 8.30773 20.8574Z" fill="#E53935"/>
<path d="M14.8572 20.8574H9.14289C9.06712 20.8574 8.99444 20.8875 8.94086 20.9411C8.88728 20.9947 8.85718 21.0674 8.85718 21.1431C8.85718 21.2189 8.88728 21.2916 8.94086 21.3452C8.99444 21.3987 9.06712 21.4289 9.14289 21.4289H11.42V21.7146H10.2857C10.21 21.7146 10.1373 21.7447 10.0837 21.7982C10.0301 21.8518 10 21.9245 10 22.0003C10 22.0761 10.0301 22.1487 10.0837 22.2023C10.1373 22.2559 10.21 22.286 10.2857 22.286H13.8572C13.933 22.286 14.0056 22.2559 14.0592 22.2023C14.1128 22.1487 14.1429 22.0761 14.1429 22.0003C14.1429 21.9245 14.1128 21.8518 14.0592 21.7982C14.0056 21.7447 13.933 21.7146 13.8572 21.7146H12.58V21.4289H14.8572C14.933 21.4289 15.0056 21.3987 15.0592 21.3452C15.1128 21.2916 15.1429 21.2189 15.1429 21.1431C15.1429 21.0674 15.1128 20.9947 15.0592 20.9411C15.0056 20.8875 14.933 20.8574 14.8572 20.8574Z" fill="#E53935"/>
</g>
<defs>
<clipPath id="clip0_487_16329">
<rect width="24" height="24" fill="white"/>
</clipPath>
</defs>
</svg>
