<svg width="52" height="52" viewBox="0 0 52 52" fill="none" xmlns="http://www.w3.org/2000/svg">
<rect x="0.5" y="0.5" width="51" height="51" rx="1.5" fill="#F4F1EB"/>
<rect x="0.5" y="0.5" width="51" height="51" rx="1.5" stroke="#D1D1D1"/>
<g clip-path="url(#clip0_487_16152)">
<path d="M23.1629 30.8029L15.5439 34.6124C15.4991 34.6348 15.4592 34.6657 15.4265 34.7035C15.3937 34.7413 15.3687 34.7852 15.3528 34.8327C15.337 34.8801 15.3307 34.9303 15.3342 34.9802C15.3378 35.0301 15.3511 35.0788 15.3735 35.1235C15.4187 35.2139 15.4979 35.2827 15.5938 35.3146C15.6413 35.3304 15.6914 35.3367 15.7413 35.3332C15.7912 35.3297 15.8399 35.3163 15.8847 35.2939L23.5037 31.4844C23.5941 31.4392 23.6628 31.36 23.6947 31.2641C23.7266 31.1683 23.7192 31.0637 23.674 30.9733C23.6288 30.8829 23.5496 30.8142 23.4538 30.7823C23.3579 30.7503 23.2533 30.7577 23.1629 30.8029Z" fill="#E53935"/>
<path d="M36.6265 35.1236C36.6489 35.0789 36.6622 35.0301 36.6658 34.9802C36.6693 34.9303 36.663 34.8802 36.6472 34.8327C36.6314 34.7853 36.6063 34.7414 36.5736 34.7036C36.5408 34.6658 36.5009 34.6348 36.4561 34.6124L28.8371 30.8029C28.7467 30.7577 28.6421 30.7503 28.5462 30.7822C28.4503 30.8142 28.3711 30.8829 28.3259 30.9733C28.2807 31.0637 28.2733 31.1683 28.3052 31.2642C28.3372 31.36 28.4059 31.4393 28.4963 31.4845L36.1153 35.294C36.2057 35.3391 36.3103 35.3466 36.4062 35.3146C36.502 35.2827 36.5813 35.214 36.6265 35.1236Z" fill="#E53935"/>
<path d="M24.6667 23.5244C24.5656 23.5244 24.4687 23.5646 24.3973 23.636C24.3259 23.7074 24.2857 23.8043 24.2857 23.9054V28.4923L25.0476 28.8874V23.9054C25.0476 23.8043 25.0075 23.7074 24.936 23.636C24.8646 23.5646 24.7677 23.5244 24.6667 23.5244Z" fill="#E53935"/>
<path d="M23.1429 25.4404C23.0447 25.4404 22.9505 25.4794 22.8811 25.5489C22.8117 25.6183 22.7727 25.7124 22.7727 25.8106V27.7081L23.513 28.0919V25.8106C23.513 25.7124 23.474 25.6183 23.4046 25.5489C23.3352 25.4794 23.241 25.4404 23.1429 25.4404Z" fill="#E53935"/>
<path d="M26.5714 29.0855V21.6202C26.5714 21.5192 26.5313 21.4223 26.4599 21.3508C26.3884 21.2794 26.2915 21.2393 26.1905 21.2393C26.0894 21.2393 25.9925 21.2794 25.9211 21.3508C25.8497 21.4223 25.8095 21.5192 25.8095 21.6202V29.283L26 29.3818L26.5714 29.0855Z" fill="#E53935"/>
<path d="M28.088 20.0964C28.088 19.9972 28.0486 19.9022 27.9785 19.8321C27.9084 19.762 27.8134 19.7227 27.7143 19.7227C27.6152 19.7227 27.5201 19.762 27.45 19.8321C27.38 19.9022 27.3406 19.9972 27.3406 20.0964V28.6864L28.088 28.2989V20.0964Z" fill="#E53935"/>
<path d="M29.615 18.5719C29.6152 18.5223 29.6056 18.4731 29.5868 18.4272C29.5679 18.3813 29.5402 18.3395 29.5052 18.3043C29.4702 18.2692 29.4285 18.2413 29.3827 18.2222C29.3369 18.2032 29.2877 18.1934 29.2381 18.1934C29.1885 18.1934 29.1393 18.2032 29.0935 18.2222C29.0477 18.2413 29.006 18.2692 28.971 18.3043C28.936 18.3395 28.9083 18.3813 28.8894 18.4272C28.8706 18.4731 28.861 18.5223 28.8612 18.5719V27.8973L29.615 27.5065V18.5719Z" fill="#E53935"/>
<path d="M10.381 36.8576C10.5913 36.8576 10.7619 36.687 10.7619 36.4767C10.7619 36.2663 10.5913 36.0957 10.381 36.0957C10.1706 36.0957 10 36.2663 10 36.4767C10 36.687 10.1706 36.8576 10.381 36.8576Z" fill="#E53935"/>
<path d="M12.0952 36.0957H11.5238C11.4228 36.0957 11.3259 36.1358 11.2544 36.2073C11.183 36.2787 11.1429 36.3756 11.1429 36.4767C11.1429 36.5777 11.183 36.6746 11.2544 36.746C11.3259 36.8175 11.4228 36.8576 11.5238 36.8576H12.0952C12.1963 36.8576 12.2932 36.8175 12.3646 36.746C12.4361 36.6746 12.4762 36.5777 12.4762 36.4767C12.4762 36.3756 12.4361 36.2787 12.3646 36.2073C12.2932 36.1358 12.1963 36.0957 12.0952 36.0957Z" fill="#E53935"/>
<path d="M40.4762 36.0957H39.9048C39.8037 36.0957 39.7068 36.1358 39.6354 36.2073C39.5639 36.2787 39.5238 36.3756 39.5238 36.4767C39.5238 36.5777 39.5639 36.6746 39.6354 36.746C39.7068 36.8175 39.8037 36.8576 39.9048 36.8576H40.4762C40.5772 36.8576 40.6741 36.8175 40.7456 36.746C40.817 36.6746 40.8571 36.5777 40.8571 36.4767C40.8571 36.3756 40.817 36.2787 40.7456 36.2073C40.6741 36.1358 40.5772 36.0957 40.4762 36.0957Z" fill="#E53935"/>
<path d="M41.6191 36.8576C41.8294 36.8576 42 36.687 42 36.4767C42 36.2663 41.8294 36.0957 41.6191 36.0957C41.4087 36.0957 41.2381 36.2663 41.2381 36.4767C41.2381 36.687 41.4087 36.8576 41.6191 36.8576Z" fill="#E53935"/>
<path d="M38.7088 36.0958H37.9063C38.0416 35.906 38.1382 35.6913 38.1905 35.4642V24.0294C38.0331 23.0626 37.3551 22.3822 36.519 22.3822H34.0009V18.1694C33.9933 17.6632 33.7852 17.1807 33.4224 16.8277C33.0595 16.4747 32.5715 16.28 32.0653 16.2863H20.3157C19.8095 16.28 19.3214 16.4747 18.9586 16.8277C18.5957 17.1807 18.3877 17.6632 18.38 18.1694V22.3822H15.3235C15.1242 22.3825 14.927 22.4221 14.7431 22.4987C14.5592 22.5754 14.3921 22.6874 14.2515 22.8286C14.1109 22.9698 13.9995 23.1373 13.9237 23.3215C13.8479 23.5058 13.8091 23.7031 13.8095 23.9024V35.3373C13.8095 35.6036 13.8795 35.8652 14.0126 36.0958H13.2912C13.237 36.0887 13.1819 36.0933 13.1296 36.1092C13.0773 36.1251 13.029 36.152 12.9879 36.188C12.9469 36.2241 12.914 36.2685 12.8914 36.3183C12.8689 36.3681 12.8572 36.4221 12.8572 36.4768C12.8572 36.5314 12.8689 36.5854 12.8914 36.6352C12.914 36.685 12.9469 36.7294 12.9879 36.7655C13.029 36.8015 13.0773 36.8284 13.1296 36.8443C13.1819 36.8602 13.237 36.8648 13.2912 36.8577H38.7088C38.763 36.8648 38.8181 36.8602 38.8704 36.8443C38.9227 36.8284 38.971 36.8015 39.0121 36.7655C39.0531 36.7294 39.086 36.685 39.1086 36.6352C39.1311 36.5854 39.1428 36.5314 39.1428 36.4768C39.1428 36.4221 39.1311 36.3681 39.1086 36.3183C39.086 36.2685 39.0531 36.2241 39.0121 36.188C38.971 36.152 38.9227 36.1251 38.8704 36.1092C38.8181 36.0933 38.763 36.0887 38.7088 36.0958ZM19.1438 26.5725V18.1694C19.1513 17.8657 19.2788 17.5774 19.4984 17.3676C19.7181 17.1577 20.012 17.0436 20.3157 17.05H32.0653C32.369 17.0436 32.6628 17.1577 32.8825 17.3676C33.1022 17.5774 33.2297 17.8657 33.2372 18.1694V26.3794C33.2372 26.3831 33.2381 26.3865 33.2382 26.3902L26 30.1432L19.1423 26.5875C19.1425 26.5824 19.1438 26.5776 19.1438 26.5725ZM14.5714 35.3373V23.9024C14.5708 23.7022 14.6497 23.5099 14.7907 23.3677C14.9316 23.2256 15.1232 23.1451 15.3235 23.144H18.38V26.1923L15.8897 24.901C15.8453 24.8776 15.7966 24.8633 15.7466 24.8587C15.6966 24.8542 15.6462 24.8596 15.5983 24.8746C15.5503 24.8896 15.5059 24.914 15.4674 24.9463C15.4289 24.9786 15.3972 25.0181 15.3741 25.0627C15.3509 25.1073 15.3369 25.156 15.3326 25.206C15.3284 25.2561 15.3341 25.3065 15.3494 25.3543C15.3647 25.4021 15.3894 25.4465 15.4219 25.4847C15.4544 25.523 15.4942 25.5545 15.5389 25.5773L25.8246 30.9104C25.8788 30.9385 25.9389 30.9532 26 30.9532C26.061 30.9532 26.1212 30.9385 26.1754 30.9104L36.4611 25.5773C36.5058 25.5545 36.5456 25.523 36.5781 25.4847C36.6106 25.4465 36.6352 25.4021 36.6506 25.3543C36.6659 25.3065 36.6716 25.2561 36.6674 25.206C36.6631 25.156 36.649 25.1073 36.6259 25.0627C36.6028 25.0181 36.5711 24.9786 36.5326 24.9463C36.4941 24.914 36.4497 24.8896 36.4017 24.8746C36.3538 24.8596 36.3034 24.8542 36.2534 24.8587C36.2034 24.8633 36.1547 24.8776 36.1103 24.901L34.0009 25.9947V23.144H36.519C36.9568 23.144 37.3173 23.5244 37.4286 24.0964V35.3673C37.3675 35.5658 37.2481 35.7414 37.086 35.8713C36.9238 36.0013 36.7264 36.0795 36.5193 36.0958H15.3231C15.1229 36.0946 14.9314 36.0141 14.7905 35.8719C14.6496 35.7298 14.5708 35.5375 14.5714 35.3373Z" fill="#E53935"/>
<path d="M32.5055 37.8096H30.9231C30.8273 37.8172 30.7379 37.8607 30.6728 37.9313C30.6076 38.0019 30.5714 38.0944 30.5714 38.1905C30.5714 38.2866 30.6076 38.3791 30.6728 38.4497C30.7379 38.5203 30.8273 38.5638 30.9231 38.5715H32.5055C32.6013 38.5638 32.6906 38.5203 32.7558 38.4497C32.821 38.3791 32.8572 38.2866 32.8572 38.1905C32.8572 38.0944 32.821 38.0019 32.7558 37.9313C32.6906 37.8607 32.6013 37.8172 32.5055 37.8096Z" fill="#E53935"/>
<path d="M21.0769 37.8096H19.4945C19.3987 37.8172 19.3094 37.8607 19.2442 37.9313C19.179 38.0019 19.1429 38.0944 19.1429 38.1905C19.1429 38.2866 19.179 38.3791 19.2442 38.4497C19.3094 38.5203 19.3987 38.5638 19.4945 38.5715H21.0769C21.1727 38.5638 21.2621 38.5203 21.3272 38.4497C21.3924 38.3791 21.4286 38.2866 21.4286 38.1905C21.4286 38.0944 21.3924 38.0019 21.3272 37.9313C21.2621 37.8607 21.1727 37.8172 21.0769 37.8096Z" fill="#E53935"/>
<path d="M29.8095 37.8096H22.1905C22.0894 37.8096 21.9925 37.8497 21.9211 37.9211C21.8497 37.9926 21.8095 38.0895 21.8095 38.1905C21.8095 38.2916 21.8497 38.3885 21.9211 38.4599C21.9925 38.5313 22.0894 38.5715 22.1905 38.5715H25.2267V38.9524H23.7143C23.6133 38.9524 23.5164 38.9926 23.4449 39.064C23.3735 39.1354 23.3333 39.2323 23.3333 39.3334C23.3333 39.4344 23.3735 39.5313 23.4449 39.6028C23.5164 39.6742 23.6133 39.7143 23.7143 39.7143H28.4762C28.5772 39.7143 28.6741 39.6742 28.7456 39.6028C28.817 39.5313 28.8571 39.4344 28.8571 39.3334C28.8571 39.2323 28.817 39.1354 28.7456 39.064C28.6741 38.9926 28.5772 38.9524 28.4762 38.9524H26.7733V38.5715H29.8095C29.9106 38.5715 30.0075 38.5313 30.0789 38.4599C30.1503 38.3885 30.1905 38.2916 30.1905 38.1905C30.1905 38.0895 30.1503 37.9926 30.0789 37.9211C30.0075 37.8497 29.9106 37.8096 29.8095 37.8096Z" fill="#E53935"/>
</g>
<defs>
<clipPath id="clip0_487_16152">
<rect width="32" height="32" fill="white" transform="translate(10 10)"/>
</clipPath>
</defs>
</svg>
