<svg width="24" height="24" viewBox="0 0 24 24" fill="none" xmlns="http://www.w3.org/2000/svg">
<g clip-path="url(#clip0_487_16348)">
<path d="M12 4.85547C11.266 4.8561 10.5486 5.07434 9.93858 5.4826C9.32856 5.89086 8.85328 6.47082 8.57281 7.14916C8.29234 7.8275 8.21929 8.57376 8.36288 9.29361C8.50646 10.0135 8.86025 10.6746 9.37951 11.1934C9.89877 11.7122 10.5602 12.0654 11.2802 12.2084C12.0001 12.3514 12.7463 12.2777 13.4244 11.9966C14.1025 11.7156 14.6821 11.2398 15.0898 10.6294C15.4976 10.0191 15.7152 9.30151 15.7152 8.56748C15.7151 8.07978 15.6188 7.59689 15.4321 7.14638C15.2453 6.69587 14.9715 6.28658 14.6265 5.94187C14.2815 5.59716 13.872 5.3238 13.4213 5.13739C12.9707 4.95098 12.4877 4.85519 12 4.85547ZM12 11.7084C11.3789 11.7079 10.7719 11.5232 10.2557 11.1778C9.73955 10.8323 9.33739 10.3416 9.10007 9.7676C8.86275 9.19362 8.80094 8.56217 8.92243 7.95307C9.04393 7.34396 9.34329 6.78455 9.78266 6.34556C10.222 5.90656 10.7817 5.60768 11.3909 5.4867C12.0001 5.36573 12.6315 5.42808 13.2053 5.66589C13.7791 5.9037 14.2695 6.30629 14.6145 6.82275C14.9595 7.33922 15.1436 7.94638 15.1436 8.56748C15.1423 9.40058 14.8106 10.1991 14.2213 10.788C13.6319 11.3768 12.8331 11.7078 12 11.7084Z" fill="#E53935"/>
<path d="M12 16.7051C11.9436 16.7051 11.8884 16.7219 11.8414 16.7533C11.7945 16.7847 11.758 16.8293 11.7364 16.8815C11.7148 16.9337 11.7092 16.9911 11.7202 17.0465C11.7313 17.1018 11.7585 17.1527 11.7984 17.1926C11.8384 17.2325 11.8893 17.2597 11.9446 17.2707C12 17.2817 12.0574 17.276 12.1096 17.2544C12.1618 17.2328 12.2063 17.1962 12.2377 17.1492C12.2691 17.1023 12.2858 17.0471 12.2858 16.9906C12.2858 16.9531 12.2784 16.916 12.264 16.8813C12.2497 16.8466 12.2286 16.8151 12.2021 16.7886C12.1755 16.7621 12.144 16.7411 12.1094 16.7267C12.0747 16.7124 12.0375 16.705 12 16.7051Z" fill="#B8B8B8"/>
<path d="M12 15.7061C11.9435 15.7061 11.8884 15.7229 11.8414 15.7543C11.7945 15.7857 11.7579 15.8303 11.7364 15.8825C11.7148 15.9347 11.7092 15.9921 11.7202 16.0475C11.7313 16.1028 11.7585 16.1537 11.7984 16.1936C11.8384 16.2335 11.8892 16.2607 11.9446 16.2717C12 16.2827 12.0574 16.277 12.1096 16.2554C12.1617 16.2338 12.2063 16.1972 12.2377 16.1502C12.269 16.1033 12.2858 16.0481 12.2858 15.9916C12.2858 15.9541 12.2784 15.9169 12.264 15.8823C12.2497 15.8476 12.2286 15.8161 12.2021 15.7896C12.1755 15.7631 12.144 15.7421 12.1093 15.7277C12.0747 15.7134 12.0375 15.706 12 15.7061Z" fill="#E53935"/>
<path d="M12 12.708C11.9435 12.7081 11.8884 12.7248 11.8414 12.7562C11.7945 12.7877 11.7579 12.8323 11.7364 12.8844C11.7148 12.9366 11.7092 12.994 11.7202 13.0494C11.7313 13.1048 11.7585 13.1556 11.7984 13.1955C11.8384 13.2355 11.8892 13.2626 11.9446 13.2736C12 13.2846 12.0574 13.2789 12.1096 13.2573C12.1617 13.2357 12.2063 13.1991 12.2377 13.1522C12.269 13.1052 12.2858 13.05 12.2858 12.9935C12.2858 12.956 12.2784 12.9189 12.264 12.8842C12.2497 12.8496 12.2286 12.8181 12.2021 12.7916C12.1755 12.765 12.144 12.744 12.1093 12.7297C12.0747 12.7153 12.0375 12.708 12 12.708Z" fill="#B8B8B8"/>
<path d="M12 13.707C11.9436 13.7071 11.8884 13.7239 11.8414 13.7553C11.7945 13.7867 11.758 13.8313 11.7364 13.8835C11.7148 13.9356 11.7092 13.9931 11.7202 14.0484C11.7313 14.1038 11.7585 14.1547 11.7984 14.1946C11.8384 14.2345 11.8893 14.2616 11.9446 14.2726C12 14.2836 12.0574 14.278 12.1096 14.2564C12.1618 14.2347 12.2063 14.1981 12.2377 14.1512C12.2691 14.1042 12.2858 14.049 12.2858 13.9926C12.2858 13.9551 12.2784 13.9179 12.264 13.8832C12.2497 13.8486 12.2286 13.8171 12.2021 13.7906C12.1755 13.7641 12.144 13.743 12.1094 13.7287C12.0747 13.7144 12.0375 13.707 12 13.707Z" fill="#E53935"/>
<path d="M12 14.707C11.9436 14.7071 11.8884 14.7239 11.8414 14.7553C11.7945 14.7867 11.758 14.8313 11.7364 14.8835C11.7148 14.9356 11.7092 14.9931 11.7202 15.0484C11.7313 15.1038 11.7585 15.1547 11.7984 15.1946C11.8384 15.2345 11.8893 15.2616 11.9446 15.2726C12 15.2836 12.0574 15.278 12.1096 15.2564C12.1618 15.2347 12.2063 15.1981 12.2377 15.1512C12.2691 15.1042 12.2858 15.049 12.2858 14.9926C12.2858 14.9551 12.2784 14.9179 12.264 14.8832C12.2497 14.8486 12.2286 14.8171 12.2021 14.7906C12.1755 14.7641 12.144 14.743 12.1094 14.7287C12.0747 14.7144 12.0375 14.707 12 14.707Z" fill="#B8B8B8"/>
<path d="M0.285714 21.4279C0.44351 21.4279 0.571429 21.3 0.571429 21.1422C0.571429 20.9844 0.44351 20.8564 0.285714 20.8564C0.127919 20.8564 0 20.9844 0 21.1422C0 21.3 0.127919 21.4279 0.285714 21.4279Z" fill="#B8B8B8"/>
<path d="M1.57143 20.8564H1.14285C1.06708 20.8564 0.994405 20.8865 0.940823 20.9401C0.887242 20.9937 0.85714 21.0664 0.85714 21.1422C0.85714 21.2179 0.887242 21.2906 0.940823 21.3442C0.994405 21.3978 1.06708 21.4279 1.14285 21.4279H1.57143C1.6472 21.4279 1.71987 21.3978 1.77346 21.3442C1.82704 21.2906 1.85714 21.2179 1.85714 21.1422C1.85714 21.0664 1.82704 20.9937 1.77346 20.9401C1.71987 20.8865 1.6472 20.8564 1.57143 20.8564Z" fill="#B8B8B8"/>
<path d="M22.8571 20.8564H22.4286C22.3528 20.8564 22.2801 20.8865 22.2265 20.9401C22.173 20.9937 22.1429 21.0664 22.1429 21.1422C22.1429 21.2179 22.173 21.2906 22.2265 21.3442C22.2801 21.3978 22.3528 21.4279 22.4286 21.4279H22.8571C22.9329 21.4279 23.0056 21.3978 23.0592 21.3442C23.1128 21.2906 23.1429 21.2179 23.1429 21.1422C23.1429 21.0664 23.1128 20.9937 23.0592 20.9401C23.0056 20.8865 22.9329 20.8564 22.8571 20.8564Z" fill="#B8B8B8"/>
<path d="M23.7143 21.4279C23.8721 21.4279 24 21.3 24 21.1422C24 20.9844 23.8721 20.8564 23.7143 20.8564C23.5565 20.8564 23.4286 20.9844 23.4286 21.1422C23.4286 21.3 23.5565 21.4279 23.7143 21.4279Z" fill="#B8B8B8"/>
<path d="M16.8791 21.999H15.6923C15.6205 22.0048 15.5535 22.0374 15.5046 22.0903C15.4557 22.1433 15.4286 22.2127 15.4286 22.2847C15.4286 22.3568 15.4557 22.4262 15.5046 22.4792C15.5535 22.5321 15.6205 22.5647 15.6923 22.5705H16.8791C16.951 22.5647 17.018 22.5321 17.0669 22.4792C17.1157 22.4262 17.1429 22.3568 17.1429 22.2847C17.1429 22.2127 17.1157 22.1433 17.0669 22.0903C17.018 22.0374 16.951 22.0048 16.8791 21.999Z" fill="#E53935"/>
<path d="M8.30773 21.999H7.12091C7.04909 22.0048 6.98207 22.0374 6.93319 22.0903C6.88432 22.1433 6.85718 22.2127 6.85718 22.2847C6.85718 22.3568 6.88432 22.4262 6.93319 22.4792C6.98207 22.5321 7.04909 22.5647 7.12091 22.5705H8.30773C8.37956 22.5647 8.44658 22.5321 8.49546 22.4792C8.54433 22.4262 8.57147 22.3568 8.57147 22.2847C8.57147 22.2127 8.54433 22.1433 8.49546 22.0903C8.44658 22.0374 8.37956 22.0048 8.30773 21.999Z" fill="#E53935"/>
<path d="M14.8572 21.999H9.14289C9.06712 21.999 8.99444 22.0291 8.94086 22.0827C8.88728 22.1363 8.85718 22.209 8.85718 22.2847C8.85718 22.3605 8.88728 22.4332 8.94086 22.4868C8.99444 22.5404 9.06712 22.5705 9.14289 22.5705H11.42V22.8562H10.2857C10.21 22.8562 10.1373 22.8863 10.0837 22.9399C10.0301 22.9934 10 23.0661 10 23.1419C10 23.2177 10.0301 23.2903 10.0837 23.3439C10.1373 23.3975 10.21 23.4276 10.2857 23.4276H13.8572C13.933 23.4276 14.0056 23.3975 14.0592 23.3439C14.1128 23.2903 14.1429 23.2177 14.1429 23.1419C14.1429 23.0661 14.1128 22.9934 14.0592 22.9399C14.0056 22.8863 13.933 22.8562 13.8572 22.8562H12.58V22.5705H14.8572C14.933 22.5705 15.0056 22.5404 15.0592 22.4868C15.1128 22.4332 15.1429 22.3605 15.1429 22.2847C15.1429 22.209 15.1128 22.1363 15.0592 22.0827C15.0056 22.0291 14.933 21.999 14.8572 21.999Z" fill="#E53935"/>
<path d="M21.5317 20.8569H12.4387C12.5551 20.4274 12.7775 19.6568 13.0592 18.9214C13.7946 17.002 14.8581 15.2105 15.8867 13.478C16.7579 12.0106 17.8726 9.81198 17.4963 7.67085C17.0405 5.07771 14.7035 3.14558 12.041 3.14558C12.0291 3.14558 12.0171 3.14558 12.0051 3.14573C11.9862 3.1433 11.9672 3.14227 11.9483 3.14266C9.29695 3.14266 6.95793 5.08678 6.50378 7.67086C6.12744 9.81198 7.24218 12.0106 8.11341 13.478C9.14198 15.2105 10.2055 17.0021 10.9408 18.9214C11.2227 19.6571 11.445 20.4276 11.5614 20.8569H2.46842C2.42777 20.8516 2.38646 20.8551 2.34724 20.867C2.30802 20.8789 2.2718 20.8991 2.241 20.9261C2.21019 20.9532 2.18551 20.9865 2.1686 21.0238C2.15169 21.0611 2.14294 21.1017 2.14294 21.1427C2.14294 21.1836 2.15169 21.2242 2.1686 21.2615C2.18551 21.2989 2.21019 21.3322 2.241 21.3592C2.2718 21.3862 2.30802 21.4064 2.34724 21.4183C2.38646 21.4303 2.42777 21.4337 2.46842 21.4284H21.5317C21.5723 21.4337 21.6136 21.4303 21.6528 21.4183C21.692 21.4064 21.7283 21.3862 21.7591 21.3592C21.7899 21.3322 21.8146 21.2989 21.8315 21.2615C21.8484 21.2242 21.8571 21.1836 21.8571 21.1427C21.8571 21.1017 21.8484 21.0611 21.8315 21.0238C21.8146 20.9865 21.7899 20.9532 21.7591 20.9261C21.7283 20.8991 21.692 20.8789 21.6528 20.867C21.6136 20.8551 21.5723 20.8516 21.5317 20.8569ZM8.60502 13.1866C7.78012 11.7972 6.72321 9.72401 7.0667 7.76956C7.47186 5.46419 9.55343 3.72767 11.9192 3.71373C11.9353 3.71594 11.9514 3.7171 11.9676 3.71721C14.3808 3.68292 16.521 5.42348 16.9334 7.76956C17.2769 9.724 16.22 11.7972 15.395 13.1866C14.3543 14.9397 13.2781 16.7525 12.5255 18.7172C12.3132 19.2713 12.1306 19.8517 12 20.3015C11.8695 19.8517 11.6869 19.2713 11.4746 18.7172C10.722 16.7525 9.64573 14.9397 8.60502 13.1866Z" fill="#B8B8B8"/>
</g>
<defs>
<clipPath id="clip0_487_16348">
<rect width="24" height="24" fill="white"/>
</clipPath>
</defs>
</svg>
