<svg width="48" height="48" viewBox="0 0 48 48" fill="none" xmlns="http://www.w3.org/2000/svg">
<g clip-path="url(#clip0_487_15843)">
<path d="M0.571429 43.4285C0.88702 43.4285 1.14286 43.1727 1.14286 42.8571C1.14286 42.5415 0.88702 42.2856 0.571429 42.2856C0.255837 42.2856 0 42.5415 0 42.8571C0 43.1727 0.255837 43.4285 0.571429 43.4285Z" fill="#1A1917"/>
<path d="M3.14287 42.2856H2.28572C2.13417 42.2856 1.98883 42.3458 1.88166 42.453C1.7745 42.5602 1.71429 42.7055 1.71429 42.8571C1.71429 43.0086 1.7745 43.154 1.88166 43.2611C1.98883 43.3683 2.13417 43.4285 2.28572 43.4285H3.14287C3.29442 43.4285 3.43976 43.3683 3.54693 43.2611C3.65409 43.154 3.71429 43.0086 3.71429 42.8571C3.71429 42.7055 3.65409 42.5602 3.54693 42.453C3.43976 42.3458 3.29442 42.2856 3.14287 42.2856Z" fill="#1A1917"/>
<path d="M45.7143 42.2856H44.8572C44.7056 42.2856 44.5603 42.3458 44.4531 42.453C44.346 42.5602 44.2858 42.7055 44.2858 42.8571C44.2858 43.0086 44.346 43.154 44.4531 43.2611C44.5603 43.3683 44.7056 43.4285 44.8572 43.4285H45.7143C45.8659 43.4285 46.0112 43.3683 46.1184 43.2611C46.2256 43.154 46.2858 43.0086 46.2858 42.8571C46.2858 42.7055 46.2256 42.5602 46.1184 42.453C46.0112 42.3458 45.8659 42.2856 45.7143 42.2856Z" fill="#1A1917"/>
<path d="M47.4286 43.4285C47.7442 43.4285 48 43.1727 48 42.8571C48 42.5415 47.7442 42.2856 47.4286 42.2856C47.113 42.2856 46.8572 42.5415 46.8572 42.8571C46.8572 43.1727 47.113 43.4285 47.4286 43.4285Z" fill="#1A1917"/>
<path d="M33.7583 44.5715H31.3847C31.241 44.583 31.107 44.6482 31.0092 44.7541C30.9115 44.86 30.8572 44.9988 30.8572 45.143C30.8572 45.2871 30.9115 45.4259 31.0092 45.5318C31.107 45.6377 31.241 45.7029 31.3847 45.7144H33.7583C33.9019 45.7029 34.036 45.6377 34.1337 45.5318C34.2315 45.4259 34.2858 45.2871 34.2858 45.143C34.2858 44.9988 34.2315 44.86 34.1337 44.7541C34.036 44.6482 33.9019 44.583 33.7583 44.5715Z" fill="#E53935"/>
<path d="M16.6154 44.5715H14.2418C14.0981 44.583 13.9641 44.6482 13.8663 44.7541C13.7686 44.86 13.7143 44.9988 13.7143 45.143C13.7143 45.2871 13.7686 45.4259 13.8663 45.5318C13.9641 45.6377 14.0981 45.7029 14.2418 45.7144H16.6154C16.7591 45.7029 16.8931 45.6377 16.9909 45.5318C17.0886 45.4259 17.1429 45.2871 17.1429 45.143C17.1429 44.9988 17.0886 44.86 16.9909 44.7541C16.8931 44.6482 16.7591 44.583 16.6154 44.5715Z" fill="#E53935"/>
<path d="M29.7143 44.5715H18.2857C18.1342 44.5715 17.9888 44.6317 17.8817 44.7389C17.7745 44.8461 17.7143 44.9914 17.7143 45.143C17.7143 45.2945 17.7745 45.4399 17.8817 45.547C17.9888 45.6542 18.1342 45.7144 18.2857 45.7144H22.84V46.2858H20.5714C20.4199 46.2858 20.2745 46.346 20.1674 46.4532C20.0602 46.5603 20 46.7057 20 46.8572C20 47.0088 20.0602 47.1541 20.1674 47.2613C20.2745 47.3685 20.4199 47.4287 20.5714 47.4287H27.7143C27.8658 47.4287 28.0112 47.3685 28.1184 47.2613C28.2255 47.1541 28.2857 47.0088 28.2857 46.8572C28.2857 46.7057 28.2255 46.5603 28.1184 46.4532C28.0112 46.346 27.8658 46.2858 27.7143 46.2858H25.16V45.7144H29.7143C29.8658 45.7144 30.0112 45.6542 30.1184 45.547C30.2255 45.4399 30.2857 45.2945 30.2857 45.143C30.2857 44.9914 30.2255 44.8461 30.1184 44.7389C30.0112 44.6317 29.8658 44.5715 29.7143 44.5715Z" fill="#E53935"/>
<path d="M24.0001 14.8572C21.4007 14.8572 18.8597 15.628 16.6983 17.0721C14.537 18.5162 12.8524 20.5689 11.8577 22.9704C10.8629 25.372 10.6026 28.0145 11.1097 30.564C11.6168 33.1135 12.8685 35.4553 14.7066 37.2934C16.5447 39.1315 18.8865 40.3832 21.436 40.8903C23.9854 41.3975 26.628 41.1372 29.0296 40.1425C31.4311 39.1477 33.4838 37.4632 34.9279 35.3018C36.3721 33.1405 37.1429 30.5995 37.1429 28C37.139 24.5156 35.753 21.1749 33.2891 18.711C30.8253 16.2471 27.4846 14.8611 24.0001 14.8572ZM24.0001 40C21.6268 40.0001 19.3067 39.2963 17.3333 37.9777C15.3599 36.6591 13.8218 34.785 12.9135 32.5923C12.0053 30.3996 11.7676 27.9868 12.2306 25.659C12.6936 23.3312 13.8365 21.193 15.5147 19.5148C17.193 17.8365 19.3312 16.6936 21.6589 16.2306C23.9867 15.7676 26.3995 16.0052 28.5922 16.9135C30.785 17.8217 32.6591 19.3598 33.9777 21.3332C35.2963 23.3066 36.0001 25.6267 36.0001 28C36.0001 29.5759 35.6897 31.1363 35.0866 32.5922C34.4836 34.0481 33.5997 35.371 32.4854 36.4853C31.3711 37.5996 30.0482 38.4835 28.5923 39.0866C27.1364 39.6896 25.576 40 24.0001 40Z" fill="#E53935"/>
<path d="M24.0001 21.9048C23.8485 21.9048 23.7032 21.965 23.596 22.0722C23.4889 22.1793 23.4287 22.3247 23.4287 22.4762V27.4285H18.9049C18.7533 27.4285 18.608 27.4887 18.5008 27.5959C18.3936 27.703 18.3334 27.8484 18.3334 27.9999C18.3334 28.1515 18.3936 28.2968 18.5008 28.404C18.608 28.5112 18.7533 28.5714 18.9049 28.5714H24.0001C24.1516 28.5713 24.297 28.5111 24.4042 28.404C24.5113 28.2968 24.5715 28.1515 24.5715 27.9999V22.4762C24.5715 22.3247 24.5113 22.1793 24.4042 22.0722C24.297 21.965 24.1516 21.9048 24.0001 21.9048Z" fill="#E53935"/>
<path d="M24.0001 17.1428C23.8486 17.1428 23.7032 17.203 23.5961 17.3102C23.4889 17.4174 23.4287 17.5627 23.4287 17.7143V18.8571C23.4287 19.0087 23.4889 19.154 23.5961 19.2612C23.7032 19.3683 23.8486 19.4285 24.0001 19.4285C24.1517 19.4285 24.297 19.3683 24.4042 19.2612C24.5114 19.154 24.5716 19.0087 24.5716 18.8571V17.7143C24.5716 17.5627 24.5114 17.4174 24.4042 17.3102C24.297 17.203 24.1517 17.1428 24.0001 17.1428Z" fill="#1A1917"/>
<path d="M24.0001 36.5715C23.8486 36.5715 23.7032 36.6317 23.5961 36.7389C23.4889 36.8461 23.4287 36.9914 23.4287 37.143V38.2858C23.4287 38.4374 23.4889 38.5827 23.5961 38.6899C23.7032 38.797 23.8486 38.8572 24.0001 38.8572C24.1517 38.8572 24.297 38.797 24.4042 38.6899C24.5114 38.5827 24.5716 38.4374 24.5716 38.2858V37.143C24.5716 36.9914 24.5114 36.8461 24.4042 36.7389C24.297 36.6317 24.1517 36.5715 24.0001 36.5715Z" fill="#1A1917"/>
<path d="M34.2858 27.4285H33.143C32.9914 27.4285 32.8461 27.4887 32.7389 27.5958C32.6317 27.703 32.5715 27.8483 32.5715 27.9999C32.5715 28.1514 32.6317 28.2968 32.7389 28.404C32.8461 28.5111 32.9914 28.5713 33.143 28.5713H34.2858C34.4374 28.5713 34.5827 28.5111 34.6899 28.404C34.797 28.2968 34.8572 28.1514 34.8572 27.9999C34.8572 27.8483 34.797 27.703 34.6899 27.5958C34.5827 27.4887 34.4374 27.4285 34.2858 27.4285Z" fill="#1A1917"/>
<path d="M14.8573 27.4285H13.7145C13.5629 27.4285 13.4176 27.4887 13.3104 27.5958C13.2033 27.703 13.1431 27.8483 13.1431 27.9999C13.1431 28.1514 13.2033 28.2968 13.3104 28.404C13.4176 28.5111 13.5629 28.5713 13.7145 28.5713H14.8573C15.0089 28.5713 15.1542 28.5111 15.2614 28.404C15.3686 28.2968 15.4288 28.1514 15.4288 27.9999C15.4288 27.8483 15.3686 27.703 15.2614 27.5958C15.1542 27.4887 15.0089 27.4285 14.8573 27.4285Z" fill="#1A1917"/>
<path d="M30.869 20.3229L30.0609 21.1312C29.9537 21.2384 29.8935 21.3837 29.8936 21.5353C29.8936 21.6869 29.9538 21.8322 30.061 21.9394C30.1682 22.0465 30.3136 22.1067 30.4651 22.1067C30.6167 22.1067 30.762 22.0464 30.8692 21.9392L31.6774 21.1309C31.7844 21.0237 31.8444 20.8784 31.8443 20.7269C31.8442 20.5754 31.784 20.4302 31.6769 20.3231C31.5698 20.216 31.4245 20.1558 31.273 20.1558C31.1215 20.1557 30.9762 20.2158 30.869 20.3229Z" fill="#E53935"/>
<path d="M17.131 34.0609L16.3229 34.8692C16.2163 34.9765 16.1567 35.1217 16.157 35.2729C16.1573 35.4241 16.2175 35.5691 16.3244 35.676C16.4314 35.7829 16.5763 35.843 16.7275 35.8433C16.8787 35.8435 17.0239 35.7838 17.1312 35.6773L17.9393 34.869C18.0463 34.7617 18.1064 34.6164 18.1063 34.4649C18.1062 34.3135 18.046 34.1682 17.9389 34.0611C17.8317 33.954 17.6865 33.8938 17.535 33.8938C17.3835 33.8938 17.2382 33.9539 17.131 34.0609Z" fill="#E53935"/>
<path d="M30.8692 34.0608C30.762 33.9536 30.6167 33.8933 30.4651 33.8933C30.3136 33.8933 30.1682 33.9535 30.061 34.0606C29.9538 34.1678 29.8936 34.3131 29.8936 34.4647C29.8935 34.6162 29.9537 34.7616 30.0609 34.8688L30.869 35.6771C30.9762 35.7842 31.1215 35.8443 31.273 35.8442C31.4245 35.8442 31.5698 35.784 31.6769 35.6769C31.784 35.5698 31.8442 35.4246 31.8443 35.2731C31.8444 35.1216 31.7844 34.9763 31.6774 34.8691L30.8692 34.0608Z" fill="#E53935"/>
<path d="M17.1312 20.3228C17.0239 20.2162 16.8787 20.1565 16.7275 20.1567C16.5763 20.157 16.4314 20.2171 16.3244 20.3241C16.2175 20.431 16.1573 20.5759 16.157 20.7271C16.1567 20.8783 16.2163 21.0235 16.3229 21.1308L17.131 21.9391C17.2382 22.0461 17.3835 22.1063 17.535 22.1062C17.6865 22.1062 17.8317 22.046 17.9389 21.9389C18.046 21.8318 18.1062 21.6866 18.1063 21.5351C18.1064 21.3836 18.0464 21.2383 17.9393 21.1311L17.1312 20.3228Z" fill="#E53935"/>
<path d="M43.0632 42.2858H29.8188C32.1841 41.3236 34.2735 39.789 35.8993 37.8199C37.5252 35.8508 38.6365 33.5087 39.1336 31.004C39.6307 28.4992 39.498 25.9103 38.7473 23.4695C37.9967 21.0287 36.6516 18.8126 34.8329 17.0201L35.6907 16.1623L36.4988 16.9704C36.6049 17.0765 36.7309 17.1607 36.8696 17.2181C37.0083 17.2756 37.1569 17.3051 37.3069 17.3051C37.457 17.3051 37.6056 17.2756 37.7443 17.2181C37.883 17.1607 38.0089 17.0765 38.1151 16.9704L38.5191 16.5663C38.6783 16.4072 38.8046 16.2182 38.8907 16.0102C38.9769 15.8022 39.0212 15.5793 39.0212 15.3541C39.0212 15.129 38.9769 14.9061 38.8907 14.6981C38.8046 14.4901 38.6783 14.3011 38.5191 14.142L35.2867 10.9095C34.9652 10.588 34.5292 10.4074 34.0745 10.4074C33.6199 10.4074 33.1838 10.588 32.8623 10.9095L32.4583 11.3135C32.3522 11.4196 32.268 11.5456 32.2105 11.6843C32.1531 11.8229 32.1235 11.9716 32.1235 12.1216C32.1235 12.2717 32.1531 12.4203 32.2105 12.559C32.268 12.6976 32.3521 12.8236 32.4583 12.9298L33.2664 13.7379L32.1216 14.8826C30.1777 13.6763 27.9885 12.92 25.7144 12.6691V10.2857H26.8573C27.0073 10.2858 27.156 10.2562 27.2946 10.1988C27.4333 10.1413 27.5593 10.0571 27.6654 9.95102C27.7715 9.84489 27.8557 9.7189 27.9131 9.58025C27.9705 9.44159 28.0001 9.29297 28.0001 9.14289V8.57146C27.9996 8.11697 27.8188 7.68123 27.4974 7.35985C27.1761 7.03847 26.7403 6.85769 26.2858 6.85718H21.7144C21.2599 6.85769 20.8242 7.03847 20.5028 7.35985C20.1815 7.68123 20.0007 8.11697 20.0002 8.57146V9.14289C20.0002 9.44599 20.1206 9.73668 20.3349 9.95101C20.5492 10.1653 20.8399 10.2857 21.143 10.2857H22.2859V12.6691C20.0118 12.92 17.8226 13.6763 15.8786 14.8826L14.7339 13.7379L15.542 12.9298C15.6481 12.8237 15.7323 12.6977 15.7898 12.559C15.8472 12.4203 15.8767 12.2717 15.8767 12.1217C15.8767 11.9716 15.8472 11.823 15.7898 11.6843C15.7323 11.5456 15.6481 11.4197 15.542 11.3135L15.1379 10.9095C14.8164 10.588 14.3804 10.4074 13.9258 10.4074C13.4711 10.4074 13.0351 10.588 12.7136 10.9095L9.48115 14.142C9.16014 14.4637 8.97987 14.8997 8.97987 15.3541C8.97987 15.8086 9.16014 16.2446 9.48115 16.5663L9.88522 16.9704C9.99134 17.0765 10.1173 17.1607 10.256 17.2181C10.3946 17.2756 10.5433 17.3051 10.6933 17.3051C10.8434 17.3051 10.992 17.2756 11.1307 17.2181C11.2693 17.1607 11.3953 17.0765 11.5015 16.9704L12.3096 16.1623L13.1666 17.0193C11.7083 18.4546 10.5508 20.1662 9.76166 22.0539C8.97251 23.9417 8.56758 25.9679 8.57054 28.014C8.5735 30.0601 8.98429 32.0851 9.7789 33.9706C10.5735 35.8561 11.736 37.5643 13.1984 38.9953C14.6337 40.4059 16.3299 41.5235 18.1924 42.2858H4.93678C4.85548 42.2751 4.77286 42.282 4.69442 42.3058C4.61599 42.3297 4.54354 42.37 4.48193 42.4241C4.42032 42.4782 4.37095 42.5448 4.33714 42.6195C4.30332 42.6942 4.28583 42.7752 4.28583 42.8572C4.28583 42.9392 4.30332 43.0202 4.33714 43.0949C4.37095 43.1696 4.42032 43.2362 4.48193 43.2903C4.54354 43.3444 4.61599 43.3847 4.69442 43.4085C4.77286 43.4324 4.85548 43.4392 4.93678 43.4286H43.0632C43.1445 43.4392 43.2272 43.4324 43.3056 43.4085C43.384 43.3847 43.4565 43.3444 43.5181 43.2903C43.5797 43.2362 43.6291 43.1696 43.6629 43.0949C43.6967 43.0202 43.7142 42.9392 43.7142 42.8572C43.7142 42.7752 43.6967 42.6942 43.6629 42.6195C43.6291 42.5448 43.5797 42.4782 43.5181 42.4241C43.4565 42.37 43.384 42.3297 43.3056 42.3058C43.2272 42.282 43.1445 42.2751 43.0632 42.2858ZM23.4119 42.2739C20.5326 42.1561 17.7562 41.17 15.4476 39.4451C13.1391 37.7203 11.4063 35.3374 10.4771 32.6096C9.54779 29.8817 9.46549 26.9366 10.241 24.1611C11.0165 21.3856 12.6134 18.9097 14.8221 17.0586L12.3096 14.546L10.6933 16.1623L10.2893 15.7582C10.2362 15.7051 10.1941 15.6422 10.1654 15.5728C10.1367 15.5035 10.1219 15.4292 10.1219 15.3542C10.1219 15.2791 10.1367 15.2048 10.1654 15.1355C10.1941 15.0661 10.2362 15.0031 10.2893 14.9501L13.5217 11.7176C13.6289 11.6104 13.7742 11.5502 13.9258 11.5502C14.0773 11.5502 14.2227 11.6104 14.3298 11.7176L14.7339 12.1217L13.1177 13.7379L15.7316 16.3519C17.9872 14.7468 20.6623 13.8351 23.4287 13.7288V9.14289H21.143V8.57146C21.143 8.41991 21.2032 8.27457 21.3104 8.1674C21.4175 8.06024 21.5629 8.00003 21.7144 8.00003H26.2858C26.4374 8.00003 26.5827 8.06024 26.6899 8.1674C26.7971 8.27457 26.8573 8.41991 26.8573 8.57146V9.14289H24.5716V13.7288C27.3379 13.8351 30.0131 14.7468 32.2686 16.3519L34.8826 13.7379L33.2664 12.1217L33.6705 11.7176C33.7776 11.6104 33.923 11.5502 34.0745 11.5502C34.2261 11.5502 34.3714 11.6104 34.4786 11.7176L37.711 14.9501C37.7641 15.0032 37.8062 15.0661 37.8349 15.1355C37.8636 15.2048 37.8784 15.2791 37.8784 15.3542C37.8784 15.4292 37.8636 15.5035 37.8349 15.5728C37.8062 15.6422 37.7641 15.7052 37.711 15.7582L37.3069 16.1623L35.6907 14.546L33.1782 17.0586C35.4252 18.942 37.0381 21.4712 37.7978 24.303C38.5576 27.1347 38.4275 30.1316 37.4251 32.8868C36.4227 35.642 34.5967 38.022 32.1949 39.7035C29.7931 41.385 26.932 42.2865 24.0001 42.2858C23.8052 42.2858 23.6086 42.2818 23.4119 42.2739Z" fill="#1A1917"/>
</g>
<defs>
<clipPath id="clip0_487_15843">
<rect width="48" height="48" fill="white"/>
</clipPath>
</defs>
</svg>
