<svg width="52" height="52" viewBox="0 0 52 52" fill="none" xmlns="http://www.w3.org/2000/svg">
<rect x="0.5" y="0.5" width="51" height="51" rx="1.5" fill="#F4F1EB"/>
<rect x="0.5" y="0.5" width="51" height="51" rx="1.5" stroke="#D1D1D1"/>
<g clip-path="url(#clip0_487_16174)">
<path d="M27.5234 14.6793C27.7662 14.7129 28.0105 14.755 28.2498 14.8043C28.2752 14.8096 28.3011 14.8122 28.3271 14.8122C28.4214 14.8121 28.5123 14.7771 28.5823 14.7138C28.6522 14.6505 28.6962 14.5635 28.7057 14.4697C28.7152 14.3759 28.6896 14.2818 28.6338 14.2058C28.578 14.1298 28.496 14.0771 28.4036 14.0581C28.1482 14.0054 27.8872 13.9605 27.6279 13.9246C27.5783 13.9176 27.5278 13.9205 27.4794 13.9331C27.4309 13.9456 27.3853 13.9676 27.3454 13.9978C27.3054 14.028 27.2717 14.0658 27.2464 14.109C27.221 14.1522 27.2044 14.1999 27.1976 14.2496C27.1907 14.2992 27.1937 14.3497 27.2063 14.3981C27.219 14.4466 27.2411 14.4921 27.2713 14.532C27.3016 14.5719 27.3395 14.6055 27.3827 14.6307C27.426 14.656 27.4738 14.6725 27.5234 14.6793Z" fill="#E53935"/>
<path d="M36.956 23.5562C37.0032 23.7968 37.0429 24.0415 37.0739 24.2834C37.0857 24.3752 37.1305 24.4596 37.1999 24.5207C37.2694 24.5819 37.3588 24.6157 37.4513 24.6159C37.4677 24.6159 37.484 24.6148 37.5002 24.6128C37.6004 24.5999 37.6914 24.5478 37.7532 24.4678C37.815 24.3879 37.8425 24.2867 37.8297 24.1865C37.7965 23.9279 37.7541 23.6664 37.7035 23.4093C37.6839 23.3103 37.6258 23.2232 37.542 23.167C37.4581 23.1109 37.3554 23.0902 37.2564 23.1097C37.1574 23.1292 37.0702 23.1871 37.0138 23.2708C36.9575 23.3545 36.9367 23.4572 36.956 23.5562Z" fill="#E53935"/>
<path d="M24.0883 22.8023L24.9773 22.2812C25.1883 22.1563 25.3447 21.9567 25.4156 21.7219C25.4864 21.4872 25.4666 21.2344 25.36 21.0135L23.7811 17.8944C23.7119 17.7545 23.605 17.6368 23.4724 17.5545C23.3398 17.4722 23.1869 17.4286 23.0308 17.4287C22.8733 17.4294 22.7188 17.4721 22.5834 17.5525L20.822 18.5851C20.3856 18.8406 19.8322 19.4031 19.6804 19.8772C17.9482 25.2951 22.9632 33.4965 28.7811 34.5503C28.8668 34.5651 28.9536 34.5722 29.0405 34.5717C29.548 34.5548 30.0443 34.4179 30.4887 34.1721L32.2501 33.1399C32.3516 33.0848 32.44 33.0082 32.5089 32.9154C32.5779 32.8227 32.6259 32.7161 32.6495 32.6029C32.6732 32.4898 32.6719 32.3729 32.6458 32.2603C32.6197 32.1477 32.5694 32.0421 32.4984 31.9509L30.3981 29.1373C30.301 29.012 30.1762 28.9108 30.0334 28.8418C29.8907 28.7727 29.7339 28.7376 29.5754 28.7393C29.3967 28.7383 29.221 28.785 29.0663 28.8745L28.1772 29.3951C28.0331 29.4798 27.8689 29.5244 27.7017 29.5242C27.5438 29.5251 27.3883 29.4857 27.2499 29.4098C27.1115 29.3338 26.9947 29.2238 26.9107 29.0901L23.7746 24.0334C23.7122 23.9326 23.6708 23.8202 23.6529 23.703C23.6349 23.5858 23.6407 23.4661 23.67 23.3512C23.6993 23.2363 23.7514 23.1285 23.8233 23.0342C23.8951 22.9399 23.9853 22.861 24.0883 22.8023ZM27.7017 30.2861C28.0042 30.2861 28.3012 30.2055 28.5623 30.0527L29.4517 29.5317C29.4896 29.5109 29.5322 29.5004 29.5754 29.5012C29.6153 29.5 29.655 29.5076 29.6917 29.5235C29.7283 29.5394 29.761 29.5631 29.7875 29.5931L31.888 32.4069C31.8974 32.417 31.9032 32.43 31.9043 32.4439C31.903 32.4504 31.8933 32.466 31.8648 32.4826L30.1035 33.5147C29.7761 33.6925 29.4126 33.7934 29.0405 33.8098C28.9991 33.8103 28.9578 33.8073 28.9169 33.8006C26.3486 33.3354 23.7469 31.2796 21.9572 28.3012C20.2527 25.4649 19.6729 22.4025 20.406 20.1095C20.4852 19.8623 20.8819 19.4329 21.2073 19.2423L22.9683 18.21C22.9871 18.1981 23.0086 18.1914 23.0307 18.1906C23.0459 18.1908 23.0607 18.1955 23.0733 18.204C23.0858 18.2125 23.0956 18.2245 23.1013 18.2385L24.6803 21.3578C24.699 21.4055 24.7004 21.4582 24.6843 21.5069C24.6681 21.5555 24.6355 21.5969 24.5919 21.6239L23.7029 22.145C23.5109 22.2562 23.3434 22.4049 23.2102 22.5823C23.0771 22.7598 22.9811 22.9622 22.9281 23.1776C22.8749 23.3898 22.8652 23.6105 22.8994 23.8266C22.9336 24.0427 23.0111 24.2496 23.1271 24.435L26.2631 29.4915C26.4147 29.7361 26.6266 29.9377 26.8785 30.0769C27.1304 30.216 27.4139 30.2881 27.7017 30.2861Z" fill="#E53935"/>
<path d="M35.3001 19.5529C35.3279 19.5945 35.3636 19.6302 35.4052 19.658C35.4468 19.6858 35.4935 19.7052 35.5426 19.7149C35.5916 19.7247 35.6421 19.7247 35.6912 19.7149C35.7403 19.7051 35.787 19.6858 35.8286 19.658C35.8702 19.6302 35.9059 19.5945 35.9337 19.5529C35.9615 19.5113 35.9808 19.4646 35.9905 19.4156C36.0003 19.3665 36.0003 19.316 35.9905 19.2669C35.9808 19.2178 35.9614 19.1712 35.9336 19.1296C35.646 18.6994 35.3308 18.2884 34.99 17.899C34.9234 17.8232 34.8294 17.7769 34.7287 17.7703C34.628 17.7638 34.5289 17.7974 34.4529 17.8638C34.377 17.9303 34.3306 18.0242 34.3238 18.1249C34.317 18.2255 34.3504 18.3248 34.4167 18.4008C34.7358 18.7654 35.0308 19.1502 35.3001 19.5529Z" fill="#E53935"/>
<path d="M36.0261 20.8102C36.2402 21.2444 36.4256 21.6923 36.5811 22.1508C36.597 22.1985 36.6221 22.2425 36.655 22.2805C36.6879 22.3184 36.728 22.3495 36.773 22.3718C36.818 22.3942 36.8669 22.4075 36.917 22.4109C36.9671 22.4142 37.0174 22.4077 37.065 22.3916C37.1126 22.3754 37.1565 22.35 37.1942 22.3169C37.2319 22.2837 37.2627 22.2434 37.2848 22.1983C37.3069 22.1532 37.3199 22.1042 37.3229 22.054C37.326 22.0039 37.3191 21.9536 37.3027 21.9062C37.1365 21.416 36.9382 20.9373 36.7093 20.4731C36.6646 20.3825 36.5858 20.3134 36.4901 20.2809C36.3944 20.2485 36.2898 20.2554 36.1992 20.3C36.1086 20.3447 36.0394 20.4236 36.007 20.5193C35.9745 20.6149 35.9814 20.7196 36.0261 20.8102Z" fill="#E53935"/>
<path d="M29.6502 15.1891C30.108 15.3479 30.555 15.5361 30.9884 15.7526C31.0788 15.7977 31.1834 15.8051 31.2793 15.7732C31.3751 15.7412 31.4543 15.6725 31.4995 15.5821C31.5447 15.4917 31.5521 15.3871 31.5201 15.2912C31.4881 15.1954 31.4194 15.1162 31.329 15.071C30.866 14.8398 30.3885 14.6387 29.8995 14.4693C29.8522 14.4529 29.8022 14.446 29.7522 14.4489C29.7023 14.4519 29.6534 14.4646 29.6084 14.4865C29.5634 14.5083 29.5231 14.5388 29.4899 14.5762C29.4567 14.6136 29.4311 14.6572 29.4148 14.7045C29.3984 14.7518 29.3915 14.8018 29.3945 14.8518C29.3974 14.9017 29.4102 14.9506 29.4321 14.9956C29.454 15.0406 29.4845 15.0809 29.5219 15.1141C29.5594 15.1473 29.603 15.1728 29.6502 15.1891Z" fill="#E53935"/>
<path d="M32.2424 16.4849C32.6442 16.7559 33.0281 17.0525 33.3917 17.3728C33.4292 17.4059 33.4729 17.4312 33.5202 17.4474C33.5676 17.4636 33.6176 17.4703 33.6676 17.4672C33.7175 17.464 33.7663 17.4511 33.8112 17.4291C33.8561 17.407 33.8963 17.3764 33.9294 17.3389C33.9624 17.3013 33.9878 17.2576 34.004 17.2103C34.0202 17.163 34.0269 17.1129 34.0237 17.063C34.0206 17.0131 34.0076 16.9642 33.9856 16.9193C33.9636 16.8744 33.9329 16.8343 33.8954 16.8012C33.5072 16.4592 33.0973 16.1425 32.6684 15.8532C32.6269 15.8252 32.5803 15.8057 32.5313 15.7957C32.4823 15.7858 32.4318 15.7855 32.3827 15.7951C32.3336 15.8046 32.2868 15.8238 32.2451 15.8514C32.2034 15.879 32.1675 15.9146 32.1396 15.956C32.1116 15.9975 32.0921 16.0441 32.0821 16.0931C32.0721 16.1422 32.0719 16.1927 32.0815 16.2418C32.091 16.2909 32.1102 16.3376 32.1378 16.3793C32.1654 16.4211 32.2009 16.4569 32.2424 16.4849Z" fill="#E53935"/>
<path d="M10.381 38.1906C10.5913 38.1906 10.7619 38.0201 10.7619 37.8097C10.7619 37.5993 10.5913 37.4287 10.381 37.4287C10.1706 37.4287 10 37.5993 10 37.8097C10 38.0201 10.1706 38.1906 10.381 38.1906Z" fill="#E53935"/>
<path d="M12.0952 37.4287H11.5238C11.4228 37.4287 11.3259 37.4688 11.2544 37.5403C11.183 37.6117 11.1429 37.7086 11.1429 37.8097C11.1429 37.9107 11.183 38.0076 11.2544 38.079C11.3259 38.1505 11.4228 38.1906 11.5238 38.1906H12.0952C12.1963 38.1906 12.2932 38.1505 12.3646 38.079C12.4361 38.0076 12.4762 37.9107 12.4762 37.8097C12.4762 37.7086 12.4361 37.6117 12.3646 37.5403C12.2932 37.4688 12.1963 37.4287 12.0952 37.4287Z" fill="#E53935"/>
<path d="M40.4762 37.4287H39.9048C39.8037 37.4287 39.7068 37.4688 39.6354 37.5403C39.5639 37.6117 39.5238 37.7086 39.5238 37.8097C39.5238 37.9107 39.5639 38.0076 39.6354 38.079C39.7068 38.1505 39.8037 38.1906 39.9048 38.1906H40.4762C40.5772 38.1906 40.6741 38.1505 40.7456 38.079C40.817 38.0076 40.8571 37.9107 40.8571 37.8097C40.8571 37.7086 40.817 37.6117 40.7456 37.5403C40.6741 37.4688 40.5772 37.4287 40.4762 37.4287Z" fill="#E53935"/>
<path d="M41.6191 38.1906C41.8294 38.1906 42 38.0201 42 37.8097C42 37.5993 41.8294 37.4287 41.6191 37.4287C41.4087 37.4287 41.2381 37.5993 41.2381 37.8097C41.2381 38.0201 41.4087 38.1906 41.6191 38.1906Z" fill="#E53935"/>
<path d="M38.7088 37.4286H37.9934C38.0304 37.1445 37.9168 36.739 37.3376 36.2309C36.6232 35.6042 35.691 34.588 35.212 33.2478C36.9646 31.125 37.9242 28.4588 37.9265 25.706C37.9265 25.605 37.8863 25.5081 37.8149 25.4367C37.7435 25.3652 37.6466 25.3251 37.5455 25.3251C37.4445 25.3251 37.3476 25.3652 37.2762 25.4367C37.2047 25.5081 37.1646 25.605 37.1646 25.706C37.1622 28.3518 36.2149 30.9097 34.4934 32.9187C34.4512 32.9679 34.4223 33.0271 34.4094 33.0905C34.3965 33.154 34.4 33.2197 34.4195 33.2815C34.927 34.8864 36.0133 36.0828 36.8351 36.8038C37.1744 37.1014 37.2412 37.29 37.2446 37.3159C37.2228 37.3427 37.0801 37.4201 36.7217 37.4264C35.0672 37.4567 32.7474 37.2075 31.0838 35.8536C31.0285 35.8085 30.9616 35.7798 30.8907 35.7709C30.8199 35.762 30.748 35.7733 30.6833 35.8034C29.2045 36.4897 27.5933 36.8436 25.963 36.8403C19.7866 36.8403 14.7617 31.8455 14.7617 25.706C14.7617 19.5664 19.7866 14.5715 25.963 14.5715C26.0641 14.5715 26.161 14.5313 26.2324 14.4599C26.3039 14.3885 26.344 14.2916 26.344 14.1905C26.344 14.0895 26.3039 13.9926 26.2324 13.9211C26.161 13.8497 26.0641 13.8096 25.963 13.8096C19.3665 13.8096 13.9998 19.1463 13.9998 25.706C14.0098 28.518 15.0126 31.2361 16.8313 33.3809C18.65 35.5256 21.1677 36.9591 23.9402 37.4286H13.2912C13.237 37.4215 13.1819 37.4261 13.1296 37.442C13.0773 37.4579 13.029 37.4848 12.988 37.5208C12.9469 37.5569 12.914 37.6013 12.8914 37.6511C12.8689 37.7009 12.8572 37.7549 12.8572 37.8096C12.8572 37.8642 12.8689 37.9183 12.8914 37.968C12.914 38.0178 12.9469 38.0622 12.988 38.0983C13.029 38.1344 13.0773 38.1612 13.1296 38.1771C13.1819 38.193 13.237 38.1976 13.2912 38.1905H38.7088C38.763 38.1976 38.8181 38.193 38.8704 38.1771C38.9227 38.1612 38.971 38.1344 39.0121 38.0983C39.0531 38.0622 39.086 38.0178 39.1086 37.968C39.1311 37.9183 39.1428 37.8642 39.1428 37.8096C39.1428 37.7549 39.1311 37.7009 39.1086 37.6511C39.086 37.6013 39.0531 37.5569 39.0121 37.5208C38.971 37.4848 38.9227 37.4579 38.8704 37.442C38.8181 37.4261 38.763 37.4215 38.7088 37.4286ZM27.9934 37.4286C28.9565 37.2654 29.8959 36.9841 30.7901 36.591C31.245 36.9294 31.7398 37.2107 32.2632 37.4286H27.9934Z" fill="#E53935"/>
<path d="M29.107 25.9176C29.057 25.9148 29.007 25.922 28.9598 25.9385C28.9126 25.9551 28.8692 25.9809 28.8319 26.0142C28.7947 26.0476 28.7643 26.088 28.7427 26.1331C28.7211 26.1782 28.7085 26.2272 28.7058 26.2771C28.703 26.3271 28.7102 26.3771 28.7268 26.4243C28.7433 26.4715 28.7691 26.5149 28.8025 26.5522C28.8358 26.5895 28.8762 26.6198 28.9213 26.6414C28.9664 26.6631 29.0154 26.6756 29.0653 26.6784L31.8561 26.8309C31.8632 26.8312 31.8702 26.8314 31.8773 26.8314C31.9765 26.8313 32.0717 26.7926 32.1428 26.7233C32.2138 26.6541 32.2551 26.5599 32.2578 26.4607C32.2604 26.3615 32.2243 26.2652 32.1571 26.1923C32.0898 26.1193 31.9968 26.0755 31.8978 26.0701L29.107 25.9176Z" fill="#E53935"/>
<path d="M27.2182 23.7083C27.2636 23.7295 27.3126 23.7415 27.3626 23.7437C27.4126 23.7459 27.4625 23.7383 27.5096 23.7211C27.5566 23.704 27.5998 23.6778 27.6366 23.644C27.6735 23.6102 27.7034 23.5694 27.7245 23.524L28.9145 20.9727C28.9358 20.9273 28.948 20.8782 28.9503 20.8281C28.9526 20.7781 28.945 20.728 28.9279 20.6809C28.9108 20.6338 28.8846 20.5905 28.8508 20.5535C28.817 20.5165 28.7762 20.4866 28.7307 20.4654C28.6853 20.4442 28.6361 20.4322 28.5861 20.43C28.536 20.4279 28.486 20.4356 28.4389 20.4529C28.3918 20.4701 28.3486 20.4964 28.3117 20.5304C28.2748 20.5643 28.245 20.6052 28.224 20.6507L27.034 23.2021C27.0128 23.2474 27.0008 23.2965 26.9986 23.3464C26.9965 23.3964 27.0041 23.4463 27.0212 23.4933C27.0384 23.5404 27.0646 23.5835 27.0984 23.6204C27.1322 23.6573 27.1729 23.6872 27.2182 23.7083Z" fill="#E53935"/>
<path d="M28.2412 24.7954C28.2667 24.8385 28.3004 24.8761 28.3404 24.9062C28.3804 24.9362 28.4259 24.9581 28.4744 24.9705C28.5229 24.983 28.5733 24.9857 28.6228 24.9786C28.6724 24.9716 28.72 24.9548 28.7631 24.9293L32.6305 22.6407C32.6739 22.6153 32.7119 22.5817 32.7422 22.5417C32.7725 22.5016 32.7946 22.456 32.8073 22.4074C32.8199 22.3588 32.8228 22.3082 32.8158 22.2584C32.8088 22.2087 32.792 22.1608 32.7664 22.1176C32.7408 22.0744 32.7069 22.0366 32.6667 22.0066C32.6265 21.9765 32.5807 21.9546 32.532 21.9423C32.4834 21.93 32.4327 21.9274 32.383 21.9347C32.3333 21.9421 32.2856 21.9591 32.2425 21.985L28.375 24.2736C28.332 24.2991 28.2944 24.3328 28.2643 24.3728C28.2343 24.4128 28.2125 24.4583 28.2 24.5068C28.1876 24.5552 28.1848 24.6057 28.1919 24.6552C28.199 24.7047 28.2157 24.7524 28.2412 24.7954Z" fill="#E53935"/>
<path d="M32.5055 39.1426H30.9231C30.8273 39.1503 30.7379 39.1937 30.6728 39.2643C30.6076 39.3349 30.5714 39.4275 30.5714 39.5235C30.5714 39.6196 30.6076 39.7122 30.6728 39.7828C30.7379 39.8533 30.8273 39.8968 30.9231 39.9045H32.5055C32.6013 39.8968 32.6906 39.8533 32.7558 39.7828C32.821 39.7122 32.8572 39.6196 32.8572 39.5235C32.8572 39.4275 32.821 39.3349 32.7558 39.2643C32.6906 39.1937 32.6013 39.1503 32.5055 39.1426Z" fill="#E53935"/>
<path d="M21.0769 39.1426H19.4945C19.3987 39.1503 19.3094 39.1937 19.2442 39.2643C19.179 39.3349 19.1429 39.4275 19.1429 39.5235C19.1429 39.6196 19.179 39.7122 19.2442 39.7828C19.3094 39.8533 19.3987 39.8968 19.4945 39.9045H21.0769C21.1727 39.8968 21.2621 39.8533 21.3272 39.7828C21.3924 39.7122 21.4286 39.6196 21.4286 39.5235C21.4286 39.4275 21.3924 39.3349 21.3272 39.2643C21.2621 39.1937 21.1727 39.1503 21.0769 39.1426Z" fill="#E53935"/>
<path d="M29.8095 39.1426H22.1905C22.0894 39.1426 21.9925 39.1827 21.9211 39.2542C21.8497 39.3256 21.8095 39.4225 21.8095 39.5235C21.8095 39.6246 21.8497 39.7215 21.9211 39.7929C21.9925 39.8643 22.0894 39.9045 22.1905 39.9045H25.2267V40.2854H23.7143C23.6133 40.2854 23.5164 40.3256 23.4449 40.397C23.3735 40.4685 23.3333 40.5654 23.3333 40.6664C23.3333 40.7674 23.3735 40.8643 23.4449 40.9358C23.5164 41.0072 23.6133 41.0473 23.7143 41.0473H28.4762C28.5772 41.0473 28.6741 41.0072 28.7456 40.9358C28.817 40.8643 28.8571 40.7674 28.8571 40.6664C28.8571 40.5654 28.817 40.4685 28.7456 40.397C28.6741 40.3256 28.5772 40.2854 28.4762 40.2854H26.7733V39.9045H29.8095C29.9106 39.9045 30.0075 39.8643 30.0789 39.7929C30.1503 39.7215 30.1905 39.6246 30.1905 39.5235C30.1905 39.4225 30.1503 39.3256 30.0789 39.2542C30.0075 39.1827 29.9106 39.1426 29.8095 39.1426Z" fill="#E53935"/>
</g>
<defs>
<clipPath id="clip0_487_16174">
<rect width="32" height="32" fill="white" transform="translate(10 10)"/>
</clipPath>
</defs>
</svg>
