<svg width="24" height="24" viewBox="0 0 24 24" fill="none" xmlns="http://www.w3.org/2000/svg">
<g clip-path="url(#clip0_487_16307)">
<path d="M13.1426 3.5092C13.3247 3.53445 13.508 3.56598 13.6874 3.60301C13.7064 3.60694 13.7259 3.60892 13.7453 3.60894C13.8161 3.60886 13.8843 3.58255 13.9367 3.53509C13.9892 3.48764 14.0222 3.42241 14.0293 3.35203C14.0365 3.28166 14.0172 3.21113 13.9754 3.1541C13.9335 3.09708 13.872 3.0576 13.8027 3.04331C13.6112 3.00383 13.4155 2.97014 13.221 2.94321C13.1838 2.93798 13.1459 2.94014 13.1096 2.94956C13.0732 2.95898 13.039 2.97548 13.0091 2.99812C12.9791 3.02075 12.9539 3.04908 12.9348 3.08148C12.9158 3.11388 12.9034 3.14971 12.8982 3.18692C12.8931 3.22413 12.8953 3.262 12.9048 3.29835C12.9143 3.33469 12.9309 3.36881 12.9536 3.39875C12.9763 3.42868 13.0046 3.45385 13.0371 3.4728C13.0695 3.49175 13.1054 3.50412 13.1426 3.5092Z" fill="#B8B8B8"/>
<path d="M20.2169 10.1665C20.2524 10.3468 20.2822 10.5304 20.3054 10.7118C20.3142 10.7806 20.3478 10.8439 20.3999 10.8898C20.452 10.9357 20.519 10.9611 20.5884 10.9612C20.6007 10.9612 20.613 10.9604 20.6251 10.9589C20.7003 10.9492 20.7685 10.9101 20.8149 10.8501C20.8612 10.7902 20.8818 10.7143 20.8722 10.6391C20.8474 10.4452 20.8155 10.2491 20.7776 10.0563C20.7629 9.98202 20.7193 9.91667 20.6564 9.87454C20.5936 9.83241 20.5165 9.81694 20.4423 9.83154C20.368 9.84613 20.3026 9.8896 20.2603 9.95239C20.2181 10.0152 20.2025 10.0922 20.2169 10.1665Z" fill="#B8B8B8"/>
<path d="M10.5662 9.60148L11.2329 9.21066C11.3912 9.11695 11.5085 8.96726 11.5617 8.79119C11.6148 8.61512 11.5999 8.42552 11.52 8.2599L10.3358 5.92054C10.284 5.81563 10.2038 5.72732 10.1043 5.6656C10.0049 5.60388 9.89017 5.57121 9.77313 5.57129C9.655 5.57178 9.53914 5.60383 9.43755 5.66413L8.11653 6.43855C7.78917 6.63023 7.37414 7.0521 7.26029 7.40765C5.96119 11.4711 9.72242 17.6221 14.0858 18.4125C14.1501 18.4236 14.2152 18.4289 14.2804 18.4285C14.661 18.4159 15.0333 18.3132 15.3665 18.1288L16.6876 17.3547C16.7637 17.3133 16.83 17.2559 16.8817 17.1863C16.9334 17.1168 16.9694 17.0368 16.9871 16.952C17.0049 16.8671 17.0039 16.7794 16.9843 16.695C16.9648 16.6105 16.927 16.5314 16.8738 16.463L15.2986 14.3527C15.2257 14.2587 15.1321 14.1829 15.0251 14.1311C14.918 14.0793 14.8005 14.053 14.6816 14.0542C14.5475 14.0535 14.4157 14.0885 14.2997 14.1556L13.6329 14.5461C13.5248 14.6096 13.4017 14.643 13.2763 14.6429C13.1579 14.6436 13.0412 14.6141 12.9374 14.5571C12.8336 14.5001 12.746 14.4176 12.683 14.3173L10.331 10.5248C10.2842 10.4492 10.2531 10.3649 10.2397 10.277C10.2262 10.1891 10.2305 10.0994 10.2525 10.0132C10.2745 9.92701 10.3136 9.84614 10.3675 9.7754C10.4214 9.70467 10.489 9.64552 10.5662 9.60148ZM13.2763 15.2144C13.5031 15.2143 13.7259 15.1539 13.9217 15.0393L14.5888 14.6485C14.6172 14.6329 14.6492 14.625 14.6815 14.6256C14.7115 14.6248 14.7413 14.6305 14.7688 14.6424C14.7963 14.6543 14.8208 14.6721 14.8406 14.6945L16.416 16.8049C16.4231 16.8125 16.4274 16.8223 16.4283 16.8327C16.4273 16.8375 16.42 16.8493 16.3986 16.8617L15.0776 17.6358C14.8321 17.7691 14.5595 17.8448 14.2804 17.8571C14.2493 17.8575 14.2183 17.8552 14.1877 17.8502C12.2615 17.5013 10.3102 15.9595 8.9679 13.7257C7.68956 11.5984 7.25472 9.30161 7.80452 7.58188C7.86387 7.39648 8.16144 7.07443 8.40552 6.9315L9.72626 6.15723C9.7403 6.14833 9.75645 6.14332 9.77306 6.14272C9.78442 6.14288 9.79555 6.14637 9.80495 6.15276C9.81435 6.15914 9.82167 6.16814 9.82601 6.17864L11.0102 8.51813C11.0243 8.55389 11.0253 8.59344 11.0132 8.6299C11.0011 8.66636 10.9766 8.69743 10.944 8.7177L10.2772 9.10854C10.1332 9.19189 10.0075 9.30344 9.90767 9.43651C9.80782 9.56957 9.73584 9.72142 9.69605 9.88296C9.65622 10.0421 9.64891 10.2077 9.67456 10.3697C9.70021 10.5318 9.7583 10.687 9.84534 10.826L12.1973 14.6184C12.311 14.8019 12.4699 14.953 12.6589 15.0574C12.8478 15.1618 13.0604 15.2158 13.2763 15.2144Z" fill="#B8B8B8"/>
<path d="M18.9751 7.16469C18.9959 7.19589 19.0227 7.22268 19.0539 7.24352C19.0851 7.26437 19.1201 7.27887 19.1569 7.28619C19.1937 7.2935 19.2316 7.2935 19.2684 7.28618C19.3052 7.27886 19.3402 7.26436 19.3714 7.24351C19.4026 7.22266 19.4294 7.19587 19.4503 7.16467C19.4711 7.13347 19.4856 7.09847 19.4929 7.06166C19.5002 7.02486 19.5002 6.98697 19.4929 6.95017C19.4856 6.91337 19.4711 6.87837 19.4502 6.84717C19.2345 6.52457 18.9981 6.21628 18.7425 5.92425C18.6926 5.8674 18.6221 5.8327 18.5466 5.82776C18.471 5.82282 18.3967 5.84804 18.3397 5.89788C18.2828 5.94773 18.2479 6.01813 18.2428 6.09364C18.2377 6.16915 18.2628 6.24359 18.3126 6.30063C18.5518 6.57404 18.7731 6.86266 18.9751 7.16469Z" fill="#B8B8B8"/>
<path d="M19.5196 8.10641C19.6802 8.43211 19.8192 8.76798 19.9359 9.11186C19.9477 9.14762 19.9666 9.18067 19.9913 9.20913C20.016 9.23758 20.046 9.26087 20.0798 9.27765C20.1135 9.29443 20.1502 9.30438 20.1878 9.30692C20.2254 9.30946 20.2631 9.30454 20.2988 9.29244C20.3345 9.28035 20.3674 9.26131 20.3957 9.23644C20.424 9.21157 20.4471 9.18134 20.4636 9.14751C20.4802 9.11367 20.4899 9.0769 20.4922 9.03929C20.4945 9.00169 20.4894 8.964 20.477 8.9284C20.3524 8.5608 20.2037 8.20177 20.032 7.85363C19.9985 7.78568 19.9393 7.73383 19.8676 7.70949C19.7958 7.68514 19.7174 7.69029 19.6494 7.72382C19.5815 7.75734 19.5296 7.81648 19.5053 7.88823C19.4809 7.95998 19.4861 8.03846 19.5196 8.10641Z" fill="#B8B8B8"/>
<path d="M14.7377 3.89161C15.0811 4.01066 15.4163 4.15181 15.7414 4.31418C15.8092 4.34805 15.8876 4.35361 15.9595 4.32963C16.0314 4.30566 16.0908 4.2541 16.1247 4.18632C16.1585 4.11854 16.1641 4.04007 16.1401 3.96819C16.1162 3.89631 16.0646 3.83689 15.9968 3.80302C15.6496 3.62957 15.2914 3.47882 14.9247 3.35171C14.8892 3.33941 14.8517 3.33422 14.8142 3.33643C14.7768 3.33865 14.7401 3.34822 14.7064 3.3646C14.6726 3.38099 14.6424 3.40386 14.6175 3.43192C14.5926 3.45998 14.5734 3.49268 14.5611 3.52814C14.5489 3.5636 14.5437 3.60114 14.5459 3.6386C14.5481 3.67606 14.5577 3.71271 14.5741 3.74647C14.5905 3.78022 14.6134 3.81041 14.6415 3.83531C14.6696 3.86022 14.7023 3.87935 14.7377 3.89161Z" fill="#B8B8B8"/>
<path d="M16.6818 4.86245C16.9831 5.0657 17.271 5.28814 17.5437 5.52839C17.5719 5.55319 17.6046 5.57221 17.6401 5.58435C17.6756 5.5965 17.7132 5.60153 17.7506 5.59917C17.7881 5.5968 17.8247 5.58709 17.8584 5.57057C17.892 5.55406 17.9222 5.53107 17.947 5.50292C17.9718 5.47477 17.9908 5.44201 18.0029 5.40651C18.0151 5.37101 18.0201 5.33347 18.0177 5.29602C18.0154 5.25858 18.0057 5.22196 17.9891 5.18827C17.9726 5.15458 17.9496 5.12448 17.9215 5.09967C17.6303 4.84315 17.3229 4.60566 17.0012 4.38867C16.9701 4.36769 16.9352 4.35305 16.8984 4.34557C16.8617 4.3381 16.8238 4.33794 16.787 4.3451C16.7501 4.35226 16.7151 4.36661 16.6838 4.38732C16.6525 4.40804 16.6256 4.43471 16.6046 4.46582C16.5836 4.49692 16.569 4.53186 16.5615 4.56863C16.554 4.6054 16.5539 4.64328 16.561 4.68011C16.5682 4.71694 16.5826 4.752 16.6033 4.78328C16.624 4.81457 16.6507 4.84147 16.6818 4.86245Z" fill="#B8B8B8"/>
<path d="M0.285714 21.1427C0.44351 21.1427 0.571429 21.0148 0.571429 20.857C0.571429 20.6992 0.44351 20.5713 0.285714 20.5713C0.127919 20.5713 0 20.6992 0 20.857C0 21.0148 0.127919 21.1427 0.285714 21.1427Z" fill="#B8B8B8"/>
<path d="M1.57143 20.5713H1.14285C1.06708 20.5713 0.994405 20.6014 0.940823 20.655C0.887242 20.7086 0.85714 20.7812 0.85714 20.857C0.85714 20.9328 0.887242 21.0055 0.940823 21.059C0.994405 21.1126 1.06708 21.1427 1.14285 21.1427H1.57143C1.6472 21.1427 1.71987 21.1126 1.77346 21.059C1.82704 21.0055 1.85714 20.9328 1.85714 20.857C1.85714 20.7812 1.82704 20.7086 1.77346 20.655C1.71987 20.6014 1.6472 20.5713 1.57143 20.5713Z" fill="#B8B8B8"/>
<path d="M22.8571 20.5713H22.4286C22.3528 20.5713 22.2801 20.6014 22.2265 20.655C22.173 20.7086 22.1429 20.7812 22.1429 20.857C22.1429 20.9328 22.173 21.0055 22.2265 21.059C22.2801 21.1126 22.3528 21.1427 22.4286 21.1427H22.8571C22.9329 21.1427 23.0056 21.1126 23.0592 21.059C23.1128 21.0055 23.1429 20.9328 23.1429 20.857C23.1429 20.7812 23.1128 20.7086 23.0592 20.655C23.0056 20.6014 22.9329 20.5713 22.8571 20.5713Z" fill="#B8B8B8"/>
<path d="M23.7143 21.1427C23.8721 21.1427 24 21.0148 24 20.857C24 20.6992 23.8721 20.5713 23.7143 20.5713C23.5565 20.5713 23.4286 20.6992 23.4286 20.857C23.4286 21.0148 23.5565 21.1427 23.7143 21.1427Z" fill="#B8B8B8"/>
<path d="M21.5317 20.5717H20.9951C21.0229 20.3586 20.9376 20.0545 20.5032 19.6734C19.9674 19.2034 19.2683 18.4413 18.909 17.4361C20.2235 15.844 20.9432 13.8443 20.9449 11.7798C20.9449 11.704 20.9148 11.6313 20.8612 11.5777C20.8076 11.5242 20.735 11.4941 20.6592 11.4941C20.5834 11.4941 20.5107 11.5242 20.4571 11.5777C20.4036 11.6313 20.3735 11.704 20.3735 11.7798C20.3717 13.7641 19.6612 15.6825 18.37 17.1893C18.3385 17.2262 18.3168 17.2705 18.3071 17.3181C18.2974 17.3657 18.3 17.415 18.3147 17.4613C18.6953 18.665 19.51 19.5624 20.1264 20.1031C20.3809 20.3263 20.4309 20.4678 20.4335 20.4872C20.4171 20.5072 20.3101 20.5653 20.0413 20.57C18.8004 20.5928 17.0606 20.4058 15.8128 19.3905C15.7714 19.3566 15.7212 19.3351 15.6681 19.3284C15.615 19.3218 15.561 19.3302 15.5125 19.3528C14.4034 19.8675 13.195 20.133 11.9723 20.1304C7.33999 20.1304 3.57129 16.3843 3.57129 11.7798C3.57129 7.17507 7.33999 3.42885 11.9723 3.42885C12.0481 3.42885 12.1208 3.39875 12.1743 3.34517C12.2279 3.29158 12.258 3.21891 12.258 3.14314C12.258 3.06736 12.2279 2.99469 12.1743 2.94111C12.1208 2.88752 12.0481 2.85742 11.9723 2.85742C7.0249 2.85742 2.99986 6.86 2.99986 11.7798C3.0074 13.8888 3.75952 15.9274 5.12352 17.5359C6.48753 19.1444 8.37578 20.2196 10.4552 20.5717H2.46842C2.42777 20.5664 2.38646 20.5698 2.34724 20.5817C2.30802 20.5937 2.2718 20.6138 2.241 20.6409C2.21019 20.6679 2.18551 20.7012 2.1686 20.7386C2.15169 20.7759 2.14294 20.8164 2.14294 20.8574C2.14294 20.8984 2.15169 20.9389 2.1686 20.9763C2.18551 21.0136 2.21019 21.0469 2.241 21.074C2.2718 21.101 2.30802 21.1212 2.34724 21.1331C2.38646 21.145 2.42777 21.1484 2.46842 21.1431H21.5317C21.5723 21.1484 21.6136 21.145 21.6528 21.1331C21.692 21.1212 21.7283 21.101 21.7591 21.074C21.7899 21.0469 21.8146 21.0136 21.8315 20.9763C21.8484 20.9389 21.8571 20.8984 21.8571 20.8574C21.8571 20.8164 21.8484 20.7759 21.8315 20.7386C21.8146 20.7012 21.7899 20.6679 21.7591 20.6409C21.7283 20.6138 21.692 20.5937 21.6528 20.5817C21.6136 20.5698 21.5723 20.5664 21.5317 20.5717ZM13.4951 20.5717C14.2174 20.4493 14.9219 20.2383 15.5926 19.9435C15.9338 20.1973 16.3048 20.4083 16.6974 20.5717H13.4951Z" fill="#B8B8B8"/>
<path d="M14.3303 11.9379C14.2928 11.9359 14.2553 11.9412 14.2199 11.9537C14.1845 11.9661 14.1519 11.9854 14.124 12.0104C14.096 12.0355 14.0733 12.0658 14.0571 12.0996C14.0408 12.1334 14.0314 12.1701 14.0294 12.2076C14.0273 12.2451 14.0327 12.2826 14.0451 12.318C14.0575 12.3534 14.0768 12.386 14.1019 12.4139C14.1269 12.4418 14.1572 12.4646 14.191 12.4808C14.2249 12.4971 14.2616 12.5065 14.299 12.5085L16.3921 12.6229C16.3975 12.6232 16.4027 12.6233 16.408 12.6233C16.4824 12.6233 16.5538 12.5942 16.6071 12.5423C16.6604 12.4903 16.6913 12.4197 16.6933 12.3453C16.6953 12.2709 16.6683 12.1987 16.6178 12.144C16.5674 12.0893 16.4976 12.0564 16.4233 12.0523L14.3303 11.9379Z" fill="#E53935"/>
<path d="M12.9137 10.2812C12.9477 10.2971 12.9845 10.3061 13.022 10.3078C13.0595 10.3095 13.0969 10.3037 13.1322 10.2909C13.1674 10.278 13.1998 10.2584 13.2275 10.233C13.2551 10.2076 13.2775 10.1771 13.2934 10.143L14.1859 8.22953C14.2019 8.19551 14.211 8.15867 14.2127 8.12111C14.2144 8.08356 14.2087 8.04603 14.1959 8.01068C14.1831 7.97533 14.1635 7.94286 14.1381 7.91512C14.1127 7.88738 14.0821 7.86492 14.0481 7.84903C14.014 7.83315 13.9771 7.82414 13.9396 7.82253C13.902 7.82092 13.8645 7.82674 13.8292 7.83965C13.7939 7.85257 13.7615 7.87232 13.7338 7.89779C13.7061 7.92325 13.6838 7.95392 13.668 7.98805L12.7755 9.90155C12.7596 9.93555 12.7506 9.97234 12.749 10.0098C12.7473 10.0473 12.7531 10.0848 12.7659 10.12C12.7788 10.1553 12.7984 10.1877 12.8238 10.2153C12.8491 10.243 12.8797 10.2654 12.9137 10.2812Z" fill="#E53935"/>
<path d="M13.6809 11.0968C13.7 11.1291 13.7253 11.1574 13.7553 11.1799C13.7853 11.2024 13.8194 11.2188 13.8558 11.2281C13.8921 11.2375 13.93 11.2395 13.9671 11.2342C14.0043 11.2289 14.04 11.2163 14.0723 11.1972L16.9729 9.48074C17.0054 9.46176 17.0339 9.43653 17.0566 9.4065C17.0794 9.37648 17.096 9.34225 17.1055 9.30579C17.1149 9.26933 17.1171 9.23136 17.1118 9.19406C17.1066 9.15676 17.094 9.12086 17.0748 9.08845C17.0556 9.05603 17.0302 9.02772 17 9.00516C16.9699 8.9826 16.9356 8.96622 16.899 8.95698C16.8625 8.94773 16.8245 8.9458 16.7873 8.95129C16.75 8.95679 16.7142 8.96959 16.6819 8.98898L13.7813 10.7054C13.749 10.7245 13.7208 10.7498 13.6983 10.7798C13.6757 10.8098 13.6594 10.844 13.65 10.8803C13.6407 10.9167 13.6386 10.9545 13.6439 10.9916C13.6492 11.0288 13.6618 11.0645 13.6809 11.0968Z" fill="#E53935"/>
<path d="M16.8791 21.8574H15.6923C15.6205 21.8632 15.5535 21.8958 15.5046 21.9487C15.4557 22.0017 15.4286 22.0711 15.4286 22.1431C15.4286 22.2152 15.4557 22.2846 15.5046 22.3376C15.5535 22.3905 15.6205 22.4231 15.6923 22.4289H16.8791C16.951 22.4231 17.018 22.3905 17.0669 22.3376C17.1157 22.2846 17.1429 22.2152 17.1429 22.1431C17.1429 22.0711 17.1157 22.0017 17.0669 21.9487C17.018 21.8958 16.951 21.8632 16.8791 21.8574Z" fill="#E53935"/>
<path d="M8.30773 21.8574H7.12091C7.04909 21.8632 6.98207 21.8958 6.93319 21.9487C6.88432 22.0017 6.85718 22.0711 6.85718 22.1431C6.85718 22.2152 6.88432 22.2846 6.93319 22.3376C6.98207 22.3905 7.04909 22.4231 7.12091 22.4289H8.30773C8.37956 22.4231 8.44658 22.3905 8.49546 22.3376C8.54433 22.2846 8.57147 22.2152 8.57147 22.1431C8.57147 22.0711 8.54433 22.0017 8.49546 21.9487C8.44658 21.8958 8.37956 21.8632 8.30773 21.8574Z" fill="#E53935"/>
<path d="M14.8572 21.8574H9.14289C9.06712 21.8574 8.99444 21.8875 8.94086 21.9411C8.88728 21.9947 8.85718 22.0674 8.85718 22.1431C8.85718 22.2189 8.88728 22.2916 8.94086 22.3452C8.99444 22.3987 9.06712 22.4289 9.14289 22.4289H11.42V22.7146H10.2857C10.21 22.7146 10.1373 22.7447 10.0837 22.7982C10.0301 22.8518 10 22.9245 10 23.0003C10 23.0761 10.0301 23.1487 10.0837 23.2023C10.1373 23.2559 10.21 23.286 10.2857 23.286H13.8572C13.933 23.286 14.0056 23.2559 14.0592 23.2023C14.1128 23.1487 14.1429 23.0761 14.1429 23.0003C14.1429 22.9245 14.1128 22.8518 14.0592 22.7982C14.0056 22.7447 13.933 22.7146 13.8572 22.7146H12.58V22.4289H14.8572C14.933 22.4289 15.0056 22.3987 15.0592 22.3452C15.1128 22.2916 15.1429 22.2189 15.1429 22.1431C15.1429 22.0674 15.1128 21.9947 15.0592 21.9411C15.0056 21.8875 14.933 21.8574 14.8572 21.8574Z" fill="#E53935"/>
</g>
<defs>
<clipPath id="clip0_487_16307">
<rect width="24" height="24" fill="white"/>
</clipPath>
</defs>
</svg>
