<svg width="48" height="48" viewBox="0 0 48 48" fill="none" xmlns="http://www.w3.org/2000/svg">
<g clip-path="url(#clip0_487_15889)">
<path d="M24 11.1431C21.2876 11.1431 18.6361 11.9474 16.3807 13.4543C14.1254 14.9613 12.3677 17.1032 11.3296 19.6091C10.2916 22.1151 10.0201 24.8726 10.5492 27.5329C11.0784 30.1932 12.3846 32.6368 14.3025 34.5548C16.2205 36.4728 18.6642 37.779 21.3245 38.3081C23.9848 38.8373 26.7423 38.5657 29.2482 37.5277C31.7542 36.4897 33.8961 34.7319 35.403 32.4766C36.91 30.2213 37.7143 27.5698 37.7143 24.8574C37.7101 21.2214 36.2639 17.7355 33.6929 15.1645C31.1219 12.5934 27.636 11.1472 24 11.1431ZM24 37.4288C21.5136 37.4288 19.083 36.6915 17.0157 35.3101C14.9483 33.9287 13.337 31.9654 12.3855 29.6682C11.434 27.3711 11.1851 24.8434 11.6701 22.4048C12.1552 19.9662 13.3525 17.7262 15.1107 15.968C16.8688 14.2099 19.1088 13.0126 21.5474 12.5275C23.9861 12.0424 26.5137 12.2914 28.8109 13.2429C31.108 14.1944 33.0714 15.8057 34.4528 17.873C35.8341 19.9404 36.5714 22.371 36.5714 24.8574C36.5677 28.1903 35.242 31.3857 32.8852 33.7425C30.5284 36.0993 27.333 37.425 24 37.4288Z" fill="#1A1917"/>
<path d="M14.5257 22.6315C14.5787 22.6461 14.6334 22.6538 14.6885 22.6544C14.8325 22.6537 14.9709 22.5984 15.0758 22.4998C15.1807 22.4012 15.2445 22.2665 15.2541 22.1228C15.2638 21.9791 15.2187 21.8371 15.128 21.7253C15.0372 21.6135 14.9075 21.5402 14.7649 21.5202C14.6222 21.5002 14.4773 21.5348 14.3593 21.6173C14.2412 21.6997 14.1587 21.8238 14.1284 21.9646C14.0981 22.1054 14.1222 22.2524 14.1959 22.3762C14.2696 22.4999 14.3874 22.5911 14.5257 22.6315Z" fill="#E53935"/>
<path d="M15.2972 20.5088C15.3621 20.5466 15.434 20.5711 15.5085 20.5809C15.583 20.5907 15.6588 20.5857 15.7313 20.566C15.8039 20.5463 15.8718 20.5124 15.9312 20.4663C15.9906 20.4202 16.0402 20.3627 16.0772 20.2973V20.3001C16.1151 20.235 16.1397 20.163 16.1498 20.0883C16.1599 20.0137 16.1551 19.9378 16.1358 19.8649C16.1165 19.7921 16.083 19.7238 16.0372 19.664C15.9915 19.6041 15.9344 19.5539 15.8692 19.5161C15.804 19.4783 15.732 19.4538 15.6573 19.4439C15.5826 19.434 15.5067 19.439 15.4339 19.4585C15.3611 19.4779 15.2929 19.5116 15.2332 19.5575C15.1734 19.6033 15.1233 19.6606 15.0857 19.7258V19.7286C15.0105 19.8602 14.9905 20.0162 15.0301 20.1624C15.0698 20.3087 15.1658 20.4332 15.2972 20.5088Z" fill="#E53935"/>
<path d="M15.8714 30.2026C15.7754 30.2746 15.7046 30.3749 15.6688 30.4894C15.6331 30.6038 15.6342 30.7267 15.6722 30.8404C15.7101 30.9542 15.7829 31.0532 15.8802 31.1233C15.9775 31.1934 16.0944 31.2311 16.2143 31.2311C16.337 31.2312 16.4565 31.1912 16.5543 31.117C16.6146 31.0722 16.6655 31.016 16.7041 30.9516C16.7427 30.8871 16.7682 30.8157 16.7791 30.7414C16.79 30.6671 16.7861 30.5913 16.7677 30.5185C16.7493 30.4457 16.7167 30.3772 16.6717 30.3171C16.6268 30.2569 16.5704 30.2062 16.5058 30.1678C16.4412 30.1295 16.3697 30.1043 16.2953 30.0936C16.221 30.083 16.1452 30.0872 16.0725 30.1059C15.9997 30.1246 15.9314 30.1574 15.8714 30.2026Z" fill="#E53935"/>
<path d="M14.2686 24.8739H14.3029C14.4489 24.8694 14.5872 24.8077 14.688 24.7021C14.7889 24.5964 14.8441 24.4554 14.8419 24.3094C14.8396 24.1634 14.7801 24.0241 14.676 23.9216C14.5719 23.8191 14.4318 23.7617 14.2857 23.7617C14.1397 23.7617 13.9995 23.8191 13.8955 23.9216C13.7914 24.0241 13.7318 24.1634 13.7296 24.3094C13.7273 24.4554 13.7826 24.5964 13.8834 24.7021C13.9843 24.8077 14.1226 24.8694 14.2686 24.8739Z" fill="#E53935"/>
<path d="M15.6056 28.4825C15.5642 28.3886 15.4982 28.3076 15.4145 28.2481C15.3309 28.1887 15.2328 28.1528 15.1305 28.1445C15.0282 28.1361 14.9256 28.1555 14.8334 28.2007C14.7412 28.2458 14.6629 28.315 14.6068 28.4009C14.5507 28.4868 14.5188 28.5863 14.5145 28.6888C14.5102 28.7914 14.5337 28.8932 14.5824 28.9835C14.6312 29.0738 14.7034 29.1493 14.7915 29.2019C14.8796 29.2546 14.9802 29.2825 15.0829 29.2827C15.1617 29.2833 15.2397 29.2667 15.3114 29.2339C15.3801 29.204 15.4422 29.1607 15.4942 29.1067C15.5462 29.0528 15.587 28.989 15.6144 28.9192C15.6417 28.8494 15.655 28.7749 15.6535 28.7C15.652 28.6251 15.6357 28.5512 15.6056 28.4825Z" fill="#E53935"/>
<path d="M14.9971 26.4543C14.9786 26.3471 14.9299 26.2475 14.8568 26.167C14.7836 26.0865 14.689 26.0286 14.5841 26C14.4791 25.9715 14.3682 25.9735 14.2644 26.0057C14.1605 26.038 14.068 26.0993 13.9978 26.1823C13.9275 26.2653 13.8824 26.3666 13.8678 26.4744C13.8531 26.5822 13.8695 26.6919 13.915 26.7907C13.9606 26.8894 14.0333 26.9731 14.1248 27.032C14.2163 27.0908 14.3226 27.1223 14.4314 27.1228C14.4658 27.1229 14.5002 27.12 14.5342 27.1142C14.6829 27.0876 14.815 27.0033 14.9017 26.8797C14.9884 26.7561 15.0227 26.6031 14.9971 26.4543Z" fill="#E53935"/>
<path d="M18.6514 17.3225C18.7406 17.3224 18.8285 17.3013 18.9081 17.2612C18.9877 17.221 19.0568 17.1627 19.1099 17.0911C19.163 17.0194 19.1986 16.9363 19.2138 16.8485C19.2291 16.7606 19.2236 16.6704 19.1978 16.5851C19.172 16.4997 19.1265 16.4216 19.0652 16.3569C19.0038 16.2922 18.9281 16.2428 18.8442 16.2126C18.7603 16.1823 18.6705 16.1722 18.582 16.1828C18.4934 16.1935 18.4086 16.2247 18.3343 16.274C18.2718 16.3154 18.2181 16.3688 18.1763 16.431C18.1344 16.4932 18.1052 16.563 18.0904 16.6365C18.0755 16.71 18.0753 16.7856 18.0897 16.8592C18.1041 16.9328 18.1328 17.0028 18.1743 17.0653C18.2258 17.1448 18.2965 17.21 18.3799 17.255C18.4633 17.2999 18.5567 17.3232 18.6514 17.3225Z" fill="#E53935"/>
<path d="M29.0028 17.2081C29.0973 17.2707 29.2083 17.3038 29.3216 17.3032C29.435 17.3027 29.5456 17.2685 29.6395 17.205C29.7334 17.1415 29.8063 17.0516 29.8491 16.9466C29.8918 16.8417 29.9024 16.7264 29.8796 16.6153C29.8568 16.5043 29.8015 16.4026 29.7208 16.323C29.64 16.2434 29.5375 16.1896 29.4262 16.1684C29.3149 16.1471 29.1997 16.1594 29.0954 16.2036C28.991 16.2478 28.9022 16.322 28.84 16.4168C28.7986 16.4794 28.7699 16.5496 28.7556 16.6233C28.7414 16.697 28.7418 16.7728 28.7569 16.8463C28.7721 16.9199 28.8016 16.9897 28.8438 17.0518C28.886 17.1139 28.94 17.167 29.0028 17.2081Z" fill="#E53935"/>
<path d="M27.1056 16.2567C27.1681 16.2789 27.2337 16.2905 27.3 16.291C27.4431 16.2912 27.581 16.2377 27.6866 16.1412C27.7922 16.0446 27.8577 15.912 27.8703 15.7695C27.8829 15.627 27.8416 15.4849 27.7545 15.3714C27.6675 15.2578 27.5411 15.1811 27.4002 15.1562C27.2593 15.1313 27.1142 15.1601 26.9936 15.237C26.8729 15.3139 26.7854 15.4332 26.7484 15.5714C26.7115 15.7096 26.7276 15.8566 26.7938 15.9835C26.8599 16.1104 26.9712 16.2078 27.1056 16.2567Z" fill="#E53935"/>
<path d="M31.0456 18.7456C31.1918 18.7455 31.3326 18.6905 31.44 18.5914C31.5225 18.5136 31.5801 18.4131 31.6054 18.3026C31.6308 18.192 31.6228 18.0765 31.5824 17.9705C31.542 17.8646 31.4711 17.773 31.3787 17.7073C31.2862 17.6417 31.1764 17.605 31.063 17.6018C30.9497 17.5986 30.838 17.6292 30.742 17.6895C30.646 17.7499 30.5701 17.8374 30.5239 17.9409C30.4777 18.0445 30.4632 18.1594 30.4823 18.2712C30.5015 18.3829 30.5534 18.4865 30.6314 18.5688C30.6844 18.6253 30.7486 18.6702 30.8199 18.7007C30.8912 18.7311 30.9681 18.7464 31.0456 18.7456Z" fill="#E53935"/>
<path d="M25.0399 15.7741H25.0428C25.0636 15.7764 25.0846 15.7773 25.1056 15.7769C25.2523 15.7746 25.3924 15.7151 25.4961 15.6112C25.5998 15.5072 25.6589 15.367 25.6608 15.2202C25.6628 15.0734 25.6074 14.9316 25.5066 14.825C25.4057 14.7183 25.2672 14.6552 25.1206 14.6489C24.9739 14.6427 24.8306 14.6939 24.721 14.7916C24.6115 14.8893 24.5443 15.0259 24.5338 15.1723C24.5233 15.3188 24.5703 15.4635 24.6648 15.5759C24.7592 15.6882 24.8938 15.7593 25.0399 15.7741Z" fill="#E53935"/>
<path d="M16.9286 18.7744C17.0063 18.7746 17.0832 18.7587 17.1545 18.7277C17.2258 18.6968 17.2899 18.6514 17.3428 18.5944V18.5972C17.4206 18.5152 17.4722 18.4119 17.4913 18.3005C17.5103 18.1891 17.4959 18.0746 17.4498 17.9714C17.4037 17.8682 17.328 17.781 17.2323 17.7209C17.1366 17.6607 17.0252 17.6303 16.9123 17.6335C16.7993 17.6367 16.6898 17.6734 16.5977 17.7389C16.5056 17.8044 16.4349 17.8957 16.3948 18.0013C16.3546 18.107 16.3467 18.2222 16.372 18.3323C16.3974 18.4425 16.4548 18.5426 16.5371 18.6201C16.6429 18.72 16.7831 18.7753 16.9286 18.7744Z" fill="#E53935"/>
<path d="M20.66 16.3054C20.7272 16.3052 20.7938 16.2937 20.8571 16.2713C20.9926 16.2225 21.1049 16.1247 21.1719 15.9972C21.2388 15.8697 21.2555 15.7218 21.2188 15.5825C21.182 15.4433 21.0943 15.3229 20.9732 15.2451C20.852 15.1673 20.706 15.1377 20.5641 15.1622C20.4222 15.1867 20.2946 15.2635 20.2065 15.3775C20.1185 15.4914 20.0763 15.6342 20.0883 15.7777C20.1004 15.9212 20.1657 16.055 20.2716 16.1527C20.3774 16.2504 20.516 16.3048 20.66 16.3054Z" fill="#E53935"/>
<path d="M22.8514 15.7828C22.9675 15.7833 23.081 15.7485 23.1768 15.683C23.2726 15.6175 23.3463 15.5244 23.3879 15.416C23.4296 15.3077 23.4373 15.1892 23.41 15.0764C23.3827 14.9635 23.3218 14.8617 23.2353 14.7843C23.1487 14.7069 23.0407 14.6577 22.9255 14.6432C22.8104 14.6286 22.6935 14.6495 22.5905 14.703C22.4874 14.7564 22.4031 14.84 22.3487 14.9425C22.2942 15.045 22.2723 15.1617 22.2857 15.277C22.3009 15.4163 22.3671 15.545 22.4715 15.6384C22.576 15.7318 22.7113 15.7833 22.8514 15.7828Z" fill="#E53935"/>
<path d="M26.1429 33.7455C26.0073 33.7789 25.8886 33.8607 25.8091 33.9756C25.7296 34.0904 25.6948 34.2304 25.7113 34.3691C25.7278 34.5078 25.7944 34.6357 25.8986 34.7287C26.0028 34.8217 26.1374 34.8734 26.2771 34.8741C26.3224 34.8741 26.3676 34.8683 26.4115 34.8571C26.5584 34.821 26.685 34.7282 26.7636 34.5989C26.8422 34.4697 26.8664 34.3145 26.8309 34.1675C26.7953 34.0205 26.703 33.8935 26.5741 33.8144C26.4451 33.7353 26.2901 33.7105 26.1429 33.7455Z" fill="#E53935"/>
<path d="M17.3228 31.9312C17.2746 31.9888 17.2382 32.0553 17.2156 32.127C17.1931 32.1987 17.1849 32.2741 17.1916 32.3489C17.1982 32.4237 17.2195 32.4965 17.2543 32.5631C17.2891 32.6297 17.3366 32.6888 17.3943 32.737V32.7339C17.496 32.8213 17.6258 32.869 17.7599 32.8684C17.8561 32.8686 17.9507 32.8446 18.0351 32.7985C18.1195 32.7524 18.1909 32.6857 18.2426 32.6047C18.2944 32.5237 18.3249 32.4309 18.3312 32.3349C18.3375 32.239 18.3196 32.143 18.2789 32.0558C18.2383 31.9687 18.1763 31.8932 18.0987 31.8364C18.0211 31.7796 17.9305 31.7433 17.8351 31.7309C17.7398 31.7184 17.6428 31.7303 17.5533 31.7653C17.4637 31.8003 17.3844 31.8574 17.3228 31.9312Z" fill="#E53935"/>
<path d="M33.6713 25.9484C33.5217 25.9232 33.3682 25.9584 33.2445 26.0463C33.1208 26.1342 33.037 26.2675 33.0115 26.4171H33.0085C32.9841 26.5667 33.0196 26.7198 33.1073 26.8433C33.195 26.9668 33.3279 27.0508 33.4771 27.077C33.5085 27.0801 33.5428 27.0829 33.5742 27.0829C33.7174 27.0829 33.8554 27.0293 33.9609 26.9325C34.0663 26.8357 34.1317 26.7029 34.1439 26.5602C34.1561 26.4176 34.1143 26.2756 34.0268 26.1623C33.9393 26.0489 33.8124 25.9726 33.6713 25.9484Z" fill="#E53935"/>
<path d="M32.1486 30.1687C32.0265 30.0793 31.8741 30.0419 31.7245 30.0646C31.575 30.0874 31.4405 30.1684 31.3506 30.2901C31.2607 30.4117 31.2226 30.564 31.2447 30.7137C31.2668 30.8633 31.3472 30.9981 31.4685 31.0886C31.5673 31.1605 31.6862 31.1995 31.8084 31.2002C31.9288 31.2003 32.0462 31.1624 32.1438 31.0919C32.2414 31.0214 32.3142 30.9219 32.3519 30.8076C32.3896 30.6932 32.3903 30.5699 32.3538 30.4552C32.3172 30.3404 32.2454 30.2402 32.1486 30.1687Z" fill="#E53935"/>
<path d="M32.7514 22.2081C32.787 22.3258 32.8595 22.4289 32.9584 22.502C33.0572 22.5751 33.177 22.6143 33.3 22.6138C33.356 22.6145 33.4119 22.6068 33.4657 22.5909C33.5737 22.558 33.6696 22.4938 33.7411 22.4065C33.8127 22.3191 33.8568 22.2125 33.8678 22.1002C33.8789 21.9878 33.8564 21.8746 33.8032 21.775C33.75 21.6754 33.6685 21.5938 33.569 21.5404C33.4695 21.4871 33.3564 21.4644 33.244 21.4753C33.1316 21.4862 33.0249 21.5301 32.9374 21.6015C32.85 21.673 32.7856 21.7687 32.7525 21.8766C32.7194 21.9846 32.719 22.1 32.7514 22.2081Z" fill="#E53935"/>
<path d="M33.1257 24.2971C33.1346 24.4421 33.1982 24.5783 33.3038 24.6781C33.4094 24.7778 33.549 24.8337 33.6942 24.8342C33.7067 24.8347 33.7192 24.8338 33.7315 24.8314C33.8442 24.8244 33.9523 24.784 34.0421 24.7155C34.1319 24.647 34.1993 24.5534 34.2359 24.4466C34.2726 24.3397 34.2767 24.2244 34.2477 24.1153C34.2188 24.0061 34.1582 23.9079 34.0735 23.8332C33.9888 23.7585 33.8838 23.7106 33.7719 23.6955C33.66 23.6805 33.5461 23.6989 33.4446 23.7486C33.3432 23.7982 33.2588 23.8768 33.202 23.9745C33.1452 24.0721 33.1187 24.1844 33.1257 24.2971Z" fill="#E53935"/>
<path d="M32.1114 19.4854C32.0029 19.5486 31.9184 19.6457 31.8708 19.7618C31.8231 19.8779 31.8152 20.0064 31.8481 20.1275C31.8809 20.2486 31.9529 20.3555 32.0527 20.4315C32.1524 20.5076 32.2745 20.5486 32.4 20.5482C32.5005 20.549 32.5993 20.5223 32.6857 20.4709C32.7506 20.4333 32.8074 20.3832 32.8529 20.3236C32.8985 20.264 32.9318 20.196 32.951 20.1235C32.9702 20.051 32.9749 19.9754 32.9648 19.9011C32.9548 19.8268 32.9301 19.7552 32.8924 19.6904C32.8546 19.6256 32.8044 19.5689 32.7447 19.5235C32.685 19.4781 32.6169 19.4449 32.5444 19.4259C32.4718 19.4069 32.3963 19.4023 32.322 19.4125C32.2476 19.4228 32.1761 19.4475 32.1114 19.4854Z" fill="#E53935"/>
<path d="M29.9 31.8368C29.8138 31.9098 29.7511 32.0066 29.7199 32.1152C29.6887 32.2238 29.6905 32.3392 29.7249 32.4467C29.7594 32.5543 29.825 32.6493 29.9134 32.7195C30.0019 32.7898 30.1092 32.8322 30.2218 32.8415C30.3344 32.8507 30.4472 32.8263 30.5459 32.7714C30.6446 32.7165 30.7248 32.6335 30.7763 32.533C30.8278 32.4324 30.8483 32.3189 30.8353 32.2067C30.8222 32.0945 30.7762 31.9887 30.7029 31.9027C30.605 31.7878 30.4655 31.7164 30.3151 31.7041C30.1646 31.6917 30.0154 31.7395 29.9 31.8368Z" fill="#E53935"/>
<path d="M33.157 28.1484C33.0177 28.0893 32.8605 28.0879 32.7201 28.1445C32.5797 28.2011 32.4675 28.3112 32.4081 28.4504C32.3487 28.5897 32.347 28.7468 32.4033 28.8873C32.4596 29.0278 32.5694 29.1403 32.7085 29.2C32.7789 29.2303 32.8547 29.2457 32.9313 29.2455C33.063 29.2456 33.1907 29.2002 33.2929 29.1171C33.395 29.0339 33.4653 28.918 33.4918 28.789C33.5183 28.66 33.4995 28.5258 33.4385 28.4091C33.3775 28.2923 33.2781 28.2002 33.157 28.1484Z" fill="#E53935"/>
<path d="M21.8943 33.7539C21.7467 33.7193 21.5915 33.7446 21.4625 33.8242C21.3335 33.9038 21.2414 34.0313 21.2062 34.1787C21.1711 34.3261 21.1958 34.4815 21.2749 34.6107C21.3541 34.74 21.4812 34.8326 21.6285 34.8683C21.6728 34.8772 21.7177 34.8819 21.7628 34.8825C21.9027 34.8819 22.0375 34.8301 22.1418 34.7369C22.2461 34.6436 22.3126 34.5154 22.3288 34.3765C22.345 34.2375 22.3097 34.0975 22.2296 33.9828C22.1496 33.8681 22.0303 33.7866 21.8943 33.7539Z" fill="#E53935"/>
<path d="M19.9 33.0283C19.7647 32.9602 19.6079 32.9486 19.4641 32.996C19.3203 33.0435 19.2012 33.1461 19.133 33.2813C19.0648 33.4165 19.0531 33.5733 19.1005 33.7172C19.1479 33.861 19.2504 33.9802 19.3856 34.0484C19.4653 34.0887 19.5535 34.1093 19.6429 34.1084C19.7714 34.1088 19.8964 34.0658 19.9975 33.9863C20.0985 33.9067 20.1697 33.7954 20.1995 33.6703C20.2293 33.5452 20.2159 33.4137 20.1615 33.2971C20.1071 33.1806 20.015 33.0859 19.9 33.0283Z" fill="#E53935"/>
<path d="M24.0371 34H24C23.8485 34 23.7031 34.0602 23.596 34.1674C23.4888 34.2745 23.4286 34.4199 23.4286 34.5714C23.4286 34.723 23.4888 34.8683 23.596 34.9755C23.7031 35.0827 23.8485 35.1429 24 35.1429H24.0428C24.1944 35.1421 24.3394 35.0812 24.4461 34.9735C24.5527 34.8658 24.6122 34.7201 24.6114 34.5686C24.6107 34.417 24.5497 34.272 24.442 34.1654C24.3343 34.0587 24.1887 33.9992 24.0371 34Z" fill="#E53935"/>
<path d="M28.1314 33.0112C28.0173 33.0696 27.9261 33.1647 27.8725 33.2812C27.819 33.3977 27.8062 33.5288 27.8362 33.6535C27.8662 33.7781 27.9373 33.8891 28.038 33.9684C28.1387 34.0478 28.2631 34.091 28.3913 34.091C28.4818 34.0914 28.571 34.0698 28.6514 34.0282C28.7859 33.9591 28.8875 33.8394 28.9338 33.6954C28.9802 33.5515 28.9676 33.395 28.8988 33.2604C28.8299 33.1257 28.7105 33.0238 28.5666 32.9771C28.4228 32.9304 28.2663 32.9427 28.1314 33.0112Z" fill="#E53935"/>
<path d="M24 17.4287C22.5308 17.4287 21.0945 17.8644 19.8729 18.6807C18.6513 19.4969 17.6991 20.6571 17.1369 22.0145C16.5746 23.3719 16.4275 24.8655 16.7142 26.3065C17.0008 27.7475 17.7083 29.0712 18.7472 30.1101C19.7861 31.149 21.1097 31.8565 22.5507 32.1431C23.9917 32.4298 25.4854 32.2826 26.8428 31.7204C28.2002 31.1581 29.3604 30.206 30.1766 28.9844C30.9929 27.7628 31.4286 26.3265 31.4286 24.8573C31.4264 22.8878 30.643 20.9996 29.2503 19.6069C27.8577 18.2143 25.9695 17.4309 24 17.4287ZM24 31.143C22.7568 31.143 21.5415 30.7743 20.5078 30.0837C19.4742 29.393 18.6685 28.4113 18.1927 27.2627C17.717 26.1142 17.5925 24.8503 17.835 23.631C18.0776 22.4117 18.6762 21.2917 19.5553 20.4126C20.4344 19.5335 21.5544 18.9349 22.7737 18.6923C23.993 18.4498 25.2569 18.5743 26.4054 19.05C27.554 19.5258 28.5357 20.3314 29.2264 21.3651C29.917 22.3988 30.2857 23.6141 30.2857 24.8573C30.2838 26.5238 29.621 28.1215 28.4426 29.2999C27.2642 30.4783 25.6665 31.1411 24 31.143Z" fill="#1A1917"/>
<path d="M25.9174 22.8103L23.0357 25.692L22.0826 24.7389C21.9754 24.6321 21.8301 24.5722 21.6788 24.5723C21.5274 24.5724 21.3823 24.6326 21.2753 24.7397C21.1683 24.8467 21.1081 24.9918 21.108 25.1431C21.1078 25.2945 21.1677 25.4397 21.2746 25.5469L22.6317 26.9041C22.6847 26.9571 22.7477 26.9992 22.817 27.028C22.8864 27.0567 22.9607 27.0715 23.0357 27.0715C23.1108 27.0715 23.1851 27.0567 23.2544 27.028C23.3237 26.9992 23.3867 26.9571 23.4397 26.9041L26.7254 23.6183C26.8321 23.5111 26.8919 23.3659 26.8917 23.2146C26.8915 23.0634 26.8313 22.9184 26.7244 22.8114C26.6174 22.7044 26.4724 22.6442 26.3211 22.644C26.1698 22.6438 26.0247 22.7036 25.9174 22.8103Z" fill="#E53935"/>
<path d="M0.571429 43.1429C0.88702 43.1429 1.14286 42.887 1.14286 42.5714C1.14286 42.2558 0.88702 42 0.571429 42C0.255837 42 0 42.2558 0 42.5714C0 42.887 0.255837 43.1429 0.571429 43.1429Z" fill="#1A1917"/>
<path d="M3.14287 42H2.28572C2.13417 42 1.98883 42.0602 1.88166 42.1674C1.7745 42.2745 1.71429 42.4199 1.71429 42.5714C1.71429 42.723 1.7745 42.8683 1.88166 42.9755C1.98883 43.0827 2.13417 43.1429 2.28572 43.1429H3.14287C3.29442 43.1429 3.43976 43.0827 3.54693 42.9755C3.65409 42.8683 3.71429 42.723 3.71429 42.5714C3.71429 42.4199 3.65409 42.2745 3.54693 42.1674C3.43976 42.0602 3.29442 42 3.14287 42Z" fill="#1A1917"/>
<path d="M45.7143 42H44.8572C44.7056 42 44.5603 42.0602 44.4531 42.1674C44.346 42.2745 44.2858 42.4199 44.2858 42.5714C44.2858 42.723 44.346 42.8683 44.4531 42.9755C44.5603 43.0827 44.7056 43.1429 44.8572 43.1429H45.7143C45.8659 43.1429 46.0112 43.0827 46.1184 42.9755C46.2256 42.8683 46.2858 42.723 46.2858 42.5714C46.2858 42.4199 46.2256 42.2745 46.1184 42.1674C46.0112 42.0602 45.8659 42 45.7143 42Z" fill="#1A1917"/>
<path d="M47.4286 43.1429C47.7442 43.1429 48 42.887 48 42.5714C48 42.2558 47.7442 42 47.4286 42C47.113 42 46.8572 42.2558 46.8572 42.5714C46.8572 42.887 47.113 43.1429 47.4286 43.1429Z" fill="#1A1917"/>
<path d="M33.7583 44.2856H31.3847C31.241 44.2972 31.107 44.3623 31.0092 44.4682C30.9115 44.5741 30.8572 44.713 30.8572 44.8571C30.8572 45.0012 30.9115 45.14 31.0092 45.2459C31.107 45.3518 31.241 45.417 31.3847 45.4285H33.7583C33.9019 45.417 34.036 45.3518 34.1337 45.2459C34.2315 45.14 34.2858 45.0012 34.2858 44.8571C34.2858 44.713 34.2315 44.5741 34.1337 44.4682C34.036 44.3623 33.9019 44.2972 33.7583 44.2856Z" fill="#E53935"/>
<path d="M16.6154 44.2856H14.2418C14.0981 44.2972 13.9641 44.3623 13.8663 44.4682C13.7686 44.5741 13.7143 44.713 13.7143 44.8571C13.7143 45.0012 13.7686 45.14 13.8663 45.2459C13.9641 45.3518 14.0981 45.417 14.2418 45.4285H16.6154C16.7591 45.417 16.8931 45.3518 16.9909 45.2459C17.0886 45.14 17.1429 45.0012 17.1429 44.8571C17.1429 44.713 17.0886 44.5741 16.9909 44.4682C16.8931 44.3623 16.7591 44.2972 16.6154 44.2856Z" fill="#E53935"/>
<path d="M29.7143 44.2856H18.2857C18.1342 44.2856 17.9888 44.3458 17.8817 44.453C17.7745 44.5602 17.7143 44.7055 17.7143 44.8571C17.7143 45.0086 17.7745 45.154 17.8817 45.2611C17.9888 45.3683 18.1342 45.4285 18.2857 45.4285H22.84V45.9999H20.5714C20.4199 45.9999 20.2745 46.0601 20.1674 46.1673C20.0602 46.2745 20 46.4198 20 46.5714C20 46.7229 20.0602 46.8683 20.1674 46.9754C20.2745 47.0826 20.4199 47.1428 20.5714 47.1428H27.7143C27.8658 47.1428 28.0112 47.0826 28.1184 46.9754C28.2255 46.8683 28.2857 46.7229 28.2857 46.5714C28.2857 46.4198 28.2255 46.2745 28.1184 46.1673C28.0112 46.0601 27.8658 45.9999 27.7143 45.9999H25.16V45.4285H29.7143C29.8658 45.4285 30.0112 45.3683 30.1184 45.2611C30.2255 45.154 30.2857 45.0086 30.2857 44.8571C30.2857 44.7055 30.2255 44.5602 30.1184 44.453C30.0112 44.3458 29.8658 44.2856 29.7143 44.2856Z" fill="#E53935"/>
<path d="M43.0632 41.9999H30.3963L31.7896 41.4229C32.0694 41.3065 32.2916 41.084 32.4076 40.8041C32.5235 40.5241 32.5237 40.2096 32.4081 39.9296L32.1497 39.2847C32.8723 38.8762 33.563 38.4137 34.2161 37.9014L34.7076 38.393C34.9253 38.6009 35.2147 38.7169 35.5157 38.7169C35.8167 38.7169 36.1061 38.6009 36.3238 38.393L37.536 37.1809C37.7501 36.9665 37.8703 36.6758 37.8703 36.3728C37.8703 36.0697 37.7501 35.7791 37.536 35.5646L37.0504 35.0671C37.5618 34.4134 38.0233 33.7222 38.4309 32.9993L39.0725 33.2649C39.3525 33.3809 39.6671 33.3809 39.9472 33.265C40.2272 33.149 40.4497 32.9266 40.5657 32.6466L41.222 31.0626C41.3375 30.7826 41.3372 30.4681 41.2213 30.1883C41.1053 29.9084 40.8831 29.6859 40.6034 29.5696L39.9689 29.2976C40.1896 28.4973 40.3495 27.6814 40.4471 26.857H41.1429C41.4459 26.8567 41.7364 26.7362 41.9506 26.5219C42.1649 26.3077 42.2854 26.0172 42.2857 25.7141V23.9999C42.2854 23.6969 42.1649 23.4064 41.9506 23.1921C41.7364 22.9778 41.4459 22.8573 41.1429 22.857L40.4473 22.8486C40.3484 22.0243 40.1875 21.2087 39.9658 20.4086L40.6034 20.1444C40.8832 20.0281 41.1054 19.8055 41.2213 19.5256C41.3373 19.2457 41.3374 18.9312 41.2218 18.6511L40.5659 17.0677C40.4499 16.7877 40.2275 16.5652 39.9475 16.4492C39.6675 16.3332 39.3528 16.3331 39.0728 16.4491L38.4277 16.7075C38.0192 15.9848 37.5568 15.294 37.0445 14.6408L37.536 14.1494C37.7501 13.9349 37.8703 13.6443 37.8703 13.3413C37.8703 13.0382 37.7501 12.7476 37.536 12.5331L36.324 11.321C36.1063 11.1131 35.8169 10.9971 35.5158 10.9971C35.2148 10.9971 34.9254 11.1131 34.7077 11.321L34.2101 11.8065C33.5564 11.2952 32.8651 10.8338 32.1422 10.4262L32.4082 9.78417C32.5237 9.5041 32.5235 9.18964 32.4075 8.90976C32.2915 8.62987 32.0693 8.40741 31.7895 8.29115L30.2058 7.63518C30.0671 7.57773 29.9185 7.54817 29.7684 7.54817C29.6183 7.54817 29.4697 7.57773 29.3311 7.63517C29.1924 7.69261 29.0664 7.77681 28.9603 7.88294C28.8542 7.98908 28.77 8.11508 28.7126 8.25375L28.4406 8.88823C27.6403 8.66746 26.8244 8.5076 26 8.41002V7.71415C25.9997 7.41114 25.8792 7.12064 25.6649 6.90638C25.4507 6.69212 25.1602 6.57161 24.8572 6.57129H23.1429C22.8399 6.57161 22.5494 6.69212 22.3351 6.90638C22.1208 7.12064 22.0003 7.41114 22 7.71415L21.9921 8.41002C21.1675 8.50862 20.3517 8.66961 19.5515 8.8916L19.2875 8.25377C19.1716 7.97374 18.9491 7.75125 18.6691 7.63525C18.389 7.51924 18.0744 7.51922 17.7944 7.6352L16.2104 8.29117C15.9306 8.4075 15.7084 8.63003 15.5925 8.90997C15.4765 9.18991 15.4763 9.5044 15.5919 9.78447L15.8503 10.4293C15.1278 10.8379 14.437 11.3003 13.7839 11.8127L13.2924 11.321C13.0748 11.1131 12.7853 10.9971 12.4843 10.9971C12.1833 10.9971 11.8939 11.1131 11.6762 11.321L10.464 12.5331C10.2499 12.7475 10.1297 13.0382 10.1297 13.3412C10.1297 13.6443 10.2499 13.9349 10.464 14.1494L10.9496 14.6469C10.4382 15.3006 9.97673 15.9918 9.56907 16.7147L8.92747 16.4491C8.64746 16.3331 8.33286 16.3331 8.05284 16.449C7.77283 16.565 7.55033 16.7874 7.43429 17.0674L6.77805 18.6514C6.66252 18.9314 6.66277 19.2459 6.77872 19.5257C6.89468 19.8056 7.11688 20.0281 7.39662 20.1444L8.0311 20.4164C7.81037 21.2167 7.65051 22.0326 7.55288 22.857H6.85715C6.55415 22.8573 6.26364 22.9778 6.04939 23.1921C5.83513 23.4064 5.71462 23.6969 5.71429 23.9999V25.7141C5.71462 26.0172 5.83513 26.3077 6.04939 26.5219C6.26364 26.7362 6.55415 26.8567 6.85715 26.857L7.55274 26.8654C7.65157 27.6897 7.81251 28.5053 8.03419 29.3054L7.39663 29.5696C7.11686 29.6859 6.89463 29.9085 6.7787 30.1884C6.66277 30.4683 6.66258 30.7828 6.77819 31.0629L7.43416 32.6463C7.55012 32.9263 7.77257 33.1488 8.05256 33.2648C8.33256 33.3808 8.64717 33.3809 8.92719 33.2649L9.57227 33.0065C9.98082 33.7292 10.4432 34.42 10.9555 35.0732L10.464 35.5646C10.2499 35.7791 10.1297 36.0697 10.1297 36.3728C10.1297 36.6758 10.2499 36.9665 10.464 37.1809L11.6761 38.393C11.8937 38.6009 12.1832 38.7169 12.4842 38.7169C12.7852 38.7169 13.0746 38.6009 13.2923 38.393L13.7899 37.9075C14.4436 38.4188 15.1349 38.8802 15.8578 39.2878L15.5918 39.9298C15.4763 40.2099 15.4765 40.5244 15.5925 40.8042C15.7085 41.0841 15.9308 41.3066 16.2105 41.4229L17.6036 41.9999H4.93678C4.85548 41.9892 4.77286 41.9961 4.69442 42.0199C4.61599 42.0438 4.54354 42.0841 4.48193 42.1382C4.42032 42.1923 4.37095 42.2589 4.33714 42.3336C4.30332 42.4083 4.28583 42.4893 4.28583 42.5713C4.28583 42.6533 4.30332 42.7343 4.33714 42.809C4.37095 42.8837 4.42032 42.9503 4.48193 43.0044C4.54354 43.0585 4.61599 43.0988 4.69442 43.1226C4.77286 43.1465 4.85548 43.1533 4.93678 43.1427H43.0632C43.1445 43.1533 43.2272 43.1465 43.3056 43.1226C43.384 43.0988 43.4565 43.0585 43.5181 43.0044C43.5797 42.9503 43.6291 42.8837 43.6629 42.809C43.6967 42.7343 43.7142 42.6533 43.7142 42.5713C43.7142 42.4893 43.6967 42.4083 43.6629 42.3336C43.6291 42.2589 43.5797 42.1923 43.5181 42.1382C43.4565 42.0841 43.384 42.0438 43.3056 42.0199C43.2272 41.9961 43.1445 41.9892 43.0632 41.9999ZM18.8171 41.9999C19.0281 41.8756 19.1932 41.6863 19.2874 41.4602L19.5594 40.8258C20.3597 41.0465 21.1756 41.2064 22 41.304V41.9999H18.8171ZM23.1429 41.9999V41.304C23.1416 41.0236 23.0376 40.7533 22.8507 40.5443C22.6638 40.3353 22.4068 40.202 22.1282 40.1695C21.3635 40.078 20.6067 39.9291 19.8643 39.7242C19.7636 39.6963 19.6596 39.6821 19.5551 39.6821C19.3288 39.6815 19.1075 39.748 18.9189 39.8732C18.7304 39.9983 18.5831 40.1765 18.4957 40.3852L18.2316 41.023L16.6478 40.3671L16.9137 39.7253C17.0195 39.4661 17.0269 39.1772 16.9347 38.9128C16.8425 38.6485 16.6569 38.4269 16.4128 38.2898C15.7423 37.9106 15.101 37.482 14.4943 37.0074C14.2742 36.8342 13.9985 36.7473 13.7188 36.7631C13.4392 36.7789 13.175 36.8964 12.9759 37.0933L12.4843 37.585L11.2721 36.3726L11.7635 35.8813C11.9607 35.6823 12.0783 35.418 12.0941 35.1384C12.11 34.8587 12.0229 34.5828 11.8495 34.3629C11.3749 33.7559 10.9463 33.1145 10.5671 32.4438C10.4301 32.1997 10.2087 32.0141 9.94435 31.9219C9.68004 31.8298 9.39117 31.8375 9.13213 31.9435L8.49011 32.2091L7.83414 30.6254L8.47141 30.3612C8.72945 30.2529 8.93904 30.054 9.06081 29.8021C9.18258 29.5501 9.20814 29.2624 9.13269 28.9929C8.92796 28.2505 8.77915 27.4938 8.68751 26.7292C8.65513 26.4506 8.52181 26.1935 8.31276 26.0064C8.1037 25.8194 7.83338 25.7154 7.55288 25.7141H6.85715V23.9999H7.55288C7.8333 23.9986 8.10355 23.8947 8.31259 23.7078C8.52164 23.5209 8.65501 23.2639 8.68751 22.9854C8.77909 22.2205 8.9279 21.4637 9.13268 20.7211C9.20813 20.4517 9.18259 20.164 9.06088 19.912C8.93917 19.6601 8.72965 19.4612 8.47169 19.3528L7.83399 19.0886L8.49025 17.5049L9.13157 17.7705C9.39079 17.8761 9.67965 17.8836 9.94397 17.7914C10.2083 17.6993 10.4299 17.5138 10.5673 17.2699C10.9463 16.5994 11.3749 15.9581 11.8493 15.3514C12.0229 15.1314 12.1099 14.8556 12.0941 14.5758C12.0783 14.2961 11.9607 14.0318 11.7635 13.8327L11.2721 13.3411L12.4842 12.129L12.9759 12.6207C13.1749 12.8177 13.4391 12.9352 13.7188 12.951C13.9984 12.9668 14.2742 12.8799 14.4942 12.7066C15.1011 12.232 15.7424 11.8033 16.413 11.4239C16.657 11.2868 16.8426 11.0653 16.9348 10.801C17.027 10.5367 17.0195 10.2478 16.9137 9.98868L16.6478 9.34694L18.2316 8.69072L18.4957 9.32883C18.6042 9.58676 18.803 9.79622 19.055 9.91792C19.307 10.0396 19.5947 10.0652 19.8641 9.98983C20.6067 9.78492 21.3635 9.63606 22.1284 9.54451C22.4069 9.51203 22.6639 9.37868 22.8508 9.16966C23.0377 8.96064 23.1416 8.69042 23.1429 8.41002V7.71415H24.8572V8.41002C24.8584 8.69044 24.9624 8.96068 25.1493 9.1697C25.3363 9.37872 25.5933 9.51205 25.8718 9.5445C26.6365 9.63605 27.3933 9.7849 28.1358 9.98981C28.4053 10.0653 28.6931 10.0398 28.9451 9.91805C29.1971 9.79628 29.396 9.58664 29.5043 9.32854L29.7684 8.69099L31.3523 9.34696L31.0864 9.9887C30.9806 10.2479 30.9731 10.5368 31.0653 10.8012C31.1575 11.0655 31.3431 11.2871 31.5872 11.4242C32.2577 11.8034 32.899 12.232 33.5057 12.7066C33.7257 12.8801 34.0015 12.9671 34.2812 12.9512C34.5609 12.9354 34.8251 12.8178 35.0241 12.6207L35.5158 12.129L36.728 13.3414L36.2365 13.8327C36.0393 14.0317 35.9217 14.296 35.9059 14.5756C35.8901 14.8553 35.9771 15.1312 36.1505 15.3511C36.6251 15.9581 37.0538 16.5995 37.4329 17.2702C37.5698 17.5144 37.7913 17.7 38.0556 17.7922C38.32 17.8843 38.6089 17.8766 38.8679 17.7705L39.5099 17.5049L40.1659 19.0886L39.5286 19.3528C39.2706 19.4611 39.061 19.66 38.9392 19.9119C38.8174 20.1639 38.7919 20.4516 38.8673 20.7211C39.0721 21.4635 39.2209 22.2202 39.3125 22.9848C39.3449 23.2634 39.4782 23.5205 39.6873 23.7076C39.8963 23.8946 40.1666 23.9986 40.4471 23.9999H41.1429V25.7141H40.4471C40.1667 25.7154 39.8965 25.8193 39.6874 26.0062C39.4784 26.1931 39.345 26.4501 39.3125 26.7287C39.2209 27.4935 39.0721 28.2503 38.8673 28.9929C38.7919 29.2623 38.8174 29.5501 38.9391 29.802C39.0608 30.054 39.2704 30.2528 39.5283 30.3612L40.166 30.6254L39.5098 32.2091L38.8685 31.9435C38.6092 31.8377 38.3203 31.8302 38.056 31.9224C37.7916 32.0145 37.57 32.2001 37.4328 32.4441C37.0537 33.1146 36.6252 33.7559 36.1507 34.3626C35.9772 34.5826 35.8901 34.8585 35.9059 35.1382C35.9217 35.4179 36.0393 35.6822 36.2365 35.8813L36.728 36.3729L35.5158 37.585L35.0241 37.0933C34.8251 36.8963 34.5609 36.7787 34.2813 36.7629C34.0016 36.7471 33.7258 36.834 33.5059 37.0074C32.899 37.482 32.2576 37.9107 31.5871 38.2901C31.343 38.4272 31.1574 38.6487 31.0652 38.913C30.973 39.1773 30.9805 39.4662 31.0864 39.7253L31.3523 40.3671L29.7684 41.0228L29.5043 40.3852C29.3959 40.1272 29.197 39.9177 28.945 39.796C28.6931 39.6743 28.4053 39.6488 28.1359 39.7242C27.3933 39.9291 26.6365 40.078 25.8717 40.1695C25.5931 40.202 25.3362 40.3354 25.1493 40.5444C24.9624 40.7534 24.8584 41.0236 24.8572 41.304V41.9999H23.1429ZM26.008 41.304C26.8325 41.2053 27.6483 41.0445 28.4485 40.8227L28.7125 41.46C28.8067 41.6861 28.9718 41.8756 29.1829 41.9999H26L26.008 41.304Z" fill="#1A1917"/>
</g>
<defs>
<clipPath id="clip0_487_15889">
<rect width="48" height="48" fill="white"/>
</clipPath>
</defs>
</svg>
