<svg width="48" height="48" viewBox="0 0 48 48" fill="none" xmlns="http://www.w3.org/2000/svg">
<g clip-path="url(#clip0_1223_2093)">
<path d="M6.28674 32.9694C6.98657 32.9556 7.68457 33.0458 8.35786 33.2372C9.12423 33.4535 9.91823 33.556 10.7144 33.5413C11.5107 33.5559 12.3048 33.4535 13.0712 33.2372C13.7445 33.0458 14.4425 32.9556 15.1424 32.9694C15.8423 32.9556 16.5404 33.0458 17.2138 33.2372C17.9803 33.4535 18.7745 33.5559 19.5709 33.5413C20.367 33.5559 21.1609 33.4535 21.9272 33.2372C22.6004 33.0458 23.2983 32.9555 23.998 32.9694C24.6979 32.9556 25.396 33.0458 26.0694 33.2372C26.8361 33.4535 27.6303 33.556 28.4268 33.5413C29.2233 33.556 30.0175 33.4535 30.7842 33.2372C32.1422 32.8801 33.5695 32.8801 34.9276 33.2372C36.4732 33.6427 38.0973 33.6427 39.6429 33.2372C40.3165 33.0458 41.0147 32.9555 41.7148 32.9694C41.8665 32.9694 42.012 32.9091 42.1192 32.8019C42.2265 32.6946 42.2867 32.5492 42.2867 32.3975C42.2867 32.2458 42.2265 32.1004 42.1192 31.9931C42.012 31.8859 41.8665 31.8256 41.7148 31.8256C40.9183 31.8109 40.1239 31.9134 39.3572 32.1297C37.9989 32.4868 36.5715 32.4868 35.2132 32.1297C33.6678 31.7242 32.0439 31.7242 30.4985 32.1297C29.1404 32.4868 27.7132 32.4868 26.3551 32.1297C25.5885 31.9134 24.7944 31.811 23.998 31.8256C23.2018 31.8109 22.4078 31.9134 21.6415 32.1297C20.9683 32.3211 20.2705 32.4113 19.5709 32.3975C18.871 32.4113 18.1729 32.3211 17.4995 32.1297C16.7329 31.9134 15.9387 31.811 15.1424 31.8256C14.3461 31.8109 13.552 31.9134 12.7855 32.1297C12.1122 32.3211 11.4142 32.4113 10.7144 32.3975C10.0147 32.4113 9.31677 32.3211 8.64357 32.1297C7.87711 31.9134 7.08301 31.8109 6.28674 31.8256C6.13507 31.8256 5.9896 31.8859 5.88235 31.9931C5.7751 32.1004 5.71484 32.2458 5.71484 32.3975C5.71484 32.5492 5.7751 32.6946 5.88235 32.8019C5.9896 32.9091 6.13507 32.9694 6.28674 32.9694Z" fill="#E53935"/>
<path d="M6.28674 30.11C6.98657 30.0962 7.68457 30.1864 8.35786 30.3778C9.12423 30.5941 9.91823 30.6966 10.7144 30.6819C11.5107 30.6966 12.3048 30.5941 13.0712 30.3778C13.7445 30.1865 14.4425 30.0962 15.1424 30.11C15.8423 30.0962 16.5404 30.1864 17.2138 30.3778C17.9803 30.5941 18.7745 30.6966 19.5709 30.6819C20.367 30.6966 21.1609 30.5941 21.9272 30.3778C22.6004 30.1864 23.2983 30.0962 23.998 30.11C24.6979 30.0962 25.396 30.1864 26.0694 30.3778C26.8361 30.5941 27.6303 30.6966 28.4268 30.6819C29.2233 30.6966 30.0175 30.5941 30.7842 30.3778C32.1422 30.0208 33.5695 30.0208 34.9276 30.3778C36.4732 30.7833 38.0973 30.7833 39.6429 30.3778C40.3165 30.1864 41.0147 30.0962 41.7148 30.11C41.8665 30.11 42.012 30.0498 42.1192 29.9425C42.2265 29.8353 42.2867 29.6898 42.2867 29.5381C42.2867 29.3864 42.2265 29.241 42.1192 29.1337C42.012 29.0265 41.8665 28.9662 41.7148 28.9662C40.9183 28.9516 40.1239 29.054 39.3572 29.2703C37.9989 29.6274 36.5715 29.6274 35.2132 29.2703C33.6678 28.8649 32.0439 28.8649 30.4985 29.2703C29.1404 29.6274 27.7132 29.6274 26.3551 29.2703C25.5885 29.054 24.7944 28.9516 23.998 28.9662C23.2018 28.9516 22.4078 29.054 21.6415 29.2703C20.9683 29.4617 20.2705 29.552 19.5709 29.5381C18.871 29.552 18.1729 29.4617 17.4995 29.2703C16.7329 29.054 15.9387 28.9516 15.1424 28.9662C14.3461 28.9516 13.552 29.054 12.7855 29.2703C12.1122 29.4617 11.4142 29.5519 10.7144 29.5381C10.0147 29.5519 9.31677 29.4617 8.64357 29.2703C7.87711 29.054 7.08301 28.9516 6.28674 28.9662C6.13507 28.9662 5.9896 29.0265 5.88235 29.1337C5.7751 29.241 5.71484 29.3864 5.71484 29.5381C5.71484 29.6898 5.7751 29.8353 5.88235 29.9425C5.9896 30.0498 6.13507 30.11 6.28674 30.11Z" fill="#1A1917"/>
<path d="M6.28676 27.2506C6.98658 27.2368 7.68458 27.3271 8.35787 27.5184C9.12424 27.7347 9.91825 27.8372 10.7144 27.8225C11.5107 27.8372 12.3048 27.7347 13.0712 27.5184C13.7446 27.3271 14.4426 27.2368 15.1424 27.2506C15.8423 27.2368 16.5404 27.3271 17.2138 27.5184C17.9803 27.7347 18.7745 27.8372 19.5709 27.8225C20.367 27.8372 21.1609 27.7347 21.9272 27.5184C22.6004 27.3271 23.2983 27.2368 23.998 27.2506C24.6979 27.2368 25.396 27.3271 26.0694 27.5184C26.8361 27.7347 27.6304 27.8372 28.4268 27.8225C29.2233 27.8372 30.0175 27.7347 30.7842 27.5184C32.1422 27.1614 33.5695 27.1614 34.9276 27.5184C36.4732 27.9239 38.0973 27.9239 39.6429 27.5184C40.3165 27.3271 41.0147 27.2368 41.7148 27.2506C41.8665 27.2506 42.012 27.1904 42.1192 27.0831C42.2265 26.9759 42.2867 26.8304 42.2867 26.6787C42.2867 26.5271 42.2265 26.3816 42.1192 26.2744C42.012 26.1671 41.8665 26.1068 41.7148 26.1068C40.9183 26.0922 40.1239 26.1947 39.3572 26.4109C37.9989 26.768 36.5715 26.768 35.2132 26.4109C33.6678 26.0055 32.0439 26.0055 30.4985 26.4109C29.1404 26.768 27.7132 26.768 26.3551 26.4109C25.5885 26.1947 24.7944 26.0922 23.998 26.1068C23.2018 26.0922 22.4078 26.1947 21.6415 26.4109C20.9683 26.6023 20.2705 26.6926 19.5709 26.6787C18.871 26.6926 18.1729 26.6023 17.4995 26.4109C16.7329 26.1947 15.9387 26.0922 15.1424 26.1068C14.3461 26.0922 13.552 26.1947 12.7856 26.4109C12.1122 26.6023 11.4142 26.6926 10.7144 26.6787C10.0147 26.6926 9.31677 26.6023 8.64357 26.4109C7.87711 26.1946 7.08301 26.0922 6.28674 26.1068C6.13507 26.1068 5.9896 26.1671 5.88235 26.2744C5.7751 26.3816 5.71484 26.5271 5.71484 26.6787C5.71484 26.8304 5.7751 26.9759 5.88235 27.0831C5.9896 27.1904 6.13508 27.2506 6.28676 27.2506Z" fill="#E53935"/>
<path d="M6.28674 24.3913C6.98657 24.3774 7.68457 24.4677 8.35786 24.6591C9.12423 24.8754 9.91823 24.9778 10.7144 24.9632C11.5107 24.9778 12.3048 24.8754 13.0712 24.6591C13.7445 24.4677 14.4425 24.3775 15.1424 24.3913C15.8423 24.3774 16.5404 24.4677 17.2138 24.6591C17.9803 24.8754 18.7745 24.9778 19.5709 24.9632C20.367 24.9778 21.1609 24.8753 21.9272 24.6591C22.6004 24.4677 23.2983 24.3774 23.998 24.3913C24.6979 24.3774 25.396 24.4677 26.0694 24.6591C26.8361 24.8754 27.6303 24.9778 28.4268 24.9632C29.2232 24.9778 30.0175 24.8754 30.7842 24.6591C32.1422 24.302 33.5695 24.302 34.9275 24.6591C36.4732 25.0645 38.0972 25.0645 39.6429 24.6591C40.3164 24.4677 41.0147 24.3774 41.7148 24.3913C41.8665 24.3913 42.012 24.331 42.1192 24.2238C42.2265 24.1165 42.2867 23.971 42.2867 23.8194C42.2867 23.6677 42.2265 23.5222 42.1192 23.415C42.012 23.3077 41.8665 23.2475 41.7148 23.2475C40.9183 23.2328 40.1239 23.3353 39.3572 23.5516C37.9989 23.9086 36.5715 23.9086 35.2132 23.5516C33.6678 23.1461 32.0439 23.1461 30.4985 23.5516C29.1404 23.9086 27.7131 23.9086 26.3551 23.5516C25.5885 23.3353 24.7943 23.2328 23.998 23.2475C23.2018 23.2328 22.4078 23.3353 21.6414 23.5516C20.9683 23.743 20.2705 23.8332 19.5709 23.8194C18.871 23.8332 18.1729 23.743 17.4995 23.5516C16.7329 23.3353 15.9387 23.2328 15.1424 23.2475C14.3461 23.2328 13.552 23.3353 12.7855 23.5516C12.1122 23.7429 11.4142 23.8332 10.7144 23.8194C10.0147 23.8332 9.31676 23.7429 8.64356 23.5516C7.8771 23.3353 7.08301 23.2328 6.28674 23.2475C6.13507 23.2475 5.9896 23.3077 5.88235 23.415C5.7751 23.5222 5.71484 23.6677 5.71484 23.8194C5.71484 23.9711 5.7751 24.1165 5.88235 24.2238C5.9896 24.331 6.13507 24.3913 6.28674 24.3913Z" fill="#1A1917"/>
<path d="M5.94243 21.1296C6.00238 21.1748 6.07065 21.2077 6.14332 21.2264C6.216 21.2452 6.29166 21.2494 6.36597 21.2389C6.44029 21.2284 6.5118 21.2034 6.57643 21.1652C6.64106 21.127 6.69754 21.0765 6.74263 21.0165C6.91981 20.7817 11.1332 15.2981 16.4786 18.4881C19.716 20.4198 21.4735 19.3004 23.1738 18.218C24.8465 17.1528 26.5758 16.0515 30.179 17.0735C32.576 17.7535 34.194 18.3454 35.3756 18.7776C38.0706 19.7633 38.8839 20.0608 41.9154 18.9203C42.0571 18.8668 42.1718 18.7592 42.2342 18.6212C42.2967 18.4832 42.3018 18.326 42.2485 18.1842C42.1953 18.0424 42.0879 17.9276 41.95 17.8649C41.8121 17.8021 41.655 17.7967 41.5131 17.8497C38.8786 18.8409 38.3427 18.6453 35.7679 17.7034C34.5696 17.265 32.9287 16.6646 30.4904 15.973C26.3953 14.8112 24.2686 16.165 22.5602 17.253C20.8973 18.3117 19.6967 19.0769 17.0639 17.5057C10.8469 13.7954 5.87936 20.2631 5.82971 20.3287C5.7386 20.45 5.6993 20.6024 5.72043 20.7525C5.74157 20.9026 5.82141 21.0383 5.94243 21.1296Z" fill="#1A1917"/>
<path d="M19.4269 10.091C19.5785 10.091 19.7239 10.0307 19.831 9.92342C19.9382 9.81617 19.9984 9.67075 19.9983 9.51914V8.37534C19.9987 8.30004 19.9843 8.22539 19.9557 8.1557C19.9272 8.08601 19.8852 8.02265 19.8321 7.96926C19.779 7.91586 19.7158 7.87349 19.6463 7.84458C19.5768 7.81567 19.5022 7.80078 19.4269 7.80078C19.3516 7.80078 19.277 7.81567 19.2075 7.84458C19.138 7.87349 19.0748 7.91586 19.0217 7.96926C18.9686 8.02265 18.9266 8.08601 18.8981 8.1557C18.8695 8.22539 18.8551 8.30004 18.8555 8.37534V9.51914C18.8554 9.67075 18.9156 9.81618 19.0228 9.92343C19.1299 10.0307 19.2753 10.091 19.4269 10.091Z" fill="#1A1917"/>
<path d="M15.6194 11.3078C15.7323 11.4085 15.8806 11.4604 16.0317 11.452C16.1828 11.4435 16.3245 11.3755 16.4255 11.2629C16.5266 11.1502 16.5788 11.0021 16.5708 10.8509C16.5628 10.6998 16.4952 10.558 16.3828 10.4566L15.4807 9.6461C15.3679 9.54486 15.2194 9.49261 15.068 9.50084C14.9166 9.50907 14.7747 9.57711 14.6734 9.68998C14.5722 9.80285 14.52 9.95131 14.5282 10.1027C14.5364 10.2541 14.6044 10.396 14.7173 10.4973L15.6194 11.3078Z" fill="#1A1917"/>
<path d="M22.4939 11.2627C22.544 11.3186 22.6046 11.364 22.6723 11.3965C22.74 11.4289 22.8134 11.4477 22.8883 11.4517C22.9633 11.4558 23.0383 11.4451 23.109 11.4201C23.1798 11.3952 23.245 11.3565 23.3008 11.3064L24.2032 10.496C24.3154 10.3946 24.3829 10.2529 24.3908 10.1018C24.3988 9.95075 24.3465 9.8027 24.2456 9.69008C24.1446 9.57746 24.0031 9.50943 23.8521 9.50091C23.701 9.49238 23.5528 9.54405 23.4398 9.6446L22.5375 10.455C22.4246 10.5563 22.3566 10.6984 22.3485 10.8498C22.3403 11.0013 22.3926 11.1498 22.4939 11.2627Z" fill="#1A1917"/>
<path d="M17.072 10.1684C17.1035 10.2365 17.148 10.2978 17.2031 10.3488C17.2582 10.3997 17.3229 10.4393 17.3933 10.4653C17.4637 10.4912 17.5385 10.5031 17.6135 10.5001C17.6885 10.4972 17.7622 10.4795 17.8303 10.448C17.8985 10.4166 17.9598 10.3721 18.0107 10.317C18.0617 10.2618 18.1012 10.1972 18.1272 10.1268C18.1532 10.0564 18.165 9.98157 18.1621 9.90658C18.1591 9.83158 18.1414 9.75791 18.11 9.68976L17.6223 8.63029C17.591 8.56196 17.5465 8.50047 17.4914 8.44936C17.4363 8.39825 17.3716 8.3585 17.3011 8.33241C17.2306 8.30632 17.1557 8.29439 17.0806 8.2973C17.0055 8.30022 16.9317 8.31792 16.8634 8.3494C16.7952 8.38087 16.7338 8.42551 16.6828 8.48074C16.6318 8.53597 16.5922 8.60071 16.5663 8.67127C16.5404 8.74182 16.5286 8.81679 16.5317 8.89189C16.5348 8.96699 16.5527 9.04075 16.5843 9.10893L17.072 10.1684Z" fill="#E53935"/>
<path d="M21.1002 10.449C21.1682 10.4807 21.2419 10.4986 21.3169 10.5018C21.3919 10.505 21.4668 10.4934 21.5373 10.4676C21.6078 10.4418 21.6725 10.4023 21.7277 10.3515C21.7829 10.3006 21.8276 10.2394 21.8591 10.1713L22.3502 9.11322C22.3818 9.04517 22.3997 8.97156 22.4029 8.89659C22.4061 8.82162 22.3946 8.74675 22.3688 8.67626C22.3431 8.60577 22.3037 8.54103 22.253 8.48575C22.2022 8.43048 22.1411 8.38574 22.073 8.35409C22.005 8.32244 21.9314 8.3045 21.8564 8.3013C21.7814 8.2981 21.7066 8.3097 21.6361 8.33543C21.5656 8.36116 21.5009 8.40053 21.4456 8.45128C21.3903 8.50203 21.3456 8.56317 21.3139 8.63122L20.8228 9.6893C20.7589 9.82682 20.7522 9.98411 20.8042 10.1266C20.8562 10.269 20.9627 10.385 21.1002 10.449Z" fill="#E53935"/>
<path d="M23.4314 12.4844C23.4579 12.5547 23.4979 12.6191 23.5492 12.6739C23.6006 12.7287 23.6623 12.7728 23.7307 12.8037C23.7991 12.8346 23.873 12.8517 23.948 12.854C24.0231 12.8563 24.0979 12.8438 24.1681 12.8171L25.3441 12.3723C25.486 12.3187 25.6007 12.211 25.6632 12.0728C25.7256 11.9346 25.7306 11.7772 25.677 11.6354C25.6234 11.4935 25.5157 11.3788 25.3775 11.3163C25.2393 11.2539 25.0819 11.2489 24.9401 11.3025L23.764 11.7473C23.6222 11.801 23.5075 11.9088 23.4451 12.047C23.3828 12.1852 23.3779 12.3426 23.4314 12.4844Z" fill="#E53935"/>
<path d="M13.5239 12.5142L14.7128 12.9301C14.856 12.9801 15.0131 12.9711 15.1497 12.9052C15.2863 12.8393 15.3911 12.7219 15.4411 12.5787C15.4911 12.4356 15.4822 12.2784 15.4164 12.1418C15.3505 12.0052 15.2332 11.9004 15.09 11.8503L13.9012 11.4343C13.758 11.3843 13.6008 11.3932 13.4641 11.4591C13.3275 11.525 13.2226 11.6425 13.1726 11.7857C13.1226 11.9289 13.1315 12.0861 13.1974 12.2227C13.2633 12.3593 13.3807 12.4642 13.5239 12.5142Z" fill="#E53935"/>
<path d="M19.4257 10.6367C17.3602 10.6367 15.6797 12.2202 15.6797 14.1666C15.6797 14.3181 15.7399 14.4635 15.8471 14.5706C15.9542 14.6778 16.0996 14.738 16.2511 14.738C16.4027 14.738 16.548 14.6778 16.6552 14.5706C16.7623 14.4635 16.8225 14.3181 16.8225 14.1666C16.8225 12.8509 17.9902 11.7805 19.4257 11.7805C20.8613 11.7805 22.029 12.8509 22.029 14.1666C22.0285 14.2419 22.043 14.3165 22.0715 14.3862C22.1001 14.4559 22.1421 14.5193 22.1952 14.5727C22.2483 14.626 22.3114 14.6684 22.381 14.6973C22.4505 14.7262 22.5251 14.7411 22.6004 14.7411C22.6757 14.7411 22.7502 14.7262 22.8198 14.6973C22.8893 14.6684 22.9524 14.626 23.0055 14.5727C23.0586 14.5193 23.1007 14.4559 23.1292 14.3862C23.1577 14.3165 23.1722 14.2419 23.1718 14.1666C23.1718 12.2202 21.4913 10.6367 19.4257 10.6367Z" fill="#1A1917"/>
<path d="M18.141 35.1523H12.7125C12.5609 35.1523 12.4154 35.2126 12.3081 35.3199C12.2009 35.4271 12.1406 35.5726 12.1406 35.7243C12.1406 35.8759 12.2009 36.0214 12.3081 36.1287C12.4154 36.2359 12.5609 36.2962 12.7125 36.2962H18.141C18.2927 36.2962 18.4382 36.2359 18.5454 36.1287C18.6527 36.0214 18.7129 35.8759 18.7129 35.7243C18.7129 35.5726 18.6527 35.4271 18.5454 35.3199C18.4382 35.2126 18.2927 35.1523 18.141 35.1523Z" fill="#1A1917"/>
<path d="M26.7113 35.1523H21.2828C21.1312 35.1523 20.9857 35.2126 20.8784 35.3199C20.7712 35.4271 20.7109 35.5726 20.7109 35.7243C20.7109 35.8759 20.7712 36.0214 20.8784 36.1287C20.9857 36.2359 21.1312 36.2962 21.2828 36.2962H26.7113C26.863 36.2962 27.0085 36.2359 27.1157 36.1287C27.223 36.0214 27.2833 35.8759 27.2833 35.7243C27.2833 35.5726 27.223 35.4271 27.1157 35.3199C27.0085 35.2126 26.863 35.1523 26.7113 35.1523Z" fill="#1A1917"/>
<path d="M35.2856 36.2962C35.4372 36.2962 35.5827 36.2359 35.69 36.1287C35.7972 36.0214 35.8575 35.8759 35.8575 35.7243C35.8575 35.5726 35.7972 35.4271 35.69 35.3199C35.5827 35.2126 35.4372 35.1523 35.2856 35.1523H29.8571C29.7054 35.1523 29.5599 35.2126 29.4527 35.3199C29.3454 35.4271 29.2852 35.5726 29.2852 35.7243C29.2852 35.8759 29.3454 36.0214 29.4527 36.1287C29.5599 36.2359 29.7054 36.2962 29.8571 36.2962H35.2856Z" fill="#1A1917"/>
<path d="M16.7148 38.0133C16.7148 38.1649 16.775 38.3103 16.8821 38.4176C16.9893 38.5248 17.1346 38.5851 17.2863 38.5852H22.7148C22.8664 38.5852 23.0119 38.525 23.1192 38.4177C23.2264 38.3105 23.2867 38.165 23.2867 38.0133C23.2867 37.8616 23.2264 37.7162 23.1192 37.6089C23.0119 37.5017 22.8664 37.4414 22.7148 37.4414H17.2863C17.1346 37.4415 16.9893 37.5018 16.8821 37.609C16.775 37.7163 16.7148 37.8617 16.7148 38.0133Z" fill="#E53935"/>
<path d="M25.2852 38.0133C25.2851 38.1649 25.3453 38.3103 25.4524 38.4176C25.5596 38.5248 25.705 38.5851 25.8566 38.5852H31.2851C31.4367 38.5852 31.5822 38.525 31.6895 38.4177C31.7967 38.3105 31.857 38.165 31.857 38.0133C31.857 37.8616 31.7967 37.7162 31.6895 37.6089C31.5822 37.5017 31.4367 37.4414 31.2851 37.4414H25.8566C25.705 37.4415 25.5596 37.5018 25.4524 37.609C25.3453 37.7163 25.2851 37.8617 25.2852 38.0133Z" fill="#E53935"/>
<path d="M0.571429 43.5882C0.88702 43.5882 1.14286 43.3323 1.14286 43.0167C1.14286 42.7011 0.88702 42.4453 0.571429 42.4453C0.255837 42.4453 0 42.7011 0 43.0167C0 43.3323 0.255837 43.5882 0.571429 43.5882Z" fill="#1A1917"/>
<path d="M3.14342 42.4453H2.28627C2.13472 42.4453 1.98937 42.5055 1.88221 42.6127C1.77505 42.7198 1.71484 42.8652 1.71484 43.0167C1.71484 43.1683 1.77505 43.3136 1.88221 43.4208C1.98937 43.528 2.13472 43.5882 2.28627 43.5882H3.14342C3.29497 43.5882 3.44031 43.528 3.54748 43.4208C3.65464 43.3136 3.71484 43.1683 3.71484 43.0167C3.71484 42.8652 3.65464 42.7198 3.54748 42.6127C3.44031 42.5055 3.29497 42.4453 3.14342 42.4453Z" fill="#1A1917"/>
<path d="M45.7137 42.4453H44.8566C44.705 42.4453 44.5597 42.5055 44.4525 42.6127C44.3454 42.7198 44.2852 42.8652 44.2852 43.0167C44.2852 43.1683 44.3454 43.3136 44.4525 43.4208C44.5597 43.528 44.705 43.5882 44.8566 43.5882H45.7137C45.8653 43.5882 46.0106 43.528 46.1178 43.4208C46.225 43.3136 46.2852 43.1683 46.2852 43.0167C46.2852 42.8652 46.225 42.7198 46.1178 42.6127C46.0106 42.5055 45.8653 42.4453 45.7137 42.4453Z" fill="#1A1917"/>
<path d="M47.4269 43.5882C47.7425 43.5882 47.9983 43.3323 47.9983 43.0167C47.9983 42.7011 47.7425 42.4453 47.4269 42.4453C47.1113 42.4453 46.8555 42.7011 46.8555 43.0167C46.8555 43.3323 47.1113 43.5882 47.4269 43.5882Z" fill="#1A1917"/>
<path d="M33.7566 44.7305H31.3829C31.2393 44.742 31.1052 44.8072 31.0075 44.9131C30.9097 45.019 30.8555 45.1578 30.8555 45.3019C30.8555 45.446 30.9097 45.5848 31.0075 45.6907C31.1052 45.7966 31.2393 45.8618 31.3829 45.8733H33.7566C33.9002 45.8618 34.0343 45.7966 34.132 45.6907C34.2298 45.5848 34.2841 45.446 34.2841 45.3019C34.2841 45.1578 34.2298 45.019 34.132 44.9131C34.0343 44.8072 33.9002 44.742 33.7566 44.7305Z" fill="#E53935"/>
<path d="M16.616 44.7305H14.2423C14.0987 44.742 13.9646 44.8072 13.8669 44.9131C13.7691 45.019 13.7148 45.1578 13.7148 45.3019C13.7148 45.446 13.7691 45.5848 13.8669 45.6907C13.9646 45.7966 14.0987 45.8618 14.2423 45.8733H16.616C16.7596 45.8618 16.8937 45.7966 16.9914 45.6907C17.0892 45.5848 17.1434 45.446 17.1434 45.3019C17.1434 45.1578 17.0892 45.019 16.9914 44.9131C16.8937 44.8072 16.7596 44.742 16.616 44.7305Z" fill="#E53935"/>
<path d="M29.7148 44.7305H18.2863C18.1347 44.7305 17.9894 44.7907 17.8822 44.8978C17.775 45.005 17.7148 45.1503 17.7148 45.3019C17.7148 45.4534 17.775 45.5988 17.8822 45.706C17.9894 45.8131 18.1347 45.8733 18.2863 45.8733H22.8406V46.4448H20.572C20.4204 46.4448 20.2751 46.505 20.1679 46.6121C20.0608 46.7193 20.0006 46.8646 20.0006 47.0162C20.0006 47.1677 20.0608 47.3131 20.1679 47.4202C20.2751 47.5274 20.4204 47.5876 20.572 47.5876H27.7148C27.8664 47.5876 28.0117 47.5274 28.1189 47.4202C28.2261 47.3131 28.2863 47.1677 28.2863 47.0162C28.2863 46.8646 28.2261 46.7193 28.1189 46.6121C28.0117 46.505 27.8664 46.4448 27.7148 46.4448H25.1606V45.8733H29.7148C29.8664 45.8733 30.0117 45.8131 30.1189 45.706C30.2261 45.5988 30.2863 45.4534 30.2863 45.3019C30.2863 45.1503 30.2261 45.005 30.1189 44.8978C30.0117 44.7907 29.8664 44.7305 29.7148 44.7305Z" fill="#E53935"/>
<path d="M43.0626 42.445H34.8563V42.2492C34.8563 41.1626 35.1376 40.3908 35.6925 39.9549C36.1898 39.6105 36.792 39.4513 37.3945 39.5049C37.3082 39.8862 37.2655 40.2761 37.2673 40.6671C37.2669 40.7424 37.2814 40.8171 37.3099 40.8867C37.3384 40.9564 37.3805 41.0198 37.4336 41.0732C37.4867 41.1266 37.5498 41.169 37.6193 41.1979C37.6889 41.2268 37.7634 41.2417 37.8387 41.2417C37.914 41.2417 37.9886 41.2268 38.0581 41.1979C38.1277 41.169 38.1908 41.1266 38.2439 41.0732C38.297 41.0198 38.339 40.9564 38.3675 40.8867C38.3961 40.8171 38.4106 40.7424 38.4101 40.6671C38.4101 39.7076 38.6671 39.0175 39.1738 38.616C40.0842 37.895 41.5655 38.234 41.5789 38.2372C41.7262 38.2727 41.8816 38.2482 42.011 38.1692C42.1403 38.0902 42.2329 37.963 42.2686 37.8157C42.3042 37.6684 42.2799 37.513 42.2011 37.3836C42.1222 37.2542 41.9951 37.1613 41.8479 37.1255C41.7656 37.1054 39.822 36.6505 38.471 37.7141C38.2295 37.9065 38.0211 38.137 37.8538 38.3965C37.2101 38.3159 35.969 38.2888 34.9945 39.0491C34.1446 39.7124 33.7135 40.789 33.7135 42.2492V42.445H14.2852V42.2492C14.2852 40.789 13.8541 39.7124 13.0043 39.0491C12.0298 38.2889 10.7886 38.3159 10.1449 38.3965C9.9776 38.137 9.76916 37.9065 9.52774 37.7141C8.17703 36.6504 6.23288 37.1053 6.15084 37.1255C6.00357 37.1613 5.87654 37.2542 5.79765 37.3836C5.71877 37.513 5.69448 37.6684 5.73012 37.8157C5.76576 37.963 5.85842 38.0902 5.98774 38.1692C6.11706 38.2482 6.27246 38.2727 6.41981 38.2372C6.43432 38.2339 7.91671 37.9007 8.82101 38.6129C9.3302 39.0141 9.58857 39.7052 9.58857 40.6671C9.58815 40.7424 9.60263 40.8171 9.63116 40.8867C9.65969 40.9564 9.70172 41.0198 9.75482 41.0732C9.80792 41.1266 9.87105 41.169 9.94059 41.1979C10.0101 41.2268 10.0847 41.2417 10.16 41.2417C10.2353 41.2417 10.3099 41.2268 10.3794 41.1979C10.4489 41.169 10.512 41.1266 10.5652 41.0732C10.6183 41.0198 10.6603 40.9564 10.6888 40.8867C10.7173 40.8171 10.7318 40.7424 10.7314 40.6671C10.7332 40.2765 10.6906 39.887 10.6045 39.5061C11.2046 39.4532 11.8045 39.6106 12.3014 39.9512C12.8595 40.3866 13.1424 41.1597 13.1424 42.2492V42.4449H4.93611C4.85481 42.4343 4.77219 42.4412 4.69375 42.465C4.61532 42.4889 4.54287 42.5292 4.48126 42.5833C4.41965 42.6374 4.37028 42.704 4.33647 42.7787C4.30265 42.8534 4.28516 42.9344 4.28516 43.0164C4.28516 43.0984 4.30265 43.1794 4.33647 43.2541C4.37028 43.3288 4.41965 43.3954 4.48126 43.4495C4.54287 43.5036 4.61532 43.5439 4.69375 43.5677C4.77219 43.5916 4.85481 43.5984 4.93611 43.5878H43.0626C43.1439 43.5984 43.2265 43.5916 43.3049 43.5677C43.3834 43.5439 43.4558 43.5036 43.5174 43.4495C43.579 43.3954 43.6284 43.3288 43.6622 43.2541C43.696 43.1794 43.7135 43.0984 43.7135 43.0164C43.7135 42.9344 43.696 42.8534 43.6622 42.7787C43.6284 42.704 43.579 42.6374 43.5174 42.5833C43.4558 42.5292 43.3834 42.4889 43.3049 42.465C43.2265 42.4412 43.1439 42.4343 43.0626 42.445Z" fill="#1A1917"/>
</g>
<defs>
<clipPath id="clip0_1223_2093">
<rect width="48" height="48" fill="white"/>
</clipPath>
</defs>
</svg>
