<svg width="53" height="48" viewBox="0 0 53 48" fill="none" xmlns="http://www.w3.org/2000/svg">
<path d="M7.79508 24.9191C7.63791 24.9191 7.48717 24.9815 7.37604 25.0927C7.2649 25.2038 7.20246 25.3545 7.20246 25.5117C7.20246 25.6689 7.2649 25.8196 7.37604 25.9307C7.48717 26.0419 7.63791 26.1043 7.79508 26.1043H23.203C23.3602 26.1043 23.5109 26.0419 23.622 25.9307C23.7332 25.8196 23.7956 25.6689 23.7956 25.5117C23.7956 25.3545 23.7332 25.2038 23.622 25.0927C23.5109 24.9815 23.3602 24.9191 23.203 24.9191H21.4252V22.4427C22.1534 22.5859 22.9122 22.7191 23.7077 22.8384C23.863 22.8616 24.0213 22.8222 24.1476 22.7288C24.2739 22.6353 24.3579 22.4956 24.3813 22.3402C24.4046 22.1849 24.3653 22.0266 24.2719 21.9002C24.1786 21.7738 24.0389 21.6897 23.8836 21.6662C12.4502 19.9513 8.29177 15.4001 8.24011 15.3422C8.13644 15.2242 7.99013 15.1521 7.83334 15.1419C7.67656 15.1317 7.52213 15.1841 7.40401 15.2877C7.28588 15.3913 7.21374 15.5376 7.20343 15.6944C7.19312 15.8512 7.24549 16.0056 7.34902 16.1238C7.66948 16.4678 8.0168 16.7858 8.38769 17.0748V24.9191H7.79508ZM18.4621 21.7577C19.029 21.9095 19.6216 22.0546 20.2399 22.1929V24.9191H18.4621V21.7577ZM15.499 20.8382C16.0576 21.0376 16.6502 21.2317 17.2769 21.4204V24.9191H15.499V20.8382ZM12.536 19.6119C13.0794 19.8714 13.672 20.1305 14.3138 20.389V24.9191H12.536V19.6119ZM9.57291 17.9418C10.0711 18.2756 10.6617 18.6365 11.3508 19.0095V24.9191H9.57291V17.9418Z" fill="#1A1917"/>
<path d="M23.7958 37.6632H22.6609V29.0703H21.4757V37.6632H19.6979V29.0703H18.5126V37.6632H13.7717V29.0703H12.5865V37.6632H10.8087V29.0703H9.62346V37.6632H7.79525C7.63808 37.6632 7.48735 37.7256 7.37621 37.8368C7.26507 37.9479 7.20264 38.0986 7.20264 38.2558C7.20264 38.413 7.26507 38.5637 7.37621 38.6748C7.48735 38.786 7.63808 38.8484 7.79525 38.8484H23.7958C23.953 38.8484 24.1037 38.786 24.2148 38.6748C24.326 38.5637 24.3884 38.413 24.3884 38.2558C24.3884 38.0986 24.326 37.9479 24.2148 37.8368C24.1037 37.7256 23.953 37.6632 23.7958 37.6632Z" fill="#E53935"/>
<path d="M23.7958 28.4793C23.7953 28.6364 23.7327 28.7868 23.6217 28.8979C23.5107 29.0089 23.3602 29.0715 23.2032 29.0719H7.79525C7.63808 29.0719 7.48735 29.0095 7.37621 28.8984C7.26507 28.7872 7.20264 28.6365 7.20264 28.4793C7.20264 28.3222 7.26507 28.1714 7.37621 28.0603C7.48735 27.9492 7.63808 27.8867 7.79525 27.8867H23.2032C23.3602 27.8872 23.5107 27.9498 23.6217 28.0608C23.7327 28.1718 23.7953 28.3223 23.7958 28.4793Z" fill="#1A1917"/>
<path d="M44.5375 37.6632H42.7093V29.0703H41.524V37.6632H39.7462V29.0703H38.561V37.6632H33.8201V29.0703H32.6349V37.6632H30.857V29.0703H29.6718V37.6632H28.5369C28.3798 37.6632 28.229 37.7256 28.1179 37.8368C28.0068 37.9479 27.9443 38.0986 27.9443 38.2558C27.9443 38.413 28.0068 38.5637 28.1179 38.6748C28.229 38.786 28.3798 38.8484 28.5369 38.8484H44.5375C44.6947 38.8484 44.8454 38.786 44.9565 38.6748C45.0677 38.5637 45.1301 38.413 45.1301 38.2558C45.1301 38.0986 45.0677 37.9479 44.9565 37.8368C44.8454 37.7256 44.6947 37.6632 44.5375 37.6632Z" fill="#E53935"/>
<path d="M45.1266 28.4794C45.1261 28.6365 45.0636 28.787 44.9525 28.898C44.8415 29.0091 44.6911 29.0717 44.5341 29.0721H29.1286C28.9715 29.0721 28.8208 29.0097 28.7097 28.8985C28.5986 28.7874 28.5361 28.6366 28.5361 28.4794C28.5361 28.3222 28.5986 28.1715 28.7097 28.0603C28.8208 27.9492 28.9715 27.8867 29.1286 27.8867H44.5341C44.6911 27.8872 44.8415 27.9498 44.9526 28.0608C45.0636 28.1719 45.1261 28.3224 45.1266 28.4794Z" fill="#1A1917"/>
<path d="M44.5338 24.9276H43.9413V17.0821C44.3122 16.793 44.6594 16.475 44.9798 16.1309C45.083 16.0127 45.1351 15.8584 45.1247 15.7018C45.1143 15.5452 45.0422 15.3991 44.9243 15.2956C44.8064 15.1921 44.6522 15.1396 44.4957 15.1496C44.3391 15.1597 44.1929 15.2314 44.0892 15.349C44.0485 15.3949 39.8948 19.9567 28.4479 21.6742C28.3709 21.6857 28.297 21.7123 28.2302 21.7524C28.1635 21.7925 28.1053 21.8454 28.059 21.908C28.0127 21.9706 27.9792 22.0417 27.9604 22.1173C27.9416 22.1929 27.9379 22.2714 27.9494 22.3485C27.961 22.4255 27.9876 22.4995 28.0278 22.5662C28.0679 22.6329 28.1208 22.6911 28.1834 22.7373C28.2461 22.7836 28.3172 22.817 28.3928 22.8358C28.4683 22.8545 28.5469 22.8582 28.6238 22.8466C29.4192 22.7273 30.1778 22.5941 30.906 22.4508V24.9276H29.1284C28.9713 24.9276 28.8206 24.99 28.7094 25.1012C28.5983 25.2123 28.5359 25.3631 28.5359 25.5203C28.5359 25.6775 28.5983 25.8283 28.7094 25.9394C28.8206 26.0506 28.9713 26.113 29.1284 26.113H44.5338C44.691 26.113 44.8417 26.0506 44.9528 25.9394C45.0639 25.8283 45.1264 25.6775 45.1264 25.5203C45.1264 25.3631 45.0639 25.2123 44.9528 25.1012C44.8417 24.99 44.691 24.9276 44.5338 24.9276ZM33.8685 24.9276H32.091V22.201C32.7088 22.0628 33.3013 21.9177 33.8685 21.7657V24.9276ZM36.8311 24.9276H35.0536V21.4283C35.679 21.24 36.2716 21.0459 36.8311 20.846V24.9276ZM39.7937 24.9276H38.0162V20.3967C38.6582 20.1396 39.2507 19.8805 39.7937 19.6195V24.9276ZM42.7563 24.9276H40.9787V19.0171C41.6677 18.644 42.2582 18.283 42.7563 17.9492V24.9276Z" fill="#1A1917"/>
<path d="M1.86947 38.8493C2.19676 38.8493 2.46208 38.584 2.46208 38.2567C2.46208 37.9294 2.19676 37.6641 1.86947 37.6641C1.54218 37.6641 1.27686 37.9294 1.27686 38.2567C1.27686 38.584 1.54218 38.8493 1.86947 38.8493Z" fill="#1A1917"/>
<path d="M4.53524 37.6641H3.64632C3.48915 37.6641 3.33842 37.7265 3.22728 37.8376C3.11615 37.9488 3.05371 38.0995 3.05371 38.2567C3.05371 38.4138 3.11615 38.5646 3.22728 38.6757C3.33842 38.7869 3.48915 38.8493 3.64632 38.8493H4.53524C4.69241 38.8493 4.84315 38.7869 4.95428 38.6757C5.06542 38.5646 5.12785 38.4138 5.12785 38.2567C5.12785 38.0995 5.06542 37.9488 4.95428 37.8376C4.84315 37.7265 4.69241 37.6641 4.53524 37.6641Z" fill="#1A1917"/>
<path d="M48.6856 37.6641H47.7967C47.6395 37.6641 47.4888 37.7265 47.3777 37.8376C47.2665 37.9488 47.2041 38.0995 47.2041 38.2567C47.2041 38.4138 47.2665 38.5646 47.3777 38.6757C47.4888 38.7869 47.6395 38.8493 47.7967 38.8493H48.6856C48.8428 38.8493 48.9935 38.7869 49.1047 38.6757C49.2158 38.5646 49.2782 38.4138 49.2782 38.2567C49.2782 38.0995 49.2158 37.9488 49.1047 37.8376C48.9935 37.7265 48.8428 37.6641 48.6856 37.6641Z" fill="#1A1917"/>
<path d="M50.4632 38.8493C50.7905 38.8493 51.0558 38.584 51.0558 38.2567C51.0558 37.9294 50.7905 37.6641 50.4632 37.6641C50.1359 37.6641 49.8706 37.9294 49.8706 38.2567C49.8706 38.584 50.1359 38.8493 50.4632 38.8493Z" fill="#1A1917"/>
<path d="M36.286 40.0352H33.8244C33.6754 40.0471 33.5364 40.1147 33.435 40.2245C33.3336 40.3343 33.2773 40.4783 33.2773 40.6278C33.2773 40.7772 33.3336 40.9212 33.435 41.031C33.5364 41.1408 33.6754 41.2084 33.8244 41.2204H36.286C36.435 41.2084 36.574 41.1408 36.6754 41.031C36.7767 40.9212 36.833 40.7772 36.833 40.6278C36.833 40.4783 36.7767 40.3343 36.6754 40.2245C36.574 40.1147 36.435 40.0471 36.286 40.0352Z" fill="#E53935"/>
<path d="M18.5077 40.0352H16.0461C15.8971 40.0471 15.7581 40.1147 15.6567 40.2245C15.5553 40.3343 15.499 40.4783 15.499 40.6278C15.499 40.7772 15.5553 40.9212 15.6567 41.031C15.7581 41.1408 15.8971 41.2084 16.0461 41.2204H18.5077C18.6567 41.2084 18.7957 41.1408 18.8971 41.031C18.9984 40.9212 19.0547 40.7772 19.0547 40.6278C19.0547 40.4783 18.9984 40.3343 18.8971 40.2245C18.7957 40.1147 18.6567 40.0471 18.5077 40.0352Z" fill="#E53935"/>
<path d="M32.0923 40.0352H20.2401C20.0829 40.0352 19.9322 40.0976 19.821 40.2087C19.7099 40.3199 19.6475 40.4706 19.6475 40.6278C19.6475 40.7849 19.7099 40.9357 19.821 41.0468C19.9322 41.1579 20.0829 41.2204 20.2401 41.2204H24.9632V41.813H22.6105C22.4534 41.813 22.3026 41.8754 22.1915 41.9866C22.0803 42.0977 22.0179 42.2484 22.0179 42.4056C22.0179 42.5628 22.0803 42.7135 22.1915 42.8246C22.3026 42.9358 22.4534 42.9982 22.6105 42.9982H30.0182C30.1753 42.9982 30.3261 42.9358 30.4372 42.8246C30.5484 42.7135 30.6108 42.5628 30.6108 42.4056C30.6108 42.2484 30.5484 42.0977 30.4372 41.9866C30.3261 41.8754 30.1753 41.813 30.0182 41.813H27.3692V41.2204H32.0923C32.2495 41.2204 32.4002 41.1579 32.5114 41.0468C32.6225 40.9357 32.6849 40.7849 32.6849 40.6278C32.6849 40.4706 32.6225 40.3199 32.5114 40.2087C32.4002 40.0976 32.2495 40.0352 32.0923 40.0352Z" fill="#E53935"/>
<path d="M45.9357 37.6652H6.39578C6.31148 37.6542 6.22579 37.6613 6.14445 37.686C6.0631 37.7108 5.98797 37.7526 5.92408 37.8087C5.86018 37.8648 5.80899 37.9338 5.77392 38.0113C5.73884 38.0887 5.7207 38.1728 5.7207 38.2578C5.7207 38.3428 5.73884 38.4269 5.77392 38.5043C5.80899 38.5818 5.86018 38.6509 5.92408 38.7069C5.98797 38.763 6.0631 38.8049 6.14445 38.8296C6.22579 38.8543 6.31148 38.8614 6.39578 38.8504H45.9357C46.02 38.8614 46.1057 38.8543 46.187 38.8296C46.2683 38.8049 46.3435 38.763 46.4074 38.7069C46.4713 38.6509 46.5225 38.5818 46.5575 38.5043C46.5926 38.4269 46.6107 38.3428 46.6107 38.2578C46.6107 38.1728 46.5926 38.0887 46.5575 38.0113C46.5225 37.9338 46.4713 37.8648 46.4074 37.8087C46.3435 37.7526 46.2683 37.7108 46.187 37.686C46.1057 37.6613 46.02 37.6542 45.9357 37.6652Z" fill="#1A1917"/>
</svg>
