<svg width="48" height="48" viewBox="0 0 48 48" fill="none" xmlns="http://www.w3.org/2000/svg">
<g clip-path="url(#clip0_926_4948)">
<path d="M0.571429 43.3811C0.88702 43.3811 1.14286 43.1253 1.14286 42.8097C1.14286 42.4941 0.88702 42.2383 0.571429 42.2383C0.255837 42.2383 0 42.4941 0 42.8097C0 43.1253 0.255837 43.3811 0.571429 43.3811Z" fill="#1A1917"/>
<path d="M3.14293 42.2383H2.28578C2.13423 42.2383 1.98889 42.2985 1.88172 42.4056C1.77456 42.5128 1.71436 42.6582 1.71436 42.8097C1.71436 42.9613 1.77456 43.1066 1.88172 43.2138C1.98889 43.3209 2.13423 43.3811 2.28578 43.3811H3.14293C3.29448 43.3811 3.43982 43.3209 3.54699 43.2138C3.65415 43.1066 3.71436 42.9613 3.71436 42.8097C3.71436 42.6582 3.65415 42.5128 3.54699 42.4056C3.43982 42.2985 3.29448 42.2383 3.14293 42.2383Z" fill="#1A1917"/>
<path d="M45.7142 42.2383H44.8571C44.7055 42.2383 44.5602 42.2985 44.453 42.4056C44.3458 42.5128 44.2856 42.6582 44.2856 42.8097C44.2856 42.9613 44.3458 43.1066 44.453 43.2138C44.5602 43.3209 44.7055 43.3811 44.8571 43.3811H45.7142C45.8658 43.3811 46.0111 43.3209 46.1183 43.2138C46.2254 43.1066 46.2856 42.9613 46.2856 42.8097C46.2856 42.6582 46.2254 42.5128 46.1183 42.4056C46.0111 42.2985 45.8658 42.2383 45.7142 42.2383Z" fill="#1A1917"/>
<path d="M47.4284 43.3811C47.744 43.3811 47.9998 43.1253 47.9998 42.8097C47.9998 42.4941 47.744 42.2383 47.4284 42.2383C47.1128 42.2383 46.8569 42.4941 46.8569 42.8097C46.8569 43.1253 47.1128 43.3811 47.4284 43.3811Z" fill="#1A1917"/>
<path d="M33.758 44.5234H31.3844C31.2408 44.5349 31.1067 44.6001 31.009 44.706C30.9112 44.8119 30.8569 44.9508 30.8569 45.0949C30.8569 45.239 30.9112 45.3778 31.009 45.4837C31.1067 45.5896 31.2408 45.6548 31.3844 45.6663H33.758C33.9017 45.6548 34.0357 45.5896 34.1335 45.4837C34.2312 45.3778 34.2855 45.239 34.2855 45.0949C34.2855 44.9508 34.2312 44.8119 34.1335 44.706C34.0357 44.6001 33.9017 44.5349 33.758 44.5234Z" fill="#E53935"/>
<path d="M16.6155 44.5234H14.2418C14.0982 44.5349 13.9641 44.6001 13.8664 44.706C13.7686 44.8119 13.7144 44.9508 13.7144 45.0949C13.7144 45.239 13.7686 45.3778 13.8664 45.4837C13.9641 45.5896 14.0982 45.6548 14.2418 45.6663H16.6155C16.7591 45.6548 16.8932 45.5896 16.9909 45.4837C17.0887 45.3778 17.1429 45.239 17.1429 45.0949C17.1429 44.9508 17.0887 44.8119 16.9909 44.706C16.8932 44.6001 16.7591 44.5349 16.6155 44.5234Z" fill="#E53935"/>
<path d="M29.7144 44.5234H18.2858C18.1342 44.5234 17.9889 44.5836 17.8817 44.6908C17.7746 44.798 17.7144 44.9433 17.7144 45.0949C17.7144 45.2464 17.7746 45.3918 17.8817 45.4989C17.9889 45.6061 18.1342 45.6663 18.2858 45.6663H22.8401V46.2377H20.5715C20.4199 46.2377 20.2746 46.2979 20.1674 46.4051C20.0603 46.5123 20.0001 46.6576 20.0001 46.8092C20.0001 46.9607 20.0603 47.106 20.1674 47.2132C20.2746 47.3204 20.4199 47.3806 20.5715 47.3806H27.7144C27.8659 47.3806 28.0113 47.3204 28.1184 47.2132C28.2256 47.106 28.2858 46.9607 28.2858 46.8092C28.2858 46.6576 28.2256 46.5123 28.1184 46.4051C28.0113 46.2979 27.8659 46.2377 27.7144 46.2377H25.1601V45.6663H29.7144C29.8659 45.6663 30.0113 45.6061 30.1184 45.4989C30.2256 45.3918 30.2858 45.2464 30.2858 45.0949C30.2858 44.9433 30.2256 44.798 30.1184 44.6908C30.0113 44.5836 29.8659 44.5234 29.7144 44.5234Z" fill="#E53935"/>
<path d="M32.5881 22.5413L31.627 25.0938H32.8482L33.6542 22.9533L35.1991 23.5397L34.614 25.0938H35.8351L36.2787 23.9157C36.7377 24.0028 37.2127 23.9273 37.6219 23.702C38.0312 23.4767 38.3491 23.1158 38.521 22.6815L39.0323 21.3767C39.0874 21.2359 39.1141 21.0856 39.1108 20.9345C39.1074 20.7833 39.0742 20.6344 39.0128 20.4962C38.9515 20.358 38.8634 20.2333 38.7536 20.1294C38.6437 20.0256 38.5144 19.9445 38.373 19.8909C38.3631 19.8872 38.3509 19.8828 38.3384 19.8785C38.3268 19.8729 38.3176 19.8634 38.3121 19.8517C38.31 19.8476 38.3088 19.8431 38.3087 19.8384C38.3086 19.8338 38.3095 19.8292 38.3115 19.825C38.318 19.8129 38.3279 19.8029 38.3399 19.7961C38.3519 19.7892 38.3655 19.7859 38.3793 19.7864C38.386 19.7864 38.3926 19.7873 38.3991 19.7889C38.4108 19.7938 38.4226 19.7985 38.4345 19.803C38.7159 19.9101 39.0282 19.9018 39.3035 19.7797C39.5787 19.6577 39.7946 19.4319 39.9042 19.1515L42.09 13.5736C42.227 13.2269 42.2934 12.8564 42.2852 12.4838C42.277 12.1112 42.1945 11.744 42.0424 11.4037C41.8898 11.0581 41.6697 10.7464 41.395 10.487C41.1203 10.2276 40.7966 10.0258 40.4428 9.89325L38.8333 9.28236C38.5057 9.15761 38.1581 9.09372 37.8075 9.09382C37.2307 9.08991 36.6662 9.26114 36.1888 9.58488C35.7113 9.90862 35.3434 10.3696 35.1335 10.907L32.9477 16.4849C32.838 16.7651 32.8431 17.0772 32.962 17.3536C33.081 17.63 33.3041 17.8484 33.583 17.9613C33.6117 17.9729 33.6265 17.9965 33.6182 18.0175C33.6117 18.0294 33.6019 18.0392 33.5901 18.0459C33.5782 18.0526 33.5647 18.0558 33.5511 18.0552C33.5412 18.0552 33.5313 18.0534 33.522 18.05C33.2424 17.9505 32.9351 17.9638 32.6651 18.087C32.3952 18.2102 32.1838 18.4337 32.0758 18.7101L31.5645 20.0149C31.3798 20.487 31.383 21.012 31.5733 21.4819C31.7637 21.9517 32.1269 22.3309 32.5881 22.5413ZM32.6285 20.4318L33.1398 19.1271C33.2719 19.174 33.411 19.198 33.5511 19.1981C33.7946 19.1992 34.0327 19.1269 34.2344 18.9907C34.4362 18.8545 34.5923 18.6606 34.6823 18.4345C34.7955 18.1422 34.7886 17.8171 34.6629 17.53C34.5373 17.2429 34.3032 17.0171 34.0118 16.9019L36.1976 11.3239C36.3258 11.002 36.5479 10.7262 36.835 10.5322C37.1221 10.3383 37.461 10.2353 37.8074 10.2367C38.0194 10.2367 38.2296 10.2754 38.4278 10.3508L40.0372 10.9617C40.2473 11.0395 40.4398 11.1583 40.6036 11.3111C40.7673 11.464 40.899 11.6479 40.991 11.8522C41.083 12.0564 41.1335 12.2769 41.1395 12.5009C41.1455 12.7248 41.1069 12.9477 41.026 13.1566L38.8402 18.7345C38.8317 18.7313 38.8239 18.727 38.8155 18.7238C38.6762 18.6708 38.5284 18.6436 38.3794 18.6436C38.1357 18.6426 37.8975 18.715 37.6956 18.8514C37.4937 18.9877 37.3375 19.1817 37.2474 19.408C37.1905 19.5549 37.1633 19.7116 37.1676 19.8691C37.1718 20.0265 37.2073 20.1816 37.272 20.3252C37.3367 20.4688 37.4293 20.5981 37.5444 20.7056C37.6595 20.8131 37.7949 20.8966 37.9426 20.9513C37.9511 20.9545 37.9598 20.9565 37.9682 20.9597L37.4569 22.2645C37.3928 22.4254 37.2818 22.5634 37.1382 22.6603C36.9946 22.7573 36.8252 22.8088 36.652 22.8081C36.546 22.8081 36.4409 22.7887 36.3418 22.751L33.1229 21.5293C33.0179 21.4904 32.9216 21.431 32.8397 21.3545C32.7579 21.2781 32.692 21.1861 32.646 21.084C32.6 20.9819 32.5748 20.8716 32.5718 20.7597C32.5688 20.6477 32.5881 20.5363 32.6285 20.4318Z" fill="#1A1917"/>
<path d="M22.8387 25.0943L24.1049 14.9186L26.8311 15.3722C26.8621 15.3774 26.8935 15.38 26.9249 15.38C27.0498 15.38 27.1713 15.339 27.2707 15.2635L30.0356 13.162L30.2085 13.8506L29.653 14.3257C29.5721 14.3949 29.5122 14.4852 29.4799 14.5866C29.4476 14.688 29.4443 14.7963 29.4702 14.8995L29.6482 15.6066L29.0938 16.0799C29.0129 16.1491 28.9528 16.2395 28.9205 16.3409C28.8882 16.4424 28.8848 16.5509 28.9108 16.6541L29.0888 17.3606L28.5351 17.8327C28.454 17.9018 28.3939 17.9923 28.3615 18.0938C28.3291 18.1953 28.3257 18.3039 28.3518 18.4072L28.5299 19.1139L27.9755 19.5872C27.8945 19.6563 27.8345 19.7468 27.8021 19.8482C27.7698 19.9497 27.7664 20.0582 27.7925 20.1615L27.9706 20.8676L27.417 21.3399C27.3359 21.4091 27.2758 21.4995 27.2434 21.601C27.211 21.7025 27.2076 21.811 27.2336 21.9143L27.4116 22.6205L26.8581 23.0925C26.777 23.1616 26.7169 23.2521 26.6845 23.3536C26.6521 23.4552 26.6487 23.5637 26.6748 23.6671L26.8529 24.3729L26.2996 24.8444C26.2221 24.9111 26.164 24.9974 26.1313 25.0943H27.7682L27.8645 25.0122C27.9456 24.9431 28.0058 24.8526 28.0382 24.7511C28.0706 24.6495 28.074 24.541 28.0479 24.4376L27.8698 23.7318L28.4234 23.2599C28.5044 23.1907 28.5646 23.1003 28.5969 22.9988C28.6293 22.8972 28.6327 22.7887 28.6067 22.6854L28.4287 21.979L28.9824 21.5067C29.0635 21.4375 29.1236 21.3471 29.156 21.2456C29.1884 21.144 29.1918 21.0355 29.1657 20.9322L28.9875 20.226L29.5417 19.7528C29.6227 19.6836 29.6828 19.5932 29.7151 19.4918C29.7475 19.3903 29.7509 19.2818 29.7248 19.1785L29.5468 18.4721L30.1006 18C30.1816 17.9308 30.2418 17.8404 30.2742 17.7389C30.3065 17.6373 30.3099 17.5288 30.2839 17.4255L30.1057 16.7187L30.6601 16.2455C30.7411 16.1764 30.8011 16.086 30.8334 15.9846C30.8658 15.8831 30.8691 15.7747 30.8431 15.6714L30.665 14.964L31.2204 14.4891C31.3012 14.42 31.3611 14.3297 31.3934 14.2284C31.4257 14.127 31.4291 14.0187 31.4033 13.9156L31.1717 11.9188C31.1669 11.8433 31.1471 11.7695 31.1135 11.7017C31.0798 11.6339 31.0331 11.5735 30.9758 11.5241L31.4249 7.44249C31.4365 7.33732 31.4186 7.231 31.3733 7.13538C31.328 7.03976 31.2571 6.9586 31.1683 6.90093C31.0796 6.84326 30.9767 6.81135 30.8709 6.80876C30.7651 6.80618 30.6607 6.83301 30.5693 6.88627C30.1894 7.08938 29.7826 7.23761 29.3611 7.32655C28.8396 7.1489 28.287 7.08057 27.7379 7.12581C27.1888 7.17106 26.6549 7.32891 26.1694 7.58953C25.3834 7.90105 24.4233 7.31274 24.4154 7.30772C24.3333 7.25569 24.2393 7.22547 24.1422 7.21991C24.0452 7.21434 23.9483 7.23362 23.8608 7.27593C23.7733 7.31823 23.698 7.38216 23.6421 7.46167C23.5862 7.54117 23.5515 7.63363 23.5412 7.73029L22.8602 14.1667C22.8522 14.2433 22.86 14.3208 22.8829 14.3944C22.9058 14.4679 22.9435 14.536 22.9936 14.5946L21.687 25.0943H22.8387ZM30.0781 13.1298L30.0957 13.1164L30.0962 13.1252L30.0781 13.1298ZM24.5947 8.63501C25.2598 8.88474 25.9936 8.88112 26.6563 8.62482C26.686 8.6116 26.7147 8.59616 26.7421 8.57865C26.7816 8.55326 27.724 7.9669 29.1403 8.45672C29.2317 8.48814 29.3296 8.49606 29.4249 8.47974C29.6811 8.43135 29.934 8.3671 30.1823 8.28735L30.1069 8.97253L27.0343 10.4979L24.4478 10.0228L24.5947 8.63501ZM24.3272 11.1627L27.0149 11.6564C27.1363 11.6786 27.2616 11.661 27.3722 11.6061L29.9584 10.3222L29.7827 11.9186L26.7755 14.2044L24.0532 13.7515L24.3272 11.1627Z" fill="#1A1917"/>
<path d="M6.5155 20.6425C6.75207 20.7156 7.00616 20.7087 7.23844 20.6229C7.47071 20.5371 7.66824 20.3772 7.80046 20.1678C8.16114 19.6087 9.2841 18.2486 10.5381 17.9331L11.4839 19.0395C11.6356 19.218 11.8393 19.3447 12.0664 19.402C12.2936 19.4592 12.5329 19.4442 12.7511 19.359L12.8368 19.3255L14.96 25.0949H16.1685L13.4992 17.8412L12.342 18.2932L11.0011 16.7245C8.62283 16.7641 6.8474 19.5498 6.8474 19.5498C6.93754 15.6437 9.6312 14.801 9.6312 14.801L14.7507 12.8018L15.7729 13.9192L16.4853 13.6412L16.3526 12.1741L17.5545 11.7048C17.6191 11.6794 17.688 11.6663 17.7574 11.6663C17.8744 11.6672 17.9883 11.704 18.0837 11.7717C18.1791 11.8394 18.2513 11.9349 18.2907 12.045L19.4021 15.0651C19.4563 15.2098 19.4519 15.3699 19.3899 15.5114C19.3278 15.6529 19.213 15.7646 19.0699 15.8227L17.957 16.2572L17.0574 15.1964L16.2114 15.5265L16.2316 16.8264L15.4994 17.1982L18.4075 25.0949H19.6161L16.9086 17.7428C17.0935 17.6036 17.2318 17.4116 17.3051 17.1921C17.4572 17.3002 17.6338 17.3688 17.819 17.3917C18.0042 17.4146 18.1921 17.391 18.366 17.3231L19.4789 16.8885C19.8998 16.7192 20.2381 16.3924 20.4221 15.9777C20.606 15.563 20.6212 15.0929 20.4642 14.6672L19.3529 11.6473C19.2331 11.3198 19.0161 11.0366 18.731 10.8357C18.4459 10.6349 18.1062 10.5259 17.7574 10.5234C17.5478 10.5234 17.3401 10.5627 17.145 10.6392L15.9437 11.1083C15.7908 11.1682 15.6528 11.2604 15.5389 11.3787C15.4251 11.497 15.3382 11.6385 15.2842 11.7935C15.1407 11.7161 14.982 11.6709 14.8193 11.661C14.6565 11.6511 14.4935 11.6767 14.3416 11.736L9.24032 13.7281C8.77954 13.8924 5.81635 15.1194 5.71473 19.5232C5.70835 19.7714 5.78306 20.015 5.92756 20.217C6.07206 20.419 6.27847 20.5683 6.5155 20.6425Z" fill="#1A1917"/>
<path d="M14.8571 29.9531C14.1753 29.9539 13.5217 30.2251 13.0396 30.7071C12.5576 31.1892 12.2864 31.8428 12.2856 32.5246V37.096C12.2856 37.778 12.5566 38.432 13.0388 38.9143C13.521 39.3965 14.1751 39.6674 14.8571 39.6674C15.5391 39.6674 16.1931 39.3965 16.6753 38.9143C17.1576 38.432 17.4285 37.778 17.4285 37.096V32.5246C17.4277 31.8428 17.1566 31.1892 16.6745 30.7071C16.1924 30.2251 15.5388 29.9539 14.8571 29.9531ZM16.2856 37.096C16.2856 37.4749 16.1351 37.8382 15.8672 38.1061C15.5993 38.374 15.236 38.5246 14.8571 38.5246C14.4782 38.5246 14.1148 38.374 13.8469 38.1061C13.579 37.8382 13.4285 37.4749 13.4285 37.096V32.5246C13.4285 32.1457 13.579 31.7823 13.8469 31.5144C14.1148 31.2465 14.4782 31.096 14.8571 31.096C15.236 31.096 15.5993 31.2465 15.8672 31.5144C16.1351 31.7823 16.2856 32.1457 16.2856 32.5246V37.096Z" fill="#E53935"/>
<path d="M23.4284 29.9531C22.7466 29.9539 22.093 30.2251 21.6109 30.7071C21.1289 31.1892 20.8577 31.8428 20.8569 32.5246V37.096C20.8569 37.778 21.1279 38.432 21.6101 38.9143C22.0923 39.3965 22.7464 39.6674 23.4284 39.6674C24.1103 39.6674 24.7644 39.3965 25.2466 38.9143C25.7289 38.432 25.9998 37.778 25.9998 37.096V32.5246C25.999 31.8428 25.7279 31.1892 25.2458 30.7071C24.7637 30.2251 24.1101 29.9539 23.4284 29.9531ZM24.8569 37.096C24.8569 37.4749 24.7064 37.8382 24.4385 38.1061C24.1706 38.374 23.8072 38.5246 23.4284 38.5246C23.0495 38.5246 22.6861 38.374 22.4182 38.1061C22.1503 37.8382 21.9998 37.4749 21.9998 37.096V32.5246C21.9998 32.1457 22.1503 31.7823 22.4182 31.5144C22.6861 31.2465 23.0495 31.096 23.4284 31.096C23.8072 31.096 24.1706 31.2465 24.4385 31.5144C24.7064 31.7823 24.8569 32.1457 24.8569 32.5246V37.096Z" fill="#E53935"/>
<path d="M32.0001 29.9531C31.3184 29.9539 30.6648 30.2251 30.1827 30.7071C29.7006 31.1892 29.4295 31.8428 29.4287 32.5246V37.096C29.4287 37.778 29.6996 38.432 30.1819 38.9143C30.6641 39.3965 31.3182 39.6674 32.0001 39.6674C32.6821 39.6674 33.3362 39.3965 33.8184 38.9143C34.3007 38.432 34.5716 37.778 34.5716 37.096V32.5246C34.5708 31.8428 34.2996 31.1892 33.8176 30.7071C33.3355 30.2251 32.6819 29.9539 32.0001 29.9531ZM33.4287 37.096C33.4287 37.4749 33.2782 37.8382 33.0103 38.1061C32.7424 38.374 32.379 38.5246 32.0001 38.5246C31.6213 38.5246 31.2579 38.374 30.99 38.1061C30.7221 37.8382 30.5716 37.4749 30.5716 37.096V32.5246C30.5716 32.1457 30.7221 31.7823 30.99 31.5144C31.2579 31.2465 31.6213 31.096 32.0001 31.096C32.379 31.096 32.7424 31.2465 33.0103 31.5144C33.2782 31.7823 33.4287 32.1457 33.4287 32.5246V37.096Z" fill="#E53935"/>
<path d="M43.0635 42.2344H38.5482C38.7506 41.8875 38.8573 41.4931 38.8575 41.0915V28.5201C38.8568 27.9141 38.6157 27.3331 38.1872 26.9046C37.7587 26.4761 37.1777 26.2351 36.5717 26.2344H11.4289C10.8229 26.2351 10.2419 26.4761 9.81339 26.9046C9.38489 27.3331 9.14385 27.9141 9.14317 28.5201V41.0915C9.14329 41.4931 9.25002 41.8875 9.45244 42.2344H4.93708C4.85579 42.2238 4.77316 42.2306 4.69473 42.2545C4.61629 42.2783 4.54385 42.3186 4.48224 42.3727C4.42062 42.4268 4.37126 42.4934 4.33744 42.5681C4.30363 42.6428 4.28613 42.7238 4.28613 42.8058C4.28613 42.8878 4.30363 42.9688 4.33744 43.0435C4.37126 43.1182 4.42062 43.1848 4.48224 43.2389C4.54385 43.293 4.61629 43.3333 4.69473 43.3571C4.77316 43.381 4.85579 43.3879 4.93708 43.3772H43.0635C43.1448 43.3879 43.2275 43.381 43.3059 43.3571C43.3843 43.3333 43.4568 43.293 43.5184 43.2389C43.58 43.1848 43.6294 43.1182 43.6632 43.0435C43.697 42.9688 43.7145 42.8878 43.7145 42.8058C43.7145 42.7238 43.697 42.6428 43.6632 42.5681C43.6294 42.4934 43.58 42.4268 43.5184 42.3727C43.4568 42.3186 43.3843 42.2783 43.3059 42.2545C43.2275 42.2306 43.1448 42.2238 43.0635 42.2344ZM11.4289 42.2344C11.1258 42.2344 10.8351 42.114 10.6208 41.8996C10.4064 41.6853 10.286 41.3946 10.286 41.0915V28.5201C10.286 28.217 10.4064 27.9263 10.6208 27.712C10.8351 27.4976 11.1258 27.3772 11.4289 27.3772H36.5717C36.7218 27.3772 36.8704 27.4068 37.0091 27.4642C37.1478 27.5217 37.2737 27.6058 37.3799 27.712C37.486 27.8181 37.5702 27.9441 37.6276 28.0827C37.685 28.2214 37.7146 28.37 37.7146 28.5201V41.0915C37.7146 41.3946 37.5942 41.6853 37.3799 41.8996C37.1655 42.114 36.8748 42.2344 36.5717 42.2344H11.4289Z" fill="#1A1917"/>
</g>
<defs>
<clipPath id="clip0_926_4948">
<rect width="48" height="48" fill="white"/>
</clipPath>
</defs>
</svg>
