<svg width="48" height="48" viewBox="0 0 48 48" fill="none" xmlns="http://www.w3.org/2000/svg">
<g clip-path="url(#clip0_1223_754)">
<path d="M11.4289 17.51H12.0003C12.1518 17.51 12.2972 17.4498 12.4043 17.3427C12.5115 17.2355 12.5717 17.0902 12.5717 16.9386C12.5717 16.7871 12.5115 16.6417 12.4043 16.5346C12.2972 16.4274 12.1518 16.3672 12.0003 16.3672H11.4289C11.2773 16.3672 11.132 16.4274 11.0248 16.5346C10.9176 16.6417 10.8574 16.7871 10.8574 16.9386C10.8574 17.0902 10.9176 17.2355 11.0248 17.3427C11.132 17.4498 11.2773 17.51 11.4289 17.51Z" fill="#1A1917"/>
<path d="M8.57143 17.51H9.14286C9.29441 17.51 9.43975 17.4498 9.54692 17.3427C9.65408 17.2355 9.71429 17.0902 9.71429 16.9386C9.71429 16.7871 9.65408 16.6417 9.54692 16.5346C9.43975 16.4274 9.29441 16.3672 9.14286 16.3672H8.57143C8.41988 16.3672 8.27453 16.4274 8.16737 16.5346C8.0602 16.6417 8 16.7871 8 16.9386C8 17.0902 8.0602 17.2355 8.16737 17.3427C8.27453 17.4498 8.41988 17.51 8.57143 17.51Z" fill="#E53935"/>
<path d="M14.2853 17.51H14.8567C15.0083 17.51 15.1536 17.4498 15.2608 17.3427C15.3679 17.2355 15.4282 17.0902 15.4282 16.9386C15.4282 16.7871 15.3679 16.6417 15.2608 16.5346C15.1536 16.4274 15.0083 16.3672 14.8567 16.3672H14.2853C14.1337 16.3672 13.9884 16.4274 13.8812 16.5346C13.7741 16.6417 13.7139 16.7871 13.7139 16.9386C13.7139 17.0902 13.7741 17.2355 13.8812 17.3427C13.9884 17.4498 14.1337 17.51 14.2853 17.51Z" fill="#E53935"/>
<path d="M8.57143 20.3694H9.14286C9.29441 20.3694 9.43975 20.3092 9.54692 20.2021C9.65408 20.0949 9.71429 19.9495 9.71429 19.798C9.71429 19.6464 9.65408 19.5011 9.54692 19.3939C9.43975 19.2868 9.29441 19.2266 9.14286 19.2266H8.57143C8.41988 19.2266 8.27453 19.2868 8.16737 19.3939C8.0602 19.5011 8 19.6464 8 19.798C8 19.9495 8.0602 20.0949 8.16737 20.2021C8.27453 20.3092 8.41988 20.3694 8.57143 20.3694Z" fill="#1A1917"/>
<path d="M11.4289 20.3694H12.0003C12.1518 20.3694 12.2972 20.3092 12.4043 20.2021C12.5115 20.0949 12.5717 19.9495 12.5717 19.798C12.5717 19.6464 12.5115 19.5011 12.4043 19.3939C12.2972 19.2868 12.1518 19.2266 12.0003 19.2266H11.4289C11.2773 19.2266 11.132 19.2868 11.0248 19.3939C10.9176 19.5011 10.8574 19.6464 10.8574 19.798C10.8574 19.9495 10.9176 20.0949 11.0248 20.2021C11.132 20.3092 11.2773 20.3694 11.4289 20.3694Z" fill="#E53935"/>
<path d="M14.2853 20.3694H14.8567C15.0083 20.3694 15.1536 20.3092 15.2608 20.2021C15.3679 20.0949 15.4282 19.9495 15.4282 19.798C15.4282 19.6464 15.3679 19.5011 15.2608 19.3939C15.1536 19.2868 15.0083 19.2266 14.8567 19.2266H14.2853C14.1337 19.2266 13.9884 19.2868 13.8812 19.3939C13.7741 19.5011 13.7139 19.6464 13.7139 19.798C13.7139 19.9495 13.7741 20.0949 13.8812 20.2021C13.9884 20.3092 14.1337 20.3694 14.2853 20.3694Z" fill="#1A1917"/>
<path d="M11.4289 23.2249H12.0003C12.1518 23.2249 12.2972 23.1647 12.4043 23.0575C12.5115 22.9504 12.5717 22.805 12.5717 22.6535C12.5717 22.5019 12.5115 22.3566 12.4043 22.2494C12.2972 22.1422 12.1518 22.082 12.0003 22.082H11.4289C11.2773 22.082 11.132 22.1422 11.0248 22.2494C10.9176 22.3566 10.8574 22.5019 10.8574 22.6535C10.8574 22.805 10.9176 22.9504 11.0248 23.0575C11.132 23.1647 11.2773 23.2249 11.4289 23.2249Z" fill="#1A1917"/>
<path d="M8.57143 23.2249H9.14286C9.29441 23.2249 9.43975 23.1647 9.54692 23.0575C9.65408 22.9504 9.71429 22.805 9.71429 22.6535C9.71429 22.5019 9.65408 22.3566 9.54692 22.2494C9.43975 22.1422 9.29441 22.082 9.14286 22.082H8.57143C8.41988 22.082 8.27453 22.1422 8.16737 22.2494C8.0602 22.3566 8 22.5019 8 22.6535C8 22.805 8.0602 22.9504 8.16737 23.0575C8.27453 23.1647 8.41988 23.2249 8.57143 23.2249Z" fill="#E53935"/>
<path d="M14.2853 23.2249H14.8567C15.0083 23.2249 15.1536 23.1647 15.2608 23.0575C15.3679 22.9504 15.4282 22.805 15.4282 22.6535C15.4282 22.5019 15.3679 22.3566 15.2608 22.2494C15.1536 22.1422 15.0083 22.082 14.8567 22.082H14.2853C14.1337 22.082 13.9884 22.1422 13.8812 22.2494C13.7741 22.3566 13.7139 22.5019 13.7139 22.6535C13.7139 22.805 13.7741 22.9504 13.8812 23.0575C13.9884 23.1647 14.1337 23.2249 14.2853 23.2249Z" fill="#E53935"/>
<path d="M8.57143 26.0843H9.14286C9.29441 26.0843 9.43975 26.0241 9.54692 25.9169C9.65408 25.8097 9.71429 25.6644 9.71429 25.5128C9.71429 25.3613 9.65408 25.2159 9.54692 25.1088C9.43975 25.0016 9.29441 24.9414 9.14286 24.9414H8.57143C8.41988 24.9414 8.27453 25.0016 8.16737 25.1088C8.0602 25.2159 8 25.3613 8 25.5128C8 25.6644 8.0602 25.8097 8.16737 25.9169C8.27453 26.0241 8.41988 26.0843 8.57143 26.0843Z" fill="#1A1917"/>
<path d="M11.4289 26.0843H12.0003C12.1518 26.0843 12.2972 26.0241 12.4043 25.9169C12.5115 25.8097 12.5717 25.6644 12.5717 25.5128C12.5717 25.3613 12.5115 25.2159 12.4043 25.1088C12.2972 25.0016 12.1518 24.9414 12.0003 24.9414H11.4289C11.2773 24.9414 11.132 25.0016 11.0248 25.1088C10.9176 25.2159 10.8574 25.3613 10.8574 25.5128C10.8574 25.6644 10.9176 25.8097 11.0248 25.9169C11.132 26.0241 11.2773 26.0843 11.4289 26.0843Z" fill="#E53935"/>
<path d="M14.2853 26.0843H14.8567C15.0083 26.0843 15.1536 26.0241 15.2608 25.9169C15.3679 25.8097 15.4282 25.6644 15.4282 25.5128C15.4282 25.3613 15.3679 25.2159 15.2608 25.1088C15.1536 25.0016 15.0083 24.9414 14.8567 24.9414H14.2853C14.1337 24.9414 13.9884 25.0016 13.8812 25.1088C13.7741 25.2159 13.7139 25.3613 13.7139 25.5128C13.7139 25.6644 13.7741 25.8097 13.8812 25.9169C13.9884 26.0241 14.1337 26.0843 14.2853 26.0843Z" fill="#1A1917"/>
<path d="M11.4289 28.9397H12.0003C12.1518 28.9397 12.2972 28.8795 12.4043 28.7724C12.5115 28.6652 12.5717 28.5199 12.5717 28.3683C12.5717 28.2168 12.5115 28.0714 12.4043 27.9642C12.2972 27.8571 12.1518 27.7969 12.0003 27.7969H11.4289C11.2773 27.7969 11.132 27.8571 11.0248 27.9642C10.9176 28.0714 10.8574 28.2168 10.8574 28.3683C10.8574 28.5199 10.9176 28.6652 11.0248 28.7724C11.132 28.8795 11.2773 28.9397 11.4289 28.9397Z" fill="#1A1917"/>
<path d="M8.57143 28.9397H9.14286C9.29441 28.9397 9.43975 28.8795 9.54692 28.7724C9.65408 28.6652 9.71429 28.5199 9.71429 28.3683C9.71429 28.2168 9.65408 28.0714 9.54692 27.9642C9.43975 27.8571 9.29441 27.7969 9.14286 27.7969H8.57143C8.41988 27.7969 8.27453 27.8571 8.16737 27.9642C8.0602 28.0714 8 28.2168 8 28.3683C8 28.5199 8.0602 28.6652 8.16737 28.7724C8.27453 28.8795 8.41988 28.9397 8.57143 28.9397Z" fill="#E53935"/>
<path d="M14.2853 28.9397H14.8567C15.0083 28.9397 15.1536 28.8795 15.2608 28.7724C15.3679 28.6652 15.4282 28.5199 15.4282 28.3683C15.4282 28.2168 15.3679 28.0714 15.2608 27.9642C15.1536 27.8571 15.0083 27.7969 14.8567 27.7969H14.2853C14.1337 27.7969 13.9884 27.8571 13.8812 27.9642C13.7741 28.0714 13.7139 28.2168 13.7139 28.3683C13.7139 28.5199 13.7741 28.6652 13.8812 28.7724C13.9884 28.8795 14.1337 28.9397 14.2853 28.9397Z" fill="#E53935"/>
<path d="M8.57143 31.7952H9.14286C9.29441 31.7952 9.43975 31.735 9.54692 31.6278C9.65408 31.5207 9.71429 31.3753 9.71429 31.2238C9.71429 31.0722 9.65408 30.9269 9.54692 30.8197C9.43975 30.7125 9.29441 30.6523 9.14286 30.6523H8.57143C8.41988 30.6523 8.27453 30.7125 8.16737 30.8197C8.0602 30.9269 8 31.0722 8 31.2238C8 31.3753 8.0602 31.5207 8.16737 31.6278C8.27453 31.735 8.41988 31.7952 8.57143 31.7952Z" fill="#1A1917"/>
<path d="M11.4289 31.7952H12.0003C12.1518 31.7952 12.2972 31.735 12.4043 31.6278C12.5115 31.5207 12.5717 31.3753 12.5717 31.2238C12.5717 31.0722 12.5115 30.9269 12.4043 30.8197C12.2972 30.7125 12.1518 30.6523 12.0003 30.6523H11.4289C11.2773 30.6523 11.132 30.7125 11.0248 30.8197C10.9176 30.9269 10.8574 31.0722 10.8574 31.2238C10.8574 31.3753 10.9176 31.5207 11.0248 31.6278C11.132 31.735 11.2773 31.7952 11.4289 31.7952Z" fill="#E53935"/>
<path d="M14.2853 31.7952H14.8567C15.0083 31.7952 15.1536 31.735 15.2608 31.6278C15.3679 31.5207 15.4282 31.3753 15.4282 31.2238C15.4282 31.0722 15.3679 30.9269 15.2608 30.8197C15.1536 30.7125 15.0083 30.6523 14.8567 30.6523H14.2853C14.1337 30.6523 13.9884 30.7125 13.8812 30.8197C13.7741 30.9269 13.7139 31.0722 13.7139 31.2238C13.7139 31.3753 13.7741 31.5207 13.8812 31.6278C13.9884 31.735 14.1337 31.7952 14.2853 31.7952Z" fill="#1A1917"/>
<path d="M11.4289 34.6546H12.0003C12.1518 34.6546 12.2972 34.5944 12.4043 34.4872C12.5115 34.38 12.5717 34.2347 12.5717 34.0831C12.5717 33.9316 12.5115 33.7862 12.4043 33.6791C12.2972 33.5719 12.1518 33.5117 12.0003 33.5117H11.4289C11.2773 33.5117 11.132 33.5719 11.0248 33.6791C10.9176 33.7862 10.8574 33.9316 10.8574 34.0831C10.8574 34.2347 10.9176 34.38 11.0248 34.4872C11.132 34.5944 11.2773 34.6546 11.4289 34.6546Z" fill="#1A1917"/>
<path d="M8.57143 34.6546H9.14286C9.29441 34.6546 9.43975 34.5944 9.54692 34.4872C9.65408 34.38 9.71429 34.2347 9.71429 34.0831C9.71429 33.9316 9.65408 33.7862 9.54692 33.6791C9.43975 33.5719 9.29441 33.5117 9.14286 33.5117H8.57143C8.41988 33.5117 8.27453 33.5719 8.16737 33.6791C8.0602 33.7862 8 33.9316 8 34.0831C8 34.2347 8.0602 34.38 8.16737 34.4872C8.27453 34.5944 8.41988 34.6546 8.57143 34.6546Z" fill="#E53935"/>
<path d="M14.2853 34.6546H14.8567C15.0083 34.6546 15.1536 34.5944 15.2608 34.4872C15.3679 34.38 15.4282 34.2347 15.4282 34.0831C15.4282 33.9316 15.3679 33.7862 15.2608 33.6791C15.1536 33.5719 15.0083 33.5117 14.8567 33.5117H14.2853C14.1337 33.5117 13.9884 33.5719 13.8812 33.6791C13.7741 33.7862 13.7139 33.9316 13.7139 34.0831C13.7139 34.2347 13.7741 34.38 13.8812 34.4872C13.9884 34.5944 14.1337 34.6546 14.2853 34.6546Z" fill="#E53935"/>
<path d="M8.57143 37.51H9.14286C9.29441 37.51 9.43975 37.4498 9.54692 37.3427C9.65408 37.2355 9.71429 37.0902 9.71429 36.9386C9.71429 36.7871 9.65408 36.6417 9.54692 36.5346C9.43975 36.4274 9.29441 36.3672 9.14286 36.3672H8.57143C8.41988 36.3672 8.27453 36.4274 8.16737 36.5346C8.0602 36.6417 8 36.7871 8 36.9386C8 37.0902 8.0602 37.2355 8.16737 37.3427C8.27453 37.4498 8.41988 37.51 8.57143 37.51Z" fill="#1A1917"/>
<path d="M11.4289 37.51H12.0003C12.1518 37.51 12.2972 37.4498 12.4043 37.3427C12.5115 37.2355 12.5717 37.0902 12.5717 36.9386C12.5717 36.7871 12.5115 36.6417 12.4043 36.5346C12.2972 36.4274 12.1518 36.3672 12.0003 36.3672H11.4289C11.2773 36.3672 11.132 36.4274 11.0248 36.5346C10.9176 36.6417 10.8574 36.7871 10.8574 36.9386C10.8574 37.0902 10.9176 37.2355 11.0248 37.3427C11.132 37.4498 11.2773 37.51 11.4289 37.51Z" fill="#E53935"/>
<path d="M14.2853 37.51H14.8567C15.0083 37.51 15.1536 37.4498 15.2608 37.3427C15.3679 37.2355 15.4282 37.0902 15.4282 36.9386C15.4282 36.7871 15.3679 36.6417 15.2608 36.5346C15.1536 36.4274 15.0083 36.3672 14.8567 36.3672H14.2853C14.1337 36.3672 13.9884 36.4274 13.8812 36.5346C13.7741 36.6417 13.7139 36.7871 13.7139 36.9386C13.7139 37.0902 13.7741 37.2355 13.8812 37.3427C13.9884 37.4498 14.1337 37.51 14.2853 37.51Z" fill="#1A1917"/>
<path d="M26.714 39.51H32.714C32.8656 39.51 33.0109 39.4498 33.1181 39.3427C33.2252 39.2355 33.2854 39.0902 33.2854 38.9386C33.2854 38.7871 33.2252 38.6417 33.1181 38.5346C33.0109 38.4274 32.8656 38.3672 32.714 38.3672H26.714C26.5625 38.3672 26.4171 38.4274 26.3099 38.5346C26.2028 38.6417 26.1426 38.7871 26.1426 38.9386C26.1426 39.0902 26.2028 39.2355 26.3099 39.3427C26.4171 39.4498 26.5625 39.51 26.714 39.51Z" fill="#1A1917"/>
<path d="M26.714 36.6546H32.714C32.8656 36.6546 33.0109 36.5944 33.1181 36.4872C33.2252 36.38 33.2854 36.2347 33.2854 36.0831C33.2854 35.9316 33.2252 35.7862 33.1181 35.6791C33.0109 35.5719 32.8656 35.5117 32.714 35.5117H26.714C26.5625 35.5117 26.4171 35.5719 26.3099 35.6791C26.2028 35.7862 26.1426 35.9316 26.1426 36.0831C26.1426 36.2347 26.2028 36.38 26.3099 36.4872C26.4171 36.5944 26.5625 36.6546 26.714 36.6546Z" fill="#E53935"/>
<path d="M26.714 33.7952H32.714C32.8656 33.7952 33.0109 33.735 33.1181 33.6278C33.2252 33.5207 33.2854 33.3753 33.2854 33.2238C33.2854 33.0722 33.2252 32.9269 33.1181 32.8197C33.0109 32.7125 32.8656 32.6523 32.714 32.6523H26.714C26.5625 32.6523 26.4171 32.7125 26.3099 32.8197C26.2028 32.9269 26.1426 33.0722 26.1426 33.2238C26.1426 33.3753 26.2028 33.5207 26.3099 33.6278C26.4171 33.735 26.5625 33.7952 26.714 33.7952Z" fill="#1A1917"/>
<path d="M26.714 30.9397H32.714C32.8656 30.9397 33.0109 30.8795 33.1181 30.7724C33.2252 30.6652 33.2854 30.5199 33.2854 30.3683C33.2854 30.2168 33.2252 30.0714 33.1181 29.9642C33.0109 29.8571 32.8656 29.7969 32.714 29.7969H26.714C26.5625 29.7969 26.4171 29.8571 26.3099 29.9642C26.2028 30.0714 26.1426 30.2168 26.1426 30.3683C26.1426 30.5199 26.2028 30.6652 26.3099 30.7724C26.4171 30.8795 26.5625 30.9397 26.714 30.9397Z" fill="#E53935"/>
<path d="M26.714 28.0843H32.714C32.8656 28.0843 33.0109 28.0241 33.1181 27.9169C33.2252 27.8097 33.2854 27.6644 33.2854 27.5128C33.2854 27.3613 33.2252 27.2159 33.1181 27.1088C33.0109 27.0016 32.8656 26.9414 32.714 26.9414H26.714C26.5625 26.9414 26.4171 27.0016 26.3099 27.1088C26.2028 27.2159 26.1426 27.3613 26.1426 27.5128C26.1426 27.6644 26.2028 27.8097 26.3099 27.9169C26.4171 28.0241 26.5625 28.0843 26.714 28.0843Z" fill="#1A1917"/>
<path d="M26.714 25.2249H32.714C32.8656 25.2249 33.0109 25.1647 33.1181 25.0575C33.2252 24.9504 33.2854 24.805 33.2854 24.6535C33.2854 24.5019 33.2252 24.3566 33.1181 24.2494C33.0109 24.1422 32.8656 24.082 32.714 24.082H26.714C26.5625 24.082 26.4171 24.1422 26.3099 24.2494C26.2028 24.3566 26.1426 24.5019 26.1426 24.6535C26.1426 24.805 26.2028 24.9504 26.3099 25.0575C26.4171 25.1647 26.5625 25.2249 26.714 25.2249Z" fill="#E53935"/>
<path d="M26.714 22.3694H32.714C32.8656 22.3694 33.0109 22.3092 33.1181 22.2021C33.2252 22.0949 33.2854 21.9495 33.2854 21.798C33.2854 21.6464 33.2252 21.5011 33.1181 21.3939C33.0109 21.2868 32.8656 21.2266 32.714 21.2266H26.714C26.5625 21.2266 26.4171 21.2868 26.3099 21.3939C26.2028 21.5011 26.1426 21.6464 26.1426 21.798C26.1426 21.9495 26.2028 22.0949 26.3099 22.2021C26.4171 22.3092 26.5625 22.3694 26.714 22.3694Z" fill="#1A1917"/>
<path d="M26.714 19.51H32.714C32.8656 19.51 33.0109 19.4498 33.1181 19.3427C33.2252 19.2355 33.2854 19.0902 33.2854 18.9386C33.2854 18.7871 33.2252 18.6417 33.1181 18.5346C33.0109 18.4274 32.8656 18.3672 32.714 18.3672H26.714C26.5625 18.3672 26.4171 18.4274 26.3099 18.5346C26.2028 18.6417 26.1426 18.7871 26.1426 18.9386C26.1426 19.0902 26.2028 19.2355 26.3099 19.3427C26.4171 19.4498 26.5625 19.51 26.714 19.51Z" fill="#E53935"/>
<path d="M18.8574 22.9375H21.5717V24.0804H18.8574V22.9375Z" fill="#1A1917"/>
<path d="M18.8574 40.082H21.5717V41.2249H18.8574V40.082Z" fill="#1A1917"/>
<path d="M18.8574 17.2227H21.5717V18.3655H18.8574V17.2227Z" fill="#1A1917"/>
<path d="M18.8574 20.082H21.5717V21.2249H18.8574V20.082Z" fill="#1A1917"/>
<path d="M18.8574 14.3672H21.5717V15.51H18.8574V14.3672Z" fill="#1A1917"/>
<path d="M18.8574 25.7969H21.5717V26.9397H18.8574V25.7969Z" fill="#1A1917"/>
<path d="M18.8574 37.2227H21.5717V38.3655H18.8574V37.2227Z" fill="#1A1917"/>
<path d="M18.8574 34.3672H21.5717V35.51H18.8574V34.3672Z" fill="#1A1917"/>
<path d="M18.8574 28.6523H21.5717V29.7952H18.8574V28.6523Z" fill="#1A1917"/>
<path d="M18.8574 31.5117H21.5717V32.6546H18.8574V31.5117Z" fill="#1A1917"/>
<path d="M0.571429 43.2249C0.88702 43.2249 1.14286 42.9691 1.14286 42.6535C1.14286 42.3379 0.88702 42.082 0.571429 42.082C0.255837 42.082 0 42.3379 0 42.6535C0 42.9691 0.255837 43.2249 0.571429 43.2249Z" fill="#1A1917"/>
<path d="M3.14244 42.082H2.2853C2.13374 42.082 1.9884 42.1422 1.88123 42.2494C1.77407 42.3566 1.71387 42.5019 1.71387 42.6535C1.71387 42.805 1.77407 42.9504 1.88123 43.0575C1.9884 43.1647 2.13374 43.2249 2.2853 43.2249H3.14244C3.29399 43.2249 3.43934 43.1647 3.5465 43.0575C3.65366 42.9504 3.71387 42.805 3.71387 42.6535C3.71387 42.5019 3.65366 42.3566 3.5465 42.2494C3.43934 42.1422 3.29399 42.082 3.14244 42.082Z" fill="#1A1917"/>
<path d="M45.7147 42.082H44.8576C44.706 42.082 44.5607 42.1422 44.4535 42.2494C44.3463 42.3566 44.2861 42.5019 44.2861 42.6535C44.2861 42.805 44.3463 42.9504 44.4535 43.0575C44.5607 43.1647 44.706 43.2249 44.8576 43.2249H45.7147C45.8663 43.2249 46.0116 43.1647 46.1188 43.0575C46.2259 42.9504 46.2861 42.805 46.2861 42.6535C46.2861 42.5019 46.2259 42.3566 46.1188 42.2494C46.0116 42.1422 45.8663 42.082 45.7147 42.082Z" fill="#1A1917"/>
<path d="M47.4289 43.2249C47.7444 43.2249 48.0003 42.9691 48.0003 42.6535C48.0003 42.3379 47.7444 42.082 47.4289 42.082C47.1133 42.082 46.8574 42.3379 46.8574 42.6535C46.8574 42.9691 47.1133 43.2249 47.4289 43.2249Z" fill="#1A1917"/>
<path d="M33.7585 44.3672H31.3849C31.2412 44.3787 31.1072 44.4439 31.0094 44.5498C30.9117 44.6557 30.8574 44.7945 30.8574 44.9386C30.8574 45.0827 30.9117 45.2216 31.0094 45.3274C31.1072 45.4333 31.2412 45.4985 31.3849 45.51H33.7585C33.9022 45.4985 34.0362 45.4333 34.134 45.3274C34.2317 45.2216 34.286 45.0827 34.286 44.9386C34.286 44.7945 34.2317 44.6557 34.134 44.5498C34.0362 44.4439 33.9022 44.3787 33.7585 44.3672Z" fill="#E53935"/>
<path d="M16.615 44.3672H14.2413C14.0977 44.3787 13.9636 44.4439 13.8659 44.5498C13.7681 44.6557 13.7139 44.7945 13.7139 44.9386C13.7139 45.0827 13.7681 45.2216 13.8659 45.3274C13.9636 45.4333 14.0977 45.4985 14.2413 45.51H16.615C16.7586 45.4985 16.8927 45.4333 16.9904 45.3274C17.0882 45.2216 17.1425 45.0827 17.1425 44.9386C17.1425 44.7945 17.0882 44.6557 16.9904 44.5498C16.8927 44.4439 16.7586 44.3787 16.615 44.3672Z" fill="#E53935"/>
<path d="M29.7139 44.3672H18.2853C18.1337 44.3672 17.9884 44.4274 17.8812 44.5346C17.7741 44.6417 17.7139 44.7871 17.7139 44.9386C17.7139 45.0902 17.7741 45.2355 17.8812 45.3427C17.9884 45.4498 18.1337 45.51 18.2853 45.51H22.8396V46.0815H20.571C20.4195 46.0815 20.2741 46.1417 20.1669 46.2488C20.0598 46.356 19.9996 46.5013 19.9996 46.6529C19.9996 46.8045 20.0598 46.9498 20.1669 47.057C20.2741 47.1641 20.4195 47.2243 20.571 47.2243H27.7139C27.8654 47.2243 28.0108 47.1641 28.1179 47.057C28.2251 46.9498 28.2853 46.8045 28.2853 46.6529C28.2853 46.5013 28.2251 46.356 28.1179 46.2488C28.0108 46.1417 27.8654 46.0815 27.7139 46.0815H25.1596V45.51H29.7139C29.8654 45.51 30.0108 45.4498 30.1179 45.3427C30.2251 45.2355 30.2853 45.0902 30.2853 44.9386C30.2853 44.7871 30.2251 44.6417 30.1179 44.5346C30.0108 44.4274 29.8654 44.3672 29.7139 44.3672Z" fill="#E53935"/>
<path d="M43.0635 42.0832H42.286V10.0832C42.286 9.98801 42.2622 9.89431 42.2168 9.81064C42.1714 9.72697 42.1058 9.65597 42.0259 9.60411C41.9461 9.55224 41.8546 9.52114 41.7596 9.51365C41.6647 9.50615 41.5694 9.52249 41.4825 9.56118L33.9109 12.9294L35.3173 13.5545L41.1432 10.963V42.0832H36.5717V15.7975C36.5718 15.6878 36.5402 15.5804 36.4808 15.4881C36.4213 15.3959 36.3366 15.3227 36.2366 15.2774L23.6652 9.56313C23.5782 9.52353 23.4826 9.50641 23.3873 9.51333C23.2919 9.52026 23.1998 9.55101 23.1194 9.60277C23.039 9.65453 22.9729 9.72564 22.9272 9.80958C22.8814 9.89352 22.8574 9.98761 22.8575 10.0832V42.0832H17.7146V14.0832C17.7146 13.9852 17.6894 13.8889 17.6414 13.8034C17.5934 13.7179 17.5243 13.6462 17.4406 13.5952L10.8773 9.59522C10.7708 9.53035 10.6461 9.50205 10.5221 9.51464C10.3981 9.52724 10.2816 9.58003 10.1903 9.66497L5.89651 13.665C5.83913 13.7185 5.79336 13.7832 5.76207 13.8552C5.73077 13.9271 5.71461 14.0048 5.7146 14.0832V42.0832H4.93708C4.85579 42.0726 4.77316 42.0794 4.69473 42.1033C4.61629 42.1271 4.54385 42.1674 4.48224 42.2215C4.42062 42.2756 4.37126 42.3422 4.33744 42.4169C4.30363 42.4916 4.28613 42.5726 4.28613 42.6546C4.28613 42.7366 4.30363 42.8176 4.33744 42.8923C4.37126 42.967 4.42062 43.0336 4.48224 43.0877C4.54385 43.1418 4.61629 43.1821 4.69473 43.206C4.77316 43.2298 4.85579 43.2367 4.93708 43.226H43.0635C43.1448 43.2367 43.2275 43.2298 43.3059 43.206C43.3843 43.1821 43.4568 43.1418 43.5184 43.0877C43.58 43.0336 43.6294 42.967 43.6632 42.8923C43.697 42.8176 43.7145 42.7366 43.7145 42.6546C43.7145 42.5726 43.697 42.4916 43.6632 42.4169C43.6294 42.3422 43.58 42.2756 43.5184 42.2215C43.4568 42.1674 43.3843 42.1271 43.3059 42.1033C43.2275 42.0794 43.1448 42.0726 43.0635 42.0832ZM24.0003 10.9708L35.4289 16.1655V42.0832H24.0003V10.9708ZM10.6524 10.7967L16.0452 14.0832H7.12434L10.6524 10.7967ZM6.85746 15.2261H16.5717V38.6546H6.85746V15.2261ZM6.85746 39.7975H16.5717V42.0832H6.85746V39.7975Z" fill="#1A1917"/>
</g>
<defs>
<clipPath id="clip0_1223_754">
<rect width="48" height="48" fill="white"/>
</clipPath>
</defs>
</svg>
