<svg width="48" height="48" viewBox="0 0 48 48" fill="none" xmlns="http://www.w3.org/2000/svg">
<g clip-path="url(#clip0_1223_1889)">
<path d="M31.9825 24.7179C31.9516 24.5943 31.8802 24.4846 31.7798 24.4062C31.6793 24.3278 31.5555 24.2852 31.4281 24.2852H8.57123C8.48492 24.2868 8.40007 24.3076 8.32284 24.3462C8.24562 24.3848 8.17798 24.4401 8.12486 24.5081C8.07173 24.5762 8.03445 24.6552 8.01574 24.7395C7.99703 24.8238 7.99737 24.9111 8.01671 24.9953L10.8738 36.4239C10.9048 36.5476 10.9762 36.6573 11.0766 36.7357C11.177 36.8141 11.3008 36.8567 11.4282 36.8567H34.2848C34.3709 36.8545 34.4555 36.8333 34.5324 36.7945C34.6093 36.7558 34.6768 36.7005 34.7298 36.6326C34.7828 36.5647 34.8202 36.4859 34.8392 36.4019C34.8582 36.3179 34.8583 36.2307 34.8396 36.1466L31.9825 24.7179ZM31.6962 28.2852L32.1248 29.9995H30.4458L30.0172 28.2852H31.6962ZM30.982 25.428L31.4105 27.1423H29.7315L29.3029 25.428H30.982ZM29.2676 29.9995H27.5886L27.1601 28.2852H28.839L29.2676 29.9995ZM28.1248 25.428L28.5533 27.1423H26.8744L26.4458 25.428H28.1248ZM26.4105 29.9995H24.7315L24.3029 28.2852H25.9819L26.4105 29.9995ZM25.2676 25.428L25.6962 27.1423H24.0172L23.5887 25.428H25.2676ZM23.5533 29.9995H21.8744L21.4458 28.2852H23.1248L23.5533 29.9995ZM22.4105 25.428L22.839 27.1423H21.1601L20.7315 25.428H22.4105ZM20.6962 29.9995H19.0173L18.5887 28.2852H20.2677L20.6962 29.9995ZM19.5533 25.428L19.9819 27.1423H18.303L17.8744 25.428H19.5533ZM17.839 29.9995H16.1601L15.7316 28.2852H17.4106L17.839 29.9995ZM16.6962 25.428L17.1248 27.1423H15.4459L15.0173 25.428H16.6962ZM14.9819 29.9995H13.303L12.8745 28.2852H14.5534L14.9819 29.9995ZM13.839 25.428L14.2676 27.1423H12.5887L12.1602 25.428H13.839ZM9.30287 25.428H10.9819L11.4105 27.1423H9.73155L9.30287 25.428ZM10.0172 28.2852H11.6962L12.1248 29.9995H10.4458L10.0172 28.2852ZM11.16 32.8567L10.7314 31.1424H12.4105L12.8391 32.8567H11.16ZM11.8743 35.7138L11.4457 33.9995H13.1248L13.5533 35.7138H11.8743ZM13.5886 31.1424H15.2677L15.6963 32.8567H14.0173L13.5886 31.1424ZM14.7315 35.7138L14.3029 33.9995H15.9819L16.4105 35.7138H14.7315ZM16.4458 31.1424H18.1248L18.5533 32.8567H16.8744L16.4458 31.1424ZM17.5886 35.7138L17.1601 33.9995H18.8391L19.2676 35.7138H17.5886ZM19.3029 31.1424H20.9819L21.4105 32.8567H19.7315L19.3029 31.1424ZM20.4458 35.7138L20.0172 33.9995H21.6962L22.1248 35.7138H20.4458ZM22.1601 31.1424H23.8391L24.2677 32.8567H22.5887L22.1601 31.1424ZM23.3029 35.7138L22.8744 33.9995H24.5533L24.9819 35.7138H23.3029ZM25.0172 31.1424H26.6962L27.1248 32.8567H25.4458L25.0172 31.1424ZM26.1601 35.7138L25.7315 33.9995H27.4105L27.8391 35.7138H26.1601ZM27.8744 31.1424H29.5533L29.9819 32.8567H28.3029L27.8744 31.1424ZM29.0172 35.7138L28.5886 33.9995H30.2676L30.6962 35.7138H29.0172ZM30.7315 31.1424H32.4105L32.8391 32.8567H31.1601L30.7315 31.1424ZM31.8744 35.7138L31.4458 33.9995H33.1248L33.5534 35.7138H31.8744Z" fill="#E53935"/>
<path d="M12.8577 15.8697V23.1438H14.0005V16.187L18.9509 18.4674C19.2081 18.5859 19.5001 18.6047 19.7703 18.5201C20.0405 18.4356 20.2697 18.2538 20.4135 18.0099C20.5573 17.766 20.6055 17.4774 20.5487 17.2001C20.4919 16.9227 20.3341 16.6763 20.106 16.5086L15.5601 13.1664L15.9552 7.79894C15.9757 7.52003 15.8933 7.24327 15.7235 7.02106C15.5537 6.79886 15.3083 6.64663 15.0337 6.59321C14.7595 6.5429 14.4763 6.59333 14.2363 6.73522C13.9962 6.8771 13.8155 7.10089 13.7274 7.36541L12.0696 12.525L6.55016 14.0673C6.2842 14.1416 6.05415 14.3097 5.90253 14.5405C5.75091 14.7713 5.68798 15.0492 5.72537 15.3228C5.76277 15.5964 5.89795 15.8472 6.10594 16.0288C6.31393 16.2105 6.58065 16.3107 6.85679 16.3109C6.88506 16.3109 12.8577 15.8697 12.8577 15.8697ZM14.9196 14.3842C14.9883 14.3482 15.0531 14.3054 15.113 14.2563L19.429 17.4294L14.0412 14.9475L14.0378 14.9288L14.1269 14.7871C14.1375 14.782 14.9196 14.3842 14.9196 14.3842ZM14.8154 7.71501L14.3994 13.3666L13.6388 13.7554L13.0761 13.1285L14.8154 7.71501ZM12.0923 13.7053C12.1307 13.7709 12.7992 14.5278 12.8042 14.5331L12.8339 14.6966L12.8149 14.7269L6.8577 15.168L12.0923 13.7053Z" fill="#1A1917"/>
<path d="M41.8189 22.5084L37.2729 19.1662L37.6681 13.7988C37.6886 13.5198 37.6062 13.2431 37.4364 13.0209C37.2665 12.7987 37.0211 12.6464 36.7466 12.593C36.4724 12.543 36.1893 12.5936 35.9494 12.7354C35.7094 12.8772 35.5286 13.1009 35.4403 13.3652L33.7824 18.5249L28.263 20.0671C27.99 20.1434 27.7551 20.3184 27.6039 20.5582C27.4527 20.798 27.396 21.0855 27.4448 21.3647C27.5025 21.6396 27.6557 21.8852 27.8772 22.0578C28.0988 22.2304 28.3743 22.3189 28.655 22.3076L34.5705 21.8696V30.3612L35.7134 34.9327V22.1868L40.6638 24.4672C40.9216 24.5809 41.212 24.5972 41.481 24.5131C41.7499 24.429 41.9793 24.2501 42.1264 24.0097C42.2702 23.7659 42.3184 23.4773 42.2616 23.1999C42.2047 22.9225 42.047 22.6761 41.8189 22.5084ZM34.5278 20.7267L28.5706 21.1678L33.8051 19.7051C33.8436 19.7707 34.5121 20.5276 34.517 20.5329L34.5468 20.6964L34.5278 20.7267ZM35.3517 19.7552L34.789 19.1283L36.5283 13.7148L36.1123 19.3664L35.3517 19.7552ZM35.7541 20.9473L35.7507 20.9286L35.8398 20.7869C35.8504 20.7819 36.766 20.3042 36.8259 20.2561L41.1419 23.4292L35.7541 20.9473Z" fill="#1A1917"/>
<path d="M27.2844 9.15965C27.4297 9.20049 27.5852 9.18301 27.7178 9.11094C27.8504 9.03888 27.9497 8.9179 27.9944 8.77377L28.3695 7.50701C28.4125 7.36168 28.3959 7.20522 28.3236 7.07205C28.2512 6.93888 28.1289 6.83991 27.9836 6.79691C27.8382 6.75392 27.6818 6.77042 27.5486 6.84279C27.4154 6.91515 27.3165 7.03746 27.2735 7.18279L26.8985 8.44954C26.8555 8.59488 26.872 8.75134 26.9443 8.88451C27.0167 9.01769 27.139 9.11666 27.2844 9.15965Z" fill="#1A1917"/>
<path d="M29.7316 10.7557C29.8045 10.887 29.9247 10.9855 30.0678 11.0312C30.2108 11.0769 30.3659 11.0662 30.5014 11.0015L31.5421 10.4646C31.676 10.3947 31.7768 10.2746 31.8224 10.1306C31.8679 9.98658 31.8547 9.83038 31.7854 9.69614C31.7161 9.56191 31.5965 9.46055 31.4528 9.41424C31.309 9.36793 31.1527 9.38043 31.0181 9.449L29.9774 9.98584C29.9107 10.0202 29.8515 10.0674 29.803 10.1247C29.7546 10.1821 29.7179 10.2483 29.695 10.3198C29.6722 10.3913 29.6637 10.4666 29.67 10.5414C29.6762 10.6162 29.6972 10.689 29.7316 10.7557Z" fill="#1A1917"/>
<path d="M23.5001 9.05293C23.5798 9.18074 23.7059 9.27276 23.8519 9.30973C23.9979 9.34671 24.1526 9.32577 24.2835 9.25131C24.348 9.2129 24.4042 9.16218 24.4491 9.10203C24.4939 9.04188 24.5265 8.97349 24.5449 8.90076C24.5633 8.82803 24.5672 8.75239 24.5564 8.67815C24.5455 8.60392 24.5202 8.53254 24.4818 8.4681L23.8925 7.47897C23.8144 7.34981 23.6885 7.25679 23.542 7.22019C23.3956 7.18359 23.2407 7.20639 23.111 7.28362C22.9814 7.36084 22.8875 7.48622 22.85 7.63239C22.8125 7.77856 22.8343 7.93365 22.9106 8.0638C22.9106 8.0638 23.4989 9.05101 23.5001 9.05293Z" fill="#1A1917"/>
<path d="M29.0696 9.77166C29.153 9.77181 29.2354 9.75365 29.311 9.71845C29.3866 9.68326 29.4535 9.63189 29.5071 9.56798L30.2428 8.69297C30.2911 8.63555 30.3276 8.56919 30.3503 8.49766C30.3729 8.42613 30.3813 8.35085 30.3748 8.2761C30.3684 8.20135 30.3473 8.1286 30.3127 8.06202C30.2781 7.99543 30.2308 7.9363 30.1734 7.888C30.1159 7.83971 30.0496 7.8032 29.9781 7.78055C29.9065 7.75791 29.8312 7.74957 29.7565 7.75602C29.6817 7.76247 29.609 7.78358 29.5424 7.81815C29.4758 7.85271 29.4167 7.90005 29.3684 7.95747L28.6326 8.83249C28.5661 8.91677 28.5242 9.01788 28.5117 9.12454C28.4993 9.2312 28.5166 9.33924 28.5619 9.43661C28.6072 9.53398 28.6787 9.61686 28.7683 9.67602C28.8579 9.73517 28.9622 9.76829 29.0696 9.77166Z" fill="#E53935"/>
<path d="M25.1131 8.33688C25.1365 8.48549 25.2162 8.61939 25.3357 8.71082C25.4552 8.80224 25.6052 8.84419 25.7548 8.82796C25.905 8.80796 26.0411 8.72912 26.1332 8.60877C26.2253 8.48843 26.2658 8.33643 26.2459 8.18621L26.0969 7.06707C26.0871 6.99262 26.0627 6.92083 26.0251 6.85581C25.9875 6.79079 25.9375 6.73381 25.8779 6.68814C25.8183 6.64247 25.7503 6.60899 25.6777 6.58963C25.6051 6.57027 25.5295 6.5654 25.455 6.5753C25.3806 6.5852 25.3088 6.60968 25.2439 6.64733C25.1789 6.68499 25.122 6.73508 25.0764 6.79475C25.0308 6.85441 24.9974 6.92248 24.9781 6.99506C24.9588 7.06764 24.9541 7.14331 24.9641 7.21774L25.1131 8.33688Z" fill="#E53935"/>
<path d="M21.369 9.5581C21.369 9.5581 22.3063 10.271 22.3075 10.2718C22.4289 10.3614 22.5804 10.4001 22.7299 10.3798C22.8794 10.3595 23.015 10.2817 23.1081 10.163C23.1536 10.1033 23.1868 10.0352 23.2059 9.96262C23.225 9.89005 23.2297 9.81442 23.2195 9.74006C23.2094 9.66569 23.1847 9.59405 23.1469 9.52922C23.1091 9.46439 23.0589 9.40765 22.9992 9.36223L22.0607 8.6485C22.001 8.6029 21.9329 8.56953 21.8602 8.5503C21.7876 8.53106 21.7119 8.52634 21.6375 8.53639C21.563 8.54645 21.4913 8.57109 21.4263 8.60891C21.3614 8.64672 21.3046 8.69697 21.2591 8.75677C21.2137 8.81657 21.1804 8.88476 21.1613 8.95742C21.1422 9.03008 21.1377 9.10579 21.1479 9.18022C21.1581 9.25466 21.1829 9.32634 21.2208 9.39119C21.2588 9.45603 21.3091 9.51275 21.369 9.5581Z" fill="#E53935"/>
<path d="M23.1831 10.9363C23.1034 11.0652 23.0781 11.2205 23.1129 11.368C23.1477 11.5154 23.2396 11.6431 23.3685 11.7228C23.4973 11.8025 23.6526 11.8277 23.8001 11.7929C23.9476 11.7582 24.0752 11.6662 24.1549 11.5374C24.4389 11.0914 24.8592 10.7489 25.3534 10.5607C25.8475 10.3725 26.3891 10.3487 26.8979 10.4927C27.4108 10.625 27.863 10.9288 28.1793 11.3537C28.4957 11.7785 28.6572 12.2988 28.637 12.8281C28.6351 12.905 28.6484 12.9815 28.6761 13.0532C28.7038 13.125 28.7454 13.1905 28.7984 13.2462C28.8515 13.3018 28.9151 13.3465 28.9854 13.3775C29.0558 13.4086 29.1315 13.4254 29.2084 13.4272C29.3551 13.427 29.4961 13.3705 29.6023 13.2693C29.7084 13.168 29.7716 13.0299 29.7787 12.8834C29.8125 12.0948 29.5755 11.3185 29.1071 10.6833C28.6386 10.0482 27.967 9.59237 27.2037 9.39169C26.4565 9.1822 25.6617 9.21935 24.9374 9.49764C24.213 9.77592 23.5978 10.2805 23.1831 10.9363Z" fill="#1A1917"/>
<path d="M30.6724 11.7361C30.598 11.7461 30.5264 11.7708 30.4615 11.8085C30.3967 11.8463 30.3399 11.8965 30.2945 11.9562C30.249 12.0159 30.2158 12.084 30.1966 12.1565C30.1775 12.2291 30.1728 12.3047 30.1829 12.3791C30.2076 12.5272 30.2879 12.6603 30.4074 12.7513C30.5269 12.8423 30.6766 12.8842 30.8259 12.8686L31.9863 12.7114C32.1357 12.6901 32.2706 12.6106 32.3616 12.4902C32.4526 12.3699 32.4923 12.2184 32.472 12.0689C32.4518 11.9194 32.3732 11.7839 32.2534 11.6921C32.1337 11.6003 31.9825 11.5596 31.8328 11.5789L30.6724 11.7361Z" fill="#E53935"/>
<path d="M0.571429 43.428C0.88702 43.428 1.14286 43.1722 1.14286 42.8566C1.14286 42.541 0.88702 42.2852 0.571429 42.2852C0.255837 42.2852 0 42.541 0 42.8566C0 43.1722 0.255837 43.428 0.571429 43.428Z" fill="#1A1917"/>
<path d="M3.14342 42.2852H2.28627C2.13472 42.2852 1.98937 42.3454 1.88221 42.4525C1.77505 42.5597 1.71484 42.705 1.71484 42.8566C1.71484 43.0081 1.77505 43.1535 1.88221 43.2606C1.98937 43.3678 2.13472 43.428 2.28627 43.428H3.14342C3.29497 43.428 3.44031 43.3678 3.54748 43.2606C3.65464 43.1535 3.71484 43.0081 3.71484 42.8566C3.71484 42.705 3.65464 42.5597 3.54748 42.4525C3.44031 42.3454 3.29497 42.2852 3.14342 42.2852Z" fill="#1A1917"/>
<path d="M45.7137 42.2852H44.8566C44.705 42.2852 44.5597 42.3454 44.4525 42.4525C44.3454 42.5597 44.2852 42.705 44.2852 42.8566C44.2852 43.0081 44.3454 43.1535 44.4525 43.2606C44.5597 43.3678 44.705 43.428 44.8566 43.428H45.7137C45.8653 43.428 46.0106 43.3678 46.1178 43.2606C46.225 43.1535 46.2852 43.0081 46.2852 42.8566C46.2852 42.705 46.225 42.5597 46.1178 42.4525C46.0106 42.3454 45.8653 42.2852 45.7137 42.2852Z" fill="#1A1917"/>
<path d="M47.4289 43.428C47.7444 43.428 48.0003 43.1722 48.0003 42.8566C48.0003 42.541 47.7444 42.2852 47.4289 42.2852C47.1133 42.2852 46.8574 42.541 46.8574 42.8566C46.8574 43.1722 47.1133 43.428 47.4289 43.428Z" fill="#1A1917"/>
<path d="M33.7585 44.5703H31.3849C31.2412 44.5818 31.1072 44.647 31.0094 44.7529C30.9117 44.8588 30.8574 44.9976 30.8574 45.1417C30.8574 45.2859 30.9117 45.4247 31.0094 45.5306C31.1072 45.6365 31.2412 45.7017 31.3849 45.7132H33.7585C33.9022 45.7017 34.0362 45.6365 34.134 45.5306C34.2317 45.4247 34.286 45.2859 34.286 45.1417C34.286 44.9976 34.2317 44.8588 34.134 44.7529C34.0362 44.647 33.9022 44.5818 33.7585 44.5703Z" fill="#E53935"/>
<path d="M16.616 44.5703H14.2423C14.0987 44.5818 13.9646 44.647 13.8669 44.7529C13.7691 44.8588 13.7148 44.9976 13.7148 45.1417C13.7148 45.2859 13.7691 45.4247 13.8669 45.5306C13.9646 45.6365 14.0987 45.7017 14.2423 45.7132H16.616C16.7596 45.7017 16.8937 45.6365 16.9914 45.5306C17.0892 45.4247 17.1434 45.2859 17.1434 45.1417C17.1434 44.9976 17.0892 44.8588 16.9914 44.7529C16.8937 44.647 16.7596 44.5818 16.616 44.5703Z" fill="#E53935"/>
<path d="M29.7148 44.5703H18.2863C18.1347 44.5703 17.9894 44.6305 17.8822 44.7377C17.775 44.8448 17.7148 44.9902 17.7148 45.1417C17.7148 45.2933 17.775 45.4386 17.8822 45.5458C17.9894 45.653 18.1347 45.7132 18.2863 45.7132H22.8406V46.2846H20.572C20.4204 46.2846 20.2751 46.3448 20.1679 46.452C20.0608 46.5591 20.0006 46.7045 20.0006 46.856C20.0006 47.0076 20.0608 47.1529 20.1679 47.2601C20.2751 47.3673 20.4204 47.4275 20.572 47.4275H27.7148C27.8664 47.4275 28.0117 47.3673 28.1189 47.2601C28.2261 47.1529 28.2863 47.0076 28.2863 46.856C28.2863 46.7045 28.2261 46.5591 28.1189 46.452C28.0117 46.3448 27.8664 46.2846 27.7148 46.2846H25.1606V45.7132H29.7148C29.8664 45.7132 30.0117 45.653 30.1189 45.5458C30.2261 45.4386 30.2863 45.2933 30.2863 45.1417C30.2863 44.9902 30.2261 44.8448 30.1189 44.7377C30.0117 44.6305 29.8664 44.5703 29.7148 44.5703Z" fill="#E53935"/>
<path d="M43.0626 42.2841H26.2851V39.1412H32.5707C32.7223 39.1412 32.8676 39.081 32.9748 38.9738C33.082 38.8667 33.1422 38.7213 33.1422 38.5698C33.1422 38.4182 33.082 38.2729 32.9748 38.1657C32.8676 38.0586 32.7223 37.9984 32.5707 37.9984H10.1599L7.41103 27.0024C7.37409 26.8555 7.28037 26.7293 7.15045 26.6515C7.02053 26.5737 6.86504 26.5506 6.71813 26.5874C6.57122 26.6241 6.4449 26.7177 6.36691 26.8475C6.28893 26.9773 6.26566 27.1328 6.30221 27.2798L9.15934 38.7085C9.19029 38.8321 9.26165 38.9418 9.3621 39.0202C9.46255 39.0986 9.58632 39.1412 9.71375 39.1412H16.5708V42.2841H4.93611C4.85481 42.2735 4.77219 42.2803 4.69375 42.3042C4.61532 42.3281 4.54287 42.3684 4.48126 42.4225C4.41965 42.4765 4.37028 42.5432 4.33647 42.6178C4.30265 42.6925 4.28516 42.7736 4.28516 42.8555C4.28516 42.9375 4.30265 43.0186 4.33647 43.0933C4.37028 43.1679 4.41965 43.2346 4.48126 43.2886C4.54287 43.3427 4.61532 43.383 4.69375 43.4069C4.77219 43.4308 4.85481 43.4376 4.93611 43.427H43.0626C43.1439 43.4376 43.2265 43.4308 43.3049 43.4069C43.3834 43.383 43.4558 43.3427 43.5174 43.2886C43.579 43.2346 43.6284 43.1679 43.6622 43.0933C43.696 43.0186 43.7135 42.9375 43.7135 42.8555C43.7135 42.7736 43.696 42.6925 43.6622 42.6178C43.6284 42.5432 43.579 42.4765 43.5174 42.4225C43.4558 42.3684 43.3834 42.3281 43.3049 42.3042C43.2265 42.2803 43.1439 42.2735 43.0626 42.2841ZM17.7137 39.1412H25.1422V42.2841H17.7137V39.1412Z" fill="#1A1917"/>
</g>
<defs>
<clipPath id="clip0_1223_1889">
<rect width="48" height="48" fill="white"/>
</clipPath>
</defs>
</svg>
