<svg width="48" height="48" viewBox="0 0 48 48" fill="none" xmlns="http://www.w3.org/2000/svg">
<g clip-path="url(#clip0_1223_1374)">
<path d="M0.571429 41.3108C0.88702 41.3108 1.14286 41.055 1.14286 40.7394C1.14286 40.4238 0.88702 40.168 0.571429 40.168C0.255837 40.168 0 40.4238 0 40.7394C0 41.055 0.255837 41.3108 0.571429 41.3108Z" fill="#1A1917"/>
<path d="M3.14342 40.168H2.28627C2.13472 40.168 1.98937 40.2282 1.88221 40.3353C1.77505 40.4425 1.71484 40.5878 1.71484 40.7394C1.71484 40.8909 1.77505 41.0363 1.88221 41.1435C1.98937 41.2506 2.13472 41.3108 2.28627 41.3108H3.14342C3.29497 41.3108 3.44031 41.2506 3.54748 41.1435C3.65464 41.0363 3.71484 40.8909 3.71484 40.7394C3.71484 40.5878 3.65464 40.4425 3.54748 40.3353C3.44031 40.2282 3.29497 40.168 3.14342 40.168Z" fill="#1A1917"/>
<path d="M45.7137 40.168H44.8566C44.705 40.168 44.5597 40.2282 44.4525 40.3353C44.3454 40.4425 44.2852 40.5878 44.2852 40.7394C44.2852 40.8909 44.3454 41.0363 44.4525 41.1435C44.5597 41.2506 44.705 41.3108 44.8566 41.3108H45.7137C45.8653 41.3108 46.0106 41.2506 46.1178 41.1435C46.225 41.0363 46.2852 40.8909 46.2852 40.7394C46.2852 40.5878 46.225 40.4425 46.1178 40.3353C46.0106 40.2282 45.8653 40.168 45.7137 40.168Z" fill="#1A1917"/>
<path d="M47.4289 41.3108C47.7444 41.3108 48.0003 41.055 48.0003 40.7394C48.0003 40.4238 47.7444 40.168 47.4289 40.168C47.1133 40.168 46.8574 40.4238 46.8574 40.7394C46.8574 41.055 47.1133 41.3108 47.4289 41.3108Z" fill="#1A1917"/>
<path d="M33.7585 42.4531H31.3849C31.2412 42.4646 31.1072 42.5298 31.0094 42.6357C30.9117 42.7416 30.8574 42.8804 30.8574 43.0246C30.8574 43.1687 30.9117 43.3075 31.0094 43.4134C31.1072 43.5193 31.2412 43.5845 31.3849 43.596H33.7585C33.9022 43.5845 34.0362 43.5193 34.134 43.4134C34.2317 43.3075 34.286 43.1687 34.286 43.0246C34.286 42.8804 34.2317 42.7416 34.134 42.6357C34.0362 42.5298 33.9022 42.4646 33.7585 42.4531Z" fill="#E53935"/>
<path d="M16.616 42.4531H14.2423C14.0987 42.4646 13.9646 42.5298 13.8669 42.6357C13.7691 42.7416 13.7148 42.8804 13.7148 43.0246C13.7148 43.1687 13.7691 43.3075 13.8669 43.4134C13.9646 43.5193 14.0987 43.5845 14.2423 43.596H16.616C16.7596 43.5845 16.8937 43.5193 16.9914 43.4134C17.0892 43.3075 17.1434 43.1687 17.1434 43.0246C17.1434 42.8804 17.0892 42.7416 16.9914 42.6357C16.8937 42.5298 16.7596 42.4646 16.616 42.4531Z" fill="#E53935"/>
<path d="M29.7148 42.4531H18.2863C18.1347 42.4531 17.9894 42.5133 17.8822 42.6205C17.775 42.7277 17.7148 42.873 17.7148 43.0246C17.7148 43.1761 17.775 43.3215 17.8822 43.4286C17.9894 43.5358 18.1347 43.596 18.2863 43.596H22.8406V44.1674H20.572C20.4204 44.1674 20.2751 44.2276 20.1679 44.3348C20.0608 44.4419 20.0006 44.5873 20.0006 44.7388C20.0006 44.8904 20.0608 45.0357 20.1679 45.1429C20.2751 45.2501 20.4204 45.3103 20.572 45.3103H27.7148C27.8664 45.3103 28.0117 45.2501 28.1189 45.1429C28.2261 45.0357 28.2863 44.8904 28.2863 44.7388C28.2863 44.5873 28.2261 44.4419 28.1189 44.3348C28.0117 44.2276 27.8664 44.1674 27.7148 44.1674H25.1606V43.596H29.7148C29.8664 43.596 30.0117 43.5358 30.1189 43.4286C30.2261 43.3215 30.2863 43.1761 30.2863 43.0246C30.2863 42.873 30.2261 42.7277 30.1189 42.6205C30.0117 42.5133 29.8664 42.4531 29.7148 42.4531Z" fill="#E53935"/>
<path d="M25.682 24.4631C25.7548 24.4814 25.8305 24.4852 25.9047 24.4743C25.979 24.4633 26.0504 24.4379 26.1148 24.3993C26.1792 24.3608 26.2354 24.31 26.2801 24.2497C26.3248 24.1894 26.3573 24.121 26.3755 24.0482L27.0703 21.2856C27.0887 21.2128 27.0926 21.1371 27.0817 21.0628C27.0708 20.9884 27.0454 20.917 27.0068 20.8525C26.9683 20.7881 26.9175 20.7318 26.8572 20.687C26.7969 20.6422 26.7284 20.6097 26.6556 20.5914C26.5827 20.5731 26.507 20.5694 26.4327 20.5804C26.3584 20.5914 26.287 20.6169 26.2226 20.6555C26.1582 20.6941 26.102 20.745 26.0573 20.8054C26.0126 20.8657 25.9802 20.9343 25.962 21.0071L25.2673 23.7694C25.249 23.8422 25.2452 23.9179 25.2561 23.9921C25.267 24.0664 25.2925 24.1377 25.331 24.2021C25.3695 24.2665 25.4203 24.3227 25.4806 24.3675C25.5408 24.4123 25.6093 24.4447 25.682 24.4631Z" fill="#E53935"/>
<path d="M19.7821 24.2592C19.6353 24.2225 19.4798 24.2456 19.35 24.3234C19.2201 24.4012 19.1264 24.5274 19.0895 24.6742C19.0526 24.821 19.0754 24.9765 19.153 25.1065C19.2306 25.2364 19.3566 25.3303 19.5034 25.3675L22.2658 26.062C22.4127 26.0986 22.5681 26.0756 22.698 25.9977C22.8278 25.9199 22.9215 25.7938 22.9584 25.647C22.9953 25.5002 22.9725 25.3447 22.8949 25.2147C22.8173 25.0847 22.6913 24.9909 22.5446 24.9537L19.7821 24.2592Z" fill="#E53935"/>
<path d="M6.36732 32.3983L7.354 33.1862C7.65341 33.4428 8.03422 33.5849 8.4286 33.5871C8.69744 33.5866 8.96188 33.5188 9.19782 33.3899C9.43375 33.261 9.63367 33.0751 9.77936 32.8492L18.7076 20.1087C18.8067 20.1411 18.9102 20.1578 19.0145 20.1582C19.0304 20.1582 19.0462 20.1556 19.0622 20.1549C20.2157 21.3113 21.2599 22.5717 22.1817 23.9201C22.329 24.1489 22.5532 24.3176 22.8138 24.3959C23.0745 24.4742 23.3545 24.4569 23.6035 24.3471C23.8526 24.2373 24.0543 24.0423 24.1723 23.7971C24.2903 23.5518 24.317 23.2725 24.2475 23.0094C23.7414 20.9657 22.762 19.0696 21.3882 17.474C21.4435 17.2842 21.44 17.0821 21.3781 16.8944C21.3161 16.7066 21.1988 16.5421 21.0414 16.4224L18.7331 14.6496C18.6282 14.5692 18.5083 14.5105 18.3804 14.477C18.2526 14.4434 18.1194 14.4357 17.9885 14.4542C17.8595 14.4727 17.7355 14.5167 17.6238 14.5837C15.6394 13.6004 13.4633 13.0651 11.2493 13.0156C11.1548 13.0156 11.1047 13.0175 11.1047 13.0175C10.8241 13.0274 10.5569 13.1402 10.3542 13.3344C10.1514 13.5287 10.0272 13.7907 10.0053 14.0707C9.9834 14.3506 10.0653 14.6288 10.2354 14.8523C10.4054 15.0757 10.6518 15.2287 10.9275 15.2821C12.645 15.6473 14.2722 16.3524 15.7131 17.3559C15.7052 17.5652 15.7649 17.7715 15.8835 17.9442L6.08085 29.9221C6.0632 29.9437 6.04635 29.9658 6.03031 29.9887C5.78306 30.3525 5.67652 30.7939 5.73051 31.2305C5.78451 31.6671 5.99537 32.0691 6.32382 32.3618C6.338 32.3743 6.3525 32.3865 6.36732 32.3983ZM23.1425 23.3014C22.2146 21.9355 21.164 20.6571 20.0039 19.482L20.7344 18.4772C21.8807 19.8895 22.7028 21.5363 23.1425 23.3014ZM18.1639 15.6535L20.224 17.2358L18.9783 18.9492L16.9183 17.3675L18.1639 15.6535ZM11.1425 14.1597C11.1425 14.1597 11.1795 14.1585 11.2493 14.1585C13.1966 14.1995 15.1132 14.6515 16.8737 15.4849L16.2486 16.3449C14.7069 15.2877 12.9717 14.5451 11.1425 14.1597ZM6.96529 30.6459L16.7555 18.6832L17.7668 19.4598L8.83062 32.2116C8.78943 32.2818 8.73074 32.3402 8.66029 32.3809C8.58983 32.4217 8.51001 32.4435 8.42862 32.4442C8.30053 32.4421 8.1777 32.3929 8.08349 32.3061L7.08042 31.5052C6.96167 31.3994 6.88477 31.2546 6.86365 31.0969C6.84252 30.9393 6.87858 30.7793 6.96529 30.6459Z" fill="#1A1917"/>
<path d="M43.0626 40.168H42.2841V32.3495L39.2484 27.5658L31.897 28.8665L30.1311 31.7745L27.2334 24.7305L23.2058 26.472L20.9728 30.9571L18.5422 28.8665L15.9984 32.0784V40.168H4.93611C4.85481 40.1574 4.77219 40.1642 4.69375 40.1881C4.61532 40.2119 4.54287 40.2522 4.48126 40.3063C4.41965 40.3604 4.37028 40.427 4.33647 40.5017C4.30265 40.5764 4.28516 40.6574 4.28516 40.7394C4.28516 40.8214 4.30265 40.9024 4.33647 40.9771C4.37028 41.0518 4.41965 41.1184 4.48126 41.1725C4.54287 41.2266 4.61532 41.2669 4.69375 41.2908C4.77219 41.3146 4.85481 41.3215 4.93611 41.3108H43.0626C43.1439 41.3215 43.2265 41.3146 43.3049 41.2908C43.3834 41.2669 43.4558 41.2266 43.5174 41.1725C43.579 41.1184 43.6284 41.0518 43.6622 40.9771C43.696 40.9024 43.7135 40.8214 43.7135 40.7394C43.7135 40.6574 43.696 40.5764 43.6622 40.5017C43.6284 40.427 43.579 40.3604 43.5174 40.3063C43.4558 40.2522 43.3834 40.2119 43.3049 40.1881C43.2265 40.1642 43.1439 40.1573 43.0626 40.168ZM27.6501 40.159L24.3257 37.3177L27.3455 34.007L30.3876 35.5366L31.2549 38.0592C31.2833 38.1417 31.3303 38.2167 31.3922 38.2783C31.454 38.3399 31.5292 38.3865 31.6119 38.4145C31.6946 38.4426 31.7826 38.4513 31.8692 38.4399C31.9558 38.4286 32.0387 38.3976 32.1114 38.3493L38.1265 34.3538L41.1105 36.3376C41.1204 36.3442 41.1311 36.348 41.1412 36.3539V40.159H27.6501ZM17.1412 32.4762L18.6992 30.509L20.2275 31.8236C20.3594 31.9371 20.5155 32.0189 20.6839 32.0629C20.8522 32.1069 21.0284 32.1118 21.199 32.0774C21.3695 32.0429 21.53 31.97 21.6681 31.8641C21.8062 31.7583 21.9183 31.6223 21.9958 31.4665L24.0427 27.3552L26.6191 26.2412L29.0741 32.2093C29.1546 32.4048 29.2876 32.5741 29.4586 32.6985C29.6295 32.8229 29.8315 32.8975 30.0423 32.9139C30.0721 32.9162 30.1017 32.9174 30.1313 32.9174C30.3276 32.9173 30.5206 32.8667 30.6916 32.7705C30.8627 32.6742 31.006 32.5355 31.1079 32.3677L32.6054 29.9018L38.6936 28.8247L41.1412 32.6816V34.9859L38.443 33.192C38.3493 33.1296 38.2393 33.0963 38.1268 33.0962C38.0142 33.0962 37.9042 33.1294 37.8105 33.1917L32.0952 36.988L31.3926 34.9448C31.3441 34.8036 31.2423 34.6871 31.109 34.62L27.4719 32.7913C27.3604 32.7356 27.2339 32.7177 27.1114 32.7404C26.9889 32.763 26.8771 32.825 26.793 32.9169L23.4566 36.5749L19.3696 33.0818C19.2843 33.0088 19.1793 32.9625 19.0678 32.9489C18.9563 32.9352 18.8433 32.9548 18.7428 33.005L17.1412 33.8058L17.1412 32.4762ZM17.1412 35.0691C17.1802 35.0591 17.218 35.0452 17.254 35.0274L18.9151 34.1967L25.891 40.159H17.1412V35.0691Z" fill="#1A1917"/>
</g>
<defs>
<clipPath id="clip0_1223_1374">
<rect width="48" height="48" fill="white"/>
</clipPath>
</defs>
</svg>
