<svg width="48" height="48" viewBox="0 0 48 48" fill="none" xmlns="http://www.w3.org/2000/svg">
<g clip-path="url(#clip0_926_4791)">
<path d="M27.4284 22.7724C27.4284 22.0943 27.2274 21.4314 26.8507 20.8676C26.474 20.3038 25.9385 19.8643 25.3121 19.6048C24.6856 19.3453 23.9963 19.2773 23.3312 19.4096C22.6662 19.5418 22.0552 19.8683 21.5757 20.3477C21.0962 20.8272 20.7696 21.438 20.6372 22.1031C20.5049 22.7681 20.5727 23.4575 20.8321 24.084C21.0915 24.7105 21.5309 25.246 22.0946 25.6228C22.6584 25.9996 23.3212 26.2008 23.9993 26.2009C24.9084 26.2 25.7799 25.8385 26.4228 25.1957C27.0657 24.553 27.4273 23.6814 27.4284 22.7724ZM21.7141 22.7724C21.7141 22.3203 21.8482 21.8783 22.0994 21.5024C22.3506 21.1265 22.7076 20.8336 23.1253 20.6606C23.543 20.4876 24.0026 20.4423 24.446 20.5306C24.8894 20.6188 25.2967 20.8366 25.6163 21.1563C25.9359 21.476 26.1536 21.8833 26.2417 22.3268C26.3299 22.7702 26.2845 23.2298 26.1114 23.6474C25.9383 24.0651 25.6453 24.422 25.2693 24.6731C24.8934 24.9242 24.4514 25.0582 23.9993 25.0581C23.3934 25.0573 22.8125 24.8162 22.3841 24.3877C21.9557 23.9592 21.7148 23.3783 21.7141 22.7724Z" fill="#E53935"/>
<path d="M10.2157 12.8783C10.3048 13.0008 10.439 13.0829 10.5887 13.1065C10.7384 13.1301 10.8914 13.0933 11.0139 13.0041C11.1365 12.915 11.2186 12.7808 11.2422 12.6311C11.2658 12.4814 11.2289 12.3284 11.1398 12.2059L10.1571 10.855C10.0677 10.733 9.93361 10.6513 9.78414 10.6279C9.63468 10.6046 9.48206 10.6415 9.35973 10.7305C9.23741 10.8195 9.15538 10.9534 9.13161 11.1028C9.10784 11.2522 9.14429 11.4049 9.23295 11.5274L10.2157 12.8783Z" fill="#1A1917"/>
<path d="M6.20648 17.145L7.89426 17.3815C7.96856 17.3919 8.04419 17.3876 8.11683 17.3687C8.18946 17.3499 8.25767 17.317 8.31757 17.2718C8.37748 17.2266 8.42789 17.1701 8.46594 17.1054C8.50399 17.0407 8.52893 16.9692 8.53934 16.8949C8.54974 16.8206 8.54541 16.7449 8.52659 16.6723C8.50777 16.5997 8.47482 16.5315 8.42964 16.4716C8.38445 16.4117 8.32791 16.3612 8.26324 16.3232C8.19858 16.2851 8.12705 16.2602 8.05274 16.2498L6.36496 16.0133C6.29065 16.0029 6.21502 16.0073 6.14239 16.0261C6.06976 16.0449 6.00154 16.0778 5.94164 16.123C5.88174 16.1682 5.83132 16.2248 5.79327 16.2894C5.75522 16.3541 5.73028 16.4256 5.71988 16.4999C5.70947 16.5742 5.7138 16.6499 5.73262 16.7225C5.75145 16.7951 5.78439 16.8633 5.82958 16.9233C5.87476 16.9832 5.9313 17.0336 5.99597 17.0716C6.06064 17.1097 6.13217 17.1346 6.20648 17.145Z" fill="#1A1917"/>
<path d="M15.488 11.8635C15.5619 11.8768 15.6377 11.8755 15.7111 11.8594C15.7844 11.8434 15.8539 11.813 15.9155 11.7701C15.9771 11.7272 16.0296 11.6725 16.07 11.6092C16.1104 11.5459 16.1379 11.4753 16.151 11.4013L16.4495 9.72725C16.4628 9.65333 16.4614 9.57751 16.4454 9.50413C16.4294 9.43075 16.399 9.36125 16.3561 9.29961C16.3132 9.23797 16.2586 9.18539 16.1953 9.14489C16.1321 9.10438 16.0614 9.07675 15.9875 9.06356C15.9136 9.05038 15.8377 9.0519 15.7644 9.06804C15.691 9.08418 15.6216 9.11463 15.56 9.15764C15.4984 9.20065 15.4459 9.25538 15.4055 9.3187C15.3651 9.38201 15.3376 9.45267 15.3245 9.52664L15.026 11.2007C15.0128 11.2746 15.0143 11.3503 15.0304 11.4236C15.0465 11.4969 15.0768 11.5663 15.1197 11.6278C15.1626 11.6894 15.2172 11.7419 15.2804 11.7823C15.3436 11.8227 15.4142 11.8503 15.488 11.8635Z" fill="#1A1917"/>
<path d="M7.16748 14.0552L8.61251 14.9147C8.67701 14.9533 8.74847 14.9787 8.82281 14.9896C8.89715 15.0005 8.97291 14.9967 9.04576 14.9782C9.1186 14.9598 9.18709 14.9272 9.24731 14.8823C9.30754 14.8374 9.35831 14.781 9.39673 14.7164C9.43514 14.6518 9.46044 14.5803 9.47118 14.506C9.48192 14.4316 9.47789 14.3558 9.45932 14.283C9.44075 14.2102 9.408 14.1418 9.36295 14.0817C9.3179 14.0216 9.26143 13.9709 9.19678 13.9326L7.75174 13.0731C7.68725 13.0346 7.61579 13.0091 7.54145 12.9982C7.4671 12.9873 7.39134 12.9912 7.3185 13.0096C7.24566 13.028 7.17717 13.0607 7.11694 13.1056C7.05672 13.1505 7.00595 13.2069 6.96753 13.2714C6.92912 13.336 6.90382 13.4075 6.89308 13.4819C6.88233 13.5563 6.88637 13.632 6.90494 13.7048C6.92351 13.7776 6.95626 13.846 7.00131 13.9062C7.04636 13.9663 7.10283 14.017 7.16748 14.0552Z" fill="#E53935"/>
<path d="M12.4809 11.5637C12.5143 11.7114 12.6048 11.8398 12.7327 11.9207C12.8606 12.0017 13.0154 12.0286 13.1631 11.9956C13.3109 11.9626 13.4394 11.8723 13.5207 11.7446C13.6019 11.6168 13.6292 11.4621 13.5965 11.3143L13.2301 9.6761C13.1968 9.52845 13.1062 9.40006 12.9783 9.31909C12.8504 9.23813 12.6956 9.21121 12.5479 9.24424C12.4002 9.27727 12.2716 9.36756 12.1904 9.49528C12.1091 9.623 12.0819 9.77773 12.1146 9.92552L12.4809 11.5637Z" fill="#E53935"/>
<path d="M17.6413 12.6034C17.7049 12.6432 17.7758 12.6701 17.8498 12.6825C17.9238 12.6949 17.9995 12.6926 18.0727 12.6757C18.1458 12.6588 18.2149 12.6277 18.276 12.5841C18.337 12.5405 18.3889 12.4853 18.4287 12.4216L19.3419 10.9603C19.4222 10.8318 19.4482 10.6766 19.4141 10.5289C19.38 10.3812 19.2887 10.2531 19.1601 10.1728C19.0316 10.0925 18.8764 10.0665 18.7287 10.1006C18.581 10.1347 18.4529 10.226 18.3726 10.3546L17.4594 11.8159C17.4196 11.8796 17.3928 11.9504 17.3804 12.0245C17.368 12.0985 17.3703 12.1742 17.3872 12.2473C17.4041 12.3205 17.4352 12.3896 17.4788 12.4507C17.5224 12.5118 17.5776 12.5637 17.6413 12.6034Z" fill="#E53935"/>
<path d="M7.90849 18.9193L6.24275 19.3765C6.17018 19.3961 6.1022 19.4299 6.04271 19.4759C5.98322 19.5219 5.9334 19.5792 5.89609 19.6445C5.85878 19.7098 5.83473 19.7818 5.82531 19.8564C5.81588 19.931 5.82128 20.0067 5.84118 20.0792C5.86107 20.1517 5.89509 20.2196 5.94127 20.2789C5.98745 20.3383 6.04489 20.3879 6.1103 20.425C6.1757 20.4621 6.24779 20.486 6.32242 20.4951C6.39705 20.5043 6.47276 20.4987 6.5452 20.4786L8.21094 20.0214C8.28352 20.0017 8.3515 19.9679 8.41098 19.9219C8.47047 19.8759 8.5203 19.8187 8.5576 19.7534C8.59491 19.6881 8.61896 19.6161 8.62839 19.5415C8.63781 19.4669 8.63242 19.3912 8.61252 19.3186C8.59262 19.2461 8.5586 19.1783 8.51242 19.1189C8.46624 19.0596 8.4088 19.0099 8.34339 18.9728C8.27799 18.9357 8.20591 18.9119 8.13128 18.9027C8.05665 18.8935 7.98094 18.8992 7.90849 18.9193Z" fill="#E53935"/>
<path d="M33.7141 14.4866H36.5713V19.1623L37.7141 20.1591V14.4866C37.7138 14.1836 37.5933 13.8931 37.379 13.6788C37.1648 13.4646 36.8743 13.3441 36.5713 13.3438H33.7141C33.4111 13.3441 33.1206 13.4646 32.9064 13.6788C32.6921 13.8931 32.5716 14.1836 32.5713 14.4866V15.6734L33.7141 16.6702V14.4866Z" fill="#1A1917"/>
<path d="M42.0897 25.4828L24.3754 10.0545C24.2713 9.96394 24.138 9.91406 24.0001 9.91406C23.8621 9.91406 23.7289 9.96394 23.6248 10.0545L5.91052 25.4828C5.79622 25.5823 5.72615 25.7232 5.71571 25.8744C5.70528 26.0256 5.75533 26.1747 5.85486 26.289C5.95439 26.4033 6.09525 26.4734 6.24645 26.4838C6.39764 26.4942 6.5468 26.4442 6.66109 26.3447L24.0001 11.2432L41.3391 26.3446C41.4534 26.4442 41.6025 26.4942 41.7537 26.4838C41.9049 26.4734 42.0458 26.4033 42.1453 26.289C42.2449 26.1747 42.2949 26.0255 42.2845 25.8743C42.274 25.7232 42.2039 25.5823 42.0897 25.4828Z" fill="#1A1917"/>
<path d="M15.4284 33.9124C15.5037 33.9128 15.5783 33.8983 15.648 33.8698C15.7177 33.8413 15.781 33.7992 15.8344 33.7461C15.8878 33.693 15.9302 33.6299 15.9591 33.5604C15.988 33.4908 16.0029 33.4163 16.0029 33.341C16.0029 33.2657 15.988 33.1911 15.9591 33.1216C15.9302 33.052 15.8878 32.9889 15.8344 32.9358C15.781 32.8827 15.7177 32.8407 15.648 32.8121C15.5783 32.7836 15.5037 32.7691 15.4284 32.7695H14.2855C14.2102 32.7691 14.1356 32.7836 14.0659 32.8121C13.9962 32.8407 13.9328 32.8827 13.8794 32.9358C13.826 32.9889 13.7836 33.052 13.7547 33.1216C13.7258 33.1911 13.7109 33.2657 13.7109 33.341C13.7109 33.4163 13.7258 33.4908 13.7547 33.5604C13.7836 33.6299 13.826 33.693 13.8794 33.7461C13.9328 33.7992 13.9962 33.8413 14.0659 33.8698C14.1356 33.8983 14.2102 33.9128 14.2855 33.9124H15.4284Z" fill="#E53935"/>
<path d="M33.7145 33.9124C33.7898 33.9128 33.8644 33.8983 33.9341 33.8698C34.0038 33.8413 34.0672 33.7992 34.1206 33.7461C34.174 33.693 34.2163 33.6299 34.2452 33.5604C34.2742 33.4908 34.289 33.4163 34.289 33.341C34.289 33.2657 34.2742 33.1911 34.2452 33.1216C34.2163 33.052 34.174 32.9889 34.1206 32.9358C34.0672 32.8827 34.0038 32.8407 33.9341 32.8121C33.8644 32.7836 33.7898 32.7691 33.7145 32.7695H32.5716C32.4963 32.7691 32.4217 32.7836 32.352 32.8121C32.2823 32.8407 32.2189 32.8827 32.1655 32.9358C32.1122 32.9889 32.0698 33.052 32.0409 33.1216C32.012 33.1911 31.9971 33.2657 31.9971 33.341C31.9971 33.4163 32.012 33.4908 32.0409 33.5604C32.0698 33.6299 32.1122 33.693 32.1655 33.7461C32.2189 33.7992 32.2823 33.8413 32.352 33.8698C32.4217 33.8983 32.4963 33.9128 32.5716 33.9124H33.7145Z" fill="#E53935"/>
<path d="M9.73416 17.1924C9.56876 18.2245 9.74287 19.2824 10.2303 20.2071L11.122 19.4294C10.7859 18.6508 10.7257 17.7808 10.9512 16.9632C11.1767 16.1457 11.6745 15.4297 12.3622 14.9335C12.9569 14.5043 13.6641 14.2583 14.3967 14.2259C15.1294 14.1935 15.8555 14.376 16.4857 14.7511L17.378 13.9728C16.5441 13.3872 15.5484 13.0759 14.5295 13.0821C13.5105 13.0884 12.5187 13.4119 11.692 14.0077C11.1711 14.3824 10.7297 14.8569 10.3936 15.4036C10.0575 15.9503 9.83335 16.5583 9.73416 17.1924Z" fill="#1A1917"/>
<path d="M0.571429 43.3421C0.88702 43.3421 1.14286 43.0862 1.14286 42.7706C1.14286 42.4551 0.88702 42.1992 0.571429 42.1992C0.255837 42.1992 0 42.4551 0 42.7706C0 43.0862 0.255837 43.3421 0.571429 43.3421Z" fill="#1A1917"/>
<path d="M3.14293 42.1992H2.28578C2.13423 42.1992 1.98889 42.2594 1.88172 42.3666C1.77456 42.4737 1.71436 42.6191 1.71436 42.7706C1.71436 42.9222 1.77456 43.0675 1.88172 43.1747C1.98889 43.2819 2.13423 43.3421 2.28578 43.3421H3.14293C3.29448 43.3421 3.43982 43.2819 3.54699 43.1747C3.65415 43.0675 3.71436 42.9222 3.71436 42.7706C3.71436 42.6191 3.65415 42.4737 3.54699 42.3666C3.43982 42.2594 3.29448 42.1992 3.14293 42.1992Z" fill="#1A1917"/>
<path d="M45.7142 42.1992H44.8571C44.7055 42.1992 44.5602 42.2594 44.453 42.3666C44.3458 42.4737 44.2856 42.6191 44.2856 42.7706C44.2856 42.9222 44.3458 43.0675 44.453 43.1747C44.5602 43.2819 44.7055 43.3421 44.8571 43.3421H45.7142C45.8658 43.3421 46.0111 43.2819 46.1183 43.1747C46.2254 43.0675 46.2856 42.9222 46.2856 42.7706C46.2856 42.6191 46.2254 42.4737 46.1183 42.3666C46.0111 42.2594 45.8658 42.1992 45.7142 42.1992Z" fill="#1A1917"/>
<path d="M47.4284 43.3421C47.744 43.3421 47.9998 43.0862 47.9998 42.7706C47.9998 42.4551 47.744 42.1992 47.4284 42.1992C47.1128 42.1992 46.8569 42.4551 46.8569 42.7706C46.8569 43.0862 47.1128 43.3421 47.4284 43.3421Z" fill="#1A1917"/>
<path d="M33.758 44.4844H31.3844C31.2408 44.4959 31.1067 44.5611 31.009 44.667C30.9112 44.7729 30.8569 44.9117 30.8569 45.0558C30.8569 45.1999 30.9112 45.3387 31.009 45.4446C31.1067 45.5505 31.2408 45.6157 31.3844 45.6272H33.758C33.9017 45.6157 34.0357 45.5505 34.1335 45.4446C34.2312 45.3387 34.2855 45.1999 34.2855 45.0558C34.2855 44.9117 34.2312 44.7729 34.1335 44.667C34.0357 44.5611 33.9017 44.4959 33.758 44.4844Z" fill="#E53935"/>
<path d="M16.6155 44.4844H14.2418C14.0982 44.4959 13.9641 44.5611 13.8664 44.667C13.7686 44.7729 13.7144 44.9117 13.7144 45.0558C13.7144 45.1999 13.7686 45.3387 13.8664 45.4446C13.9641 45.5505 14.0982 45.6157 14.2418 45.6272H16.6155C16.7591 45.6157 16.8932 45.5505 16.9909 45.4446C17.0887 45.3387 17.1429 45.1999 17.1429 45.0558C17.1429 44.9117 17.0887 44.7729 16.9909 44.667C16.8932 44.5611 16.7591 44.4959 16.6155 44.4844Z" fill="#E53935"/>
<path d="M29.7144 44.4844H18.2858C18.1342 44.4844 17.9889 44.5446 17.8817 44.6517C17.7746 44.7589 17.7144 44.9043 17.7144 45.0558C17.7144 45.2074 17.7746 45.3527 17.8817 45.4599C17.9889 45.567 18.1342 45.6272 18.2858 45.6272H22.8401V46.1987H20.5715C20.4199 46.1987 20.2746 46.2589 20.1674 46.366C20.0603 46.4732 20.0001 46.6185 20.0001 46.7701C20.0001 46.9216 20.0603 47.067 20.1674 47.1741C20.2746 47.2813 20.4199 47.3415 20.5715 47.3415H27.7144C27.8659 47.3415 28.0113 47.2813 28.1184 47.1741C28.2256 47.067 28.2858 46.9216 28.2858 46.7701C28.2858 46.6185 28.2256 46.4732 28.1184 46.366C28.0113 46.2589 27.8659 46.1987 27.7144 46.1987H25.1601V45.6272H29.7144C29.8659 45.6272 30.0113 45.567 30.1184 45.4599C30.2256 45.3527 30.2858 45.2074 30.2858 45.0558C30.2858 44.9043 30.2256 44.7589 30.1184 44.6517C30.0113 44.5446 29.8659 44.4844 29.7144 44.4844Z" fill="#E53935"/>
<path d="M43.0631 42.197H38.7625C38.8247 42.0159 38.8566 41.8258 38.857 41.6343V25.7312L37.7141 24.7344V38.7686H28.5713V32.9726C28.5597 32.6806 28.433 32.405 28.2188 32.2062C28.0047 32.0074 27.7205 31.9014 27.4284 31.9115H20.5713C20.2792 31.9014 19.995 32.0074 19.7808 32.2062C19.5667 32.405 19.4399 32.6806 19.4284 32.9726V38.7686H10.2855V24.7344L9.14268 25.7312V41.6343C9.14302 41.8258 9.17494 42.0159 9.23715 42.197H4.93659C4.8553 42.1864 4.77268 42.1933 4.69424 42.2171C4.6158 42.241 4.54336 42.2813 4.48175 42.3354C4.42013 42.3895 4.37077 42.4561 4.33695 42.5308C4.30314 42.6054 4.28564 42.6865 4.28564 42.7685C4.28564 42.8505 4.30314 42.9315 4.33695 43.0062C4.37077 43.0809 4.42013 43.1475 4.48175 43.2016C4.54336 43.2556 4.6158 43.296 4.69424 43.3198C4.77268 43.3437 4.8553 43.3505 4.93659 43.3399H43.0631C43.1444 43.3505 43.227 43.3437 43.3054 43.3198C43.3839 43.296 43.4563 43.2556 43.5179 43.2016C43.5795 43.1475 43.6289 43.0809 43.6627 43.0062C43.6965 42.9315 43.714 42.8505 43.714 42.7685C43.714 42.6865 43.6965 42.6054 43.6627 42.5308C43.6289 42.4561 43.5795 42.3895 43.5179 42.3354C43.4563 42.2813 43.3839 42.241 43.3054 42.2171C43.227 42.1933 43.1444 42.1864 43.0631 42.197ZM37.7141 39.9114V41.6343C37.7204 41.7766 37.6701 41.9157 37.5743 42.0211C37.4784 42.1265 37.3448 42.1897 37.2026 42.197H28.5713V39.9114H37.7141ZM27.4284 33.0544V42.197H20.5713V33.0544H27.4284ZM10.2855 41.6343V39.9114H19.4284V42.1971H10.7971C10.6548 42.1897 10.5212 42.1265 10.4254 42.0211C10.3295 41.9157 10.2793 41.7766 10.2855 41.6343Z" fill="#1A1917"/>
</g>
<defs>
<clipPath id="clip0_926_4791">
<rect width="48" height="48" fill="white"/>
</clipPath>
</defs>
</svg>
