<svg width="48" height="48" viewBox="0 0 48 48" fill="none" xmlns="http://www.w3.org/2000/svg">
<path d="M36.0011 16.4297H25.144C24.6895 16.4302 24.2537 16.611 23.9323 16.9323C23.611 17.2537 23.4302 17.6895 23.4297 18.144V30.7154C23.4302 31.1699 23.611 31.6057 23.9323 31.927C24.2537 32.2484 24.6895 32.4292 25.144 32.4297H36.0011C36.4556 32.4292 36.8914 32.2484 37.2128 31.927C37.5341 31.6057 37.7149 31.1699 37.7154 30.7154V18.144C37.7149 17.6895 37.5341 17.2537 37.2128 16.9323C36.8914 16.611 36.4556 16.4302 36.0011 16.4297ZM36.5725 30.7154C36.5724 30.8669 36.5121 31.0121 36.405 31.1193C36.2979 31.2264 36.1526 31.2867 36.0011 31.2868H25.144C24.9925 31.2867 24.8472 31.2264 24.7401 31.1193C24.633 31.0121 24.5727 30.8669 24.5725 30.7154V18.144C24.5727 17.9925 24.633 17.8472 24.7401 17.7401C24.8472 17.633 24.9925 17.5727 25.144 17.5725H36.0011C36.1526 17.5727 36.2979 17.633 36.405 17.7401C36.5121 17.8472 36.5724 17.9925 36.5725 18.144V30.7154Z" fill="#1A1917"/>
<path d="M15.9989 18.6311C15.9986 18.3281 15.878 18.0376 15.6638 17.8234C15.4495 17.6091 15.159 17.4886 14.856 17.4883H13.7132C13.4102 17.4886 13.1197 17.6091 12.9054 17.8234C12.6911 18.0376 12.5706 18.3281 12.5703 18.6311V19.774C12.5706 20.077 12.6911 20.3675 12.9054 20.5818C13.1197 20.796 13.4102 20.9165 13.7132 20.9169H14.856C15.159 20.9165 15.4495 20.796 15.6638 20.5818C15.878 20.3675 15.9986 20.077 15.9989 19.774V18.6311ZM13.7132 19.774V18.6311H14.856L14.8567 19.774H13.7132Z" fill="#E53935"/>
<path d="M21.716 17.8594H17.716C17.5644 17.8594 17.4191 17.9196 17.3119 18.0267C17.2047 18.1339 17.1445 18.2793 17.1445 18.4308C17.1445 18.5824 17.2047 18.7277 17.3119 18.8349C17.4191 18.942 17.5644 19.0022 17.716 19.0022H21.716C21.8675 19.0022 22.0129 18.942 22.12 18.8349C22.2272 18.7277 22.2874 18.5824 22.2874 18.4308C22.2874 18.2793 22.2272 18.1339 22.12 18.0267C22.0129 17.9196 21.8675 17.8594 21.716 17.8594Z" fill="#1A1917"/>
<path d="M17.716 20.7171H20.5731C20.7247 20.7171 20.87 20.6569 20.9772 20.5497C21.0843 20.4425 21.1445 20.2972 21.1445 20.1456C21.1445 19.9941 21.0843 19.8487 20.9772 19.7416C20.87 19.6344 20.7247 19.5742 20.5731 19.5742H17.716C17.5644 19.5742 17.4191 19.6344 17.3119 19.7416C17.2047 19.8487 17.1445 19.9941 17.1445 20.1456C17.1445 20.2972 17.2047 20.4425 17.3119 20.5497C17.4191 20.6569 17.5644 20.7171 17.716 20.7171Z" fill="#E53935"/>
<path d="M15.9989 23.2054C15.9986 22.9024 15.878 22.6118 15.6638 22.3976C15.4495 22.1833 15.159 22.0628 14.856 22.0625H13.7132C13.4102 22.0628 13.1197 22.1833 12.9054 22.3976C12.6911 22.6118 12.5706 22.9024 12.5703 23.2054V24.3482C12.5706 24.6512 12.6911 24.9417 12.9054 25.156C13.1197 25.3702 13.4102 25.4907 13.7132 25.4911H14.856C15.159 25.4907 15.4495 25.3702 15.6638 25.156C15.878 24.9417 15.9986 24.6512 15.9989 24.3482V23.2054ZM13.7132 24.3482V23.2054H14.856L14.8567 24.3482H13.7132Z" fill="#1A1917"/>
<path d="M17.716 23.5725H21.716C21.8675 23.5725 22.0129 23.5123 22.12 23.4052C22.2272 23.298 22.2874 23.1527 22.2874 23.0011C22.2874 22.8496 22.2272 22.7042 22.12 22.5971C22.0129 22.4899 21.8675 22.4297 21.716 22.4297H17.716C17.5644 22.4297 17.4191 22.4899 17.3119 22.5971C17.2047 22.7042 17.1445 22.8496 17.1445 23.0011C17.1445 23.1527 17.2047 23.298 17.3119 23.4052C17.4191 23.5123 17.5644 23.5725 17.716 23.5725Z" fill="#1A1917"/>
<path d="M17.716 25.2874H20.5731C20.7247 25.2874 20.87 25.2272 20.9772 25.12C21.0843 25.0129 21.1445 24.8675 21.1445 24.716C21.1445 24.5644 21.0843 24.4191 20.9772 24.3119C20.87 24.2047 20.7247 24.1445 20.5731 24.1445H17.716C17.5644 24.1445 17.4191 24.2047 17.3119 24.3119C17.2047 24.4191 17.1445 24.5644 17.1445 24.716C17.1445 24.8675 17.2047 25.0129 17.3119 25.12C17.4191 25.2272 17.5644 25.2874 17.716 25.2874Z" fill="#E53935"/>
<path d="M15.9989 27.7757C15.9986 27.4727 15.878 27.1822 15.6638 26.9679C15.4495 26.7536 15.159 26.6331 14.856 26.6328H13.7132C13.4102 26.6331 13.1197 26.7536 12.9054 26.9679C12.6911 27.1822 12.5706 27.4727 12.5703 27.7757V28.9185C12.5706 29.2215 12.6911 29.512 12.9054 29.7263C13.1197 29.9405 13.4102 30.0611 13.7132 30.0614H14.856C15.159 30.0611 15.4495 29.9405 15.6638 29.7263C15.878 29.512 15.9986 29.2215 15.9989 28.9185V27.7757ZM13.7132 28.9185V27.7757H14.856L14.8567 28.9185H13.7132Z" fill="#E53935"/>
<path d="M17.716 28.1429H21.716C21.8675 28.1429 22.0129 28.0827 22.12 27.9755C22.2272 27.8683 22.2874 27.723 22.2874 27.5714C22.2874 27.4199 22.2272 27.2745 22.12 27.1674C22.0129 27.0602 21.8675 27 21.716 27H17.716C17.5644 27 17.4191 27.0602 17.3119 27.1674C17.2047 27.2745 17.1445 27.4199 17.1445 27.5714C17.1445 27.723 17.2047 27.8683 17.3119 27.9755C17.4191 28.0827 17.5644 28.1429 17.716 28.1429Z" fill="#1A1917"/>
<path d="M17.716 29.8577H20.5731C20.7247 29.8577 20.87 29.7975 20.9772 29.6903C21.0843 29.5832 21.1445 29.4378 21.1445 29.2863C21.1445 29.1347 21.0843 28.9894 20.9772 28.8822C20.87 28.775 20.7247 28.7148 20.5731 28.7148H17.716C17.5644 28.7148 17.4191 28.775 17.3119 28.8822C17.2047 28.9894 17.1445 29.1347 17.1445 29.2863C17.1445 29.4378 17.2047 29.5832 17.3119 29.6903C17.4191 29.7975 17.5644 29.8577 17.716 29.8577Z" fill="#E53935"/>
<path d="M15.9989 32.346C15.9986 32.043 15.878 31.7525 15.6638 31.5382C15.4495 31.324 15.159 31.2034 14.856 31.2031H13.7132C13.4102 31.2034 13.1197 31.324 12.9054 31.5382C12.6911 31.7525 12.5706 32.043 12.5703 32.346V33.4888C12.5706 33.7918 12.6911 34.0823 12.9054 34.2966C13.1197 34.5109 13.4102 34.6314 13.7132 34.6317H14.856C15.159 34.6314 15.4495 34.5109 15.6638 34.2966C15.878 34.0823 15.9986 33.7918 15.9989 33.4888V32.346ZM13.7132 33.4888V32.346H14.856L14.8567 33.4888H13.7132Z" fill="#1A1917"/>
<path d="M17.716 32.7171H21.716C21.8675 32.7171 22.0129 32.6569 22.12 32.5497C22.2272 32.4425 22.2874 32.2972 22.2874 32.1456C22.2874 31.9941 22.2272 31.8487 22.12 31.7416C22.0129 31.6344 21.8675 31.5742 21.716 31.5742H17.716C17.5644 31.5742 17.4191 31.6344 17.3119 31.7416C17.2047 31.8487 17.1445 31.9941 17.1445 32.1456C17.1445 32.2972 17.2047 32.4425 17.3119 32.5497C17.4191 32.6569 17.5644 32.7171 17.716 32.7171Z" fill="#1A1917"/>
<path d="M17.716 34.4319H20.5731C20.7247 34.4319 20.87 34.3717 20.9772 34.2646C21.0843 34.1574 21.1445 34.012 21.1445 33.8605C21.1445 33.7089 21.0843 33.5636 20.9772 33.4564C20.87 33.3493 20.7247 33.2891 20.5731 33.2891H17.716C17.5644 33.2891 17.4191 33.3493 17.3119 33.4564C17.2047 33.5636 17.1445 33.7089 17.1445 33.8605C17.1445 34.012 17.2047 34.1574 17.3119 34.2646C17.4191 34.3717 17.5644 34.4319 17.716 34.4319Z" fill="#E53935"/>
<path d="M14.856 35.7773H13.7132C13.4102 35.7777 13.1197 35.8982 12.9054 36.1124C12.6911 36.3267 12.5706 36.6172 12.5703 36.9202V38.0631C12.5706 38.3661 12.6911 38.6566 12.9054 38.8708C13.1197 39.0851 13.4102 39.2056 13.7132 39.2059H14.856C15.159 39.2056 15.4495 39.0851 15.6638 38.8708C15.878 38.6566 15.9986 38.3661 15.9989 38.0631V36.9202C15.9986 36.6172 15.878 36.3267 15.6638 36.1124C15.4495 35.8982 15.159 35.7777 14.856 35.7773ZM13.7132 38.0631V36.9202H14.856L14.8567 38.0631H13.7132Z" fill="#E53935"/>
<path d="M27.4302 36.1445H17.716C17.5644 36.1445 17.4191 36.2047 17.3119 36.3119C17.2047 36.4191 17.1445 36.5644 17.1445 36.716C17.1445 36.8675 17.2047 37.0129 17.3119 37.12C17.4191 37.2272 17.5644 37.2874 17.716 37.2874H27.4302C27.5818 37.2874 27.7271 37.2272 27.8343 37.12C27.9415 37.0129 28.0017 36.8675 28.0017 36.716C28.0017 36.5644 27.9415 36.4191 27.8343 36.3119C27.7271 36.2047 27.5818 36.1445 27.4302 36.1445Z" fill="#1A1917"/>
<path d="M17.1445 38.4308C17.1445 38.5824 17.2047 38.7277 17.3119 38.8349C17.4191 38.942 17.5644 39.0022 17.716 39.0022H29.716C29.8675 39.0022 30.0129 38.942 30.12 38.8349C30.2272 38.7277 30.2874 38.5824 30.2874 38.4308C30.2874 38.2793 30.2272 38.1339 30.12 38.0267C30.0129 37.9196 29.8675 37.8594 29.716 37.8594H17.716C17.5644 37.8594 17.4191 37.9196 17.3119 38.0268C17.2047 38.1339 17.1445 38.2793 17.1445 38.4308Z" fill="#E53935"/>
<path d="M34.1523 20.8993L28.7067 26.7372L26.988 24.8946C26.9369 24.8391 26.8754 24.7943 26.807 24.7627C26.7386 24.7311 26.6646 24.7134 26.5893 24.7105C26.514 24.7076 26.4388 24.7197 26.3682 24.746C26.2976 24.7723 26.2328 24.8123 26.1777 24.8637C26.1226 24.9151 26.0782 24.9769 26.0471 25.0455C26.016 25.1142 25.9987 25.1883 25.9964 25.2636C25.994 25.3389 26.0066 25.414 26.0333 25.4845C26.0601 25.5549 26.1005 25.6194 26.1523 25.6741L28.2889 27.9646C28.3424 28.0219 28.407 28.0676 28.4789 28.0989C28.5508 28.1301 28.6283 28.1462 28.7067 28.1462C28.7851 28.1462 28.8626 28.1301 28.9345 28.0989C29.0064 28.0676 29.0711 28.0219 29.1245 27.9646L34.988 21.6789C35.0398 21.6241 35.0802 21.5596 35.107 21.4892C35.1337 21.4187 35.1463 21.3437 35.1439 21.2684C35.1416 21.193 35.1243 21.1189 35.0932 21.0503C35.0621 20.9816 35.0177 20.9198 34.9626 20.8684C34.9075 20.817 34.8427 20.777 34.7721 20.7507C34.7015 20.7244 34.6263 20.7124 34.551 20.7153C34.4757 20.7181 34.4017 20.7359 34.3333 20.7674C34.2649 20.799 34.2034 20.8438 34.1523 20.8993Z" fill="#E53935"/>
<path d="M0.571429 42.7171C0.88702 42.7171 1.14286 42.4612 1.14286 42.1456C1.14286 41.8301 0.88702 41.5742 0.571429 41.5742C0.255837 41.5742 0 41.8301 0 42.1456C0 42.4612 0.255837 42.7171 0.571429 42.7171Z" fill="#1A1917"/>
<path d="M3.14342 41.5742H2.28627C2.13472 41.5742 1.98937 41.6344 1.88221 41.7416C1.77505 41.8488 1.71484 41.9941 1.71484 42.1456C1.71484 42.2972 1.77505 42.4425 1.88221 42.5497C1.98937 42.6569 2.13472 42.7171 2.28627 42.7171H3.14342C3.29497 42.7171 3.44031 42.6569 3.54748 42.5497C3.65464 42.4425 3.71484 42.2972 3.71484 42.1456C3.71484 41.9941 3.65464 41.8488 3.54748 41.7416C3.44031 41.6344 3.29497 41.5742 3.14342 41.5742Z" fill="#1A1917"/>
<path d="M45.7137 41.5742H44.8566C44.705 41.5742 44.5597 41.6344 44.4525 41.7416C44.3454 41.8488 44.2852 41.9941 44.2852 42.1456C44.2852 42.2972 44.3454 42.4425 44.4525 42.5497C44.5597 42.6569 44.705 42.7171 44.8566 42.7171H45.7137C45.8653 42.7171 46.0106 42.6569 46.1178 42.5497C46.225 42.4425 46.2852 42.2972 46.2852 42.1456C46.2852 41.9941 46.225 41.8488 46.1178 41.7416C46.0106 41.6344 45.8653 41.5742 45.7137 41.5742Z" fill="#1A1917"/>
<path d="M47.4269 42.7171C47.7425 42.7171 47.9983 42.4612 47.9983 42.1456C47.9983 41.8301 47.7425 41.5742 47.4269 41.5742C47.1113 41.5742 46.8555 41.8301 46.8555 42.1456C46.8555 42.4612 47.1113 42.7171 47.4269 42.7171Z" fill="#1A1917"/>
<path d="M33.7566 43.8594H31.3829C31.2393 43.8709 31.1052 43.9361 31.0075 44.042C30.9097 44.1479 30.8555 44.2867 30.8555 44.4308C30.8555 44.5749 30.9097 44.7137 31.0075 44.8196C31.1052 44.9255 31.2393 44.9907 31.3829 45.0022H33.7566C33.9002 44.9907 34.0343 44.9255 34.132 44.8196C34.2298 44.7137 34.2841 44.5749 34.2841 44.4308C34.2841 44.2867 34.2298 44.1479 34.132 44.042C34.0343 43.9361 33.9002 43.8709 33.7566 43.8594Z" fill="#E53935"/>
<path d="M16.616 43.8594H14.2423C14.0987 43.8709 13.9646 43.9361 13.8669 44.042C13.7691 44.1479 13.7148 44.2867 13.7148 44.4308C13.7148 44.5749 13.7691 44.7137 13.8669 44.8196C13.9646 44.9255 14.0987 44.9907 14.2423 45.0022H16.616C16.7596 44.9907 16.8937 44.9255 16.9914 44.8196C17.0892 44.7137 17.1434 44.5749 17.1434 44.4308C17.1434 44.2867 17.0892 44.1479 16.9914 44.042C16.8937 43.9361 16.7596 43.8709 16.616 43.8594Z" fill="#E53935"/>
<path d="M29.7148 43.8594H18.2863C18.1347 43.8594 17.9894 43.9196 17.8822 44.0267C17.775 44.1339 17.7148 44.2793 17.7148 44.4308C17.7148 44.5824 17.775 44.7277 17.8822 44.8349C17.9894 44.942 18.1347 45.0022 18.2863 45.0022H22.8406V45.5737H20.572C20.4204 45.5737 20.2751 45.6339 20.1679 45.741C20.0608 45.8482 20.0006 45.9935 20.0006 46.1451C20.0006 46.2966 20.0608 46.442 20.1679 46.5492C20.2751 46.6563 20.4204 46.7165 20.572 46.7165H27.7148C27.8664 46.7165 28.0117 46.6563 28.1189 46.5492C28.2261 46.442 28.2863 46.2966 28.2863 46.1451C28.2863 45.9935 28.2261 45.8482 28.1189 45.741C28.0117 45.6339 27.8664 45.5737 27.7148 45.5737H25.1606V45.0022H29.7148C29.8664 45.0022 30.0117 44.942 30.1189 44.8349C30.2261 44.7277 30.2863 44.5824 30.2863 44.4308C30.2863 44.2793 30.2261 44.1339 30.1189 44.0267C30.0117 43.9196 29.8664 43.8594 29.7148 43.8594Z" fill="#E53935"/>
<path d="M43.0626 41.5731H33.6136C33.6794 41.3898 33.7132 41.1965 33.7136 41.0017V33.5731H32.5708V41.0017C32.5706 41.1532 32.5103 41.2984 32.4032 41.4056C32.2961 41.5127 32.1508 41.5729 31.9993 41.5731H11.9993C11.8478 41.5729 11.7026 41.5127 11.5955 41.4056C11.4883 41.2984 11.4281 41.1532 11.4279 41.0017V13.5731C11.4281 13.4216 11.4883 13.2764 11.5955 13.1692C11.7026 13.0621 11.8478 13.0019 11.9993 13.0017H15.4279V14.4303C15.4279 14.5818 15.4881 14.7271 15.5953 14.8343C15.7024 14.9415 15.8478 15.0017 15.9993 15.0017H27.9993C28.1509 15.0017 28.2962 14.9415 28.4034 14.8343C28.5106 14.7271 28.5708 14.5818 28.5708 14.4303V13.0017H31.9993C32.1508 13.0019 32.2961 13.0621 32.4032 13.1692C32.5103 13.2764 32.5706 13.4216 32.5708 13.5731V15.2874H33.7136V13.5731C33.7131 13.1186 33.5324 12.6829 33.211 12.3615C32.8896 12.0401 32.4538 11.8593 31.9993 11.8588H28.5708V10.4303C28.5708 10.2787 28.5106 10.1334 28.4034 10.0262C28.2962 9.91904 28.1509 9.85884 27.9993 9.85883H25.9849C25.9137 8.85035 25.4629 7.90633 24.7233 7.21706C23.9837 6.52779 23.0103 6.14453 21.9993 6.14453C20.9883 6.14453 20.0149 6.52779 19.2753 7.21706C18.5358 7.90633 18.0849 8.85035 18.0138 9.85883H15.9993C15.8478 9.85884 15.7024 9.91904 15.5953 10.0262C15.4881 10.1334 15.4279 10.2787 15.4279 10.4303V11.8588H11.9993C11.5448 11.8593 11.1091 12.0401 10.7877 12.3615C10.4663 12.6829 10.2855 13.1186 10.2851 13.5731V41.0017C10.2855 41.1965 10.3193 41.3898 10.3851 41.5731H4.93611C4.85481 41.5625 4.77219 41.5693 4.69375 41.5932C4.61532 41.617 4.54287 41.6574 4.48126 41.7115C4.41965 41.7655 4.37028 41.8321 4.33647 41.9068C4.30265 41.9815 4.28516 42.0626 4.28516 42.1445C4.28516 42.2265 4.30265 42.3076 4.33647 42.3823C4.37028 42.4569 4.41965 42.5235 4.48126 42.5776C4.54287 42.6317 4.61532 42.672 4.69375 42.6959C4.77219 42.7197 4.85481 42.7266 4.93611 42.716H43.0626C43.1439 42.7266 43.2265 42.7197 43.3049 42.6959C43.3834 42.672 43.4558 42.6317 43.5174 42.5776C43.579 42.5235 43.6284 42.4569 43.6622 42.3823C43.696 42.3076 43.7135 42.2265 43.7135 42.1445C43.7135 42.0626 43.696 41.9815 43.6622 41.9068C43.6284 41.8321 43.579 41.7655 43.5174 41.7115C43.4558 41.6574 43.3834 41.617 43.3049 41.5932C43.2265 41.5693 43.1439 41.5625 43.0626 41.5731ZM21.9993 7.2874C22.7074 7.2883 23.3899 7.55171 23.915 8.02668C24.44 8.50165 24.7703 9.15444 24.842 9.85883H19.1567C19.2283 9.15444 19.5586 8.50165 20.0837 8.02668C20.6088 7.55171 21.2913 7.2883 21.9993 7.2874ZM16.5708 11.0017H27.4279V13.8588H16.5708V11.0017Z" fill="#1A1917"/>
</svg>
