<svg width="48" height="48" viewBox="0 0 48 48" fill="none" xmlns="http://www.w3.org/2000/svg">
<path d="M22.5771 39.5896C19.1236 38.6605 15.8859 36.8416 13.6945 34.5994C11.0065 31.8491 9.94954 28.569 9.27013 25.723C9.23473 25.5758 9.14235 25.4486 9.01327 25.3695C8.8842 25.2903 8.72898 25.2656 8.58171 25.3008C8.43444 25.336 8.30715 25.4282 8.22781 25.5572C8.14846 25.6861 8.12355 25.8413 8.15853 25.9886C8.83236 28.8112 9.97772 32.4314 12.877 35.3982C15.2076 37.7824 18.6348 39.7124 22.2802 40.6934C22.3527 40.7131 22.4284 40.7183 22.5029 40.7086C22.5775 40.699 22.6494 40.6748 22.7145 40.6373C22.7797 40.5999 22.8368 40.5499 22.8826 40.4904C22.9284 40.4308 22.9621 40.3628 22.9816 40.2903C23.0011 40.2177 23.0061 40.142 22.9964 40.0675C22.9866 39.993 22.9622 39.9211 22.9246 39.856C22.8871 39.791 22.837 39.7339 22.7774 39.6882C22.7177 39.6425 22.6497 39.609 22.5771 39.5896Z" fill="#E53935"/>
<path d="M18.8757 21.1635C18.8503 21.2601 18.8507 21.3616 18.8768 21.4579C18.9029 21.5542 18.9538 21.6421 19.0244 21.7126L21.542 24.2303L20.5676 27.7266C20.5405 27.8241 20.5397 27.9272 20.5655 28.0251C20.5912 28.1231 20.6425 28.2124 20.7141 28.284C20.7857 28.3557 20.8751 28.407 20.973 28.4327C21.071 28.4584 21.174 28.4577 21.2716 28.4305L24.768 27.4562L27.2856 29.9738C27.3561 30.0444 27.444 30.0952 27.5403 30.1213C27.6367 30.1474 27.7382 30.1478 27.8347 30.1225C27.9313 30.0971 28.0195 30.0469 28.0906 29.9769C28.1617 29.9068 28.2133 29.8194 28.2401 29.7232L29.2175 26.216L32.7247 25.2386C32.8209 25.2117 32.9083 25.1602 32.9784 25.0891C33.0484 25.018 33.0986 24.9298 33.124 24.8332C33.1493 24.7367 33.1489 24.6352 33.1228 24.5388C33.0967 24.4425 33.0459 24.3546 32.9753 24.284L30.4577 21.7663L31.432 18.2701C31.4592 18.1725 31.4599 18.0695 31.4342 17.9715C31.4085 17.8736 31.3572 17.7842 31.2856 17.7126C31.2139 17.641 31.1246 17.5897 31.0266 17.564C30.9287 17.5382 30.8256 17.539 30.7281 17.5661L27.2317 18.5406L24.7141 16.0229C24.6435 15.9523 24.5557 15.9014 24.4594 15.8753C24.363 15.8492 24.2615 15.8488 24.1649 15.8742C24.0684 15.8995 23.9802 15.9497 23.909 16.0198C23.8379 16.0898 23.7864 16.1773 23.7596 16.2735L22.7822 19.7807L19.2749 20.7581C19.1788 20.7849 19.0913 20.8365 19.0213 20.9076C18.9512 20.9787 18.901 21.067 18.8757 21.1635ZM23.3997 20.7951C23.4944 20.7686 23.5807 20.7182 23.6503 20.6487C23.7199 20.5791 23.7703 20.4928 23.7967 20.398L24.5978 17.5229L26.6597 19.5847C26.7313 19.6563 26.8207 19.7076 26.9186 19.7334C27.0166 19.7591 27.1196 19.7584 27.2172 19.7312L30.0593 18.939L29.2671 21.781C29.24 21.8785 29.2392 21.9816 29.2649 22.0795C29.2907 22.1775 29.342 22.2669 29.4136 22.3385L31.4753 24.4003L28.6 25.2015C28.5053 25.2279 28.4189 25.2783 28.3494 25.3478C28.2798 25.4174 28.2294 25.5037 28.203 25.5985L27.4019 28.4738L25.34 26.4121C25.2869 26.359 25.224 26.3169 25.1546 26.2881C25.0853 26.2594 25.011 26.2447 24.9359 26.2447C24.8841 26.2448 24.8325 26.2518 24.7825 26.2656L21.9404 27.0578L22.7325 24.2157C22.7597 24.1181 22.7605 24.0151 22.7347 23.9171C22.709 23.8192 22.6577 23.7298 22.5861 23.6582L20.5244 21.5964L23.3997 20.7951Z" fill="#1A1917"/>
<path d="M33.3912 13.1047L32.6878 15.6079C32.6604 15.7056 32.6595 15.8088 32.6852 15.907C32.7109 16.0051 32.7622 16.0947 32.834 16.1664C32.9058 16.2382 32.9953 16.2895 33.0935 16.3152C33.1917 16.3409 33.2949 16.3399 33.3926 16.3125L35.8962 15.6094L37.6912 17.4046C37.7983 17.5117 37.9436 17.572 38.0951 17.572C38.2193 17.5701 38.3396 17.5287 38.4386 17.4537C38.5375 17.3787 38.61 17.2741 38.6454 17.1551L39.3524 14.6387L41.8689 13.9317C41.9649 13.9047 42.0521 13.853 42.122 13.7819C42.1918 13.7107 42.2418 13.6226 42.2671 13.5261C42.2923 13.4296 42.2918 13.3282 42.2657 13.232C42.2396 13.1358 42.1888 13.0481 42.1183 12.9775L40.3231 11.1822L41.0265 8.679C41.0539 8.5813 41.0548 8.47806 41.0291 8.37989C41.0035 8.28173 40.9521 8.19217 40.8803 8.12042C40.8086 8.04868 40.719 7.99733 40.6208 7.97165C40.5227 7.94598 40.4194 7.94691 40.3217 7.97434L37.8181 8.67747L36.0232 6.88227C35.9527 6.81174 35.8649 6.76089 35.7687 6.73478C35.6724 6.70867 35.571 6.7082 35.4745 6.73342C35.3781 6.75864 35.2899 6.80867 35.2187 6.87854C35.1475 6.94841 35.0959 7.03569 35.0689 7.13169L34.3619 9.64818L31.8455 10.3552C31.7495 10.3822 31.6622 10.4338 31.5924 10.505C31.5225 10.5761 31.4725 10.6643 31.4473 10.7608C31.4221 10.8572 31.4225 10.9586 31.4486 11.0548C31.4747 11.1511 31.5255 11.2388 31.596 11.3093L33.3912 13.1047ZM34.9799 10.6617C35.0743 10.6352 35.1602 10.5849 35.2295 10.5157C35.2988 10.4464 35.3491 10.3605 35.3756 10.2662L35.9052 8.3806L37.2467 9.72212C37.3184 9.79393 37.408 9.84532 37.5061 9.87099C37.6043 9.89667 37.7076 9.8957 37.8053 9.86818L39.651 9.34977L39.1323 11.1952C39.1049 11.2929 39.1039 11.3961 39.1296 11.4943C39.1553 11.5925 39.2067 11.6821 39.2785 11.7538L40.62 13.0954L38.7344 13.6252C38.6401 13.6516 38.5542 13.7019 38.4849 13.7712C38.4156 13.8405 38.3653 13.9264 38.3388 14.0207L37.8092 15.9063L36.4677 14.5647C36.3959 14.493 36.3064 14.4416 36.2082 14.4159C36.11 14.3902 36.0067 14.3912 35.9091 14.4187L34.0633 14.9371L34.582 13.0917C34.6095 12.994 34.6104 12.8907 34.5847 12.7925C34.559 12.6944 34.5076 12.6048 34.4358 12.5331L33.0943 11.1914L34.9799 10.6617Z" fill="#1A1917"/>
<path d="M15.5866 16.4384C15.6875 16.6099 15.8315 16.7521 16.0042 16.8509C16.177 16.9497 16.3726 17.0017 16.5716 17.0017H16.8512L17.0007 17.2709C17.0997 17.4491 17.2445 17.5975 17.4201 17.7009C17.5958 17.8043 17.7959 17.8588 17.9998 17.8588C18.2036 17.8588 18.4037 17.8043 18.5794 17.7009C18.7551 17.5975 18.8999 17.4491 18.9989 17.2709L19.1484 17.0017H19.428C19.627 17.0017 19.8226 16.9497 19.9953 16.8509C20.1681 16.7521 20.312 16.6099 20.413 16.4384C20.5139 16.2669 20.5683 16.072 20.5708 15.873C20.5732 15.6741 20.5237 15.4779 20.4271 15.3039L20.2592 15.0017L20.4088 14.7324C20.5128 14.559 20.5689 14.3612 20.5715 14.159C20.574 13.9568 20.5229 13.7576 20.4234 13.5817C20.3238 13.4057 20.1793 13.2593 20.0047 13.1574C19.8301 13.0555 19.6316 13.0018 19.4294 13.0017H19.1484L18.9989 12.7325C18.8999 12.5543 18.7551 12.4058 18.5794 12.3024C18.4037 12.199 18.2036 12.1445 17.9998 12.1445C17.7959 12.1445 17.5958 12.199 17.4201 12.3024C17.2445 12.4058 17.0996 12.5543 17.0007 12.7325L16.8512 13.0017H16.5716C16.3726 13.0017 16.177 13.0536 16.0043 13.1524C15.8315 13.2512 15.6875 13.3934 15.5866 13.5649C15.4857 13.7364 15.4313 13.9313 15.4288 14.1303C15.4263 14.3293 15.4758 14.5255 15.5725 14.6994L15.7403 15.0017L15.5725 15.3039C15.4758 15.4779 15.4263 15.6741 15.4288 15.873C15.4313 16.072 15.4857 16.2669 15.5866 16.4384ZM16.5716 14.1445H17.5237L17.9998 13.2874L18.4758 14.1445H19.428L18.9519 15.0017L19.428 15.8588H18.4759L17.9998 16.716L17.5237 15.8588H16.5716L17.0476 15.0017L16.5716 14.1445Z" fill="#E53935"/>
<path d="M37.1429 29.8555C37.143 29.7054 37.1135 29.5568 37.0561 29.4182C36.9988 29.2795 36.9146 29.1535 36.8086 29.0474C36.7025 28.9413 36.5766 28.8571 36.438 28.7996C36.2994 28.7422 36.1508 28.7126 36.0007 28.7126H35.7197L35.5702 28.4434C35.4712 28.2652 35.3264 28.1167 35.1507 28.0134C34.975 27.91 34.7749 27.8555 34.5711 27.8555C34.3672 27.8555 34.1671 27.91 33.9915 28.0134C33.8158 28.1167 33.671 28.2652 33.572 28.4434L33.4225 28.7126H33.1429C32.9439 28.7126 32.7483 28.7646 32.5755 28.8634C32.4028 28.9621 32.2588 29.1043 32.1579 29.2758C32.057 29.4473 32.0026 29.6422 32.0001 29.8412C31.9976 30.0402 32.0471 30.2364 32.1438 30.4104L32.3116 30.7126L32.1438 31.0148C32.0471 31.1888 31.9976 31.385 32.0001 31.584C32.0026 31.783 32.057 31.9779 32.1579 32.1494C32.2588 32.3209 32.4028 32.4631 32.5755 32.5619C32.7483 32.6606 32.9439 32.7126 33.1429 32.7126H33.4225L33.572 32.9818C33.671 33.16 33.8158 33.3085 33.9915 33.4119C34.1671 33.5152 34.3672 33.5697 34.5711 33.5697C34.7749 33.5697 34.975 33.5152 35.1507 33.4119C35.3264 33.3085 35.4712 33.16 35.5702 32.9818L35.7197 32.7126H35.9993C36.1983 32.7126 36.3939 32.6606 36.5666 32.5619C36.7394 32.4631 36.8833 32.3209 36.9843 32.1494C37.0852 31.9779 37.1396 31.783 37.1421 31.584C37.1445 31.385 37.095 31.1888 36.9984 31.0148L36.8305 30.7126L36.9801 30.4433C37.0869 30.2659 37.1432 30.0626 37.1429 29.8555ZM35.9993 31.5697H35.0472L34.5711 32.4269L34.095 31.5697H33.1429L33.6189 30.7126L33.1429 29.8555H34.095L34.5711 28.9983L35.0472 29.8555H35.9993L35.5232 30.7126L35.9993 31.5697Z" fill="#E53935"/>
<path d="M0.571429 43.2874C0.88702 43.2874 1.14286 43.0316 1.14286 42.716C1.14286 42.4004 0.88702 42.1445 0.571429 42.1445C0.255837 42.1445 0 42.4004 0 42.716C0 43.0316 0.255837 43.2874 0.571429 43.2874Z" fill="#1A1917"/>
<path d="M3.14293 42.1445H2.28578C2.13423 42.1445 1.98889 42.2047 1.88172 42.3119C1.77456 42.4191 1.71436 42.5644 1.71436 42.716C1.71436 42.8675 1.77456 43.0129 1.88172 43.12C1.98889 43.2272 2.13423 43.2874 2.28578 43.2874H3.14293C3.29448 43.2874 3.43982 43.2272 3.54699 43.12C3.65415 43.0129 3.71436 42.8675 3.71436 42.716C3.71436 42.5644 3.65415 42.4191 3.54699 42.3119C3.43982 42.2047 3.29448 42.1445 3.14293 42.1445Z" fill="#1A1917"/>
<path d="M45.7142 42.1445H44.8571C44.7055 42.1445 44.5602 42.2047 44.453 42.3119C44.3458 42.4191 44.2856 42.5644 44.2856 42.716C44.2856 42.8675 44.3458 43.0129 44.453 43.12C44.5602 43.2272 44.7055 43.2874 44.8571 43.2874H45.7142C45.8658 43.2874 46.0111 43.2272 46.1183 43.12C46.2254 43.0129 46.2856 42.8675 46.2856 42.716C46.2856 42.5644 46.2254 42.4191 46.1183 42.3119C46.0111 42.2047 45.8658 42.1445 45.7142 42.1445Z" fill="#1A1917"/>
<path d="M47.4284 43.2874C47.744 43.2874 47.9998 43.0316 47.9998 42.716C47.9998 42.4004 47.744 42.1445 47.4284 42.1445C47.1128 42.1445 46.8569 42.4004 46.8569 42.716C46.8569 43.0316 47.1128 43.2874 47.4284 43.2874Z" fill="#1A1917"/>
<path d="M33.758 44.4297H31.3844C31.2408 44.4412 31.1067 44.5064 31.009 44.6123C30.9112 44.7182 30.8569 44.857 30.8569 45.0011C30.8569 45.1452 30.9112 45.2841 31.009 45.3899C31.1067 45.4958 31.2408 45.561 31.3844 45.5725H33.758C33.9017 45.561 34.0357 45.4958 34.1335 45.3899C34.2312 45.2841 34.2855 45.1452 34.2855 45.0011C34.2855 44.857 34.2312 44.7182 34.1335 44.6123C34.0357 44.5064 33.9017 44.4412 33.758 44.4297Z" fill="#E53935"/>
<path d="M16.6155 44.4297H14.2418C14.0982 44.4412 13.9641 44.5064 13.8664 44.6123C13.7686 44.7182 13.7144 44.857 13.7144 45.0011C13.7144 45.1452 13.7686 45.2841 13.8664 45.3899C13.9641 45.4958 14.0982 45.561 14.2418 45.5725H16.6155C16.7591 45.561 16.8932 45.4958 16.9909 45.3899C17.0887 45.2841 17.1429 45.1452 17.1429 45.0011C17.1429 44.857 17.0887 44.7182 16.9909 44.6123C16.8932 44.5064 16.7591 44.4412 16.6155 44.4297Z" fill="#E53935"/>
<path d="M29.7144 44.4297H18.2858C18.1342 44.4297 17.9889 44.4899 17.8817 44.5971C17.7746 44.7042 17.7144 44.8496 17.7144 45.0011C17.7144 45.1527 17.7746 45.298 17.8817 45.4052C17.9889 45.5123 18.1342 45.5725 18.2858 45.5725H22.8401V46.144H20.5715C20.4199 46.144 20.2746 46.2042 20.1674 46.3113C20.0603 46.4185 20.0001 46.5638 20.0001 46.7154C20.0001 46.867 20.0603 47.0123 20.1674 47.1195C20.2746 47.2266 20.4199 47.2868 20.5715 47.2868H27.7144C27.8659 47.2868 28.0113 47.2266 28.1184 47.1195C28.2256 47.0123 28.2858 46.867 28.2858 46.7154C28.2858 46.5638 28.2256 46.4185 28.1184 46.3113C28.0113 46.2042 27.8659 46.144 27.7144 46.144H25.1601V45.5725H29.7144C29.8659 45.5725 30.0113 45.5123 30.1184 45.4052C30.2256 45.298 30.2858 45.1527 30.2858 45.0011C30.2858 44.8496 30.2256 44.7042 30.1184 44.5971C30.0113 44.4899 29.8659 44.4297 29.7144 44.4297Z" fill="#E53935"/>
<path d="M43.0631 42.1435H32.1785C36.1038 40.8047 39.5669 38.3761 42.1628 35.1416C42.2402 35.0435 42.2833 34.9227 42.2855 34.7978C42.2877 34.6728 42.2489 34.5506 42.175 34.4498C42.1011 34.349 41.9962 34.2753 41.8764 34.2398C41.7565 34.2043 41.6284 34.2091 41.5115 34.2535C34.0793 37.0724 25.5143 35.1318 19.6915 29.309C13.869 23.4863 11.9281 14.9215 14.747 7.48915C14.788 7.37269 14.7904 7.24613 14.754 7.12817C14.7175 7.01022 14.6441 6.90712 14.5445 6.8341C14.445 6.76107 14.3246 6.72201 14.2011 6.72266C14.0777 6.72332 13.9577 6.76367 13.8589 6.83774C13.1999 7.35835 12.5721 7.91721 11.9786 8.51143C8.0702 12.378 5.82397 17.6165 5.71746 23.1133C5.6113 27.257 6.81712 31.3284 9.16275 34.746C11.5084 38.1636 14.8739 40.7527 18.7786 42.1435H4.93659C4.8553 42.1329 4.77268 42.1398 4.69424 42.1636C4.6158 42.1875 4.54336 42.2278 4.48175 42.2819C4.42013 42.336 4.37077 42.4026 4.33695 42.4773C4.30314 42.5519 4.28564 42.633 4.28564 42.715C4.28564 42.797 4.30314 42.878 4.33695 42.9527C4.37077 43.0274 4.42013 43.094 4.48175 43.1481C4.54336 43.2021 4.6158 43.2425 4.69424 43.2663C4.77268 43.2902 4.8553 43.297 4.93659 43.2864H43.0631C43.1444 43.297 43.227 43.2902 43.3054 43.2663C43.3839 43.2425 43.4563 43.2021 43.5179 43.1481C43.5795 43.094 43.6289 43.0274 43.6627 42.9527C43.6965 42.878 43.714 42.797 43.714 42.715C43.714 42.633 43.6965 42.5519 43.6627 42.4773C43.6289 42.4026 43.5795 42.336 43.5179 42.2819C43.4563 42.2278 43.3839 42.1875 43.3054 42.1636C43.227 42.1398 43.1444 42.1329 43.0631 42.1435ZM6.86004 23.1336C6.96198 17.933 9.08817 12.9771 12.7867 9.31947C12.8695 9.23674 12.9529 9.15476 13.0367 9.07352C11.0699 16.4259 13.256 24.4897 18.8835 30.117C24.5113 35.7448 32.5757 37.9301 39.9267 35.9639C39.8455 36.0478 39.7636 36.1312 39.6809 36.2139C36.0233 39.9124 31.0674 42.0386 25.8667 42.1405C23.353 42.2055 20.8523 41.7583 18.5169 40.8262C16.1815 39.894 14.0602 38.4963 12.2821 36.7183C10.5041 34.9402 9.10644 32.8189 8.17429 30.4835C7.24214 28.1481 6.79498 25.6474 6.86004 23.1336Z" fill="#1A1917"/>
</svg>
