<svg width="48" height="48" viewBox="0 0 48 48" fill="none" xmlns="http://www.w3.org/2000/svg">
<path d="M6.50909 24.8581C6.60633 24.8165 16.3874 20.745 27.9522 24.8709C28.0231 24.8963 28.0983 24.9073 28.1734 24.9033C28.2486 24.8994 28.3223 24.8806 28.3901 24.8479C28.4579 24.8153 28.5186 24.7696 28.5687 24.7133C28.6187 24.6571 28.657 24.5915 28.6815 24.5203C28.7323 24.3766 28.7242 24.2187 28.659 24.081C28.5939 23.9433 28.4769 23.8369 28.3336 23.7852C27.8583 23.6156 27.3878 23.4637 26.9197 23.3197C29.7644 22.4977 36.1439 21.162 41.4695 23.705C41.5374 23.7374 41.6111 23.7559 41.6862 23.7597C41.7613 23.7634 41.8364 23.7522 41.9072 23.7267C41.978 23.7012 42.043 23.662 42.0985 23.6113C42.154 23.5605 42.199 23.4993 42.2307 23.4311C42.2957 23.2932 42.3036 23.1353 42.2527 22.9916C42.2018 22.8479 42.0962 22.7302 41.9589 22.664C34.4647 19.0861 25.3891 22.5841 25.0065 22.7348C24.9813 22.7456 24.9569 22.7581 24.9336 22.7724C14.5231 20.2615 6.43605 23.6378 6.06224 23.7981C5.92248 23.8586 5.8123 23.9719 5.7557 24.1133C5.6991 24.2547 5.70067 24.4127 5.76006 24.553C5.78901 24.6224 5.8314 24.6853 5.88478 24.7383C5.93816 24.7912 6.00148 24.833 6.07109 24.8614C6.14071 24.8898 6.21525 24.9041 6.29042 24.9035C6.36559 24.9029 6.4399 24.8875 6.50909 24.8581Z" fill="#E53935"/>
<path d="M5.94335 22.7823C6.00333 22.8276 6.0717 22.8605 6.14451 22.8792C6.21731 22.898 6.29311 22.902 6.3675 22.8913C6.44189 22.8805 6.51341 22.8551 6.57792 22.8165C6.64242 22.7779 6.69863 22.7269 6.74329 22.6664L12.5238 14.8869L13.3511 15.5667L20.2898 21.326C20.3476 21.3741 20.4144 21.4102 20.4862 21.4322C20.5581 21.4543 20.6336 21.4619 20.7084 21.4546C20.7832 21.4473 20.8558 21.4253 20.922 21.3897C20.9883 21.3542 21.0468 21.3059 21.0942 21.2475C21.1906 21.1294 21.2365 20.978 21.2219 20.8262C21.2073 20.6744 21.1335 20.5345 21.0164 20.4368L14.5321 15.0548L17.7874 11.3051L19.2368 12.4528L21.6401 14.4175C21.6982 14.4652 21.7653 14.5008 21.8373 14.5224C21.9093 14.5439 21.9848 14.551 22.0596 14.5431C22.1343 14.5352 22.2068 14.5126 22.2727 14.4766C22.3387 14.4405 22.3968 14.3917 22.4438 14.333C22.5393 14.2142 22.5841 14.0624 22.5684 13.9108C22.5527 13.7591 22.4778 13.6198 22.36 13.523L20.4594 11.9693L25.183 7.52149L26.8571 8.78694H26.5714C26.4195 8.78816 26.2742 8.84937 26.1672 8.95725C26.0602 9.06512 26.0001 9.21092 26.0001 9.36287C26.0001 9.51481 26.0602 9.66061 26.1672 9.76848C26.2742 9.87636 26.4195 9.93757 26.5714 9.93879H29.9966L33.4732 14.702L22.3449 18.3905C22.2156 18.4339 22.1059 18.5217 22.0352 18.6384C21.9645 18.755 21.9375 18.8929 21.9589 19.0276C21.9803 19.1623 22.0487 19.2851 22.1521 19.3741C22.2554 19.463 22.3869 19.5125 22.5233 19.5137C22.5841 19.5137 22.6444 19.5039 22.702 19.4847L34.5759 15.5491L36.7407 14.8763L41.2749 20.3706C41.3226 20.4287 41.3813 20.4767 41.4477 20.5119C41.5141 20.5472 41.5868 20.5689 41.6617 20.5758C41.7365 20.5827 41.812 20.5748 41.8837 20.5523C41.9555 20.5299 42.022 20.4934 42.0796 20.4451C42.1962 20.3469 42.2694 20.2066 42.2832 20.0548C42.2971 19.9029 42.2505 19.7518 42.1535 19.6341L37.3758 13.8446C37.304 13.7573 37.2079 13.6933 37.0997 13.6609C36.9914 13.6284 36.876 13.629 36.7681 13.6625L34.6203 14.33L30.7459 9.02163C30.6932 8.94901 30.6239 8.8899 30.544 8.84912C30.464 8.80833 30.3755 8.78703 30.2857 8.78694H28.7619L25.4858 6.31043C25.3786 6.22933 25.2462 6.18884 25.112 6.19615C24.9778 6.20347 24.8505 6.2581 24.7528 6.35036L19.5578 11.2421L18.0674 10.0618C17.9526 9.97071 17.807 9.9275 17.661 9.94123C17.5151 9.95496 17.3801 10.0246 17.2842 10.1355L13.6477 14.3243L12.7844 13.6148C12.7248 13.5658 12.6559 13.5294 12.5818 13.5079C12.5077 13.4863 12.43 13.4801 12.3534 13.4896C12.2768 13.4991 12.203 13.524 12.1364 13.563C12.0697 13.6019 12.0118 13.654 11.9659 13.7161L5.8284 21.976C5.73753 22.0985 5.69863 22.2518 5.72015 22.4028C5.74168 22.5537 5.82188 22.6901 5.94335 22.7823Z" fill="#1A1917"/>
<path d="M9.71432 31.5369C9.71491 31.3847 9.65503 31.2386 9.54787 31.1306C9.44071 31.0226 9.29503 30.9615 9.14289 30.9609H8.00003C7.84809 30.9622 7.70278 31.0234 7.59577 31.1312C7.48876 31.2391 7.42871 31.3849 7.42871 31.5369C7.42871 31.6888 7.48876 31.8346 7.59577 31.9425C7.70278 32.0504 7.84809 32.1116 8.00003 32.1128H9.14289C9.29503 32.1122 9.44071 32.0512 9.54787 31.9432C9.65503 31.8352 9.7149 31.689 9.71432 31.5369Z" fill="#1A1917"/>
<path d="M13.9999 34.4158C14.0005 34.2636 13.9407 34.1175 13.8335 34.0095C13.7263 33.9015 13.5807 33.8405 13.4285 33.8398H12.2857C12.1337 33.8411 11.9884 33.9023 11.8814 34.0102C11.7744 34.118 11.7144 34.2638 11.7144 34.4158C11.7144 34.5677 11.7744 34.7135 11.8814 34.8214C11.9884 34.9293 12.1337 34.9905 12.2857 34.9917H13.4285C13.5807 34.9911 13.7263 34.9301 13.8335 34.8221C13.9407 34.7141 14.0005 34.5679 13.9999 34.4158Z" fill="#E53935"/>
<path d="M16 30.9609C15.8481 30.9622 15.7028 31.0234 15.5958 31.1312C15.4888 31.2391 15.4287 31.3849 15.4287 31.5369C15.4287 31.6888 15.4888 31.8346 15.5958 31.9425C15.7028 32.0504 15.8481 32.1116 16 32.1128H17.1429C17.2948 32.1116 17.4401 32.0504 17.5471 31.9425C17.6541 31.8346 17.7142 31.6888 17.7142 31.5369C17.7142 31.3849 17.6541 31.2391 17.5471 31.1312C17.4401 31.0234 17.2948 30.9622 17.1429 30.9609H16Z" fill="#E53935"/>
<path d="M7.71438 36.7188C7.56244 36.72 7.41713 36.7812 7.31012 36.8891C7.20311 36.9969 7.14307 37.1427 7.14307 37.2947C7.14307 37.4466 7.20311 37.5924 7.31012 37.7003C7.41713 37.8082 7.56244 37.8694 7.71438 37.8706H8.85724C9.00918 37.8694 9.15448 37.8082 9.26149 37.7003C9.3685 37.5924 9.42855 37.4466 9.42855 37.2947C9.42855 37.1427 9.3685 36.9969 9.26149 36.8891C9.15448 36.7812 9.00918 36.72 8.85724 36.7188H7.71438Z" fill="#1A1917"/>
<path d="M13.4287 40.7534H14.5716C14.7235 40.7522 14.8688 40.691 14.9758 40.5831C15.0829 40.4752 15.1429 40.3294 15.1429 40.1775C15.1429 40.0255 15.0829 39.8798 14.9758 39.7719C14.8688 39.664 14.7235 39.6028 14.5716 39.6016H13.4287C13.2768 39.6028 13.1315 39.664 13.0245 39.7719C12.9175 39.8798 12.8574 40.0255 12.8574 40.1775C12.8574 40.3294 12.9175 40.4752 13.0245 40.5831C13.1315 40.691 13.2768 40.7522 13.4287 40.7534Z" fill="#E53935"/>
<path d="M40.5711 29.8081C40.723 29.8069 40.8683 29.7457 40.9754 29.6378C41.0824 29.5299 41.1424 29.3841 41.1424 29.2322C41.1424 29.0802 41.0824 28.9344 40.9754 28.8266C40.8683 28.7187 40.723 28.6575 40.5711 28.6562H39.4282C39.2763 28.6575 39.131 28.7187 39.024 28.8266C38.917 28.9344 38.8569 29.0802 38.8569 29.2322C38.8569 29.3841 38.917 29.5299 39.024 29.6378C39.131 29.7457 39.2763 29.8069 39.4282 29.8081H40.5711Z" fill="#1A1917"/>
<path d="M41.7142 35.5698C41.8661 35.5686 42.0114 35.5074 42.1184 35.3995C42.2255 35.2916 42.2855 35.1458 42.2855 34.9939C42.2855 34.8419 42.2255 34.6962 42.1184 34.5883C42.0114 34.4804 41.8661 34.4192 41.7142 34.418H40.5713C40.4194 34.4192 40.2741 34.4804 40.1671 34.5883C40.06 34.6962 40 34.8419 40 34.9939C40 35.1458 40.06 35.2916 40.1671 35.3995C40.2741 35.5074 40.4194 35.5686 40.5713 35.5698H41.7142Z" fill="#1A1917"/>
<path d="M36.5711 32.6909C36.723 32.6897 36.8683 32.6285 36.9754 32.5206C37.0824 32.4127 37.1424 32.2669 37.1424 32.115C37.1424 31.963 37.0824 31.8172 36.9754 31.7094C36.8683 31.6015 36.723 31.5403 36.5711 31.5391H35.4283C35.2763 31.5403 35.131 31.6015 35.024 31.7094C34.917 31.8172 34.8569 31.963 34.8569 32.115C34.8569 32.2669 34.917 32.4127 35.024 32.5206C35.131 32.6285 35.2763 32.6897 35.4283 32.6909H36.5711Z" fill="#E53935"/>
<path d="M0.571429 42.7679C0.88702 42.7679 1.14286 42.512 1.14286 42.1964C1.14286 41.8808 0.88702 41.625 0.571429 41.625C0.255837 41.625 0 41.8808 0 42.1964C0 42.512 0.255837 42.7679 0.571429 42.7679Z" fill="#1A1917"/>
<path d="M3.14293 41.625H2.28578C2.13423 41.625 1.98889 41.6852 1.88172 41.7924C1.77456 41.8995 1.71436 42.0449 1.71436 42.1964C1.71436 42.348 1.77456 42.4933 1.88172 42.6005C1.98889 42.7077 2.13423 42.7679 2.28578 42.7679H3.14293C3.29448 42.7679 3.43982 42.7077 3.54699 42.6005C3.65415 42.4933 3.71436 42.348 3.71436 42.1964C3.71436 42.0449 3.65415 41.8995 3.54699 41.7924C3.43982 41.6852 3.29448 41.625 3.14293 41.625Z" fill="#1A1917"/>
<path d="M45.7142 41.625H44.8571C44.7055 41.625 44.5602 41.6852 44.453 41.7924C44.3458 41.8995 44.2856 42.0449 44.2856 42.1964C44.2856 42.348 44.3458 42.4933 44.453 42.6005C44.5602 42.7077 44.7055 42.7679 44.8571 42.7679H45.7142C45.8658 42.7679 46.0111 42.7077 46.1183 42.6005C46.2254 42.4933 46.2856 42.348 46.2856 42.1964C46.2856 42.0449 46.2254 41.8995 46.1183 41.7924C46.0111 41.6852 45.8658 41.625 45.7142 41.625Z" fill="#1A1917"/>
<path d="M47.4284 42.7679C47.744 42.7679 47.9998 42.512 47.9998 42.1964C47.9998 41.8808 47.744 41.625 47.4284 41.625C47.1128 41.625 46.8569 41.8808 46.8569 42.1964C46.8569 42.512 47.1128 42.7679 47.4284 42.7679Z" fill="#1A1917"/>
<path d="M33.758 43.9102H31.3844C31.2408 43.9217 31.1067 43.9869 31.009 44.0928C30.9112 44.1986 30.8569 44.3375 30.8569 44.4816C30.8569 44.6257 30.9112 44.7645 31.009 44.8704C31.1067 44.9763 31.2408 45.0415 31.3844 45.053H33.758C33.9017 45.0415 34.0357 44.9763 34.1335 44.8704C34.2312 44.7645 34.2855 44.6257 34.2855 44.4816C34.2855 44.3375 34.2312 44.1986 34.1335 44.0928C34.0357 43.9869 33.9017 43.9217 33.758 43.9102Z" fill="#E53935"/>
<path d="M16.6155 43.9102H14.2418C14.0982 43.9217 13.9641 43.9869 13.8664 44.0928C13.7686 44.1986 13.7144 44.3375 13.7144 44.4816C13.7144 44.6257 13.7686 44.7645 13.8664 44.8704C13.9641 44.9763 14.0982 45.0415 14.2418 45.053H16.6155C16.7591 45.0415 16.8932 44.9763 16.9909 44.8704C17.0887 44.7645 17.1429 44.6257 17.1429 44.4816C17.1429 44.3375 17.0887 44.1986 16.9909 44.0928C16.8932 43.9869 16.7591 43.9217 16.6155 43.9102Z" fill="#E53935"/>
<path d="M29.7144 43.9102H18.2858C18.1342 43.9102 17.9889 43.9704 17.8817 44.0775C17.7746 44.1847 17.7144 44.33 17.7144 44.4816C17.7144 44.6331 17.7746 44.7785 17.8817 44.8856C17.9889 44.9928 18.1342 45.053 18.2858 45.053H22.8401V45.6244H20.5715C20.4199 45.6244 20.2746 45.6846 20.1674 45.7918C20.0603 45.899 20.0001 46.0443 20.0001 46.1959C20.0001 46.3474 20.0603 46.4928 20.1674 46.5999C20.2746 46.7071 20.4199 46.7673 20.5715 46.7673H27.7144C27.8659 46.7673 28.0113 46.7071 28.1184 46.5999C28.2256 46.4928 28.2858 46.3474 28.2858 46.1959C28.2858 46.0443 28.2256 45.899 28.1184 45.7918C28.0113 45.6846 27.8659 45.6244 27.7144 45.6244H25.1601V45.053H29.7144C29.8659 45.053 30.0113 44.9928 30.1184 44.8856C30.2256 44.7785 30.2858 44.6331 30.2858 44.4816C30.2858 44.33 30.2256 44.1847 30.1184 44.0775C30.0113 43.9704 29.8659 43.9102 29.7144 43.9102Z" fill="#E53935"/>
<path d="M43.0631 41.6261H39.6524C40.0356 41.085 40.2502 40.4426 40.2692 39.7798C40.2645 39.3569 40.1677 38.9401 39.9856 38.5583C39.8034 38.1766 39.5403 37.8392 39.2144 37.5695C38.0868 36.5597 36.7408 36.0502 35.4393 35.5577C34.7786 35.3205 34.1305 35.0496 33.4975 34.7461C32.65 34.3205 31.2729 33.4138 31.572 32.1243C31.8114 31.0917 32.5754 30.1393 33.976 29.1266C34.0993 29.037 34.1823 28.9023 34.2069 28.7518C34.2315 28.6013 34.1957 28.4473 34.1073 28.323C34.0639 28.2617 34.0088 28.2095 33.9451 28.1696C33.8814 28.1296 33.8104 28.1028 33.7363 28.0905C33.6621 28.0781 33.5863 28.0807 33.5131 28.0979C33.4399 28.1151 33.3709 28.1466 33.31 28.1907C32.2788 28.9361 30.8613 30.1277 30.4591 31.8622C30.1048 33.3898 31.0028 34.7801 32.9877 35.777C33.6556 36.0987 34.3398 36.3854 35.0375 36.636C36.2969 37.1125 37.4863 37.5627 38.4552 38.4306C38.6585 38.5913 38.8239 38.7946 38.9399 39.0263C39.0559 39.258 39.1196 39.5124 39.1264 39.7714C39.122 40.3739 38.7651 41.0412 38.1468 41.6262H33.8252C33.98 41.4368 34.0919 41.2161 34.1532 40.9794C34.2145 40.7426 34.2237 40.4954 34.1802 40.2547C33.9109 39.0591 32.1681 38.349 28.696 38.02C22.5019 37.4331 21.4799 35.9822 21.3279 35.3857C21.0859 34.4354 22.1996 33.0592 24.4635 31.5109C24.833 31.2583 25.9569 30.4895 25.6235 29.4971C25.3084 28.5594 23.8456 27.5899 15.3852 27.509C10.8202 27.4648 6.29831 27.7211 6.25311 27.7237C6.10143 27.7335 5.95975 27.8027 5.85894 27.9165C5.75813 28.0302 5.70638 28.1792 5.71495 28.331C5.72353 28.4827 5.79175 28.6249 5.90474 28.7266C6.01772 28.8282 6.16631 28.8811 6.31812 28.8736C6.36234 28.8712 10.8117 28.6179 15.3197 28.6603C23.9941 28.7388 24.523 29.821 24.5391 29.8533C24.539 29.8556 24.5015 30.093 23.8218 30.5578C21.0118 32.4795 19.8339 34.1524 20.2209 35.672C20.6888 37.5092 23.5042 38.6849 28.5892 39.1668C32.7326 39.5593 33.0438 40.4133 33.0657 40.5093C33.134 40.8099 32.6144 41.3281 32.1753 41.6261H4.93659C4.8553 41.6155 4.77268 41.6224 4.69424 41.6462C4.6158 41.6701 4.54336 41.7104 4.48175 41.7645C4.42013 41.8186 4.37077 41.8852 4.33695 41.9599C4.30314 42.0345 4.28564 42.1156 4.28564 42.1976C4.28564 42.2795 4.30314 42.3606 4.33695 42.4353C4.37077 42.51 4.42013 42.5766 4.48175 42.6306C4.54336 42.6847 4.6158 42.7251 4.69424 42.7489C4.77268 42.7728 4.8553 42.7796 4.93659 42.769H43.0631C43.1444 42.7796 43.227 42.7728 43.3054 42.7489C43.3839 42.7251 43.4563 42.6847 43.5179 42.6306C43.5795 42.5766 43.6289 42.51 43.6627 42.4353C43.6965 42.3606 43.714 42.2795 43.714 42.1976C43.714 42.1156 43.6965 42.0345 43.6627 41.9599C43.6289 41.8852 43.5795 41.8186 43.5179 41.7645C43.4563 41.7104 43.3839 41.6701 43.3054 41.6462C43.227 41.6224 43.1444 41.6155 43.0631 41.6261Z" fill="#1A1917"/>
</svg>
