<svg width="48" height="48" viewBox="0 0 48 48" fill="none" xmlns="http://www.w3.org/2000/svg">
<g clip-path="url(#clip0_1223_1508)">
<path d="M0.571429 43.221C0.88702 43.221 1.14286 42.9651 1.14286 42.6496C1.14286 42.334 0.88702 42.0781 0.571429 42.0781C0.255837 42.0781 0 42.334 0 42.6496C0 42.9651 0.255837 43.221 0.571429 43.221Z" fill="#1A1917"/>
<path d="M3.14342 42.0781H2.28627C2.13472 42.0781 1.98937 42.1383 1.88221 42.2455C1.77505 42.3527 1.71484 42.498 1.71484 42.6496C1.71484 42.8011 1.77505 42.9465 1.88221 43.0536C1.98937 43.1608 2.13472 43.221 2.28627 43.221H3.14342C3.29497 43.221 3.44031 43.1608 3.54748 43.0536C3.65464 42.9465 3.71484 42.8011 3.71484 42.6496C3.71484 42.498 3.65464 42.3527 3.54748 42.2455C3.44031 42.1383 3.29497 42.0781 3.14342 42.0781Z" fill="#1A1917"/>
<path d="M45.7137 42.0781H44.8566C44.705 42.0781 44.5597 42.1383 44.4525 42.2455C44.3454 42.3527 44.2852 42.498 44.2852 42.6496C44.2852 42.8011 44.3454 42.9465 44.4525 43.0536C44.5597 43.1608 44.705 43.221 44.8566 43.221H45.7137C45.8653 43.221 46.0106 43.1608 46.1178 43.0536C46.225 42.9465 46.2852 42.8011 46.2852 42.6496C46.2852 42.498 46.225 42.3527 46.1178 42.2455C46.0106 42.1383 45.8653 42.0781 45.7137 42.0781Z" fill="#1A1917"/>
<path d="M47.4289 43.221C47.7444 43.221 48.0003 42.9651 48.0003 42.6496C48.0003 42.334 47.7444 42.0781 47.4289 42.0781C47.1133 42.0781 46.8574 42.334 46.8574 42.6496C46.8574 42.9651 47.1133 43.221 47.4289 43.221Z" fill="#1A1917"/>
<path d="M33.7585 44.3633H31.3849C31.2412 44.3748 31.1072 44.44 31.0094 44.5459C30.9117 44.6518 30.8574 44.7906 30.8574 44.9347C30.8574 45.0788 30.9117 45.2176 31.0094 45.3235C31.1072 45.4294 31.2412 45.4946 31.3849 45.5061H33.7585C33.9022 45.4946 34.0362 45.4294 34.134 45.3235C34.2317 45.2176 34.286 45.0788 34.286 44.9347C34.286 44.7906 34.2317 44.6518 34.134 44.5459C34.0362 44.44 33.9022 44.3748 33.7585 44.3633Z" fill="#E53935"/>
<path d="M16.616 44.3633H14.2423C14.0987 44.3748 13.9646 44.44 13.8669 44.5459C13.7691 44.6518 13.7148 44.7906 13.7148 44.9347C13.7148 45.0788 13.7691 45.2176 13.8669 45.3235C13.9646 45.4294 14.0987 45.4946 14.2423 45.5061H16.616C16.7596 45.4946 16.8937 45.4294 16.9914 45.3235C17.0892 45.2176 17.1434 45.0788 17.1434 44.9347C17.1434 44.7906 17.0892 44.6518 16.9914 44.5459C16.8937 44.44 16.7596 44.3748 16.616 44.3633Z" fill="#E53935"/>
<path d="M29.7148 44.3633H18.2863C18.1347 44.3633 17.9894 44.4235 17.8822 44.5306C17.775 44.6378 17.7148 44.7832 17.7148 44.9347C17.7148 45.0863 17.775 45.2316 17.8822 45.3388C17.9894 45.4459 18.1347 45.5061 18.2863 45.5061H22.8406V46.0776H20.572C20.4204 46.0776 20.2751 46.1378 20.1679 46.2449C20.0608 46.3521 20.0006 46.4974 20.0006 46.649C20.0006 46.8005 20.0608 46.9459 20.1679 47.0531C20.2751 47.1602 20.4204 47.2204 20.572 47.2204H27.7148C27.8664 47.2204 28.0117 47.1602 28.1189 47.0531C28.2261 46.9459 28.2863 46.8005 28.2863 46.649C28.2863 46.4974 28.2261 46.3521 28.1189 46.2449C28.0117 46.1378 27.8664 46.0776 27.7148 46.0776H25.1606V45.5061H29.7148C29.8664 45.5061 30.0117 45.4459 30.1189 45.3388C30.2261 45.2316 30.2863 45.0863 30.2863 44.9347C30.2863 44.7832 30.2261 44.6378 30.1189 44.5306C30.0117 44.4235 29.8664 44.3633 29.7148 44.3633Z" fill="#E53935"/>
<path d="M17.7003 19.6241C18.5313 20.1195 19.4829 20.376 20.4503 20.3651C20.9312 20.3695 21.4105 20.31 21.8757 20.1882C22.0058 20.1498 22.118 20.0662 22.1922 19.9526C22.2665 19.839 22.2978 19.7026 22.2808 19.568C22.0157 17.4862 21.2094 15.9625 19.884 15.0392C17.8624 13.6307 15.4034 14.179 15.2999 14.203C15.1561 14.2363 15.0307 14.324 14.9501 14.4477C14.8695 14.5714 14.8399 14.7215 14.8675 14.8665C15.3008 17.141 16.2538 18.7415 17.7003 19.6241ZM19.2387 15.9826C20.1741 16.6377 20.7868 17.7125 21.0638 19.1821C20.1029 19.3177 19.1242 19.1273 18.2843 18.6413C17.2517 18.0066 16.525 16.8645 16.1193 15.2418C16.8469 15.1854 18.1509 15.2206 19.2387 15.9826Z" fill="#E53935"/>
<path d="M22.2358 24.3762C21.5361 22.7835 20.5496 21.7802 19.3034 21.3946C17.4593 20.8231 15.7683 21.8558 15.6972 21.8999C15.5756 21.9757 15.4868 22.0944 15.4485 22.2325C15.4102 22.3706 15.4252 22.5181 15.4905 22.6457C16.3595 24.3413 17.4696 25.3647 18.7901 25.6876C19.0816 25.7586 19.3805 25.7944 19.6806 25.7941C20.5209 25.7829 21.3406 25.5324 22.0436 25.072C22.1508 24.9959 22.2285 24.885 22.2635 24.7583C22.2985 24.6315 22.2887 24.4966 22.2358 24.3762ZM19.0615 24.5773C18.2056 24.3681 17.4442 23.7169 16.7928 22.6379C17.483 22.3462 18.251 22.2938 18.9745 22.4889C19.7673 22.7375 20.4344 23.3672 20.9623 24.3642C20.369 24.641 19.7014 24.7159 19.0615 24.5773Z" fill="#1A1917"/>
<path d="M19.4715 27.0381C17.7825 26.6224 16.3075 27.6268 16.2456 27.6701C16.1321 27.7489 16.051 27.8661 16.0173 28.0001C15.9836 28.1341 15.9995 28.2758 16.0623 28.3989C16.7366 29.7222 17.6416 30.5387 18.752 30.8258C19.0421 30.9002 19.3405 30.9375 19.64 30.9368C20.4882 30.9183 21.3154 30.6697 22.0334 30.2178C22.1498 30.1392 22.2331 30.0205 22.2676 29.8844C22.3021 29.7483 22.2853 29.6043 22.2203 29.4798C21.5204 28.1369 20.5955 27.3152 19.4715 27.0381ZM19.0379 29.7192C18.3252 29.5006 17.7237 29.0163 17.3582 28.3665C17.9317 28.097 18.577 28.0202 19.1978 28.1478C19.8545 28.3096 20.4318 28.7683 20.9189 29.5133C20.3305 29.783 19.6707 29.8552 19.0379 29.7192Z" fill="#E53935"/>
<path d="M26.1225 20.1881C26.5877 20.3098 27.067 20.3693 27.5479 20.365C28.5153 20.3758 29.4669 20.1194 30.2979 19.6239C31.7444 18.7413 32.6974 17.1409 33.1307 14.8663C33.1583 14.7213 33.1287 14.5712 33.0481 14.4475C32.9675 14.3238 32.8421 14.2361 32.6983 14.2028C32.5945 14.1788 30.1355 13.6311 28.1142 15.039C26.7888 15.9623 25.9825 17.486 25.7174 19.5678C25.7004 19.7024 25.7317 19.8388 25.8059 19.9524C25.8802 20.0661 25.9924 20.1496 26.1225 20.1881ZM28.7595 15.9824C29.8476 15.2204 31.151 15.1847 31.8789 15.2416C31.4732 16.8644 30.7465 18.0064 29.7139 18.6411C28.874 19.1272 27.8953 19.3176 26.9344 19.1819C27.2114 17.7123 27.8241 16.6375 28.7595 15.9824Z" fill="#E53935"/>
<path d="M32.2998 21.9C32.2287 21.8559 30.5383 20.823 28.6936 21.3947C27.4474 21.7803 26.4609 22.7836 25.7612 24.3763C25.7083 24.4967 25.6985 24.6316 25.7335 24.7584C25.7685 24.8852 25.8462 24.996 25.9534 25.0722C26.6564 25.5326 27.4761 25.7831 28.3164 25.7943C28.6165 25.7945 28.9155 25.7587 29.207 25.6877C30.5274 25.3649 31.6375 24.3414 32.5065 22.6458C32.5718 22.5182 32.5868 22.3707 32.5485 22.2326C32.5102 22.0945 32.4215 21.9758 32.2998 21.9ZM28.9475 24.5744C28.3041 24.7171 27.6316 24.6434 27.0345 24.3646C27.5623 23.3676 28.2297 22.7376 29.0226 22.489C29.7461 22.2943 30.5139 22.3468 31.2042 22.638C30.5559 23.7117 29.7984 24.3623 28.9475 24.5744Z" fill="#1A1917"/>
<path d="M28.5265 27.0382C27.4025 27.3152 26.4776 28.1369 25.7777 29.4799C25.7127 29.6044 25.6959 29.7484 25.7304 29.8845C25.7649 30.0206 25.8482 30.1393 25.9646 30.2179C26.6826 30.6698 27.5098 30.9183 28.358 30.9369C28.6575 30.9376 28.9559 30.9003 29.246 30.8258C30.3564 30.5387 31.2614 29.7223 31.9357 28.3989C31.9984 28.2758 32.0144 28.1342 31.9807 28.0002C31.947 27.8662 31.8659 27.7489 31.7524 27.6702C31.6905 27.6272 30.2169 26.6222 28.5265 27.0382ZM28.9684 29.717C28.3333 29.8568 27.6698 29.7856 27.0788 29.5142C27.2363 29.2041 27.4537 28.9282 27.7182 28.7025C27.9828 28.4767 28.2895 28.3056 28.6205 28.1988C28.9515 28.0921 29.3004 28.0519 29.647 28.0806C29.9936 28.1093 30.3312 28.2063 30.6401 28.366C30.2758 29.0133 29.6777 29.4966 28.9684 29.717Z" fill="#E53935"/>
<path d="M43.0626 42.0776H38.8123C39.0907 41.3346 39.1928 40.5371 39.1104 39.748C39.0281 38.9588 38.7636 38.1996 38.3378 37.5301C37.7254 36.48 36.792 35.6543 35.675 35.1747C34.558 34.695 33.3165 34.5867 32.1334 34.8658C31.3804 33.6148 30.1803 32.6967 28.7759 32.2972C27.3715 31.8977 25.8678 32.0467 24.5692 32.714V16.968C24.9721 16.5251 26.9581 14.1905 26.8505 11.2892C26.7849 9.51884 25.9558 7.91058 24.3865 6.50849C24.2836 6.41663 24.1509 6.36507 24.013 6.36333C23.8751 6.36158 23.7412 6.40977 23.636 6.499C23.5392 6.58131 21.2646 8.54619 21.1457 11.4993C21.0721 13.33 21.8401 15.1075 23.4265 16.788V32.7255C22.1322 32.0505 20.6287 31.8961 19.2243 32.294C17.8198 32.6919 16.6208 33.6119 15.8729 34.8655C15.1224 34.6889 14.3438 34.6667 13.5845 34.8001C12.8251 34.9336 12.1008 35.2199 11.4554 35.6417C10.8101 36.0635 10.2571 36.612 9.83016 37.2539C9.40319 37.8959 9.11107 38.6179 8.97155 39.3761C8.75667 40.2772 8.83405 41.2234 9.19251 42.0776H4.93611C4.85481 42.067 4.77219 42.0738 4.69375 42.0977C4.61532 42.1215 4.54287 42.1618 4.48126 42.2159C4.41965 42.27 4.37028 42.3366 4.33647 42.4113C4.30265 42.486 4.28516 42.567 4.28516 42.649C4.28516 42.731 4.30265 42.812 4.33647 42.8867C4.37028 42.9614 4.41965 43.028 4.48126 43.0821C4.54287 43.1362 4.61532 43.1765 4.69375 43.2004C4.77219 43.2242 4.85481 43.2311 4.93611 43.2204H43.0626C43.1439 43.2311 43.2265 43.2242 43.3049 43.2004C43.3834 43.1765 43.4558 43.1362 43.5174 43.0821C43.579 43.028 43.6284 42.9614 43.6622 42.8867C43.696 42.812 43.7135 42.731 43.7135 42.649C43.7135 42.567 43.696 42.486 43.6622 42.4113C43.6284 42.3366 43.579 42.27 43.5174 42.2159C43.4558 42.1618 43.3834 42.1215 43.3049 42.0977C43.2265 42.0738 43.1439 42.0669 43.0626 42.0776ZM22.2871 11.5557C22.3554 9.76214 23.434 8.35952 24.014 7.73034C25.0887 8.82074 25.6581 10.0275 25.7083 11.3241C25.7836 13.2769 24.6707 14.9993 24.0606 15.7909C22.8286 14.4117 22.2324 12.9893 22.2871 11.5557ZM10.0942 39.5893C10.2109 38.951 10.4628 38.345 10.833 37.812C11.2032 37.279 11.683 36.8314 12.2404 36.4991C12.7978 36.1668 13.4198 35.9575 14.0647 35.8853C14.7095 35.8132 15.3624 35.8797 15.9794 36.0806C16.1096 36.1228 16.2506 36.1169 16.3767 36.064C16.5029 36.011 16.6059 35.9146 16.6669 35.7921C16.9426 35.2285 17.3311 34.7274 17.8082 34.3199C18.2852 33.9123 18.8409 33.607 19.4406 33.4227C20.0404 33.2384 20.6716 33.1791 21.2953 33.2484C21.9189 33.3178 22.5216 33.5143 23.0663 33.8258C22.5476 34.3608 22.1365 34.9906 21.8555 35.6808C21.8272 35.7502 21.8128 35.8246 21.8132 35.8996C21.8136 35.9746 21.8288 36.0488 21.8579 36.118C21.887 36.1871 21.9294 36.2498 21.9828 36.3026C22.0361 36.3554 22.0993 36.3971 22.1688 36.4254C22.2382 36.4537 22.3126 36.4681 22.3876 36.4677C22.4626 36.4673 22.5368 36.4521 22.606 36.423C22.6751 36.3939 22.7379 36.3515 22.7906 36.2981C22.8434 36.2448 22.8851 36.1816 22.9134 36.1121C23.2469 35.2856 23.8123 34.5731 24.5415 34.0606C25.2707 33.5481 26.1325 33.2575 27.0231 33.2237C27.9138 33.1899 28.7952 33.4144 29.5611 33.8701C30.327 34.3259 30.9448 34.9935 31.3399 35.7924C31.401 35.9146 31.5039 36.0109 31.6299 36.0639C31.7559 36.1168 31.8967 36.1228 32.0268 36.0809C33.0154 35.7583 34.0849 35.7851 35.056 36.157C36.0272 36.5289 36.841 37.2232 37.3613 38.1236C37.7371 38.7077 37.9535 39.3799 37.9892 40.0735C38.0248 40.7671 37.8785 41.458 37.5647 42.0776H10.4487C10.0081 41.327 9.88074 40.4331 10.0942 39.5893Z" fill="#1A1917"/>
</g>
<defs>
<clipPath id="clip0_1223_1508">
<rect width="48" height="48" fill="white"/>
</clipPath>
</defs>
</svg>
