<svg width="48" height="48" viewBox="0 0 48 48" fill="none" xmlns="http://www.w3.org/2000/svg">
<path d="M0.571429 43.6546C0.88702 43.6546 1.14286 43.3987 1.14286 43.0831C1.14286 42.7676 0.88702 42.5117 0.571429 42.5117C0.255837 42.5117 0 42.7676 0 43.0831C0 43.3987 0.255837 43.6546 0.571429 43.6546Z" fill="#1A1917"/>
<path d="M3.14342 42.5117H2.28627C2.13472 42.5117 1.98937 42.5719 1.88221 42.6791C1.77505 42.7862 1.71484 42.9316 1.71484 43.0831C1.71484 43.2347 1.77505 43.38 1.88221 43.4872C1.98937 43.5944 2.13472 43.6546 2.28627 43.6546H3.14342C3.29497 43.6546 3.44031 43.5944 3.54748 43.4872C3.65464 43.38 3.71484 43.2347 3.71484 43.0831C3.71484 42.9316 3.65464 42.7862 3.54748 42.6791C3.44031 42.5719 3.29497 42.5117 3.14342 42.5117Z" fill="#1A1917"/>
<path d="M45.7137 42.5117H44.8566C44.705 42.5117 44.5597 42.5719 44.4525 42.6791C44.3454 42.7862 44.2852 42.9316 44.2852 43.0831C44.2852 43.2347 44.3454 43.38 44.4525 43.4872C44.5597 43.5944 44.705 43.6546 44.8566 43.6546H45.7137C45.8653 43.6546 46.0106 43.5944 46.1178 43.4872C46.225 43.38 46.2852 43.2347 46.2852 43.0831C46.2852 42.9316 46.225 42.7862 46.1178 42.6791C46.0106 42.5719 45.8653 42.5117 45.7137 42.5117Z" fill="#1A1917"/>
<path d="M47.4269 43.6546C47.7425 43.6546 47.9983 43.3987 47.9983 43.0831C47.9983 42.7676 47.7425 42.5117 47.4269 42.5117C47.1113 42.5117 46.8555 42.7676 46.8555 43.0831C46.8555 43.3987 47.1113 43.6546 47.4269 43.6546Z" fill="#1A1917"/>
<path d="M33.7566 44.7969H31.3829C31.2393 44.8084 31.1052 44.8736 31.0075 44.9795C30.9097 45.0854 30.8555 45.2242 30.8555 45.3683C30.8555 45.5124 30.9097 45.6512 31.0075 45.7571C31.1052 45.863 31.2393 45.9282 31.3829 45.9397H33.7566C33.9002 45.9282 34.0343 45.863 34.132 45.7571C34.2298 45.6512 34.2841 45.5124 34.2841 45.3683C34.2841 45.2242 34.2298 45.0854 34.132 44.9795C34.0343 44.8736 33.9002 44.8084 33.7566 44.7969Z" fill="#E53935"/>
<path d="M16.616 44.7969H14.2423C14.0987 44.8084 13.9646 44.8736 13.8669 44.9795C13.7691 45.0854 13.7148 45.2242 13.7148 45.3683C13.7148 45.5124 13.7691 45.6512 13.8669 45.7571C13.9646 45.863 14.0987 45.9282 14.2423 45.9397H16.616C16.7596 45.9282 16.8937 45.863 16.9914 45.7571C17.0892 45.6512 17.1434 45.5124 17.1434 45.3683C17.1434 45.2242 17.0892 45.0854 16.9914 44.9795C16.8937 44.8736 16.7596 44.8084 16.616 44.7969Z" fill="#E53935"/>
<path d="M29.7148 44.7969H18.2863C18.1347 44.7969 17.9894 44.8571 17.8822 44.9642C17.775 45.0714 17.7148 45.2168 17.7148 45.3683C17.7148 45.5199 17.775 45.6652 17.8822 45.7724C17.9894 45.8795 18.1347 45.9397 18.2863 45.9397H22.8406V46.5112H20.572C20.4204 46.5112 20.2751 46.5714 20.1679 46.6785C20.0608 46.7857 20.0006 46.931 20.0006 47.0826C20.0006 47.2341 20.0608 47.3795 20.1679 47.4867C20.2751 47.5938 20.4204 47.654 20.572 47.654H27.7148C27.8664 47.654 28.0117 47.5938 28.1189 47.4867C28.2261 47.3795 28.2863 47.2341 28.2863 47.0826C28.2863 46.931 28.2261 46.7857 28.1189 46.6785C28.0117 46.5714 27.8664 46.5112 27.7148 46.5112H25.1606V45.9397H29.7148C29.8664 45.9397 30.0117 45.8795 30.1189 45.7724C30.2261 45.6652 30.2863 45.5199 30.2863 45.3683C30.2863 45.2168 30.2261 45.0714 30.1189 44.9642C30.0117 44.8571 29.8664 44.7969 29.7148 44.7969Z" fill="#E53935"/>
<path d="M32.255 31.9097L32.2706 31.9098C32.8934 31.9098 33.4754 31.2775 33.8142 30.6815C34.1864 30.0263 34.4208 29.1495 33.9615 28.6541C33.89 28.5773 33.7987 28.5218 33.6977 28.4936C33.5967 28.4654 33.4898 28.4657 33.389 28.4943C33.2919 28.8634 33.1758 29.2273 33.0413 29.5845C32.9939 29.7632 32.9236 29.9351 32.832 30.0958C32.5756 30.6825 32.2561 31.2395 31.8789 31.7569C31.9811 31.8525 32.1151 31.9069 32.255 31.9097Z" fill="#1A1917"/>
<path d="M37.4275 25.3701C37.4275 22.7142 36.6399 20.1179 35.1644 17.9096C33.6889 15.7012 31.5916 13.98 29.1379 12.9636C26.6841 11.9472 23.9841 11.6813 21.3792 12.1994C18.7743 12.7176 16.3815 13.9965 14.5035 15.8745C12.6255 17.7525 11.3465 20.1453 10.8284 22.7501C10.3102 25.355 10.5761 28.0551 11.5925 30.5088C12.6089 32.9626 14.33 35.0599 16.5384 36.5354C18.7467 38.011 21.343 38.7986 23.9989 38.7986C27.5591 38.7946 30.9724 37.3785 33.4899 34.8611C36.0074 32.3436 37.4234 28.9304 37.4275 25.3701ZM16.8393 15.3958C16.8633 15.5434 16.8828 15.6914 16.8945 15.7842C16.909 15.8961 16.9219 15.9958 16.9347 16.0731C17.015 16.3932 17.0177 16.7278 16.9425 17.0491C16.8354 17.3586 16.5815 17.5886 16.0943 17.8182C16.0073 17.8592 15.9213 17.8989 15.8354 17.9381C15.1764 18.1871 14.5849 18.587 14.1083 19.1058C13.3225 20.037 13.0525 19.9773 13.0502 19.9768C13.0279 19.9614 13.0084 19.9422 12.9927 19.9201C13.8884 18.1219 15.2086 16.569 16.8393 15.3958ZM15.553 34.2794C15.6448 34.221 15.7294 34.1518 15.8047 34.0732C16.3404 33.5075 16.2796 32.6402 16.1953 32.1736C16.1789 32.0669 16.177 31.9585 16.1897 31.8513C15.8664 31.4228 15.5843 30.9648 15.3471 30.4833C15.2718 30.6804 15.2104 30.8826 15.1635 31.0883L15.1523 31.1394C15.0427 31.5421 15.015 31.9627 15.0709 32.3763C15.1429 32.7769 15.1038 33.1515 14.9749 33.2872C14.8931 33.3516 14.7892 33.3809 14.6858 33.3689C13.5604 32.068 12.7229 30.5438 12.2283 28.8963C11.7336 27.2488 11.5931 25.5154 11.8159 23.8097C12.255 23.845 13.2667 23.9863 13.3136 24.5448C13.2638 25.153 13.2721 25.7646 13.3382 26.3712C13.4369 27.2373 14.0073 27.7754 14.5457 28.2404C14.4137 27.704 14.3271 27.1575 14.2868 26.6066C14.2735 26.3354 14.3255 26.065 14.4386 25.8181C14.4164 25.4116 14.4222 25.0041 14.4559 24.5984C14.4576 24.5771 14.4581 24.5558 14.4576 24.5345C14.4247 23.4932 13.519 22.8135 12.014 22.678C12.1428 22.1038 12.3131 21.5397 12.5234 20.9901C12.6752 21.0688 12.8425 21.1129 13.0134 21.1194C13.0279 21.1199 13.043 21.1201 13.058 21.1201C13.8063 21.1201 14.4777 20.4399 14.9816 19.8426C15.3532 19.4564 15.8083 19.1602 16.3119 18.9767C16.4012 18.9359 16.4916 18.8944 16.5815 18.8518C16.9061 18.7245 17.2014 18.5322 17.449 18.2867C17.6967 18.0412 17.8916 17.7477 18.0218 17.4241C18.167 16.9219 18.1807 16.3908 18.0614 15.8818C18.0508 15.8171 18.0402 15.7336 18.0285 15.6402C17.9969 15.3344 17.9408 15.0316 17.8605 14.7348C19.2427 13.9331 20.769 13.4109 22.3527 13.198C22.356 13.2817 22.356 13.3683 22.3555 13.4099V13.4842C22.3577 13.8382 22.3493 14.0778 22.2204 14.184C22.0696 14.2878 21.9041 14.3683 21.7293 14.4229C21.6138 14.4665 21.4989 14.5108 21.389 14.5612C20.8359 14.7838 20.3282 15.1055 19.8906 15.5103C19.51 15.8986 19.404 16.2903 19.5753 16.6745C19.6316 16.8008 19.7316 16.9024 19.857 16.9605C19.9824 17.0186 20.1246 17.0293 20.2572 16.9906C20.3899 16.9519 20.504 16.8665 20.5785 16.7501C20.653 16.6337 20.6828 16.4942 20.6624 16.3576C20.6741 16.3446 20.6886 16.3289 20.7076 16.3096C21.0496 16.0082 21.4412 15.7683 21.8649 15.6003C21.952 15.5603 22.0435 15.526 22.135 15.4912C22.428 15.3963 22.7027 15.2523 22.9475 15.0656C23.505 14.6064 23.5011 13.9271 23.4983 13.4776V13.4187C23.4994 13.3275 23.5 13.2163 23.4922 13.0974C23.6607 13.0904 23.8292 13.0846 23.9989 13.0846C25.0922 13.0847 26.1805 13.2311 27.2349 13.52C27.1152 14.0063 27.1131 14.5141 27.2288 15.0014L27.245 15.0993C27.3125 15.3516 27.3249 15.6154 27.2813 15.8728L27.2673 15.8738L27.2489 15.8741C26.7757 15.8378 24.8744 15.7673 24.4052 16.8537C24.7013 16.9236 24.9732 17.0717 25.1925 17.2825C25.2137 17.3029 25.2986 17.3866 25.4269 17.5232C25.433 17.4541 25.4381 17.3907 25.4414 17.3387C25.4671 17.1385 26.3153 16.946 27.1819 17.0152C27.1953 17.0163 27.2093 17.017 27.2227 17.0172C27.2606 17.0172 27.2991 17.0169 27.3343 17.0146C27.494 17.0106 27.651 16.9719 27.7944 16.9013C27.9377 16.8307 28.064 16.7298 28.1646 16.6056C28.5692 16.1002 28.4464 15.3569 28.3728 14.9125L28.3555 14.8099C28.2697 14.5048 28.2597 14.1834 28.3264 13.8736C30.0576 14.5297 31.6189 15.5668 32.895 16.9081C34.171 18.2493 35.129 19.8604 35.6981 21.6221C35.5725 21.6564 35.4509 21.6931 35.3376 21.7292C34.9952 21.8764 34.6185 21.925 34.25 21.8694C34.0995 21.8173 33.9582 21.7416 33.8314 21.6451C33.5414 21.4208 33.1957 21.2799 32.8314 21.2374C32.6141 21.2254 32.3969 21.2641 32.197 21.3504C31.9971 21.4368 31.82 21.5683 31.6797 21.7348C31.5395 21.8996 31.44 22.0949 31.389 22.3052C31.338 22.5154 31.3371 22.7346 31.3861 22.9453C31.4331 23.1189 31.5035 23.2852 31.5954 23.4397C31.6099 23.4667 31.6272 23.4982 31.644 23.53C31.6166 23.5284 31.5854 23.5261 31.5491 23.5227C31.4478 23.5047 31.3485 23.4766 31.2528 23.4387C30.9405 23.3023 30.5946 23.2624 30.2595 23.3242C30.0758 23.3658 29.9042 23.4491 29.7578 23.5675C29.6114 23.686 29.4942 23.8365 29.4152 24.0074C29.2749 24.3306 29.2497 24.6922 29.3438 25.0318C29.7556 24.9509 30.1445 24.8961 30.4955 24.8609C30.4927 24.8559 30.4899 24.8518 30.4872 24.8467C30.4578 24.7923 30.4396 24.7326 30.4336 24.6712C30.4275 24.6097 30.4338 24.5476 30.452 24.4885C30.4609 24.4693 30.4704 24.4491 30.5302 24.4347C30.6504 24.4407 30.7685 24.4691 30.8783 24.5186C31.0595 24.5887 31.2486 24.6363 31.4414 24.6603C31.6802 24.6832 32.2439 24.737 32.6088 24.3189C33.0787 23.7793 32.7561 23.1826 32.601 22.8959C32.5623 22.8298 32.5285 22.761 32.5 22.6899C32.4912 22.6517 32.4915 22.6119 32.5009 22.5739C32.5103 22.5358 32.5285 22.5005 32.5541 22.4708C32.58 22.4391 32.6131 22.4142 32.6507 22.3981C32.6884 22.382 32.7293 22.3753 32.7701 22.3785C32.928 22.4226 33.0754 22.498 33.2037 22.6002C33.4456 22.7794 33.7195 22.9107 34.0106 22.9872C34.5733 23.089 35.1532 23.0305 35.6841 22.8182C35.793 22.7836 35.8945 22.7522 35.995 22.7249C36.3444 24.3048 36.378 25.9383 36.0939 27.5313C35.8099 29.1243 35.2137 30.6454 34.3397 32.0072C33.4657 33.3689 32.3311 34.5445 31.0012 35.4663C29.6713 36.3881 28.1723 37.0379 26.5904 37.3783C23.6367 34.4414 20.077 36.2957 19.3376 36.7348C17.9357 36.1562 16.6527 35.3238 15.553 34.2794ZM25.0871 37.6049C24.7282 37.6364 24.3661 37.6557 23.9989 37.6557C22.9409 37.656 21.8873 37.5193 20.8644 37.249C21.8867 36.8523 23.5234 36.5361 25.0871 37.6049Z" fill="#1A1917"/>
<path d="M37.9967 17.5839L37.9849 17.5903C38.9732 19.3679 39.6128 21.3179 39.8694 23.3355C39.87 23.3383 39.87 23.3411 39.8705 23.344C39.9024 23.5936 39.9264 23.844 39.9464 24.0952C39.9509 24.1561 39.9548 24.2174 39.9587 24.2783L39.9029 24.1943C39.8187 24.0686 39.688 23.9814 39.5396 23.9519C39.3912 23.9224 39.2371 23.9529 39.1112 24.0369C38.9853 24.1208 38.8978 24.2513 38.8679 24.3996C38.8381 24.548 38.8683 24.7022 38.952 24.8283L40.0949 26.5425C40.1471 26.6208 40.2177 26.685 40.3007 26.7294C40.3836 26.7738 40.4763 26.797 40.5703 26.797C40.6644 26.797 40.757 26.7738 40.84 26.7294C40.9229 26.685 40.9936 26.6208 41.0458 26.5425L42.1886 24.8283C42.2304 24.7658 42.2595 24.6958 42.2742 24.6221C42.2889 24.5484 42.2889 24.4725 42.2743 24.3988C42.2596 24.3251 42.2306 24.255 42.1888 24.1926C42.147 24.1301 42.0933 24.0765 42.0308 24.0348C41.9683 23.9932 41.8982 23.9642 41.8244 23.9497C41.7507 23.9351 41.6749 23.9353 41.6012 23.9501C41.5275 23.9649 41.4575 23.9941 41.3951 24.036C41.3328 24.0779 41.2793 24.1317 41.2377 24.1943L41.1122 24.3825C41.1049 24.2556 41.0955 24.1291 41.0854 24.0027C41.0642 23.7331 41.037 23.4656 41.0039 23.2001C41.0039 23.1967 41.0034 23.1935 41.0034 23.1904C40.5432 19.4806 38.8769 16.0247 36.2609 13.3542C33.645 10.6838 30.2241 8.94671 26.5246 8.41016C26.6158 8.79264 26.5698 9.19501 26.3945 9.54701C28.8164 9.9038 31.1232 10.8146 33.1355 12.2085C35.1478 13.6025 36.8114 15.442 37.9967 17.5839Z" fill="#E53935"/>
<path d="M7.04688 22.8433C7.42897 22.7526 7.83081 22.7993 8.1819 22.9753C8.72552 19.3754 10.4814 16.0688 13.1593 13.6022C15.8372 11.1357 19.2767 9.65692 22.909 9.41041L22.8265 9.46538C22.764 9.507 22.7104 9.56052 22.6687 9.62286C22.6269 9.68521 22.5979 9.75517 22.5831 9.82875C22.5684 9.90232 22.5684 9.97808 22.5829 10.0517C22.5975 10.1253 22.6264 10.1953 22.668 10.2577C22.7097 10.3202 22.7632 10.3738 22.8255 10.4155C22.8879 10.4573 22.9578 10.4863 23.0314 10.501C23.105 10.5158 23.1807 10.5158 23.2544 10.5013C23.328 10.4867 23.398 10.4578 23.4604 10.4161L25.1747 9.27327C25.253 9.22111 25.3171 9.15042 25.3615 9.06749C25.4059 8.98456 25.4291 8.89196 25.4291 8.7979C25.4291 8.70384 25.4059 8.61123 25.3615 8.5283C25.3171 8.44537 25.253 8.37469 25.1747 8.32252L23.4604 7.17966C23.398 7.13757 23.3278 7.10823 23.254 7.09333C23.1802 7.07843 23.1042 7.07826 23.0304 7.09284C22.9565 7.10741 22.8862 7.13644 22.8236 7.17825C22.761 7.22006 22.7073 7.27384 22.6655 7.33648C22.6237 7.39913 22.5948 7.46941 22.5802 7.54329C22.5657 7.61717 22.566 7.69319 22.5809 7.76698C22.5959 7.84077 22.6253 7.91087 22.6674 7.97327C22.7095 8.03566 22.7636 8.08912 22.8265 8.13056L23.0173 8.25765C19.0841 8.4819 15.3484 10.0549 12.4394 12.7116C9.53041 15.3684 7.62597 18.9465 7.04688 22.8433Z" fill="#1A1917"/>
<path d="M8.04127 26.4613L8.09652 26.544C8.13814 26.6065 8.19165 26.6601 8.254 26.7019C8.31635 26.7436 8.38631 26.7727 8.45989 26.7874C8.53347 26.8021 8.60923 26.8022 8.68284 26.7876C8.75646 26.7731 8.82648 26.7442 8.88891 26.7025C8.95135 26.6609 9.00498 26.6074 9.04673 26.5451C9.08849 26.4827 9.11755 26.4127 9.13227 26.3392C9.14699 26.2656 9.14707 26.1898 9.1325 26.1162C9.11794 26.0426 9.08902 25.9726 9.0474 25.9101L7.90454 24.1959C7.85236 24.1176 7.78167 24.0534 7.69873 24.009C7.61579 23.9646 7.52318 23.9414 7.42911 23.9414C7.33504 23.9414 7.24242 23.9646 7.15948 24.009C7.07655 24.0534 7.00585 24.1176 6.95367 24.1959L5.81081 25.9101C5.72675 26.0362 5.69622 26.1906 5.72594 26.3392C5.75566 26.4878 5.8432 26.6185 5.96929 26.7025C6.09539 26.7866 6.24971 26.8171 6.39831 26.7874C6.54691 26.7577 6.67762 26.6701 6.76169 26.544L6.88895 26.3532C7.1118 30.2868 8.68427 34.0232 11.3412 36.9324C13.9981 39.8416 17.577 41.7456 21.4743 42.3234C21.3835 41.9411 21.4304 41.5391 21.6066 41.1879C18.006 40.6458 14.6986 38.8905 12.2317 36.2124C9.76481 33.5344 8.28643 30.0942 8.04127 26.4613Z" fill="#E53935"/>
<path d="M28.1373 20.8778C28.226 20.9805 28.2904 21.102 28.3255 21.2332C28.3607 21.3643 28.3658 21.5017 28.3404 21.6351C28.3136 21.6849 28.2686 21.7226 28.2148 21.7402C28.3622 22.0794 28.4983 22.4329 28.6188 22.7992C28.7839 22.7375 28.9367 22.6472 29.0703 22.5324C29.3029 22.3286 29.4492 22.0439 29.4794 21.7362C29.5178 21.4396 29.4912 21.1382 29.4015 20.8529C29.3118 20.5676 29.1611 20.3052 28.9598 20.084C28.4559 19.5622 27.6825 19.387 26.8789 19.3398C27.1389 19.7201 27.4046 20.1467 27.659 20.611C27.8382 20.6588 28.0025 20.7505 28.1373 20.8778Z" fill="#1A1917"/>
<path d="M24.3243 33.9412C25.3913 33.9412 28.0794 33.7639 29.9984 32.1225C32.3673 30.0966 32.5643 26.6929 32.5715 26.5491C32.5788 26.399 32.5268 26.2522 32.4268 26.1401C32.3268 26.028 32.1868 25.9597 32.0369 25.9499C32.0369 25.9499 31.9058 25.9415 31.6776 25.9415C30.4129 25.9391 29.1581 26.1636 27.9728 26.6045C27.9906 26.3861 28.0007 26.1651 28.0007 25.9414C28.0007 21.6463 24.5459 18.2454 24.3986 18.1026C24.2919 17.9992 24.1492 17.9414 24.0007 17.9414C23.8521 17.9414 23.7094 17.9992 23.6028 18.1026C23.456 18.2454 20.0007 21.6463 20.0007 25.9414C20.0007 26.1651 20.0107 26.3861 20.0291 26.6046C18.8438 26.1637 17.589 25.9391 16.3243 25.9415C16.0955 25.9415 15.965 25.9499 15.965 25.9499C15.8151 25.9596 15.675 26.0279 15.575 26.14C15.475 26.2521 15.423 26.399 15.4304 26.5491C15.4376 26.6929 15.6346 30.0966 18.0035 32.1223C19.922 33.7641 22.6106 33.9412 23.6776 33.9412H24.3243ZM31.3578 27.0905C31.1999 28.0647 30.7122 30.0079 29.2557 31.2542C27.7736 32.522 25.6279 32.7553 24.6452 32.7922C24.8054 31.8161 25.2959 29.8691 26.7462 28.6288C28.2289 27.3602 30.3757 27.1272 31.3578 27.0905ZM24.0012 19.3525C24.8706 20.3454 26.8578 22.9439 26.8578 25.9414C26.8555 26.3717 26.8144 26.8009 26.7351 27.2238C26.4785 27.3846 26.234 27.5639 26.0034 27.7603C25.0924 28.572 24.4031 29.6025 24.0007 30.7544C23.5985 29.6025 22.9094 28.5721 21.9985 27.7604C21.7676 27.5638 21.5227 27.3843 21.2658 27.2233C21.1868 26.8005 21.1459 26.3715 21.1435 25.9414C21.1435 22.9527 23.1329 20.3476 24.0012 19.3525ZM18.7462 31.254C17.2959 30.0136 16.8054 28.0662 16.6452 27.0905C17.6279 27.1275 19.7736 27.361 21.2557 28.6289C22.706 29.8692 23.1965 31.8167 23.3561 32.7922C22.3734 32.7553 20.2284 32.5219 18.7462 31.254Z" fill="#E53935"/>
<path d="M37.716 12.2249H40.3822C40.8434 12.225 41.289 12.0577 41.6362 11.7541C41.9834 11.4506 42.2087 11.0314 42.2703 10.5743C42.3318 10.1172 42.2255 9.65335 41.9709 9.26876C41.7164 8.88416 41.331 8.60498 40.8862 8.48302C40.7642 8.0383 40.4851 7.65292 40.1005 7.39841C39.716 7.1439 39.2521 7.03754 38.7951 7.09907C38.3381 7.1606 37.9189 7.38585 37.6154 7.733C37.3118 8.08015 37.1445 8.52564 37.1445 8.98679V11.6535C37.1446 11.805 37.2048 11.9503 37.312 12.0575C37.4191 12.1647 37.5644 12.2249 37.716 12.2249ZM38.2874 8.98679C38.2874 8.78477 38.3676 8.59102 38.5105 8.44817C38.6533 8.30532 38.8471 8.22507 39.0491 8.22507C39.2511 8.22507 39.4449 8.30532 39.5877 8.44817C39.7306 8.59102 39.8108 8.78477 39.8108 8.98679C39.8109 9.13832 39.8711 9.28364 39.9782 9.39079C40.0854 9.49794 40.2307 9.55816 40.3822 9.55822C40.5843 9.55822 40.7781 9.63849 40.921 9.78138C41.0639 9.92427 41.1442 10.1181 41.1442 10.3201C41.1442 10.5222 41.0639 10.716 40.921 10.8589C40.7781 11.0018 40.5843 11.0821 40.3822 11.0821H38.2874V8.98679Z" fill="#1A1917"/>
<path d="M7.61991 12.2249H10.2862C10.3612 12.2249 10.4356 12.2102 10.5049 12.1814C10.5742 12.1527 10.6372 12.1106 10.6903 12.0576C10.7434 12.0045 10.7855 11.9415 10.8142 11.8722C10.8429 11.8028 10.8576 11.7285 10.8576 11.6535V8.98676C10.8576 8.52562 10.6903 8.08014 10.3868 7.73299C10.0832 7.38584 9.66407 7.1606 9.20705 7.09907C8.75004 7.03754 8.28622 7.14389 7.90167 7.3984C7.51712 7.6529 7.23796 8.03827 7.116 8.48299C6.67122 8.60495 6.28579 8.88413 6.03124 9.26872C5.7767 9.65332 5.67034 10.1172 5.73189 10.5743C5.79344 11.0313 6.01873 11.4506 6.36595 11.7541C6.71316 12.0577 7.15871 12.2249 7.61991 12.2249ZM7.61991 9.55818C7.69496 9.5582 7.76927 9.54343 7.83861 9.51472C7.90794 9.48601 7.97094 9.44392 8.02401 9.39085C8.07708 9.33779 8.11916 9.27479 8.14788 9.20545C8.17659 9.13612 8.19136 9.0618 8.19134 8.98676C8.19134 8.78474 8.27159 8.59099 8.41444 8.44814C8.55729 8.30529 8.75103 8.22504 8.95305 8.22504C9.15507 8.22504 9.34882 8.30529 9.49167 8.44814C9.63452 8.59099 9.71477 8.78474 9.71477 8.98676V11.082H7.61991C7.41783 11.082 7.22404 11.0018 7.08115 10.8589C6.93826 10.716 6.85798 10.5222 6.85798 10.3201C6.85798 10.118 6.93826 9.92424 7.08115 9.78135C7.22404 9.63846 7.41783 9.55818 7.61991 9.55818Z" fill="#1A1917"/>
<path d="M43.0626 42.5101H40.7895C40.8272 42.4264 40.8587 42.3402 40.8838 42.252C41.3286 42.13 41.714 41.8508 41.9686 41.4662C42.2231 41.0816 42.3295 40.6178 42.2679 40.1607C42.2064 39.7036 41.9811 39.2844 41.6339 38.9808C41.2867 38.6773 40.8411 38.51 40.3799 38.5101H37.7136C37.5621 38.5101 37.4168 38.5703 37.3096 38.6775C37.2025 38.7846 37.1422 38.9299 37.1422 39.0815V41.7482C37.1422 42.0105 37.1967 42.27 37.3024 42.5101H25.0299L24.9829 42.4787C28.9127 42.2446 32.643 40.6684 35.5499 38.0137C38.4568 35.3589 40.3641 31.7865 40.9527 27.894C40.5706 27.9845 40.1688 27.9377 39.8177 27.7617C39.2652 31.3575 37.5067 34.6587 34.8308 37.1235C32.155 39.5882 28.7207 41.0701 25.0917 41.3259L25.1737 41.2712C25.2362 41.2296 25.2898 41.1761 25.3315 41.1137C25.3733 41.0514 25.4023 40.9814 25.417 40.9078C25.4318 40.8343 25.4318 40.7585 25.4173 40.6849C25.4027 40.6113 25.3738 40.5413 25.3322 40.4788C25.2905 40.4164 25.237 40.3628 25.1747 40.3211C25.1123 40.2793 25.0424 40.2502 24.9688 40.2355C24.8952 40.2208 24.8195 40.2208 24.7458 40.2353C24.6722 40.2499 24.6022 40.2788 24.5398 40.3204L22.8255 41.4632C22.7472 41.5153 22.6831 41.586 22.6387 41.669C22.5943 41.7519 22.5711 41.8445 22.5711 41.9386C22.5711 42.0327 22.5943 42.1253 22.6387 42.2082C22.6831 42.2912 22.7472 42.3619 22.8255 42.4141L22.9695 42.51H10.6964C10.802 42.2699 10.8565 42.0105 10.8565 41.7482V39.0815C10.8565 39.0064 10.8417 38.9321 10.813 38.8628C10.7843 38.7934 10.7422 38.7304 10.6892 38.6774C10.6361 38.6243 10.5731 38.5822 10.5038 38.5535C10.4344 38.5248 10.3601 38.51 10.2851 38.5101H7.61876C7.15757 38.51 6.71201 38.6773 6.3648 38.9808C6.01758 39.2844 5.79229 39.7036 5.73074 40.1607C5.66918 40.6178 5.77555 41.0816 6.03009 41.4662C6.28463 41.8508 6.67006 42.13 7.11484 42.252C7.13996 42.3402 7.17147 42.4264 7.20913 42.5101H4.93611C4.85481 42.4994 4.77219 42.5063 4.69375 42.5301C4.61532 42.554 4.54287 42.5943 4.48126 42.6484C4.41965 42.7025 4.37028 42.7691 4.33647 42.8438C4.30265 42.9185 4.28516 42.9995 4.28516 43.0815C4.28516 43.1635 4.30265 43.2445 4.33647 43.3192C4.37028 43.3939 4.41965 43.4605 4.48126 43.5146C4.54287 43.5687 4.61532 43.609 4.69375 43.6328C4.77219 43.6567 4.85481 43.6635 4.93611 43.6529H43.0626C43.1439 43.6635 43.2265 43.6567 43.3049 43.6328C43.3834 43.609 43.4558 43.5687 43.5174 43.5146C43.579 43.4605 43.6284 43.3939 43.6622 43.3192C43.696 43.2445 43.7135 43.1635 43.7135 43.0815C43.7135 42.9995 43.696 42.9185 43.6622 42.8438C43.6284 42.7691 43.579 42.7025 43.5174 42.6484C43.4558 42.5943 43.3834 42.554 43.3049 42.5301C43.2265 42.5063 43.1439 42.4994 43.0626 42.5101ZM38.285 41.7482V39.6529H40.3799C40.48 39.6529 40.579 39.6726 40.6715 39.7109C40.7639 39.7492 40.8479 39.8053 40.9187 39.8761C40.9894 39.9468 41.0455 40.0308 41.0838 40.1233C41.1221 40.2157 41.1418 40.3148 41.1418 40.4148C41.1418 40.5149 41.1221 40.614 41.0838 40.7064C41.0455 40.7989 40.9894 40.8829 40.9187 40.9536C40.8479 41.0244 40.7639 41.0805 40.6715 41.1188C40.579 41.1571 40.48 41.1768 40.3799 41.1768C40.2284 41.1768 40.0831 41.237 39.9759 41.3442C39.8688 41.4513 39.8085 41.5967 39.8085 41.7482C39.8085 41.9502 39.7282 42.144 39.5854 42.2868C39.4425 42.4297 39.2488 42.5099 39.0468 42.5099C38.8447 42.5099 38.651 42.4297 38.5082 42.2868C38.3653 42.144 38.285 41.9502 38.285 41.7482ZM8.19019 41.7482C8.19021 41.6732 8.17544 41.5988 8.14673 41.5295C8.11802 41.4602 8.07593 41.3972 8.02286 41.3441C7.9698 41.291 7.9068 41.2489 7.83746 41.2202C7.76813 41.1915 7.69381 41.1768 7.61876 41.1768C7.51871 41.1768 7.41963 41.1571 7.32719 41.1188C7.23475 41.0805 7.15075 41.0244 7.08 40.9536C7.00925 40.8829 6.95313 40.7989 6.91483 40.7064C6.87654 40.614 6.85684 40.5149 6.85684 40.4148C6.85684 40.3148 6.87654 40.2157 6.91483 40.1233C6.95313 40.0308 7.00925 39.9468 7.08 39.8761C7.15075 39.8053 7.23475 39.7492 7.32719 39.7109C7.41963 39.6726 7.51871 39.6529 7.61876 39.6529H9.71362V41.7482C9.71362 41.9502 9.63337 42.144 9.49052 42.2868C9.34767 42.4297 9.15393 42.5099 8.95191 42.5099C8.74989 42.5099 8.55614 42.4297 8.41329 42.2868C8.27045 42.144 8.19019 41.9502 8.19019 41.7482Z" fill="#1A1917"/>
</svg>
