<svg width="48" height="48" viewBox="0 0 48 48" fill="none" xmlns="http://www.w3.org/2000/svg">
<g clip-path="url(#clip0_1223_1088)">
<path d="M27.7133 25.5176V21.7143C27.7119 20.9049 27.4244 20.122 26.9015 19.504C26.3787 18.886 25.6542 18.4728 24.8562 18.3374V16.691C24.8526 16.2396 24.6701 15.8081 24.3487 15.4911C24.0273 15.174 23.5933 14.9975 23.1419 15H17.4276C16.9762 14.9975 16.5422 15.174 16.2208 15.4911C15.8994 15.8081 15.7169 16.2396 15.7133 16.691V18.3374C15.0834 18.4451 14.4959 18.7264 14.017 19.1496C13.538 19.5727 13.1865 20.121 13.002 20.7329L13.0543 21.7737L13.999 22.015V21.7143C13.999 21.1081 14.2399 20.5267 14.6685 20.0981C15.0972 19.6694 15.6785 19.4286 16.2848 19.4286C16.891 19.4286 17.4723 19.6694 17.901 20.0981C18.3297 20.5267 18.5705 21.1081 18.5705 21.7143V23.1826L19.7133 23.4744V21.7143C19.7119 20.9049 19.4244 20.122 18.9015 19.504C18.3787 18.886 17.6542 18.4728 16.8562 18.3374V16.691C16.8595 16.5426 16.9215 16.4016 17.0286 16.2989C17.1357 16.1961 17.2792 16.14 17.4276 16.1429H23.1419C23.2903 16.14 23.4338 16.1961 23.5409 16.2989C23.648 16.4016 23.71 16.5426 23.7133 16.691V18.3374C22.9153 18.4728 22.1908 18.886 21.668 19.504C21.1451 20.122 20.8576 20.9049 20.8562 21.7143V23.7663L21.999 24.0582V21.7143C21.999 21.1081 22.2399 20.5267 22.6685 20.0981C23.0972 19.6694 23.6785 19.4286 24.2848 19.4286C24.891 19.4286 25.4723 19.6694 25.901 20.0981C26.3297 20.5267 26.5705 21.1081 26.5705 21.7143V25.2257L27.7133 25.5176Z" fill="#E53935"/>
<path d="M34.0288 13.8081C34.0165 13.5131 33.8907 13.2344 33.6778 13.0299C33.4648 12.8255 33.1811 12.7112 32.8859 12.7109H30.5431C30.2479 12.7112 29.9642 12.8255 29.7512 13.0299C29.5383 13.2344 29.4125 13.5131 29.4002 13.8081L28.9316 25.8252L29.2402 25.9024L30.0859 25.5395L30.4088 17.2652L30.4545 16.1481L30.5431 13.8538H32.8859L32.9745 16.1481L33.0202 17.2652L33.2888 24.1595L34.4116 23.6738L34.0288 13.8081Z" fill="#1A1917"/>
<path d="M33.0196 17.2663C32.9758 17.2778 32.9307 17.2836 32.8853 17.2835H30.5425C30.4972 17.2836 30.452 17.2778 30.4082 17.2663L30.4539 16.1492C30.4833 16.1448 30.5128 16.1419 30.5425 16.1406H32.8853C32.915 16.1419 32.9446 16.1448 32.9739 16.1492L33.0196 17.2663Z" fill="#E53935"/>
<path d="M40.599 12.6703C40.5878 12.3747 40.4625 12.095 40.2494 11.8899C40.0363 11.6848 39.752 11.5702 39.4562 11.5703H37.1133C36.8175 11.5702 36.5332 11.6848 36.3201 11.8899C36.107 12.095 35.9817 12.3747 35.9705 12.6703L35.5762 23.176L36.739 22.6732L36.9847 16.1275L37.0276 15.0075L37.1133 12.7132H39.4562L39.5419 15.0075L39.5847 16.1275L39.7819 21.3903C40.0351 21.321 40.2965 21.2854 40.559 21.2846C40.6804 21.286 40.8016 21.2945 40.9219 21.3103L40.599 12.6703Z" fill="#1A1917"/>
<path d="M39.5863 16.1286C39.5441 16.1377 39.501 16.1425 39.4578 16.1429H37.1149C37.0717 16.1425 37.0286 16.1377 36.9863 16.1286L37.0292 15.0086C37.0578 15.0057 37.0863 15 37.1149 15H39.4578C39.4863 15 39.5149 15.0057 39.5435 15.0086L39.5863 16.1286Z" fill="#E53935"/>
<path d="M41.6276 9.46407C41.7086 9.3349 41.7354 9.17897 41.7022 9.03015C41.669 8.88132 41.5784 8.75161 41.4501 8.66915C41.3875 8.62899 41.3175 8.60169 41.2443 8.58882C41.171 8.57596 41.0959 8.57779 41.0233 8.59421C40.9508 8.61063 40.8822 8.64132 40.8216 8.68448C40.761 8.72764 40.7096 8.78242 40.6704 8.84563C40.6341 8.86679 40.5964 8.88544 40.5575 8.90144C40.3621 8.97238 40.1872 9.09075 40.0488 9.24593C39.9103 9.40111 39.8126 9.58824 39.7643 9.79053C39.6739 9.74576 39.5863 9.69541 39.5022 9.63977C39.4289 9.45561 39.4114 9.25392 39.4521 9.05992C39.7807 8.89804 40.0373 8.61972 40.1721 8.27909C40.1877 8.24244 40.2053 8.20663 40.2247 8.1718C40.2629 8.15015 40.3047 8.1355 40.3481 8.12856C40.4214 8.11176 40.4906 8.08068 40.5518 8.03709C40.6131 7.99351 40.6651 7.93828 40.7049 7.87456C40.7448 7.81085 40.7717 7.7399 40.7841 7.66578C40.7965 7.59166 40.7941 7.51582 40.7772 7.4426C40.7602 7.36939 40.729 7.30024 40.6853 7.2391C40.6416 7.17797 40.5862 7.12606 40.5224 7.08634C40.4586 7.04662 40.3876 7.01988 40.3135 7.00763C40.2393 6.99539 40.1635 6.99789 40.0903 7.015C39.8756 7.05142 39.6742 7.14347 39.5061 7.28199C39.338 7.42051 39.2092 7.60066 39.1325 7.80448C39.0691 7.94343 39.052 7.98081 38.9309 8.04289C38.23 8.40213 38.1664 9.25299 38.4176 10.0097L38.3663 10.1486C38.323 10.2636 38.3181 10.3895 38.3523 10.5075C38.3865 10.6255 38.4579 10.7292 38.556 10.8033C38.654 10.8773 38.7733 10.9177 38.8961 10.9183C39.019 10.919 39.1387 10.8798 39.2375 10.8068C39.4613 10.9233 39.7081 10.9889 39.9602 10.9988C40.0822 11.0001 40.2033 10.9769 40.3163 10.9307C40.4655 10.8667 40.5941 10.7629 40.6883 10.6307C40.7824 10.4985 40.8383 10.3429 40.85 10.181C40.872 10.013 40.872 10.013 41.026 9.94385C41.2724 9.85191 41.4831 9.68386 41.6276 9.46407Z" fill="#E53935"/>
<path d="M34.2875 9.8592C34.2242 9.81996 34.1537 9.7937 34.0801 9.78194C34.0066 9.77017 33.9314 9.77315 33.859 9.79068C33.7866 9.80822 33.7185 9.83997 33.6584 9.88409C33.5984 9.92821 33.5478 9.98381 33.5094 10.0477C33.4738 10.069 33.4368 10.0879 33.3985 10.1042C33.2028 10.1786 33.0286 10.3003 32.8914 10.4585C32.7543 10.6167 32.6584 10.8064 32.6125 11.0107C32.5264 10.966 32.4429 10.9161 32.3627 10.8615C32.2832 10.662 32.2664 10.443 32.3144 10.2336C32.6426 10.0653 32.8968 9.78134 33.0281 9.43662C33.0442 9.39718 33.0627 9.35879 33.0835 9.32167C33.1201 9.30026 33.1603 9.28574 33.2021 9.27884C33.3488 9.24296 33.4753 9.15049 33.554 9.02162C33.6327 8.89275 33.6572 8.73797 33.6221 8.5911C33.5871 8.44422 33.4953 8.3172 33.3669 8.23777C33.2384 8.15835 33.0838 8.13299 32.9367 8.16723C32.7209 8.20624 32.5192 8.30136 32.3517 8.44302C32.1843 8.58468 32.0571 8.76791 31.9829 8.97429C31.9185 9.12008 31.901 9.15928 31.78 9.22331C31.0084 9.63152 31.0764 10.5895 31.277 11.2237L31.2216 11.3783C31.1797 11.4933 31.1761 11.6187 31.211 11.7359C31.246 11.8532 31.3179 11.956 31.4159 12.0293C31.5139 12.1025 31.6329 12.1422 31.7553 12.1425C31.8776 12.1428 31.9969 12.1037 32.0953 12.031C32.3165 12.1488 32.5615 12.2152 32.812 12.2253C32.9312 12.2264 33.0494 12.204 33.1599 12.1595C33.3118 12.095 33.4428 11.9894 33.5382 11.8547C33.6336 11.72 33.6896 11.5614 33.7001 11.3967C33.7234 11.2133 33.7234 11.2133 33.8793 11.141C34.1258 11.0456 34.3353 10.8736 34.4769 10.6503C34.556 10.5201 34.5804 10.364 34.5449 10.2158C34.5095 10.0677 34.4169 9.93949 34.2875 9.8592Z" fill="#E53935"/>
<path d="M0.571429 43.5686C0.88702 43.5686 1.14286 43.3128 1.14286 42.9972C1.14286 42.6816 0.88702 42.4258 0.571429 42.4258C0.255837 42.4258 0 42.6816 0 42.9972C0 43.3128 0.255837 43.5686 0.571429 43.5686Z" fill="#1A1917"/>
<path d="M3.14342 42.4258H2.28627C2.13472 42.4258 1.98937 42.486 1.88221 42.5931C1.77505 42.7003 1.71484 42.8457 1.71484 42.9972C1.71484 43.1488 1.77505 43.2941 1.88221 43.4013C1.98937 43.5084 2.13472 43.5686 2.28627 43.5686H3.14342C3.29497 43.5686 3.44031 43.5084 3.54748 43.4013C3.65464 43.2941 3.71484 43.1488 3.71484 42.9972C3.71484 42.8457 3.65464 42.7003 3.54748 42.5931C3.44031 42.486 3.29497 42.4258 3.14342 42.4258Z" fill="#1A1917"/>
<path d="M33.7585 44.7109H31.3849C31.2412 44.7224 31.1072 44.7876 31.0094 44.8935C30.9117 44.9994 30.8574 45.1383 30.8574 45.2824C30.8574 45.4265 30.9117 45.5653 31.0094 45.6712C31.1072 45.7771 31.2412 45.8423 31.3849 45.8538H33.7585C33.9022 45.8423 34.0362 45.7771 34.134 45.6712C34.2317 45.5653 34.286 45.4265 34.286 45.2824C34.286 45.1383 34.2317 44.9994 34.134 44.8935C34.0362 44.7876 33.9022 44.7224 33.7585 44.7109Z" fill="#E53935"/>
<path d="M16.616 44.7109H14.2423C14.0987 44.7224 13.9646 44.7876 13.8669 44.8935C13.7691 44.9994 13.7148 45.1383 13.7148 45.2824C13.7148 45.4265 13.7691 45.5653 13.8669 45.6712C13.9646 45.7771 14.0987 45.8423 14.2423 45.8538H16.616C16.7596 45.8423 16.8937 45.7771 16.9914 45.6712C17.0892 45.5653 17.1434 45.4265 17.1434 45.2824C17.1434 45.1383 17.0892 44.9994 16.9914 44.8935C16.8937 44.7876 16.7596 44.7224 16.616 44.7109Z" fill="#E53935"/>
<path d="M29.7148 44.7109H18.2863C18.1347 44.7109 17.9894 44.7711 17.8822 44.8783C17.775 44.9855 17.7148 45.1308 17.7148 45.2824C17.7148 45.4339 17.775 45.5793 17.8822 45.6864C17.9894 45.7936 18.1347 45.8538 18.2863 45.8538H22.8406V46.4252H20.572C20.4204 46.4252 20.2751 46.4854 20.1679 46.5926C20.0608 46.6998 20.0006 46.8451 20.0006 46.9967C20.0006 47.1482 20.0608 47.2935 20.1679 47.4007C20.2751 47.5079 20.4204 47.5681 20.572 47.5681H27.7148C27.8664 47.5681 28.0117 47.5079 28.1189 47.4007C28.2261 47.2935 28.2863 47.1482 28.2863 46.9967C28.2863 46.8451 28.2261 46.6998 28.1189 46.5926C28.0117 46.4854 27.8664 46.4252 27.7148 46.4252H25.1606V45.8538H29.7148C29.8664 45.8538 30.0117 45.7936 30.1189 45.6864C30.2261 45.5793 30.2863 45.4339 30.2863 45.2824C30.2863 45.1308 30.2261 44.9855 30.1189 44.8783C30.0117 44.7711 29.8664 44.7109 29.7148 44.7109Z" fill="#E53935"/>
<path d="M45.7137 42.4297H44.8566C44.705 42.4297 44.5597 42.4899 44.4525 42.5971C44.3454 42.7042 44.2852 42.8496 44.2852 43.0011C44.2852 43.1527 44.3454 43.298 44.4525 43.4052C44.5597 43.5123 44.705 43.5725 44.8566 43.5725H45.7137C45.8653 43.5725 46.0106 43.5123 46.1178 43.4052C46.225 43.298 46.2852 43.1527 46.2852 43.0011C46.2852 42.8496 46.225 42.7042 46.1178 42.5971C46.0106 42.4899 45.8653 42.4297 45.7137 42.4297Z" fill="#1A1917"/>
<path d="M47.4289 43.5725C47.7444 43.5725 48.0003 43.3167 48.0003 43.0011C48.0003 42.6855 47.7444 42.4297 47.4289 42.4297C47.1133 42.4297 46.8574 42.6855 46.8574 43.0011C46.8574 43.3167 47.1133 43.5725 47.4289 43.5725Z" fill="#1A1917"/>
<path d="M43.0626 42.4275H42.2851V24.1332C42.2819 23.6783 42.0984 23.2433 41.7748 22.9235C41.4513 22.6037 41.0141 22.4253 40.5592 22.4275C40.3475 22.4274 40.1376 22.466 39.9398 22.5413C39.924 22.5473 39.9083 22.5536 39.8928 22.5603L29.3334 27.1097L11.9556 22.6715L11.4659 12.9356C11.4508 12.5676 11.2936 12.2199 11.0275 11.9653C10.7614 11.7107 10.407 11.5692 10.0388 11.5703H8.24562C7.87567 11.5692 7.51979 11.712 7.25333 11.9687C6.98688 12.2253 6.83077 12.5756 6.81805 12.9454L5.71443 42.3847C5.71389 42.3991 5.71715 42.4131 5.71715 42.4275H4.93611C4.85481 42.4168 4.77219 42.4237 4.69375 42.4475C4.61532 42.4714 4.54287 42.5117 4.48126 42.5658C4.41965 42.6199 4.37028 42.6865 4.33647 42.7612C4.30265 42.8359 4.28516 42.9169 4.28516 42.9989C4.28516 43.0809 4.30265 43.1619 4.33647 43.2366C4.37028 43.3113 4.41965 43.3779 4.48126 43.432C4.54287 43.4861 4.61532 43.5264 4.69375 43.5502C4.77219 43.5741 4.85481 43.5809 4.93611 43.5703H43.0626C43.1439 43.5809 43.2265 43.5741 43.3049 43.5502C43.3834 43.5264 43.4558 43.4861 43.5174 43.432C43.579 43.3779 43.6284 43.3113 43.6622 43.2366C43.696 43.1619 43.7135 43.0809 43.7135 42.9989C43.7135 42.9169 43.696 42.8359 43.6622 42.7612C43.6284 42.6865 43.579 42.6199 43.5174 42.5658C43.4558 42.5117 43.3834 42.4714 43.3049 42.4475C43.2265 42.4237 43.1439 42.4168 43.0626 42.4275ZM7.9601 12.9882C7.96287 12.9143 7.99416 12.8444 8.04741 12.7931C8.10065 12.7418 8.1717 12.7132 8.24562 12.7132H10.0388C10.1127 12.7132 10.1838 12.7418 10.237 12.7931C10.2902 12.8444 10.3215 12.9143 10.3243 12.9882L10.426 15.0102C10.3891 15.0027 10.3516 14.999 10.3139 14.9989H7.97046C7.94159 14.9996 7.91282 15.0025 7.8844 15.0076L7.9601 12.9882ZM21.1422 42.4275V37.5703H26.8565V42.4275H21.1422ZM19.9993 36.4275V35.2846H27.9993L28 36.4275H19.9993ZM29.4279 42.4275H27.9993V37.5703C28.3023 37.57 28.5928 37.4495 28.8071 37.2352C29.0213 37.021 29.1418 36.7305 29.1422 36.4275V35.2846C29.1418 34.9816 29.0213 34.6911 28.8071 34.4769C28.5928 34.2626 28.3023 34.1421 27.9993 34.1418H19.9993C19.6963 34.1421 19.4059 34.2626 19.1916 34.4769C18.9773 34.6911 18.8568 34.9816 18.8565 35.2846V36.4275C18.8568 36.7305 18.9773 37.021 19.1916 37.2352C19.4059 37.4495 19.6963 37.57 19.9993 37.5703V42.4275H6.85648L7.20994 32.9989H12.2851C12.4366 32.9989 12.5819 32.9387 12.6891 32.8315C12.7963 32.7244 12.8565 32.579 12.8565 32.4275C12.8565 32.2759 12.7963 32.1306 12.6891 32.0234C12.5819 31.9162 12.4366 31.856 12.2851 31.856H7.25279L7.29562 30.7132H15.1422C15.2937 30.7132 15.4391 30.653 15.5463 30.5458C15.6534 30.4386 15.7136 30.2933 15.7136 30.1418C15.7136 29.9902 15.6534 29.8449 15.5463 29.7377C15.4391 29.6305 15.2937 29.5703 15.1422 29.5703H7.33848L7.84248 16.1262C7.88442 16.1362 7.92736 16.1414 7.97048 16.1418H10.314C10.3709 16.1409 10.4274 16.1315 10.4815 16.1139L10.8565 23.5703L29.4279 28.3133L40.345 23.6099C40.4134 23.5838 40.486 23.5704 40.5592 23.5703C40.7111 23.5679 40.8577 23.6258 40.967 23.7313C41.0763 23.8368 41.1393 23.9813 41.1422 24.1332V29.5703H33.4279C33.2764 29.5703 33.131 29.6305 33.0238 29.7377C32.9167 29.8449 32.8565 29.9902 32.8565 30.1418C32.8565 30.2933 32.9167 30.4386 33.0238 30.5458C33.131 30.653 33.2764 30.7132 33.4279 30.7132H41.1422V31.856H36.2851C36.1335 31.856 35.9882 31.9162 35.881 32.0234C35.7738 32.1306 35.7136 32.2759 35.7136 32.4275C35.7136 32.579 35.7738 32.7244 35.881 32.8315C35.9882 32.9387 36.1335 32.9989 36.2851 32.9989H41.1422V42.4275H29.4279Z" fill="#1A1917"/>
</g>
<defs>
<clipPath id="clip0_1223_1088">
<rect width="48" height="48" fill="white"/>
</clipPath>
</defs>
</svg>
