<svg width="48" height="48" viewBox="0 0 48 48" fill="none" xmlns="http://www.w3.org/2000/svg">
<g clip-path="url(#clip0_1223_2225)">
<path d="M0.571429 43.2405C0.88702 43.2405 1.14286 42.9847 1.14286 42.6691C1.14286 42.3535 0.88702 42.0977 0.571429 42.0977C0.255837 42.0977 0 42.3535 0 42.6691C0 42.9847 0.255837 43.2405 0.571429 43.2405Z" fill="#1A1917"/>
<path d="M3.14342 42.0977H2.28627C2.13472 42.0977 1.98937 42.1579 1.88221 42.265C1.77505 42.3722 1.71484 42.5175 1.71484 42.6691C1.71484 42.8206 1.77505 42.966 1.88221 43.0731C1.98937 43.1803 2.13472 43.2405 2.28627 43.2405H3.14342C3.29497 43.2405 3.44031 43.1803 3.54748 43.0731C3.65464 42.966 3.71484 42.8206 3.71484 42.6691C3.71484 42.5175 3.65464 42.3722 3.54748 42.265C3.44031 42.1579 3.29497 42.0977 3.14342 42.0977Z" fill="#1A1917"/>
<path d="M33.7566 44.3828H31.3829C31.2393 44.3943 31.1052 44.4595 31.0075 44.5654C30.9097 44.6713 30.8555 44.8101 30.8555 44.9542C30.8555 45.0984 30.9097 45.2372 31.0075 45.3431C31.1052 45.449 31.2393 45.5142 31.3829 45.5257H33.7566C33.9002 45.5142 34.0343 45.449 34.132 45.3431C34.2298 45.2372 34.2841 45.0984 34.2841 44.9542C34.2841 44.8101 34.2298 44.6713 34.132 44.5654C34.0343 44.4595 33.9002 44.3943 33.7566 44.3828Z" fill="#E53935"/>
<path d="M16.616 44.3828H14.2423C14.0987 44.3943 13.9646 44.4595 13.8669 44.5654C13.7691 44.6713 13.7148 44.8101 13.7148 44.9542C13.7148 45.0984 13.7691 45.2372 13.8669 45.3431C13.9646 45.449 14.0987 45.5142 14.2423 45.5257H16.616C16.7596 45.5142 16.8937 45.449 16.9914 45.3431C17.0892 45.2372 17.1434 45.0984 17.1434 44.9542C17.1434 44.8101 17.0892 44.6713 16.9914 44.5654C16.8937 44.4595 16.7596 44.3943 16.616 44.3828Z" fill="#E53935"/>
<path d="M29.7148 44.3828H18.2863C18.1347 44.3828 17.9894 44.443 17.8822 44.5502C17.775 44.6573 17.7148 44.8027 17.7148 44.9542C17.7148 45.1058 17.775 45.2511 17.8822 45.3583C17.9894 45.4655 18.1347 45.5257 18.2863 45.5257H22.8406V46.0971H20.572C20.4204 46.0971 20.2751 46.1573 20.1679 46.2645C20.0608 46.3716 20.0006 46.517 20.0006 46.6685C20.0006 46.8201 20.0608 46.9654 20.1679 47.0726C20.2751 47.1798 20.4204 47.24 20.572 47.24H27.7148C27.8664 47.24 28.0117 47.1798 28.1189 47.0726C28.2261 46.9654 28.2863 46.8201 28.2863 46.6685C28.2863 46.517 28.2261 46.3716 28.1189 46.2645C28.0117 46.1573 27.8664 46.0971 27.7148 46.0971H25.1606V45.5257H29.7148C29.8664 45.5257 30.0117 45.4655 30.1189 45.3583C30.2261 45.2511 30.2863 45.1058 30.2863 44.9542C30.2863 44.8027 30.2261 44.6573 30.1189 44.5502C30.0117 44.443 29.8664 44.3828 29.7148 44.3828Z" fill="#E53935"/>
<path d="M9.71317 20.3806H14.2846C14.5876 20.3803 14.8781 20.2597 15.0924 20.0455C15.3066 19.8312 15.4271 19.5407 15.4275 19.2377V14.6663C15.4271 14.3633 15.3066 14.0728 15.0924 13.8585C14.8781 13.6443 14.5876 13.5238 14.2846 13.5234H9.71317C9.41016 13.5238 9.11966 13.6443 8.9054 13.8585C8.69115 14.0728 8.57064 14.3633 8.57031 14.6663V19.2377C8.57064 19.5407 8.69115 19.8312 8.9054 20.0455C9.11966 20.2597 9.41016 20.3803 9.71317 20.3806ZM9.71317 14.6663H14.2846L14.2853 19.2377H9.71317V14.6663Z" fill="#1A1917"/>
<path d="M22.2846 13.5234H17.7132C17.4102 13.5238 17.1197 13.6443 16.9054 13.8585C16.6911 14.0728 16.5706 14.3633 16.5703 14.6663V19.2377C16.5706 19.5407 16.6911 19.8312 16.9054 20.0455C17.1197 20.2597 17.4102 20.3803 17.7132 20.3806H22.2846C22.5876 20.3803 22.8781 20.2597 23.0924 20.0455C23.3066 19.8312 23.4271 19.5407 23.4275 19.2377V14.6663C23.4271 14.3633 23.3066 14.0728 23.0924 13.8585C22.8781 13.6443 22.5876 13.5238 22.2846 13.5234ZM17.7132 19.2377V14.6663H22.2846L22.2853 19.2377H17.7132Z" fill="#1A1917"/>
<path d="M30.2846 13.5234H25.7132C25.4102 13.5238 25.1197 13.6443 24.9054 13.8585C24.6911 14.0728 24.5706 14.3633 24.5703 14.6663V19.2377C24.5706 19.5407 24.6911 19.8312 24.9054 20.0455C25.1197 20.2597 25.4102 20.3803 25.7132 20.3806H30.2846C30.5876 20.3803 30.8781 20.2597 31.0924 20.0455C31.3066 19.8312 31.4271 19.5407 31.4275 19.2377V14.6663C31.4271 14.3633 31.3066 14.0728 31.0924 13.8585C30.8781 13.6443 30.5876 13.5238 30.2846 13.5234ZM25.7132 19.2377V14.6663H30.2846L30.2853 19.2377H25.7132Z" fill="#1A1917"/>
<path d="M38.2846 13.5234H33.7132C33.4102 13.5238 33.1197 13.6443 32.9054 13.8585C32.6911 14.0728 32.5706 14.3633 32.5703 14.6663V19.2377C32.5706 19.5407 32.6911 19.8312 32.9054 20.0455C33.1197 20.2597 33.4102 20.3803 33.7132 20.3806H38.2846C38.5876 20.3803 38.8781 20.2597 39.0924 20.0455C39.3066 19.8312 39.4271 19.5407 39.4275 19.2377V14.6663C39.4271 14.3633 39.3066 14.0728 39.0924 13.8585C38.8781 13.6443 38.5876 13.5238 38.2846 13.5234ZM33.7132 19.2377V14.6663H38.2846L38.2853 19.2377H33.7132Z" fill="#1A1917"/>
<path d="M9.71317 28.3806H14.2846C14.5876 28.3803 14.8781 28.2597 15.0924 28.0455C15.3066 27.8312 15.4271 27.5407 15.4275 27.2377V22.6663C15.4271 22.3633 15.3066 22.0728 15.0924 21.8585C14.8781 21.6443 14.5876 21.5238 14.2846 21.5234H9.71317C9.41016 21.5238 9.11966 21.6443 8.9054 21.8585C8.69115 22.0728 8.57064 22.3633 8.57031 22.6663V27.2377C8.57064 27.5407 8.69115 27.8312 8.9054 28.0455C9.11966 28.2597 9.41016 28.3803 9.71317 28.3806ZM9.71317 22.6663H14.2846L14.2853 27.2377H9.71317V22.6663Z" fill="#1A1917"/>
<path d="M22.2846 21.5234H17.7132C17.4102 21.5238 17.1197 21.6443 16.9054 21.8585C16.6911 22.0728 16.5706 22.3633 16.5703 22.6663V27.2377C16.5706 27.5407 16.6911 27.8312 16.9054 28.0455C17.1197 28.2597 17.4102 28.3803 17.7132 28.3806H22.2846C22.5876 28.3803 22.8781 28.2597 23.0924 28.0455C23.3066 27.8312 23.4271 27.5407 23.4275 27.2377V22.6663C23.4271 22.3633 23.3066 22.0728 23.0924 21.8585C22.8781 21.6443 22.5876 21.5238 22.2846 21.5234ZM17.7132 27.2377V22.6663H22.2846L22.2853 27.2377H17.7132Z" fill="#1A1917"/>
<path d="M30.2846 21.5234H25.7132C25.4102 21.5238 25.1197 21.6443 24.9054 21.8585C24.6911 22.0728 24.5706 22.3633 24.5703 22.6663V27.2377C24.5706 27.5407 24.6911 27.8312 24.9054 28.0455C25.1197 28.2597 25.4102 28.3803 25.7132 28.3806H30.2846C30.5876 28.3803 30.8781 28.2597 31.0924 28.0455C31.3066 27.8312 31.4271 27.5407 31.4275 27.2377V22.6663C31.4271 22.3633 31.3066 22.0728 31.0924 21.8585C30.8781 21.6443 30.5876 21.5238 30.2846 21.5234ZM25.7132 27.2377V22.6663H30.2846L30.2853 27.2377H25.7132Z" fill="#1A1917"/>
<path d="M38.2846 21.5234H33.7132C33.4102 21.5238 33.1197 21.6443 32.9054 21.8585C32.6911 22.0728 32.5706 22.3633 32.5703 22.6663V27.2377C32.5706 27.5407 32.6911 27.8312 32.9054 28.0455C33.1197 28.2597 33.4102 28.3803 33.7132 28.3806H38.2846C38.5876 28.3803 38.8781 28.2597 39.0924 28.0455C39.3066 27.8312 39.4271 27.5407 39.4275 27.2377V22.6663C39.4271 22.3633 39.3066 22.0728 39.0924 21.8585C38.8781 21.6443 38.5876 21.5238 38.2846 21.5234ZM33.7132 27.2377V22.6663H38.2846L38.2853 27.2377H33.7132Z" fill="#1A1917"/>
<path d="M9.71317 36.3806H14.2846C14.5876 36.3803 14.8781 36.2597 15.0924 36.0455C15.3066 35.8312 15.4271 35.5407 15.4275 35.2377V30.6663C15.4271 30.3633 15.3066 30.0728 15.0924 29.8585C14.8781 29.6443 14.5876 29.5238 14.2846 29.5234H9.71317C9.41016 29.5238 9.11966 29.6443 8.9054 29.8585C8.69115 30.0728 8.57064 30.3633 8.57031 30.6663V35.2377C8.57064 35.5407 8.69115 35.8312 8.9054 36.0455C9.11966 36.2597 9.41016 36.3803 9.71317 36.3806ZM9.71317 30.6663H14.2846L14.2853 35.2377H9.71317V30.6663Z" fill="#1A1917"/>
<path d="M22.2846 29.5234H17.7132C17.4102 29.5238 17.1197 29.6443 16.9054 29.8585C16.6911 30.0728 16.5706 30.3633 16.5703 30.6663V35.2377C16.5706 35.5407 16.6911 35.8312 16.9054 36.0455C17.1197 36.2597 17.4102 36.3803 17.7132 36.3806H22.2846C22.5876 36.3803 22.8781 36.2597 23.0924 36.0455C23.3066 35.8312 23.4271 35.5407 23.4275 35.2377V30.6663C23.4271 30.3633 23.3066 30.0728 23.0924 29.8585C22.8781 29.6443 22.5876 29.5238 22.2846 29.5234ZM17.7132 35.2377V30.6663H22.2846L22.2853 35.2377H17.7132Z" fill="#1A1917"/>
<path d="M30.2846 29.5234H25.7132C25.4102 29.5238 25.1197 29.6443 24.9054 29.8585C24.6911 30.0728 24.5706 30.3633 24.5703 30.6663V35.2377C24.5706 35.5407 24.6911 35.8312 24.9054 36.0455C25.1197 36.2597 25.4102 36.3803 25.7132 36.3806H30.2846C30.5876 36.3803 30.8781 36.2597 31.0924 36.0455C31.3066 35.8312 31.4271 35.5407 31.4275 35.2377V30.6663C31.4271 30.3633 31.3066 30.0728 31.0924 29.8585C30.8781 29.6443 30.5876 29.5238 30.2846 29.5234ZM25.7132 35.2377V30.6663H30.2846L30.2853 35.2377H25.7132Z" fill="#1A1917"/>
<path d="M38.2846 29.5234H33.7132C33.4102 29.5238 33.1197 29.6443 32.9054 29.8585C32.6911 30.0728 32.5706 30.3633 32.5703 30.6663V35.2377C32.5706 35.5407 32.6911 35.8312 32.9054 36.0455C33.1197 36.2597 33.4102 36.3803 33.7132 36.3806H38.2846C38.5876 36.3803 38.8781 36.2597 39.0924 36.0455C39.3066 35.8312 39.4271 35.5407 39.4275 35.2377V30.6663C39.4271 30.3633 39.3066 30.0728 39.0924 29.8585C38.8781 29.6443 38.5876 29.5238 38.2846 29.5234ZM33.7132 35.2377V30.6663H38.2846L38.2853 35.2377H33.7132Z" fill="#1A1917"/>
<path d="M9.14174 38.6663H14.2846C14.4362 38.6663 14.5815 38.6061 14.6887 38.4989C14.7958 38.3918 14.856 38.2464 14.856 38.0949C14.856 37.9433 14.7958 37.798 14.6887 37.6908C14.5815 37.5836 14.4362 37.5234 14.2846 37.5234H9.14174C8.99019 37.5234 8.84484 37.5836 8.73768 37.6908C8.63052 37.798 8.57031 37.9433 8.57031 38.0949C8.57031 38.2464 8.63052 38.3918 8.73768 38.4989C8.84484 38.6061 8.99019 38.6663 9.14174 38.6663Z" fill="#E53935"/>
<path d="M19.7132 39.8125H9.14174C8.99019 39.8125 8.84484 39.8727 8.73768 39.9799C8.63052 40.087 8.57031 40.2324 8.57031 40.3839C8.57031 40.5355 8.63052 40.6808 8.73768 40.788C8.84484 40.8952 8.99019 40.9554 9.14174 40.9554H19.7132C19.8647 40.9554 20.0101 40.8952 20.1172 40.788C20.2244 40.6808 20.2846 40.5355 20.2846 40.3839C20.2846 40.2324 20.2244 40.087 20.1172 39.9799C20.0101 39.8727 19.8647 39.8125 19.7132 39.8125Z" fill="#E53935"/>
<path d="M36.8392 31.9001L35.4847 32.7494L35.3305 32.5214C35.2886 32.4591 35.2348 32.4057 35.1722 32.3642C35.1096 32.3227 35.0394 32.2939 34.9657 32.2796C34.892 32.2652 34.8161 32.2656 34.7425 32.2805C34.6689 32.2955 34.599 32.3249 34.5368 32.3669C34.4745 32.4089 34.4212 32.4628 34.3798 32.5255C34.3384 32.5882 34.3097 32.6584 34.2955 32.7322C34.2813 32.8059 34.2817 32.8817 34.2968 32.9553C34.3119 33.0289 34.3414 33.0988 34.3835 33.1609L34.8469 33.8468C34.9298 33.9696 35.0572 34.0554 35.2022 34.0861C35.3471 34.1167 35.4984 34.0899 35.6239 34.0111L37.4463 32.8682C37.51 32.8284 37.5651 32.7764 37.6087 32.7153C37.6522 32.6541 37.6833 32.585 37.7001 32.5118C37.7169 32.4386 37.7191 32.3628 37.7066 32.2888C37.6941 32.2148 37.6671 32.1439 37.6272 32.0803C37.5874 32.0167 37.5353 31.9616 37.4741 31.9181C37.4129 31.8746 37.3438 31.8436 37.2706 31.8269C37.1974 31.8101 37.1216 31.808 37.0476 31.8205C36.9736 31.8331 36.9028 31.8601 36.8392 31.9001Z" fill="#E53935"/>
<path d="M20.8392 23.8996L19.4847 24.7489L19.3305 24.5209C19.2886 24.4586 19.2348 24.4052 19.1722 24.3637C19.1096 24.3222 19.0394 24.2934 18.9657 24.2791C18.892 24.2647 18.8161 24.2651 18.7425 24.28C18.6689 24.295 18.599 24.3244 18.5368 24.3664C18.4745 24.4084 18.4212 24.4623 18.3798 24.525C18.3384 24.5877 18.3097 24.6579 18.2955 24.7317C18.2813 24.8054 18.2817 24.8812 18.2968 24.9548C18.3119 25.0284 18.3414 25.0983 18.3835 25.1604L18.8469 25.8463C18.9298 25.9691 19.0572 26.0549 19.2022 26.0856C19.3471 26.1162 19.4984 26.0894 19.6239 26.0106L21.4463 24.8678C21.5746 24.7872 21.6656 24.659 21.6994 24.5113C21.7332 24.3637 21.7069 24.2087 21.6265 24.0803C21.546 23.952 21.4179 23.8609 21.2702 23.827C21.1226 23.7931 20.9676 23.8192 20.8392 23.8996Z" fill="#E53935"/>
<path d="M36.8392 15.9001L35.4847 16.7494L35.3305 16.5214C35.2886 16.4591 35.2348 16.4057 35.1722 16.3642C35.1096 16.3227 35.0394 16.2939 34.9657 16.2796C34.892 16.2652 34.8161 16.2655 34.7425 16.2805C34.6689 16.2955 34.599 16.3249 34.5368 16.3669C34.4745 16.4089 34.4212 16.4628 34.3798 16.5255C34.3384 16.5882 34.3097 16.6584 34.2955 16.7322C34.2813 16.8059 34.2817 16.8817 34.2968 16.9553C34.3119 17.0289 34.3414 17.0988 34.3835 17.1609L34.8469 17.8468C34.9298 17.9696 35.0572 18.0554 35.2022 18.0861C35.3471 18.1167 35.4984 18.0899 35.6239 18.0111L37.4463 16.8682C37.51 16.8284 37.5651 16.7764 37.6087 16.7153C37.6522 16.6541 37.6833 16.585 37.7001 16.5118C37.7169 16.4386 37.7191 16.3628 37.7066 16.2888C37.6941 16.2148 37.6671 16.1439 37.6272 16.0803C37.5874 16.0167 37.5353 15.9616 37.4741 15.9181C37.4129 15.8746 37.3438 15.8436 37.2706 15.8269C37.1974 15.8101 37.1216 15.808 37.0476 15.8205C36.9736 15.8331 36.9028 15.8601 36.8392 15.9001Z" fill="#E53935"/>
<path d="M45.7137 42.0977H44.8566C44.705 42.0977 44.5597 42.1579 44.4525 42.265C44.3454 42.3722 44.2852 42.5175 44.2852 42.6691C44.2852 42.8206 44.3454 42.966 44.4525 43.0731C44.5597 43.1803 44.705 43.2405 44.8566 43.2405H45.7137C45.8653 43.2405 46.0106 43.1803 46.1178 43.0731C46.225 42.966 46.2852 42.8206 46.2852 42.6691C46.2852 42.5175 46.225 42.3722 46.1178 42.265C46.0106 42.1579 45.8653 42.0977 45.7137 42.0977Z" fill="#1A1917"/>
<path d="M47.4269 43.2405C47.7425 43.2405 47.9983 42.9847 47.9983 42.6691C47.9983 42.3535 47.7425 42.0977 47.4269 42.0977C47.1113 42.0977 46.8555 42.3535 46.8555 42.6691C46.8555 42.9847 47.1113 43.2405 47.4269 43.2405Z" fill="#1A1917"/>
<path d="M43.0626 42.0965H41.9742C42.1774 41.7499 42.2847 41.3555 42.285 40.9537V10.0965C42.2833 9.49088 42.0419 8.91052 41.6136 8.48225C41.1854 8.05398 40.605 7.8126 39.9993 7.81083H37.7136V7.2394C37.7136 7.08785 37.6534 6.9425 37.5463 6.83534C37.4391 6.72817 37.2937 6.66797 37.1422 6.66797C36.9906 6.66797 36.8453 6.72817 36.7381 6.83534C36.631 6.9425 36.5708 7.08785 36.5708 7.2394V7.81083H31.1422V7.2394C31.1422 7.08785 31.082 6.9425 30.9748 6.83534C30.8677 6.72817 30.7223 6.66797 30.5708 6.66797C30.4192 6.66797 30.2739 6.72817 30.1667 6.83534C30.0595 6.9425 29.9993 7.08785 29.9993 7.2394V7.81083H24.5708V7.2394C24.5708 7.08785 24.5106 6.9425 24.4034 6.83534C24.2962 6.72817 24.1509 6.66797 23.9993 6.66797C23.8478 6.66797 23.7024 6.72817 23.5953 6.83534C23.4881 6.9425 23.4279 7.08785 23.4279 7.2394V7.81083H17.9993V7.2394C17.9993 7.08785 17.9391 6.9425 17.832 6.83534C17.7248 6.72817 17.5795 6.66797 17.4279 6.66797C17.2764 6.66797 17.131 6.72817 17.0238 6.83534C16.9167 6.9425 16.8565 7.08785 16.8565 7.2394V7.81083H11.4279V7.2394C11.4279 7.08785 11.3677 6.9425 11.2605 6.83534C11.1534 6.72817 11.008 6.66797 10.8565 6.66797C10.7049 6.66797 10.5596 6.72817 10.4524 6.83534C10.3453 6.9425 10.2851 7.08785 10.2851 7.2394V7.81083H7.99934C7.39367 7.8126 6.81332 8.05398 6.38505 8.48226C5.95678 8.91053 5.7154 9.49088 5.71362 10.0965V40.9537C5.71396 41.3555 5.82124 41.7499 6.02445 42.0965H4.93611C4.85481 42.0859 4.77219 42.0928 4.69375 42.1166C4.61532 42.1405 4.54287 42.1808 4.48126 42.2349C4.41965 42.289 4.37028 42.3556 4.33647 42.4303C4.30265 42.5049 4.28516 42.586 4.28516 42.668C4.28516 42.75 4.30265 42.831 4.33647 42.9057C4.37028 42.9804 4.41965 43.047 4.48126 43.1011C4.54287 43.1551 4.61532 43.1955 4.69375 43.2193C4.77219 43.2432 4.85481 43.25 4.93611 43.2394H43.0626C43.1439 43.25 43.2265 43.2432 43.3049 43.2193C43.3834 43.1955 43.4558 43.1551 43.5174 43.1011C43.579 43.047 43.6284 42.9804 43.6622 42.9057C43.696 42.831 43.7135 42.75 43.7135 42.668C43.7135 42.586 43.696 42.5049 43.6622 42.4303C43.6284 42.3556 43.579 42.289 43.5174 42.2349C43.4558 42.1808 43.3834 42.1405 43.3049 42.1166C43.2265 42.0928 43.1439 42.0859 43.0626 42.0965ZM6.85648 10.0965C6.85682 9.79354 6.97734 9.50305 7.19159 9.28879C7.40584 9.07454 7.69634 8.95402 7.99934 8.95368H10.2851V9.52511C10.2851 9.67666 10.3453 9.82201 10.4524 9.92917C10.5596 10.0363 10.7049 10.0965 10.8565 10.0965C11.008 10.0965 11.1534 10.0363 11.2605 9.92917C11.3677 9.82201 11.4279 9.67666 11.4279 9.52511V8.95368H16.8565V9.52511C16.8565 9.67666 16.9167 9.82201 17.0238 9.92917C17.131 10.0363 17.2764 10.0965 17.4279 10.0965C17.5795 10.0965 17.7248 10.0363 17.832 9.92917C17.9391 9.82201 17.9993 9.67666 17.9993 9.52511V8.95368H23.4279V9.52511C23.4279 9.67666 23.4881 9.82201 23.5953 9.92917C23.7024 10.0363 23.8478 10.0965 23.9993 10.0965C24.1509 10.0965 24.2962 10.0363 24.4034 9.92917C24.5106 9.82201 24.5708 9.67666 24.5708 9.52511V8.95368H29.9993V9.52511C29.9993 9.67666 30.0595 9.82201 30.1667 9.92917C30.2739 10.0363 30.4192 10.0965 30.5708 10.0965C30.7223 10.0965 30.8677 10.0363 30.9748 9.92917C31.082 9.82201 31.1422 9.67666 31.1422 9.52511V8.95368H36.5708V9.52511C36.5708 9.67666 36.631 9.82201 36.7381 9.92917C36.8453 10.0363 36.9906 10.0965 37.1422 10.0965C37.2937 10.0965 37.4391 10.0363 37.5463 9.92917C37.6534 9.82201 37.7136 9.67666 37.7136 9.52511V8.95368H39.9993C40.3023 8.95402 40.5928 9.07454 40.8071 9.28879C41.0213 9.50305 41.1419 9.79354 41.1422 10.0965V11.2394H6.85648V10.0965ZM7.99934 42.0965C7.69634 42.0962 7.40584 41.9757 7.19159 41.7614C6.97734 41.5472 6.85682 41.2567 6.85648 40.9537V12.3823H41.1422V40.9537C41.1419 41.2567 41.0213 41.5472 40.8071 41.7614C40.5928 41.9757 40.3023 42.0962 39.9993 42.0965H7.99934Z" fill="#1A1917"/>
</g>
<defs>
<clipPath id="clip0_1223_2225">
<rect width="48" height="48" fill="white"/>
</clipPath>
</defs>
</svg>
