<svg width="48" height="48" viewBox="0 0 48 48" fill="none" xmlns="http://www.w3.org/2000/svg">
<g clip-path="url(#clip0_1223_2622)">
<path d="M0.571429 40.8577C0.88702 40.8577 1.14286 40.6019 1.14286 40.2863C1.14286 39.9707 0.88702 39.7148 0.571429 39.7148C0.255837 39.7148 0 39.9707 0 40.2863C0 40.6019 0.255837 40.8577 0.571429 40.8577Z" fill="#1A1917"/>
<path d="M3.14342 39.7148H2.28627C2.13472 39.7148 1.98937 39.775 1.88221 39.8822C1.77505 39.9894 1.71484 40.1347 1.71484 40.2863C1.71484 40.4378 1.77505 40.5832 1.88221 40.6903C1.98937 40.7975 2.13472 40.8577 2.28627 40.8577H3.14342C3.29497 40.8577 3.44031 40.7975 3.54748 40.6903C3.65464 40.5832 3.71484 40.4378 3.71484 40.2863C3.71484 40.1347 3.65464 39.9894 3.54748 39.8822C3.44031 39.775 3.29497 39.7148 3.14342 39.7148Z" fill="#1A1917"/>
<path d="M45.7137 39.7148H44.8566C44.705 39.7148 44.5597 39.775 44.4525 39.8822C44.3454 39.9894 44.2852 40.1347 44.2852 40.2863C44.2852 40.4378 44.3454 40.5832 44.4525 40.6903C44.5597 40.7975 44.705 40.8577 44.8566 40.8577H45.7137C45.8653 40.8577 46.0106 40.7975 46.1178 40.6903C46.225 40.5832 46.2852 40.4378 46.2852 40.2863C46.2852 40.1347 46.225 39.9894 46.1178 39.8822C46.0106 39.775 45.8653 39.7148 45.7137 39.7148Z" fill="#1A1917"/>
<path d="M47.4269 40.8577C47.7425 40.8577 47.9983 40.6019 47.9983 40.2863C47.9983 39.9707 47.7425 39.7148 47.4269 39.7148C47.1113 39.7148 46.8555 39.9707 46.8555 40.2863C46.8555 40.6019 47.1113 40.8577 47.4269 40.8577Z" fill="#1A1917"/>
<path d="M33.7566 42H31.3829C31.2393 42.0115 31.1052 42.0767 31.0075 42.1826C30.9097 42.2885 30.8555 42.4273 30.8555 42.5714C30.8555 42.7155 30.9097 42.8544 31.0075 42.9603C31.1052 43.0662 31.2393 43.1313 31.3829 43.1429H33.7566C33.9002 43.1313 34.0343 43.0662 34.132 42.9603C34.2298 42.8544 34.2841 42.7155 34.2841 42.5714C34.2841 42.4273 34.2298 42.2885 34.132 42.1826C34.0343 42.0767 33.9002 42.0115 33.7566 42Z" fill="#E53935"/>
<path d="M16.616 42H14.2423C14.0987 42.0115 13.9646 42.0767 13.8669 42.1826C13.7691 42.2885 13.7148 42.4273 13.7148 42.5714C13.7148 42.7155 13.7691 42.8544 13.8669 42.9603C13.9646 43.0662 14.0987 43.1313 14.2423 43.1429H16.616C16.7596 43.1313 16.8937 43.0662 16.9914 42.9603C17.0892 42.8544 17.1434 42.7155 17.1434 42.5714C17.1434 42.4273 17.0892 42.2885 16.9914 42.1826C16.8937 42.0767 16.7596 42.0115 16.616 42Z" fill="#E53935"/>
<path d="M29.7148 42H18.2863C18.1347 42 17.9894 42.0602 17.8822 42.1674C17.775 42.2745 17.7148 42.4199 17.7148 42.5714C17.7148 42.723 17.775 42.8683 17.8822 42.9755C17.9894 43.0827 18.1347 43.1429 18.2863 43.1429H22.8406V43.7143H20.572C20.4204 43.7143 20.2751 43.7745 20.1679 43.8817C20.0608 43.9888 20.0006 44.1342 20.0006 44.2857C20.0006 44.4373 20.0608 44.5826 20.1679 44.6898C20.2751 44.7969 20.4204 44.8571 20.572 44.8571H27.7148C27.8664 44.8571 28.0117 44.7969 28.1189 44.6898C28.2261 44.5826 28.2863 44.4373 28.2863 44.2857C28.2863 44.1342 28.2261 43.9888 28.1189 43.8817C28.0117 43.7745 27.8664 43.7143 27.7148 43.7143H25.1606V43.1429H29.7148C29.8664 43.1429 30.0117 43.0827 30.1189 42.9755C30.2261 42.8683 30.2863 42.723 30.2863 42.5714C30.2863 42.4199 30.2261 42.2745 30.1189 42.1674C30.0117 42.0602 29.8664 42 29.7148 42Z" fill="#E53935"/>
<path d="M14.5231 27.6136C14.651 27.6937 14.8051 27.7208 14.9526 27.689C15.1002 27.6573 15.2295 27.5692 15.3131 27.4435C15.8207 26.6783 16.4573 26.007 17.1946 25.4595C17.3152 25.3678 17.3943 25.2318 17.4147 25.0817C17.435 24.9315 17.3949 24.7794 17.3031 24.6589C17.2113 24.5383 17.0754 24.4591 16.9253 24.4388C16.7751 24.4184 16.623 24.4586 16.5024 24.5503C15.6596 25.1778 14.9323 25.947 14.3531 26.8236C14.2709 26.9509 14.2426 27.1057 14.2745 27.2538C14.3064 27.4019 14.3958 27.5314 14.5231 27.6136Z" fill="#E53935"/>
<path d="M19.0988 24.2258C19.4875 24.0139 19.8986 23.8081 20.3212 23.614C20.3264 23.6116 20.8445 23.3743 21.7101 23.0571C21.8523 23.0049 21.9681 22.8984 22.0318 22.7609C22.0955 22.6234 22.102 22.4662 22.0499 22.3239C21.9977 22.1816 21.8911 22.0659 21.7536 22.0022C21.6161 21.9385 21.459 21.932 21.3167 21.9841C20.4038 22.3188 19.8658 22.5657 19.8439 22.5757C19.3979 22.7806 18.9632 22.9982 18.5517 23.2225C18.4187 23.2951 18.3199 23.4175 18.2771 23.5629C18.2344 23.7082 18.2511 23.8646 18.3236 23.9977C18.3987 24.1281 18.5212 24.2246 18.6655 24.2671C18.8099 24.3096 18.9651 24.2948 19.0988 24.2258Z" fill="#1A1917"/>
<path d="M14.9025 34.313C14.8518 34.1708 14.7468 34.0544 14.6105 33.9893C14.4742 33.9243 14.3177 33.9158 14.1752 33.9658C14.0327 34.0158 13.9158 34.1202 13.85 34.2561C13.7842 34.3921 13.775 34.5485 13.8242 34.6913C14.1661 35.6488 14.5912 36.5744 15.0946 37.4577C15.1691 37.5896 15.2929 37.6866 15.4388 37.7273C15.5848 37.7679 15.7409 37.749 15.8729 37.6746C16.0048 37.6001 16.1018 37.4764 16.1426 37.3304C16.1833 37.1845 16.1644 37.0284 16.09 36.8964C15.6195 36.0716 15.2221 35.2072 14.9025 34.313Z" fill="#E53935"/>
<path d="M13.8764 32.7847C14.0265 32.7644 14.1624 32.6852 14.2542 32.5647C14.346 32.4441 14.3862 32.292 14.3659 32.1418C14.3145 31.768 14.2883 31.3911 14.2873 31.0138C14.2856 30.4779 14.3458 29.9437 14.4667 29.4217C14.5004 29.2746 14.4746 29.1201 14.3948 28.992C14.315 28.8639 14.1877 28.7725 14.0408 28.7379C13.8939 28.7033 13.7393 28.7282 13.6107 28.8072C13.4821 28.8861 13.3899 29.0128 13.3544 29.1595C13.2132 29.7675 13.1428 30.3897 13.1446 31.0139C13.1456 31.4425 13.1752 31.8706 13.2334 32.2953C13.252 32.4321 13.3195 32.5577 13.4235 32.6486C13.5274 32.7395 13.6608 32.7897 13.7989 32.7899C13.8248 32.7899 13.8507 32.7882 13.8764 32.7847Z" fill="#1A1917"/>
<path d="M23.9187 22.3394C24.3716 22.211 24.8282 22.0926 25.276 21.9876C25.3493 21.9708 25.4186 21.9396 25.4799 21.8959C25.5411 21.8522 25.5932 21.7968 25.633 21.733C25.6728 21.6691 25.6995 21.598 25.7118 21.5238C25.724 21.4495 25.7215 21.3736 25.7043 21.3003C25.6872 21.2271 25.6557 21.1579 25.6117 21.0969C25.5677 21.0358 25.5121 20.984 25.4481 20.9445C25.3841 20.905 25.3128 20.8785 25.2385 20.8666C25.1642 20.8547 25.0883 20.8575 25.0151 20.875C24.5503 20.9841 24.0765 21.1069 23.6068 21.2402C23.5346 21.2607 23.4672 21.2952 23.4083 21.3417C23.3495 21.3883 23.3004 21.4459 23.2638 21.5115C23.2272 21.577 23.204 21.6491 23.1953 21.7236C23.1866 21.7981 23.1926 21.8736 23.2131 21.9458C23.2578 22.0894 23.3559 22.2103 23.4872 22.2836C23.6186 22.3569 23.773 22.3769 23.9187 22.3394Z" fill="#E53935"/>
<path d="M43.0626 39.7132H30.0581C30.0586 39.5631 30.0295 39.4144 29.9724 39.2756C29.9153 39.1369 29.8313 39.0107 29.7252 38.9045C28.628 37.807 27.4827 36.6985 26.4723 35.7204C25.1022 34.3942 23.9188 33.2489 23.2878 32.5525C22.2971 31.4595 21.1621 29.9927 21.18 28.34C21.202 26.2999 23.019 24.8799 25.4294 23.892V28.2862H25.1437C24.8408 28.2865 24.5503 28.407 24.3361 28.6213C24.1219 28.8355 24.0013 29.1259 24.001 29.4289V30.0003C24.0013 30.3032 24.1219 30.5937 24.3361 30.8079C24.5503 31.0221 24.8408 31.1426 25.1437 31.143H30.8575C31.1605 31.1426 31.4509 31.0221 31.6652 30.8079C31.8794 30.5937 31.9999 30.3032 32.0003 30.0003V29.4289C31.9999 29.1259 31.8794 28.8355 31.6652 28.6213C31.4509 28.407 31.1605 28.2865 30.8575 28.2862H30.5718V22.4599C30.8078 22.4157 31.0427 22.3732 31.2749 22.3337C32.3882 22.1442 33.5045 21.9981 34.5715 21.8852V25.1437H34.2858C33.9828 25.1441 33.6923 25.2646 33.4781 25.4788C33.2639 25.693 33.1434 25.9835 33.143 26.2864V26.8578C33.1434 27.1608 33.2639 27.4512 33.4781 27.6654C33.6923 27.8797 33.9828 28.0002 34.2858 28.0005H39.9995C40.3025 28.0002 40.593 27.8797 40.8072 27.6654C41.0214 27.4512 41.1419 27.1608 41.1423 26.8578V26.2864C41.1419 25.9835 41.0214 25.693 40.8072 25.4788C40.593 25.2646 40.3025 25.1441 39.9995 25.1437H39.7138V21.5369C40.928 21.4983 41.6872 21.5053 41.7071 21.5057C41.7828 21.5073 41.858 21.4935 41.9282 21.4651C41.9984 21.4368 42.0621 21.3944 42.1154 21.3406C42.1691 21.2875 42.2118 21.2242 42.2409 21.1545C42.27 21.0847 42.285 21.0099 42.2851 20.9343V19.6347C42.2851 19.4929 42.2324 19.3562 42.1372 19.2511C42.042 19.146 41.9111 19.0801 41.77 19.0661C25.4886 17.4508 14.5238 19.7873 9.18147 26.0084C4.71908 31.205 5.6449 37.5011 6.16169 39.7132H4.93611C4.85481 39.7026 4.77219 39.7094 4.69375 39.7333C4.61532 39.7571 4.54287 39.7974 4.48126 39.8515C4.41965 39.9056 4.37028 39.9722 4.33647 40.0469C4.30265 40.1216 4.28516 40.2026 4.28516 40.2846C4.28516 40.3666 4.30265 40.4476 4.33647 40.5223C4.37028 40.597 4.41965 40.6636 4.48126 40.7177C4.54287 40.7718 4.61532 40.8121 4.69375 40.836C4.77219 40.8598 4.85481 40.8667 4.93611 40.856H43.0626C43.1439 40.8667 43.2265 40.8598 43.3049 40.836C43.3834 40.8121 43.4558 40.7718 43.5174 40.7177C43.579 40.6636 43.6284 40.597 43.6622 40.5223C43.696 40.4476 43.7135 40.3666 43.7135 40.2846C43.7135 40.2026 43.696 40.1216 43.6622 40.0469C43.6284 39.9722 43.579 39.9056 43.5174 39.8515C43.4558 39.7974 43.3834 39.7571 43.3049 39.7333C43.2265 39.7094 43.1439 39.7026 43.0626 39.7132ZM30.8575 29.4289L30.8582 30.0003H25.1437V29.4289H30.8575ZM29.4291 26.2864V28.2862H26.5722V26.2864L29.4291 26.2864ZM26.5722 25.1437V23.4682C27.51 23.1589 28.4637 22.8997 29.4291 22.6919V25.1437H26.5722ZM39.9995 26.2864L40.0002 26.8578H34.2858V26.2864H39.9995ZM38.5711 24.001V25.1437H35.7142V24.001L38.5711 24.001ZM35.7142 22.8583V21.7749C36.7567 21.6833 37.727 21.6226 38.5711 21.5824V22.8583L35.7142 22.8583ZM10.0484 26.7529C14.0718 22.0677 21.5687 19.71 32.3938 19.71C35.102 19.71 38.0181 19.8577 41.1423 20.1533V20.3642C37.7775 20.3955 34.4196 20.6765 31.0963 21.2049C23.7958 22.4451 20.0749 24.8416 20.0372 28.3277C20.0152 30.3773 21.3103 32.0723 22.441 33.32C23.0972 34.044 24.293 35.2013 25.6775 36.5414C26.6847 37.5164 27.8263 38.6214 28.9177 39.7132H18.0089C17.86 39.532 17.62 39.2301 17.3282 38.8256C17.2843 38.7647 17.2288 38.7131 17.165 38.6737C17.1011 38.6343 17.0301 38.6078 16.956 38.5958C16.8819 38.5839 16.8062 38.5866 16.7332 38.6039C16.6602 38.6211 16.5913 38.6526 16.5304 38.6966C16.4696 38.7405 16.4179 38.7959 16.3785 38.8598C16.3391 38.9236 16.3126 38.9946 16.3007 39.0687C16.2887 39.1428 16.2914 39.2185 16.3087 39.2915C16.326 39.3646 16.3575 39.4335 16.4014 39.4943C16.4569 39.5713 16.5098 39.6431 16.5618 39.7132H7.33756C6.88405 37.9413 5.73936 31.771 10.0484 26.7529Z" fill="#1A1917"/>
</g>
<defs>
<clipPath id="clip0_1223_2622">
<rect width="48" height="48" fill="white"/>
</clipPath>
</defs>
</svg>
