<svg width="48" height="48" viewBox="0 0 48 48" fill="none" xmlns="http://www.w3.org/2000/svg">
<g clip-path="url(#clip0_1223_1017)">
<path d="M34.8537 18.9055C34.7397 18.8028 34.5715 18.7357 34.3861 18.719C34.2006 18.7022 34.0132 18.7371 33.8649 18.8161L28 21.9422C28.3478 22.1646 28.6396 22.4258 28.8631 22.7148L34.7249 19.5906C34.8731 19.5116 34.9699 19.395 34.9941 19.2666C35.0182 19.1381 34.9678 19.0082 34.8537 18.9055Z" fill="#E53935"/>
<path d="M28 25.2148C28 24.7204 27.8827 24.237 27.6629 23.8259C27.4432 23.4148 27.1308 23.0944 26.7654 22.9051C26.3999 22.7159 25.9978 22.6664 25.6098 22.7629C25.2219 22.8593 24.8655 23.0974 24.5858 23.4471C24.3061 23.7967 24.1156 24.2422 24.0384 24.7271C23.9613 25.2121 24.0009 25.7147 24.1522 26.1716C24.3036 26.6284 24.56 27.0188 24.8889 27.2935C25.2178 27.5682 25.6044 27.7148 26 27.7148C26.5302 27.7141 27.0386 27.4504 27.4135 26.9818C27.7885 26.5131 27.9994 25.8777 28 25.2148ZM26 26.4648C25.8022 26.4648 25.6089 26.3915 25.4444 26.2542C25.28 26.1168 25.1518 25.9216 25.0761 25.6932C25.0004 25.4648 24.9806 25.2135 25.0192 24.971C25.0578 24.7285 25.153 24.5058 25.2929 24.331C25.4327 24.1561 25.6109 24.0371 25.8049 23.9889C25.9989 23.9406 26.2 23.9654 26.3827 24.06C26.5654 24.1546 26.7216 24.3148 26.8315 24.5204C26.9414 24.7259 27 24.9676 27 25.2148C26.9997 25.5463 26.8943 25.864 26.7068 26.0984C26.5193 26.3327 26.2651 26.4645 26 26.4648Z" fill="#E53935"/>
<path d="M26 35.4648V36.9648C26 37.1638 26.0527 37.3545 26.1464 37.4952C26.2402 37.6358 26.3674 37.7148 26.5 37.7148C26.6326 37.7148 26.7598 37.6358 26.8536 37.4952C26.9473 37.3545 27 37.1638 27 36.9648V35.4648C27 35.2659 26.9473 35.0752 26.8536 34.9345C26.7598 34.7939 26.6326 34.7148 26.5 34.7148C26.3674 34.7148 26.2402 34.7939 26.1464 34.9345C26.0527 35.0752 26 35.2659 26 35.4648Z" fill="#1A1917"/>
<path d="M38.5 25.7148C38.6326 25.7148 38.7598 25.6622 38.8536 25.5684C38.9473 25.4746 39 25.3475 39 25.2148C39 25.0822 38.9473 24.9551 38.8536 24.8613C38.7598 24.7675 38.6326 24.7148 38.5 24.7148H37.5C37.3674 24.7148 37.2402 24.7675 37.1464 24.8613C37.0527 24.9551 37 25.0822 37 25.2148C37 25.3475 37.0527 25.4746 37.1464 25.5684C37.2402 25.6622 37.3674 25.7148 37.5 25.7148H38.5Z" fill="#1A1917"/>
<path d="M33.9765 31.9579C33.9212 31.8776 33.8562 31.8149 33.7851 31.7732C33.7141 31.7316 33.6384 31.7119 33.5624 31.7152C33.4864 31.7186 33.4116 31.7449 33.3422 31.7928C33.2728 31.8406 33.2102 31.909 33.158 31.9941C33.1058 32.0791 33.065 32.1791 33.0379 32.2884C33.0109 32.3977 32.9981 32.5142 33.0002 32.6311C33.0024 32.748 33.0195 32.8632 33.0506 32.9699C33.0817 33.0766 33.1262 33.1729 33.1815 33.2532L34.0235 34.4758C34.1359 34.6356 34.2845 34.7212 34.4375 34.7145C34.5905 34.7077 34.7356 34.6091 34.842 34.4398C34.8942 34.3547 34.935 34.2547 34.962 34.1454C34.9891 34.0361 35.0019 33.9196 34.9998 33.8027C34.9976 33.6858 34.9805 33.5706 34.9494 33.4639C34.9183 33.3572 34.8738 33.2609 34.8185 33.1806L33.9765 31.9579Z" fill="#E53935"/>
<path d="M18.0237 31.9569L17.1815 33.1782C17.1262 33.2584 17.0818 33.3546 17.0507 33.4612C17.0196 33.5678 17.0024 33.6828 17.0002 33.7996C16.9981 33.9164 17.0109 34.0327 17.038 34.1419C17.065 34.2511 17.1058 34.351 17.1581 34.4359C17.2103 34.5209 17.2729 34.5892 17.3423 34.637C17.4117 34.6848 17.4865 34.7111 17.5626 34.7145C17.6386 34.7178 17.7143 34.6981 17.7854 34.6565C17.8564 34.6149 17.9215 34.5522 17.9768 34.472L18.819 33.2507C18.9305 33.0886 18.9955 32.8652 18.9998 32.6295C19.0041 32.3938 18.9473 32.1652 18.8419 31.9937C18.7366 31.8223 18.5912 31.7221 18.4378 31.7152C18.2844 31.7083 18.1355 31.7952 18.0237 31.9569Z" fill="#E53935"/>
<path d="M25.6426 11.3995C25.8586 11.4161 26.0746 11.3682 26.2601 11.2625C26.3406 11.2045 26.406 11.1299 26.4511 11.0442C26.4961 10.9586 26.5197 10.8643 26.52 10.7687V9.76221L29.3673 12.2823L26.52 14.6305V13.65C26.5253 13.5599 26.5111 13.4697 26.4785 13.3849C26.4458 13.3001 26.3952 13.2224 26.3299 13.1566C26.2645 13.0907 26.1857 13.038 26.0981 13.0017C26.0106 12.9655 25.9162 12.9463 25.8206 12.9454C23.1817 13.0185 20.6324 13.865 18.5261 15.3676C16.4199 16.8701 14.8611 18.9542 14.066 21.3307H14.1188C14.5509 21.3307 14.9709 21.4657 15.3131 21.7148C15.9924 19.6823 17.2954 17.8858 19.057 16.5529C20.8186 15.2199 22.9596 14.4105 25.2089 14.2272V15.993C25.2089 16.1118 25.2451 16.2282 25.3133 16.3281C25.3814 16.428 25.4786 16.5073 25.5932 16.5564C25.7079 16.6056 25.835 16.6225 25.9596 16.6053C26.0841 16.588 26.2008 16.5373 26.2956 16.4591L30.7755 12.7646C30.8445 12.7077 30.9001 12.6378 30.9388 12.5594C30.9775 12.481 30.9983 12.3959 30.9999 12.3094C31.0015 12.2229 30.9839 12.1371 30.9483 12.0574C30.9126 11.9778 30.8596 11.9061 30.7928 11.8469L26.3129 7.88222C26.2196 7.79967 26.1028 7.74467 25.9768 7.72399C25.8509 7.70332 25.7212 7.71786 25.6039 7.76584C25.4866 7.81382 25.3867 7.89314 25.3165 7.99404C25.2463 8.09493 25.2089 8.213 25.2089 8.33371V10.1845C21.8958 10.3837 18.7351 11.5702 16.1817 13.5732C13.6284 15.5761 11.8141 18.2923 11 21.3307H12.3591C13.1738 18.5606 14.8991 16.1062 17.2864 14.3214C19.6738 12.5365 22.5997 11.5134 25.6426 11.3995Z" fill="#1A1917"/>
<path d="M8.53933 23.7148H13.4607C13.6037 23.7148 13.7409 23.6622 13.842 23.5684C13.9432 23.4746 14 23.3475 14 23.2148C14 23.0822 13.9432 22.9551 13.842 22.8613C13.7409 22.7675 13.6037 22.7148 13.4607 22.7148H8.53933C8.39629 22.7148 8.25911 22.7675 8.15796 22.8613C8.05682 22.9551 8 23.0822 8 23.2148C8 23.3475 8.05682 23.4746 8.15796 23.5684C8.25911 23.6622 8.39629 23.7148 8.53933 23.7148Z" fill="#1A1917"/>
<path d="M14 29.7148C14 29.4496 13.9432 29.1953 13.842 29.0078C13.7409 28.8202 13.6037 28.7149 13.4607 28.7148H8.53933C8.39629 28.7148 8.25911 28.8202 8.15796 29.0077C8.05682 29.1953 8 29.4496 8 29.7148C8 29.9801 8.05682 30.2344 8.15796 30.422C8.25911 30.6095 8.39629 30.7148 8.53933 30.7148H13.4607C13.6037 30.7148 13.7409 30.6095 13.842 30.4219C13.9432 30.2344 14 29.9801 14 29.7148Z" fill="#1A1917"/>
<path d="M14 26.2148C14 26.0822 13.928 25.9551 13.8 25.8613C13.6719 25.7675 13.4982 25.7149 13.3171 25.7148H0.682927C0.501803 25.7148 0.328098 25.7675 0.200025 25.8613C0.0719511 25.9551 0 26.0822 0 26.2148C0 26.3475 0.0719511 26.4746 0.200025 26.5684C0.328098 26.6622 0.501803 26.7148 0.682927 26.7148H13.3171C13.4982 26.7148 13.6719 26.6622 13.8 26.5684C13.928 26.4746 14 26.3474 14 26.2148Z" fill="#E53935"/>
<path d="M4.60381 23.9459H5.88955C6.06005 23.9459 6.22356 23.8782 6.34412 23.7576C6.46469 23.637 6.53242 23.4735 6.53242 23.303C6.53242 23.1325 6.46469 22.969 6.34412 22.8484C6.22356 22.7279 6.06005 22.6602 5.88955 22.6602H4.60381C4.43331 22.6602 4.26979 22.7279 4.14923 22.8484C4.02867 22.969 3.96094 23.1325 3.96094 23.303C3.96094 23.4735 4.02867 23.637 4.14923 23.7576C4.26979 23.8782 4.43331 23.9459 4.60381 23.9459Z" fill="#1A1917"/>
<path d="M5.88955 29.0898H4.60381C4.43331 29.0898 4.26979 29.1576 4.14923 29.2781C4.02867 29.3987 3.96094 29.5622 3.96094 29.7327C3.96094 29.9032 4.02867 30.0667 4.14923 30.1873C4.26979 30.3079 4.43331 30.3756 4.60381 30.3756H5.88955C6.06005 30.3756 6.22356 30.3079 6.34412 30.1873C6.46469 30.0667 6.53242 29.9032 6.53242 29.7327C6.53242 29.5622 6.46469 29.3987 6.34412 29.2781C6.22356 29.1576 6.06005 29.0898 5.88955 29.0898Z" fill="#1A1917"/>
<path d="M45.4294 39.375H44.4651C44.2946 39.375 44.1311 39.4427 44.0106 39.5633C43.89 39.6839 43.8223 39.8474 43.8223 40.0179C43.8223 40.1884 43.89 40.3519 44.0106 40.4724C44.1311 40.593 44.2946 40.6607 44.4651 40.6607H45.4294C45.5999 40.6607 45.7635 40.593 45.884 40.4724C46.0046 40.3519 46.0723 40.1884 46.0723 40.0179C46.0723 39.8474 46.0046 39.6839 45.884 39.5633C45.7635 39.4427 45.5999 39.375 45.4294 39.375Z" fill="#1A1917"/>
<path d="M47.3538 40.6607C47.7089 40.6607 47.9967 40.3729 47.9967 40.0179C47.9967 39.6628 47.7089 39.375 47.3538 39.375C46.9988 39.375 46.7109 39.6628 46.7109 40.0179C46.7109 40.3729 46.9988 40.6607 47.3538 40.6607Z" fill="#1A1917"/>
<path d="M34.3846 41.7148H31.6154C31.4478 41.735 31.2914 41.8491 31.1774 42.0344C31.0633 42.2197 31 42.4626 31 42.7148C31 42.967 31.0633 43.21 31.1774 43.3953C31.2914 43.5806 31.4478 43.6947 31.6154 43.7148H34.3846C34.5522 43.6947 34.7086 43.5806 34.8226 43.3953C34.9367 43.21 35 42.967 35 42.7148C35 42.4626 34.9367 42.2197 34.8226 42.0344C34.7086 41.8491 34.5522 41.735 34.3846 41.7148Z" fill="#E53935"/>
<path d="M16.3846 41.7148H13.6154C13.4478 41.735 13.2914 41.8491 13.1774 42.0344C13.0633 42.2197 13 42.4626 13 42.7148C13 42.967 13.0633 43.21 13.1774 43.3953C13.2914 43.5806 13.4478 43.6947 13.6154 43.7148H16.3846C16.5522 43.6947 16.7086 43.5806 16.8226 43.3953C16.9367 43.21 17 42.967 17 42.7148C17 42.4626 16.9367 42.2197 16.8226 42.0344C16.7086 41.8491 16.5522 41.735 16.3846 41.7148Z" fill="#E53935"/>
<path d="M30.3636 41.7148H17.6364C17.4676 41.7148 17.3057 41.7991 17.1864 41.9492C17.067 42.0992 17 42.3027 17 42.5148C17 42.727 17.067 42.9305 17.1864 43.0805C17.3057 43.2306 17.4676 43.3148 17.6364 43.3148H22.7082V44.1148H20.1818C20.013 44.1148 19.8512 44.1991 19.7318 44.3492C19.6125 44.4992 19.5455 44.7027 19.5455 44.9148C19.5455 45.127 19.6125 45.3305 19.7318 45.4805C19.8512 45.6306 20.013 45.7148 20.1818 45.7148H28.1364C28.3051 45.7148 28.467 45.6306 28.5863 45.4805C28.7057 45.3305 28.7727 45.127 28.7727 44.9148C28.7727 44.7027 28.7057 44.4992 28.5863 44.3492C28.467 44.1991 28.3051 44.1148 28.1364 44.1148H25.2918V43.3148H30.3636C30.5324 43.3148 30.6943 43.2306 30.8136 43.0805C30.933 42.9305 31 42.727 31 42.5148C31 42.3027 30.933 42.0992 30.8136 41.9492C30.6943 41.7991 30.5324 41.7148 30.3636 41.7148Z" fill="#E53935"/>
<path d="M42.2736 39.4101H32.2054C34.7691 38.2703 36.978 36.4378 38.5928 34.111C40.2076 31.7841 41.1668 29.0516 41.3667 26.2093C41.5666 23.367 40.9994 20.5231 39.7267 17.9855C38.4539 15.448 36.5241 13.3134 34.146 11.813C34.0748 11.7679 33.9956 11.7375 33.9129 11.7235C33.8302 11.7096 33.7456 11.7124 33.6639 11.7319C33.5823 11.7513 33.5052 11.7869 33.4371 11.8367C33.369 11.8866 33.3112 11.9496 33.267 12.0222C33.2228 12.0948 33.1931 12.1755 33.1796 12.2598C33.1661 12.3441 33.1691 12.4303 33.1883 12.5134C33.2076 12.5966 33.2427 12.675 33.2917 12.7443C33.3408 12.8136 33.4027 12.8723 33.4741 12.9172C35.3211 14.0736 36.8802 15.6499 38.0293 17.5228C39.1783 19.3956 39.8861 21.514 40.0972 23.7121C40.3082 25.9102 40.0168 28.1282 39.2458 30.1924C38.4748 32.2565 37.2451 34.1108 35.6531 35.6099C34.0611 37.109 32.1499 38.2122 30.0694 38.8331C27.9889 39.454 25.7955 39.5757 23.6611 39.1887C21.5267 38.8017 19.5093 37.9165 17.7668 36.6024C16.0244 35.2883 14.6043 33.5811 13.6177 31.6145H12.1998C13.7772 35.0957 16.5506 37.8686 19.9968 39.4101H-0.273575C-0.364293 39.398 -0.456498 39.4058 -0.544029 39.4329C-0.63156 39.46 -0.712403 39.5058 -0.781159 39.5673C-0.849916 39.6288 -0.905002 39.7045 -0.942741 39.7894C-0.980479 39.8744 -1 39.9665 -1 40.0597C-1 40.1529 -0.980479 40.245 -0.942741 40.3299C-0.905002 40.4148 -0.849916 40.4906 -0.781159 40.552C-0.712403 40.6135 -0.63156 40.6594 -0.544029 40.6865C-0.456498 40.7136 -0.364293 40.7214 -0.273575 40.7093H42.2736C42.3643 40.7214 42.4565 40.7136 42.544 40.6865C42.6316 40.6594 42.7124 40.6135 42.7812 40.552C42.8499 40.4906 42.905 40.4148 42.9427 40.3299C42.9805 40.245 43 40.1529 43 40.0597C43 39.9665 42.9805 39.8744 42.9427 39.7894C42.905 39.7045 42.8499 39.6288 42.7812 39.5673C42.7124 39.5058 42.6316 39.46 42.544 39.4329C42.4565 39.4058 42.3643 39.398 42.2736 39.4101Z" fill="#1A1917"/>
</g>
<defs>
<clipPath id="clip0_1223_1017">
<rect width="48" height="48" fill="white"/>
</clipPath>
</defs>
</svg>
