<svg width="65" height="48" viewBox="0 0 65 48" fill="none" xmlns="http://www.w3.org/2000/svg">
<g clip-path="url(#clip0_1223_1678)">
<path d="M53.874 32.7984L49.6909 31.1259L46.705 26.3477C46.5164 26.0425 46.2525 25.7909 45.9386 25.617C45.6248 25.4431 45.2715 25.3528 44.9127 25.3548H39.0043C38.4441 25.3552 37.907 25.5779 37.5109 25.974C37.1148 26.3702 36.892 26.9073 36.8916 27.4674V33.8055H35.4831V19.721C35.4814 19.3461 35.3311 18.9872 35.065 18.7232C34.799 18.4591 34.439 18.3114 34.0641 18.3125H13.6627C13.2878 18.3114 12.9279 18.4591 12.6618 18.7232C12.3958 18.9872 12.2454 19.3461 12.2437 19.721V33.8055H11.5394C11.1604 33.8114 10.7992 33.9675 10.5352 34.2395C10.2711 34.5115 10.1257 34.8771 10.131 35.2562V40.4534C10.1257 40.8324 10.2711 41.1981 10.5352 41.47C10.7992 41.742 11.1604 41.8981 11.5394 41.9041H18.2824C18.2488 41.6708 18.2312 41.4355 18.2296 41.1999C18.231 40.9653 18.2487 40.7312 18.2824 40.4991H11.5571C11.5535 40.4991 11.5394 40.4886 11.5394 40.4534V35.2562C11.5389 35.2414 11.5425 35.2267 11.55 35.2139H36.8916V40.4956H28.7402C28.8106 40.9625 28.8106 41.4372 28.7402 41.9041H40.8458C40.7601 41.4396 40.7423 40.9652 40.793 40.4956H38.3V27.4674C38.3006 27.2808 38.375 27.102 38.5069 26.9701C38.6389 26.8381 38.8177 26.7638 39.0043 26.7632H44.9127C45.0325 26.7626 45.1504 26.7926 45.2552 26.8506C45.36 26.9085 45.4482 26.9924 45.5113 27.0942L48.617 32.066C48.6972 32.1931 48.8155 32.2917 48.955 32.3477L53.3493 34.1048C53.4805 34.1568 53.593 34.247 53.6721 34.3638C53.7513 34.4807 53.7934 34.6186 53.793 34.7597V39.7914C53.7925 39.978 53.7181 40.1568 53.5861 40.2888C53.4542 40.4207 53.2754 40.4951 53.0888 40.4956H51.3C51.3507 40.9652 51.333 41.4396 51.2472 41.9041H53.0888C53.649 41.9036 54.1861 41.6809 54.5822 41.2848C54.9783 40.8887 55.201 40.3516 55.2015 39.7914V34.7597C55.2033 34.3372 55.0776 33.9239 54.8407 33.574C54.6039 33.2241 54.2669 32.9538 53.874 32.7984ZM34.0747 33.8055H13.6521L13.6627 22.5379V19.721H34.0747V33.8055Z" fill="#1A1917"/>
<path d="M44.3865 28.4965C44.3228 28.397 44.2351 28.3151 44.1314 28.2584C44.0278 28.2017 43.9115 28.1719 43.7934 28.1719H40.4132C40.2264 28.1719 40.0473 28.2461 39.9153 28.3781C39.7832 28.5102 39.709 28.6893 39.709 28.8761V32.3972C39.709 32.584 39.7832 32.7631 39.9153 32.8952C40.0473 33.0272 40.2264 33.1014 40.4132 33.1015H46.047C46.1734 33.1015 46.2974 33.0675 46.4061 33.0031C46.5148 32.9387 46.6042 32.8462 46.6649 32.7354C46.7255 32.6245 46.7553 32.4994 46.7509 32.3731C46.7466 32.2468 46.7083 32.124 46.6402 32.0176L44.3865 28.4965ZM41.1174 31.693V29.5803H43.4079L44.7603 31.693H41.1174Z" fill="#E53935"/>
<path d="M20.3409 30.6366C20.5277 30.6366 20.7068 30.5624 20.8389 30.4303C20.971 30.2983 21.0452 30.1192 21.0452 29.9324V26.4113C21.0452 26.2245 20.971 26.0454 20.8389 25.9133C20.7068 25.7812 20.5277 25.707 20.3409 25.707C20.1542 25.707 19.975 25.7812 19.843 25.9133C19.7109 26.0454 19.6367 26.2245 19.6367 26.4113V29.9324C19.6367 30.1192 19.7109 30.2983 19.843 30.4303C19.9751 30.5624 20.1542 30.6366 20.3409 30.6366Z" fill="#E53935"/>
<path d="M23.8624 30.6366C24.0492 30.6366 24.2283 30.5624 24.3604 30.4303C24.4924 30.2983 24.5666 30.1192 24.5667 29.9324V26.4113C24.5667 26.2245 24.4925 26.0454 24.3604 25.9133C24.2283 25.7812 24.0492 25.707 23.8624 25.707C23.6757 25.707 23.4965 25.7812 23.3645 25.9133C23.2324 26.0454 23.1582 26.2245 23.1582 26.4113V29.9324C23.1582 30.1192 23.2324 30.2983 23.3645 30.4303C23.4965 30.5624 23.6757 30.6366 23.8624 30.6366Z" fill="#1A1917"/>
<path d="M27.3839 30.6366C27.5707 30.6366 27.7498 30.5624 27.8819 30.4303C28.0139 30.2983 28.0881 30.1192 28.0881 29.9324V26.4113C28.0881 26.2245 28.0139 26.0454 27.8819 25.9133C27.7498 25.7812 27.5707 25.707 27.3839 25.707C27.1971 25.707 27.018 25.7812 26.8859 25.9133C26.7539 26.0454 26.6797 26.2245 26.6797 26.4113V29.9324C26.6797 30.1192 26.7539 30.2983 26.886 30.4303C27.018 30.5624 27.1971 30.6366 27.3839 30.6366Z" fill="#E53935"/>
<path d="M12.9464 14.0842H19.9887C20.1754 14.0842 20.3546 14.01 20.4866 13.878C20.6187 13.7459 20.6929 13.5668 20.6929 13.38C20.6929 13.1932 20.6187 13.0141 20.4866 12.882C20.3546 12.75 20.1754 12.6758 19.9887 12.6758H12.9464C12.7596 12.6758 12.5805 12.75 12.4485 12.882C12.3164 13.0141 12.2422 13.1932 12.2422 13.38C12.2422 13.5668 12.3164 13.7459 12.4485 13.878C12.5805 14.01 12.7596 14.0842 12.9464 14.0842Z" fill="#1A1917"/>
<path d="M16.4688 16.1964C16.4688 16.3832 16.543 16.5623 16.675 16.6944C16.8071 16.8264 16.9862 16.9006 17.173 16.9006H24.2152C24.402 16.9006 24.5811 16.8264 24.7132 16.6944C24.8453 16.5623 24.9195 16.3832 24.9195 16.1964C24.9195 16.0096 24.8453 15.8305 24.7132 15.6984C24.5811 15.5664 24.402 15.4922 24.2152 15.4922H17.173C16.9862 15.4922 16.8071 15.5664 16.675 15.6985C16.543 15.8305 16.4688 16.0096 16.4688 16.1964Z" fill="#E53935"/>
<path d="M37.9484 17.26H44.9906C45.1774 17.26 45.3565 17.1858 45.4886 17.0538C45.6207 16.9217 45.6949 16.7426 45.6949 16.5558C45.6949 16.369 45.6207 16.1899 45.4886 16.0578C45.3565 15.9258 45.1774 15.8516 44.9906 15.8516H37.9484C37.7616 15.8516 37.5825 15.9258 37.4504 16.0578C37.3183 16.1899 37.2441 16.369 37.2441 16.5558C37.2441 16.7426 37.3183 16.9217 37.4504 17.0538C37.5825 17.1858 37.7616 17.26 37.9484 17.26Z" fill="#1A1917"/>
<path d="M41.4688 19.3722C41.4688 19.559 41.543 19.7381 41.675 19.8701C41.8071 20.0022 41.9862 20.0764 42.173 20.0764H49.2152C49.402 20.0764 49.5811 20.0022 49.7132 19.8702C49.8453 19.7381 49.9195 19.559 49.9195 19.3722C49.9195 19.1854 49.8453 19.0063 49.7132 18.8742C49.5811 18.7422 49.402 18.668 49.2152 18.668H42.173C41.9862 18.668 41.8071 18.7422 41.675 18.8742C41.543 19.0063 41.4688 19.1854 41.4688 19.3722Z" fill="#E53935"/>
<path d="M3.79407 45.0725C4.183 45.0725 4.4983 44.7572 4.4983 44.3683C4.4983 43.9794 4.183 43.6641 3.79407 43.6641C3.40514 43.6641 3.08984 43.9794 3.08984 44.3683C3.08984 44.7572 3.40514 45.0725 3.79407 45.0725Z" fill="#1A1917"/>
<path d="M6.96174 43.6641H5.9054C5.71863 43.6641 5.5395 43.7383 5.40743 43.8703C5.27537 44.0024 5.20117 44.1815 5.20117 44.3683C5.20117 44.5551 5.27537 44.7342 5.40743 44.8663C5.5395 44.9983 5.71863 45.0725 5.9054 45.0725H6.96174C7.14851 45.0725 7.32763 44.9983 7.4597 44.8663C7.59177 44.7342 7.66596 44.5551 7.66596 44.3683C7.66596 44.1815 7.59177 44.0024 7.4597 43.8703C7.32763 43.7383 7.14851 43.6641 6.96174 43.6641Z" fill="#1A1917"/>
<path d="M59.4246 43.6641H58.3683C58.1815 43.6641 58.0024 43.7383 57.8703 43.8703C57.7383 44.0024 57.6641 44.1815 57.6641 44.3683C57.6641 44.5551 57.7383 44.7342 57.8703 44.8663C58.0024 44.9983 58.1815 45.0725 58.3683 45.0725H59.4246C59.6114 45.0725 59.7905 44.9983 59.9226 44.8663C60.0547 44.7342 60.1289 44.5551 60.1289 44.3683C60.1289 44.1815 60.0547 44.0024 59.9226 43.8703C59.7905 43.7383 59.6114 43.6641 59.4246 43.6641Z" fill="#1A1917"/>
<path d="M61.5402 45.0725C61.9291 45.0725 62.2444 44.7572 62.2444 44.3683C62.2444 43.9794 61.9291 43.6641 61.5402 43.6641C61.1512 43.6641 60.8359 43.9794 60.8359 44.3683C60.8359 44.7572 61.1512 45.0725 61.5402 45.0725Z" fill="#1A1917"/>
<path d="M44.6925 46.4805H41.7672C41.5902 46.4947 41.425 46.575 41.3045 46.7055C41.1841 46.836 41.1172 47.0071 41.1172 47.1847C41.1172 47.3623 41.1841 47.5334 41.3045 47.6639C41.425 47.7944 41.5902 47.8747 41.7672 47.8889H44.6925C44.8695 47.8747 45.0347 47.7944 45.1552 47.6639C45.2757 47.5334 45.3426 47.3623 45.3426 47.1847C45.3426 47.0071 45.2757 46.836 45.1552 46.7055C45.0347 46.575 44.8695 46.4947 44.6925 46.4805Z" fill="#E53935"/>
<path d="M23.5656 46.4805H20.6403C20.4633 46.4947 20.2981 46.575 20.1776 46.7055C20.0571 46.836 19.9902 47.0071 19.9902 47.1847C19.9902 47.3623 20.0571 47.5334 20.1776 47.6639C20.2981 47.7944 20.4633 47.8747 20.6403 47.8889H23.5656C23.7426 47.8747 23.9078 47.7944 24.0283 47.6639C24.1487 47.5334 24.2156 47.3623 24.2156 47.1847C24.2156 47.0071 24.1487 46.836 24.0283 46.7055C23.9078 46.575 23.7426 46.4947 23.5656 46.4805Z" fill="#E53935"/>
<path d="M39.7087 46.4805H25.6241C25.4374 46.4805 25.2583 46.5547 25.1262 46.6867C24.9941 46.8188 24.9199 46.9979 24.9199 47.1847C24.9199 47.3715 24.9941 47.5506 25.1262 47.6827C25.2583 47.8147 25.4374 47.8889 25.6241 47.8889H31.2368V48.5931H28.4411C28.2543 48.5931 28.0752 48.6673 27.9431 48.7994C27.811 48.9315 27.7368 49.1106 27.7368 49.2974C27.7368 49.4841 27.811 49.6633 27.9431 49.7953C28.0752 49.9274 28.2543 50.0016 28.4411 50.0016H37.2439C37.4306 50.0016 37.6098 49.9274 37.7418 49.7953C37.8739 49.6633 37.9481 49.4841 37.9481 49.2974C37.9481 49.1106 37.8739 48.9315 37.7418 48.7994C37.6098 48.6673 37.4306 48.5931 37.2439 48.5931H34.096V47.8889H39.7087C39.8954 47.8889 40.0746 47.8147 40.2066 47.6827C40.3387 47.5506 40.4129 47.3715 40.4129 47.1847C40.4129 46.9979 40.3387 46.8188 40.2066 46.6867C40.0746 46.5547 39.8954 46.4805 39.7087 46.4805Z" fill="#E53935"/>
<path d="M56.1602 43.6632H48.8724C49.3892 43.1122 49.7335 42.422 49.863 41.6777C49.9925 40.9334 49.9015 40.1675 49.6012 39.4743C49.3009 38.7811 48.8045 38.1908 48.173 37.7762C47.5415 37.3615 46.8025 37.1406 46.0471 37.1406C45.2916 37.1406 44.5526 37.3615 43.9211 37.7762C43.2897 38.1908 42.7932 38.7811 42.4929 39.4743C42.1926 40.1675 42.1016 40.9334 42.2311 41.6777C42.3606 42.422 42.7049 43.1122 43.2217 43.6632H26.4972C26.9654 43.0968 27.2628 42.4089 27.3547 41.6798C27.4466 40.9507 27.3291 40.2106 27.0161 39.5457C26.7031 38.8809 26.2074 38.3188 25.5869 37.9251C24.9664 37.5314 24.2467 37.3223 23.5118 37.3223C22.777 37.3223 22.0573 37.5314 21.4368 37.9251C20.8163 38.3188 20.3206 38.8809 20.0076 39.5457C19.6945 40.2106 19.5771 40.9507 19.669 41.6798C19.7608 42.4089 20.0582 43.0968 20.5264 43.6632H9.17332C9.07314 43.6501 8.97131 43.6586 8.87464 43.688C8.77798 43.7174 8.6887 43.7671 8.61277 43.8337C8.53684 43.9004 8.476 43.9825 8.43433 44.0745C8.39265 44.1666 8.37109 44.2664 8.37109 44.3675C8.37109 44.4685 8.39265 44.5684 8.43433 44.6604C8.476 44.7525 8.53684 44.8345 8.61277 44.9012C8.6887 44.9679 8.77798 45.0175 8.87464 45.0469C8.97131 45.0763 9.07314 45.0848 9.17332 45.0717H56.1602C56.2604 45.0848 56.3622 45.0763 56.4589 45.0469C56.5555 45.0175 56.6448 44.9679 56.7208 44.9012C56.7967 44.8345 56.8575 44.7525 56.8992 44.6604C56.9409 44.5684 56.9624 44.4685 56.9624 44.3675C56.9624 44.2664 56.9409 44.1666 56.8992 44.0745C56.8575 43.9825 56.7967 43.9004 56.7208 43.8337C56.6448 43.7671 56.5555 43.7174 56.4589 43.688C56.3622 43.6586 56.2604 43.6501 56.1602 43.6632ZM46.0471 38.5576C46.5345 38.5576 47.0111 38.7022 47.4164 38.973C47.8218 39.2438 48.1377 39.6288 48.3242 40.0792C48.5108 40.5295 48.5596 41.0251 48.4645 41.5032C48.3694 41.9814 48.1346 42.4206 47.7899 42.7653C47.4452 43.11 47.006 43.3447 46.5279 43.4398C46.0498 43.5349 45.5542 43.4861 45.1038 43.2996C44.6534 43.113 44.2685 42.7971 43.9977 42.3918C43.7268 41.9864 43.5823 41.5099 43.5823 41.0224C43.583 40.3689 43.843 39.7424 44.305 39.2804C44.7671 38.8183 45.3936 38.5584 46.0471 38.5576ZM21.047 41.1984C21.047 40.711 21.1916 40.2344 21.4624 39.8291C21.7333 39.4238 22.1182 39.1078 22.5686 38.9213C23.019 38.7347 23.5146 38.6859 23.9927 38.781C24.4708 38.8761 24.91 39.1109 25.2547 39.4556C25.5994 39.8003 25.8341 40.2395 25.9293 40.7176C26.0244 41.1957 25.9755 41.6913 25.789 42.1417C25.6024 42.5921 25.2865 42.977 24.8812 43.2478C24.4759 43.5187 23.9993 43.6632 23.5118 43.6632C22.8584 43.6625 22.2319 43.4026 21.7698 42.9405C21.3077 42.4784 21.0478 41.8519 21.047 41.1984Z" fill="#1A1917"/>
<path d="M13.6621 21.1289H34.0741V22.5374H13.6621V21.1289Z" fill="#E53935"/>
</g>
<defs>
<clipPath id="clip0_1223_1678">
<rect width="65" height="48" fill="white"/>
</clipPath>
</defs>
</svg>
