<svg width="48" height="48" viewBox="0 0 48 48" fill="none" xmlns="http://www.w3.org/2000/svg">
<g clip-path="url(#clip0_926_4924)">
<path d="M33.7585 44.5703H31.3849C31.2412 44.5818 31.1072 44.647 31.0094 44.7529C30.9117 44.8588 30.8574 44.9976 30.8574 45.1417C30.8574 45.2859 30.9117 45.4247 31.0094 45.5306C31.1072 45.6365 31.2412 45.7017 31.3849 45.7132H33.7585C33.9022 45.7017 34.0362 45.6365 34.134 45.5306C34.2317 45.4247 34.286 45.2859 34.286 45.1417C34.286 44.9976 34.2317 44.8588 34.134 44.7529C34.0362 44.647 33.9022 44.5818 33.7585 44.5703Z" fill="#E53935"/>
<path d="M16.6155 44.5703H14.2418C14.0982 44.5818 13.9641 44.647 13.8664 44.7529C13.7686 44.8588 13.7144 44.9976 13.7144 45.1417C13.7144 45.2859 13.7686 45.4247 13.8664 45.5306C13.9641 45.6365 14.0982 45.7017 14.2418 45.7132H16.6155C16.7591 45.7017 16.8932 45.6365 16.9909 45.5306C17.0887 45.4247 17.1429 45.2859 17.1429 45.1417C17.1429 44.9976 17.0887 44.8588 16.9909 44.7529C16.8932 44.647 16.7591 44.5818 16.6155 44.5703Z" fill="#E53935"/>
<path d="M29.7144 44.5703H18.2858C18.1342 44.5703 17.9889 44.6305 17.8817 44.7377C17.7746 44.8448 17.7144 44.9902 17.7144 45.1417C17.7144 45.2933 17.7746 45.4386 17.8817 45.5458C17.9889 45.653 18.1342 45.7132 18.2858 45.7132H22.8401V46.2846H20.5715C20.4199 46.2846 20.2746 46.3448 20.1674 46.452C20.0603 46.5591 20.0001 46.7045 20.0001 46.856C20.0001 47.0076 20.0603 47.1529 20.1674 47.2601C20.2746 47.3673 20.4199 47.4275 20.5715 47.4275H27.7144C27.8659 47.4275 28.0113 47.3673 28.1184 47.2601C28.2256 47.1529 28.2858 47.0076 28.2858 46.856C28.2858 46.7045 28.2256 46.5591 28.1184 46.452C28.0113 46.3448 27.8659 46.2846 27.7144 46.2846H25.1601V45.7132H29.7144C29.8659 45.7132 30.0113 45.653 30.1184 45.5458C30.2256 45.4386 30.2858 45.2933 30.2858 45.1417C30.2858 44.9902 30.2256 44.8448 30.1184 44.7377C30.0113 44.6305 29.8659 44.5703 29.7144 44.5703Z" fill="#E53935"/>
<path d="M41.7145 36.5686C42.0301 36.5686 42.2859 36.3128 42.2859 35.9972C42.2859 35.6816 42.0301 35.4258 41.7145 35.4258C41.3989 35.4258 41.1431 35.6816 41.1431 35.9972C41.1431 36.3128 41.3989 36.5686 41.7145 36.5686Z" fill="#E53935"/>
<path d="M25.1432 31.9983C25.4588 31.9983 25.7146 31.7425 25.7146 31.4269C25.7146 31.1113 25.4588 30.8555 25.1432 30.8555C24.8276 30.8555 24.5718 31.1113 24.5718 31.4269C24.5718 31.7425 24.8276 31.9983 25.1432 31.9983Z" fill="#E53935"/>
<path d="M8.53356 21.9961C8.95769 21.9962 9.3763 21.8998 9.75759 21.7141C10.1389 21.5283 10.4729 21.2581 10.7342 20.9241C10.7807 20.8652 10.8151 20.7977 10.8356 20.7255C10.856 20.6533 10.862 20.5778 10.8533 20.5033C10.8445 20.4287 10.8212 20.3567 10.7846 20.2912C10.748 20.2256 10.6989 20.168 10.64 20.1215C10.5811 20.075 10.5136 20.0405 10.4414 20.0201C10.3692 19.9996 10.2937 19.9936 10.2192 20.0023C10.1447 20.0111 10.0726 20.0344 10.0071 20.071C9.94158 20.1076 9.88393 20.1568 9.83741 20.2156C9.68277 20.414 9.48498 20.5744 9.25906 20.6849C9.03315 20.7954 8.78504 20.8529 8.53356 20.8532C8.08554 20.8432 7.65924 20.6582 7.34593 20.3378C7.03261 20.0174 6.85718 19.5871 6.85718 19.1389C6.85718 18.6908 7.03261 18.2605 7.34593 17.9401C7.65924 17.6197 8.08554 17.4347 8.53356 17.4246C8.53996 17.4246 8.5461 17.4229 8.55253 17.4227C8.55895 17.4229 8.56507 17.4246 8.57151 17.4246C8.72306 17.4246 8.8684 17.3644 8.97556 17.2573C9.08272 17.1501 9.14293 17.0048 9.14294 16.8532V11.4246C9.42369 11.4242 9.70194 11.3717 9.96353 11.2698L33.7144 30.2706V30.8532H27.5238C27.3722 30.8532 27.2269 30.9134 27.1197 31.0206C27.0126 31.1277 26.9524 31.2731 26.9524 31.4246C26.9524 31.5762 27.0126 31.7215 27.1197 31.8287C27.2269 31.9359 27.3722 31.9961 27.5238 31.9961H34.2858C34.4373 31.996 34.5827 31.9358 34.6898 31.8287C34.797 31.7215 34.8572 31.5762 34.8572 31.4246V28.2818C34.8574 28.1303 34.9177 27.985 35.0248 27.8779C35.1319 27.7708 35.2772 27.7105 35.4286 27.7103H40.5715C40.723 27.7105 40.8682 27.7708 40.9753 27.8779C41.0825 27.985 41.1427 28.1303 41.1429 28.2818V33.1389H20.5715C20.42 33.1389 20.2746 33.1991 20.1674 33.3063C20.0603 33.4134 20.0001 33.5588 20.0001 33.7103C20.0001 33.8619 20.0603 34.0072 20.1674 34.1144C20.2746 34.2216 20.42 34.2818 20.5715 34.2818H41.7144C41.8659 34.2818 42.0113 34.2216 42.1184 34.1144C42.2256 34.0072 42.2858 33.8619 42.2858 33.7103V28.2818C42.2853 27.8273 42.1045 27.3915 41.7831 27.0701C41.4618 26.7488 41.026 26.568 40.5715 26.5675H38.7403L11.4111 8.86855C11.3654 8.48152 11.2215 8.11261 10.993 7.79689C10.7645 7.48117 10.4591 7.22914 10.1057 7.06476C9.75239 6.90038 9.36286 6.82911 8.9742 6.85773C8.58554 6.88636 8.21065 7.01392 7.8852 7.2283C7.55974 7.44267 7.29453 7.73673 7.11477 8.08252C6.93502 8.4283 6.8467 8.81432 6.85821 9.20386C6.86973 9.59341 6.98069 9.97354 7.18055 10.3081C7.38041 10.6427 7.66253 10.9205 8.00008 11.1153V16.3346C7.3094 16.4762 6.69536 16.8679 6.27582 17.4345C5.85629 18.0011 5.66083 18.7028 5.72698 19.4047C5.79312 20.1066 6.1162 20.7594 6.6342 21.2376C7.15219 21.7159 7.8286 21.986 8.53356 21.9961ZM11.213 10.1018L36.6379 26.5675H35.4286C34.9741 26.568 34.5384 26.7488 34.217 27.0701C33.8956 27.3915 33.7149 27.8273 33.7144 28.2818V28.8072L10.9208 10.5724C11.0368 10.4279 11.1349 10.2699 11.213 10.1018ZM9.14293 7.99606C9.36897 7.99606 9.58993 8.06308 9.77787 8.18866C9.96581 8.31424 10.1123 8.49273 10.1988 8.70156C10.2853 8.91039 10.3079 9.14018 10.2638 9.36187C10.2197 9.58357 10.1109 9.7872 9.95106 9.94704C9.79122 10.1069 9.58759 10.2157 9.36589 10.2598C9.1442 10.3039 8.91441 10.2813 8.70558 10.1948C8.49675 10.1083 8.31826 9.96179 8.19268 9.77385C8.0671 9.58591 8.00008 9.36495 8.00008 9.13891C8.0004 8.83591 8.12091 8.5454 8.33516 8.33115C8.54942 8.11689 8.83993 7.99638 9.14293 7.99606Z" fill="#1A1917"/>
<path d="M17.9999 37.9961C17.6609 37.9961 17.3294 38.0966 17.0475 38.285C16.7656 38.4734 16.5459 38.7411 16.4161 39.0544C16.2864 39.3676 16.2524 39.7123 16.3186 40.0448C16.3847 40.3774 16.548 40.6828 16.7877 40.9226C17.0275 41.1623 17.333 41.3256 17.6655 41.3917C17.998 41.4579 18.3427 41.4239 18.656 41.2942C18.9692 41.1644 19.2369 40.9447 19.4253 40.6628C19.6137 40.3809 19.7142 40.0494 19.7142 39.7104C19.7137 39.2559 19.5329 38.8201 19.2116 38.4987C18.8902 38.1774 18.4544 37.9966 17.9999 37.9961ZM17.9999 40.2818C17.8869 40.2818 17.7764 40.2483 17.6825 40.1855C17.5885 40.1227 17.5152 40.0335 17.472 39.9291C17.4287 39.8246 17.4174 39.7097 17.4395 39.5989C17.4615 39.4881 17.516 39.3862 17.5959 39.3063C17.6758 39.2264 17.7776 39.172 17.8885 39.1499C17.9993 39.1279 18.1142 39.1392 18.2186 39.1825C18.323 39.2257 18.4123 39.2989 18.4751 39.3929C18.5378 39.4869 18.5714 39.5974 18.5714 39.7104C18.5712 39.8619 18.5109 40.0071 18.4038 40.1142C18.2967 40.2213 18.1514 40.2816 17.9999 40.2818Z" fill="#E53935"/>
<path d="M34.8574 41.4247C35.1964 41.4247 35.5278 41.3241 35.8098 41.1358C36.0917 40.9474 36.3114 40.6797 36.4411 40.3664C36.5709 40.0532 36.6048 39.7085 36.5387 39.3759C36.4726 39.0434 36.3093 38.7379 36.0695 38.4982C35.8298 38.2585 35.5243 38.0952 35.1918 38.029C34.8593 37.9629 34.5146 37.9968 34.2013 38.1266C33.8881 38.2563 33.6203 38.4761 33.432 38.758C33.2436 39.0399 33.1431 39.3713 33.1431 39.7104C33.1436 40.1649 33.3243 40.6006 33.6457 40.922C33.9671 41.2434 34.4028 41.4242 34.8574 41.4247ZM34.8574 39.1389C34.9704 39.1389 35.0808 39.1725 35.1748 39.2353C35.2688 39.298 35.342 39.3873 35.3853 39.4917C35.4285 39.5961 35.4398 39.711 35.4178 39.8219C35.3958 39.9327 35.3413 40.0345 35.2614 40.1144C35.1815 40.1944 35.0797 40.2488 34.9688 40.2708C34.858 40.2929 34.7431 40.2816 34.6387 40.2383C34.5343 40.1951 34.445 40.1218 34.3822 40.0278C34.3194 39.9339 34.2859 39.8234 34.2859 39.7104C34.2861 39.5589 34.3464 39.4137 34.4535 39.3065C34.5606 39.1994 34.7059 39.1391 34.8574 39.1389Z" fill="#E53935"/>
<path d="M0.571429 43.4241C0.88702 43.4241 1.14286 43.1683 1.14286 42.8527C1.14286 42.5371 0.88702 42.2812 0.571429 42.2812C0.255837 42.2812 0 42.5371 0 42.8527C0 43.1683 0.255837 43.4241 0.571429 43.4241Z" fill="#1A1917"/>
<path d="M3.14293 42.2812H2.28578C2.13423 42.2812 1.98889 42.3415 1.88172 42.4486C1.77456 42.5558 1.71436 42.7011 1.71436 42.8527C1.71436 43.0042 1.77456 43.1496 1.88172 43.2567C1.98889 43.3639 2.13423 43.4241 2.28578 43.4241H3.14293C3.29448 43.4241 3.43982 43.3639 3.54699 43.2567C3.65415 43.1496 3.71436 43.0042 3.71436 42.8527C3.71436 42.7011 3.65415 42.5558 3.54699 42.4486C3.43982 42.3415 3.29448 42.2812 3.14293 42.2812Z" fill="#1A1917"/>
<path d="M45.7142 42.2812H44.8571C44.7055 42.2812 44.5602 42.3415 44.453 42.4486C44.3458 42.5558 44.2856 42.7011 44.2856 42.8527C44.2856 43.0042 44.3458 43.1496 44.453 43.2567C44.5602 43.3639 44.7055 43.4241 44.8571 43.4241H45.7142C45.8658 43.4241 46.0111 43.3639 46.1183 43.2567C46.2254 43.1496 46.2856 43.0042 46.2856 42.8527C46.2856 42.7011 46.2254 42.5558 46.1183 42.4486C46.0111 42.3415 45.8658 42.2812 45.7142 42.2812Z" fill="#1A1917"/>
<path d="M47.4284 43.4241C47.744 43.4241 47.9998 43.1683 47.9998 42.8527C47.9998 42.5371 47.744 42.2812 47.4284 42.2812C47.1128 42.2812 46.8569 42.5371 46.8569 42.8527C46.8569 43.1683 47.1128 43.4241 47.4284 43.4241Z" fill="#1A1917"/>
<path d="M43.0631 42.2818H37.5272C37.988 41.8045 38.3126 41.2126 38.4674 40.5675H41.7141C41.8657 40.5675 42.011 40.5073 42.1182 40.4001C42.2253 40.293 42.2855 40.1476 42.2855 39.9961V38.2818C42.2855 38.1303 42.2253 37.9849 42.1182 37.8777C42.011 37.7706 41.8657 37.7104 41.7141 37.7104C41.5626 37.7104 41.4172 37.7706 41.3101 37.8777C41.2029 37.9849 41.1427 38.1303 41.1427 38.2818V39.4247H38.5567C38.4857 38.4921 38.065 37.6207 37.379 36.985C36.693 36.3493 35.7922 35.9961 34.857 35.9961C33.9217 35.9961 33.0209 36.3493 32.3349 36.985C31.6489 37.6207 31.2283 38.4921 31.1572 39.4247H21.6996C21.6285 38.4921 21.2079 37.6207 20.5219 36.985C19.8359 36.3493 18.9351 35.9961 17.9998 35.9961C17.0645 35.9961 16.1638 36.3493 15.4777 36.985C14.7917 37.6207 14.3711 38.4921 14.3 39.4247H9.4284V32.4029L12.4892 25.8449C12.6018 25.6453 12.7618 25.4765 12.9551 25.3533C13.1484 25.2302 13.369 25.1566 13.5975 25.139H17.1427C17.2942 25.1391 17.4394 25.1994 17.5465 25.3065C17.6537 25.4136 17.7139 25.5589 17.7141 25.7104V31.9961H12.857C12.7054 31.9961 12.5601 32.0563 12.4529 32.1635C12.3457 32.2706 12.2855 32.416 12.2855 32.5675C12.2855 32.7191 12.3457 32.8644 12.4529 32.9716C12.5601 33.0787 12.7054 33.139 12.857 33.139H17.7141V33.6722C17.7141 33.8237 17.7743 33.9691 17.8815 34.0762C17.9886 34.1834 18.134 34.2436 18.2855 34.2436C18.4371 34.2436 18.5824 34.1834 18.6896 34.0762C18.7968 33.9691 18.857 33.8237 18.857 33.6722V25.7104C18.8565 25.2559 18.6757 24.8201 18.3543 24.4987C18.0329 24.1774 17.5972 23.9966 17.1427 23.9961H13.5975C13.1508 24.0119 12.7165 24.1468 12.3395 24.3869C11.9626 24.627 11.6567 24.9635 11.4535 25.3616L8.33911 32.0346C8.30389 32.1103 8.28561 32.1927 8.28554 32.2762V39.9961C8.28555 40.1476 8.34575 40.293 8.45292 40.4001C8.56008 40.5073 8.70542 40.5675 8.85697 40.5675H14.3893C14.5441 41.2126 14.8688 41.8045 15.3296 42.2818H4.93659C4.8553 42.2712 4.77268 42.278 4.69424 42.3019C4.6158 42.3257 4.54336 42.3661 4.48175 42.4201C4.42013 42.4742 4.37077 42.5408 4.33695 42.6155C4.30314 42.6902 4.28564 42.7712 4.28564 42.8532C4.28564 42.9352 4.30314 43.0163 4.33695 43.0909C4.37077 43.1656 4.42013 43.2322 4.48175 43.2863C4.54336 43.3404 4.6158 43.3807 4.69424 43.4046C4.77268 43.4284 4.8553 43.4353 4.93659 43.4247H43.0631C43.1444 43.4353 43.227 43.4284 43.3054 43.4046C43.3839 43.3807 43.4563 43.3404 43.5179 43.2863C43.5795 43.2322 43.6289 43.1656 43.6627 43.0909C43.6965 43.0163 43.714 42.9352 43.714 42.8532C43.714 42.7712 43.6965 42.6902 43.6627 42.6155C43.6289 42.5408 43.5795 42.4742 43.5179 42.4201C43.4563 42.3661 43.3839 42.3257 43.3054 42.3019C43.227 42.278 43.1444 42.2712 43.0631 42.2818ZM34.857 37.1389C35.3656 37.1389 35.8627 37.2898 36.2856 37.5723C36.7084 37.8549 37.038 38.2565 37.2327 38.7263C37.4273 39.1962 37.4782 39.7132 37.379 40.212C37.2798 40.7108 37.0349 41.169 36.6752 41.5287C36.3156 41.8883 35.8574 42.1332 35.3586 42.2324C34.8598 42.3316 34.3428 42.2807 33.8729 42.0861C33.4031 41.8914 33.0015 41.5619 32.7189 41.139C32.4364 40.7161 32.2855 40.219 32.2855 39.7104C32.2863 39.0286 32.5574 38.375 33.0395 37.8929C33.5216 37.4109 34.1752 37.1397 34.857 37.1389ZM31.2465 40.5675C31.4013 41.2126 31.726 41.8045 32.1868 42.2818H20.67C21.1308 41.8045 21.4555 41.2126 21.6103 40.5675H31.2465ZM15.4284 39.7104C15.4284 39.2018 15.5792 38.7046 15.8618 38.2818C16.1443 37.8589 16.5459 37.5293 17.0158 37.3347C17.4857 37.1401 18.0027 37.0891 18.5015 37.1884C19.0003 37.2876 19.4585 37.5325 19.8181 37.8921C20.1777 38.2517 20.4226 38.7099 20.5218 39.2087C20.6211 39.7075 20.5701 40.2246 20.3755 40.6944C20.1809 41.1643 19.8513 41.5659 19.4284 41.8484C19.0056 42.131 18.5084 42.2818 17.9998 42.2818C17.3181 42.2811 16.6644 42.0099 16.1824 41.5278C15.7003 41.0458 15.4291 40.3921 15.4284 39.7104Z" fill="#1A1917"/>
</g>
<defs>
<clipPath id="clip0_926_4924">
<rect width="48" height="48" fill="white"/>
</clipPath>
</defs>
</svg>
