<svg width="64" height="64" viewBox="0 0 64 64" fill="none" xmlns="http://www.w3.org/2000/svg">
<g clip-path="url(#clip0_640_2645)">
<path d="M0.761905 57.4281C1.18269 57.4281 1.52381 57.087 1.52381 56.6662C1.52381 56.2454 1.18269 55.9043 0.761905 55.9043C0.341116 55.9043 0 56.2454 0 56.6662C0 57.087 0.341116 57.4281 0.761905 57.4281Z" fill="#101010"/>
<path d="M4.19041 55.9043H3.04755C2.84548 55.9043 2.65169 55.9846 2.5088 56.1275C2.36592 56.2703 2.28564 56.4641 2.28564 56.6662C2.28564 56.8683 2.36592 57.0621 2.5088 57.205C2.65169 57.3478 2.84548 57.4281 3.04755 57.4281H4.19041C4.39248 57.4281 4.58627 57.3478 4.72915 57.205C4.87204 57.0621 4.95231 56.8683 4.95231 56.6662C4.95231 56.4641 4.87204 56.2703 4.72915 56.1275C4.58627 55.9846 4.39248 55.9043 4.19041 55.9043Z" fill="#101010"/>
<path d="M60.9526 55.9043H59.8098C59.6077 55.9043 59.4139 55.9846 59.271 56.1275C59.1281 56.2703 59.0479 56.4641 59.0479 56.6662C59.0479 56.8683 59.1281 57.0621 59.271 57.205C59.4139 57.3478 59.6077 57.4281 59.8098 57.4281H60.9526C61.1547 57.4281 61.3485 57.3478 61.4914 57.205C61.6342 57.0621 61.7145 56.8683 61.7145 56.6662C61.7145 56.4641 61.6342 56.2703 61.4914 56.1275C61.3485 55.9846 61.1547 55.9043 60.9526 55.9043Z" fill="#101010"/>
<path d="M63.238 57.4281C63.6588 57.4281 63.9999 57.087 63.9999 56.6662C63.9999 56.2454 63.6588 55.9043 63.238 55.9043C62.8172 55.9043 62.4761 56.2454 62.4761 56.6662C62.4761 57.087 62.8172 57.4281 63.238 57.4281Z" fill="#101010"/>
<path d="M45.0112 58.9531H41.8464C41.6548 58.9685 41.4761 59.0554 41.3458 59.1966C41.2154 59.3378 41.1431 59.5229 41.1431 59.715C41.1431 59.9072 41.2154 60.0923 41.3458 60.2335C41.4761 60.3747 41.6548 60.4616 41.8464 60.4769H45.0112C45.2028 60.4616 45.3815 60.3747 45.5118 60.2335C45.6421 60.0923 45.7145 59.9072 45.7145 59.715C45.7145 59.5229 45.6421 59.3378 45.5118 59.1966C45.3815 59.0554 45.2028 58.9685 45.0112 58.9531Z" fill="#E53935"/>
<path d="M22.1538 58.9531H18.9889C18.7974 58.9685 18.6187 59.0554 18.4883 59.1966C18.358 59.3378 18.2856 59.5229 18.2856 59.715C18.2856 59.9072 18.358 60.0923 18.4883 60.2335C18.6187 60.3747 18.7974 60.4616 18.9889 60.4769H22.1538C22.3453 60.4616 22.5241 60.3747 22.6544 60.2335C22.7847 60.0923 22.8571 59.9072 22.8571 59.715C22.8571 59.5229 22.7847 59.3378 22.6544 59.1966C22.5241 59.0554 22.3453 58.9685 22.1538 58.9531Z" fill="#E53935"/>
<path d="M39.6191 58.9531H24.381C24.179 58.9531 23.9852 59.0334 23.8423 59.1763C23.6994 59.3192 23.6191 59.513 23.6191 59.715C23.6191 59.9171 23.6994 60.1109 23.8423 60.2538C23.9852 60.3967 24.179 60.4769 24.381 60.4769H30.4534V61.2388H27.4287C27.2266 61.2388 27.0328 61.3191 26.8899 61.462C26.747 61.6049 26.6668 61.7987 26.6668 62.0007C26.6668 62.2028 26.747 62.3966 26.8899 62.5395C27.0328 62.6824 27.2266 62.7626 27.4287 62.7626H36.9525C37.1545 62.7626 37.3483 62.6824 37.4912 62.5395C37.6341 62.3966 37.7144 62.2028 37.7144 62.0007C37.7144 61.7987 37.6341 61.6049 37.4912 61.462C37.3483 61.3191 37.1545 61.2388 36.9525 61.2388H33.5468V60.4769H39.6191C39.8212 60.4769 40.015 60.3967 40.1579 60.2538C40.3008 60.1109 40.381 59.9171 40.381 59.715C40.381 59.513 40.3008 59.3192 40.1579 59.1763C40.015 59.0334 39.8212 58.9531 39.6191 58.9531Z" fill="#E53935"/>
<path d="M18.7833 20.2331C22.0501 20.2331 27.5906 19.6026 31.9998 15.9047C33.3026 16.9895 34.7597 17.8743 36.3232 18.53L37.636 17.4029C35.9428 16.7867 34.3677 15.8851 32.979 14.7371C32.7046 14.507 32.3579 14.3809 31.9998 14.3809C31.6417 14.3809 31.295 14.507 31.0206 14.7371C26.8998 18.1932 21.5848 18.7092 18.7833 18.7092C17.934 18.7163 17.0852 18.6658 16.2428 18.5581C16.0282 18.5252 15.809 18.5386 15.6 18.5972C15.3909 18.6559 15.1968 18.7584 15.0306 18.8981C14.8644 19.0377 14.7299 19.2112 14.6361 19.407C14.5423 19.6028 14.4913 19.8164 14.4867 20.0334C14.3631 26.184 15.3321 31.204 16.8263 35.2684L18.0569 34.2118C16.7252 30.3822 15.8966 25.7174 16.0102 20.064C16.9295 20.1851 17.8561 20.2416 18.7833 20.2331Z" fill="#E53935"/>
<path d="M32.0015 51.715L32.0103 51.715C32.15 51.7138 32.2888 51.6936 32.423 51.655L32.4204 51.6462C33.3535 51.3125 34.2485 50.8804 35.0901 50.3573C37.0358 49.1819 38.8237 47.7633 40.4105 46.1356C44.714 41.7448 49.7867 33.6522 49.5132 20.0342C49.5089 19.8169 49.458 19.6029 49.3642 19.4068C49.2703 19.2107 49.1355 19.0369 48.9689 18.8972C48.8023 18.7575 48.6077 18.655 48.3982 18.5968C48.1888 18.5385 47.9692 18.5257 47.7544 18.5593C47.7516 18.5597 47.601 18.5822 47.3311 18.6096L45.4407 20.2325C46.2931 20.2325 47.1446 20.1765 47.9897 20.0648C48.4683 43.8969 32.2207 50.1912 32.0015 50.1912L32.0001 50.191L31.9986 50.1912C31.8679 50.1912 25.9434 47.9144 21.3422 40.9215L20.1807 41.9187C21.1824 43.4278 22.3237 44.8395 23.5895 46.1352C25.1765 47.763 26.9646 49.1818 28.9105 50.3573C29.7544 50.8821 30.652 51.315 31.5882 51.6485L31.5857 51.6574C31.7172 51.6945 31.8532 51.7139 31.9898 51.715L31.9986 51.715L32.0015 51.715Z" fill="#E53935"/>
<path d="M33.4493 23.8153C33.35 23.5091 33.1562 23.2422 32.8958 23.0529C32.6354 22.8637 32.3218 22.7617 31.9999 22.7617C31.678 22.7617 31.3643 22.8637 31.1039 23.0529C30.8435 23.2422 30.6498 23.5091 30.5504 23.8153L29.0038 28.5822H23.9999C23.6782 28.5822 23.3647 28.684 23.1044 28.873C22.8441 29.0621 22.6503 29.3287 22.5508 29.6346C22.4513 29.9405 22.4512 30.2701 22.5504 30.5761C22.6497 30.8821 22.8432 31.1489 23.1034 31.3382L27.1534 34.2848L25.6062 39.0534C25.5069 39.3595 25.507 39.6892 25.6066 39.9952C25.7062 40.3012 25.9001 40.5679 26.1606 40.7569C26.4211 40.9459 26.7347 41.0476 27.0565 41.0474C27.3783 41.0472 27.6918 40.9452 27.9521 40.7558L31.9999 37.8108L36.0477 40.7558C36.3079 40.9452 36.6214 41.0472 36.9432 41.0474C37.2651 41.0476 37.5787 40.9459 37.8391 40.7569C38.0996 40.5679 38.2935 40.3012 38.3931 39.9952C38.4927 39.6892 38.4929 39.3595 38.3936 39.0534L36.8463 34.2848L40.8714 31.3563C41.1376 31.171 41.3377 30.9056 41.4427 30.5987C41.5476 30.2918 41.5519 29.9595 41.4549 29.65C41.3578 29.3405 41.1646 29.0701 40.9033 28.878C40.6419 28.686 40.3261 28.5823 40.0018 28.5821H34.996L33.4493 23.8153ZM35.0556 33.7032L36.9441 39.5236L31.9999 35.9264L27.0556 39.5236L28.9441 33.7032L23.9999 30.106H30.1113L31.9999 24.2855L33.8884 30.106H39.9999L35.0556 33.7032Z" fill="#E53935"/>
<path d="M57.4176 55.9041H35.4436C35.5826 55.823 35.6837 55.7626 35.7283 55.7357C38.1839 54.2361 40.4421 52.435 42.4502 50.3744C48.1278 44.5837 54.8205 33.8684 54.4622 15.7056C54.4579 15.4878 54.407 15.2735 54.3129 15.077C54.2187 14.8806 54.0836 14.7067 53.9165 14.5669C53.7494 14.4271 53.5543 14.3248 53.3444 14.2668C53.1344 14.2088 52.9144 14.1965 52.6993 14.2307C51.5747 14.3779 50.4413 14.4469 49.3072 14.4372C45.5774 14.4372 38.4978 13.7348 32.9895 9.03102C32.7136 8.79544 32.3627 8.66602 31.9999 8.66602C31.6372 8.66602 31.2863 8.79544 31.0104 9.03102C25.502 13.7348 18.4224 14.4372 14.6926 14.4372C13.5578 14.4469 12.4237 14.3778 11.2985 14.2304C11.0835 14.1968 10.8638 14.2095 10.6542 14.2677C10.4446 14.326 10.2498 14.4284 10.0831 14.5681C9.91627 14.7079 9.78131 14.8817 9.68724 15.0778C9.59316 15.274 9.54215 15.4881 9.53762 15.7056C9.17938 33.8681 15.872 44.5832 21.5495 50.3738C23.5578 52.4346 25.8162 54.2359 28.2721 55.7356C28.3168 55.7625 28.418 55.823 28.557 55.9041H6.58229C6.4739 55.89 6.36373 55.8991 6.25915 55.9309C6.15457 55.9627 6.05798 56.0165 5.97583 56.0886C5.89368 56.1607 5.82786 56.2495 5.78277 56.3491C5.73768 56.4487 5.71436 56.5567 5.71436 56.666C5.71436 56.7753 5.73768 56.8834 5.78277 56.983C5.82786 57.0826 5.89368 57.1714 5.97583 57.2435C6.05798 57.3156 6.15457 57.3694 6.25915 57.4012C6.36373 57.433 6.4739 57.4421 6.58229 57.4279H57.4176C57.526 57.4421 57.6361 57.433 57.7407 57.4012C57.8453 57.3694 57.9419 57.3156 58.024 57.2435C58.1062 57.1714 58.172 57.0826 58.2171 56.983C58.2622 56.8834 58.2855 56.7753 58.2855 56.666C58.2855 56.5567 58.2622 56.4487 58.2171 56.3491C58.172 56.2495 58.1062 56.1607 58.024 56.0886C57.9419 56.0165 57.8453 55.9627 57.7407 55.9309C57.6361 55.8991 57.526 55.89 57.4176 55.9041ZM11.0611 15.7356C12.2647 15.897 13.4783 15.9723 14.6926 15.961C18.9706 15.961 26.226 15.1204 31.9999 10.1898C37.7733 15.12 45.0291 15.961 49.3072 15.961C50.5216 15.9723 51.7351 15.897 52.9387 15.7356C53.5655 47.5118 32.2889 55.9041 32.0019 55.9041L31.9999 55.9039L31.998 55.9041C31.7135 55.9041 10.4343 47.5137 11.0611 15.7356Z" fill="#101010"/>
</g>
<defs>
<clipPath id="clip0_640_2645">
<rect width="64" height="64" fill="white"/>
</clipPath>
</defs>
</svg>
