<svg width="64" height="64" viewBox="0 0 64 64" fill="none" xmlns="http://www.w3.org/2000/svg">
<path d="M0.761905 57.8207C1.18269 57.8207 1.52381 57.4796 1.52381 57.0588C1.52381 56.638 1.18269 56.2969 0.761905 56.2969C0.341116 56.2969 0 56.638 0 57.0588C0 57.4796 0.341116 57.8207 0.761905 57.8207Z" fill="#1A1917"/>
<path d="M4.19041 56.2969H3.04755C2.84548 56.2969 2.65169 56.3771 2.5088 56.52C2.36592 56.6629 2.28564 56.8567 2.28564 57.0588C2.28564 57.2608 2.36592 57.4546 2.5088 57.5975C2.65169 57.7404 2.84548 57.8207 3.04755 57.8207H4.19041C4.39248 57.8207 4.58627 57.7404 4.72915 57.5975C4.87204 57.4546 4.95231 57.2608 4.95231 57.0588C4.95231 56.8567 4.87204 56.6629 4.72915 56.52C4.58627 56.3771 4.39248 56.2969 4.19041 56.2969Z" fill="#1A1917"/>
<path d="M60.9526 56.2969H59.8098C59.6077 56.2969 59.4139 56.3771 59.271 56.52C59.1281 56.6629 59.0479 56.8567 59.0479 57.0588C59.0479 57.2608 59.1281 57.4546 59.271 57.5975C59.4139 57.7404 59.6077 57.8207 59.8098 57.8207H60.9526C61.1547 57.8207 61.3485 57.7404 61.4914 57.5975C61.6342 57.4546 61.7145 57.2608 61.7145 57.0588C61.7145 56.8567 61.6342 56.6629 61.4914 56.52C61.3485 56.3771 61.1547 56.2969 60.9526 56.2969Z" fill="#1A1917"/>
<path d="M63.238 57.8207C63.6588 57.8207 63.9999 57.4796 63.9999 57.0588C63.9999 56.638 63.6588 56.2969 63.238 56.2969C62.8172 56.2969 62.4761 56.638 62.4761 57.0588C62.4761 57.4796 62.8172 57.8207 63.238 57.8207Z" fill="#1A1917"/>
<path d="M45.0112 59.3438H41.8464C41.6548 59.3591 41.4761 59.446 41.3458 59.5872C41.2154 59.7284 41.1431 59.9135 41.1431 60.1057C41.1431 60.2978 41.2154 60.4829 41.3458 60.6241C41.4761 60.7653 41.6548 60.8522 41.8464 60.8676H45.0112C45.2028 60.8522 45.3815 60.7653 45.5118 60.6241C45.6421 60.4829 45.7145 60.2978 45.7145 60.1057C45.7145 59.9135 45.6421 59.7284 45.5118 59.5872C45.3815 59.446 45.2028 59.3591 45.0112 59.3438Z" fill="#E53935"/>
<path d="M22.1538 59.3438H18.9889C18.7974 59.3591 18.6187 59.446 18.4883 59.5872C18.358 59.7284 18.2856 59.9135 18.2856 60.1057C18.2856 60.2978 18.358 60.4829 18.4883 60.6241C18.6187 60.7653 18.7974 60.8522 18.9889 60.8676H22.1538C22.3453 60.8522 22.5241 60.7653 22.6544 60.6241C22.7847 60.4829 22.8571 60.2978 22.8571 60.1057C22.8571 59.9135 22.7847 59.7284 22.6544 59.5872C22.5241 59.446 22.3453 59.3591 22.1538 59.3438Z" fill="#E53935"/>
<path d="M39.6191 59.3438H24.381C24.179 59.3438 23.9852 59.424 23.8423 59.5669C23.6994 59.7098 23.6191 59.9036 23.6191 60.1057C23.6191 60.3077 23.6994 60.5015 23.8423 60.6444C23.9852 60.7873 24.179 60.8676 24.381 60.8676H30.4534V61.6295H27.4287C27.2266 61.6295 27.0328 61.7097 26.8899 61.8526C26.747 61.9955 26.6668 62.1893 26.6668 62.3914C26.6668 62.5934 26.747 62.7872 26.8899 62.9301C27.0328 63.073 27.2266 63.1533 27.4287 63.1533H36.9525C37.1545 63.1533 37.3483 63.073 37.4912 62.9301C37.6341 62.7872 37.7144 62.5934 37.7144 62.3914C37.7144 62.1893 37.6341 61.9955 37.4912 61.8526C37.3483 61.7097 37.1545 61.6295 36.9525 61.6295H33.5468V60.8676H39.6191C39.8212 60.8676 40.015 60.7873 40.1579 60.6444C40.3008 60.5015 40.381 60.3077 40.381 60.1057C40.381 59.9036 40.3008 59.7098 40.1579 59.5669C40.015 59.424 39.8212 59.3438 39.6191 59.3438Z" fill="#E53935"/>
<path d="M13.7148 43.3405V36.9458L9.19814 18.5371C9.13951 18.2973 9.12873 18.0482 9.16641 17.8042C9.2041 17.5601 9.2895 17.3259 9.41775 17.1149C9.54601 16.9039 9.71458 16.7203 9.91386 16.5745C10.1131 16.4287 10.3392 16.3236 10.5791 16.2652L13.7148 15.4982V13.9297L10.2167 14.7852C9.7824 14.8912 9.3732 15.0817 9.01252 15.3459C8.65185 15.6101 8.34678 15.9428 8.11474 16.325C7.88271 16.7071 7.72826 17.1313 7.66023 17.5731C7.5922 18.015 7.61192 18.466 7.71825 18.9002L13.7148 43.3405Z" fill="#E53935"/>
<path d="M21.2544 31.1525C21.2544 31.3546 21.3347 31.5484 21.4776 31.6913C21.6204 31.8341 21.8142 31.9144 22.0163 31.9144H42.5875C42.7895 31.9144 42.9833 31.8342 43.1262 31.6913C43.2691 31.5484 43.3494 31.3546 43.3494 31.1525C43.3494 30.9505 43.2691 30.7567 43.1262 30.6138C42.9833 30.4709 42.7895 30.3906 42.5875 30.3906H22.0163C21.8142 30.3906 21.6204 30.4709 21.4776 30.6138C21.3347 30.7567 21.2544 30.9505 21.2544 31.1525Z" fill="#E53935"/>
<path d="M22.0163 35.725H42.5875C42.7895 35.725 42.9833 35.6447 43.1262 35.5018C43.2691 35.3589 43.3494 35.1651 43.3494 34.9631C43.3494 34.761 43.2691 34.5672 43.1262 34.4243C42.9833 34.2814 42.7895 34.2012 42.5875 34.2012H22.0163C21.8142 34.2012 21.6204 34.2814 21.4776 34.4243C21.3347 34.5672 21.2544 34.761 21.2544 34.9631C21.2544 35.1651 21.3347 35.3589 21.4776 35.5018C21.6204 35.6447 21.8142 35.725 22.0163 35.725Z" fill="#1A1917"/>
<path d="M29.2057 24.4922L27.9241 26.5624C27.8709 26.6474 27.835 26.7422 27.8185 26.8411C27.802 26.9401 27.8052 27.0414 27.8279 27.1391C27.8507 27.2368 27.8925 27.3291 27.951 27.4106C28.0095 27.4922 28.0835 27.5613 28.1688 27.6142C28.2542 27.667 28.3491 27.7024 28.4481 27.7185C28.5472 27.7345 28.6484 27.7308 28.7461 27.7076C28.8437 27.6844 28.9358 27.6422 29.017 27.5833C29.0982 27.5244 29.167 27.45 29.2195 27.3644L30.9312 24.5993C30.6962 24.6488 30.4567 24.6745 30.2165 24.6758C29.8713 24.6756 29.5289 24.6134 29.2057 24.4922Z" fill="#1A1917"/>
<path d="M33.0698 24.5999L34.7813 27.3646C34.8339 27.4498 34.9028 27.5238 34.984 27.5824C35.0653 27.6409 35.1572 27.6829 35.2547 27.7058C35.3521 27.7288 35.4531 27.7324 35.552 27.7163C35.6508 27.7002 35.7454 27.6648 35.8306 27.6121C35.9157 27.5594 35.9896 27.4904 36.048 27.4091C36.1065 27.3278 36.1483 27.2358 36.1712 27.1383C36.1941 27.0409 36.1975 26.9398 36.1813 26.841C36.1651 26.7422 36.1295 26.6476 36.0767 26.5625L34.7975 24.4961C34.2431 24.6941 33.6439 24.7301 33.0698 24.5999Z" fill="#1A1917"/>
<path d="M36.9525 18.5822C36.9525 17.802 36.351 17.3102 35.9116 16.9512C35.7502 16.8332 35.6039 16.6957 35.476 16.542C35.4017 16.3384 35.3535 16.1261 35.3327 15.9103C35.2427 15.3199 35.1307 14.5855 34.4853 14.202C33.8439 13.8214 33.1382 14.0967 32.6233 14.298C32.425 14.389 32.2155 14.453 32.0002 14.4884C31.785 14.4531 31.5756 14.389 31.3774 14.298C30.8629 14.0967 30.1572 13.821 29.5155 14.202C28.87 14.5852 28.7577 15.3195 28.6676 15.9096C28.6468 16.1257 28.5986 16.3383 28.5244 16.5424C28.3964 16.6959 28.2501 16.8332 28.0888 16.9512C27.6494 17.3102 27.0479 17.802 27.0479 18.5822C27.0479 19.3623 27.6494 19.8541 28.0888 20.2131C28.2502 20.3312 28.3965 20.4686 28.5244 20.6224C28.5987 20.826 28.6468 21.0383 28.6676 21.2541C28.7577 21.8445 28.8696 22.5788 29.5151 22.9624C29.7309 23.0898 29.9776 23.1556 30.2283 23.1525C30.6255 23.1286 31.015 23.0317 31.3771 22.8664C31.5753 22.7754 31.7849 22.7113 32.0002 22.6759C32.2154 22.7113 32.4248 22.7754 32.6229 22.8664C33.1378 23.0673 33.8432 23.3433 34.4849 22.9624C35.1303 22.5792 35.2427 21.8448 35.3327 21.2548C35.3536 21.0387 35.4017 20.826 35.476 20.622C35.604 20.4685 35.7503 20.3312 35.9116 20.2131C36.351 19.8541 36.9525 19.3623 36.9525 18.5822ZM34.9473 19.0331C34.6315 19.2616 34.3607 19.5467 34.1486 19.8738C33.9732 20.235 33.8641 20.6247 33.8264 21.0245C33.8021 21.2275 33.7604 21.428 33.7018 21.6238C33.523 21.578 33.3477 21.5189 33.1776 21.4471C32.8069 21.2764 32.4076 21.1763 32.0002 21.1521C31.5928 21.1763 31.1935 21.2764 30.8228 21.4471C30.6526 21.5189 30.4774 21.5779 30.2986 21.6239C30.24 21.4279 30.1983 21.2272 30.174 21.0241C30.1364 20.6246 30.0273 20.2351 29.8518 19.8742C29.6398 19.5469 29.369 19.2617 29.0531 19.0331C28.8763 18.9035 28.7166 18.752 28.578 18.5822C28.7166 18.4124 28.8763 18.2609 29.0531 18.1313C29.3689 17.9027 29.6397 17.6177 29.8518 17.2905C30.0272 16.9294 30.1363 16.5396 30.174 16.1399C30.1983 15.9369 30.24 15.7364 30.2986 15.5405C30.4774 15.5864 30.6526 15.6455 30.8228 15.7172C31.1935 15.888 31.5928 15.988 32.0002 16.0122C32.4076 15.988 32.8069 15.888 33.1776 15.7172C33.3478 15.6455 33.523 15.5864 33.7018 15.5405C33.7604 15.7365 33.8021 15.9371 33.8265 16.1402C33.8641 16.5397 33.9732 16.9293 34.1486 17.2901C34.3606 17.6175 34.6314 17.9027 34.9474 18.1313C35.1242 18.2609 35.2838 18.4124 35.4224 18.5822C35.2838 18.752 35.1241 18.9035 34.9473 19.0331Z" fill="#E53935"/>
<path d="M32.0002 19.3441C32.421 19.3441 32.7621 19.003 32.7621 18.5822C32.7621 18.1614 32.421 17.8203 32.0002 17.8203C31.5794 17.8203 31.2383 18.1614 31.2383 18.5822C31.2383 19.003 31.5794 19.3441 32.0002 19.3441Z" fill="#1A1917"/>
<path d="M22.0163 47.1527H40.0169C39.8655 46.655 39.7572 46.1452 39.6931 45.6289H22.0163C21.8142 45.6289 21.6204 45.7092 21.4776 45.8521C21.3347 45.9949 21.2544 46.1887 21.2544 46.3908C21.2544 46.5929 21.3347 46.7867 21.4776 46.9296C21.6204 47.0724 21.8142 47.1527 22.0163 47.1527Z" fill="#E53935"/>
<path d="M22.0163 43.3441H39.6931C39.7572 42.8278 39.8655 42.318 40.0169 41.8203H22.0163C21.8142 41.8203 21.6204 41.9006 21.4776 42.0435C21.3347 42.1864 21.2544 42.3801 21.2544 42.5822C21.2544 42.7843 21.3347 42.9781 21.4776 43.121C21.6204 43.2639 21.8142 43.3441 22.0163 43.3441Z" fill="#1A1917"/>
<path d="M41.1431 44.4862C41.1431 45.9931 41.5899 47.4662 42.4271 48.7191C43.2643 49.972 44.4543 50.9485 45.8464 51.5252C47.2386 52.1018 48.7705 52.2527 50.2485 51.9587C51.7264 51.6647 53.084 50.9391 54.1495 49.8735C55.215 48.808 55.9406 47.4504 56.2346 45.9725C56.5286 44.4946 56.3777 42.9627 55.801 41.5705C55.2243 40.1783 54.2478 38.9884 52.9949 38.1512C51.7419 37.314 50.2689 36.8672 48.762 36.8672C46.742 36.8694 44.8054 37.6729 43.3771 39.1013C41.9487 40.5296 41.1453 42.4662 41.1431 44.4862ZM54.8572 44.4862C54.8572 45.6917 54.4997 46.8702 53.8299 47.8725C53.1602 48.8748 52.2082 49.6561 51.0945 50.1174C49.9807 50.5787 48.7552 50.6994 47.5729 50.4642C46.3905 50.229 45.3045 49.6485 44.4521 48.7961C43.5996 47.9437 43.0191 46.8576 42.784 45.6752C42.5488 44.4929 42.6695 43.2674 43.1308 42.1536C43.5922 41.0399 44.3734 40.088 45.3757 39.4182C46.3781 38.7485 47.5565 38.391 48.762 38.391C50.378 38.3929 51.9273 39.0356 53.0699 40.1783C54.2126 41.321 54.8553 42.8703 54.8572 44.4862Z" fill="#1A1917"/>
<path d="M22.0163 50.9633H42.315C41.8512 50.5006 41.4381 49.9898 41.0827 49.4395H22.0163C21.8142 49.4395 21.6204 49.5197 21.4776 49.6626C21.3347 49.8055 21.2544 49.9993 21.2544 50.2014C21.2544 50.4034 21.3347 50.5972 21.4776 50.7401C21.6204 50.883 21.8142 50.9633 22.0163 50.9633Z" fill="#1A1917"/>
<path d="M22.0163 39.5336H41.0827C41.4381 38.9832 41.8512 38.4724 42.315 38.0098H22.0163C21.8142 38.0098 21.6204 38.09 21.4776 38.2329C21.3347 38.3758 21.2544 38.5696 21.2544 38.7717C21.2544 38.9737 21.3347 39.1675 21.4776 39.3104C21.6204 39.4533 21.8142 39.5336 22.0163 39.5336Z" fill="#E53935"/>
<path d="M46.5264 44.5825C46.3599 44.4682 46.1547 44.4247 45.9561 44.4616C45.7574 44.4985 45.5816 44.6128 45.4673 44.7793C45.3529 44.9459 45.3094 45.151 45.3463 45.3497C45.3832 45.5483 45.4975 45.7241 45.6641 45.8385L47.3843 47.0196C47.5338 47.1224 47.715 47.1684 47.8954 47.1494C48.0758 47.1303 48.2435 47.0475 48.3683 46.9159L51.9813 43.1063C52.0502 43.0337 52.104 42.9483 52.1398 42.8549C52.1757 42.7615 52.1927 42.6619 52.1901 42.5619C52.1874 42.4619 52.1651 42.3634 52.1243 42.272C52.0836 42.1806 52.0253 42.0982 51.9527 42.0293C51.8801 41.9605 51.7947 41.9066 51.7012 41.8708C51.6078 41.835 51.5083 41.8179 51.4083 41.8206C51.3083 41.8232 51.2098 41.8456 51.1184 41.8863C51.027 41.927 50.9445 41.9854 50.8757 42.058L47.7106 45.3954L46.5264 44.5825Z" fill="#E53935"/>
<path d="M57.4176 56.2967H48.1822C48.5607 55.7336 48.7626 55.0704 48.7619 54.3919V53.63C48.2513 53.6294 47.7416 53.5861 47.2381 53.5006V54.3919C47.2375 54.8969 47.0367 55.3811 46.6796 55.7381C46.3225 56.0952 45.8384 56.2961 45.3334 56.2967H18.6671C18.1621 56.2961 17.6779 56.0952 17.3209 55.7381C16.9638 55.3811 16.7629 54.8969 16.7623 54.3919V12.4872C16.7629 11.9822 16.9638 11.498 17.3209 11.141C17.6779 10.7839 18.1621 10.583 18.6671 10.5824H45.3334C45.8384 10.583 46.3225 10.7839 46.6796 11.141C47.0367 11.498 47.2375 11.9822 47.2381 12.4872V35.4737C47.7416 35.3882 48.2513 35.3449 48.7619 35.3443V12.4872C48.7609 11.5782 48.3994 10.7067 47.7566 10.0639C47.1139 9.42114 46.2424 9.05959 45.3334 9.05859H18.6671C17.7581 9.05959 16.8866 9.42114 16.2438 10.0639C15.601 10.7067 15.2395 11.5782 15.2385 12.4872V54.3919C15.2379 55.0704 15.4397 55.7336 15.8182 56.2967H6.58229C6.4739 56.2825 6.36373 56.2917 6.25915 56.3235C6.15457 56.3553 6.05798 56.409 5.97583 56.4811C5.89368 56.5533 5.82786 56.6421 5.78277 56.7416C5.73768 56.8412 5.71436 56.9493 5.71436 57.0586C5.71436 57.1679 5.73768 57.276 5.78277 57.3755C5.82786 57.4751 5.89368 57.5639 5.97583 57.636C6.05798 57.7082 6.15457 57.7619 6.25915 57.7937C6.36373 57.8255 6.4739 57.8347 6.58229 57.8205H57.4176C57.526 57.8347 57.6361 57.8255 57.7407 57.7937C57.8453 57.7619 57.9419 57.7082 58.024 57.636C58.1062 57.5639 58.172 57.4751 58.2171 57.3755C58.2622 57.276 58.2855 57.1679 58.2855 57.0586C58.2855 56.9493 58.2622 56.8412 58.2171 56.7416C58.172 56.6421 58.1062 56.5533 58.024 56.4811C57.9419 56.409 57.8453 56.3553 57.7407 56.3235C57.6361 56.2917 57.526 56.2825 57.4176 56.2967Z" fill="#1A1917"/>
</svg>
