<svg width="64" height="64" viewBox="0 0 64 64" fill="none" xmlns="http://www.w3.org/2000/svg">
<g clip-path="url(#clip0_640_2583)">
<path d="M22.9298 51.3849C23.1301 51.4496 23.3456 51.4496 23.5459 51.3849C33.4101 47.9262 33.5236 34.0567 33.5236 33.4682C33.5236 33.2784 33.4527 33.0954 33.3249 32.9551C33.1971 32.8148 33.0215 32.7273 32.8325 32.7096C31.1088 32.572 29.4291 32.0961 27.8893 31.3092C26.3495 30.5223 24.9799 29.4397 23.8586 28.1233C23.788 28.0259 23.6953 27.9466 23.5881 27.8919C23.481 27.8372 23.3624 27.8087 23.2421 27.8086C23.1217 27.8085 23.0031 27.8369 22.8959 27.8915C22.7887 27.9461 22.6959 28.0253 22.6251 28.1226C22.5959 28.1631 19.6357 32.1494 13.6432 32.7096C13.4542 32.7273 13.2786 32.8148 13.1508 32.9551C13.023 33.0954 12.9522 33.2784 12.9521 33.4682C12.9521 34.0567 13.0656 47.9262 22.9298 51.3849ZM23.241 29.7431C25.5675 32.1602 28.6481 33.7125 31.975 34.1442C31.8238 36.8752 30.7546 47.072 23.2379 49.8759C15.733 47.0764 14.6553 36.8763 14.5014 34.1438C17.8296 33.7112 20.9117 32.1593 23.241 29.7431Z" fill="#1A1917"/>
<path d="M29.0676 15.9623L27.1004 15.6618L26.2137 13.7722C26.1522 13.6412 26.0547 13.5304 25.9325 13.4528C25.8104 13.3752 25.6687 13.334 25.5239 13.334C25.3792 13.334 25.2375 13.3752 25.1154 13.4528C24.9932 13.5304 24.8957 13.6412 24.8342 13.7722L23.9475 15.6618L21.9802 15.9623C21.8418 15.9835 21.7118 16.0424 21.6047 16.1325C21.4975 16.2227 21.4173 16.3407 21.3729 16.4735C21.3284 16.6063 21.3215 16.7488 21.3527 16.8853C21.384 17.0219 21.4523 17.1471 21.5501 17.2473L22.9959 18.7291L22.653 20.8303C22.63 20.9714 22.6472 21.1161 22.7025 21.248C22.7579 21.3798 22.8493 21.4934 22.9662 21.5758C23.0831 21.6581 23.2208 21.7059 23.3636 21.7137C23.5063 21.7215 23.6484 21.6889 23.7736 21.6197L25.5239 20.6524L27.2743 21.6197C27.3998 21.6877 27.5417 21.7195 27.6842 21.7118C27.8267 21.704 27.9642 21.657 28.0816 21.5758C28.1985 21.4934 28.2899 21.3798 28.3453 21.248C28.4006 21.1162 28.4178 20.9714 28.3948 20.8303L28.052 18.7291L29.4977 17.2473C29.5956 17.1471 29.6639 17.0219 29.6951 16.8853C29.7264 16.7488 29.7194 16.6063 29.675 16.4735C29.6305 16.3407 29.5503 16.2227 29.4432 16.1325C29.336 16.0424 29.2061 15.9835 29.0676 15.9623ZM26.693 17.94C26.6097 18.0253 26.5476 18.1291 26.5117 18.2428C26.4757 18.3565 26.467 18.4771 26.4862 18.5948L26.6383 19.5274L25.8924 19.1152C25.7797 19.0528 25.6529 19.02 25.5239 19.02C25.395 19.02 25.2682 19.0528 25.1554 19.1152L24.4095 19.5274L24.5617 18.5948C24.5809 18.4771 24.5721 18.3565 24.5362 18.2428C24.5003 18.1291 24.4382 18.0253 24.3549 17.94L23.6763 17.2443L24.5796 17.1063C24.7032 17.0874 24.8203 17.0384 24.9205 16.9635C25.0208 16.8886 25.101 16.7902 25.1541 16.677L25.5239 15.889L25.8937 16.677C25.9469 16.7902 26.0271 16.8886 26.1273 16.9635C26.2275 17.0384 26.3447 17.0874 26.4683 17.1063L27.3716 17.2443L26.693 17.94Z" fill="#E53935"/>
<path d="M41.905 31.6191H34.1025C34.3494 31.7988 34.5576 32.0263 34.7147 32.2881C34.8719 32.5499 34.9748 32.8406 35.0173 33.143H41.905V31.6191Z" fill="#1A1917"/>
<path d="M27.5062 29.3324H41.905V28.5705C41.9055 28.3108 41.9504 28.0531 42.0378 27.8086H25.6104C26.184 28.3851 26.8198 28.8961 27.5062 29.3324Z" fill="#E53935"/>
<path d="M41.9048 35.4277H34.94C34.8988 35.8786 34.8419 36.389 34.7627 36.9515H41.9048V35.4277Z" fill="#E53935"/>
<path d="M41.9048 39.2383H34.3531C34.246 39.7316 34.1215 40.2409 33.9785 40.7621H41.9048V39.2383Z" fill="#1A1917"/>
<path d="M41.9047 43.0469H33.238C33.0464 43.5551 32.8341 44.063 32.6011 44.5707H41.9047V43.0469Z" fill="#E53935"/>
<path d="M41.9049 46.8574H31.3602C31.0248 47.3854 30.66 47.8941 30.2676 48.3812H41.9089C41.9084 48.3612 41.9049 48.3418 41.9049 48.3217V46.8574Z" fill="#1A1917"/>
<path d="M27.9616 50.666C27.2093 51.2592 26.3955 51.7701 25.5342 52.1898H43.753L42.8917 50.666H27.9616Z" fill="#E53935"/>
<path d="M21.2039 42.7084C21.3117 42.8669 21.4746 42.9796 21.661 43.0244C21.8474 43.0691 22.0437 43.0428 22.2117 42.9506L26.2783 40.6649C26.3657 40.616 26.4426 40.5503 26.5046 40.4716C26.5666 40.3929 26.6125 40.3028 26.6396 40.2064C26.6667 40.11 26.6746 40.0091 26.6627 39.9097C26.6508 39.8102 26.6194 39.7141 26.5703 39.6268C26.5212 39.5395 26.4554 39.4627 26.3766 39.4008C26.2978 39.339 26.2076 39.2933 26.1111 39.2664C26.0147 39.2394 25.9138 39.2318 25.8144 39.2438C25.715 39.2559 25.6189 39.2875 25.5317 39.3367L22.0813 41.2761L21.2061 39.9599C21.0941 39.792 20.92 39.6755 20.7221 39.6359C20.5242 39.5963 20.3187 39.6368 20.1506 39.7485C19.9825 39.8602 19.8657 40.0341 19.8257 40.2319C19.7857 40.4297 19.8258 40.6353 19.9372 40.8036L21.2039 42.7084Z" fill="#E53935"/>
<path d="M50.842 19.5213L41.3469 9.38364C41.2755 9.30759 41.1894 9.24696 41.0937 9.2055C40.9981 9.16404 40.8949 9.14263 40.7907 9.14258H19.8096C19.2036 9.14324 18.6226 9.38427 18.1941 9.81278C17.7656 10.2413 17.5246 10.8223 17.5239 11.4283V30.1232C18.052 29.8813 18.5613 29.6005 19.0477 29.2832V11.4283C19.048 11.2263 19.1283 11.0326 19.2712 10.8898C19.414 10.747 19.6076 10.6666 19.8096 10.6664H39.6192V18.7039C39.6252 19.3053 39.8695 19.8796 40.2984 20.3011C40.7274 20.7226 41.3059 20.9567 41.9073 20.9521H49.5239V47.6188H48.0001V39.3282C48.0001 39.1261 47.9198 38.9324 47.777 38.7895C47.6341 38.6466 47.4403 38.5663 47.2382 38.5663C47.0361 38.5663 46.8423 38.6466 46.6995 38.7895C46.5566 38.9324 46.4763 39.1261 46.4763 39.3282V47.6188H44.9525V28.5711C44.9525 28.3691 44.8722 28.1753 44.7293 28.0324C44.5865 27.8895 44.3927 27.8092 44.1906 27.8092C43.9885 27.8092 43.7947 27.8895 43.6518 28.0324C43.509 28.1753 43.4287 28.3691 43.4287 28.5711V48.3212C43.4288 48.4526 43.4627 48.5817 43.5273 48.6961L46.5749 54.089C46.6413 54.2064 46.7377 54.3041 46.8543 54.3721C46.9708 54.4401 47.1033 54.4759 47.2382 54.4759C47.3731 54.4759 47.5056 54.4401 47.6222 54.3721C47.7387 54.3041 47.8351 54.2064 47.9015 54.089L50.9491 48.6961C51.0137 48.5817 51.0477 48.4526 51.0477 48.3212V20.0421C51.0477 19.8487 50.9742 19.6625 50.842 19.5213ZM47.2382 52.1653L45.5301 49.1426H48.9464L47.2382 52.1653ZM41.143 18.7039V11.3952L48.6672 19.4283H41.9073C41.71 19.4333 41.5187 19.3598 41.3755 19.224C41.2322 19.0883 41.1486 18.9012 41.143 18.7039Z" fill="#1A1917"/>
<path d="M0.761905 57.9047C1.18269 57.9047 1.52381 57.5636 1.52381 57.1428C1.52381 56.722 1.18269 56.3809 0.761905 56.3809C0.341116 56.3809 0 56.722 0 57.1428C0 57.5636 0.341116 57.9047 0.761905 57.9047Z" fill="#1A1917"/>
<path d="M4.19041 56.3809H3.04755C2.84548 56.3809 2.65169 56.4611 2.5088 56.604C2.36592 56.7469 2.28564 56.9407 2.28564 57.1428C2.28564 57.3448 2.36592 57.5386 2.5088 57.6815C2.65169 57.8244 2.84548 57.9047 3.04755 57.9047H4.19041C4.39248 57.9047 4.58627 57.8244 4.72915 57.6815C4.87204 57.5386 4.95231 57.3448 4.95231 57.1428C4.95231 56.9407 4.87204 56.7469 4.72915 56.604C4.58627 56.4611 4.39248 56.3809 4.19041 56.3809Z" fill="#1A1917"/>
<path d="M60.9526 56.3809H59.8098C59.6077 56.3809 59.4139 56.4611 59.271 56.604C59.1281 56.7469 59.0479 56.9407 59.0479 57.1428C59.0479 57.3448 59.1281 57.5386 59.271 57.6815C59.4139 57.8244 59.6077 57.9047 59.8098 57.9047H60.9526C61.1547 57.9047 61.3485 57.8244 61.4914 57.6815C61.6342 57.5386 61.7145 57.3448 61.7145 57.1428C61.7145 56.9407 61.6342 56.7469 61.4914 56.604C61.3485 56.4611 61.1547 56.3809 60.9526 56.3809Z" fill="#1A1917"/>
<path d="M63.238 57.9047C63.6588 57.9047 63.9999 57.5636 63.9999 57.1428C63.9999 56.722 63.6588 56.3809 63.238 56.3809C62.8172 56.3809 62.4761 56.722 62.4761 57.1428C62.4761 57.5636 62.8172 57.9047 63.238 57.9047Z" fill="#1A1917"/>
<path d="M45.0112 59.4277H41.8464C41.6548 59.4431 41.4761 59.53 41.3458 59.6712C41.2154 59.8124 41.1431 59.9975 41.1431 60.1896C41.1431 60.3818 41.2154 60.5669 41.3458 60.7081C41.4761 60.8493 41.6548 60.9362 41.8464 60.9515H45.0112C45.2028 60.9362 45.3815 60.8493 45.5118 60.7081C45.6421 60.5669 45.7145 60.3818 45.7145 60.1896C45.7145 59.9975 45.6421 59.8124 45.5118 59.6712C45.3815 59.53 45.2028 59.4431 45.0112 59.4277Z" fill="#E53935"/>
<path d="M22.1538 59.4277H18.9889C18.7974 59.4431 18.6187 59.53 18.4883 59.6712C18.358 59.8124 18.2856 59.9975 18.2856 60.1896C18.2856 60.3818 18.358 60.5669 18.4883 60.7081C18.6187 60.8493 18.7974 60.9362 18.9889 60.9515H22.1538C22.3453 60.9362 22.5241 60.8493 22.6544 60.7081C22.7847 60.5669 22.8571 60.3818 22.8571 60.1896C22.8571 59.9975 22.7847 59.8124 22.6544 59.6712C22.5241 59.53 22.3453 59.4431 22.1538 59.4277Z" fill="#E53935"/>
<path d="M39.6191 59.4277H24.381C24.179 59.4277 23.9852 59.508 23.8423 59.6509C23.6994 59.7938 23.6191 59.9876 23.6191 60.1896C23.6191 60.3917 23.6994 60.5855 23.8423 60.7284C23.9852 60.8713 24.179 60.9515 24.381 60.9515H30.4534V61.7134H27.4287C27.2266 61.7134 27.0328 61.7937 26.8899 61.9366C26.747 62.0795 26.6668 62.2733 26.6668 62.4754C26.6668 62.6774 26.747 62.8712 26.8899 63.0141C27.0328 63.157 27.2266 63.2373 27.4287 63.2373H36.9525C37.1545 63.2373 37.3483 63.157 37.4912 63.0141C37.6341 62.8712 37.7144 62.6774 37.7144 62.4754C37.7144 62.2733 37.6341 62.0795 37.4912 61.9366C37.3483 61.7937 37.1545 61.7134 36.9525 61.7134H33.5468V60.9515H39.6191C39.8212 60.9515 40.015 60.8713 40.1579 60.7284C40.3008 60.5855 40.381 60.3917 40.381 60.1896C40.381 59.9876 40.3008 59.7938 40.1579 59.6509C40.015 59.508 39.8212 59.4277 39.6191 59.4277Z" fill="#E53935"/>
<path d="M57.4176 56.3812H50.9142C51.0019 56.1367 51.047 55.879 51.0476 55.6193V51.5215L49.5237 54.2179V55.6193C49.5234 55.8213 49.443 56.015 49.3001 56.1579C49.1572 56.3007 48.9635 56.381 48.7615 56.3812H19.8095C19.6075 56.381 19.4138 56.3006 19.271 56.1578C19.1281 56.015 19.0478 55.8213 19.0475 55.6193V51.0679C18.5102 50.6858 18.0009 50.2656 17.5237 49.8105V55.6193C17.5243 55.879 17.5694 56.1367 17.6571 56.3812H6.58229C6.4739 56.367 6.36373 56.3762 6.25915 56.408C6.15457 56.4398 6.05798 56.4935 5.97583 56.5657C5.89368 56.6378 5.82786 56.7266 5.78277 56.8262C5.73768 56.9257 5.71436 57.0338 5.71436 57.1431C5.71436 57.2524 5.73768 57.3605 5.78277 57.4601C5.82786 57.5596 5.89368 57.6484 5.97583 57.7206C6.05798 57.7927 6.15457 57.8464 6.25915 57.8782C6.36373 57.9101 6.4739 57.9192 6.58229 57.905H57.4176C57.526 57.9192 57.6361 57.9101 57.7407 57.8782C57.8453 57.8464 57.9419 57.7927 58.024 57.7206C58.1062 57.6484 58.172 57.5596 58.2171 57.4601C58.2622 57.3605 58.2855 57.2524 58.2855 57.1431C58.2855 57.0338 58.2622 56.9257 58.2171 56.8262C58.172 56.7266 58.1062 56.6378 58.024 56.5657C57.9419 56.4935 57.8453 56.4398 57.7407 56.408C57.6361 56.3762 57.526 56.367 57.4176 56.3812Z" fill="#1A1917"/>
</g>
<defs>
<clipPath id="clip0_640_2583">
<rect width="64" height="64" fill="white"/>
</clipPath>
</defs>
</svg>
