<svg width="64" height="64" viewBox="0 0 64 64" fill="none" xmlns="http://www.w3.org/2000/svg">
<g clip-path="url(#clip0_640_2661)">
<path d="M45.0112 59.2383H41.8464C41.6548 59.2536 41.4761 59.3405 41.3458 59.4817C41.2154 59.6229 41.1431 59.808 41.1431 60.0002C41.1431 60.1923 41.2154 60.3774 41.3458 60.5186C41.4761 60.6598 41.6548 60.7467 41.8464 60.7621H45.0112C45.2028 60.7467 45.3815 60.6598 45.5118 60.5186C45.6421 60.3774 45.7145 60.1923 45.7145 60.0002C45.7145 59.808 45.6421 59.6229 45.5118 59.4817C45.3815 59.3405 45.2028 59.2536 45.0112 59.2383Z" fill="#E53935"/>
<path d="M22.1538 59.2383H18.9889C18.7974 59.2536 18.6187 59.3405 18.4883 59.4817C18.358 59.6229 18.2856 59.808 18.2856 60.0002C18.2856 60.1923 18.358 60.3774 18.4883 60.5186C18.6187 60.6598 18.7974 60.7467 18.9889 60.7621H22.1538C22.3453 60.7467 22.5241 60.6598 22.6544 60.5186C22.7847 60.3774 22.8571 60.1923 22.8571 60.0002C22.8571 59.808 22.7847 59.6229 22.6544 59.4817C22.5241 59.3405 22.3453 59.2536 22.1538 59.2383Z" fill="#E53935"/>
<path d="M39.6191 59.2383H24.381C24.179 59.2383 23.9852 59.3186 23.8423 59.4614C23.6994 59.6043 23.6191 59.7981 23.6191 60.0002C23.6191 60.2023 23.6994 60.396 23.8423 60.5389C23.9852 60.6818 24.179 60.7621 24.381 60.7621H30.4534V61.524H27.4287C27.2266 61.524 27.0328 61.6043 26.8899 61.7472C26.747 61.89 26.6668 62.0838 26.6668 62.2859C26.6668 62.488 26.747 62.6818 26.8899 62.8246C27.0328 62.9675 27.2266 63.0478 27.4287 63.0478H36.9525C37.1545 63.0478 37.3483 62.9675 37.4912 62.8246C37.6341 62.6818 37.7144 62.488 37.7144 62.2859C37.7144 62.0838 37.6341 61.89 37.4912 61.7472C37.3483 61.6043 37.1545 61.524 36.9525 61.524H33.5468V60.7621H39.6191C39.8212 60.7621 40.015 60.6818 40.1579 60.5389C40.3008 60.396 40.381 60.2023 40.381 60.0002C40.381 59.7981 40.3008 59.6043 40.1579 59.4614C40.015 59.3186 39.8212 59.2383 39.6191 59.2383Z" fill="#E53935"/>
<path d="M17.8181 23.4281H37.7998C38.0019 23.4281 38.1957 23.3478 38.3386 23.205C38.4814 23.0621 38.5617 22.8683 38.5617 22.6662C38.5617 22.4641 38.4814 22.2703 38.3386 22.1275C38.1957 21.9846 38.0019 21.9043 37.7998 21.9043H17.8181C17.616 21.9043 17.4222 21.9846 17.2793 22.1275C17.1364 22.2703 17.0562 22.4641 17.0562 22.6662C17.0562 22.8683 17.1364 23.0621 17.2793 23.205C17.4222 23.3478 17.616 23.4281 17.8181 23.4281Z" fill="#1A1917"/>
<path d="M17.8181 53.9047H37.7998C38.0019 53.9047 38.1957 53.8244 38.3386 53.6815C38.4814 53.5386 38.5617 53.3448 38.5617 53.1428C38.5617 52.9407 38.4814 52.7469 38.3386 52.604C38.1957 52.4611 38.0019 52.3809 37.7998 52.3809H17.8181C17.616 52.3809 17.4222 52.4611 17.2793 52.604C17.1364 52.7469 17.0562 52.9407 17.0562 53.1428C17.0562 53.3448 17.1364 53.5386 17.2793 53.6815C17.4222 53.8244 17.616 53.9047 17.8181 53.9047Z" fill="#1A1917"/>
<path d="M17.8181 27.2387H37.1261C37.4817 26.7798 37.9777 26.4499 38.5383 26.2993C38.4988 26.1331 38.4044 25.985 38.2705 25.8789C38.1365 25.7729 37.9707 25.7151 37.7998 25.7148H17.8181C17.616 25.7148 17.4222 25.7951 17.2793 25.938C17.1364 26.0809 17.0562 26.2747 17.0562 26.4767C17.0562 26.6788 17.1364 26.8726 17.2793 27.0155C17.4222 27.1584 17.616 27.2387 17.8181 27.2387Z" fill="#E53935"/>
<path d="M12.1906 34.096C12.3926 34.0959 12.5864 34.0156 12.7293 33.8727C12.8721 33.7299 12.9524 33.5361 12.9525 33.3341V12.3817C12.9525 11.1177 13.5935 10.4769 14.8565 10.4769H29.7211V15.7876C29.7183 16.7996 30.117 17.7714 30.8298 18.4898C31.5425 19.2082 32.5112 19.6146 33.5232 19.6198H42.6664V25.3551C42.7538 25.346 42.8402 25.3352 42.9332 25.3343C43.3695 25.3328 43.8 25.4342 44.1899 25.6302V18.0792L31.0954 8.95312H14.8565C12.742 8.95312 11.4287 10.2669 11.4287 12.3817V33.3341C11.4287 33.4341 11.4483 33.5332 11.4866 33.6257C11.5249 33.7182 11.581 33.8022 11.6517 33.8729C11.7225 33.9437 11.8065 33.9998 11.899 34.0381C11.9914 34.0764 12.0905 34.096 12.1906 34.096ZM31.2449 10.9144L41.5485 18.096H33.5232C32.9152 18.0913 32.3338 17.8456 31.9067 17.4128C31.4796 16.9801 31.2416 16.3956 31.2449 15.7876L31.2449 10.9144Z" fill="#1A1917"/>
<path d="M42.9496 26.8574C42.245 26.8647 41.8075 27.4503 41.4563 27.9207C41.3466 28.0755 41.2264 28.2226 41.0966 28.361C40.9155 28.2947 40.7393 28.2161 40.569 28.1257C40.1828 27.893 39.748 27.7526 39.2986 27.7157C39.1085 27.7141 38.9206 27.7558 38.7491 27.8376C38.1144 28.1435 37.9794 28.8578 37.8711 29.4316C37.8411 29.6158 37.7986 29.7977 37.7439 29.9761C37.6455 29.9877 37.5464 29.9927 37.4474 29.991C37.3603 29.991 36.9802 29.9826 36.8816 29.9826C36.5356 29.9826 35.8172 29.9826 35.3953 30.5122C34.944 31.0765 35.1438 31.7912 35.3042 32.3654C35.3547 32.5333 35.3956 32.7039 35.4265 32.8764C35.2614 32.9719 35.0903 33.0568 34.9143 33.1305C34.3741 33.371 33.7022 33.6703 33.5508 34.3528C33.3971 35.0477 33.8893 35.6011 34.2852 36.0456C34.4083 36.1784 34.5235 36.3183 34.63 36.4647C34.5262 36.6145 34.4134 36.7579 34.2922 36.8941C33.9083 37.3455 33.4288 37.9071 33.5962 38.5968C33.7625 39.278 34.4422 39.5652 34.9883 39.796C35.1642 39.8658 35.3356 39.9465 35.5013 40.0378C35.4741 40.2132 35.4363 40.3869 35.3882 40.5578C35.2398 41.1333 35.0552 41.8496 35.5162 42.4026C35.6898 42.5788 35.9006 42.7139 36.1332 42.7979C36.3658 42.882 36.6142 42.9129 36.8603 42.8885C36.9928 42.8885 37.1319 42.8829 37.271 42.8773C37.3845 42.8726 37.4987 42.8706 37.5999 42.8708L34.9291 48.5401C34.8642 48.6781 34.8421 48.8324 34.8658 48.983C34.8895 49.1337 34.9578 49.2738 35.062 49.3852C35.1662 49.4966 35.3014 49.5741 35.4502 49.6078C35.5989 49.6415 35.7544 49.6297 35.8964 49.5741L37.8733 48.7995L38.4548 50.6995C38.5001 50.8473 38.5892 50.9778 38.7104 51.0738C38.8316 51.1697 38.9791 51.2266 39.1334 51.2367C39.1501 51.2378 39.1669 51.2384 39.1836 51.2384C39.3296 51.2383 39.4724 51.1963 39.5952 51.1174C39.718 51.0385 39.8156 50.926 39.8763 50.7932L42.2662 45.5681C42.5061 45.7796 42.8133 45.899 43.133 45.905H43.1457C43.4066 45.8998 43.6598 45.8149 43.8711 45.6617L46.2171 50.7932C46.2778 50.926 46.3753 51.0385 46.4981 51.1174C46.6209 51.1964 46.7638 51.2383 46.9098 51.2384C46.9273 51.2384 46.9437 51.2378 46.9608 51.2367C47.1149 51.2264 47.2623 51.1696 47.3833 51.0736C47.5044 50.9777 47.5934 50.8472 47.6386 50.6995L48.2208 48.7995L50.197 49.5741C50.339 49.6298 50.4945 49.6417 50.6433 49.608C50.7921 49.5744 50.9274 49.4968 51.0316 49.3854C51.1358 49.274 51.2042 49.1339 51.2278 48.9831C51.2515 48.8324 51.2294 48.6781 51.1643 48.5401L48.4507 42.7765C48.5006 42.7734 48.5634 42.7711 48.6468 42.7711C48.7338 42.7711 48.8227 42.7732 48.9117 42.775C49.0136 42.7773 49.114 42.7795 49.2137 42.7795C49.5582 42.7795 50.2762 42.7795 50.7003 42.2494C51.1497 41.6848 50.95 40.9705 50.7897 40.3967C50.7389 40.2289 50.698 40.0584 50.6673 39.8859C50.8325 39.7903 51.0037 39.7055 51.1799 39.632C51.7193 39.3913 52.3923 39.0918 52.543 38.4093C52.6962 37.7144 52.2041 37.1612 51.8086 36.7166C51.6856 36.5837 51.5706 36.4437 51.4641 36.2972C51.5675 36.1473 51.68 36.004 51.8011 35.868C52.1866 35.4166 52.665 34.8548 52.4972 34.1653C52.3313 33.4845 51.6516 33.1971 51.1062 32.9662C50.9299 32.8966 50.7583 32.8157 50.5925 32.7241C50.6195 32.5487 50.6573 32.3752 50.7056 32.2045C50.8533 31.6288 51.0382 30.9123 50.5783 30.3598C50.4047 30.1836 50.1939 30.0484 49.9612 29.9643C49.7286 29.8801 49.48 29.8491 49.2338 29.8736C49.1014 29.8736 48.9615 29.879 48.8224 29.8848C48.6209 29.8963 48.4188 29.895 48.2175 29.8807C48.156 29.6989 48.1079 29.5129 48.0735 29.3241C47.9545 28.7557 47.8068 28.0481 47.1706 27.7553C47.0049 27.6799 46.8248 27.6415 46.6427 27.6427C46.1826 27.6817 45.7387 27.8313 45.3488 28.0786C45.1821 28.1714 45.0095 28.2531 44.8321 28.3232C44.6974 28.1868 44.5727 28.0409 44.4589 27.8866C44.101 27.4281 43.6561 26.8574 42.9496 26.8574ZM39.3246 48.3355L39.0899 47.5672C39.0591 47.4669 39.0079 47.3739 38.9395 47.2943C38.8711 47.2146 38.787 47.1499 38.6925 47.1043C38.5979 47.0586 38.495 47.0329 38.3901 47.0289C38.2852 47.0249 38.1806 47.0425 38.0828 47.0808L37.1245 47.4566L38.4585 44.6234C38.5783 44.7883 38.7379 44.9201 38.9224 45.0066C39.0888 45.0822 39.2695 45.1207 39.4522 45.1193C39.9118 45.0803 40.3552 44.9309 40.7446 44.6837C40.8361 44.6357 40.9581 44.5726 41.0694 44.5202L39.3246 48.3355ZM48.9701 47.4566L48.0114 47.0808C47.9137 47.0425 47.8091 47.0248 47.7042 47.0288C47.5993 47.0328 47.4964 47.0584 47.4019 47.1041C47.3074 47.1498 47.2234 47.2145 47.1551 47.2942C47.0868 47.3739 47.0357 47.4669 47.005 47.5672L46.7692 48.3355L44.9786 44.4208C44.9846 44.4151 44.992 44.4065 44.9979 44.4013C45.1785 44.4677 45.3544 44.5463 45.5244 44.6364C45.9107 44.8693 46.3457 45.0097 46.7952 45.0466C46.9858 45.0481 47.1742 45.0063 47.3462 44.9242C47.4655 44.8651 47.5739 44.7863 47.6669 44.6911L48.9701 47.4566ZM44.5125 29.8317C44.6003 29.8502 44.6898 29.8594 44.7796 29.8593C45.2334 29.8203 45.6711 29.6725 46.0556 29.4285C46.1762 29.3654 46.3506 29.2739 46.485 29.2173C46.5221 29.3468 46.5575 29.5176 46.582 29.6368C46.6918 30.1584 46.8153 30.7495 47.28 31.1046C47.6312 31.3365 48.0487 31.4469 48.4686 31.4188C48.6036 31.4188 48.7446 31.4132 48.8849 31.4073C49.0411 31.401 49.2148 31.3954 49.3295 31.3989C49.3049 31.5341 49.261 31.7047 49.2297 31.8241C49.0992 32.3317 48.9507 32.9071 49.2071 33.417C49.4645 33.9265 50.0214 34.1619 50.5125 34.3697C50.6263 34.4179 50.7878 34.486 50.9121 34.5488C50.8306 34.658 50.7197 34.7879 50.6416 34.8796C50.2978 35.2836 49.9076 35.7415 49.9132 36.3146C49.9191 36.8853 50.3183 37.3338 50.6706 37.7295C50.7509 37.82 50.8655 37.9482 50.9492 38.0565C50.8276 38.1206 50.6702 38.1906 50.559 38.2401C50.0701 38.4579 49.5162 38.7049 49.2684 39.2211C49.0222 39.7326 49.1818 40.3035 49.322 40.807C49.357 40.9313 49.4072 41.1109 49.4336 41.249C49.3272 41.2568 49.1323 41.2559 48.9452 41.2516C48.3923 41.2392 47.8302 41.2229 47.3886 41.5754C46.9351 41.937 46.8239 42.5273 46.7261 43.0481C46.7022 43.1692 46.6695 43.3427 46.6345 43.4741C46.4991 43.4201 46.3254 43.333 46.2052 43.2729C45.8214 43.0418 45.3894 42.9023 44.9429 42.8654C44.8433 42.8652 44.7439 42.8764 44.6468 42.8987C44.0895 43.0285 43.732 43.5075 43.4161 43.93C43.3376 44.0354 43.2234 44.1884 43.1289 44.2946C43.0337 44.1908 42.9169 44.0416 42.8361 43.9383C42.5117 43.5218 42.1434 43.0498 41.5824 42.9307C41.494 42.9123 41.4038 42.9031 41.3135 42.9032C40.86 42.9422 40.4225 43.0899 40.0381 43.3336C39.9176 43.3969 39.7428 43.4882 39.6092 43.5447C39.5727 43.4154 39.5366 43.2449 39.5113 43.1257C39.402 42.6039 39.2781 42.0125 38.8142 41.658C38.4626 41.4258 38.0445 41.3152 37.6241 41.3435C37.489 41.3435 37.3488 41.349 37.2085 41.3548C37.053 41.3612 36.8808 41.3669 36.7647 41.3632C36.7893 41.228 36.8332 41.0578 36.8637 40.9384C36.9946 40.4307 37.1431 39.8552 36.8867 39.345C36.6296 38.8355 36.0727 38.6002 35.5817 38.3926C35.4678 38.3444 35.306 38.2759 35.1818 38.2133C35.2632 38.1041 35.3737 37.9742 35.4518 37.8825C35.7971 37.4783 36.1866 37.0204 36.1806 36.4471C36.1743 35.8766 35.7755 35.4283 35.4236 35.0328C35.3428 34.9421 35.2286 34.8139 35.1449 34.7057C35.2662 34.6417 35.4232 34.5717 35.5341 34.5224C36.0229 34.3046 36.5772 34.0578 36.8253 33.5414C37.072 33.0298 36.9124 32.459 36.7718 31.9554C36.7368 31.831 36.6866 31.6511 36.6602 31.5131C36.7673 31.5057 36.9641 31.5064 37.1486 31.5105C37.7015 31.5217 38.2632 31.5393 38.7052 31.1867C39.1583 30.8254 39.2695 30.2354 39.3681 29.7147C39.3912 29.5936 39.4239 29.4197 39.4593 29.2882C39.5943 29.3422 39.7681 29.429 39.8882 29.4891C40.272 29.7202 40.704 29.8597 41.1505 29.8966C41.2503 29.8969 41.3498 29.8857 41.447 29.8633C42.0039 29.7337 42.3614 29.2549 42.6769 28.8327C42.7558 28.727 42.8707 28.5739 42.9645 28.4675C43.0604 28.5715 43.1769 28.7209 43.2572 28.8239C43.582 29.2404 43.9511 29.7123 44.5125 29.8317Z" fill="#1A1917"/>
<path d="M38.4751 36.3802C38.4751 37.2843 38.7433 38.1682 39.2456 38.9199C39.748 39.6717 40.4619 40.2576 41.2972 40.6035C42.1326 40.9495 43.0517 41.04 43.9385 40.8636C44.8252 40.6872 45.6398 40.2518 46.2791 39.6124C46.9184 38.9731 47.3538 38.1586 47.5301 37.2718C47.7065 36.385 47.616 35.4659 47.27 34.6306C46.924 33.7953 46.338 33.0813 45.5863 32.579C44.8345 32.0767 43.9507 31.8086 43.0465 31.8086C41.8345 31.8099 40.6725 32.292 39.8154 33.149C38.9584 34.0061 38.4764 35.1682 38.4751 36.3802ZM46.0941 36.3802C46.0941 36.983 45.9153 37.5722 45.5804 38.0733C45.2455 38.5745 44.7696 38.9651 44.2127 39.1957C43.6558 39.4263 43.043 39.4867 42.4519 39.3691C41.8607 39.2514 41.3177 38.9612 40.8915 38.5349C40.4653 38.1087 40.175 37.5657 40.0575 36.9745C39.9399 36.3833 40.0002 35.7706 40.2309 35.2137C40.4616 34.6568 40.8522 34.1809 41.3534 33.846C41.8546 33.5111 42.4438 33.3324 43.0465 33.3324C43.8546 33.3333 44.6292 33.6547 45.2006 34.2261C45.772 34.7975 46.0933 35.5722 46.0941 36.3802Z" fill="#E53935"/>
<path d="M12.1906 37.143C12.6114 37.143 12.9525 36.8018 12.9525 36.381C12.9525 35.9603 12.6114 35.6191 12.1906 35.6191C11.7698 35.6191 11.4287 35.9603 11.4287 36.381C11.4287 36.8018 11.7698 37.143 12.1906 37.143Z" fill="#E53935"/>
<path d="M17.8181 31.0472H33.6164C33.6586 30.5041 33.8631 29.9862 34.2035 29.5608C34.2146 29.5471 34.2269 29.5368 34.2381 29.5234H17.8181C17.616 29.5234 17.4222 29.6037 17.2793 29.7466C17.1364 29.8895 17.0562 30.0833 17.0562 30.2853C17.0562 30.4874 17.1364 30.6812 17.2793 30.8241C17.4222 30.967 17.616 31.0472 17.8181 31.0472Z" fill="#1A1917"/>
<path d="M17.8181 34.8578H32.01C31.9623 34.331 32.0685 33.8016 32.3158 33.334H17.8181C17.616 33.334 17.4222 33.4143 17.2793 33.5571C17.1364 33.7 17.0562 33.8938 17.0562 34.0959C17.0562 34.298 17.1364 34.4918 17.2793 34.6346C17.4222 34.7775 17.616 34.8578 17.8181 34.8578Z" fill="#E53935"/>
<path d="M17.8181 38.6664H32.0651C31.9956 38.1468 32.0759 37.6181 32.2965 37.1426H17.8181C17.616 37.1426 17.4222 37.2228 17.2793 37.3657C17.1364 37.5086 17.0562 37.7024 17.0562 37.9045C17.0562 38.1066 17.1364 38.3003 17.2793 38.4432C17.4222 38.5861 17.616 38.6664 17.8181 38.6664Z" fill="#1A1917"/>
<path d="M17.8181 42.4769H33.8489C33.6993 41.9834 33.665 41.462 33.7488 40.9531H17.8181C17.616 40.9531 17.4222 41.0334 17.2793 41.1763C17.1364 41.3192 17.0562 41.513 17.0562 41.715C17.0562 41.9171 17.1364 42.1109 17.2793 42.2538C17.4222 42.3967 17.616 42.4769 17.8181 42.4769Z" fill="#E53935"/>
<path d="M17.8181 46.2855H34.3065L35.0242 44.7617H17.8181C17.616 44.7617 17.4222 44.842 17.2793 44.9849C17.1364 45.1278 17.0562 45.3216 17.0562 45.5236C17.0562 45.7257 17.1364 45.9195 17.2793 46.0624C17.4222 46.2053 17.616 46.2855 17.8181 46.2855Z" fill="#1A1917"/>
<path d="M17.8181 50.0961H33.6971C33.4068 49.6444 33.285 49.1049 33.353 48.5723H17.8181C17.616 48.5723 17.4222 48.6525 17.2793 48.7954C17.1364 48.9383 17.0562 49.1321 17.0562 49.3342C17.0562 49.5362 17.1364 49.73 17.2793 49.8729C17.4222 50.0158 17.616 50.0961 17.8181 50.0961Z" fill="#E53935"/>
<path d="M0.761905 57.7152C1.18269 57.7152 1.52381 57.3741 1.52381 56.9533C1.52381 56.5325 1.18269 56.1914 0.761905 56.1914C0.341116 56.1914 0 56.5325 0 56.9533C0 57.3741 0.341116 57.7152 0.761905 57.7152Z" fill="#1A1917"/>
<path d="M4.19041 56.1914H3.04755C2.84548 56.1914 2.65169 56.2717 2.5088 56.4146C2.36592 56.5574 2.28564 56.7512 2.28564 56.9533C2.28564 57.1554 2.36592 57.3492 2.5088 57.4921C2.65169 57.6349 2.84548 57.7152 3.04755 57.7152H4.19041C4.39248 57.7152 4.58627 57.6349 4.72915 57.4921C4.87204 57.3492 4.95231 57.1554 4.95231 56.9533C4.95231 56.7512 4.87204 56.5574 4.72915 56.4146C4.58627 56.2717 4.39248 56.1914 4.19041 56.1914Z" fill="#1A1917"/>
<path d="M60.9526 56.1914H59.8098C59.6077 56.1914 59.4139 56.2717 59.271 56.4146C59.1281 56.5574 59.0479 56.7512 59.0479 56.9533C59.0479 57.1554 59.1281 57.3492 59.271 57.4921C59.4139 57.6349 59.6077 57.7152 59.8098 57.7152H60.9526C61.1547 57.7152 61.3485 57.6349 61.4914 57.4921C61.6342 57.3492 61.7145 57.1554 61.7145 56.9533C61.7145 56.7512 61.6342 56.5574 61.4914 56.4146C61.3485 56.2717 61.1547 56.1914 60.9526 56.1914Z" fill="#1A1917"/>
<path d="M63.238 57.7152C63.6588 57.7152 63.9999 57.3741 63.9999 56.9533C63.9999 56.5325 63.6588 56.1914 63.238 56.1914C62.8172 56.1914 62.4761 56.5325 62.4761 56.9533C62.4761 57.3741 62.8172 57.7152 63.238 57.7152Z" fill="#1A1917"/>
<path d="M57.4176 56.1898H43.7236C44.0441 55.6071 44.2049 54.95 44.1896 54.2851V50.0226L43.0464 47.5234L42.6662 48.3565V54.2851C42.6662 55.549 42.0252 56.1898 40.7603 56.1898H14.8563C13.5933 56.1898 12.9523 55.549 12.9523 54.2851V39.4279C12.9523 39.2259 12.872 39.0321 12.7292 38.8892C12.5863 38.7463 12.3925 38.666 12.1904 38.666C11.9883 38.666 11.7945 38.7463 11.6517 38.8892C11.5088 39.0321 11.4285 39.2259 11.4285 39.4279V54.2851C11.4132 54.9499 11.5739 55.607 11.8943 56.1898H6.58229C6.4739 56.1757 6.36373 56.1848 6.25915 56.2166C6.15457 56.2484 6.05798 56.3022 5.97583 56.3743C5.89368 56.4464 5.82786 56.5352 5.78277 56.6348C5.73768 56.7344 5.71436 56.8424 5.71436 56.9517C5.71436 57.061 5.73768 57.1691 5.78277 57.2687C5.82786 57.3683 5.89368 57.4571 5.97583 57.5292C6.05798 57.6013 6.15457 57.6551 6.25915 57.6869C6.36373 57.7187 6.4739 57.7278 6.58229 57.7136H57.4176C57.526 57.7278 57.6361 57.7187 57.7407 57.6869C57.8453 57.6551 57.9419 57.6013 58.024 57.5292C58.1062 57.4571 58.172 57.3683 58.2171 57.2687C58.2622 57.1691 58.2855 57.061 58.2855 56.9517C58.2855 56.8424 58.2622 56.7344 58.2171 56.6348C58.172 56.5352 58.1062 56.4464 58.024 56.3743C57.9419 56.3022 57.8453 56.2484 57.7407 56.2166C57.6361 56.1848 57.526 56.1757 57.4176 56.1898Z" fill="#1A1917"/>
</g>
<defs>
<clipPath id="clip0_640_2661">
<rect width="64" height="64" fill="white"/>
</clipPath>
</defs>
</svg>
