<svg width="64" height="64" viewBox="0 0 64 64" fill="none" xmlns="http://www.w3.org/2000/svg">
<g clip-path="url(#clip0_640_2720)">
<path d="M28.1904 27.0197C28.1896 26.4458 28.0038 25.8874 27.6608 25.4273C27.3177 24.9673 26.8355 24.6299 26.2857 24.4654V21.9635C26.2869 22.1537 26.9098 22.0358 27.0074 21.987C27.0969 21.9422 27.1767 21.8803 27.2423 21.8047C27.3079 21.7291 27.3579 21.6413 27.3896 21.5464C27.4212 21.4515 27.4338 21.3512 27.4267 21.2514C27.4196 21.1516 27.3929 21.0542 27.3482 20.9647L26.2053 18.6789C26.142 18.5524 26.0447 18.446 25.9243 18.3716C25.804 18.2972 25.6653 18.2578 25.5238 18.2578C25.3823 18.2578 25.2436 18.2972 25.1232 18.3716C25.0028 18.446 24.9055 18.5524 24.8422 18.6789L23.6994 20.9647C23.626 21.1112 23.6018 21.2774 23.6305 21.4388C23.6591 21.6001 23.739 21.7479 23.8583 21.8602C23.9777 21.9725 24.13 22.0433 24.2928 22.0621C24.4556 22.0809 24.6201 22.0467 24.7619 21.9646V24.4654C24.3819 24.5784 24.032 24.7747 23.7376 25.0401C23.4432 25.3055 23.2117 25.6332 23.06 25.9994C22.9083 26.3656 22.8402 26.7611 22.8607 27.1569C22.8812 27.5528 22.9897 27.939 23.1784 28.2876L20.6018 30.8641C20.5625 30.7038 20.4722 30.5606 20.3443 30.4562C20.2165 30.3518 20.0582 30.2917 19.8933 30.2852C19.7284 30.2786 19.5658 30.3259 19.4301 30.4198C19.2943 30.5138 19.1929 30.6493 19.141 30.806L18.3247 33.255C18.28 33.3892 18.2735 33.5332 18.306 33.6709C18.3385 33.8086 18.4088 33.9345 18.5088 34.0345C18.6106 34.1319 18.7366 34.2004 18.8737 34.2328C19.0108 34.2651 19.154 34.2603 19.2886 34.2187L21.7377 33.4023C21.8943 33.3504 22.0298 33.2489 22.1238 33.1132C22.2177 32.9774 22.2649 32.8148 22.2583 32.6499C22.2517 32.485 22.1916 32.3267 22.0872 32.1989C21.9827 32.0712 21.8395 31.9808 21.6792 31.9415L24.2558 29.365C24.6619 29.5848 25.1182 29.6954 25.5799 29.6858C26.0416 29.6762 26.4929 29.5469 26.8896 29.3105C27.2862 29.074 27.6147 28.7386 27.8427 28.337C28.0708 27.9354 28.1906 27.4815 28.1904 27.0197ZM25.5238 28.1626C25.2977 28.1626 25.0768 28.0955 24.8888 27.97C24.7009 27.8444 24.5544 27.6659 24.4679 27.4571C24.3814 27.2482 24.3588 27.0184 24.4029 26.7968C24.447 26.5751 24.5558 26.3714 24.7156 26.2116C24.8755 26.0518 25.0791 25.9429 25.3008 25.8988C25.5225 25.8547 25.7523 25.8774 25.9611 25.9639C26.17 26.0504 26.3484 26.1968 26.474 26.3848C26.5996 26.5727 26.6666 26.7937 26.6666 27.0197C26.6663 27.3227 26.5458 27.6132 26.3315 27.8275C26.1173 28.0417 25.8268 28.1622 25.5238 28.1626Z" fill="#1A1917"/>
<path d="M25.5236 15.2097C25.7257 15.2097 25.9195 15.1294 26.0624 14.9866C26.2052 14.8437 26.2855 14.6499 26.2855 14.4478V12.924C26.2855 12.7219 26.2053 12.5282 26.0624 12.3853C25.9195 12.2424 25.7257 12.1621 25.5236 12.1621C25.3216 12.1621 25.1278 12.2424 24.9849 12.3853C24.842 12.5282 24.7617 12.7219 24.7617 12.924V14.4478C24.7617 14.6499 24.842 14.8437 24.9849 14.9866C25.1278 15.1294 25.3216 15.2097 25.5236 15.2097Z" fill="#E53935"/>
<path d="M24.7617 39.59V41.1138C24.7617 41.3159 24.842 41.5097 24.9849 41.6526C25.1278 41.7955 25.3216 41.8757 25.5236 41.8757C25.7257 41.8757 25.9195 41.7955 26.0624 41.6526C26.2053 41.5097 26.2855 41.3159 26.2855 41.1138V39.59C26.2855 39.388 26.2053 39.1942 26.0624 39.0513C25.9195 38.9084 25.7257 38.8281 25.5236 38.8281C25.3216 38.8281 25.1278 38.9084 24.9849 39.0513C24.842 39.1942 24.7617 39.388 24.7617 39.59Z" fill="#E53935"/>
<path d="M38.0954 26.2578C37.8933 26.2578 37.6995 26.3381 37.5567 26.481C37.4138 26.6239 37.3335 26.8176 37.3335 27.0197C37.3335 27.2218 37.4138 27.4156 37.5567 27.5585C37.6995 27.7014 37.8933 27.7816 38.0954 27.7816H39.6192C39.8213 27.7816 40.0151 27.7014 40.158 27.5585C40.3008 27.4156 40.3811 27.2218 40.3811 27.0197C40.3811 26.8176 40.3008 26.6239 40.158 26.481C40.0151 26.3381 39.8213 26.2578 39.6192 26.2578H38.0954Z" fill="#E53935"/>
<path d="M11.4284 26.2578C11.2263 26.2578 11.0325 26.3381 10.8897 26.481C10.7468 26.6239 10.6665 26.8176 10.6665 27.0197C10.6665 27.2218 10.7468 27.4156 10.8897 27.5585C11.0325 27.7014 11.2263 27.7816 11.4284 27.7816H12.9522C13.1543 27.7816 13.3481 27.7014 13.491 27.5585C13.6339 27.4156 13.7141 27.2218 13.7141 27.0197C13.7141 26.8176 13.6339 26.6239 13.491 26.481C13.3481 26.3381 13.1543 26.2578 12.9522 26.2578H11.4284Z" fill="#E53935"/>
<path d="M34.952 16.5142L33.8746 17.5917C33.8038 17.6625 33.7477 17.7464 33.7094 17.8389C33.6711 17.9313 33.6514 18.0304 33.6514 18.1304C33.6514 18.2305 33.6711 18.3295 33.7093 18.422C33.7476 18.5144 33.8037 18.5984 33.8744 18.6692C34.0191 18.8086 34.2123 18.8865 34.4132 18.8865C34.6142 18.8865 34.8073 18.8086 34.952 18.6691L36.0293 17.5915C36.1001 17.5208 36.1562 17.4368 36.1945 17.3444C36.2328 17.252 36.2525 17.1529 36.2525 17.0528C36.2525 16.9528 36.2328 16.8537 36.1945 16.7613C36.1562 16.6689 36.1001 16.5849 36.0293 16.5141C35.9586 16.4434 35.8746 16.3873 35.7822 16.349C35.6898 16.3107 35.5907 16.291 35.4906 16.291C35.3906 16.291 35.2915 16.3107 35.1991 16.349C35.1067 16.3873 35.0227 16.4434 34.952 16.5142Z" fill="#1A1917"/>
<path d="M16.0955 35.3697L15.0181 36.4473C14.9474 36.518 14.8912 36.602 14.8529 36.6944C14.8146 36.7869 14.7949 36.8859 14.7949 36.986C14.7949 37.0861 14.8146 37.1851 14.8529 37.2776C14.8912 37.37 14.9473 37.454 15.0181 37.5248C15.1632 37.6633 15.3561 37.7407 15.5568 37.7407C15.7575 37.7406 15.9504 37.6633 16.0955 37.5247L17.1729 36.4471C17.2441 36.3764 17.3006 36.2924 17.3393 36.1999C17.3779 36.1073 17.3979 36.0081 17.3981 35.9078C17.3983 35.8075 17.3786 35.7082 17.3404 35.6155C17.3021 35.5228 17.2459 35.4386 17.1749 35.3677C17.104 35.2968 17.0198 35.2405 16.9271 35.2022C16.8344 35.164 16.7351 35.1443 16.6348 35.1445C16.5345 35.1447 16.4353 35.1647 16.3427 35.2034C16.2502 35.242 16.1662 35.2985 16.0955 35.3697Z" fill="#1A1917"/>
<path d="M17.1729 17.5908L16.0955 16.5132C16.0248 16.4423 15.9408 16.3859 15.8483 16.3475C15.7558 16.309 15.6567 16.2892 15.5565 16.2891C15.4563 16.289 15.3571 16.3086 15.2646 16.3469C15.172 16.3852 15.0879 16.4414 15.0171 16.5122C14.9463 16.583 14.8901 16.6671 14.8518 16.7597C14.8135 16.8522 14.7938 16.9514 14.7939 17.0516C14.794 17.1518 14.8139 17.2509 14.8524 17.3434C14.8908 17.4359 14.9471 17.5199 15.0181 17.5906L16.0955 18.6682C16.2401 18.8078 16.4332 18.8858 16.6341 18.8859C16.8351 18.8859 17.0283 18.8079 17.1729 18.6684C17.2436 18.5976 17.2998 18.5136 17.3381 18.4212C17.3764 18.3287 17.3961 18.2296 17.3961 18.1296C17.3961 18.0295 17.3764 17.9304 17.3381 17.838C17.2998 17.7455 17.2436 17.6615 17.1729 17.5908Z" fill="#1A1917"/>
<path d="M9.1427 27.0197C9.14102 24.7165 9.62507 22.4388 10.5633 20.3352C11.5015 18.2317 12.8727 16.3497 14.5875 14.812C16.3023 13.2743 18.3221 12.1155 20.5151 11.4113C22.708 10.7071 25.0248 10.4732 27.3143 10.725C29.6037 10.9768 31.8144 11.7085 33.8019 12.8725C35.7894 14.0364 37.5091 15.6065 38.8487 17.48C40.1884 19.3536 41.1179 21.4887 41.5765 23.7458C42.0352 26.0029 42.0127 28.3314 41.5105 30.5793C42.0357 30.5096 42.5643 30.4687 43.0939 30.4568C43.8323 26.6897 43.341 22.785 41.6925 19.3183C40.0439 15.8515 37.3253 13.006 33.9373 11.2011C30.5493 9.39624 26.671 8.72749 22.8742 9.2934C19.0774 9.85932 15.5627 11.63 12.8483 14.3444C10.1339 17.0588 8.36322 20.5735 7.79731 24.3703C7.23139 28.1671 7.90015 32.0454 9.70502 35.4334C11.5099 38.8214 14.3554 41.54 17.8222 43.1886C21.2889 44.8371 25.1936 45.3284 28.9607 44.59C28.9726 44.0603 29.0135 43.5318 29.0832 43.0066C26.6883 43.5418 24.2037 43.5318 21.8133 42.9772C19.4228 42.4226 17.1876 41.3377 15.273 39.8027C13.3584 38.2678 11.8134 36.322 10.7523 34.1093C9.69115 31.8966 9.14106 29.4737 9.1427 27.0197Z" fill="#1A1917"/>
<path d="M42.2855 48.3524H39.5095C40.6482 47.1946 41.5718 45.8435 42.2372 44.3621C42.4688 43.7863 42.547 43.1603 42.4644 42.5452C42.3817 41.9301 42.1409 41.347 41.7654 40.8528C41.4892 40.509 41.1224 40.2493 40.7065 40.1029C40.2905 39.9566 39.8419 39.9293 39.4113 40.0243C38.6684 40.2129 38.0054 40.6345 37.5195 41.2272C37.4531 41.3022 37.4022 41.3896 37.3696 41.4843C37.3371 41.579 37.3235 41.6793 37.3297 41.7792C37.3359 41.8792 37.3618 41.977 37.4058 42.0669C37.4498 42.1569 37.5112 42.2373 37.5863 42.3035C37.6615 42.3698 37.7489 42.4205 37.8437 42.4529C37.9385 42.4853 38.0388 42.4986 38.1387 42.4922C38.2387 42.4858 38.3364 42.4598 38.4263 42.4155C38.5161 42.3713 38.5964 42.3098 38.6625 42.2345C39.1199 41.7157 40.0184 41.1299 40.5902 41.8228C40.7908 42.104 40.9175 42.4311 40.9588 42.774C41 43.1169 40.9545 43.4647 40.8264 43.7854C40.0612 45.6582 38.4596 47.2774 37.1724 48.5784C37.0667 48.6853 36.9949 48.8211 36.9662 48.9686C36.9375 49.1162 36.953 49.269 37.0109 49.4078C37.0688 49.5465 37.1665 49.665 37.2916 49.7484C37.4168 49.8317 37.5637 49.8762 37.7141 49.8762H42.2855C42.4876 49.8762 42.6814 49.7959 42.8243 49.6531C42.9672 49.5102 43.0474 49.3164 43.0474 49.1143C43.0474 48.9122 42.9672 48.7184 42.8243 48.5756C42.6814 48.4327 42.4876 48.3524 42.2855 48.3524Z" fill="#E53935"/>
<path d="M49.1427 39.9707C48.9407 39.9707 48.7469 40.051 48.604 40.1939C48.4611 40.3368 48.3808 40.5305 48.3808 40.7326V43.7802H46.0951V40.7326C46.0951 40.5305 46.0148 40.3367 45.8719 40.1939C45.7291 40.051 45.5353 39.9707 45.3332 39.9707C45.1311 39.9707 44.9373 40.051 44.7944 40.1939C44.6516 40.3367 44.5713 40.5305 44.5713 40.7326V44.5421C44.5713 44.7442 44.6516 44.938 44.7945 45.0809C44.9373 45.2238 45.1311 45.304 45.3332 45.304H48.3808V49.1136C48.3808 49.3156 48.4611 49.5094 48.604 49.6523C48.7469 49.7952 48.9406 49.8755 49.1427 49.8755C49.3448 49.8755 49.5386 49.7952 49.6815 49.6523C49.8244 49.5094 49.9046 49.3156 49.9046 49.1136V40.7326C49.9046 40.5305 49.8243 40.3368 49.6815 40.1939C49.5386 40.051 49.3448 39.9707 49.1427 39.9707Z" fill="#E53935"/>
<path d="M0.761905 57.8754C1.18269 57.8754 1.52381 57.5343 1.52381 57.1135C1.52381 56.6927 1.18269 56.3516 0.761905 56.3516C0.341116 56.3516 0 56.6927 0 57.1135C0 57.5343 0.341116 57.8754 0.761905 57.8754Z" fill="#1A1917"/>
<path d="M4.19041 56.3516H3.04755C2.84548 56.3516 2.65169 56.4318 2.5088 56.5747C2.36592 56.7176 2.28564 56.9114 2.28564 57.1135C2.28564 57.3155 2.36592 57.5093 2.5088 57.6522C2.65169 57.7951 2.84548 57.8754 3.04755 57.8754H4.19041C4.39248 57.8754 4.58627 57.7951 4.72915 57.6522C4.87204 57.5093 4.95231 57.3155 4.95231 57.1135C4.95231 56.9114 4.87204 56.7176 4.72915 56.5747C4.58627 56.4318 4.39248 56.3516 4.19041 56.3516Z" fill="#1A1917"/>
<path d="M60.9526 56.3516H59.8098C59.6077 56.3516 59.4139 56.4318 59.271 56.5747C59.1281 56.7176 59.0479 56.9114 59.0479 57.1135C59.0479 57.3155 59.1281 57.5093 59.271 57.6522C59.4139 57.7951 59.6077 57.8754 59.8098 57.8754H60.9526C61.1547 57.8754 61.3485 57.7951 61.4914 57.6522C61.6342 57.5093 61.7145 57.3155 61.7145 57.1135C61.7145 56.9114 61.6342 56.7176 61.4914 56.5747C61.3485 56.4318 61.1547 56.3516 60.9526 56.3516Z" fill="#1A1917"/>
<path d="M63.238 57.8754C63.6588 57.8754 63.9999 57.5343 63.9999 57.1135C63.9999 56.6927 63.6588 56.3516 63.238 56.3516C62.8172 56.3516 62.4761 56.6927 62.4761 57.1135C62.4761 57.5343 62.8172 57.8754 63.238 57.8754Z" fill="#1A1917"/>
<path d="M45.0112 59.4004H41.8464C41.6548 59.4157 41.4761 59.5027 41.3458 59.6439C41.2154 59.785 41.1431 59.9701 41.1431 60.1623C41.1431 60.3544 41.2154 60.5395 41.3458 60.6807C41.4761 60.8219 41.6548 60.9089 41.8464 60.9242H45.0112C45.2028 60.9089 45.3815 60.8219 45.5118 60.6807C45.6421 60.5395 45.7145 60.3544 45.7145 60.1623C45.7145 59.9701 45.6421 59.785 45.5118 59.6439C45.3815 59.5027 45.2028 59.4157 45.0112 59.4004Z" fill="#E53935"/>
<path d="M22.1538 59.4004H18.9889C18.7974 59.4157 18.6187 59.5027 18.4883 59.6439C18.358 59.785 18.2856 59.9701 18.2856 60.1623C18.2856 60.3544 18.358 60.5395 18.4883 60.6807C18.6187 60.8219 18.7974 60.9089 18.9889 60.9242H22.1538C22.3453 60.9089 22.5241 60.8219 22.6544 60.6807C22.7847 60.5395 22.8571 60.3544 22.8571 60.1623C22.8571 59.9701 22.7847 59.785 22.6544 59.6439C22.5241 59.5027 22.3453 59.4157 22.1538 59.4004Z" fill="#E53935"/>
<path d="M39.6191 59.4004H24.381C24.179 59.4004 23.9852 59.4807 23.8423 59.6235C23.6994 59.7664 23.6191 59.9602 23.6191 60.1623C23.6191 60.3644 23.6994 60.5582 23.8423 60.701C23.9852 60.8439 24.179 60.9242 24.381 60.9242H30.4534V61.6861H27.4287C27.2266 61.6861 27.0328 61.7664 26.8899 61.9093C26.747 62.0521 26.6668 62.2459 26.6668 62.448C26.6668 62.6501 26.747 62.8439 26.8899 62.9868C27.0328 63.1296 27.2266 63.2099 27.4287 63.2099H36.9525C37.1545 63.2099 37.3483 63.1296 37.4912 62.9868C37.6341 62.8439 37.7144 62.6501 37.7144 62.448C37.7144 62.2459 37.6341 62.0521 37.4912 61.9093C37.3483 61.7664 37.1545 61.6861 36.9525 61.6861H33.5468V60.9242H39.6191C39.8212 60.9242 40.015 60.8439 40.1579 60.701C40.3008 60.5582 40.381 60.3644 40.381 60.1623C40.381 59.9602 40.3008 59.7664 40.1579 59.6235C40.015 59.4807 39.8212 59.4004 39.6191 59.4004Z" fill="#E53935"/>
<path d="M57.4176 56.3519H49.5159C52.0662 54.994 54.0893 52.8223 55.2634 50.1822C56.4374 47.5422 56.695 44.5854 55.9952 41.7821C55.2954 38.9788 53.6784 36.4899 51.4013 34.7114C49.1242 32.9329 46.3178 31.9668 43.4285 31.9668C40.5392 31.9668 37.7328 32.9329 35.4557 34.7114C33.1786 36.4899 31.5616 38.9788 30.8618 41.7821C30.162 44.5854 30.4196 47.5422 31.5936 50.1822C32.7677 52.8223 34.7908 54.994 37.3411 56.3519H6.58229C6.4739 56.3378 6.36373 56.3469 6.25915 56.3787C6.15457 56.4105 6.05798 56.4643 5.97583 56.5364C5.89368 56.6085 5.82786 56.6973 5.78277 56.7969C5.73768 56.8965 5.71436 57.0045 5.71436 57.1138C5.71436 57.2231 5.73768 57.3312 5.78277 57.4308C5.82786 57.5304 5.89368 57.6192 5.97583 57.6913C6.05798 57.7634 6.15457 57.8172 6.25915 57.849C6.36373 57.8808 6.4739 57.8899 6.58229 57.8757H57.4176C57.526 57.8899 57.6361 57.8808 57.7407 57.849C57.8453 57.8172 57.9419 57.7634 58.024 57.6913C58.1062 57.6192 58.172 57.5304 58.2171 57.4308C58.2622 57.3312 58.2855 57.2231 58.2855 57.1138C58.2855 57.0045 58.2622 56.8965 58.2171 56.7969C58.172 56.6973 58.1062 56.6085 58.024 56.5364C57.9419 56.4643 57.8453 56.4105 57.7407 56.3787C57.6361 56.3469 57.526 56.3378 57.4176 56.3519ZM31.9999 44.9234C31.9999 42.663 32.6702 40.4534 33.926 38.574C35.1818 36.6946 36.9667 35.2297 39.055 34.3647C41.1433 33.4997 43.4412 33.2734 45.6581 33.7144C47.875 34.1554 49.9114 35.2438 51.5097 36.8421C53.108 38.4404 54.1965 40.4768 54.6375 42.6938C55.0784 44.9107 54.8521 47.2086 53.9871 49.2969C53.1221 51.3852 51.6573 53.1701 49.7779 54.4259C47.8985 55.6817 45.6889 56.3519 43.4285 56.3519C40.3985 56.3485 37.4936 55.1433 35.3511 53.0008C33.2085 50.8583 32.0034 47.9533 31.9999 44.9234Z" fill="#1A1917"/>
</g>
<defs>
<clipPath id="clip0_640_2720">
<rect width="64" height="64" fill="white"/>
</clipPath>
</defs>
</svg>
