<svg width="64" height="64" viewBox="0 0 64 64" fill="none" xmlns="http://www.w3.org/2000/svg">
<g clip-path="url(#clip0_640_2606)">
<path d="M14.8331 40.8447C14.7429 40.8878 14.6622 40.9482 14.5955 41.0226C14.5287 41.097 14.4774 41.1838 14.4443 41.2781C14.4112 41.3724 14.397 41.4722 14.4025 41.572C14.4081 41.6718 14.4333 41.7694 14.4767 41.8594C14.5915 42.0975 14.7111 42.3325 14.8355 42.5646C14.8884 42.6638 14.9626 42.7501 15.0528 42.8172C15.143 42.8843 15.247 42.9306 15.3572 42.9527C15.4675 42.9748 15.5813 42.9722 15.6904 42.945C15.7995 42.9179 15.9013 42.8669 15.9883 42.7957V41.471C15.9426 41.3805 15.8945 41.2915 15.8504 41.2C15.7623 41.0183 15.6058 40.8788 15.4151 40.8122C15.2244 40.7456 15.0152 40.7573 14.8331 40.8447Z" fill="#E53935"/>
<path d="M14.8011 38.4806C14.733 38.2481 14.6694 38.0137 14.6104 37.7773C14.5612 37.5818 14.4366 37.4138 14.2637 37.31C14.0909 37.2062 13.884 37.1751 13.6883 37.2235C13.4926 37.2719 13.3241 37.3959 13.2197 37.5683C13.1152 37.7408 13.0833 37.9475 13.131 38.1434C13.1948 38.4007 13.264 38.6557 13.3385 38.9083C13.3955 39.1019 13.5271 39.2649 13.7042 39.3616C13.8813 39.4583 14.0895 39.4808 14.2832 39.4242C14.4769 39.3675 14.6402 39.2364 14.7373 39.0595C14.8344 38.8826 14.8573 38.6744 14.8011 38.4806Z" fill="#1A1917"/>
<path d="M13.4405 35.7218C13.5401 35.714 13.6372 35.6866 13.7263 35.6412C13.8153 35.5958 13.8945 35.5333 13.9594 35.4572C14.0243 35.3812 14.0735 35.2931 14.1044 35.198C14.1352 35.103 14.147 35.0027 14.139 34.9031C14.1195 34.6617 14.1048 34.419 14.0951 34.175C14.0865 33.9734 13.9982 33.7834 13.8498 33.6467C13.7013 33.5101 13.5047 33.4379 13.3031 33.4459C13.1015 33.454 12.9113 33.5417 12.7742 33.6897C12.6371 33.8378 12.5643 34.0342 12.5718 34.2359C12.5826 34.5006 12.5985 34.7636 12.6194 35.0249C12.635 35.2155 12.7217 35.3932 12.8623 35.5228C13.0029 35.6524 13.1871 35.7244 13.3783 35.7244C13.399 35.7244 13.4196 35.7237 13.4405 35.7218Z" fill="#E53935"/>
<path d="M49.1529 26.0451C49.0596 26.0808 48.9742 26.1346 48.9017 26.2033C48.8292 26.2721 48.7709 26.3545 48.7303 26.4457C48.6896 26.537 48.6674 26.6354 48.6648 26.7353C48.6622 26.8352 48.6794 26.9347 48.7153 27.0279C48.8025 27.2543 48.8854 27.4829 48.9639 27.7137C49.0288 27.9049 49.167 28.0625 49.3481 28.1519C49.5291 28.2412 49.7382 28.2551 49.9295 28.1904C50.1207 28.1257 50.2785 27.9878 50.3681 27.8068C50.4578 27.6259 50.4719 27.4168 50.4075 27.2255C50.3225 26.9754 50.2327 26.7275 50.1381 26.4817C50.0653 26.2933 49.9206 26.1414 49.7359 26.0595C49.5512 25.9777 49.3415 25.9725 49.1529 26.0451Z" fill="#E53935"/>
<path d="M49.6689 30.5396C49.7079 30.7785 49.7423 31.019 49.7719 31.261C49.7946 31.4456 49.8839 31.6154 50.0231 31.7386C50.1623 31.8619 50.3417 31.9299 50.5276 31.93C50.5586 31.93 50.5896 31.9282 50.6203 31.9244C50.7196 31.9125 50.8155 31.8812 50.9026 31.8322C50.9898 31.7833 51.0664 31.7176 51.1282 31.639C51.1899 31.5604 51.2356 31.4704 51.2625 31.3741C51.2895 31.2778 51.2972 31.1772 51.2852 31.078C51.2532 30.8151 51.216 30.5539 51.1735 30.2945C51.1407 30.0953 51.0302 29.9173 50.8662 29.7994C50.7022 29.6816 50.4982 29.6337 50.2989 29.6662C50.0996 29.6986 49.9214 29.8088 49.8032 29.9726C49.6851 30.1363 49.6368 30.3402 49.6689 30.5396Z" fill="#1A1917"/>
<path d="M14.0552 28.1897C14.2465 28.2547 14.4557 28.241 14.6369 28.1517C14.8182 28.0624 14.9565 27.9048 15.0215 27.7135C15.1 27.4824 15.1831 27.2533 15.2707 27.0264C15.3428 26.8379 15.3371 26.6284 15.255 26.444C15.1728 26.2596 15.0209 26.1154 14.8324 26.043C14.644 25.9705 14.4346 25.9758 14.25 26.0576C14.0655 26.1395 13.921 26.2912 13.8482 26.4795C13.7531 26.7256 13.663 26.9744 13.5779 27.2256C13.5458 27.3202 13.5326 27.4203 13.5393 27.52C13.5459 27.6197 13.5721 27.7171 13.6165 27.8067C13.6608 27.8962 13.7224 27.9762 13.7977 28.0419C13.8729 28.1076 13.9604 28.1579 14.0552 28.1897Z" fill="#E53935"/>
<path d="M13.3642 31.9244C13.3951 31.9281 13.4262 31.9299 13.4574 31.93C13.6432 31.9299 13.8226 31.8619 13.9618 31.7388C14.1009 31.6157 14.1903 31.446 14.2131 31.2616C14.2427 31.0193 14.2771 30.7786 14.3164 30.5396C14.3485 30.3402 14.3001 30.1363 14.182 29.9726C14.0639 29.8088 13.8856 29.6986 13.6863 29.6662C13.4871 29.6337 13.283 29.6816 13.1191 29.7994C12.9551 29.9173 12.8445 30.0953 12.8117 30.2945C12.7695 30.5537 12.7322 30.8147 12.6999 31.0774C12.6878 31.1767 12.6955 31.2773 12.7224 31.3736C12.7492 31.4699 12.7948 31.5599 12.8565 31.6386C12.9182 31.7172 12.9948 31.7829 13.0819 31.832C13.169 31.881 13.2649 31.9124 13.3642 31.9244Z" fill="#1A1917"/>
<path d="M15.9883 22.8877C15.9334 22.8462 15.882 22.8022 15.8283 22.7598C15.7548 22.8134 15.6916 22.88 15.6417 22.9561C15.4986 23.1778 15.3599 23.4026 15.2256 23.6304C15.1448 23.7522 15.102 23.8953 15.1025 24.0414C15.1031 24.1876 15.147 24.3303 15.2286 24.4515C15.3103 24.5727 15.426 24.667 15.5613 24.7224C15.6965 24.7778 15.8451 24.7919 15.9884 24.7628L15.9883 22.8877Z" fill="#1A1917"/>
<path d="M48.4883 42.2167C48.6702 42.3044 48.8795 42.3164 49.0703 42.2501C49.2611 42.1837 49.4177 42.0445 49.506 41.8628C49.6212 41.6248 49.7315 41.3842 49.837 41.141C49.9167 40.9555 49.9196 40.7459 49.8449 40.5583C49.7702 40.3707 49.6242 40.2205 49.4388 40.1405C49.2534 40.0605 49.0438 40.0573 48.8561 40.1317C48.6684 40.2061 48.5179 40.352 48.4377 40.5372C48.3407 40.7611 48.2393 40.9824 48.1334 41.2011C48.0899 41.2911 48.0646 41.3887 48.0589 41.4885C48.0531 41.5883 48.0672 41.6882 48.1001 41.7825C48.1331 41.8769 48.1844 41.9638 48.251 42.0383C48.3176 42.1128 48.3982 42.1734 48.4883 42.2167Z" fill="#E53935"/>
<path d="M50.6664 32.6836C50.4645 32.6834 50.2708 32.7634 50.1279 32.906C49.9849 33.0486 49.9045 33.2421 49.9042 33.444C49.9042 33.6885 49.8994 33.9319 49.8897 34.174C49.8859 34.2739 49.9017 34.3736 49.9364 34.4673C49.9711 34.5611 50.0239 34.6471 50.0918 34.7204C50.1597 34.7938 50.2414 34.853 50.3322 34.8948C50.423 34.9365 50.5212 34.96 50.621 34.9638C50.6315 34.9642 50.6417 34.9646 50.6519 34.9646C50.8485 34.9646 51.0376 34.8886 51.1794 34.7525C51.3213 34.6164 51.405 34.4306 51.413 34.2342C51.4234 33.972 51.4286 33.7087 51.4286 33.444C51.4284 33.2421 51.348 33.0486 51.205 32.906C51.0621 32.7634 50.8684 32.6834 50.6664 32.6836Z" fill="#E53935"/>
<path d="M50.4366 36.4749C50.3387 36.4546 50.2377 36.4537 50.1394 36.4724C50.0411 36.4911 49.9475 36.529 49.8638 36.584C49.7802 36.6389 49.7082 36.7098 49.6521 36.7926C49.5959 36.8754 49.5566 36.9684 49.5364 37.0664C49.4871 37.3052 49.4331 37.5422 49.3745 37.7775C49.3504 37.8745 49.3456 37.9753 49.3606 38.0742C49.3755 38.173 49.4097 38.2679 49.4613 38.3535C49.513 38.4391 49.5809 38.5137 49.6614 38.573C49.7419 38.6323 49.8333 38.6751 49.9303 38.6991C50.1263 38.7475 50.3335 38.7163 50.5066 38.6124C50.6797 38.5084 50.8045 38.3401 50.8538 38.1443C50.9173 37.8893 50.9759 37.6322 51.0295 37.3731C51.0496 37.2752 51.0503 37.1743 51.0313 37.0762C51.0124 36.978 50.9743 36.8846 50.9193 36.8011C50.8642 36.7177 50.7933 36.646 50.7104 36.59C50.6276 36.534 50.5346 36.4949 50.4366 36.4749Z" fill="#1A1917"/>
<path d="M41.9009 23.1777C41.699 23.1775 41.5052 23.2575 41.3623 23.4001C41.2194 23.5427 41.1389 23.7363 41.1387 23.9382V44.4701C41.1393 44.6719 41.2199 44.8651 41.3628 45.0075C41.5056 45.15 41.6991 45.2299 41.9009 45.2299C42.1026 45.2299 42.2961 45.15 42.439 45.0075C42.5819 44.8651 42.6624 44.6719 42.6631 44.4701V23.9382C42.6628 23.7363 42.5824 23.5427 42.4395 23.4001C42.2965 23.2575 42.1028 23.1775 41.9009 23.1777Z" fill="#E53935"/>
<path d="M46.0932 18.512V15.6773C46.0932 15.5773 46.0735 15.4784 46.0352 15.3862C45.9968 15.2939 45.9407 15.2101 45.8699 15.1396L43.8608 13.1349C43.7177 12.9922 43.5239 12.9121 43.3219 12.9121H40.4803C40.2783 12.9121 40.0845 12.9922 39.9414 13.1349L37.9323 15.1396C37.8615 15.2101 37.8053 15.2939 37.767 15.3862C37.7287 15.4784 37.709 15.5773 37.709 15.6773V18.512C37.709 18.6119 37.7288 18.7108 37.7671 18.8031C37.8054 18.8953 37.8615 18.9791 37.9323 19.0497L39.9414 21.0542C40.0845 21.1969 40.2783 21.277 40.4803 21.277H43.3219C43.5239 21.277 43.7177 21.1969 43.8608 21.0542L45.8699 19.0497C45.9406 18.9791 45.9968 18.8953 46.0351 18.8031C46.0734 18.7108 46.0932 18.6119 46.0932 18.512ZM44.5688 18.197L43.0061 19.7561H40.7961L39.2334 18.197V15.9923L40.7961 14.433H43.0061L44.5688 15.9923V18.197Z" fill="#E53935"/>
<path d="M22.084 43.7104C22.2859 43.7106 22.4796 43.6306 22.6226 43.488C22.7655 43.3454 22.8459 43.1519 22.8462 42.95V22.418C22.8455 22.2163 22.765 22.023 22.6221 21.8806C22.4792 21.7382 22.2857 21.6582 22.084 21.6582C21.8822 21.6582 21.6887 21.7382 21.5459 21.8806C21.403 22.023 21.3224 22.2163 21.3218 22.418V42.9499C21.322 43.1519 21.4025 43.3454 21.5454 43.488C21.6883 43.6306 21.8821 43.7106 22.084 43.7104Z" fill="#E53935"/>
<path d="M31.9934 14.0527C31.8651 14.054 31.728 14.0538 31.5955 14.0566C31.5431 14.0577 31.491 14.0642 31.4399 14.076C31.5321 14.5712 31.5858 15.0728 31.6009 15.5764C31.6042 15.5764 31.6074 15.5773 31.6108 15.5773L31.6268 15.5771C31.7405 15.5749 31.8543 15.5736 31.9692 15.5736C32.1028 15.5729 32.2286 15.5749 32.3575 15.5773L32.3735 15.5775C32.4054 15.5764 32.4372 15.5732 32.4687 15.5681C32.5369 15.0975 32.6422 14.633 32.7834 14.179C32.6657 14.1025 32.5291 14.0601 32.3888 14.0568C32.2568 14.054 32.1247 14.0527 31.9934 14.0527Z" fill="#1A1917"/>
<path d="M48.7621 23.6348C48.7264 23.5741 48.6877 23.5154 48.6513 23.4551C48.4427 23.6505 48.2266 23.8401 47.9966 24.0176V24.7667C48.1383 24.7893 48.2835 24.7709 48.4151 24.7139C48.5467 24.6568 48.6593 24.5633 48.7397 24.4445C48.8201 24.3257 48.8649 24.1864 48.8689 24.0429C48.8728 23.8995 48.8358 23.7579 48.7621 23.6348Z" fill="#1A1917"/>
<path d="M0.761905 57.8578C1.18269 57.8578 1.52381 57.5167 1.52381 57.0959C1.52381 56.6751 1.18269 56.334 0.761905 56.334C0.341116 56.334 0 56.6751 0 57.0959C0 57.5167 0.341116 57.8578 0.761905 57.8578Z" fill="#1A1917"/>
<path d="M4.19041 56.334H3.04755C2.84548 56.334 2.65169 56.4143 2.5088 56.5571C2.36592 56.7 2.28564 56.8938 2.28564 57.0959C2.28564 57.298 2.36592 57.4918 2.5088 57.6346C2.65169 57.7775 2.84548 57.8578 3.04755 57.8578H4.19041C4.39248 57.8578 4.58627 57.7775 4.72915 57.6346C4.87204 57.4918 4.95231 57.298 4.95231 57.0959C4.95231 56.8938 4.87204 56.7 4.72915 56.5571C4.58627 56.4143 4.39248 56.334 4.19041 56.334Z" fill="#1A1917"/>
<path d="M60.9526 56.334H59.8098C59.6077 56.334 59.4139 56.4143 59.271 56.5571C59.1281 56.7 59.0479 56.8938 59.0479 57.0959C59.0479 57.298 59.1281 57.4918 59.271 57.6346C59.4139 57.7775 59.6077 57.8578 59.8098 57.8578H60.9526C61.1547 57.8578 61.3485 57.7775 61.4914 57.6346C61.6342 57.4918 61.7145 57.298 61.7145 57.0959C61.7145 56.8938 61.6342 56.7 61.4914 56.5571C61.3485 56.4143 61.1547 56.334 60.9526 56.334Z" fill="#1A1917"/>
<path d="M63.238 57.8578C63.6588 57.8578 63.9999 57.5167 63.9999 57.0959C63.9999 56.6751 63.6588 56.334 63.238 56.334C62.8172 56.334 62.4761 56.6751 62.4761 57.0959C62.4761 57.5167 62.8172 57.8578 63.238 57.8578Z" fill="#1A1917"/>
<path d="M45.0112 59.3809H41.8464C41.6548 59.3962 41.4761 59.4831 41.3458 59.6243C41.2154 59.7655 41.1431 59.9506 41.1431 60.1428C41.1431 60.3349 41.2154 60.52 41.3458 60.6612C41.4761 60.8024 41.6548 60.8893 41.8464 60.9047H45.0112C45.2028 60.8893 45.3815 60.8024 45.5118 60.6612C45.6421 60.52 45.7145 60.3349 45.7145 60.1428C45.7145 59.9506 45.6421 59.7655 45.5118 59.6243C45.3815 59.4831 45.2028 59.3962 45.0112 59.3809Z" fill="#E53935"/>
<path d="M22.1538 59.3809H18.9889C18.7974 59.3962 18.6187 59.4831 18.4883 59.6243C18.358 59.7655 18.2856 59.9506 18.2856 60.1428C18.2856 60.3349 18.358 60.52 18.4883 60.6612C18.6187 60.8024 18.7974 60.8893 18.9889 60.9047H22.1538C22.3453 60.8893 22.5241 60.8024 22.6544 60.6612C22.7847 60.52 22.8571 60.3349 22.8571 60.1428C22.8571 59.9506 22.7847 59.7655 22.6544 59.6243C22.5241 59.4831 22.3453 59.3962 22.1538 59.3809Z" fill="#E53935"/>
<path d="M39.6191 59.3809H24.381C24.179 59.3809 23.9852 59.4611 23.8423 59.604C23.6994 59.7469 23.6191 59.9407 23.6191 60.1428C23.6191 60.3448 23.6994 60.5386 23.8423 60.6815C23.9852 60.8244 24.179 60.9047 24.381 60.9047H30.4534V61.6666H27.4287C27.2266 61.6666 27.0328 61.7468 26.8899 61.8897C26.747 62.0326 26.6668 62.2264 26.6668 62.4285C26.6668 62.6305 26.747 62.8243 26.8899 62.9672C27.0328 63.1101 27.2266 63.1904 27.4287 63.1904H36.9525C37.1545 63.1904 37.3483 63.1101 37.4912 62.9672C37.6341 62.8243 37.7144 62.6305 37.7144 62.4285C37.7144 62.2264 37.6341 62.0326 37.4912 61.8897C37.3483 61.7468 37.1545 61.6666 36.9525 61.6666H33.5468V60.9047H39.6191C39.8212 60.9047 40.015 60.8244 40.1579 60.6815C40.3008 60.5386 40.381 60.3448 40.381 60.1428C40.381 59.9407 40.3008 59.7469 40.1579 59.604C40.015 59.4611 39.8212 59.3809 39.6191 59.3809Z" fill="#E53935"/>
<path d="M31.6114 52.0874C31.6211 51.9154 31.5714 51.7453 31.4707 51.6055C31.4041 51.9801 31.3139 52.3502 31.2007 52.7136C31.3176 52.6538 31.4169 52.5646 31.4889 52.4548C31.5609 52.345 31.6031 52.2184 31.6114 52.0874Z" fill="#1A1917"/>
<path d="M24.0434 53.7534L26.0525 51.7487C26.1233 51.6782 26.1795 51.5944 26.2178 51.5022C26.2561 51.4099 26.2758 51.311 26.2758 51.2111V48.3761C26.2758 48.2762 26.2561 48.1773 26.2177 48.085C26.1794 47.9928 26.1233 47.909 26.0525 47.8384L24.0434 45.8341C23.9003 45.6915 23.7065 45.6113 23.5045 45.6113H20.663C20.4609 45.6113 20.2671 45.6915 20.1241 45.8341L18.1149 47.8384C18.0442 47.909 17.988 47.9928 17.9497 48.085C17.9114 48.1773 17.8916 48.2762 17.8916 48.3761V51.2111C17.8916 51.311 17.9113 51.4099 17.9496 51.5022C17.988 51.5944 18.0441 51.6782 18.1149 51.7487L20.1241 53.7534C20.2671 53.8961 20.4609 53.9762 20.663 53.9762H23.5045C23.7065 53.9762 23.9003 53.8961 24.0434 53.7534ZM20.9788 52.4553L19.416 50.8962V48.691L20.9788 47.1322H23.1887L24.7514 48.691V50.8962L23.1887 52.4553H20.9788Z" fill="#E53935"/>
<path d="M57.4176 56.3338H47.8207C49.1803 54.8851 49.926 52.9661 49.9013 50.9794C49.9231 49.7388 49.6177 48.5143 49.0157 47.4293C48.4137 46.3442 47.5364 45.437 46.4721 44.799V23.2296C47.6351 22.4961 48.57 21.4523 49.1715 20.216C49.773 18.9796 50.0171 17.5998 49.8764 16.2321C49.7049 14.4147 48.905 12.714 47.6145 11.423C46.3241 10.1319 44.6237 9.33129 42.8065 9.15899C41.6668 9.0327 40.5133 9.1467 39.4203 9.49362C38.3274 9.84054 37.3194 10.4127 36.4612 11.1732C35.6595 11.8869 35.017 12.7614 34.5754 13.7397C34.1337 14.718 33.9029 15.7782 33.8978 16.8516C33.8706 18.1202 34.1721 19.3743 34.7731 20.4919C35.374 21.6096 36.2539 22.5527 37.3272 23.2296V44.799C36.263 45.437 35.3856 46.3442 34.7836 47.4292C34.1815 48.5143 33.876 49.7388 33.8978 50.9794C33.8734 52.9664 34.6199 54.8856 35.9806 56.3338H26.6853C27.8671 55.5061 28.7992 54.3701 29.3802 53.0494C29.9801 51.5803 30.1362 49.9675 29.8292 48.4106C29.5221 46.8537 28.7653 45.421 27.6525 44.2897C27.2898 43.9971 26.9923 43.6318 26.7792 43.2173C26.6747 42.8915 26.632 42.5492 26.6531 42.2078C26.6543 35.7626 26.6554 29.3174 26.6566 22.8722C26.6433 22.6731 26.6705 22.4733 26.7366 22.285C26.8657 22.0527 27.0493 21.8552 27.2715 21.7094C28.1309 21.0017 28.8283 20.1178 29.3167 19.1174C29.805 18.1169 30.0729 17.0233 30.1022 15.9104C30.1054 15.744 30.1029 15.5776 30.0944 15.4113C30.0226 14.2154 29.6734 13.0526 29.0744 12.015C28.4753 10.9775 27.6429 10.0936 26.6431 9.43349C25.6913 8.816 25.0818 9.36365 25.1017 10.4125C25.1283 11.8098 25.1548 13.2071 25.1813 14.6044C25.1985 15.5052 25.1825 16.4998 24.581 17.1715C23.8387 18.0003 22.5547 17.9741 21.4447 17.883C20.8266 17.8323 20.1631 17.7633 19.6942 17.3582C19.051 16.8025 19.0094 15.8384 19.0169 14.9893C19.0302 13.4958 19.0435 12.0024 19.0568 10.5088C19.0616 9.96951 18.8722 9.03475 18.1581 9.09883C17.5163 9.15645 16.6389 10.0974 16.2186 10.5345C15.4821 11.2852 14.9108 12.1818 14.5416 13.1666C14.1724 14.1514 14.0134 15.2026 14.0748 16.2525C14.1362 17.3024 14.4167 18.3279 14.8982 19.2629C15.3797 20.1979 16.0516 21.0218 16.8706 21.6816C17.1113 21.839 17.3084 22.0545 17.4437 22.3083C17.5048 22.4936 17.5298 22.6889 17.5174 22.8837C17.5147 29.4626 17.512 36.0416 17.5094 42.6206C17.5273 42.8728 17.4903 43.1259 17.4007 43.3624C17.264 43.5987 17.0795 43.804 16.8591 43.9651C15.68 45.0273 14.8382 46.4118 14.4377 47.9474C14.0373 49.483 14.0957 51.1023 14.6059 52.605C15.1634 54.1085 16.1625 55.4083 17.472 56.3338H6.58229C6.4739 56.3197 6.36373 56.3288 6.25915 56.3606C6.15457 56.3924 6.05798 56.4462 5.97583 56.5183C5.89368 56.5904 5.82786 56.6792 5.78277 56.7788C5.73768 56.8784 5.71436 56.9864 5.71436 57.0957C5.71436 57.205 5.73768 57.3131 5.78277 57.4127C5.82786 57.5122 5.89368 57.6011 5.97583 57.6732C6.05798 57.7453 6.15457 57.799 6.25915 57.8309C6.36373 57.8627 6.4739 57.8718 6.58229 57.8576H57.4176C57.526 57.8718 57.6361 57.8627 57.7407 57.8309C57.8453 57.799 57.9419 57.7453 58.024 57.6732C58.1062 57.6011 58.172 57.5122 58.2171 57.4127C58.2622 57.3131 58.2855 57.205 58.2855 57.0957C58.2855 56.9864 58.2622 56.8784 58.2171 56.7788C58.172 56.6792 58.1062 56.5904 58.024 56.5183C57.9419 56.4462 57.8453 56.3924 57.7407 56.3606C57.6361 56.3288 57.526 56.3196 57.4176 56.3338ZM15.6279 50.535C15.5068 49.3813 15.7286 48.2175 16.2657 47.1893C16.8027 46.1611 17.6311 45.3142 18.6471 44.7544C18.7652 44.6885 18.8637 44.5923 18.9322 44.4756C19.0007 44.359 19.0369 44.2262 19.0369 44.0909V21.6578C19.0369 21.5225 19.0007 21.3897 18.9322 21.2731C18.8637 21.1564 18.7653 21.0602 18.6471 20.9943C17.7136 20.5185 16.9332 19.789 16.3956 18.8897C15.858 17.9904 15.5849 16.9577 15.6078 15.9101C15.5939 15.0616 15.7558 14.2194 16.0832 13.4365C16.4107 12.6536 16.8966 11.947 17.5105 11.361V15.9545C17.5105 17.6859 19.1787 19.3852 20.8784 19.3852H23.2916C24.99 19.3852 26.6569 17.6859 26.6569 15.9545V11.3607C27.2714 11.9463 27.758 12.6529 28.0859 13.4359C28.4139 14.2189 28.5761 15.0613 28.5624 15.9101C28.5853 16.9577 28.3122 17.9904 27.7746 18.8898C27.2369 19.7891 26.4565 20.5185 25.5229 20.9943C25.4048 21.0602 25.3063 21.1564 25.2378 21.2731C25.1693 21.3897 25.1331 21.5225 25.1331 21.6578V44.0909C25.1331 44.2262 25.1693 44.359 25.2378 44.4756C25.3064 44.5923 25.4048 44.6885 25.5229 44.7544C26.4644 45.2728 27.2455 46.0395 27.7815 46.9711C28.3174 47.9026 28.5875 48.9634 28.5624 50.0378C28.5627 50.8985 28.3793 51.7494 28.0244 52.5335C27.6695 53.3176 27.1513 54.017 26.5045 54.5848C25.8057 55.203 24.9851 55.6677 24.0956 55.9491C23.2061 56.2304 22.2674 56.3221 21.3403 56.2182C18.3194 55.8956 15.8636 53.4524 15.6279 50.535ZM38.4618 45.8951C38.5799 45.8292 38.6783 45.7329 38.7469 45.6163C38.8154 45.4997 38.8515 45.3668 38.8516 45.2316V22.7985C38.8516 22.6632 38.8154 22.5304 38.7469 22.4137C38.6784 22.2971 38.5799 22.2009 38.4618 22.135C37.5203 21.6166 36.7391 20.8499 36.2032 19.9183C35.6673 18.9868 35.3971 17.926 35.4223 16.8516C35.422 15.9909 35.6054 15.14 35.9603 14.3558C36.3152 13.5716 36.8334 12.8722 37.4802 12.3043C38.7021 11.2204 40.2808 10.6251 41.9142 10.6323C42.1581 10.6324 42.4019 10.6454 42.6444 10.6713C45.6653 10.9936 48.121 13.4367 48.3568 16.3542C48.4779 17.5079 48.2561 18.6717 47.719 19.6999C47.182 20.7282 46.3536 21.5752 45.3376 22.135C45.2194 22.2008 45.121 22.2971 45.0525 22.4137C44.9839 22.5304 44.9478 22.6632 44.9478 22.7985V45.2316C44.9478 45.3668 44.984 45.4997 45.0525 45.6163C45.121 45.7329 45.2195 45.8292 45.3376 45.8951C46.2711 46.3709 47.0515 47.1004 47.5891 47.9998C48.1268 48.8991 48.3998 49.9319 48.3769 50.9794C48.3908 51.8279 48.2289 52.6701 47.9015 53.4529C47.574 54.2358 47.0881 54.9424 46.4742 55.5283V50.9349C46.4742 49.2034 44.806 47.5043 43.1063 47.5043H40.6931C38.9947 47.5043 37.3278 49.2034 37.3278 50.9349V55.5287C36.7132 54.9431 36.2267 54.2365 35.8987 53.4536C35.5708 52.6706 35.4085 51.8282 35.4222 50.9794C35.3994 49.9319 35.6724 48.8991 36.2101 47.9997C36.7477 47.1003 37.5282 46.3709 38.4618 45.8951ZM38.8522 50.9349C38.8522 50.0248 39.8157 49.0252 40.6931 49.0252H43.1062C43.9849 49.0252 44.9498 50.0248 44.9498 50.9349V56.3338H38.8521L38.8522 50.9349Z" fill="#1A1917"/>
</g>
<defs>
<clipPath id="clip0_640_2606">
<rect width="64" height="64" fill="white"/>
</clipPath>
</defs>
</svg>
