<svg width="36" height="36" viewBox="0 0 36 36" fill="none" xmlns="http://www.w3.org/2000/svg">
<path d="M21.0336 13.0715H10.6805C10.5669 13.0715 10.4579 13.1167 10.3775 13.1971C10.2971 13.2774 10.252 13.3864 10.252 13.5001C10.252 13.6138 10.2971 13.7228 10.3775 13.8032C10.4579 13.8835 10.5669 13.9287 10.6805 13.9287H21.0336C21.1473 13.9287 21.2563 13.8835 21.3367 13.8032C21.417 13.7228 21.4622 13.6138 21.4622 13.5001C21.4622 13.3864 21.417 13.2774 21.3367 13.1971C21.2563 13.1167 21.1473 13.0715 21.0336 13.0715Z" fill="#E53935"/>
<path d="M21.0336 15.2144H10.6805C10.5669 15.2144 10.4579 15.2595 10.3775 15.3399C10.2971 15.4203 10.252 15.5293 10.252 15.6429C10.252 15.7566 10.2971 15.8656 10.3775 15.946C10.4579 16.0263 10.5669 16.0715 10.6805 16.0715H21.0336C21.1473 16.0715 21.2563 16.0263 21.3367 15.946C21.417 15.8656 21.4622 15.7566 21.4622 15.6429C21.4622 15.5293 21.417 15.4203 21.3367 15.3399C21.2563 15.2595 21.1473 15.2144 21.0336 15.2144Z" fill="#101010"/>
<path d="M21.2048 18.169C21.2101 18.169 21.2154 18.1696 21.2207 18.1696C21.3079 18.1275 21.3783 18.0569 21.4202 17.9696C21.4621 17.8822 21.473 17.7832 21.4513 17.6888C21.4295 17.5943 21.3764 17.5101 21.3005 17.4499C21.2246 17.3896 21.1305 17.3569 21.0336 17.3572H10.6805C10.5669 17.3572 10.4579 17.4023 10.3775 17.4827C10.2971 17.5631 10.252 17.6721 10.252 17.7858C10.252 17.8994 10.2971 18.0084 10.3775 18.0888C10.4579 18.1692 10.5669 18.2143 10.6805 18.2143H20.7756C20.9167 18.1844 21.0606 18.1692 21.2048 18.169Z" fill="#E53935"/>
<path d="M18.9888 19.528L19.0168 19.5H10.6805C10.5669 19.5 10.4579 19.5452 10.3775 19.6255C10.2971 19.7059 10.252 19.8149 10.252 19.9286C10.252 20.0422 10.2971 20.1512 10.3775 20.2316C10.4579 20.312 10.5669 20.3571 10.6805 20.3571H18.4871C18.586 20.0448 18.758 19.7605 18.9888 19.528Z" fill="#101010"/>
<path d="M18.4544 21.6428H10.6805C10.5669 21.6428 10.4579 21.688 10.3775 21.7683C10.2971 21.8487 10.252 21.9577 10.252 22.0714C10.252 22.1851 10.2971 22.2941 10.3775 22.3744C10.4579 22.4548 10.5669 22.5 10.6805 22.5H17.6022C17.7943 22.1356 18.0912 21.8371 18.4544 21.6428Z" fill="#E53935"/>
<path d="M10.6805 23.7856C10.5669 23.7856 10.4579 23.8308 10.3775 23.9112C10.2971 23.9915 10.252 24.1006 10.252 24.2142C10.252 24.3279 10.2971 24.4369 10.3775 24.5173C10.4579 24.5976 10.5669 24.6428 10.6805 24.6428H17.3649C17.3629 24.6056 17.3571 24.5695 17.3571 24.5319V23.7856H10.6805Z" fill="#101010"/>
<path d="M29.2167 22.2752C29.1469 22.0728 29.0648 21.8749 28.9707 21.6825C29.1327 21.449 29.2076 21.1661 29.1823 20.883C29.1571 20.6 29.0334 20.3348 28.8327 20.1336L28.0803 19.3812C27.8793 19.1802 27.614 19.0562 27.3308 19.031C27.0476 19.0058 26.7646 19.0808 26.5311 19.2431C26.3389 19.149 26.141 19.0669 25.9387 18.9972C25.888 18.7176 25.7408 18.4648 25.5229 18.2826C25.3049 18.1004 25.03 18.0004 24.7459 18H23.6819C23.3978 18.0004 23.1228 18.1004 22.9049 18.2826C22.6869 18.4648 22.5398 18.7176 22.4891 18.9972C22.2867 19.0669 22.0889 19.149 21.8966 19.2431C21.6632 19.0808 21.3801 19.0058 21.097 19.031C20.8138 19.0562 20.5485 19.1802 20.3474 19.3812L19.595 20.1336C19.3944 20.3348 19.2706 20.6 19.2454 20.883C19.2202 21.1661 19.2951 21.449 19.457 21.6825C19.363 21.8749 19.2808 22.0728 19.211 22.2752C18.9315 22.3259 18.6786 22.4731 18.4964 22.691C18.3142 22.9089 18.2142 23.1839 18.2139 23.468V24.532C18.2142 24.8161 18.3142 25.091 18.4964 25.309C18.6786 25.5269 18.9315 25.6741 19.211 25.7248C19.2808 25.9272 19.3629 26.1251 19.457 26.3175C19.2951 26.551 19.2202 26.8339 19.2454 27.117C19.2706 27.4 19.3943 27.6652 19.595 27.8664L20.3474 28.6188C20.5485 28.8198 20.8138 28.9437 21.0969 28.969C21.3801 28.9942 21.6631 28.9192 21.8966 28.7569C22.0889 28.851 22.2867 28.9331 22.4891 29.0028C22.5398 29.2824 22.6869 29.5352 22.9049 29.7174C23.1228 29.8996 23.3978 29.9996 23.6819 30H24.7459C25.03 29.9996 25.3049 29.8996 25.5229 29.7174C25.7408 29.5352 25.888 29.2824 25.9387 29.0028C26.141 28.9331 26.3389 28.851 26.5311 28.7569C26.7646 28.9192 27.0476 28.9942 27.3308 28.969C27.6139 28.9437 27.8792 28.8198 28.0803 28.6188L28.8327 27.8664C29.0334 27.6652 29.1571 27.4 29.1823 27.117C29.2075 26.8339 29.1326 26.551 28.9707 26.3175C29.0648 26.1251 29.1469 25.9272 29.2167 25.7248C29.4962 25.6741 29.7491 25.5269 29.9313 25.309C30.1135 25.0911 30.2135 24.8161 30.2139 24.532V23.468C30.2135 23.1839 30.1135 22.909 29.9313 22.691C29.7491 22.4731 29.4962 22.3259 29.2167 22.2752ZM29.3567 24.532C29.3567 24.6261 29.3194 24.7163 29.2528 24.7828C29.1863 24.8493 29.0961 24.8867 29.002 24.8867H28.5585C28.4454 25.4427 28.2259 25.9716 27.9123 26.4444L28.2266 26.7588C28.2931 26.8253 28.3305 26.9155 28.3305 27.0095C28.3305 27.1036 28.2931 27.1938 28.2266 27.2603L27.4742 28.0127C27.4413 28.0457 27.4022 28.0718 27.3592 28.0896C27.3161 28.1074 27.27 28.1166 27.2234 28.1166C27.1769 28.1166 27.1307 28.1074 27.0877 28.0896C27.0447 28.0718 27.0056 28.0457 26.9726 28.0127L26.6583 27.6984C26.1855 28.0121 25.6566 28.2315 25.1006 28.3446V28.7882C25.1006 28.8822 25.0632 28.9725 24.9967 29.039C24.9302 29.1055 24.84 29.1429 24.7459 29.1429H23.6819C23.5878 29.1429 23.4976 29.1055 23.4311 29.039C23.3645 28.9725 23.3272 28.8822 23.3272 28.7882V28.3446C22.7712 28.2315 22.2423 28.0121 21.7695 27.6984L21.4551 28.0128C21.4222 28.0457 21.3831 28.0718 21.34 28.0896C21.297 28.1075 21.2509 28.1166 21.2043 28.1166C21.1577 28.1166 21.1116 28.1075 21.0686 28.0896C21.0255 28.0718 20.9864 28.0457 20.9535 28.0128L20.2011 27.2604C20.1346 27.1938 20.0972 27.1036 20.0972 27.0096C20.0972 26.9155 20.1346 26.8253 20.2011 26.7588L20.5155 26.4444C20.2018 25.9716 19.9824 25.4427 19.8692 24.8867H19.4257C19.3316 24.8867 19.2414 24.8493 19.1749 24.7828C19.1084 24.7163 19.071 24.6261 19.071 24.532V23.468C19.071 23.3739 19.1084 23.2837 19.1749 23.2172C19.2414 23.1507 19.3316 23.1133 19.4257 23.1133H19.8692C19.9824 22.5573 20.2018 22.0284 20.5155 21.5556L20.2011 21.2412C20.1346 21.1747 20.0972 21.0845 20.0972 20.9905C20.0972 20.8964 20.1346 20.8062 20.2011 20.7397L20.9535 19.9873C20.9864 19.9543 21.0255 19.9282 21.0686 19.9104C21.1116 19.8925 21.1577 19.8834 21.2043 19.8834C21.2509 19.8834 21.297 19.8925 21.34 19.9104C21.3831 19.9282 21.4222 19.9543 21.4551 19.9873L21.7695 20.3016C22.2423 19.9879 22.7712 19.7685 23.3272 19.6554V19.2118C23.3272 19.1652 23.3363 19.1191 23.3542 19.0761C23.372 19.0331 23.3981 18.9939 23.431 18.961C23.464 18.9281 23.5031 18.902 23.5461 18.8841C23.5892 18.8663 23.6353 18.8571 23.6819 18.8571H24.7459C24.7925 18.8571 24.8386 18.8663 24.8816 18.8841C24.9247 18.902 24.9638 18.9281 24.9967 18.961C25.0296 18.994 25.0557 19.0331 25.0736 19.0761C25.0914 19.1191 25.1006 19.1652 25.1006 19.2118V19.6554C25.6566 19.7685 26.1855 19.9879 26.6583 20.3016L26.9726 19.9872C27.0056 19.9543 27.0447 19.9282 27.0877 19.9104C27.1307 19.8925 27.1768 19.8834 27.2234 19.8834C27.27 19.8834 27.3161 19.8925 27.3592 19.9104C27.4022 19.9282 27.4413 19.9543 27.4742 19.9872L28.2266 20.7396C28.2931 20.8062 28.3305 20.8964 28.3305 20.9904C28.3305 21.0845 28.2931 21.1747 28.2266 21.2412L27.9123 21.5556C28.2259 22.0284 28.4454 22.5573 28.5585 23.1133H29.0021C29.0486 23.1133 29.0948 23.1225 29.1378 23.1403C29.1808 23.1581 29.2199 23.1842 29.2529 23.2172C29.2858 23.2501 29.3119 23.2892 29.3297 23.3322C29.3476 23.3753 29.3567 23.4214 29.3567 23.468V24.532Z" fill="#101010"/>
<path d="M24.3211 21.2522C23.7777 21.2522 23.2464 21.4134 22.7945 21.7153C22.3426 22.0172 21.9904 22.4464 21.7824 22.9485C21.5744 23.4506 21.52 24.0031 21.626 24.5362C21.7321 25.0692 21.9938 25.5589 22.3781 25.9432C22.7624 26.3275 23.252 26.5892 23.7851 26.6952C24.3181 26.8012 24.8706 26.7468 25.3727 26.5388C25.8748 26.3308 26.304 25.9786 26.6059 25.5268C26.9079 25.0749 27.069 24.5436 27.069 24.0001C27.0682 23.2716 26.7785 22.5731 26.2633 22.0579C25.7481 21.5428 25.0497 21.253 24.3211 21.2522ZM24.3211 25.8909C23.9472 25.8909 23.5816 25.78 23.2707 25.5722C22.9598 25.3644 22.7174 25.0692 22.5743 24.7237C22.4312 24.3782 22.3938 23.998 22.4667 23.6312C22.5397 23.2645 22.7197 22.9276 22.9842 22.6631C23.2486 22.3987 23.5855 22.2186 23.9523 22.1457C24.3191 22.0727 24.6992 22.1102 25.0447 22.2533C25.3902 22.3964 25.6855 22.6387 25.8933 22.9496C26.101 23.2606 26.2119 23.6261 26.2119 24.0001C26.2119 24.2484 26.163 24.4943 26.068 24.7237C25.973 24.9531 25.8337 25.1615 25.6581 25.3371C25.4825 25.5126 25.2741 25.6519 25.0447 25.7469C24.8153 25.842 24.5694 25.8909 24.3211 25.8909Z" fill="#E53935"/>
<path d="M7.50042 27.4285C7.58002 27.4285 7.65804 27.4064 7.72576 27.3645C7.79347 27.3227 7.84819 27.2628 7.88379 27.1916L9.1695 24.6202C9.17114 24.6169 9.1715 24.6133 9.17305 24.61C9.18695 24.5811 9.19751 24.5508 9.20455 24.5195L9.20555 24.5163C9.2116 24.4874 9.21467 24.458 9.2147 24.4285V11.1428C9.21448 10.9155 9.1241 10.6976 8.9634 10.5369C8.80271 10.3762 8.58482 10.2859 8.35756 10.2856H6.64328C6.41602 10.2859 6.19813 10.3762 6.03743 10.5369C5.87674 10.6976 5.78636 10.9155 5.78613 11.1428V24.4285C5.78616 24.458 5.78923 24.4874 5.79527 24.5163L5.79628 24.5195C5.80332 24.5508 5.81388 24.5811 5.82778 24.61C5.82932 24.6133 5.82969 24.6169 5.83133 24.6202L7.11704 27.1916C7.15264 27.2628 7.20736 27.3227 7.27507 27.3645C7.34279 27.4064 7.42082 27.4285 7.50042 27.4285ZM6.64328 11.1428H8.35756V12.4285H6.64328V11.1428ZM6.64328 13.2856H8.35756V23.9999H6.64328V13.2856ZM8.09263 24.8571L7.50042 26.0417L6.9082 24.8571H8.09263Z" fill="#E53935"/>
<path d="M7.92844 6.42854C7.92714 6.31636 7.97038 6.20824 8.04868 6.1279C8.12698 6.04756 8.23395 6.00155 8.34613 5.99997H20.357V8.19325C20.3574 8.52076 20.4876 8.83475 20.7192 9.06633C20.9508 9.29791 21.2648 9.42817 21.5923 9.42854H23.7856V17.1428H24.6427V9.03826L24.6406 9.03606C24.6459 8.97396 24.6377 8.91144 24.6164 8.85287C24.595 8.79429 24.5612 8.74108 24.5172 8.69695L21.0886 5.26838C21.0116 5.19301 20.9088 5.14978 20.8011 5.14748L20.7965 5.14282H8.34613C8.0067 5.14465 7.68186 5.28105 7.44286 5.52208C7.20387 5.76311 7.07024 6.0891 7.0713 6.42854V9.42854H7.92844V6.42854ZM21.2142 6.60599L23.1796 8.57139H21.5923C21.492 8.57125 21.3959 8.53137 21.3251 8.46048C21.2542 8.3896 21.2143 8.2935 21.2142 8.19325V6.60599Z" fill="#101010"/>
<path d="M0.428571 32.5715C0.665265 32.5715 0.857143 32.3796 0.857143 32.1429C0.857143 31.9062 0.665265 31.7144 0.428571 31.7144C0.191878 31.7144 0 31.9062 0 32.1429C0 32.3796 0.191878 32.5715 0.428571 32.5715Z" fill="#101010"/>
<path d="M2.35756 31.7144H1.7147C1.60104 31.7144 1.49203 31.7595 1.41166 31.8399C1.33129 31.9203 1.28613 32.0293 1.28613 32.1429C1.28613 32.2566 1.33129 32.3656 1.41166 32.446C1.49203 32.5263 1.60104 32.5715 1.7147 32.5715H2.35756C2.47123 32.5715 2.58023 32.5263 2.66061 32.446C2.74098 32.3656 2.78613 32.2566 2.78613 32.1429C2.78613 32.0293 2.74098 31.9203 2.66061 31.8399C2.58023 31.7595 2.47123 31.7144 2.35756 31.7144Z" fill="#101010"/>
<path d="M34.2853 31.7144H33.6424C33.5288 31.7144 33.4198 31.7595 33.3394 31.8399C33.259 31.9203 33.2139 32.0293 33.2139 32.1429C33.2139 32.2566 33.259 32.3656 33.3394 32.446C33.4198 32.5263 33.5288 32.5715 33.6424 32.5715H34.2853C34.399 32.5715 34.508 32.5263 34.5883 32.446C34.6687 32.3656 34.7139 32.2566 34.7139 32.1429C34.7139 32.0293 34.6687 31.9203 34.5883 31.8399C34.508 31.7595 34.399 31.7144 34.2853 31.7144Z" fill="#101010"/>
<path d="M35.5711 32.5715C35.8078 32.5715 35.9997 32.3796 35.9997 32.1429C35.9997 31.9062 35.8078 31.7144 35.5711 31.7144C35.3345 31.7144 35.1426 31.9062 35.1426 32.1429C35.1426 32.3796 35.3345 32.5715 35.5711 32.5715Z" fill="#101010"/>
<path d="M25.3184 33.4285H23.5382C23.4304 33.4371 23.3299 33.486 23.2566 33.5654C23.1833 33.6448 23.1426 33.749 23.1426 33.857C23.1426 33.9651 23.1833 34.0692 23.2566 34.1487C23.3299 34.2281 23.4304 34.277 23.5382 34.2856H25.3184C25.4262 34.277 25.5267 34.2281 25.6 34.1487C25.6733 34.0692 25.714 33.9651 25.714 33.857C25.714 33.749 25.6733 33.6448 25.6 33.5654C25.5267 33.486 25.4262 33.4371 25.3184 33.4285Z" fill="#E53935"/>
<path d="M12.462 33.4285H10.6817C10.574 33.4371 10.4735 33.486 10.4002 33.5654C10.3268 33.6448 10.2861 33.749 10.2861 33.857C10.2861 33.9651 10.3268 34.0692 10.4002 34.1487C10.4735 34.2281 10.574 34.277 10.6817 34.2856H12.462C12.5697 34.277 12.6702 34.2281 12.7436 34.1487C12.8169 34.0692 12.8576 33.9651 12.8576 33.857C12.8576 33.749 12.8169 33.6448 12.7436 33.5654C12.6702 33.486 12.5697 33.4371 12.462 33.4285Z" fill="#E53935"/>
<path d="M22.2861 33.4285H13.7147C13.601 33.4285 13.492 33.4736 13.4117 33.554C13.3313 33.6344 13.2861 33.7434 13.2861 33.857C13.2861 33.9707 13.3313 34.0797 13.4117 34.1601C13.492 34.2405 13.601 34.2856 13.7147 34.2856H17.1304V34.7142H15.429C15.3153 34.7142 15.2063 34.7593 15.1259 34.8397C15.0456 34.9201 15.0004 35.0291 15.0004 35.1428C15.0004 35.2564 15.0456 35.3654 15.1259 35.4458C15.2063 35.5262 15.3153 35.5713 15.429 35.5713H20.7861C20.8998 35.5713 21.0088 35.5262 21.0892 35.4458C21.1696 35.3654 21.2147 35.2564 21.2147 35.1428C21.2147 35.0291 21.1696 34.9201 21.0892 34.8397C21.0088 34.7593 20.8998 34.7142 20.7861 34.7142H18.8704V34.2856H22.2861C22.3998 34.2856 22.5088 34.2405 22.5892 34.1601C22.6696 34.0797 22.7147 33.9707 22.7147 33.857C22.7147 33.7434 22.6696 33.6344 22.5892 33.554C22.5088 33.4736 22.3998 33.4285 22.2861 33.4285Z" fill="#E53935"/>
<path d="M32.2979 31.7145H24.569C24.6179 31.5769 24.643 31.432 24.6433 31.2859V30.8574H23.7862V31.2859C23.7875 31.3981 23.7443 31.5062 23.666 31.5866C23.5877 31.6669 23.4807 31.7129 23.3685 31.7145H8.34674C8.23456 31.7129 8.12759 31.6669 8.04929 31.5866C7.97099 31.5062 7.92775 31.3981 7.92905 31.2859V28.2102C7.65226 28.3112 7.3487 28.3112 7.07191 28.2102V31.2859C7.0722 31.432 7.09735 31.5769 7.14629 31.7145H3.70306C3.64209 31.7065 3.58012 31.7117 3.52129 31.7296C3.46246 31.7475 3.40813 31.7777 3.36192 31.8183C3.31571 31.8588 3.27869 31.9088 3.25333 31.9648C3.22796 32.0208 3.21484 32.0816 3.21484 32.1431C3.21484 32.2046 3.22796 32.2653 3.25333 32.3214C3.27869 32.3774 3.31571 32.4273 3.36192 32.4679C3.40813 32.5085 3.46246 32.5387 3.52129 32.5566C3.58012 32.5745 3.64209 32.5796 3.70306 32.5716H32.2979C32.3589 32.5796 32.4208 32.5745 32.4797 32.5566C32.5385 32.5387 32.5928 32.5085 32.639 32.4679C32.6852 32.4273 32.7223 32.3774 32.7476 32.3214C32.773 32.2653 32.7861 32.2046 32.7861 32.1431C32.7861 32.0816 32.773 32.0208 32.7476 31.9648C32.7223 31.9088 32.6852 31.8588 32.639 31.8183C32.5928 31.7777 32.5385 31.7475 32.4797 31.7296C32.4208 31.7117 32.3589 31.7065 32.2979 31.7145Z" fill="#101010"/>
</svg>
