<svg width="36" height="36" viewBox="0 0 36 36" fill="none" xmlns="http://www.w3.org/2000/svg">
<path d="M18.8571 13.9158V12.8301C18.8571 12.6177 18.7783 12.4129 18.6359 12.2553C18.4935 12.0977 18.2977 11.9986 18.0864 11.9772C18.0221 11.7864 17.9449 11.6003 17.8552 11.4201C17.9896 11.2555 18.0581 11.047 18.0474 10.8348C18.0368 10.6226 17.9477 10.422 17.7975 10.2717L17.0297 9.50402C16.8795 9.35381 16.6788 9.26473 16.4667 9.25406C16.2545 9.24338 16.0459 9.31187 15.8814 9.44625C15.7012 9.35657 15.515 9.27934 15.3243 9.21509C15.3029 9.0038 15.2038 8.80798 15.0462 8.66558C14.8886 8.52318 14.6838 8.44434 14.4714 8.44434H13.3857C13.1733 8.44434 12.9685 8.52318 12.811 8.66558C12.6534 8.80798 12.5543 9.0038 12.5329 9.21509C12.3421 9.27933 12.156 9.35657 11.9758 9.44625C11.8112 9.31187 11.6027 9.24338 11.3905 9.25405C11.1783 9.26473 10.9776 9.35381 10.8274 9.50402L10.0597 10.2717C9.90947 10.422 9.82038 10.6226 9.80971 10.8348C9.79904 11.047 9.86755 11.2555 10.0019 11.4201C9.91225 11.6003 9.835 11.7864 9.77075 11.9772C9.55946 11.9986 9.36364 12.0977 9.22124 12.2553C9.07884 12.4129 9 12.6177 9 12.8301V13.9158C9.00001 14.1281 9.07885 14.333 9.22125 14.4905C9.36364 14.6481 9.55946 14.7472 9.77076 14.7686C9.83501 14.9594 9.91226 15.1455 10.002 15.3258C9.86755 15.4903 9.79904 15.6989 9.80971 15.911C9.82038 16.1232 9.90947 16.3239 10.0597 16.4741L10.8274 17.2418C10.9776 17.392 11.1783 17.4811 11.3905 17.4918C11.6027 17.5024 11.8113 17.4339 11.9758 17.2996C12.156 17.3893 12.3421 17.4665 12.5329 17.5307C12.5543 17.742 12.6534 17.9378 12.811 18.0802C12.9685 18.2226 13.1733 18.3015 13.3857 18.3015H14.4714C14.6838 18.3015 14.8886 18.2226 15.0462 18.0802C15.2038 17.9378 15.3029 17.742 15.3243 17.5307C15.515 17.4665 15.7012 17.3892 15.8814 17.2996C16.0459 17.4339 16.2545 17.5024 16.4667 17.4918C16.6789 17.4811 16.8795 17.392 17.0297 17.2418L17.7975 16.4741C17.9477 16.3239 18.0368 16.1232 18.0474 15.911C18.0581 15.6989 17.9896 15.4903 17.8552 15.3257C17.9449 15.1455 18.0221 14.9594 18.0864 14.7686C18.2977 14.7472 18.4935 14.6481 18.6359 14.4905C18.7783 14.333 18.8571 14.1281 18.8571 13.9158ZM18 13.9158H17.4155C17.3294 14.4723 17.1105 15 16.7775 15.4541L17.1914 15.868L16.4236 16.6357L16.0098 16.2218C15.5556 16.5549 15.028 16.7737 14.4714 16.8598V17.4443H13.3857V16.8598C12.8292 16.7737 12.3015 16.5549 11.8474 16.2218L11.4335 16.6357L10.6658 15.868L11.0797 15.4541C10.7466 15 10.5278 14.4723 10.4416 13.9158H9.85714V12.8301H10.4416C10.5278 12.2735 10.7466 11.7459 11.0797 11.2917L10.6658 10.8778L11.4335 10.1101L11.8474 10.524C12.3015 10.191 12.8292 9.97212 13.3857 9.88596V9.30148H14.4714V9.88596C15.028 9.97212 15.5556 10.191 16.0098 10.524L16.4236 10.1101L17.1914 10.8778L16.7775 11.2917C17.1105 11.7459 17.3294 12.2735 17.4155 12.8301H18V13.9158Z" fill="#101010"/>
<path d="M13.9289 10.8015C13.4203 10.8015 12.9231 10.9523 12.5002 11.2349C12.0774 11.5174 11.7478 11.919 11.5532 12.3889C11.3585 12.8588 11.3076 13.3758 11.4068 13.8746C11.5061 14.3734 11.751 14.8316 12.1106 15.1912C12.4702 15.5508 12.9284 15.7957 13.4272 15.895C13.926 15.9942 14.443 15.9433 14.9129 15.7486C15.3828 15.554 15.7844 15.2244 16.0669 14.8016C16.3495 14.3787 16.5003 13.8815 16.5003 13.3729C16.4995 12.6912 16.2283 12.0376 15.7463 11.5555C15.2642 11.0734 14.6106 10.8023 13.9289 10.8015ZM13.9289 15.0872C13.5898 15.0872 13.2584 14.9867 12.9764 14.7983C12.6945 14.61 12.4748 14.3422 12.3451 14.029C12.2153 13.7157 12.1814 13.371 12.2475 13.0385C12.3137 12.706 12.4769 12.4005 12.7167 12.1608C12.9564 11.921 13.2619 11.7577 13.5944 11.6916C13.927 11.6254 14.2716 11.6594 14.5849 11.7891C14.8981 11.9189 15.1659 12.1386 15.3542 12.4205C15.5426 12.7024 15.6431 13.0339 15.6431 13.3729C15.6431 13.8276 15.4625 14.2636 15.141 14.5851C14.8195 14.9066 14.3835 15.0872 13.9289 15.0872Z" fill="#E53935"/>
<path d="M6.85728 26.4445H14.4498C14.3755 26.1639 14.3146 25.8782 14.267 25.5874H6.85728C6.74362 25.5874 6.63461 25.6326 6.55424 25.7129C6.47386 25.7933 6.42871 25.9023 6.42871 26.016C6.42871 26.1296 6.47386 26.2386 6.55424 26.319C6.63461 26.3994 6.74362 26.4445 6.85728 26.4445Z" fill="#101010"/>
<path d="M6.85728 28.5874H15.321C15.1643 28.3092 15.0222 28.0231 14.8953 27.7302H6.85728C6.74362 27.7302 6.63461 27.7754 6.55424 27.8557C6.47386 27.9361 6.42871 28.0451 6.42871 28.1588C6.42871 28.2725 6.47386 28.3815 6.55424 28.4618C6.63461 28.5422 6.74362 28.5874 6.85728 28.5874Z" fill="#E53935"/>
<path d="M6.85728 24.3015H14.1484C14.1468 24.23 14.143 24.159 14.143 24.0872C14.143 23.871 14.1522 23.6569 14.1669 23.4443H6.85728C6.74362 23.4443 6.63461 23.4895 6.55424 23.5699C6.47386 23.6502 6.42871 23.7592 6.42871 23.8729C6.42871 23.9866 6.47386 24.0956 6.55424 24.176C6.63461 24.2563 6.74362 24.3015 6.85728 24.3015Z" fill="#E53935"/>
<path d="M6.85728 22.1587H14.347C14.4093 21.8675 14.4861 21.5818 14.5753 21.3015H6.85728C6.74362 21.3015 6.63461 21.3467 6.55424 21.427C6.47386 21.5074 6.42871 21.6164 6.42871 21.7301C6.42871 21.8437 6.47386 21.9528 6.55424 22.0331C6.63461 22.1135 6.74362 22.1587 6.85728 22.1587Z" fill="#101010"/>
<path d="M15.576 19.1587H6.85728C6.74362 19.1587 6.63461 19.2038 6.55424 19.2842C6.47386 19.3646 6.42871 19.4736 6.42871 19.5873C6.42871 19.7009 6.47386 19.8099 6.55424 19.8903C6.63461 19.9707 6.74362 20.0158 6.85728 20.0158H15.0943C15.2395 19.7218 15.4003 19.4356 15.576 19.1587Z" fill="#E53935"/>
<path d="M23.7861 22.8766V20.4444C23.7861 20.3308 23.741 20.2218 23.6606 20.1414C23.5802 20.061 23.4712 20.0159 23.3576 20.0159C23.2439 20.0159 23.1349 20.061 23.0545 20.1414C22.9741 20.2218 22.929 20.3308 22.929 20.4444V22.8766C22.7488 22.9408 22.5851 23.0443 22.4498 23.1796C22.3146 23.3148 22.2111 23.4785 22.1468 23.6587H19.7147C19.601 23.6587 19.492 23.7039 19.4117 23.7843C19.3313 23.8646 19.2861 23.9736 19.2861 24.0873C19.2861 24.201 19.3313 24.31 19.4117 24.3903C19.492 24.4707 19.601 24.5159 19.7147 24.5159H22.1468C22.2191 24.7206 22.3421 24.9037 22.5043 25.048C22.6664 25.1923 22.8625 25.2932 23.0742 25.3412C23.286 25.3892 23.5064 25.3828 23.715 25.3226C23.9235 25.2623 24.1134 25.1502 24.267 24.9967C24.4205 24.8432 24.5326 24.6533 24.5928 24.4447C24.6531 24.2361 24.6595 24.0157 24.6115 23.804C24.5634 23.5923 24.4626 23.3962 24.3182 23.234C24.1739 23.0718 23.9908 22.9489 23.7861 22.8766ZM23.3576 24.5159C23.2728 24.5159 23.1899 24.4907 23.1195 24.4436C23.049 24.3965 22.9941 24.3296 22.9616 24.2513C22.9292 24.173 22.9207 24.0868 22.9372 24.0037C22.9538 23.9206 22.9946 23.8442 23.0545 23.7843C23.1145 23.7243 23.1908 23.6835 23.274 23.667C23.3571 23.6504 23.4433 23.6589 23.5216 23.6913C23.5999 23.7238 23.6668 23.7787 23.7139 23.8492C23.761 23.9197 23.7861 24.0025 23.7861 24.0873C23.7861 24.201 23.741 24.31 23.6606 24.3903C23.5802 24.4707 23.4712 24.5159 23.3576 24.5159Z" fill="#E53935"/>
<path d="M25.3184 33.3015H23.5382C23.4304 33.3101 23.3299 33.359 23.2566 33.4385C23.1833 33.5179 23.1426 33.622 23.1426 33.7301C23.1426 33.8382 23.1833 33.9423 23.2566 34.0217C23.3299 34.1011 23.4304 34.15 23.5382 34.1587H25.3184C25.4262 34.15 25.5267 34.1011 25.6 34.0217C25.6733 33.9423 25.714 33.8382 25.714 33.7301C25.714 33.622 25.6733 33.5179 25.6 33.4385C25.5267 33.359 25.4262 33.3101 25.3184 33.3015Z" fill="#E53935"/>
<path d="M12.462 33.3015H10.6817C10.574 33.3101 10.4735 33.359 10.4002 33.4385C10.3268 33.5179 10.2861 33.622 10.2861 33.7301C10.2861 33.8382 10.3268 33.9423 10.4002 34.0217C10.4735 34.1011 10.574 34.15 10.6817 34.1587H12.462C12.5697 34.15 12.6702 34.1011 12.7436 34.0217C12.8169 33.9423 12.8576 33.8382 12.8576 33.7301C12.8576 33.622 12.8169 33.5179 12.7436 33.4385C12.6702 33.359 12.5697 33.3101 12.462 33.3015Z" fill="#E53935"/>
<path d="M22.2861 33.3015H13.7147C13.601 33.3015 13.492 33.3467 13.4117 33.427C13.3313 33.5074 13.2861 33.6164 13.2861 33.7301C13.2861 33.8437 13.3313 33.9528 13.4117 34.0331C13.492 34.1135 13.601 34.1587 13.7147 34.1587H17.1304V34.5872H15.429C15.3153 34.5872 15.2063 34.6324 15.1259 34.7128C15.0456 34.7931 15.0004 34.9021 15.0004 35.0158C15.0004 35.1295 15.0456 35.2385 15.1259 35.3188C15.2063 35.3992 15.3153 35.4444 15.429 35.4444H20.7861C20.8998 35.4444 21.0088 35.3992 21.0892 35.3188C21.1696 35.2385 21.2147 35.1295 21.2147 35.0158C21.2147 34.9021 21.1696 34.7931 21.0892 34.7128C21.0088 34.6324 20.8998 34.5872 20.7861 34.5872H18.8704V34.1587H22.2861C22.3998 34.1587 22.5088 34.1135 22.5892 34.0331C22.6696 33.9528 22.7147 33.8437 22.7147 33.7301C22.7147 33.6164 22.6696 33.5074 22.5892 33.427C22.5088 33.3467 22.3998 33.3015 22.2861 33.3015Z" fill="#E53935"/>
<path d="M25.3184 33.3015H23.5382C23.4304 33.3101 23.3299 33.359 23.2566 33.4385C23.1833 33.5179 23.1426 33.622 23.1426 33.7301C23.1426 33.8382 23.1833 33.9423 23.2566 34.0217C23.3299 34.1011 23.4304 34.15 23.5382 34.1587H25.3184C25.4262 34.15 25.5267 34.1011 25.6 34.0217C25.6733 33.9423 25.714 33.8382 25.714 33.7301C25.714 33.622 25.6733 33.5179 25.6 33.4385C25.5267 33.359 25.4262 33.3101 25.3184 33.3015Z" fill="#E53935"/>
<path d="M12.462 33.3015H10.6817C10.574 33.3101 10.4735 33.359 10.4002 33.4385C10.3268 33.5179 10.2861 33.622 10.2861 33.7301C10.2861 33.8382 10.3268 33.9423 10.4002 34.0217C10.4735 34.1011 10.574 34.15 10.6817 34.1587H12.462C12.5697 34.15 12.6702 34.1011 12.7436 34.0217C12.8169 33.9423 12.8576 33.8382 12.8576 33.7301C12.8576 33.622 12.8169 33.5179 12.7436 33.4385C12.6702 33.359 12.5697 33.3101 12.462 33.3015Z" fill="#E53935"/>
<path d="M22.2861 33.3015H13.7147C13.601 33.3015 13.492 33.3467 13.4117 33.427C13.3313 33.5074 13.2861 33.6164 13.2861 33.7301C13.2861 33.8437 13.3313 33.9528 13.4117 34.0331C13.492 34.1135 13.601 34.1587 13.7147 34.1587H17.1304V34.5872H15.429C15.3153 34.5872 15.2063 34.6324 15.1259 34.7128C15.0456 34.7931 15.0004 34.9021 15.0004 35.0158C15.0004 35.1295 15.0456 35.2385 15.1259 35.3188C15.2063 35.3992 15.3153 35.4444 15.429 35.4444H20.7861C20.8998 35.4444 21.0088 35.3992 21.0892 35.3188C21.1696 35.2385 21.2147 35.1295 21.2147 35.0158C21.2147 34.9021 21.1696 34.7931 21.0892 34.7128C21.0088 34.6324 20.8998 34.5872 20.7861 34.5872H18.8704V34.1587H22.2861C22.3998 34.1587 22.5088 34.1135 22.5892 34.0331C22.6696 33.9528 22.7147 33.8437 22.7147 33.7301C22.7147 33.6164 22.6696 33.5074 22.5892 33.427C22.5088 33.3467 22.3998 33.3015 22.2861 33.3015Z" fill="#E53935"/>
<path d="M25.3184 33.3015H23.5382C23.4304 33.3101 23.3299 33.359 23.2566 33.4385C23.1833 33.5179 23.1426 33.622 23.1426 33.7301C23.1426 33.8382 23.1833 33.9423 23.2566 34.0217C23.3299 34.1011 23.4304 34.15 23.5382 34.1587H25.3184C25.4262 34.15 25.5267 34.1011 25.6 34.0217C25.6733 33.9423 25.714 33.8382 25.714 33.7301C25.714 33.622 25.6733 33.5179 25.6 33.4385C25.5267 33.359 25.4262 33.3101 25.3184 33.3015Z" fill="#E53935"/>
<path d="M12.462 33.3015H10.6817C10.574 33.3101 10.4735 33.359 10.4002 33.4385C10.3268 33.5179 10.2861 33.622 10.2861 33.7301C10.2861 33.8382 10.3268 33.9423 10.4002 34.0217C10.4735 34.1011 10.574 34.15 10.6817 34.1587H12.462C12.5697 34.15 12.6702 34.1011 12.7436 34.0217C12.8169 33.9423 12.8576 33.8382 12.8576 33.7301C12.8576 33.622 12.8169 33.5179 12.7436 33.4385C12.6702 33.359 12.5697 33.3101 12.462 33.3015Z" fill="#E53935"/>
<path d="M22.2861 33.3015H13.7147C13.601 33.3015 13.492 33.3467 13.4117 33.427C13.3313 33.5074 13.2861 33.6164 13.2861 33.7301C13.2861 33.8437 13.3313 33.9528 13.4117 34.0331C13.492 34.1135 13.601 34.1587 13.7147 34.1587H17.1304V34.5872H15.429C15.3153 34.5872 15.2063 34.6324 15.1259 34.7128C15.0456 34.7931 15.0004 34.9021 15.0004 35.0158C15.0004 35.1295 15.0456 35.2385 15.1259 35.3188C15.2063 35.3992 15.3153 35.4444 15.429 35.4444H20.7861C20.8998 35.4444 21.0088 35.3992 21.0892 35.3188C21.1696 35.2385 21.2147 35.1295 21.2147 35.0158C21.2147 34.9021 21.1696 34.7931 21.0892 34.7128C21.0088 34.6324 20.8998 34.5872 20.7861 34.5872H18.8704V34.1587H22.2861C22.3998 34.1587 22.5088 34.1135 22.5892 34.0331C22.6696 33.9528 22.7147 33.8437 22.7147 33.7301C22.7147 33.6164 22.6696 33.5074 22.5892 33.427C22.5088 33.3467 22.3998 33.3015 22.2861 33.3015Z" fill="#E53935"/>
<path d="M23.3577 17.4443C22.0439 17.4443 20.7595 17.8339 19.6671 18.5639C18.5747 19.2938 17.7233 20.3313 17.2205 21.5451C16.7177 22.7589 16.5862 24.0946 16.8425 25.3831C17.0988 26.6717 17.7315 27.8554 18.6605 28.7844C19.5895 29.7134 20.7732 30.3461 22.0617 30.6024C23.3503 30.8587 24.686 30.7272 25.8998 30.2244C27.1136 29.7216 28.1511 28.8702 28.881 27.7778C29.611 26.6854 30.0006 25.401 30.0006 24.0872C30.0006 22.3254 29.3007 20.6358 28.0549 19.39C26.8091 18.1442 25.1195 17.4443 23.3577 17.4443ZM27.7376 27.8611L27.4488 27.5723C27.409 27.5324 27.3618 27.5007 27.3098 27.479C27.2577 27.4574 27.202 27.4462 27.1456 27.4462C27.0893 27.4461 27.0335 27.4572 26.9814 27.4787C26.9293 27.5003 26.882 27.5319 26.8422 27.5717C26.8024 27.6115 26.7708 27.6588 26.7492 27.7109C26.7277 27.763 26.7166 27.8188 26.7167 27.8751C26.7167 27.9315 26.7279 27.9872 26.7495 28.0393C26.7712 28.0913 26.8029 28.1385 26.8428 28.1783L27.1316 28.4671C26.1948 29.2776 25.0217 29.7644 23.7863 29.8553V29.4443C23.7863 29.3307 23.7411 29.2217 23.6608 29.1413C23.5804 29.0609 23.4714 29.0158 23.3577 29.0158C23.244 29.0158 23.135 29.0609 23.0547 29.1413C22.9743 29.2217 22.9291 29.3307 22.9291 29.4443V29.8553C21.6937 29.7644 20.5206 29.2776 19.5838 28.4671L19.8726 28.1783C19.9526 28.0978 19.9975 27.989 19.9973 27.8755C19.9972 27.7621 19.952 27.6533 19.8718 27.5731C19.7916 27.4928 19.6828 27.4477 19.5694 27.4476C19.4559 27.4474 19.347 27.4923 19.2666 27.5723L18.9778 27.8611C18.1673 26.9243 17.6805 25.7511 17.5896 24.5158H18.0006C18.1142 24.5158 18.2232 24.4706 18.3036 24.3902C18.384 24.3099 18.4291 24.2009 18.4291 24.0872C18.4291 23.9735 18.384 23.8645 18.3036 23.7841C18.2232 23.7038 18.1142 23.6586 18.0006 23.6586H17.5896C17.6805 22.4232 18.1673 21.2501 18.9778 20.3133L19.2666 20.6021C19.347 20.6822 19.4559 20.7272 19.5694 20.7271C19.683 20.727 19.7918 20.6818 19.8721 20.6015C19.9523 20.5213 19.9975 20.4125 19.9976 20.2989C19.9977 20.1854 19.9527 20.0765 19.8726 19.9961L19.5838 19.7073C20.5206 18.8968 21.6937 18.41 22.9291 18.319V18.73C22.9291 18.8437 22.9743 18.9527 23.0547 19.0331C23.135 19.1135 23.244 19.1586 23.3577 19.1586C23.4714 19.1586 23.5804 19.1135 23.6608 19.0331C23.7411 18.9527 23.7863 18.8437 23.7863 18.73V18.319C25.0217 18.41 26.1948 18.8968 27.1316 19.7073L26.8428 19.9961C26.8029 20.0359 26.7712 20.0831 26.7495 20.1351C26.7279 20.1872 26.7167 20.2429 26.7167 20.2993C26.7166 20.3556 26.7277 20.4114 26.7492 20.4635C26.7708 20.5156 26.8024 20.5629 26.8422 20.6027C26.882 20.6425 26.9293 20.6741 26.9814 20.6957C27.0335 20.7172 27.0893 20.7283 27.1456 20.7282C27.202 20.7282 27.2577 20.717 27.3098 20.6954C27.3618 20.6737 27.409 20.642 27.4488 20.6021L27.7376 20.3133C28.5481 21.2501 29.0349 22.4232 29.1259 23.6586H28.7148C28.6012 23.6586 28.4922 23.7038 28.4118 23.7841C28.3314 23.8645 28.2863 23.9735 28.2863 24.0872C28.2863 24.2009 28.3314 24.3099 28.4118 24.3902C28.4922 24.4706 28.6012 24.5158 28.7148 24.5158H29.1258C29.0349 25.7512 28.5481 26.9243 27.7376 27.8611Z" fill="#E53935"/>
<path d="M0.428571 32.4443C0.665265 32.4443 0.857143 32.2524 0.857143 32.0157C0.857143 31.779 0.665265 31.5872 0.428571 31.5872C0.191878 31.5872 0 31.779 0 32.0157C0 32.2524 0.191878 32.4443 0.428571 32.4443Z" fill="#101010"/>
<path d="M2.35756 31.5874H1.7147C1.60104 31.5874 1.49203 31.6326 1.41166 31.7129C1.33129 31.7933 1.28613 31.9023 1.28613 32.016C1.28613 32.1296 1.33129 32.2386 1.41166 32.319C1.49203 32.3994 1.60104 32.4445 1.7147 32.4445H2.35756C2.47123 32.4445 2.58023 32.3994 2.66061 32.319C2.74098 32.2386 2.78613 32.1296 2.78613 32.016C2.78613 31.9023 2.74098 31.7933 2.66061 31.7129C2.58023 31.6326 2.47123 31.5874 2.35756 31.5874Z" fill="#101010"/>
<path d="M34.2853 31.5874H33.6424C33.5288 31.5874 33.4198 31.6326 33.3394 31.7129C33.259 31.7933 33.2139 31.9023 33.2139 32.016C33.2139 32.1296 33.259 32.2386 33.3394 32.319C33.4198 32.3994 33.5288 32.4445 33.6424 32.4445H34.2853C34.399 32.4445 34.508 32.3994 34.5883 32.319C34.6687 32.2386 34.7139 32.1296 34.7139 32.016C34.7139 31.9023 34.6687 31.7933 34.5883 31.7129C34.508 31.6326 34.399 31.5874 34.2853 31.5874Z" fill="#101010"/>
<path d="M35.5711 32.4443C35.8078 32.4443 35.9997 32.2524 35.9997 32.0157C35.9997 31.779 35.8078 31.5872 35.5711 31.5872C35.3345 31.5872 35.1426 31.779 35.1426 32.0157C35.1426 32.2524 35.3345 32.4443 35.5711 32.4443Z" fill="#101010"/>
<path d="M32.2979 31.5873H27.0453C28.5896 30.8279 29.8619 29.6103 30.6882 28.1008C31.5146 26.5912 31.8548 24.8634 31.6623 23.1532C31.4699 21.4431 30.7542 19.8341 29.6129 18.546C28.4717 17.2578 26.9607 16.3535 25.2862 15.9563V14.2302C25.2862 14.0028 25.1959 13.7848 25.0351 13.6241C24.8744 13.4633 24.6564 13.373 24.4291 13.373H22.2862C22.0589 13.373 21.8408 13.4633 21.6801 13.6241C21.5194 13.7848 21.4291 14.0028 21.4291 14.2302V15.9563C19.7546 16.3535 18.2435 17.2578 17.1023 18.546C15.9611 19.8341 15.2454 21.4431 15.0529 23.1532C14.8604 24.8634 15.2006 26.5912 16.027 28.1008C16.8534 29.6103 18.1256 30.8279 19.67 31.5873H5.57191C5.45828 31.5872 5.34935 31.542 5.26901 31.4616C5.18866 31.3813 5.14347 31.2724 5.14334 31.1587V30.7302H16.982C16.7015 30.4612 16.4381 30.1749 16.1934 29.873H5.14334V6.30158C5.14345 6.18795 5.18864 6.07901 5.26899 5.99866C5.34934 5.91831 5.45828 5.87313 5.57191 5.87301H8.78619V6.73015C8.78645 6.9574 8.87684 7.17527 9.03753 7.33596C9.19822 7.49665 9.41609 7.58704 9.64334 7.5873H18.2148C18.442 7.58704 18.6599 7.49665 18.8206 7.33596C18.9813 7.17527 19.0716 6.9574 19.0719 6.73015V5.87301H22.2862C22.3998 5.87313 22.5088 5.91831 22.5891 5.99866C22.6695 6.07901 22.7147 6.18795 22.7148 6.30158V12.5159H23.5719V6.30158C23.5715 5.96071 23.436 5.63389 23.1949 5.39286C22.9539 5.15182 22.6271 5.01624 22.2862 5.01587H5.57191C5.23103 5.01624 4.90422 5.15182 4.66318 5.39286C4.42214 5.63389 4.28657 5.96071 4.28619 6.30158V31.1587C4.2865 31.3048 4.31187 31.4498 4.36119 31.5873H3.70306C3.64209 31.5793 3.58012 31.5845 3.52129 31.6024C3.46246 31.6203 3.40813 31.6505 3.36192 31.6911C3.31571 31.7316 3.27869 31.7816 3.25333 31.8376C3.22796 31.8936 3.21484 31.9544 3.21484 32.0159C3.21484 32.0774 3.22796 32.1381 3.25333 32.1942C3.27869 32.2502 3.31571 32.3001 3.36192 32.3407C3.40813 32.3813 3.46246 32.4115 3.52129 32.4294C3.58012 32.4473 3.64209 32.4524 3.70306 32.4444H32.2979C32.3589 32.4524 32.4208 32.4473 32.4797 32.4294C32.5385 32.4115 32.5928 32.3813 32.639 32.3407C32.6852 32.3001 32.7223 32.2502 32.7476 32.1942C32.773 32.1381 32.7861 32.0774 32.7861 32.0159C32.7861 31.9544 32.773 31.8936 32.7476 31.8376C32.7223 31.7816 32.6852 31.7316 32.639 31.6911C32.5928 31.6505 32.5385 31.6203 32.4797 31.6024C32.4208 31.5845 32.3589 31.5793 32.2979 31.5873ZM9.64334 5.87301H18.215L18.2153 6.73015H9.64334V5.87301ZM22.2862 14.2302H24.4291V15.8009C23.7179 15.7066 22.9974 15.7066 22.2862 15.8009V14.2302ZM15.8576 24.0873C15.8576 22.6039 16.2975 21.1539 17.1216 19.9205C17.9457 18.6872 19.1171 17.7259 20.4875 17.1582C21.8579 16.5905 23.3659 16.442 24.8208 16.7314C26.2757 17.0208 27.612 17.7351 28.6609 18.784C29.7098 19.8329 30.4241 21.1693 30.7135 22.6241C31.0029 24.079 30.8544 25.587 30.2867 26.9574C29.7191 28.3279 28.7578 29.4992 27.5244 30.3233C26.291 31.1474 24.841 31.5873 23.3576 31.5873C21.3692 31.5851 19.4628 30.7942 18.0568 29.3881C16.6508 27.9821 15.8599 26.0757 15.8576 24.0873Z" fill="#101010"/>
</svg>
