<svg width="36" height="36" viewBox="0 0 36 36" fill="none" xmlns="http://www.w3.org/2000/svg">
<path d="M8.57115 26.3572C8.45749 26.3572 8.34848 26.4023 8.2681 26.4827C8.18773 26.5631 8.14258 26.6721 8.14258 26.7857C8.14258 26.8994 8.18773 27.0084 8.2681 27.0888C8.34848 27.1692 8.45749 27.2143 8.57115 27.2143H10.714C10.8277 27.2143 10.9367 27.1692 11.0171 27.0888C11.0974 27.0084 11.1426 26.8994 11.1426 26.7857C11.1426 26.6721 11.0974 26.5631 11.0171 26.4827C10.9367 26.4023 10.8277 26.3572 10.714 26.3572H8.57115Z" fill="#E53935"/>
<path d="M25.7146 24.2144C25.2484 24.2144 24.7926 24.3526 24.405 24.6116C24.0174 24.8706 23.7153 25.2387 23.5368 25.6695C23.3584 26.1002 23.3118 26.5741 23.4027 27.0314C23.4937 27.4886 23.7182 27.9086 24.0478 28.2382C24.3775 28.5679 24.7975 28.7924 25.2547 28.8833C25.712 28.9743 26.1859 28.9276 26.6166 28.7492C27.0473 28.5708 27.4155 28.2687 27.6745 27.8811C27.9335 27.4934 28.0717 27.0377 28.0717 26.5715C28.0717 25.9463 27.8234 25.3468 27.3813 24.9047C26.9393 24.4627 26.3397 24.2144 25.7146 24.2144ZM25.7146 28.0715C25.4179 28.0715 25.1279 27.9835 24.8812 27.8187C24.6345 27.6539 24.4423 27.4196 24.3287 27.1455C24.2152 26.8714 24.1855 26.5698 24.2434 26.2789C24.3013 25.9879 24.4441 25.7206 24.6539 25.5108C24.8637 25.3011 25.131 25.1582 25.4219 25.1003C25.7129 25.0424 26.0145 25.0721 26.2886 25.1857C26.5627 25.2992 26.7969 25.4915 26.9618 25.7381C27.1266 25.9848 27.2146 26.2748 27.2146 26.5715C27.2141 26.9692 27.0559 27.3505 26.7747 27.6317C26.4935 27.9129 26.1123 28.071 25.7146 28.0715Z" fill="#E53935"/>
<path d="M14.7747 22.78L13.7349 28.407C13.7008 28.5996 13.7209 28.7979 13.7931 28.9798C13.8652 29.1616 13.9865 29.3198 14.1434 29.4367L15.5379 30.6543C15.6905 30.7797 15.8802 30.851 16.0776 30.8573C16.2576 30.8524 16.4317 30.7925 16.5767 30.6858L18.0118 29.4367C18.1689 29.3204 18.2893 29.1615 18.3586 28.9788C18.4279 28.796 18.4432 28.5972 18.4027 28.4061L17.4499 22.7605C17.172 22.8284 16.8895 22.8756 16.6046 22.9015C16.6046 22.9015 17.5572 28.5459 17.5611 28.5687C17.5702 28.6003 17.5698 28.6339 17.5599 28.6653C17.55 28.6968 17.5311 28.7245 17.5054 28.7452L16.0776 29.9878L14.6908 28.7768C14.6426 28.7347 14.5617 28.6749 14.5711 28.5951L15.6224 22.909C15.337 22.8871 15.0537 22.844 14.7747 22.78Z" fill="#E53935"/>
<path d="M20.7313 21.8571L21.1584 21.43C21.3373 21.2518 21.5458 21.1063 21.7748 21H20.4585C20.1488 21.3181 19.8088 21.6051 19.4434 21.8571H20.7313Z" fill="#101010"/>
<path d="M20.9194 16.2856C20.503 19.0844 18.4883 21.2142 16.0711 21.2142C13.6539 21.2142 11.6391 19.0844 11.2228 16.2856H10.3564C10.7918 19.5595 13.1884 22.0714 16.0711 22.0714C18.9538 22.0714 21.3503 19.5595 21.7857 16.2856H20.9194Z" fill="#101010"/>
<path d="M14.9999 9.85714H17.1427C17.2564 9.85714 17.3654 9.81199 17.4458 9.73162C17.5261 9.65124 17.5713 9.54224 17.5713 9.42857C17.5713 9.31491 17.5261 9.2059 17.4458 9.12553C17.3654 9.04515 17.2564 9 17.1427 9H14.9999C14.8862 9 14.7772 9.04515 14.6968 9.12553C14.6164 9.2059 14.5713 9.31491 14.5713 9.42857C14.5713 9.54224 14.6164 9.65124 14.6968 9.73162C14.7772 9.81199 14.8862 9.85714 14.9999 9.85714Z" fill="#E53935"/>
<path d="M14.9999 11.5715H17.1427C17.2564 11.5715 17.3654 11.5263 17.4458 11.446C17.5261 11.3656 17.5713 11.2566 17.5713 11.1429C17.5713 11.0293 17.5261 10.9203 17.4458 10.8399C17.3654 10.7595 17.2564 10.7144 17.1427 10.7144H14.9999C14.8862 10.7144 14.7772 10.7595 14.6968 10.8399C14.6164 10.9203 14.5713 11.0293 14.5713 11.1429C14.5713 11.2566 14.6164 11.3656 14.6968 11.446C14.7772 11.5263 14.8862 11.5715 14.9999 11.5715Z" fill="#E53935"/>
<path d="M9.21401 15.4285H22.9283C23.2123 15.4282 23.4847 15.3152 23.6855 15.1144C23.8864 14.9135 23.9994 14.6412 23.9997 14.3571V13.9285C23.9991 13.6753 23.9087 13.4305 23.7447 13.2376C23.5807 13.0447 23.3536 12.9162 23.1037 12.8748C22.8037 10.0856 20.6783 7.73804 17.7854 7.05643V5.99997C17.7852 5.77271 17.6948 5.55483 17.5341 5.39414C17.3734 5.23345 17.1555 5.14306 16.9283 5.14282H15.214C14.9868 5.14306 14.7689 5.23345 14.6082 5.39414C14.4475 5.55483 14.3571 5.77271 14.3569 5.99997V7.05643C11.464 7.73804 9.33856 10.0856 9.03855 12.8748C8.78873 12.9162 8.56163 13.0447 8.3976 13.2376C8.23357 13.4305 8.14321 13.6753 8.14258 13.9285V14.3571C8.14291 14.6412 8.2559 14.9135 8.45676 15.1144C8.65762 15.3152 8.92995 15.4282 9.21401 15.4285ZM14.8635 7.82558C14.9619 7.80734 15.0509 7.7552 15.1149 7.67822C15.179 7.60123 15.214 7.50425 15.214 7.40412V5.99997H16.9283V7.40412C16.9283 7.50426 16.9633 7.60123 17.0274 7.67822C17.0914 7.75521 17.1803 7.80735 17.2788 7.82558C19.9344 8.31702 21.9208 10.378 22.2383 12.8571H20.5711V11.5714C20.5711 11.4577 20.526 11.3487 20.4456 11.2683C20.3653 11.188 20.2562 11.1428 20.1426 11.1428C20.0289 11.1428 19.9199 11.188 19.8395 11.2683C19.7592 11.3487 19.714 11.4577 19.714 11.5714V12.8571H12.4283V11.5714C12.4283 11.4577 12.3831 11.3487 12.3028 11.2683C12.2224 11.188 12.1134 11.1428 11.9997 11.1428C11.8861 11.1428 11.777 11.188 11.6967 11.2683C11.6163 11.3487 11.5711 11.4577 11.5711 11.5714V12.8571H9.90403C10.2215 10.378 12.2079 8.31702 14.8635 7.82558ZM8.99972 13.9285C8.99978 13.8717 9.02237 13.8173 9.06255 13.7771C9.10272 13.7369 9.15719 13.7143 9.21401 13.7143H22.9283C22.9851 13.7143 23.0396 13.7369 23.0798 13.7771C23.1199 13.8173 23.1425 13.8717 23.1426 13.9285V14.3571C23.1425 14.4139 23.1199 14.4684 23.0798 14.5086C23.0396 14.5487 22.9851 14.5713 22.9283 14.5714H9.21401C9.15719 14.5713 9.10272 14.5487 9.06255 14.5086C9.02237 14.4684 8.99978 14.4139 8.99972 14.3571V13.9285Z" fill="#101010"/>
<path d="M0.428571 32.5715C0.665265 32.5715 0.857143 32.3796 0.857143 32.1429C0.857143 31.9062 0.665265 31.7144 0.428571 31.7144C0.191878 31.7144 0 31.9062 0 32.1429C0 32.3796 0.191878 32.5715 0.428571 32.5715Z" fill="#101010"/>
<path d="M2.35756 31.7144H1.7147C1.60104 31.7144 1.49203 31.7595 1.41166 31.8399C1.33129 31.9203 1.28613 32.0293 1.28613 32.1429C1.28613 32.2566 1.33129 32.3656 1.41166 32.446C1.49203 32.5263 1.60104 32.5715 1.7147 32.5715H2.35756C2.47123 32.5715 2.58023 32.5263 2.66061 32.446C2.74098 32.3656 2.78613 32.2566 2.78613 32.1429C2.78613 32.0293 2.74098 31.9203 2.66061 31.8399C2.58023 31.7595 2.47123 31.7144 2.35756 31.7144Z" fill="#101010"/>
<path d="M34.2853 31.7144H33.6424C33.5288 31.7144 33.4198 31.7595 33.3394 31.8399C33.259 31.9203 33.2139 32.0293 33.2139 32.1429C33.2139 32.2566 33.259 32.3656 33.3394 32.446C33.4198 32.5263 33.5288 32.5715 33.6424 32.5715H34.2853C34.399 32.5715 34.508 32.5263 34.5883 32.446C34.6687 32.3656 34.7139 32.2566 34.7139 32.1429C34.7139 32.0293 34.6687 31.9203 34.5883 31.8399C34.508 31.7595 34.399 31.7144 34.2853 31.7144Z" fill="#101010"/>
<path d="M35.5711 32.5715C35.8078 32.5715 35.9997 32.3796 35.9997 32.1429C35.9997 31.9062 35.8078 31.7144 35.5711 31.7144C35.3345 31.7144 35.1426 31.9062 35.1426 32.1429C35.1426 32.3796 35.3345 32.5715 35.5711 32.5715Z" fill="#101010"/>
<path d="M25.3184 33.4285H23.5382C23.4304 33.4371 23.3299 33.486 23.2566 33.5654C23.1833 33.6448 23.1426 33.749 23.1426 33.857C23.1426 33.9651 23.1833 34.0692 23.2566 34.1487C23.3299 34.2281 23.4304 34.277 23.5382 34.2856H25.3184C25.4262 34.277 25.5267 34.2281 25.6 34.1487C25.6733 34.0692 25.714 33.9651 25.714 33.857C25.714 33.749 25.6733 33.6448 25.6 33.5654C25.5267 33.486 25.4262 33.4371 25.3184 33.4285Z" fill="#E53935"/>
<path d="M12.462 33.4285H10.6817C10.574 33.4371 10.4735 33.486 10.4002 33.5654C10.3268 33.6448 10.2861 33.749 10.2861 33.857C10.2861 33.9651 10.3268 34.0692 10.4002 34.1487C10.4735 34.2281 10.574 34.277 10.6817 34.2856H12.462C12.5697 34.277 12.6702 34.2281 12.7436 34.1487C12.8169 34.0692 12.8576 33.9651 12.8576 33.857C12.8576 33.749 12.8169 33.6448 12.7436 33.5654C12.6702 33.486 12.5697 33.4371 12.462 33.4285Z" fill="#E53935"/>
<path d="M22.2861 33.4285H13.7147C13.601 33.4285 13.492 33.4736 13.4117 33.554C13.3313 33.6344 13.2861 33.7434 13.2861 33.857C13.2861 33.9707 13.3313 34.0797 13.4117 34.1601C13.492 34.2405 13.601 34.2856 13.7147 34.2856H17.1304V34.7142H15.429C15.3153 34.7142 15.2063 34.7593 15.1259 34.8397C15.0456 34.9201 15.0004 35.0291 15.0004 35.1428C15.0004 35.2564 15.0456 35.3654 15.1259 35.4458C15.2063 35.5262 15.3153 35.5713 15.429 35.5713H20.7861C20.8998 35.5713 21.0088 35.5262 21.0892 35.4458C21.1696 35.3654 21.2147 35.2564 21.2147 35.1428C21.2147 35.0291 21.1696 34.9201 21.0892 34.8397C21.0088 34.7593 20.8998 34.7142 20.7861 34.7142H18.8704V34.2856H22.2861C22.3998 34.2856 22.5088 34.2405 22.5892 34.1601C22.6696 34.0797 22.7147 33.9707 22.7147 33.857C22.7147 33.7434 22.6696 33.6344 22.5892 33.554C22.5088 33.4736 22.3998 33.4285 22.2861 33.4285Z" fill="#E53935"/>
<path d="M32.2979 31.7141H27.2478C27.2694 31.6336 27.2821 31.551 27.2855 31.4677C27.5541 31.3812 27.8151 31.273 28.0661 31.1441C28.0627 31.1458 28.4165 31.3696 28.4608 31.3854C28.6649 31.457 28.885 31.4697 29.096 31.4223C29.3071 31.3748 29.5005 31.269 29.6544 31.1169L30.2604 30.5109C30.4697 30.3011 30.5894 30.0184 30.5945 29.7222C30.5995 29.426 30.4895 29.1394 30.2875 28.9227C30.4165 28.6717 30.5247 28.4106 30.6112 28.142C30.9072 28.1315 31.1876 28.0066 31.3934 27.7936C31.5992 27.5806 31.7144 27.2961 31.7148 26.9999V26.1427C31.7144 25.8465 31.5992 25.562 31.3934 25.349C31.1876 25.136 30.9072 25.0111 30.6112 25.0005C30.5247 24.7319 30.4165 24.4709 30.2875 24.2199C30.4895 24.0032 30.5995 23.7166 30.5945 23.4203C30.5894 23.1241 30.4697 22.8414 30.2604 22.6317L29.6544 22.0256C29.4428 21.8198 29.1607 21.7025 28.8656 21.6975C28.5705 21.6924 28.2846 21.8001 28.0661 21.9985C27.8152 21.8695 27.5541 21.7613 27.2855 21.6749C27.275 21.3789 27.1501 21.0985 26.9371 20.8927C26.7241 20.6868 26.4395 20.5716 26.1433 20.5713H25.2862C24.99 20.5716 24.7055 20.6868 24.4925 20.8927C24.2794 21.0985 24.1545 21.3789 24.144 21.6749C23.8754 21.7613 23.6144 21.8695 23.3634 21.9985C23.3636 21.9984 23.0563 21.791 23.0169 21.7756C22.8079 21.6925 22.5793 21.6719 22.3589 21.7163C22.1385 21.7607 21.9357 21.8681 21.7752 22.0256L21.1691 22.6317C20.9598 22.8414 20.8401 23.1241 20.8351 23.4203C20.83 23.7166 20.94 24.0032 21.142 24.2199C21.013 24.4709 20.9048 24.7319 20.8184 25.0005C20.5223 25.0111 20.2419 25.136 20.0361 25.349C19.8303 25.562 19.7151 25.8465 19.7148 26.1427V26.9999C19.7151 27.2961 19.8303 27.5806 20.0361 27.7936C20.2419 28.0066 20.5223 28.1315 20.8184 28.142C20.9048 28.4106 21.013 28.6717 21.142 28.9226C20.94 29.1394 20.83 29.426 20.8351 29.7222C20.8401 30.0184 20.9598 30.3011 21.1691 30.5109L21.7752 31.117C21.9863 31.3236 22.2685 31.4416 22.5639 31.4466C22.8593 31.4517 23.1454 31.3434 23.3634 31.1441C23.6144 31.273 23.8754 31.3812 24.144 31.4677C24.1475 31.551 24.1601 31.6336 24.1817 31.7141H5.49406C5.30405 31.7141 5.14334 31.5939 5.14334 31.4515V26.3045C5.14334 23.8521 7.45528 21.857 10.2971 21.857H12.7002C12.3347 21.605 11.9947 21.3179 11.6851 20.9999H10.2971C6.98277 20.9999 4.28619 23.3795 4.28619 26.3045V31.4515C4.28658 31.5402 4.29831 31.6285 4.32112 31.7141H3.70306C3.64209 31.7062 3.58012 31.7113 3.52129 31.7292C3.46246 31.7471 3.40813 31.7773 3.36192 31.8179C3.31571 31.8585 3.27869 31.9084 3.25333 31.9644C3.22796 32.0204 3.21484 32.0812 3.21484 32.1427C3.21484 32.2042 3.22796 32.265 3.25333 32.321C3.27869 32.377 3.31571 32.427 3.36192 32.4675C3.40813 32.5081 3.46246 32.5383 3.52129 32.5562C3.58012 32.5741 3.64209 32.5793 3.70306 32.5713H32.2979C32.3589 32.5793 32.4208 32.5741 32.4797 32.5562C32.5385 32.5383 32.5928 32.5081 32.639 32.4675C32.6852 32.427 32.7223 32.377 32.7476 32.321C32.773 32.265 32.7861 32.2042 32.7861 32.1427C32.7861 32.0812 32.773 32.0204 32.7476 31.9644C32.7223 31.9084 32.6852 31.8585 32.639 31.8179C32.5928 31.7773 32.5385 31.7471 32.4797 31.7292C32.4208 31.7113 32.3589 31.7062 32.2979 31.7141ZM25.2862 31.7141C25.2487 31.7141 25.2115 31.7068 25.1769 31.6924C25.1422 31.678 25.1107 31.657 25.0842 31.6305C25.0576 31.6039 25.0366 31.5724 25.0222 31.5378C25.0079 31.5031 25.0005 31.4659 25.0005 31.4284V30.7966C24.3632 30.6896 23.7586 30.439 23.2324 30.0638L22.7853 30.5109C22.7306 30.5623 22.6584 30.591 22.5833 30.591C22.5082 30.591 22.4359 30.5623 22.3813 30.5109L21.7752 29.9048C21.7216 29.8512 21.6915 29.7785 21.6915 29.7028C21.6915 29.627 21.7216 29.5543 21.7752 29.5007L22.2222 29.0536C21.8471 28.5275 21.5965 27.9229 21.4894 27.2856H20.8576C20.8201 27.2856 20.7829 27.2782 20.7483 27.2638C20.7136 27.2495 20.6821 27.2284 20.6556 27.2019C20.6291 27.1754 20.608 27.1439 20.5937 27.1092C20.5793 27.0745 20.5719 27.0374 20.5719 26.9999V26.1427C20.5719 26.1052 20.5793 26.068 20.5937 26.0334C20.608 25.9987 20.6291 25.9672 20.6556 25.9407C20.6821 25.9142 20.7136 25.8931 20.7483 25.8787C20.7829 25.8644 20.8201 25.857 20.8576 25.857H21.4894C21.5965 25.2197 21.8471 24.6151 22.2223 24.0889L21.7752 23.6418C21.7216 23.5882 21.6915 23.5156 21.6915 23.4398C21.6915 23.364 21.7216 23.2914 21.7752 23.2378L22.3813 22.6317C22.4357 22.5797 22.508 22.5507 22.5833 22.5507C22.6585 22.5507 22.7309 22.5797 22.7853 22.6317L23.2324 23.0788C23.7586 22.7036 24.3632 22.453 25.0005 22.346V21.7141C25.0005 21.6384 25.0306 21.5657 25.0842 21.5121C25.1378 21.4585 25.2104 21.4284 25.2862 21.4284H26.1433C26.1809 21.4284 26.218 21.4358 26.2527 21.4502C26.2873 21.4645 26.3188 21.4856 26.3454 21.5121C26.3719 21.5386 26.3929 21.5701 26.4073 21.6048C26.4217 21.6395 26.429 21.6766 26.429 21.7141V22.346C27.0663 22.453 27.671 22.7036 28.1971 23.0788L28.6442 22.6317C28.6982 22.5788 28.7707 22.5492 28.8462 22.5492C28.9218 22.5492 28.9943 22.5788 29.0483 22.6317L29.6544 23.2378C29.7079 23.2914 29.738 23.364 29.738 23.4398C29.738 23.5156 29.7079 23.5883 29.6544 23.6418L29.2073 24.0889C29.5825 24.6151 29.8331 25.2197 29.9401 25.857H30.5719C30.6477 25.857 30.7204 25.8871 30.7739 25.9407C30.8275 25.9943 30.8576 26.0669 30.8576 26.1427V26.9999C30.8576 27.0374 30.8502 27.0745 30.8359 27.1092C30.8215 27.1439 30.8005 27.1754 30.7739 27.2019C30.7474 27.2284 30.7159 27.2495 30.6812 27.2638C30.6466 27.2782 30.6094 27.2856 30.5719 27.2856H29.9401C29.8331 27.9229 29.5825 28.5275 29.2073 29.0536L29.6544 29.5007C29.7079 29.5543 29.738 29.627 29.738 29.7028C29.738 29.7785 29.7079 29.8512 29.6544 29.9048L29.0483 30.5109C28.9939 30.5629 28.9215 30.592 28.8462 30.592C28.771 30.592 28.6986 30.5629 28.6442 30.5109L28.1971 30.0638C27.6709 30.439 27.0663 30.6896 26.429 30.7966V31.4284C26.429 31.5042 26.3989 31.5769 26.3454 31.6305C26.2918 31.684 26.2191 31.7141 26.1433 31.7141H25.2862Z" fill="#101010"/>
</svg>
