<svg width="36" height="36" viewBox="0 0 36 36" fill="none" xmlns="http://www.w3.org/2000/svg">
<path d="M0.428571 32.3037C0.665265 32.3037 0.857143 32.1118 0.857143 31.8751C0.857143 31.6384 0.665265 31.4465 0.428571 31.4465C0.191878 31.4465 0 31.6384 0 31.8751C0 32.1118 0.191878 32.3037 0.428571 32.3037Z" fill="#101010"/>
<path d="M2.35756 31.4465H1.7147C1.60104 31.4465 1.49203 31.4917 1.41166 31.5721C1.33129 31.6524 1.28613 31.7614 1.28613 31.8751C1.28613 31.9888 1.33129 32.0978 1.41166 32.1782C1.49203 32.2585 1.60104 32.3037 1.7147 32.3037H2.35756C2.47123 32.3037 2.58023 32.2585 2.66061 32.1782C2.74098 32.0978 2.78613 31.9888 2.78613 31.8751C2.78613 31.7614 2.74098 31.6524 2.66061 31.5721C2.58023 31.4917 2.47123 31.4465 2.35756 31.4465Z" fill="#101010"/>
<path d="M34.2853 31.4465H33.6424C33.5288 31.4465 33.4198 31.4917 33.3394 31.5721C33.259 31.6524 33.2139 31.7614 33.2139 31.8751C33.2139 31.9888 33.259 32.0978 33.3394 32.1782C33.4198 32.2585 33.5288 32.3037 33.6424 32.3037H34.2853C34.399 32.3037 34.508 32.2585 34.5883 32.1782C34.6687 32.0978 34.7139 31.9888 34.7139 31.8751C34.7139 31.7614 34.6687 31.6524 34.5883 31.5721C34.508 31.4917 34.399 31.4465 34.2853 31.4465Z" fill="#101010"/>
<path d="M35.5711 32.3037C35.8078 32.3037 35.9997 32.1118 35.9997 31.8751C35.9997 31.6384 35.8078 31.4465 35.5711 31.4465C35.3345 31.4465 35.1426 31.6384 35.1426 31.8751C35.1426 32.1118 35.3345 32.3037 35.5711 32.3037Z" fill="#101010"/>
<path d="M25.3184 33.1606H23.5382C23.4304 33.1693 23.3299 33.2182 23.2566 33.2976C23.1833 33.377 23.1426 33.4811 23.1426 33.5892C23.1426 33.6973 23.1833 33.8014 23.2566 33.8808C23.3299 33.9603 23.4304 34.0092 23.5382 34.0178H25.3184C25.4262 34.0092 25.5267 33.9603 25.6 33.8808C25.6733 33.8014 25.714 33.6973 25.714 33.5892C25.714 33.4811 25.6733 33.377 25.6 33.2976C25.5267 33.2182 25.4262 33.1693 25.3184 33.1606Z" fill="#E53935"/>
<path d="M12.462 33.1606H10.6817C10.574 33.1693 10.4735 33.2182 10.4002 33.2976C10.3268 33.377 10.2861 33.4811 10.2861 33.5892C10.2861 33.6973 10.3268 33.8014 10.4002 33.8808C10.4735 33.9603 10.574 34.0092 10.6817 34.0178H12.462C12.5697 34.0092 12.6702 33.9603 12.7436 33.8808C12.8169 33.8014 12.8576 33.6973 12.8576 33.5892C12.8576 33.4811 12.8169 33.377 12.7436 33.2976C12.6702 33.2182 12.5697 33.1693 12.462 33.1606Z" fill="#E53935"/>
<path d="M22.2861 33.1606H13.7147C13.601 33.1606 13.492 33.2058 13.4117 33.2862C13.3313 33.3665 13.2861 33.4756 13.2861 33.5892C13.2861 33.7029 13.3313 33.8119 13.4117 33.8923C13.492 33.9726 13.601 34.0178 13.7147 34.0178H17.1304V34.4464H15.429C15.3153 34.4464 15.2063 34.4915 15.1259 34.5719C15.0456 34.6523 15.0004 34.7613 15.0004 34.8749C15.0004 34.9886 15.0456 35.0976 15.1259 35.178C15.2063 35.2583 15.3153 35.3035 15.429 35.3035H20.7861C20.8998 35.3035 21.0088 35.2583 21.0892 35.178C21.1696 35.0976 21.2147 34.9886 21.2147 34.8749C21.2147 34.7613 21.1696 34.6523 21.0892 34.5719C21.0088 34.4915 20.8998 34.4464 20.7861 34.4464H18.8704V34.0178H22.2861C22.3998 34.0178 22.5088 33.9726 22.5892 33.8923C22.6696 33.8119 22.7147 33.7029 22.7147 33.5892C22.7147 33.4756 22.6696 33.3665 22.5892 33.2862C22.5088 33.2058 22.3998 33.1606 22.2861 33.1606Z" fill="#E53935"/>
<path d="M10.5654 11.3812C12.403 11.3812 15.5195 11.0266 17.9997 8.9465C18.7325 9.5567 19.5521 10.0544 20.4316 10.4232L21.17 9.78924C20.2176 9.44266 19.3316 8.9355 18.5505 8.28975C18.3961 8.16031 18.2011 8.08936 17.9997 8.08936C17.7982 8.08936 17.6032 8.16031 17.4489 8.28975C15.1309 10.2338 12.1412 10.5241 10.5654 10.5241C10.0877 10.5281 9.61021 10.4997 9.13634 10.439C9.01562 10.4206 8.89236 10.4281 8.77477 10.4611C8.65719 10.494 8.548 10.5517 8.4545 10.6303C8.361 10.7088 8.28534 10.8064 8.23257 10.9166C8.17981 11.0267 8.15115 11.1468 8.14853 11.2689C8.07905 14.7286 8.62408 17.5524 9.46456 19.8386L10.1568 19.2443C9.40773 17.0901 8.94164 14.4661 9.0055 11.2861C9.5226 11.3542 10.0438 11.386 10.5654 11.3812Z" fill="#E53935"/>
<path d="M18.0008 29.0893L18.0058 29.0893C18.0843 29.0887 18.1624 29.0773 18.2379 29.0556L18.2364 29.0506C18.7613 28.8629 19.2647 28.6199 19.7381 28.3256C20.8326 27.6645 21.8382 26.8665 22.7308 25.9509C25.1516 23.4811 28.0049 18.929 27.8511 11.2689C27.8487 11.1466 27.8201 11.0263 27.7673 10.916C27.7145 10.8056 27.6387 10.7079 27.5449 10.6293C27.4512 10.5507 27.3418 10.4931 27.224 10.4603C27.1061 10.4275 26.9826 10.4203 26.8618 10.4392C26.8602 10.4395 26.7755 10.4521 26.6237 10.4675L25.5604 11.3804C26.0398 11.3804 26.5188 11.3489 26.9941 11.2861C27.2634 24.6917 18.1241 28.2322 18.0008 28.2322L18 28.2321L17.9991 28.2322C17.9257 28.2322 14.5931 26.9515 12.0049 23.018L11.3516 23.5789C11.915 24.4278 12.557 25.2219 13.269 25.9507C14.1617 26.8663 15.1675 27.6644 16.2621 28.3256C16.7368 28.6208 17.2417 28.8643 17.7683 29.0519L17.7669 29.0569C17.8409 29.0778 17.9173 29.0887 17.9942 29.0893L17.9991 29.0893L18.0008 29.0893Z" fill="#E53935"/>
<path d="M18.815 13.3961C18.7591 13.2238 18.6501 13.0737 18.5037 12.9673C18.3572 12.8608 18.1808 12.8035 17.9997 12.8035C17.8186 12.8035 17.6422 12.8608 17.4958 12.9673C17.3493 13.0737 17.2403 13.2238 17.1844 13.3961L16.3144 16.0775H13.4997C13.3188 16.0775 13.1424 16.1347 12.996 16.2411C12.8496 16.3474 12.7406 16.4974 12.6846 16.6695C12.6286 16.8416 12.6286 17.0269 12.6844 17.1991C12.7402 17.3712 12.8491 17.5213 12.9954 17.6277L15.2736 19.2852L14.4033 21.9675C14.3474 22.1397 14.3475 22.3252 14.4035 22.4973C14.4595 22.6694 14.5686 22.8194 14.7151 22.9258C14.8616 23.0321 15.038 23.0893 15.2191 23.0892C15.4001 23.0891 15.5764 23.0317 15.7228 22.9252L17.9997 21.2686L20.2766 22.9252C20.423 23.0317 20.5993 23.0891 20.7804 23.0892C20.9614 23.0893 21.1378 23.0321 21.2843 22.9258C21.4308 22.8194 21.5399 22.6694 21.5959 22.4973C21.6519 22.3252 21.652 22.1397 21.5962 21.9675L20.7258 19.2852L22.99 17.6379C23.1397 17.5337 23.2523 17.3844 23.3113 17.2118C23.3703 17.0392 23.3727 16.8522 23.3181 16.6781C23.2636 16.504 23.1549 16.3519 23.0079 16.2439C22.8609 16.1359 22.6832 16.0775 22.5008 16.0775H19.685L18.815 13.3961ZM19.7186 18.9581L20.7809 22.232L17.9997 20.2086L15.2186 22.232L16.2809 18.9581L13.4997 16.9346H16.9374L17.9997 13.6606L19.062 16.9346H22.4997L19.7186 18.9581Z" fill="#E53935"/>
<path d="M32.2979 31.4464H19.9376C20.0157 31.4008 20.0726 31.3668 20.0977 31.3517C21.479 30.5082 22.7492 29.4951 23.8787 28.336C27.0724 25.0787 30.8371 19.0514 30.6355 8.83476C30.6331 8.71226 30.6045 8.5917 30.5515 8.4812C30.4986 8.37071 30.4225 8.27286 30.3285 8.19424C30.2346 8.11562 30.1248 8.05806 30.0067 8.02544C29.8886 7.99283 29.7649 7.98591 29.6439 8.00516C29.0113 8.08792 28.3738 8.12672 27.7358 8.12129C25.6378 8.12129 21.6555 7.72621 18.5571 5.08031C18.4019 4.9478 18.2045 4.875 18.0005 4.875C17.7964 4.875 17.5991 4.9478 17.4439 5.08031C14.3454 7.72621 10.3631 8.12129 8.26511 8.12129C7.62679 8.12672 6.98885 8.08786 6.3559 8.00498C6.23499 7.98605 6.11143 7.99321 5.99351 8.02598C5.87559 8.05874 5.76605 8.11635 5.67224 8.19495C5.57842 8.27354 5.50251 8.3713 5.44959 8.48165C5.39667 8.592 5.36798 8.7124 5.36543 8.83476C5.16392 19.0512 8.92851 25.0784 12.1221 28.3356C13.2518 29.4948 14.5221 30.5081 15.9036 31.3517C15.9287 31.3668 15.9856 31.4008 16.0638 31.4464H3.70306C3.64209 31.4385 3.58012 31.4436 3.52129 31.4615C3.46246 31.4794 3.40813 31.5096 3.36192 31.5502C3.31571 31.5908 3.27869 31.6407 3.25333 31.6967C3.22796 31.7527 3.21484 31.8135 3.21484 31.875C3.21484 31.9365 3.22796 31.9973 3.25333 32.0533C3.27869 32.1093 3.31571 32.1593 3.36192 32.1998C3.40813 32.2404 3.46246 32.2706 3.52129 32.2885C3.58012 32.3064 3.64209 32.3115 3.70306 32.3036H32.2979C32.3589 32.3115 32.4208 32.3064 32.4797 32.2885C32.5385 32.2706 32.5928 32.2404 32.639 32.1998C32.6852 32.1593 32.7223 32.1093 32.7476 32.0533C32.773 31.9973 32.7861 31.9365 32.7861 31.875C32.7861 31.8135 32.773 31.7527 32.7476 31.6967C32.7223 31.6407 32.6852 31.5908 32.639 31.5502C32.5928 31.5096 32.5385 31.4794 32.4797 31.4615C32.4208 31.4436 32.3589 31.4385 32.2979 31.4464ZM6.2224 8.85166C6.89943 8.94243 7.58206 8.98479 8.26511 8.97842C10.6715 8.97842 14.7527 8.5056 18.0005 5.73214C21.248 8.50535 25.3294 8.97842 27.7358 8.97842C28.4189 8.98481 29.1015 8.94245 29.7786 8.85166C30.1311 26.7257 18.163 31.4464 18.0016 31.4464L18.0005 31.4463L17.9994 31.4464C17.8394 31.4464 5.86983 26.7268 6.2224 8.85166Z" fill="#101010"/>
</svg>
