<svg width="36" height="36" viewBox="0 0 36 36" fill="none" xmlns="http://www.w3.org/2000/svg">
<path d="M16.7144 15.9131V14.9971C15.797 15.3024 15.0182 15.9243 14.5174 16.7514C14.0166 17.5786 13.8265 18.5569 13.9811 19.5114C14.1358 20.4659 14.6251 21.3342 15.3615 21.9608C16.0979 22.5875 17.0332 22.9316 18.0001 22.9316C18.9671 22.9316 19.9024 22.5875 20.6388 21.9608C21.3752 21.3342 21.8645 20.4659 22.0192 19.5114C22.1738 18.5569 21.9837 17.5786 21.4829 16.7514C20.9821 15.9243 20.2033 15.3024 19.2859 14.9971V15.9131C19.9627 16.2085 20.5171 16.7279 20.856 17.384C21.1949 18.0401 21.2975 18.7929 21.1466 19.5158C20.9958 20.2386 20.6006 20.8875 20.0276 21.3533C19.4545 21.8191 18.7386 22.0733 18.0001 22.0733C17.2617 22.0733 16.5458 21.8191 15.9727 21.3533C15.3997 20.8875 15.0045 20.2386 14.8537 19.5158C14.7028 18.7929 14.8054 18.0401 15.1443 17.384C15.4832 16.7279 16.0376 16.2085 16.7144 15.9131Z" fill="#E53935"/>
<path d="M17.5717 16.7574C17.0514 16.8636 16.5891 17.1592 16.2743 17.5869C15.9596 18.0146 15.8149 18.544 15.8683 19.0723C15.9217 19.6007 16.1693 20.0904 16.5632 20.4465C16.9571 20.8026 17.4693 20.9998 18.0003 20.9998C18.5313 20.9998 19.0434 20.8026 19.4374 20.4465C19.8313 20.0904 20.0789 19.6007 20.1323 19.0723C20.1857 18.544 20.041 18.0146 19.7262 17.5869C19.4115 17.1592 18.9492 16.8636 18.4289 16.7574V9.85704C18.4289 9.74337 18.3837 9.63436 18.3033 9.55399C18.223 9.47362 18.1139 9.42847 18.0003 9.42847C17.8866 9.42847 17.7776 9.47362 17.6972 9.55399C17.6169 9.63436 17.5717 9.74337 17.5717 9.85704V16.7574ZM18.0003 17.5713C18.2546 17.5713 18.5032 17.6467 18.7146 17.788C18.926 17.9293 19.0908 18.1301 19.1881 18.365C19.2854 18.6 19.3109 18.8585 19.2613 19.1079C19.2117 19.3573 19.0892 19.5864 18.9094 19.7662C18.7296 19.946 18.5005 20.0684 18.2511 20.118C18.0017 20.1677 17.7432 20.1422 17.5083 20.0449C17.2733 19.9476 17.0725 19.7828 16.9313 19.5713C16.79 19.3599 16.7146 19.1113 16.7146 18.857C16.7149 18.5162 16.8505 18.1894 17.0916 17.9483C17.3326 17.7073 17.6594 17.5717 18.0003 17.5713Z" fill="#101010"/>
<path d="M17.9999 19.2856C18.2366 19.2856 18.4284 19.0937 18.4284 18.857C18.4284 18.6203 18.2366 18.4285 17.9999 18.4285C17.7632 18.4285 17.5713 18.6203 17.5713 18.857C17.5713 19.0937 17.7632 19.2856 17.9999 19.2856Z" fill="#E53935"/>
<path d="M17.9999 8.57146C18.1135 8.57146 18.2225 8.5263 18.3029 8.44593C18.3833 8.36556 18.4284 8.25655 18.4284 8.14289V7.28575C18.4284 7.17208 18.3833 7.06308 18.3029 6.9827C18.2225 6.90233 18.1135 6.85718 17.9999 6.85718C17.8862 6.85718 17.7772 6.90233 17.6968 6.9827C17.6164 7.06308 17.5713 7.17208 17.5713 7.28575V8.14289C17.5713 8.25655 17.6164 8.36556 17.6968 8.44593C17.7772 8.5263 17.8862 8.57146 17.9999 8.57146Z" fill="#101010"/>
<path d="M13.8984 9.37695C13.9688 9.37685 14.0381 9.3594 14.1002 9.32614C14.1623 9.29288 14.2153 9.24483 14.2544 9.18625C14.2935 9.12766 14.3176 9.06035 14.3245 8.99025C14.3314 8.92015 14.321 8.84942 14.2941 8.78432L13.9661 7.99236C13.9226 7.88735 13.8392 7.80392 13.7342 7.76042C13.6292 7.71692 13.5112 7.7169 13.4062 7.76039C13.3012 7.80387 13.2177 7.88729 13.1742 7.99229C13.1307 8.09729 13.1307 8.21527 13.1742 8.32028L13.5022 9.11223C13.5347 9.1906 13.5896 9.25759 13.6601 9.30472C13.7306 9.35184 13.8136 9.37698 13.8984 9.37695Z" fill="#E53935"/>
<path d="M10.4158 11.6906C10.5006 11.6906 10.5834 11.6654 10.6539 11.6183C10.7243 11.5712 10.7793 11.5043 10.8117 11.426C10.8441 11.3477 10.8526 11.2615 10.8361 11.1784C10.8196 11.0953 10.7788 11.0189 10.7188 10.959L10.1128 10.353C10.0324 10.2729 9.92346 10.2279 9.80995 10.228C9.69644 10.2281 9.58761 10.2733 9.50735 10.3535C9.42708 10.4338 9.38194 10.5426 9.38184 10.6561C9.38173 10.7697 9.42666 10.8786 9.50677 10.959L10.1128 11.565C10.1525 11.6049 10.1998 11.6365 10.2518 11.658C10.3038 11.6796 10.3595 11.6906 10.4158 11.6906Z" fill="#101010"/>
<path d="M8.24881 14.3363L7.45685 14.0083C7.3519 13.9651 7.2341 13.9653 7.1293 14.0089C7.0245 14.0524 6.94126 14.1358 6.89784 14.2406C6.85442 14.3455 6.85436 14.4633 6.89769 14.5682C6.94101 14.6731 7.02418 14.7565 7.12894 14.8002L7.92089 15.1282C8.02584 15.1714 8.14364 15.1712 8.24844 15.1276C8.35324 15.0841 8.43648 15.0007 8.4799 14.8959C8.52333 14.791 8.52338 14.6732 8.48006 14.5683C8.43673 14.4634 8.35357 14.38 8.24881 14.3363Z" fill="#E53935"/>
<path d="M7.68792 18.8304C7.68791 18.7168 7.64276 18.6078 7.56239 18.5274C7.48202 18.447 7.37301 18.4019 7.25935 18.4019H6.4022C6.28854 18.4019 6.17953 18.447 6.09916 18.5274C6.01879 18.6078 5.97363 18.7168 5.97363 18.8304C5.97363 18.9441 6.01879 19.0531 6.09916 19.1335C6.17953 19.2138 6.28854 19.259 6.4022 19.259H7.25935C7.37301 19.259 7.48202 19.2138 7.56239 19.1335C7.64276 19.0531 7.68791 18.9441 7.68792 18.8304Z" fill="#101010"/>
<path d="M7.27248 23.6894C7.32873 23.6893 7.38441 23.6781 7.43634 23.6565L8.2283 23.3284C8.28029 23.3069 8.32753 23.2753 8.36732 23.2355C8.40711 23.1957 8.43867 23.1484 8.4602 23.0964C8.48174 23.0444 8.49281 22.9887 8.49281 22.9324C8.4928 22.8761 8.4817 22.8204 8.46016 22.7684C8.43861 22.7164 8.40704 22.6692 8.36724 22.6294C8.32744 22.5896 8.28018 22.558 8.22818 22.5365C8.17619 22.515 8.12045 22.5039 8.06417 22.5039C8.00789 22.5039 7.95216 22.515 7.90017 22.5366L7.10821 22.8647C7.01661 22.9027 6.94101 22.9712 6.8943 23.0587C6.84758 23.1462 6.83264 23.2472 6.85201 23.3444C6.87138 23.4417 6.92387 23.5292 7.00054 23.5921C7.07721 23.655 7.17332 23.6894 7.27248 23.6894Z" fill="#E53935"/>
<path d="M27.6973 23.3781L28.4893 23.706C28.5942 23.7492 28.712 23.749 28.8168 23.7054C28.9216 23.6618 29.0048 23.5785 29.0483 23.4736C29.0917 23.3688 29.0917 23.251 29.0484 23.1461C29.0051 23.0412 28.9219 22.9578 28.8172 22.9141L28.0252 22.5862C27.9203 22.543 27.8025 22.5432 27.6977 22.5868C27.5929 22.6303 27.5096 22.7137 27.4662 22.8185C27.4228 22.9234 27.4227 23.0412 27.466 23.1461C27.5094 23.251 27.5925 23.3344 27.6973 23.3781Z" fill="#E53935"/>
<path d="M28.2588 18.8839C28.2588 18.9976 28.3039 19.1066 28.3843 19.1869C28.4647 19.2673 28.5737 19.3125 28.6874 19.3125H29.5445C29.6582 19.3125 29.7672 19.2673 29.8475 19.1869C29.9279 19.1066 29.9731 18.9976 29.9731 18.8839C29.9731 18.7702 29.9279 18.6612 29.8475 18.5808C29.7672 18.5005 29.6582 18.4553 29.5445 18.4553H28.6874C28.5737 18.4553 28.4647 18.5005 28.3843 18.5809C28.3039 18.6612 28.2588 18.7702 28.2588 18.8839Z" fill="#101010"/>
<path d="M28.5105 14.0579L27.7186 14.3859C27.6665 14.4073 27.6191 14.4389 27.5792 14.4786C27.5393 14.5184 27.5076 14.5657 27.4859 14.6177C27.4643 14.6698 27.4532 14.7255 27.4531 14.7819C27.4531 14.8383 27.4642 14.8941 27.4857 14.9461C27.5073 14.9982 27.5389 15.0455 27.5788 15.0853C27.6186 15.1252 27.666 15.1567 27.7181 15.1783C27.7702 15.1998 27.826 15.2108 27.8823 15.2107C27.9387 15.2106 27.9945 15.1994 28.0465 15.1777L28.8384 14.8497C28.8906 14.8283 28.9379 14.7968 28.9779 14.757C29.0178 14.7172 29.0495 14.6699 29.0711 14.6179C29.0927 14.5659 29.1039 14.5101 29.1039 14.4537C29.1039 14.3974 29.0929 14.3415 29.0713 14.2895C29.0497 14.2374 29.0181 14.1901 28.9782 14.1503C28.9384 14.1104 28.891 14.0789 28.839 14.0574C28.7869 14.0358 28.731 14.0248 28.6747 14.0249C28.6183 14.025 28.5626 14.0362 28.5105 14.0579Z" fill="#E53935"/>
<path d="M25.8713 11.6029L26.4773 10.9968C26.5573 10.9164 26.6022 10.8075 26.602 10.6941C26.6019 10.5806 26.5567 10.4718 26.4765 10.3916C26.3963 10.3114 26.2875 10.2663 26.1741 10.2661C26.0606 10.266 25.9517 10.3108 25.8713 10.3908L25.2653 10.9968C25.2254 11.0366 25.1939 11.0839 25.1723 11.1359C25.1508 11.1879 25.1397 11.2436 25.1396 11.2999C25.1396 11.3562 25.1507 11.4119 25.1723 11.4639C25.1938 11.5159 25.2254 11.5632 25.2652 11.603C25.305 11.6428 25.3522 11.6743 25.4042 11.6959C25.4562 11.7174 25.512 11.7285 25.5682 11.7285C25.6245 11.7285 25.6803 11.7174 25.7323 11.6958C25.7843 11.6743 25.8315 11.6427 25.8713 11.6029Z" fill="#101010"/>
<path d="M22.0982 9.39735C22.183 9.39738 22.2659 9.37224 22.3364 9.32512C22.4069 9.27799 22.4619 9.21101 22.4943 9.13264L22.8223 8.34068C22.844 8.28866 22.8552 8.23287 22.8553 8.17652C22.8554 8.12016 22.8443 8.06434 22.8228 8.01226C22.8013 7.96017 22.7697 7.91284 22.7299 7.87297C22.6901 7.8331 22.6428 7.80148 22.5907 7.77992C22.5386 7.75836 22.4828 7.74728 22.4265 7.74731C22.3701 7.74735 22.3143 7.7585 22.2623 7.78013C22.2102 7.80176 22.163 7.83344 22.1232 7.87336C22.0834 7.91328 22.0519 7.96065 22.0305 8.01276L21.7024 8.80472C21.6755 8.86982 21.6651 8.94055 21.672 9.01065C21.6789 9.08075 21.703 9.14807 21.7421 9.20665C21.7812 9.26523 21.8342 9.31328 21.8963 9.34654C21.9584 9.3798 22.0277 9.39725 22.0982 9.39735Z" fill="#E53935"/>
<path d="M18.0004 5.14282C14.9607 5.14206 12.0068 6.15148 9.60326 8.01241C7.1997 9.87334 5.4827 12.4803 4.72219 15.4233C3.96167 18.3664 4.20075 21.4788 5.40186 24.2712C6.60296 27.0636 8.69798 29.3777 11.3576 30.8497V29.8667C8.95254 28.4154 7.08898 26.2164 6.05181 23.6059C5.01463 20.9954 4.86092 18.117 5.61416 15.4109C6.36741 12.7048 7.98616 10.3198 10.2229 8.62058C12.4597 6.92137 15.1914 6.00145 18.0004 6.00145C20.8094 6.00145 23.5411 6.92137 25.7779 8.62058C28.0147 10.3198 29.6334 12.7048 30.3867 15.4109C31.1399 18.117 30.9862 20.9954 29.949 23.6059C28.9119 26.2164 27.0483 28.4154 24.6433 29.8667V30.8497C27.3029 29.3777 29.3979 27.0636 30.599 24.2712C31.8001 21.4788 32.0392 18.3664 31.2787 15.4233C30.5181 12.4803 28.8012 9.87334 26.3976 8.01241C23.994 6.15148 21.0402 5.14206 18.0004 5.14282Z" fill="#101010"/>
<path d="M19.2859 9.85708V10.4359C20.8543 10.6751 22.3248 11.3477 23.5314 12.3779C24.7381 13.4081 25.6329 14.7548 26.1152 16.2664C26.5974 17.7779 26.6478 19.3941 26.2606 20.9327C25.8735 22.4713 25.0643 23.8712 23.9242 24.9746C24.1399 25.167 24.3147 25.4011 24.438 25.6626C25.7247 24.4481 26.6411 22.894 27.081 21.1801C27.521 19.4663 27.4665 17.6629 26.9238 15.9788C26.3812 14.2947 25.3725 12.7988 24.0148 11.6642C22.657 10.5297 21.0057 9.8029 19.252 9.56812C19.2742 9.66284 19.2856 9.75978 19.2859 9.85708Z" fill="#101010"/>
<path d="M11.5622 25.6626C11.6855 25.401 11.8603 25.167 12.076 24.9746C10.9359 23.8712 10.1267 22.4713 9.73954 20.9327C9.35242 19.3941 9.40281 17.7779 9.88503 16.2664C10.3673 14.7548 11.2621 13.4081 12.4688 12.3779C13.6754 11.3477 15.1458 10.6751 16.7143 10.4359V9.85708C16.7146 9.75978 16.726 9.66284 16.7482 9.56812C14.9945 9.8029 13.3431 10.5297 11.9854 11.6642C10.6276 12.7988 9.61903 14.2947 9.07637 15.9788C8.53371 17.6629 8.47919 19.4663 8.91914 21.1801C9.35908 22.894 10.2755 24.4481 11.5622 25.6626Z" fill="#101010"/>
<path d="M16.286 30.8571C16.3997 30.8571 16.5087 30.8119 16.589 30.7316C16.6694 30.6512 16.7146 30.5422 16.7146 30.4285V28.4631L17.6973 29.4458C17.7371 29.4856 17.7843 29.5172 17.8363 29.5388C17.8883 29.5603 17.944 29.5714 18.0003 29.5714C18.0566 29.5714 18.1123 29.5603 18.1643 29.5388C18.2163 29.5172 18.2635 29.4856 18.3033 29.4458L19.286 28.4631V30.4285C19.286 30.5422 19.3311 30.6512 19.4115 30.7316C19.4919 30.8119 19.6009 30.8571 19.7146 30.8571C19.8282 30.8571 19.9372 30.8119 20.0176 30.7316C20.098 30.6512 20.1431 30.5422 20.1431 30.4285V27.4285C20.1431 27.3438 20.118 27.2609 20.0709 27.1904C20.0238 27.12 19.9569 27.0651 19.8786 27.0326C19.8003 27.0002 19.7141 26.9917 19.631 27.0082C19.5478 27.0248 19.4715 27.0656 19.4116 27.1255L18.0003 28.5368L16.589 27.1255C16.5291 27.0656 16.4527 27.0248 16.3696 27.0082C16.2865 26.9917 16.2003 27.0002 16.122 27.0326C16.0437 27.0651 15.9768 27.12 15.9297 27.1904C15.8826 27.2609 15.8574 27.3438 15.8574 27.4285V30.4285C15.8574 30.5422 15.9026 30.6512 15.983 30.7316C16.0633 30.8119 16.1723 30.8571 16.286 30.8571Z" fill="#E53935"/>
<path d="M0.428571 32.5715C0.665265 32.5715 0.857143 32.3796 0.857143 32.1429C0.857143 31.9062 0.665265 31.7144 0.428571 31.7144C0.191878 31.7144 0 31.9062 0 32.1429C0 32.3796 0.191878 32.5715 0.428571 32.5715Z" fill="#101010"/>
<path d="M2.35756 31.7144H1.7147C1.60104 31.7144 1.49203 31.7595 1.41166 31.8399C1.33129 31.9203 1.28613 32.0293 1.28613 32.1429C1.28613 32.2566 1.33129 32.3656 1.41166 32.446C1.49203 32.5263 1.60104 32.5715 1.7147 32.5715H2.35756C2.47123 32.5715 2.58023 32.5263 2.66061 32.446C2.74098 32.3656 2.78613 32.2566 2.78613 32.1429C2.78613 32.0293 2.74098 31.9203 2.66061 31.8399C2.58023 31.7595 2.47123 31.7144 2.35756 31.7144Z" fill="#101010"/>
<path d="M34.2853 31.7144H33.6424C33.5288 31.7144 33.4198 31.7595 33.3394 31.8399C33.259 31.9203 33.2139 32.0293 33.2139 32.1429C33.2139 32.2566 33.259 32.3656 33.3394 32.446C33.4198 32.5263 33.5288 32.5715 33.6424 32.5715H34.2853C34.399 32.5715 34.508 32.5263 34.5883 32.446C34.6687 32.3656 34.7139 32.2566 34.7139 32.1429C34.7139 32.0293 34.6687 31.9203 34.5883 31.8399C34.508 31.7595 34.399 31.7144 34.2853 31.7144Z" fill="#101010"/>
<path d="M35.5711 32.5715C35.8078 32.5715 35.9997 32.3796 35.9997 32.1429C35.9997 31.9062 35.8078 31.7144 35.5711 31.7144C35.3345 31.7144 35.1426 31.9062 35.1426 32.1429C35.1426 32.3796 35.3345 32.5715 35.5711 32.5715Z" fill="#101010"/>
<path d="M25.3184 33.4285H23.5382C23.4304 33.4371 23.3299 33.486 23.2566 33.5654C23.1833 33.6448 23.1426 33.749 23.1426 33.857C23.1426 33.9651 23.1833 34.0692 23.2566 34.1487C23.3299 34.2281 23.4304 34.277 23.5382 34.2856H25.3184C25.4262 34.277 25.5267 34.2281 25.6 34.1487C25.6733 34.0692 25.714 33.9651 25.714 33.857C25.714 33.749 25.6733 33.6448 25.6 33.5654C25.5267 33.486 25.4262 33.4371 25.3184 33.4285Z" fill="#E53935"/>
<path d="M12.462 33.4285H10.6817C10.574 33.4371 10.4735 33.486 10.4002 33.5654C10.3268 33.6448 10.2861 33.749 10.2861 33.857C10.2861 33.9651 10.3268 34.0692 10.4002 34.1487C10.4735 34.2281 10.574 34.277 10.6817 34.2856H12.462C12.5697 34.277 12.6702 34.2281 12.7436 34.1487C12.8169 34.0692 12.8576 33.9651 12.8576 33.857C12.8576 33.749 12.8169 33.6448 12.7436 33.5654C12.6702 33.486 12.5697 33.4371 12.462 33.4285Z" fill="#E53935"/>
<path d="M22.2861 33.4285H13.7147C13.601 33.4285 13.492 33.4736 13.4117 33.554C13.3313 33.6344 13.2861 33.7434 13.2861 33.857C13.2861 33.9707 13.3313 34.0797 13.4117 34.1601C13.492 34.2405 13.601 34.2856 13.7147 34.2856H17.1304V34.7142H15.429C15.3153 34.7142 15.2063 34.7593 15.1259 34.8397C15.0456 34.9201 15.0004 35.0291 15.0004 35.1428C15.0004 35.2564 15.0456 35.3654 15.1259 35.4458C15.2063 35.5262 15.3153 35.5713 15.429 35.5713H20.7861C20.8998 35.5713 21.0088 35.5262 21.0892 35.4458C21.1696 35.3654 21.2147 35.2564 21.2147 35.1428C21.2147 35.0291 21.1696 34.9201 21.0892 34.8397C21.0088 34.7593 20.8998 34.7142 20.7861 34.7142H18.8704V34.2856H22.2861C22.3998 34.2856 22.5088 34.2405 22.5892 34.1601C22.6696 34.0797 22.7147 33.9707 22.7147 33.857C22.7147 33.7434 22.6696 33.6344 22.5892 33.554C22.5088 33.4736 22.3998 33.4285 22.2861 33.4285Z" fill="#E53935"/>
<path d="M32.2979 31.7145H23.7112C23.7605 31.5769 23.7859 31.432 23.7862 31.2859V26.5716C23.7858 26.2307 23.6502 25.9039 23.4092 25.6629C23.1682 25.4218 22.8414 25.2863 22.5005 25.2859H13.5005C13.1596 25.2863 12.8328 25.4218 12.5918 25.6629C12.3507 25.9039 12.2151 26.2307 12.2148 26.5716V31.2859C12.2151 31.432 12.2404 31.5769 12.2898 31.7145H3.70306C3.64209 31.7065 3.58012 31.7116 3.52129 31.7295C3.46246 31.7474 3.40813 31.7777 3.36192 31.8182C3.31571 31.8588 3.27869 31.9087 3.25333 31.9647C3.22796 32.0208 3.21484 32.0815 3.21484 32.143C3.21484 32.2045 3.22796 32.2653 3.25333 32.3213C3.27869 32.3773 3.31571 32.4273 3.36192 32.4678C3.40813 32.5084 3.46246 32.5387 3.52129 32.5565C3.58012 32.5744 3.64209 32.5796 3.70306 32.5716H32.2979C32.3589 32.5796 32.4208 32.5744 32.4797 32.5565C32.5385 32.5387 32.5928 32.5084 32.639 32.4678C32.6852 32.4273 32.7223 32.3773 32.7476 32.3213C32.773 32.2653 32.7861 32.2045 32.7861 32.143C32.7861 32.0815 32.773 32.0208 32.7476 31.9647C32.7223 31.9087 32.6852 31.8588 32.639 31.8182C32.5928 31.7777 32.5385 31.7474 32.4797 31.7295C32.4208 31.7116 32.3589 31.7065 32.2979 31.7145ZM13.5005 31.7145C13.3869 31.7143 13.2779 31.6691 13.1976 31.5888C13.1172 31.5084 13.072 31.3995 13.0719 31.2859V26.5716C13.072 26.458 13.1172 26.349 13.1976 26.2687C13.2779 26.1884 13.3869 26.1432 13.5005 26.143H22.5005C22.6141 26.1432 22.723 26.1884 22.8034 26.2687C22.8837 26.349 22.9289 26.458 22.9291 26.5716V31.2859C22.9289 31.3995 22.8837 31.5084 22.8034 31.5888C22.723 31.6691 22.6141 31.7143 22.5005 31.7145H13.5005Z" fill="#101010"/>
</svg>
