<svg width="36" height="36" viewBox="0 0 36 36" fill="none" xmlns="http://www.w3.org/2000/svg">
<path d="M25.3184 33.4822H23.5382C23.4304 33.4908 23.3299 33.5397 23.2566 33.6191C23.1833 33.6985 23.1426 33.8027 23.1426 33.9107C23.1426 34.0188 23.1833 34.123 23.2566 34.2024C23.3299 34.2818 23.4304 34.3307 23.5382 34.3393H25.3184C25.4262 34.3307 25.5267 34.2818 25.6 34.2024C25.6733 34.123 25.714 34.0188 25.714 33.9107C25.714 33.8027 25.6733 33.6985 25.6 33.6191C25.5267 33.5397 25.4262 33.4908 25.3184 33.4822Z" fill="#E53935"/>
<path d="M12.462 33.4822H10.6817C10.574 33.4908 10.4735 33.5397 10.4002 33.6191C10.3268 33.6985 10.2861 33.8027 10.2861 33.9107C10.2861 34.0188 10.3268 34.123 10.4002 34.2024C10.4735 34.2818 10.574 34.3307 10.6817 34.3393H12.462C12.5697 34.3307 12.6702 34.2818 12.7436 34.2024C12.8169 34.123 12.8576 34.0188 12.8576 33.9107C12.8576 33.8027 12.8169 33.6985 12.7436 33.6191C12.6702 33.5397 12.5697 33.4908 12.462 33.4822Z" fill="#E53935"/>
<path d="M22.2861 33.4822H13.7147C13.601 33.4822 13.492 33.5273 13.4117 33.6077C13.3313 33.6881 13.2861 33.7971 13.2861 33.9107C13.2861 34.0244 13.3313 34.1334 13.4117 34.2138C13.492 34.2942 13.601 34.3393 13.7147 34.3393H17.1304V34.7679H15.429C15.3153 34.7679 15.2063 34.813 15.1259 34.8934C15.0456 34.9738 15.0004 35.0828 15.0004 35.1965C15.0004 35.3101 15.0456 35.4191 15.1259 35.4995C15.2063 35.5799 15.3153 35.625 15.429 35.625H20.7861C20.8998 35.625 21.0088 35.5799 21.0892 35.4995C21.1696 35.4191 21.2147 35.3101 21.2147 35.1965C21.2147 35.0828 21.1696 34.9738 21.0892 34.8934C21.0088 34.813 20.8998 34.7679 20.7861 34.7679H18.8704V34.3393H22.2861C22.3998 34.3393 22.5088 34.2942 22.5892 34.2138C22.6696 34.1334 22.7147 34.0244 22.7147 33.9107C22.7147 33.7971 22.6696 33.6881 22.5892 33.6077C22.5088 33.5273 22.3998 33.4822 22.2861 33.4822Z" fill="#E53935"/>
<path d="M29.5711 8.19653H20.5711C20.4575 8.19653 20.3485 8.24169 20.2681 8.32206C20.1877 8.40243 20.1426 8.51144 20.1426 8.6251C20.1426 8.73877 20.1877 8.84778 20.2681 8.92815C20.3485 9.00852 20.4575 9.05368 20.5711 9.05368H29.5711C29.6848 9.05368 29.7938 9.00852 29.8742 8.92815C29.9546 8.84778 29.9997 8.73877 29.9997 8.6251C29.9997 8.51144 29.9546 8.40243 29.8742 8.32206C29.7938 8.24169 29.6848 8.19653 29.5711 8.19653Z" fill="#101010"/>
<path d="M29.5711 9.91064H20.5711C20.4575 9.91064 20.3485 9.9558 20.2681 10.0362C20.1877 10.1165 20.1426 10.2256 20.1426 10.3392C20.1426 10.4529 20.1877 10.5619 20.2681 10.6423C20.3485 10.7226 20.4575 10.7678 20.5711 10.7678H29.5711C29.6848 10.7678 29.7938 10.7226 29.8742 10.6423C29.9546 10.5619 29.9997 10.4529 29.9997 10.3392C29.9997 10.2256 29.9546 10.1165 29.8742 10.0362C29.7938 9.9558 29.6848 9.91064 29.5711 9.91064Z" fill="#E53935"/>
<path d="M29.5711 12.9106H20.5711C20.4575 12.9106 20.3485 12.9558 20.2681 13.0362C20.1877 13.1165 20.1426 13.2256 20.1426 13.3392C20.1426 13.4529 20.1877 13.5619 20.2681 13.6423C20.3485 13.7226 20.4575 13.7678 20.5711 13.7678H29.5711C29.6848 13.7678 29.7938 13.7226 29.8742 13.6423C29.9546 13.5619 29.9997 13.4529 29.9997 13.3392C29.9997 13.2256 29.9546 13.1165 29.8742 13.0362C29.7938 12.9558 29.6848 12.9106 29.5711 12.9106Z" fill="#101010"/>
<path d="M29.5711 14.625H20.5711C20.4575 14.625 20.3485 14.6702 20.2681 14.7505C20.1877 14.8309 20.1426 14.9399 20.1426 15.0536C20.1426 15.1672 20.1877 15.2762 20.2681 15.3566C20.3485 15.437 20.4575 15.4821 20.5711 15.4821H29.5711C29.6848 15.4821 29.7938 15.437 29.8742 15.3566C29.9546 15.2762 29.9997 15.1672 29.9997 15.0536C29.9997 14.9399 29.9546 14.8309 29.8742 14.7505C29.7938 14.6702 29.6848 14.625 29.5711 14.625Z" fill="#E53935"/>
<path d="M29.5711 17.625H20.5711C20.4575 17.625 20.3485 17.6702 20.2681 17.7505C20.1877 17.8309 20.1426 17.9399 20.1426 18.0536C20.1426 18.1672 20.1877 18.2762 20.2681 18.3566C20.3485 18.437 20.4575 18.4821 20.5711 18.4821H29.5711C29.6848 18.4821 29.7938 18.437 29.8742 18.3566C29.9546 18.2762 29.9997 18.1672 29.9997 18.0536C29.9997 17.9399 29.9546 17.8309 29.8742 17.7505C29.7938 17.6702 29.6848 17.625 29.5711 17.625Z" fill="#101010"/>
<path d="M29.5711 19.3394H20.5711C20.4575 19.3394 20.3485 19.3845 20.2681 19.4649C20.1877 19.5453 20.1426 19.6543 20.1426 19.7679C20.1426 19.8816 20.1877 19.9906 20.2681 20.071C20.3485 20.1513 20.4575 20.1965 20.5711 20.1965H29.5711C29.6848 20.1965 29.7938 20.1513 29.8742 20.071C29.9546 19.9906 29.9997 19.8816 29.9997 19.7679C29.9997 19.6543 29.9546 19.5453 29.8742 19.4649C29.7938 19.3845 29.6848 19.3394 29.5711 19.3394Z" fill="#E53935"/>
<path d="M14.9999 27.4821C15.2366 27.4821 15.4284 27.2903 15.4284 27.0536C15.4284 26.8169 15.2366 26.625 14.9999 26.625C14.7632 26.625 14.5713 26.8169 14.5713 27.0536C14.5713 27.2903 14.7632 27.4821 14.9999 27.4821Z" fill="#101010"/>
<path d="M9.21888 12.6415C9.28302 12.6776 9.35538 12.6965 9.42898 12.6965C9.50258 12.6965 9.57494 12.6776 9.63909 12.6415L11.3534 11.6771C11.4197 11.6398 11.4748 11.5856 11.5132 11.5199C11.5516 11.4543 11.5718 11.3796 11.5718 11.3036V9.3752C11.5718 9.29915 11.5516 9.22447 11.5132 9.15882C11.4748 9.09318 11.4197 9.03893 11.3534 9.00165L9.63909 8.03726C9.57495 8.00115 9.50259 7.98218 9.42898 7.98218C9.35538 7.98218 9.28302 8.00115 9.21888 8.03726L7.50459 9.00165C7.43831 9.03893 7.38314 9.09318 7.34475 9.15882C7.30636 9.22447 7.28613 9.29915 7.28613 9.37519V11.3035C7.28613 11.3796 7.30636 11.4543 7.34475 11.5199C7.38315 11.5856 7.43831 11.6398 7.50459 11.6771L9.21888 12.6415ZM8.14328 9.62577L9.42899 8.90256L10.7147 9.62577V11.053L9.42899 11.7762L8.14328 11.053V9.62577Z" fill="#E53935"/>
<path d="M9.42857 30.4821C9.66526 30.4821 9.85714 30.2903 9.85714 30.0536C9.85714 29.8169 9.66526 29.625 9.42857 29.625C9.19188 29.625 9 29.8169 9 30.0536C9 30.2903 9.19188 30.4821 9.42857 30.4821Z" fill="#E53935"/>
<path d="M19.2859 7.98204C19.2858 7.86838 19.2407 7.75937 19.1603 7.679C19.08 7.59863 18.9709 7.55347 18.8573 7.55347H15.8573C15.7436 7.55347 15.6346 7.59863 15.5542 7.679C15.4739 7.75937 15.4287 7.86838 15.4287 7.98204V10.982C15.4287 11.0957 15.4739 11.2047 15.5542 11.2851C15.6346 11.3654 15.7436 11.4106 15.8573 11.4106H18.8573C18.9709 11.4106 19.08 11.3654 19.1603 11.2851C19.2407 11.2047 19.2858 11.0957 19.2859 10.982V7.98204ZM18.4287 10.5535H16.2859V8.41061H18.4287V10.5535Z" fill="#101010"/>
<path d="M19.2859 12.6964C19.2858 12.5827 19.2407 12.4737 19.1603 12.3934C19.08 12.313 18.9709 12.2678 18.8573 12.2678H15.8573C15.7436 12.2678 15.6346 12.313 15.5542 12.3934C15.4739 12.4737 15.4287 12.5827 15.4287 12.6964V15.6964C15.4287 15.8101 15.4739 15.9191 15.5542 15.9994C15.6346 16.0798 15.7436 16.125 15.8573 16.125H18.8573C18.9709 16.125 19.08 16.0798 19.1603 15.9994C19.2407 15.9191 19.2858 15.8101 19.2859 15.6964V12.6964ZM18.4287 13.3987C18.4111 13.4082 18.3942 13.419 18.3781 13.4309L17.5858 14.0541L17.4445 13.9142C17.4046 13.8745 17.3572 13.8431 17.305 13.8218C17.2529 13.8004 17.1971 13.7896 17.1408 13.7898C17.0845 13.79 17.0288 13.8014 16.9768 13.8232C16.9249 13.845 16.8778 13.8768 16.8382 13.9168C16.7985 13.9568 16.7672 14.0042 16.7459 14.0564C16.7246 14.1085 16.7138 14.1643 16.7141 14.2207C16.7144 14.277 16.7258 14.3327 16.7477 14.3846C16.7695 14.4365 16.8014 14.4836 16.8414 14.5232L17.2516 14.9294C17.3258 15.003 17.4244 15.0469 17.5287 15.0528C17.633 15.0588 17.7359 15.0265 17.8181 14.9619L18.4287 14.4816V15.2678H16.2859V13.125H18.4287V13.3987Z" fill="#101010"/>
<path d="M19.2859 17.4107C19.2858 17.2971 19.2407 17.1881 19.1603 17.1077C19.08 17.0273 18.9709 16.9822 18.8573 16.9822H15.8573C15.7436 16.9822 15.6346 17.0273 15.5542 17.1077C15.4739 17.1881 15.4287 17.2971 15.4287 17.4107V20.4107C15.4287 20.5244 15.4739 20.6334 15.5542 20.7138C15.6346 20.7942 15.7436 20.8393 15.8573 20.8393H18.8573C18.9709 20.8393 19.08 20.7942 19.1603 20.7138C19.2407 20.6334 19.2858 20.5244 19.2859 20.4107V17.4107ZM18.4287 19.9822H16.2859V17.8393H18.4287V19.9822Z" fill="#101010"/>
<path d="M29.9999 6.05368C30.2271 6.05392 30.445 6.1443 30.6057 6.30499C30.7664 6.46569 30.8568 6.68356 30.857 6.91082V22.3752C31.156 22.6761 31.3434 23.07 31.3884 23.4918C31.4334 23.9137 31.3333 24.3382 31.1046 24.6955C31.3217 24.74 31.5285 24.825 31.7142 24.946V6.91082C31.7128 6.45657 31.5318 6.0213 31.2106 5.70009C30.8894 5.37889 30.4541 5.19785 29.9999 5.19653H13.2856C13.0833 5.19699 12.8827 5.23363 12.6934 5.30472C13.0299 5.52264 13.3439 5.77353 13.6307 6.05368H29.9999Z" fill="#101010"/>
<path d="M28.5003 26.8393C28.5003 26.3307 28.3495 25.8335 28.0669 25.4107C27.7844 24.9878 27.3828 24.6582 26.9129 24.4636C26.4431 24.269 25.9261 24.218 25.4273 24.3172C24.9285 24.4164 24.4703 24.6613 24.1107 25.0209C23.751 25.3805 23.5061 25.8387 23.4069 26.3375C23.3076 26.8363 23.3585 27.3533 23.5531 27.8231C23.7477 28.293 24.0772 28.6946 24.5001 28.9772C24.9229 29.2598 25.4201 29.4106 25.9286 29.4107C26.6106 29.4106 27.2647 29.1397 27.7469 28.6575C28.2292 28.1753 28.5002 27.5212 28.5003 26.8393ZM25.9286 28.5535C25.5896 28.5535 25.2582 28.4529 24.9763 28.2645C24.6944 28.0761 24.4747 27.8084 24.345 27.4951C24.2153 27.1819 24.1814 26.8372 24.2475 26.5047C24.3137 26.1722 24.477 25.8667 24.7167 25.627C24.9565 25.3873 25.262 25.224 25.5945 25.1579C25.927 25.0918 26.2717 25.1257 26.5849 25.2555C26.8982 25.3852 27.1659 25.605 27.3542 25.8869C27.5426 26.1688 27.6431 26.5002 27.6431 26.8393C27.6427 27.2938 27.4619 27.7296 27.1404 28.051C26.819 28.3724 26.3832 28.5531 25.9286 28.5535Z" fill="#E53935"/>
<path d="M18.8567 26.625H17.1424C17.0288 26.625 16.9198 26.6702 16.8394 26.7505C16.759 26.8309 16.7139 26.9399 16.7139 27.0536C16.7139 27.1672 16.759 27.2762 16.8394 27.3566C16.9198 27.437 17.0288 27.4821 17.1424 27.4821H18.8567C18.9704 27.4821 19.0794 27.437 19.1598 27.3566C19.2401 27.2762 19.2853 27.1672 19.2853 27.0536C19.2853 26.9399 19.2401 26.8309 19.1598 26.7505C19.0794 26.6702 18.9704 26.625 18.8567 26.625Z" fill="#E53935"/>
<path d="M14.9999 29.1965H18.857C18.9707 29.1965 19.0797 29.1513 19.16 29.071C19.2404 28.9906 19.2856 28.8816 19.2856 28.7679C19.2856 28.6543 19.2404 28.5453 19.16 28.4649C19.0797 28.3845 18.9707 28.3394 18.857 28.3394H14.9999C14.8862 28.3394 14.7772 28.3845 14.6968 28.4649C14.6164 28.5453 14.5713 28.6543 14.5713 28.7679C14.5713 28.8816 14.6164 28.9906 14.6968 29.071C14.7772 29.1513 14.8862 29.1965 14.9999 29.1965Z" fill="#101010"/>
<path d="M18.857 24.9109H14.9999C14.8862 24.9109 14.7772 24.956 14.6968 25.0364C14.6164 25.1168 14.5713 25.2258 14.5713 25.3395C14.5713 25.4531 14.6164 25.5621 14.6968 25.6425C14.7772 25.7229 14.8862 25.768 14.9999 25.768H18.857C18.9707 25.768 19.0797 25.7229 19.16 25.6425C19.2404 25.5621 19.2856 25.4531 19.2856 25.3395C19.2856 25.2258 19.2404 25.1168 19.16 25.0364C19.0797 24.956 18.9707 24.9109 18.857 24.9109Z" fill="#101010"/>
<path d="M0.428571 32.6252C0.665265 32.6252 0.857143 32.4333 0.857143 32.1966C0.857143 31.9599 0.665265 31.7681 0.428571 31.7681C0.191878 31.7681 0 31.9599 0 32.1966C0 32.4333 0.191878 32.6252 0.428571 32.6252Z" fill="#101010"/>
<path d="M2.35756 31.7681H1.7147C1.60104 31.7681 1.49203 31.8132 1.41166 31.8936C1.33129 31.974 1.28613 32.083 1.28613 32.1966C1.28613 32.3103 1.33129 32.4193 1.41166 32.4997C1.49203 32.5801 1.60104 32.6252 1.7147 32.6252H2.35756C2.47123 32.6252 2.58023 32.5801 2.66061 32.4997C2.74098 32.4193 2.78613 32.3103 2.78613 32.1966C2.78613 32.083 2.74098 31.974 2.66061 31.8936C2.58023 31.8132 2.47123 31.7681 2.35756 31.7681Z" fill="#101010"/>
<path d="M34.2853 31.7681H33.6424C33.5288 31.7681 33.4198 31.8132 33.3394 31.8936C33.259 31.974 33.2139 32.083 33.2139 32.1966C33.2139 32.3103 33.259 32.4193 33.3394 32.4997C33.4198 32.5801 33.5288 32.6252 33.6424 32.6252H34.2853C34.399 32.6252 34.508 32.5801 34.5883 32.4997C34.6687 32.4193 34.7139 32.3103 34.7139 32.1966C34.7139 32.083 34.6687 31.974 34.5883 31.8936C34.508 31.8132 34.399 31.7681 34.2853 31.7681Z" fill="#101010"/>
<path d="M35.5711 32.6252C35.8078 32.6252 35.9997 32.4333 35.9997 32.1966C35.9997 31.9599 35.8078 31.7681 35.5711 31.7681C35.3345 31.7681 35.1426 31.9599 35.1426 32.1966C35.1426 32.4333 35.3345 32.6252 35.5711 32.6252Z" fill="#101010"/>
<path d="M32.2979 31.768H31.4817C31.6341 31.508 31.7145 31.2122 31.7148 30.9108V28.7328C31.529 28.8538 31.3221 28.9387 31.105 28.9833C31.3361 29.345 31.4357 29.7753 31.3871 30.2018C31.3385 30.6283 31.1447 31.0251 30.8382 31.3256L30.4167 31.7468C30.4093 31.7543 30.4009 31.7607 30.3934 31.768H27.2401C27.2456 31.7348 27.2493 31.7013 27.251 31.6677V31.2402C27.5475 31.1514 27.8341 31.0325 28.1064 30.8853L28.4095 31.1887C28.4959 31.2744 28.5985 31.3421 28.7113 31.3879C28.8241 31.4338 28.9448 31.4568 29.0665 31.4557C29.3464 31.4527 29.6137 31.3395 29.8107 31.1408L30.2313 30.7202C30.4224 30.54 30.5346 30.2916 30.5432 30.0291C30.5519 29.7666 30.4564 29.5113 30.2776 29.319L29.9754 29.0166C30.1223 28.7441 30.2412 28.4574 30.3303 28.1609H30.757C31.0196 28.1515 31.2678 28.0384 31.4473 27.8464C31.6268 27.6545 31.723 27.3992 31.7148 27.1365V26.5422C31.723 26.2796 31.6268 26.0243 31.4473 25.8323C31.2678 25.6404 31.0196 25.5273 30.757 25.5179H30.3303C30.2413 25.2214 30.1223 24.9347 29.9754 24.6622L30.2777 24.3596C30.4567 24.1675 30.5523 23.9123 30.5436 23.6498C30.5349 23.3874 30.4226 23.1391 30.2313 22.9592L29.8103 22.5376C29.6132 22.3391 29.346 22.2261 29.0663 22.223C28.9445 22.222 28.8237 22.2451 28.7108 22.2911C28.598 22.3371 28.4954 22.405 28.409 22.4909L28.1066 22.7933C27.8342 22.6462 27.5475 22.5272 27.251 22.4384V22.0111C27.2415 21.7484 27.1284 21.5003 26.9364 21.3208C26.7443 21.1414 26.4891 21.0454 26.2264 21.0537H25.6321C25.3694 21.0453 25.1141 21.1414 24.9221 21.3208C24.73 21.5002 24.6169 21.7484 24.6073 22.0111V22.4384C24.3108 22.5272 24.0242 22.646 23.7519 22.7931L23.4497 22.4907C23.3632 22.4048 23.2606 22.337 23.1477 22.291C23.0349 22.2451 22.914 22.222 22.7922 22.223C22.5121 22.2262 22.2446 22.3395 22.0474 22.5384L21.6285 22.9584C21.4295 23.1545 21.316 23.4213 21.3127 23.7007C21.3115 23.8228 21.3345 23.944 21.3805 24.0572C21.4264 24.1704 21.4943 24.2733 21.5804 24.3601L21.8829 24.6624C21.7359 24.9348 21.617 25.2214 21.528 25.5179H21.1007C20.8381 25.5274 20.59 25.6405 20.4105 25.8324C20.2311 26.0244 20.135 26.2796 20.1433 26.5422V27.1365C20.135 27.3992 20.2311 27.6544 20.4105 27.8464C20.59 28.0383 20.8381 28.1514 21.1007 28.1609H21.528C21.6171 28.4574 21.7361 28.7441 21.8831 29.0166L21.5799 29.3192C21.4012 29.5117 21.3058 29.7671 21.3148 30.0297C21.3237 30.2923 21.4362 30.5407 21.6276 30.7206L22.0482 31.1412C22.2453 31.3397 22.5125 31.4527 22.7922 31.4557C22.9141 31.4567 23.0351 31.4335 23.148 31.3876C23.261 31.3416 23.3637 31.2737 23.4503 31.1879L23.7521 30.8855C24.0243 31.0326 24.3109 31.1515 24.6073 31.2402V31.6677C24.609 31.7013 24.6126 31.7348 24.6182 31.768H13.2862C13.1511 31.7676 13.0179 31.7353 12.8977 31.6736C12.7775 31.6118 12.6736 31.5225 12.5946 31.4128C12.5783 31.5326 12.5543 31.6513 12.5227 31.768H11.6213C11.7216 31.5239 11.771 31.2619 11.7665 30.9981V14.8648C12.7953 14.3399 13.6174 13.484 14.1005 12.4349C14.5836 11.3859 14.6995 10.2047 14.4295 9.08177C14.1596 7.95881 13.5195 6.9594 12.6124 6.24451C11.7053 5.52962 10.584 5.14087 9.42905 5.14087C8.2741 5.14087 7.15277 5.52962 6.24567 6.24451C5.33857 6.9594 4.69851 7.95881 4.42857 9.08177C4.15863 10.2047 4.27453 11.3859 4.75761 12.4349C5.24068 13.484 6.06281 14.3399 7.09158 14.8648V30.9981C7.08705 31.2619 7.13645 31.5239 7.23675 31.768H3.70306C3.64209 31.76 3.58012 31.7651 3.52129 31.783C3.46246 31.8009 3.40813 31.8312 3.36192 31.8717C3.31571 31.9123 3.27869 31.9622 3.25333 32.0183C3.22796 32.0743 3.21484 32.135 3.21484 32.1965C3.21484 32.258 3.22796 32.3188 3.25333 32.3748C3.27869 32.4308 3.31571 32.4808 3.36192 32.5214C3.40813 32.5619 3.46246 32.5922 3.52129 32.61C3.58012 32.6279 3.64209 32.6331 3.70306 32.6251H32.2979C32.3589 32.6331 32.4208 32.6279 32.4797 32.61C32.5385 32.5922 32.5928 32.5619 32.639 32.5214C32.6852 32.4808 32.7223 32.4308 32.7476 32.3748C32.773 32.3188 32.7861 32.258 32.7861 32.1965C32.7861 32.135 32.773 32.0743 32.7476 32.0183C32.7223 31.9622 32.6852 31.9123 32.639 31.8717C32.5928 31.8312 32.5385 31.8009 32.4797 31.783C32.4208 31.7651 32.3589 31.76 32.2979 31.768ZM5.14334 10.3104C5.13859 9.5476 5.33751 8.79736 5.71957 8.13713C6.10164 7.4769 6.65299 6.9306 7.31671 6.55463C7.98044 6.17866 8.73248 5.98666 9.4952 5.99843C10.2579 6.0102 11.0037 6.22533 11.6555 6.6216C12.3073 7.01788 12.8415 7.58093 13.203 8.25264C13.5645 8.92435 13.7402 9.68038 13.7119 10.4427C13.6836 11.2049 13.4524 11.9459 13.0421 12.5889C12.6318 13.232 12.0573 13.7539 11.3779 14.1008L10.9094 14.339V27.4823H7.94872V14.3391L7.48018 14.1008C6.77745 13.7479 6.18672 13.2065 5.77403 12.5371C5.36135 11.8677 5.14298 11.0968 5.14334 10.3104ZM8.7276 31.768C8.16718 31.768 7.94872 31.552 7.94872 30.9981V28.3394H10.9094V30.9981C10.9094 31.552 10.6909 31.768 10.1305 31.768H8.7276ZM25.6321 31.768C25.5312 31.768 25.4645 31.7077 25.4645 31.6677V30.5637L25.1274 30.49C24.6964 30.396 24.2857 30.2257 23.9147 29.9871L23.624 29.8003L22.8447 30.5814C22.8102 30.6151 22.7137 30.5944 22.6541 30.5348L22.2339 30.1144C22.1615 30.0422 22.1577 29.9539 22.1862 29.9252L22.9673 29.1451L22.7817 28.8546C22.5432 28.4832 22.3728 28.0723 22.2784 27.6411L22.205 27.3038H21.1007C21.0599 27.3038 21.0005 27.2387 21.0005 27.1365V26.5422C21.0005 26.4401 21.0599 26.375 21.1007 26.375H22.205L22.2785 26.0377C22.3725 25.6066 22.5429 25.1958 22.7815 24.8246L22.9673 24.5342L22.1868 23.754C22.1747 23.7395 22.1686 23.721 22.1698 23.7021C22.1729 23.6497 22.1959 23.6005 22.2343 23.5646L22.6535 23.1446C22.7139 23.084 22.8108 23.0634 22.8437 23.0969L23.624 23.8777L23.9145 23.6914C24.2855 23.453 24.6962 23.2828 25.1271 23.1888L25.4645 23.1153V22.0111C25.4645 21.9702 25.5298 21.9108 25.6321 21.9108H26.2264C26.3285 21.9108 26.3938 21.9702 26.3938 22.0111V23.1153L26.7312 23.1888C27.1623 23.2828 27.5731 23.4531 27.9443 23.6916L28.2345 23.8775L29.0153 23.0967C29.0485 23.0637 29.1452 23.0846 29.2042 23.1438L29.6251 23.5653C29.6966 23.6368 29.7004 23.7249 29.6715 23.7538L28.8912 24.5344L29.077 24.8246C29.3154 25.196 29.4857 25.6068 29.5801 26.0379L29.6537 26.375H30.757C30.798 26.375 30.8576 26.4401 30.8576 26.5422V27.1365C30.8576 27.2387 30.798 27.3037 30.757 27.3037H29.6537L29.5801 27.6409C29.4857 28.0721 29.3152 28.4831 29.0768 28.8546L28.8914 29.1448L29.6713 29.9248C29.7004 29.9541 29.6966 30.0426 29.6249 30.1146L29.2049 30.5346C29.1687 30.5728 29.1192 30.5957 29.0665 30.5986C29.048 30.5998 29.0298 30.5941 29.0153 30.5825L28.2345 29.8005L27.9438 29.9869C27.5728 30.2256 27.162 30.396 26.731 30.49L26.3938 30.5637V31.6677C26.3938 31.7077 26.3271 31.768 26.2264 31.768L25.6321 31.768Z" fill="#101010"/>
</svg>
