<svg width="132" height="132" viewBox="0 0 132 132" fill="none" xmlns="http://www.w3.org/2000/svg">
<circle opacity="0.4" cx="65.1633" cy="65.1633" r="65.1633" fill="url(#paint0_radial_1383_220)"/>
<mask id="mask0_1383_220" style="mask-type:alpha" maskUnits="userSpaceOnUse" x="52" y="51" width="25" height="29">
<rect x="52.7529" y="51.9766" width="24.0484" height="27.9271" fill="#D9D9D9"/>
</mask>
<g mask="url(#mask0_1383_220)">
<path d="M66.5311 65.6099C66.9448 65.1964 67.1516 64.6978 67.1516 64.114C67.1516 63.5301 66.9448 63.0314 66.5311 62.6177C66.1176 62.2043 65.619 61.9975 65.0352 61.9975C64.4514 61.9975 63.9527 62.2043 63.5392 62.6177C63.1256 63.0314 62.9187 63.5301 62.9187 64.114C62.9187 64.6978 63.1256 65.1964 63.5392 65.6099C63.9527 66.0234 64.4514 66.2301 65.0352 66.2301C65.619 66.2301 66.1176 66.0234 66.5311 65.6099ZM65.0352 77.5213C62.0887 74.9682 59.8793 72.5923 58.4069 70.3934C56.9345 68.1943 56.1982 66.1754 56.1982 64.3367C56.1982 61.635 57.0721 59.4477 58.8199 57.7749C60.5678 56.102 62.6396 55.2656 65.0352 55.2656C67.4308 55.2656 69.5025 56.102 71.2505 57.7749C72.9982 59.4477 73.8721 61.635 73.8721 64.3367C73.8721 66.1754 73.1359 68.1943 71.6635 70.3934C70.191 72.5923 67.9816 74.9682 65.0352 77.5213Z" fill="white"/>
</g>
<defs>
<radialGradient id="paint0_radial_1383_220" cx="0" cy="0" r="1" gradientUnits="userSpaceOnUse" gradientTransform="translate(65.1633 63.4708) rotate(90) scale(77.4344)">
<stop stop-color="#2D2D2D"/>
<stop offset="0.866613" stop-color="white"/>
</radialGradient>
</defs>
</svg>
