<svg width="16" height="20" viewBox="0 0 16 20" fill="none" xmlns="http://www.w3.org/2000/svg">
<path d="M9.28423 9.29449C9.65592 8.92297 9.84176 8.47493 9.84176 7.95036C9.84176 7.42579 9.65592 6.97766 9.28423 6.60597C8.91272 6.23446 8.46468 6.0487 7.9401 6.0487C7.41553 6.0487 6.96749 6.23446 6.59598 6.60597C6.22429 6.97766 6.03845 7.42579 6.03845 7.95036C6.03845 8.47493 6.22429 8.92297 6.59598 9.29449C6.96749 9.666 7.41553 9.85176 7.9401 9.85176C8.46468 9.85176 8.91272 9.666 9.28423 9.29449ZM7.9401 19.997C5.2927 17.7031 3.3075 15.5682 1.9845 13.5925C0.6615 11.6166 0 9.80258 0 8.15049C0 5.72295 0.785192 3.75765 2.35557 2.25459C3.92613 0.751529 5.78764 0 7.9401 0C10.0926 0 11.9541 0.751529 13.5246 2.25459C15.095 3.75765 15.8802 5.72295 15.8802 8.15049C15.8802 9.80258 15.2187 11.6166 13.8957 13.5925C12.5727 15.5682 10.5875 17.7031 7.9401 19.997Z" fill="white"/>
</svg>
