<svg width="48" height="48" viewBox="0 0 48 48" fill="none" xmlns="http://www.w3.org/2000/svg">
<g clip-path="url(#clip0_552_6815)">
<path d="M0.571429 43.0706C0.88702 43.0706 1.14286 42.8148 1.14286 42.4992C1.14286 42.1836 0.88702 41.9277 0.571429 41.9277C0.255837 41.9277 0 42.1836 0 42.4992C0 42.8148 0.255837 43.0706 0.571429 43.0706Z" fill="#1A1917"/>
<path d="M3.14293 41.9277H2.28578C2.13423 41.9277 1.98889 41.9879 1.88172 42.0951C1.77456 42.2023 1.71436 42.3476 1.71436 42.4992C1.71436 42.6507 1.77456 42.7961 1.88172 42.9032C1.98889 43.0104 2.13423 43.0706 2.28578 43.0706H3.14293C3.29448 43.0706 3.43982 43.0104 3.54699 42.9032C3.65415 42.7961 3.71436 42.6507 3.71436 42.4992C3.71436 42.3476 3.65415 42.2023 3.54699 42.0951C3.43982 41.9879 3.29448 41.9277 3.14293 41.9277Z" fill="#1A1917"/>
<path d="M45.7142 41.9277H44.8571C44.7055 41.9277 44.5602 41.9879 44.453 42.0951C44.3458 42.2023 44.2856 42.3476 44.2856 42.4992C44.2856 42.6507 44.3458 42.7961 44.453 42.9032C44.5602 43.0104 44.7055 43.0706 44.8571 43.0706H45.7142C45.8658 43.0706 46.0111 43.0104 46.1183 42.9032C46.2254 42.7961 46.2856 42.6507 46.2856 42.4992C46.2856 42.3476 46.2254 42.2023 46.1183 42.0951C46.0111 41.9879 45.8658 41.9277 45.7142 41.9277Z" fill="#1A1917"/>
<path d="M47.4284 43.0706C47.744 43.0706 47.9998 42.8148 47.9998 42.4992C47.9998 42.1836 47.744 41.9277 47.4284 41.9277C47.1128 41.9277 46.8569 42.1836 46.8569 42.4992C46.8569 42.8148 47.1128 43.0706 47.4284 43.0706Z" fill="#1A1917"/>
<path d="M33.758 44.2148H31.3844C31.2408 44.2264 31.1067 44.2915 31.009 44.3974C30.9112 44.5033 30.8569 44.6422 30.8569 44.7863C30.8569 44.9304 30.9112 45.0692 31.009 45.1751C31.1067 45.281 31.2408 45.3462 31.3844 45.3577H33.758C33.9017 45.3462 34.0357 45.281 34.1335 45.1751C34.2312 45.0692 34.2855 44.9304 34.2855 44.7863C34.2855 44.6422 34.2312 44.5033 34.1335 44.3974C34.0357 44.2915 33.9017 44.2264 33.758 44.2148Z" fill="#E53935"/>
<path d="M16.6155 44.2148H14.2418C14.0982 44.2264 13.9641 44.2915 13.8664 44.3974C13.7686 44.5033 13.7144 44.6422 13.7144 44.7863C13.7144 44.9304 13.7686 45.0692 13.8664 45.1751C13.9641 45.281 14.0982 45.3462 14.2418 45.3577H16.6155C16.7591 45.3462 16.8932 45.281 16.9909 45.1751C17.0887 45.0692 17.1429 44.9304 17.1429 44.7863C17.1429 44.6422 17.0887 44.5033 16.9909 44.3974C16.8932 44.2915 16.7591 44.2264 16.6155 44.2148Z" fill="#E53935"/>
<path d="M29.7144 44.2148H18.2858C18.1342 44.2148 17.9889 44.275 17.8817 44.3822C17.7746 44.4894 17.7144 44.6347 17.7144 44.7863C17.7144 44.9378 17.7746 45.0832 17.8817 45.1903C17.9889 45.2975 18.1342 45.3577 18.2858 45.3577H22.8401V45.9291H20.5715C20.4199 45.9291 20.2746 45.9893 20.1674 46.0965C20.0603 46.2037 20.0001 46.349 20.0001 46.5006C20.0001 46.6521 20.0603 46.7975 20.1674 46.9046C20.2746 47.0118 20.4199 47.072 20.5715 47.072H27.7144C27.8659 47.072 28.0113 47.0118 28.1184 46.9046C28.2256 46.7975 28.2858 46.6521 28.2858 46.5006C28.2858 46.349 28.2256 46.2037 28.1184 46.0965C28.0113 45.9893 27.8659 45.9291 27.7144 45.9291H25.1601V45.3577H29.7144C29.8659 45.3577 30.0113 45.2975 30.1184 45.1903C30.2256 45.0832 30.2858 44.9378 30.2858 44.7863C30.2858 44.6347 30.2256 44.4894 30.1184 44.3822C30.0113 44.275 29.8659 44.2148 29.7144 44.2148Z" fill="#E53935"/>
<path d="M14.0878 15.1743C16.5379 15.1743 20.6933 14.7015 24.0002 11.928C24.9773 12.7416 26.0702 13.4052 27.2427 13.897L28.2274 13.0517C26.9575 12.5896 25.7762 11.9133 24.7346 11.0524C24.5288 10.8798 24.2688 10.7852 24.0002 10.7852C23.7316 10.7852 23.4716 10.8798 23.2658 11.0524C20.1752 13.6444 16.1889 14.0314 14.0878 14.0314C13.4509 14.0368 12.8143 13.9989 12.1824 13.9181C12.0215 13.8934 11.8571 13.9035 11.7003 13.9474C11.5436 13.9914 11.398 14.0683 11.2733 14.1731C11.1486 14.2778 11.0478 14.4079 10.9774 14.5548C10.9071 14.7016 10.8689 14.8618 10.8654 15.0246C10.7727 19.6375 11.4994 23.4025 12.6201 26.4508L13.543 25.6584C12.5443 22.7862 11.9228 19.2875 12.008 15.0475C12.6975 15.1383 13.3924 15.1807 14.0878 15.1743Z" fill="#E53935"/>
<path d="M24.0009 38.7848L24.0075 38.7848C24.1122 38.7839 24.2164 38.7688 24.317 38.7398L24.3151 38.7332C25.0149 38.4829 25.6861 38.1588 26.3173 37.7665C27.7766 36.885 29.1175 35.821 30.3076 34.6003C33.5353 31.3071 37.3398 25.2377 37.1347 15.0242C37.1314 14.8612 37.0933 14.7007 37.0229 14.5536C36.9525 14.4065 36.8514 14.2762 36.7264 14.1714C36.6015 14.0667 36.4555 13.9898 36.2984 13.9461C36.1413 13.9024 35.9767 13.8928 35.8156 13.918C35.8134 13.9183 35.7005 13.9352 35.4981 13.9557L34.0803 15.1729C34.7196 15.1729 35.3582 15.1309 35.992 15.0472C36.351 32.9212 24.1653 37.6419 24.0009 37.6419L23.9998 37.6418L23.9987 37.6419C23.9007 37.6419 19.4573 35.9343 16.0064 30.6896L15.1353 31.4376C15.8865 32.5694 16.7425 33.6282 17.6919 34.5999C18.8821 35.8208 20.2232 36.8849 21.6826 37.7665C22.3155 38.1601 22.9888 38.4848 23.6909 38.7349L23.689 38.7416C23.7877 38.7694 23.8896 38.7839 23.9921 38.7848L23.9987 38.7848L24.0009 38.7848Z" fill="#E53935"/>
<path d="M25.0869 17.8624C25.0123 17.6328 24.867 17.4326 24.6717 17.2907C24.4764 17.1487 24.2412 17.0723 23.9998 17.0723C23.7584 17.0723 23.5231 17.1487 23.3278 17.2907C23.1325 17.4326 22.9872 17.6328 22.9127 17.8624L21.7527 21.4376H17.9998C17.7585 21.4376 17.5234 21.514 17.3282 21.6558C17.133 21.7976 16.9876 21.9975 16.913 22.2269C16.8383 22.4564 16.8382 22.7036 16.9127 22.9331C16.9871 23.1626 17.1323 23.3626 17.3274 23.5046L20.3649 25.7146L19.2045 29.291C19.13 29.5206 19.1301 29.7679 19.2048 29.9974C19.2795 30.2269 19.425 30.4269 19.6203 30.5687C19.8157 30.7104 20.0509 30.7867 20.2923 30.7866C20.5336 30.7864 20.7688 30.7099 20.9639 30.5679L23.9998 28.3591L27.0356 30.5679C27.2308 30.7099 27.4659 30.7864 27.7073 30.7866C27.9487 30.7867 28.1839 30.7104 28.3792 30.5687C28.5746 30.4269 28.72 30.2269 28.7947 29.9974C28.8694 29.7679 28.8695 29.5206 28.795 29.291L27.6346 25.7146L30.6535 23.5182C30.8531 23.3792 31.0032 23.1802 31.0819 22.95C31.1606 22.7199 31.1638 22.4706 31.091 22.2385C31.0183 22.0064 30.8733 21.8035 30.6773 21.6595C30.4813 21.5154 30.2445 21.4377 30.0012 21.4376H26.2469L25.0869 17.8624ZM26.2916 25.2784L27.708 29.6437L23.9998 26.9458L20.2916 29.6437L21.708 25.2784L17.9998 22.5805H22.5834L23.9998 18.2151L25.4162 22.5805H29.9998L26.2916 25.2784Z" fill="#E53935"/>
<path d="M43.0635 41.9286H26.5831C26.6873 41.8677 26.7631 41.8224 26.7966 41.8022C28.6383 40.6776 30.3319 39.3268 31.838 37.7813C36.0962 33.4383 41.1157 25.4018 40.847 11.7797C40.8438 11.6163 40.8056 11.4556 40.735 11.3083C40.6644 11.1609 40.563 11.0305 40.4377 10.9256C40.3124 10.8208 40.1661 10.7441 40.0086 10.7006C39.8512 10.6571 39.6862 10.6479 39.5248 10.6735C38.6814 10.7839 37.8314 10.8356 36.9808 10.8284C34.1834 10.8284 28.8737 10.3016 24.7425 6.77375C24.5356 6.59707 24.2724 6.5 24.0003 6.5C23.7282 6.5 23.4651 6.59707 23.2582 6.77375C19.1269 10.3016 13.8172 10.8284 11.0198 10.8284C10.1687 10.8356 9.31814 10.7838 8.47421 10.6733C8.31299 10.6481 8.14824 10.6576 7.99102 10.7013C7.8338 10.745 7.68774 10.8218 7.56265 10.9266C7.43757 11.0314 7.33635 11.1617 7.2658 11.3089C7.19524 11.456 7.15698 11.6165 7.15358 11.7797C6.8849 25.4016 11.9043 33.4379 16.1625 37.7808C17.6687 39.3265 19.3625 40.6774 21.2045 41.8022C21.2379 41.8224 21.3139 41.8678 21.4181 41.9286H4.93708C4.85579 41.918 4.77316 41.9248 4.69473 41.9487C4.61629 41.9725 4.54385 42.0128 4.48224 42.0669C4.42062 42.121 4.37126 42.1876 4.33744 42.2623C4.30363 42.337 4.28613 42.418 4.28613 42.5C4.28613 42.582 4.30363 42.663 4.33744 42.7377C4.37126 42.8124 4.42062 42.879 4.48224 42.9331C4.54385 42.9872 4.61629 43.0275 4.69473 43.0514C4.77316 43.0752 4.85579 43.0821 4.93708 43.0714H43.0635C43.1448 43.0821 43.2275 43.0752 43.3059 43.0514C43.3843 43.0275 43.4568 42.9872 43.5184 42.9331C43.58 42.879 43.6294 42.8124 43.6632 42.7377C43.697 42.663 43.7145 42.582 43.7145 42.5C43.7145 42.418 43.697 42.337 43.6632 42.2623C43.6294 42.1876 43.58 42.121 43.5184 42.0669C43.4568 42.0128 43.3843 41.9725 43.3059 41.9487C43.2275 41.9248 43.1448 41.9179 43.0635 41.9286ZM8.29621 11.8022C9.19891 11.9232 10.1091 11.9797 11.0198 11.9712C14.2283 11.9712 19.6699 11.3408 24.0003 7.64286C28.3303 11.3405 33.7722 11.9712 36.9808 11.9712C37.8915 11.9797 38.8017 11.9233 39.7044 11.8022C40.1745 35.6343 24.2171 41.9286 24.0018 41.9286L24.0003 41.9284L23.9988 41.9286C23.7855 41.9286 7.82612 35.6358 8.29621 11.8022Z" fill="#1A1917"/>
</g>
<defs>
<clipPath id="clip0_552_6815">
<rect width="48" height="48" fill="white"/>
</clipPath>
</defs>
</svg>
