<svg width="48" height="48" viewBox="0 0 48 48" fill="none" xmlns="http://www.w3.org/2000/svg">
<g clip-path="url(#clip0_552_6832)">
<path d="M34.8542 18.9036C34.7402 18.8009 34.572 18.7338 34.3865 18.717C34.2011 18.7002 34.0137 18.7352 33.8654 18.8141L28.0005 21.9402C28.3483 22.1627 28.6401 22.4238 28.8636 22.7129L34.7254 19.5887C34.8736 19.5097 34.9704 19.3931 34.9946 19.2646C35.0187 19.1361 34.9682 19.0063 34.8542 18.9036Z" fill="#E53935"/>
<path d="M28.0005 25.2129C28.0005 24.7184 27.8832 24.2351 27.6634 23.824C27.4437 23.4128 27.1313 23.0924 26.7659 22.9032C26.4004 22.714 25.9983 22.6645 25.6103 22.7609C25.2223 22.8574 24.866 23.0955 24.5863 23.4451C24.3066 23.7948 24.1161 24.2402 24.0389 24.7252C23.9617 25.2101 24.0014 25.7128 24.1527 26.1696C24.3041 26.6264 24.5604 27.0169 24.8893 27.2916C25.2182 27.5663 25.6049 27.7129 26.0005 27.7129C26.5307 27.7121 27.0391 27.4485 27.414 26.9798C27.789 26.5111 27.9999 25.8757 28.0005 25.2129ZM26.0005 26.4629C25.8027 26.4629 25.6094 26.3896 25.4449 26.2522C25.2805 26.1149 25.1523 25.9197 25.0766 25.6912C25.0009 25.4628 24.9811 25.2115 25.0197 24.969C25.0583 24.7266 25.1535 24.5038 25.2934 24.329C25.4332 24.1542 25.6114 24.0351 25.8054 23.9869C25.9994 23.9387 26.2004 23.9634 26.3832 24.058C26.5659 24.1527 26.7221 24.3129 26.832 24.5184C26.9418 24.724 27.0005 24.9657 27.0005 25.2129C27.0002 25.5443 26.8948 25.8621 26.7073 26.0964C26.5198 26.3308 26.2656 26.4626 26.0005 26.4629Z" fill="#E53935"/>
<path d="M26.0005 35.4629V36.9629C26.0005 37.1618 26.0532 37.3526 26.1469 37.4932C26.2407 37.6339 26.3679 37.7129 26.5005 37.7129C26.6331 37.7129 26.7603 37.6339 26.854 37.4932C26.9478 37.3526 27.0005 37.1618 27.0005 36.9629V35.4629C27.0005 35.264 26.9478 35.0732 26.854 34.9326C26.7603 34.7919 26.6331 34.7129 26.5005 34.7129C26.3679 34.7129 26.2407 34.7919 26.1469 34.9326C26.0532 35.0732 26.0005 35.264 26.0005 35.4629Z" fill="#1A1917"/>
<path d="M38.5005 25.7129C38.6331 25.7129 38.7603 25.6602 38.854 25.5664C38.9478 25.4727 39.0005 25.3455 39.0005 25.2129C39.0005 25.0803 38.9478 24.9531 38.854 24.8593C38.7603 24.7656 38.6331 24.7129 38.5005 24.7129H37.5005C37.3679 24.7129 37.2407 24.7656 37.1469 24.8593C37.0532 24.9531 37.0005 25.0803 37.0005 25.2129C37.0005 25.3455 37.0532 25.4727 37.1469 25.5664C37.2407 25.6602 37.3679 25.7129 37.5005 25.7129H38.5005Z" fill="#1A1917"/>
<path d="M33.977 31.956C33.9217 31.8757 33.8567 31.8129 33.7856 31.7713C33.7146 31.7296 33.6389 31.7099 33.5629 31.7133C33.4869 31.7166 33.4121 31.743 33.3427 31.7908C33.2733 31.8387 33.2107 31.907 33.1585 31.9921C33.1063 32.0771 33.0655 32.1772 33.0384 32.2865C33.0114 32.3958 32.9985 32.5122 33.0007 32.6292C33.0029 32.7461 33.02 32.8612 33.0511 32.9679C33.0822 33.0747 33.1267 33.171 33.182 33.2513L34.0239 34.4739C34.1364 34.6336 34.285 34.7193 34.438 34.7125C34.591 34.7058 34.7361 34.6072 34.8424 34.4378C34.8946 34.3528 34.9355 34.2527 34.9625 34.1434C34.9896 34.0341 35.0024 33.9177 35.0003 33.8007C34.9981 33.6838 34.9809 33.5687 34.9498 33.4619C34.9187 33.3552 34.8743 33.2589 34.819 33.1786L33.977 31.956Z" fill="#E53935"/>
<path d="M18.0242 31.9549L17.182 33.1762C17.1267 33.2564 17.0823 33.3526 17.0512 33.4592C17.02 33.5658 17.0029 33.6808 17.0007 33.7976C16.9985 33.9144 17.0114 34.0307 17.0384 34.1399C17.0655 34.2491 17.1063 34.349 17.1585 34.434C17.2108 34.5189 17.2734 34.5873 17.3428 34.6351C17.4122 34.6829 17.487 34.7092 17.563 34.7125C17.6391 34.7159 17.7148 34.6962 17.7859 34.6546C17.8569 34.613 17.922 34.5503 17.9773 34.4701L18.8195 33.2488C18.931 33.0867 18.996 32.8633 19.0003 32.6276C19.0046 32.3919 18.9478 32.1632 18.8424 31.9918C18.7371 31.8204 18.5917 31.7202 18.4383 31.7133C18.2849 31.7064 18.136 31.7933 18.0242 31.9549Z" fill="#E53935"/>
<path d="M25.6431 11.3976C25.8591 11.4142 26.0751 11.3662 26.2606 11.2605C26.3411 11.2026 26.4065 11.1279 26.4516 11.0423C26.4966 10.9566 26.5202 10.8624 26.5205 10.7668V9.76025L29.3678 12.2803L26.5205 14.6285V13.6481C26.5258 13.558 26.5116 13.4678 26.479 13.3829C26.4463 13.2981 26.3957 13.2205 26.3303 13.1546C26.265 13.0887 26.1861 13.0361 26.0986 12.9998C26.0111 12.9635 25.9167 12.9444 25.8211 12.9435C23.1822 13.0166 20.6329 13.8631 18.5266 15.3656C16.4204 16.8682 14.8616 18.9522 14.0665 21.3288H14.1193C14.5514 21.3287 14.9714 21.4638 15.3136 21.7129C15.9929 19.6803 17.2959 17.8838 19.0575 16.5509C20.8191 15.218 22.9601 14.4086 25.2093 14.2253V15.991C25.2094 16.1099 25.2456 16.2262 25.3138 16.3261C25.3819 16.426 25.4791 16.5053 25.5937 16.5545C25.7083 16.6036 25.8355 16.6206 25.9601 16.6033C26.0846 16.5861 26.2013 16.5353 26.2961 16.4572L30.776 12.7626C30.845 12.7058 30.9006 12.6359 30.9393 12.5575C30.9779 12.4791 30.9988 12.3939 31.0004 12.3074C31.002 12.221 30.9844 12.1351 30.9488 12.0555C30.9131 11.9758 30.8601 11.9041 30.7933 11.845L26.3134 7.88026C26.2201 7.79771 26.1033 7.74272 25.9773 7.72204C25.8513 7.70136 25.7217 7.71591 25.6044 7.76389C25.4871 7.81187 25.3872 7.89119 25.317 7.99208C25.2468 8.09298 25.2094 8.21105 25.2093 8.33175V10.1826C21.8963 10.3818 18.7355 11.5682 16.1822 13.5712C13.6288 15.5742 11.8146 18.2904 11.0005 21.3288H12.3596C13.1743 18.5586 14.8996 16.1043 17.2869 14.3194C19.6742 12.5346 22.6002 11.5115 25.6431 11.3976Z" fill="#1A1917"/>
<path d="M8.53981 23.7129H13.4612C13.6042 23.7129 13.7414 23.6602 13.8425 23.5664C13.9437 23.4727 14.0005 23.3455 14.0005 23.2129C14.0005 23.0803 13.9437 22.9531 13.8425 22.8593C13.7414 22.7656 13.6042 22.7129 13.4612 22.7129H8.53981C8.39678 22.7129 8.2596 22.7656 8.15845 22.8593C8.05731 22.9531 8.00049 23.0803 8.00049 23.2129C8.00049 23.3455 8.05731 23.4727 8.15845 23.5664C8.2596 23.6602 8.39678 23.7129 8.53981 23.7129Z" fill="#1A1917"/>
<path d="M14.0005 29.7129C14.0005 29.4477 13.9437 29.1933 13.8425 29.0058C13.7414 28.8183 13.6042 28.7129 13.4612 28.7129H8.53981C8.39678 28.7129 8.2596 28.8182 8.15845 29.0058C8.05731 29.1933 8.00049 29.4477 8.00049 29.7129C8.00049 29.9781 8.05731 30.2325 8.15845 30.42C8.2596 30.6075 8.39678 30.7129 8.53981 30.7129H13.4612C13.6042 30.7129 13.7414 30.6075 13.8425 30.42C13.9437 30.2324 14.0005 29.9781 14.0005 29.7129Z" fill="#1A1917"/>
<path d="M14.0005 26.2129C14.0005 26.0803 13.9285 25.9531 13.8005 25.8593C13.6724 25.7656 13.4987 25.7129 13.3176 25.7129H0.683415C0.502292 25.7129 0.328587 25.7656 0.200513 25.8593C0.0724394 25.9531 0.000488281 26.0803 0.000488281 26.2129C0.000488281 26.3455 0.0724394 26.4727 0.200513 26.5664C0.328587 26.6602 0.502292 26.7129 0.683415 26.7129H13.3176C13.4987 26.7129 13.6724 26.6602 13.8005 26.5664C13.9285 26.4727 14.0005 26.3455 14.0005 26.2129Z" fill="#E53935"/>
<path d="M4.60332 23.9478H5.88906C6.05956 23.9478 6.22307 23.8801 6.34364 23.7596C6.4642 23.639 6.53193 23.4755 6.53193 23.305C6.53193 23.1345 6.4642 22.971 6.34364 22.8504C6.22307 22.7298 6.05956 22.6621 5.88906 22.6621H4.60332C4.43282 22.6621 4.2693 22.7298 4.14874 22.8504C4.02818 22.971 3.96045 23.1345 3.96045 23.305C3.96045 23.4755 4.02818 23.639 4.14874 23.7596C4.2693 23.8801 4.43282 23.9478 4.60332 23.9478Z" fill="#1A1917"/>
<path d="M5.88906 29.0918H4.60332C4.43282 29.0918 4.2693 29.1595 4.14874 29.2801C4.02818 29.4006 3.96045 29.5642 3.96045 29.7347C3.96045 29.9052 4.02818 30.0687 4.14874 30.1892C4.2693 30.3098 4.43282 30.3775 4.60332 30.3775H5.88906C6.05956 30.3775 6.22307 30.3098 6.34364 30.1892C6.4642 30.0687 6.53193 29.9052 6.53193 29.7347C6.53193 29.5642 6.4642 29.4006 6.34364 29.2801C6.22307 29.1595 6.05956 29.0918 5.88906 29.0918Z" fill="#1A1917"/>
<path d="M45.4299 39.377H44.4656C44.2951 39.377 44.1316 39.4447 44.011 39.5652C43.8905 39.6858 43.8228 39.8493 43.8228 40.0198C43.8228 40.1903 43.8905 40.3538 44.011 40.4744C44.1316 40.595 44.2951 40.6627 44.4656 40.6627H45.4299C45.6004 40.6627 45.7639 40.595 45.8845 40.4744C46.0051 40.3538 46.0728 40.1903 46.0728 40.0198C46.0728 39.8493 46.0051 39.6858 45.8845 39.5652C45.7639 39.4447 45.6004 39.377 45.4299 39.377Z" fill="#1A1917"/>
<path d="M47.3548 40.6627C47.7098 40.6627 47.9977 40.3749 47.9977 40.0198C47.9977 39.6648 47.7098 39.377 47.3548 39.377C46.9997 39.377 46.7119 39.6648 46.7119 40.0198C46.7119 40.3749 46.9997 40.6627 47.3548 40.6627Z" fill="#1A1917"/>
<path d="M34.3846 41.7129H31.6154C31.4478 41.733 31.2914 41.8471 31.1774 42.0324C31.0633 42.2177 31 42.4607 31 42.7129C31 42.9651 31.0633 43.208 31.1774 43.3933C31.2914 43.5787 31.4478 43.6927 31.6154 43.7129H34.3846C34.5522 43.6927 34.7086 43.5787 34.8226 43.3933C34.9367 43.208 35 42.9651 35 42.7129C35 42.4607 34.9367 42.2177 34.8226 42.0324C34.7086 41.8471 34.5522 41.733 34.3846 41.7129Z" fill="#E53935"/>
<path d="M16.3846 41.7129H13.6154C13.4478 41.733 13.2914 41.8471 13.1774 42.0324C13.0633 42.2177 13 42.4607 13 42.7129C13 42.9651 13.0633 43.208 13.1774 43.3933C13.2914 43.5787 13.4478 43.6927 13.6154 43.7129H16.3846C16.5522 43.6927 16.7086 43.5787 16.8226 43.3933C16.9367 43.208 17 42.9651 17 42.7129C17 42.4607 16.9367 42.2177 16.8226 42.0324C16.7086 41.8471 16.5522 41.733 16.3846 41.7129Z" fill="#E53935"/>
<path d="M30.3636 41.7129H17.6364C17.4676 41.7129 17.3057 41.7972 17.1864 41.9472C17.067 42.0972 17 42.3007 17 42.5129C17 42.7251 17.067 42.9285 17.1864 43.0786C17.3057 43.2286 17.4676 43.3129 17.6364 43.3129H22.7082V44.1129H20.1818C20.013 44.1129 19.8512 44.1972 19.7318 44.3472C19.6125 44.4972 19.5455 44.7007 19.5455 44.9129C19.5455 45.1251 19.6125 45.3285 19.7318 45.4786C19.8512 45.6286 20.013 45.7129 20.1818 45.7129H28.1364C28.3051 45.7129 28.467 45.6286 28.5863 45.4786C28.7057 45.3285 28.7727 45.1251 28.7727 44.9129C28.7727 44.7007 28.7057 44.4972 28.5863 44.3472C28.467 44.1972 28.3051 44.1129 28.1364 44.1129H25.2918V43.3129H30.3636C30.5324 43.3129 30.6943 43.2286 30.8136 43.0786C30.933 42.9285 31 42.7251 31 42.5129C31 42.3007 30.933 42.0972 30.8136 41.9472C30.6943 41.7972 30.5324 41.7129 30.3636 41.7129Z" fill="#E53935"/>
<path d="M42.2741 39.4081H32.2059C34.7696 38.2683 36.9784 36.4358 38.5933 34.109C40.2081 31.7822 41.1673 29.0497 41.3672 26.2074C41.5671 23.365 40.9999 20.5211 39.7272 17.9836C38.4544 15.446 36.5246 13.3115 34.1465 11.8111C34.0753 11.7659 33.9961 11.7355 33.9134 11.7216C33.8307 11.7077 33.7461 11.7105 33.6644 11.7299C33.5828 11.7493 33.5057 11.785 33.4376 11.8348C33.3695 11.8846 33.3117 11.9476 33.2675 12.0202C33.2233 12.0928 33.1936 12.1736 33.1801 12.2579C33.1666 12.3422 33.1696 12.4283 33.1888 12.5115C33.208 12.5946 33.2432 12.6731 33.2922 12.7424C33.3412 12.8116 33.4032 12.8704 33.4746 12.9152C35.3216 14.0716 36.8807 15.648 38.0297 17.5208C39.1788 19.3936 39.8866 21.5121 40.0977 23.7102C40.3087 25.9082 40.0173 28.1262 39.2463 30.1904C38.4753 32.2546 37.2456 34.1089 35.6536 35.608C34.0616 37.1071 32.1504 38.2103 30.0699 38.8312C27.9894 39.4521 25.796 39.5738 23.6616 39.1868C21.5272 38.7998 19.5098 37.9145 17.7673 36.6005C16.0249 35.2864 14.6048 33.5792 13.6182 31.6125H12.2003C13.7777 35.0938 16.5511 37.8666 19.9973 39.4081H-0.273086C-0.363805 39.396 -0.456009 39.4038 -0.54354 39.4309C-0.631071 39.4581 -0.711915 39.5039 -0.780671 39.5654C-0.849427 39.6269 -0.904514 39.7026 -0.942252 39.7875C-0.979991 39.8724 -0.999512 39.9645 -0.999512 40.0577C-0.999512 40.1509 -0.979991 40.2431 -0.942252 40.328C-0.904514 40.4129 -0.849427 40.4886 -0.780671 40.5501C-0.711915 40.6116 -0.631071 40.6574 -0.54354 40.6845C-0.456009 40.7117 -0.363805 40.7194 -0.273086 40.7074H42.2741C42.3648 40.7194 42.457 40.7117 42.5445 40.6845C42.632 40.6574 42.7129 40.6116 42.7816 40.5501C42.8504 40.4886 42.9055 40.4129 42.9432 40.328C42.981 40.2431 43.0005 40.1509 43.0005 40.0577C43.0005 39.9645 42.981 39.8724 42.9432 39.7875C42.9055 39.7026 42.8504 39.6269 42.7816 39.5654C42.7129 39.5039 42.632 39.4581 42.5445 39.4309C42.457 39.4038 42.3648 39.396 42.2741 39.4081Z" fill="#1A1917"/>
</g>
<defs>
<clipPath id="clip0_552_6832">
<rect width="48" height="48" fill="white"/>
</clipPath>
</defs>
</svg>
