<svg width="48" height="48" viewBox="0 0 48 48" fill="none" xmlns="http://www.w3.org/2000/svg">
<g clip-path="url(#clip0_552_6858)">
<path d="M0.571429 43.3655C0.88702 43.3655 1.14286 43.1097 1.14286 42.7941C1.14286 42.4785 0.88702 42.2227 0.571429 42.2227C0.255837 42.2227 0 42.4785 0 42.7941C0 43.1097 0.255837 43.3655 0.571429 43.3655Z" fill="#1A1917"/>
<path d="M3.14293 42.2227H2.28578C2.13423 42.2227 1.98889 42.2829 1.88172 42.39C1.77456 42.4972 1.71436 42.6425 1.71436 42.7941C1.71436 42.9456 1.77456 43.091 1.88172 43.1981C1.98889 43.3053 2.13423 43.3655 2.28578 43.3655H3.14293C3.29448 43.3655 3.43982 43.3053 3.54699 43.1981C3.65415 43.091 3.71436 42.9456 3.71436 42.7941C3.71436 42.6425 3.65415 42.4972 3.54699 42.39C3.43982 42.2829 3.29448 42.2227 3.14293 42.2227Z" fill="#1A1917"/>
<path d="M45.7142 42.2227H44.8571C44.7055 42.2227 44.5602 42.2829 44.453 42.39C44.3458 42.4972 44.2856 42.6425 44.2856 42.7941C44.2856 42.9456 44.3458 43.091 44.453 43.1981C44.5602 43.3053 44.7055 43.3655 44.8571 43.3655H45.7142C45.8658 43.3655 46.0111 43.3053 46.1183 43.1981C46.2254 43.091 46.2856 42.9456 46.2856 42.7941C46.2856 42.6425 46.2254 42.4972 46.1183 42.39C46.0111 42.2829 45.8658 42.2227 45.7142 42.2227Z" fill="#1A1917"/>
<path d="M47.4284 43.3655C47.744 43.3655 47.9998 43.1097 47.9998 42.7941C47.9998 42.4785 47.744 42.2227 47.4284 42.2227C47.1128 42.2227 46.8569 42.4785 46.8569 42.7941C46.8569 43.1097 47.1128 43.3655 47.4284 43.3655Z" fill="#1A1917"/>
<path d="M33.758 44.5078H31.3844C31.2408 44.5193 31.1067 44.5845 31.009 44.6904C30.9112 44.7963 30.8569 44.9351 30.8569 45.0792C30.8569 45.2234 30.9112 45.3622 31.009 45.4681C31.1067 45.574 31.2408 45.6392 31.3844 45.6507H33.758C33.9017 45.6392 34.0357 45.574 34.1335 45.4681C34.2312 45.3622 34.2855 45.2234 34.2855 45.0792C34.2855 44.9351 34.2312 44.7963 34.1335 44.6904C34.0357 44.5845 33.9017 44.5193 33.758 44.5078Z" fill="#E53935"/>
<path d="M16.6155 44.5078H14.2418C14.0982 44.5193 13.9641 44.5845 13.8664 44.6904C13.7686 44.7963 13.7144 44.9351 13.7144 45.0792C13.7144 45.2234 13.7686 45.3622 13.8664 45.4681C13.9641 45.574 14.0982 45.6392 14.2418 45.6507H16.6155C16.7591 45.6392 16.8932 45.574 16.9909 45.4681C17.0887 45.3622 17.1429 45.2234 17.1429 45.0792C17.1429 44.9351 17.0887 44.7963 16.9909 44.6904C16.8932 44.5845 16.7591 44.5193 16.6155 44.5078Z" fill="#E53935"/>
<path d="M29.7144 44.5078H18.2858C18.1342 44.5078 17.9889 44.568 17.8817 44.6752C17.7746 44.7823 17.7144 44.9277 17.7144 45.0792C17.7144 45.2308 17.7746 45.3761 17.8817 45.4833C17.9889 45.5905 18.1342 45.6507 18.2858 45.6507H22.8401V46.2221H20.5715C20.4199 46.2221 20.2746 46.2823 20.1674 46.3895C20.0603 46.4966 20.0001 46.642 20.0001 46.7935C20.0001 46.9451 20.0603 47.0904 20.1674 47.1976C20.2746 47.3048 20.4199 47.365 20.5715 47.365H27.7144C27.8659 47.365 28.0113 47.3048 28.1184 47.1976C28.2256 47.0904 28.2858 46.9451 28.2858 46.7935C28.2858 46.642 28.2256 46.4966 28.1184 46.3895C28.0113 46.2823 27.8659 46.2221 27.7144 46.2221H25.1601V45.6507H29.7144C29.8659 45.6507 30.0113 45.5905 30.1184 45.4833C30.2256 45.3761 30.2858 45.2308 30.2858 45.0792C30.2858 44.9277 30.2256 44.7823 30.1184 44.6752C30.0113 44.568 29.8659 44.5078 29.7144 44.5078Z" fill="#E53935"/>
<path d="M10.286 32.5054V27.7094L6.89849 13.9028C6.85451 13.7229 6.84643 13.5361 6.87469 13.3531C6.90295 13.1701 6.96701 12.9944 7.06319 12.8362C7.15938 12.6779 7.28582 12.5402 7.43527 12.4309C7.58472 12.3215 7.75426 12.2427 7.9342 12.1989L10.286 11.6237V10.4473L7.66243 11.0889C7.33668 11.1684 7.02977 11.3113 6.75927 11.5094C6.48877 11.7076 6.25996 11.9571 6.08594 12.2437C5.91191 12.5303 5.79608 12.8484 5.74505 13.1798C5.69403 13.5113 5.70881 13.8495 5.78857 14.1752L10.286 32.5054Z" fill="#E53935"/>
<path d="M15.9409 23.3644C15.9409 23.5159 16.0011 23.6613 16.1083 23.7685C16.2155 23.8756 16.3608 23.9358 16.5123 23.9358H31.9407C32.0923 23.9358 32.2376 23.8756 32.3448 23.7685C32.452 23.6613 32.5122 23.5159 32.5122 23.3644C32.5122 23.2128 32.452 23.0675 32.3448 22.9603C32.2376 22.8532 32.0923 22.793 31.9407 22.793H16.5123C16.3608 22.793 16.2155 22.8532 16.1083 22.9603C16.0011 23.0675 15.9409 23.2128 15.9409 23.3644Z" fill="#E53935"/>
<path d="M16.5123 26.7932H31.9407C32.0923 26.7932 32.2376 26.733 32.3448 26.6259C32.452 26.5187 32.5122 26.3734 32.5122 26.2218C32.5122 26.0703 32.452 25.9249 32.3448 25.8178C32.2376 25.7106 32.0923 25.6504 31.9407 25.6504H16.5123C16.3608 25.6504 16.2154 25.7106 16.1083 25.8178C16.0011 25.9249 15.9409 26.0703 15.9409 26.2218C15.9409 26.3734 16.0011 26.5187 16.1083 26.6259C16.2154 26.733 16.3608 26.7932 16.5123 26.7932Z" fill="#1A1917"/>
<path d="M21.9041 18.3691L20.943 19.9218C20.9031 19.9856 20.8761 20.0566 20.8637 20.1309C20.8514 20.2051 20.8538 20.281 20.8708 20.3543C20.8879 20.4276 20.9192 20.4968 20.9631 20.558C21.007 20.6191 21.0625 20.671 21.1265 20.7106C21.1905 20.7502 21.2617 20.7768 21.336 20.7889C21.4103 20.8009 21.4862 20.7981 21.5594 20.7807C21.6326 20.7633 21.7017 20.7316 21.7626 20.6874C21.8236 20.6433 21.8752 20.5875 21.9145 20.5233L23.1983 18.4495C23.022 18.4866 22.8424 18.5059 22.6622 18.5069C22.4033 18.5067 22.1465 18.4601 21.9041 18.3691Z" fill="#1A1917"/>
<path d="M24.8022 18.4489L26.0859 20.5225C26.1253 20.5864 26.177 20.6419 26.2379 20.6858C26.2988 20.7297 26.3678 20.7612 26.4409 20.7784C26.514 20.7956 26.5897 20.7983 26.6638 20.7862C26.738 20.7742 26.809 20.7476 26.8728 20.7081C26.9366 20.6686 26.9921 20.6168 27.0359 20.5559C27.0797 20.4949 27.1111 20.4259 27.1283 20.3528C27.1454 20.2797 27.148 20.2039 27.1358 20.1298C27.1237 20.0557 27.097 19.9847 27.0574 19.9209L26.098 18.3711C25.6822 18.5196 25.2328 18.5466 24.8022 18.4489Z" fill="#1A1917"/>
<path d="M27.7146 13.9357C27.7146 13.3506 27.2635 12.9817 26.934 12.7124C26.8129 12.6239 26.7031 12.5208 26.6072 12.4055C26.5515 12.2528 26.5154 12.0936 26.4998 11.9318C26.4323 11.489 26.3483 10.9382 25.8642 10.6505C25.3832 10.3651 24.8539 10.5715 24.4677 10.7225C24.319 10.7907 24.1618 10.8388 24.0004 10.8654C23.839 10.8388 23.6819 10.7908 23.5333 10.7225C23.1474 10.5716 22.6182 10.3648 22.1368 10.6505C21.6528 10.9379 21.5685 11.4887 21.501 11.9312C21.4853 12.0933 21.4492 12.2528 21.3935 12.4058C21.2975 12.5209 21.1878 12.6239 21.0668 12.7124C20.7373 12.9817 20.2861 13.3506 20.2861 13.9357C20.2861 14.5208 20.7373 14.8896 21.0668 15.1589C21.1879 15.2474 21.2976 15.3505 21.3935 15.4658C21.4493 15.6185 21.4854 15.7777 21.501 15.9396C21.5685 16.3824 21.6525 16.9331 22.1366 17.2208C22.2984 17.3164 22.4835 17.3657 22.6714 17.3634C22.9694 17.3455 23.2615 17.2728 23.533 17.1488C23.6818 17.0806 23.8389 17.0325 24.0004 17.006C24.1618 17.0325 24.3188 17.0805 24.4674 17.1488C24.8536 17.2995 25.3826 17.5065 25.8639 17.2208C26.348 16.9334 26.4323 16.3826 26.4998 15.9401C26.5154 15.778 26.5515 15.6185 26.6072 15.4655C26.7032 15.3504 26.813 15.2474 26.9339 15.1589C27.2635 14.8896 27.7146 14.5208 27.7146 13.9357ZM26.2107 14.2738C25.9739 14.4453 25.7708 14.659 25.6117 14.9044C25.4801 15.1753 25.3983 15.4676 25.3701 15.7674C25.3518 15.9196 25.3205 16.07 25.2766 16.2169C25.1425 16.1825 25.0111 16.1382 24.8835 16.0844C24.6054 15.9563 24.306 15.8813 24.0004 15.8631C23.6948 15.8813 23.3953 15.9563 23.1173 16.0844C22.9897 16.1382 22.8583 16.1825 22.7242 16.2169C22.6802 16.0699 22.649 15.9195 22.6307 15.7671C22.6025 15.4675 22.5207 15.1754 22.3891 14.9047C22.2301 14.6592 22.027 14.4453 21.79 14.2738C21.6574 14.1766 21.5377 14.063 21.4337 13.9357C21.5377 13.8083 21.6574 13.6947 21.79 13.5975C22.0269 13.4261 22.23 13.2123 22.3891 12.9669C22.5207 12.696 22.6025 12.4037 22.6307 12.1039C22.649 11.9517 22.6803 11.8013 22.7242 11.6544C22.8583 11.6888 22.9897 11.7331 23.1173 11.7869C23.3953 11.915 23.6948 11.99 24.0004 12.0082C24.306 11.99 24.6054 11.915 24.8835 11.7869C25.0111 11.7332 25.1425 11.6889 25.2766 11.6544C25.3206 11.8014 25.3519 11.9519 25.3701 12.1042C25.3983 12.4038 25.4801 12.696 25.6117 12.9666C25.7707 13.2121 25.9738 13.426 26.2108 13.5975C26.3434 13.6947 26.4631 13.8083 26.5671 13.9357C26.4631 14.063 26.3433 14.1766 26.2107 14.2738Z" fill="#E53935"/>
<path d="M24.0001 14.5081C24.3157 14.5081 24.5716 14.2523 24.5716 13.9367C24.5716 13.6211 24.3157 13.3652 24.0001 13.3652C23.6845 13.3652 23.4287 13.6211 23.4287 13.9367C23.4287 14.2523 23.6845 14.5081 24.0001 14.5081Z" fill="#1A1917"/>
<path d="M16.5123 35.3655H30.0128C29.8992 34.9922 29.818 34.6099 29.77 34.2227H16.5123C16.3608 34.2227 16.2154 34.2829 16.1083 34.39C16.0011 34.4972 15.9409 34.6425 15.9409 34.7941C15.9409 34.9456 16.0011 35.091 16.1083 35.1981C16.2154 35.3053 16.3608 35.3655 16.5123 35.3655Z" fill="#E53935"/>
<path d="M16.5123 32.5081H29.77C29.818 32.1209 29.8992 31.7385 30.0128 31.3652H16.5123C16.3608 31.3652 16.2154 31.4254 16.1083 31.5326C16.0011 31.6398 15.9409 31.7851 15.9409 31.9367C15.9409 32.0882 16.0011 32.2336 16.1083 32.3407C16.2154 32.4479 16.3608 32.5081 16.5123 32.5081Z" fill="#1A1917"/>
<path d="M30.8574 33.3647C30.8574 34.4948 31.1926 35.5996 31.8205 36.5393C32.4484 37.479 33.3408 38.2114 34.385 38.6439C35.4291 39.0764 36.578 39.1895 37.6865 38.969C38.7949 38.7485 39.8131 38.2043 40.6122 37.4051C41.4114 36.606 41.9556 35.5878 42.1761 34.4794C42.3965 33.3709 42.2834 32.222 41.8509 31.1779C41.4184 30.1337 40.686 29.2413 39.7463 28.6134C38.8066 27.9855 37.7018 27.6504 36.5716 27.6504C35.0566 27.6521 33.6042 28.2547 32.5329 29.3259C31.4617 30.3972 30.8591 31.8497 30.8574 33.3647ZM41.143 33.3647C41.143 34.2688 40.8749 35.1526 40.3726 35.9044C39.8703 36.6561 39.1563 37.2421 38.321 37.588C37.4857 37.934 36.5665 38.0246 35.6798 37.8482C34.793 37.6718 33.9785 37.2364 33.3392 36.5971C32.6999 35.9577 32.2645 35.1432 32.0881 34.2564C31.9117 33.3697 32.0022 32.4505 32.3482 31.6152C32.6942 30.7799 33.2802 30.066 34.0319 29.5637C34.7837 29.0614 35.6675 28.7932 36.5716 28.7932C37.7836 28.7946 38.9456 29.2767 39.8026 30.1337C40.6596 30.9907 41.1416 32.1527 41.143 33.3647Z" fill="#1A1917"/>
<path d="M16.5123 38.2229H31.7364C31.3885 37.8759 31.0787 37.4928 30.8122 37.0801H16.5123C16.3608 37.0801 16.2154 37.1403 16.1083 37.2474C16.0011 37.3546 15.9409 37.5 15.9409 37.6515C15.9409 37.8031 16.0011 37.9484 16.1083 38.0556C16.2154 38.1627 16.3608 38.2229 16.5123 38.2229Z" fill="#1A1917"/>
<path d="M16.5123 29.6507H30.8122C31.0787 29.2379 31.3885 28.8548 31.7364 28.5078H16.5123C16.3608 28.5078 16.2154 28.568 16.1083 28.6752C16.0011 28.7823 15.9409 28.9277 15.9409 29.0792C15.9409 29.2308 16.0011 29.3761 16.1083 29.4833C16.2154 29.5905 16.3608 29.6507 16.5123 29.6507Z" fill="#E53935"/>
<path d="M34.8947 33.4369C34.7698 33.3511 34.6159 33.3185 34.4669 33.3462C34.318 33.3739 34.1861 33.4596 34.1003 33.5845C34.0146 33.7094 33.9819 33.8633 34.0096 34.0122C34.0373 34.1612 34.123 34.2931 34.2479 34.3789L35.5381 35.2647C35.6502 35.3418 35.7862 35.3763 35.9215 35.362C36.0568 35.3478 36.1825 35.2857 36.2761 35.1869L38.9859 32.3297C39.0375 32.2753 39.0779 32.2112 39.1048 32.1412C39.1316 32.0711 39.1444 31.9964 39.1424 31.9214C39.1404 31.8464 39.1237 31.7725 39.0931 31.704C39.0626 31.6355 39.0188 31.5736 38.9644 31.522C38.91 31.4704 38.8459 31.43 38.7758 31.4031C38.7057 31.3762 38.6311 31.3634 38.5561 31.3654C38.4811 31.3674 38.4072 31.3842 38.3387 31.4147C38.2701 31.4453 38.2083 31.489 38.1566 31.5435L35.7828 34.0465L34.8947 33.4369Z" fill="#E53935"/>
<path d="M43.0631 42.2215H36.1366C36.4204 41.7992 36.5718 41.3018 36.5713 40.793V40.2215C36.1883 40.2211 35.8061 40.1886 35.4285 40.1245V40.793C35.428 41.1717 35.2774 41.5348 35.0096 41.8026C34.7418 42.0704 34.3787 42.2211 33.9999 42.2215H14.0002C13.6214 42.2211 13.2583 42.0704 12.9905 41.8026C12.7227 41.5348 12.5721 41.1717 12.5716 40.793V9.3644C12.5721 8.98565 12.7227 8.62255 12.9905 8.35474C13.2583 8.08692 13.6214 7.93627 14.0002 7.93583H33.9999C34.3787 7.93627 34.7418 8.08693 35.0096 8.35474C35.2774 8.62255 35.428 8.98566 35.4285 9.3644V26.6043C35.8061 26.5402 36.1883 26.5077 36.5713 26.5073V9.3644C36.5706 8.68264 36.2994 8.02903 35.8174 7.54695C35.3353 7.06488 34.6817 6.79372 33.9999 6.79297H14.0002C13.3184 6.79372 12.6648 7.06487 12.1827 7.54695C11.7007 8.02902 11.4295 8.68264 11.4288 9.3644V40.793C11.4283 41.3018 11.5796 41.7992 11.8635 42.2215H4.93659C4.8553 42.2109 4.77268 42.2178 4.69424 42.2416C4.6158 42.2655 4.54336 42.3058 4.48175 42.3599C4.42013 42.414 4.37077 42.4806 4.33695 42.5553C4.30314 42.6299 4.28564 42.711 4.28564 42.793C4.28564 42.875 4.30314 42.956 4.33695 43.0307C4.37077 43.1054 4.42013 43.172 4.48175 43.2261C4.54336 43.2801 4.6158 43.3205 4.69424 43.3443C4.77268 43.3682 4.8553 43.375 4.93659 43.3644H43.0631C43.1443 43.375 43.227 43.3682 43.3054 43.3443C43.3838 43.3205 43.4563 43.2801 43.5179 43.2261C43.5795 43.172 43.6289 43.1054 43.6627 43.0307C43.6965 42.956 43.714 42.875 43.714 42.793C43.714 42.711 43.6965 42.6299 43.6627 42.5553C43.6289 42.4806 43.5795 42.414 43.5179 42.3599C43.4563 42.3058 43.3838 42.2655 43.3054 42.2416C43.227 42.2178 43.1443 42.2109 43.0631 42.2215Z" fill="#1A1917"/>
</g>
<defs>
<clipPath id="clip0_552_6858">
<rect width="48" height="48" fill="white"/>
</clipPath>
</defs>
</svg>
