<svg width="48" height="48" viewBox="0 0 48 48" fill="none" xmlns="http://www.w3.org/2000/svg">
<g clip-path="url(#clip0_552_6792)">
<path d="M20.0848 13.9434L14.6275 17.8066C14.2951 18.0236 14.0486 18.3496 13.9304 18.7286L8.6492 35.6661C8.515 36.0969 8.55642 36.5633 8.76443 36.9637C8.97244 37.3642 9.33021 37.6662 9.75985 37.8041L14.8572 39.4175V38.219L10.1047 36.7147C9.96281 36.6685 9.8449 36.5681 9.77666 36.4354C9.70841 36.3026 9.69535 36.1483 9.74032 36.006L15.0215 19.0685C15.0639 18.9368 15.1519 18.8244 15.2696 18.7516L17.8287 16.9399L20.0848 13.9434Z" fill="#E53935"/>
<path d="M39.3508 35.6665L34.0699 18.7292C33.955 18.3569 33.7152 18.0356 33.391 17.8195L29.2885 14.916C29.2601 15.0059 29.2328 15.0959 29.2015 15.1852C29.1624 15.2966 29.1165 15.4053 29.0732 15.5151L30.1326 16.9128L32.749 18.7645C32.8586 18.8363 32.9398 18.944 32.9788 19.0692L38.2597 36.0064C38.3047 36.1487 38.2917 36.3031 38.2235 36.4358C38.1553 36.5686 38.0373 36.669 37.8954 36.7153L33.143 38.2195V39.418L38.2403 37.8046C38.6699 37.6667 39.0277 37.3646 39.2357 36.9642C39.4437 36.5637 39.4851 36.0973 39.3508 35.6665Z" fill="#E53935"/>
<path d="M23.9779 37.2868C24.1294 37.2868 24.2747 37.2266 24.3819 37.1195C24.4891 37.0123 24.5493 36.867 24.5493 36.7155V36.2844C24.6955 36.2506 24.8375 36.2008 24.9728 36.1361C25.3501 35.9592 25.6532 35.6553 25.8289 35.2775C26.0046 34.8997 26.0418 34.4721 25.9339 34.0696C25.6577 33.097 24.8222 32.8278 24.2119 32.6314C23.7124 32.4704 23.3983 32.3573 23.2454 32.0718C23.1802 31.9544 23.145 31.8228 23.1428 31.6886C23.1407 31.5543 23.1716 31.4217 23.233 31.3023C23.4382 30.9463 23.9183 30.9061 24.2654 30.9793C24.4892 31.0408 24.6853 31.1769 24.8212 31.3652C24.9135 31.4847 25.0494 31.5628 25.1992 31.5825C25.349 31.6021 25.5005 31.5616 25.6205 31.4698C25.7405 31.3781 25.8193 31.2426 25.8396 31.0929C25.86 30.9432 25.8203 30.7916 25.7291 30.6711C25.4367 30.2802 25.021 29.9994 24.5493 29.874V29.2882C24.5493 29.1367 24.4891 28.9913 24.3819 28.8842C24.2748 28.777 24.1294 28.7168 23.9779 28.7168C23.8263 28.7168 23.681 28.777 23.5738 28.8842C23.4666 28.9913 23.4064 29.1367 23.4064 29.2882V29.8765C23.1642 29.9307 22.9359 30.0345 22.7358 30.1813C22.5358 30.3282 22.3683 30.5149 22.244 30.7297C22.0859 31.0179 22.0025 31.3412 22.0015 31.6699C22.0005 31.9987 22.0818 32.3225 22.2381 32.6117C22.6165 33.3179 23.3068 33.5403 23.8615 33.719C24.4753 33.9166 24.7353 34.032 24.8342 34.3805C24.8702 34.5244 24.854 34.6763 24.7885 34.8094C24.723 34.9424 24.6123 35.0479 24.4763 35.107C24.2668 35.1933 24.0359 35.2136 23.8145 35.1653C23.5931 35.1169 23.3917 35.0021 23.2373 34.8362C23.1304 34.7292 22.9854 34.6689 22.8341 34.6686C22.6828 34.6684 22.5375 34.7281 22.4302 34.8348C22.3229 34.9414 22.2623 35.0863 22.2616 35.2376C22.261 35.3889 22.3204 35.5343 22.4268 35.6419C22.6997 35.9179 23.036 36.123 23.4064 36.2392V36.7155C23.4064 36.867 23.4666 37.0123 23.5738 37.1195C23.681 37.2266 23.8263 37.2868 23.9779 37.2868Z" fill="#E53935"/>
<path d="M20.5628 26.2156C20.5532 26.1838 20.5349 26.1553 20.5099 26.1334C20.485 26.1115 20.4543 26.097 20.4215 26.0917L20.0412 26.0342L19.871 25.6757C19.8575 25.6455 19.8354 25.6198 19.8076 25.6018C19.7798 25.5838 19.7473 25.5742 19.7142 25.5742C19.681 25.5742 19.6486 25.5838 19.6207 25.6018C19.5929 25.6198 19.5709 25.6455 19.5573 25.6757L19.3872 26.0342L19.0068 26.0917C18.974 26.097 18.9434 26.1114 18.9184 26.1334C18.8934 26.1553 18.8751 26.1838 18.8655 26.2156C18.8554 26.2478 18.8542 26.2821 18.862 26.315C18.8698 26.3478 18.8863 26.378 18.9098 26.4022L19.1851 26.6812L19.1201 27.0755C19.1144 27.1086 19.1179 27.1427 19.1302 27.1741C19.1424 27.2055 19.163 27.2329 19.1897 27.2535C19.2158 27.2733 19.247 27.2852 19.2797 27.2877C19.3124 27.2901 19.3451 27.2831 19.3739 27.2673L19.7141 27.0812L20.0544 27.2673C20.0832 27.2829 20.1159 27.2898 20.1485 27.2874C20.1812 27.2849 20.2124 27.2731 20.2386 27.2535C20.2653 27.2329 20.2858 27.2055 20.2981 27.1741C20.3104 27.1427 20.3139 27.1086 20.3082 27.0755L20.2432 26.6812L20.5185 26.4022C20.542 26.378 20.5585 26.3478 20.5663 26.315C20.5741 26.2821 20.5729 26.2478 20.5628 26.2156Z" fill="#1A1917"/>
<path d="M29.1399 26.2156C29.1304 26.1837 29.1121 26.1552 29.0871 26.1333C29.0621 26.1114 29.0315 26.097 28.9987 26.0917L28.6183 26.0342L28.4482 25.6757C28.4346 25.6455 28.4125 25.6198 28.3847 25.6018C28.3569 25.5838 28.3244 25.5742 28.2913 25.5742C28.2582 25.5742 28.2257 25.5838 28.1979 25.6018C28.1701 25.6198 28.148 25.6455 28.1344 25.6757L27.9643 26.0342L27.5839 26.0917C27.5511 26.097 27.5205 26.1114 27.4955 26.1333C27.4706 26.1552 27.4522 26.1837 27.4427 26.2156C27.4326 26.2478 27.4313 26.2821 27.4391 26.315C27.4469 26.3478 27.4635 26.378 27.487 26.4022L27.7623 26.6812L27.6973 27.0754C27.6916 27.1086 27.6951 27.1427 27.7074 27.1741C27.7196 27.2054 27.7402 27.2329 27.7668 27.2534C27.7929 27.2733 27.8242 27.2852 27.8569 27.2876C27.8896 27.2901 27.9223 27.283 27.9511 27.2673L28.2913 27.0812L28.6315 27.2673C28.6604 27.2827 28.693 27.2896 28.7257 27.2872C28.7583 27.2847 28.7896 27.273 28.8158 27.2535C28.8424 27.2329 28.863 27.2055 28.8752 27.1741C28.8875 27.1427 28.891 27.1086 28.8854 27.0755L28.8203 26.6812L29.0956 26.4022C29.1191 26.378 29.1357 26.3478 29.1435 26.315C29.1513 26.2821 29.15 26.2478 29.1399 26.2156Z" fill="#1A1917"/>
<path d="M20.5628 39.071C20.5532 39.0392 20.5349 39.0107 20.5099 38.9888C20.485 38.9669 20.4543 38.9525 20.4215 38.9472L20.0412 38.8897L19.871 38.5312C19.8575 38.5009 19.8354 38.4753 19.8076 38.4573C19.7797 38.4393 19.7473 38.4297 19.7142 38.4297C19.681 38.4297 19.6486 38.4393 19.6207 38.4573C19.5929 38.4753 19.5709 38.5009 19.5573 38.5312L19.3872 38.8897L19.0068 38.9472C18.974 38.9525 18.9434 38.9669 18.9184 38.9888C18.8934 39.0107 18.8751 39.0392 18.8655 39.071C18.8554 39.1033 18.8542 39.1376 18.862 39.1705C18.8698 39.2033 18.8863 39.2334 18.9098 39.2577L19.1851 39.5367L19.1201 39.9309C19.1144 39.9641 19.1179 39.9982 19.1302 40.0296C19.1424 40.0609 19.163 40.0884 19.1897 40.1089C19.2158 40.1288 19.247 40.1407 19.2797 40.1431C19.3124 40.1456 19.3452 40.1385 19.3739 40.1228L19.7141 39.9367L20.0544 40.1228C20.0833 40.138 20.1159 40.1447 20.1485 40.1423C20.1811 40.1398 20.2123 40.1283 20.2386 40.1089C20.2653 40.0884 20.2858 40.0609 20.2981 40.0296C20.3104 39.9982 20.3139 39.9641 20.3082 39.9309L20.2432 39.5367L20.5185 39.2577C20.542 39.2334 20.5585 39.2033 20.5663 39.1705C20.5741 39.1376 20.5729 39.1033 20.5628 39.071Z" fill="#1A1917"/>
<path d="M29.1399 39.071C29.1304 39.0392 29.1121 39.0107 29.0871 38.9888C29.0621 38.9669 29.0315 38.9525 28.9987 38.9471L28.6183 38.8896L28.4482 38.5312C28.4346 38.5009 28.4125 38.4753 28.3847 38.4573C28.3569 38.4393 28.3244 38.4297 28.2913 38.4297C28.2582 38.4297 28.2257 38.4393 28.1979 38.4573C28.1701 38.4753 28.148 38.5009 28.1344 38.5312L27.9643 38.8896L27.5839 38.9471C27.5511 38.9525 27.5205 38.9669 27.4955 38.9888C27.4706 39.0107 27.4522 39.0392 27.4427 39.071C27.4326 39.1032 27.4313 39.1376 27.4391 39.1704C27.4469 39.2033 27.4635 39.2334 27.487 39.2577L27.7623 39.5367L27.6973 39.9309C27.6916 39.9641 27.6951 39.9982 27.7074 40.0296C27.7196 40.0609 27.7402 40.0883 27.7668 40.1089C27.7929 40.1288 27.8242 40.1407 27.8569 40.1431C27.8896 40.1456 27.9223 40.1385 27.9511 40.1228L28.2913 39.9367L28.6315 40.1228C28.6604 40.1383 28.693 40.1452 28.7257 40.1428C28.7583 40.1403 28.7896 40.1286 28.8158 40.1089C28.8424 40.0883 28.863 40.0609 28.8753 40.0296C28.8875 39.9982 28.891 39.9641 28.8854 39.9309L28.8204 39.5367L29.0956 39.2577C29.1191 39.2334 29.1357 39.2033 29.1435 39.1704C29.1513 39.1376 29.15 39.1032 29.1399 39.071Z" fill="#1A1917"/>
<path d="M21.3626 11.4021C21.5104 11.3686 21.6388 11.2779 21.7197 11.1497C21.8006 11.0216 21.8272 10.8666 21.7938 10.7188C21.6371 10.0269 21.5734 8.77184 22.906 8.1404C24.558 7.35747 26.0492 8.33191 26.7945 9.64515C27.5411 10.9608 27.6347 12.7488 27.0449 14.4285C26.5922 15.7181 24.6695 18.4823 24.6527 18.5299C24.1178 18.37 23.5429 18.4112 23.0362 18.6457C22.5295 18.8802 22.1261 19.2919 21.9018 19.8032C21.6775 20.3145 21.6479 20.8901 21.8185 21.4217C21.9891 21.9533 22.3482 22.4042 22.8281 22.6895C23.308 22.9748 23.8757 23.0748 24.4242 22.9707C24.9727 22.8665 25.4643 22.5655 25.8063 22.1242C26.1482 21.6828 26.3171 21.1317 26.281 20.5746C26.2449 20.0174 26.0064 19.4927 25.6104 19.0991C25.6263 19.0815 27.6185 16.2447 28.1233 14.807C28.8209 12.8204 28.6957 10.6798 27.7886 9.08135C26.8152 7.36611 24.7194 6.01703 22.4166 7.10792C20.9395 7.80771 20.29 9.25192 20.6791 10.9709C20.7128 11.1186 20.8036 11.247 20.9317 11.3278C21.0598 11.4086 21.2148 11.4353 21.3626 11.4021ZM24.0001 21.8617C23.7741 21.8617 23.5532 21.7946 23.3653 21.669C23.1774 21.5434 23.031 21.365 22.9445 21.1562C22.8581 20.9474 22.8355 20.7176 22.8796 20.496C22.9237 20.2744 23.0326 20.0708 23.1924 19.911C23.3522 19.7512 23.5558 19.6424 23.7774 19.5983C23.9991 19.5543 24.2288 19.5769 24.4376 19.6634C24.6464 19.7499 24.8248 19.8964 24.9504 20.0843C25.0759 20.2722 25.1429 20.4931 25.1429 20.7191C25.1426 21.022 25.022 21.3125 24.8078 21.5267C24.5935 21.7409 24.303 21.8614 24.0001 21.8617Z" fill="#1A1917"/>
<path d="M0.571429 43.2854C0.88702 43.2854 1.14286 43.0296 1.14286 42.714C1.14286 42.3984 0.88702 42.1426 0.571429 42.1426C0.255837 42.1426 0 42.3984 0 42.714C0 43.0296 0.255837 43.2854 0.571429 43.2854Z" fill="#1A1917"/>
<path d="M3.14293 42.1426H2.28578C2.13423 42.1426 1.98889 42.2028 1.88172 42.3099C1.77456 42.4171 1.71436 42.5625 1.71436 42.714C1.71436 42.8656 1.77456 43.0109 1.88172 43.1181C1.98889 43.2252 2.13423 43.2854 2.28578 43.2854H3.14293C3.29448 43.2854 3.43982 43.2252 3.54699 43.1181C3.65415 43.0109 3.71436 42.8656 3.71436 42.714C3.71436 42.5625 3.65415 42.4171 3.54699 42.3099C3.43982 42.2028 3.29448 42.1426 3.14293 42.1426Z" fill="#1A1917"/>
<path d="M45.7142 42.1426H44.8571C44.7055 42.1426 44.5602 42.2028 44.453 42.3099C44.3458 42.4171 44.2856 42.5625 44.2856 42.714C44.2856 42.8656 44.3458 43.0109 44.453 43.1181C44.5602 43.2252 44.7055 43.2854 44.8571 43.2854H45.7142C45.8658 43.2854 46.0111 43.2252 46.1183 43.1181C46.2254 43.0109 46.2856 42.8656 46.2856 42.714C46.2856 42.5625 46.2254 42.4171 46.1183 42.3099C46.0111 42.2028 45.8658 42.1426 45.7142 42.1426Z" fill="#1A1917"/>
<path d="M47.4284 43.2854C47.744 43.2854 47.9998 43.0296 47.9998 42.714C47.9998 42.3984 47.744 42.1426 47.4284 42.1426C47.1128 42.1426 46.8569 42.3984 46.8569 42.714C46.8569 43.0296 47.1128 43.2854 47.4284 43.2854Z" fill="#1A1917"/>
<path d="M33.758 44.4277H31.3844C31.2408 44.4392 31.1067 44.5044 31.009 44.6103C30.9112 44.7162 30.8569 44.8551 30.8569 44.9992C30.8569 45.1433 30.9112 45.2821 31.009 45.388C31.1067 45.4939 31.2408 45.5591 31.3844 45.5706H33.758C33.9017 45.5591 34.0357 45.4939 34.1335 45.388C34.2312 45.2821 34.2855 45.1433 34.2855 44.9992C34.2855 44.8551 34.2312 44.7162 34.1335 44.6103C34.0357 44.5044 33.9017 44.4392 33.758 44.4277Z" fill="#E53935"/>
<path d="M16.6155 44.4277H14.2418C14.0982 44.4392 13.9641 44.5044 13.8664 44.6103C13.7686 44.7162 13.7144 44.8551 13.7144 44.9992C13.7144 45.1433 13.7686 45.2821 13.8664 45.388C13.9641 45.4939 14.0982 45.5591 14.2418 45.5706H16.6155C16.7591 45.5591 16.8932 45.4939 16.9909 45.388C17.0887 45.2821 17.1429 45.1433 17.1429 44.9992C17.1429 44.8551 17.0887 44.7162 16.9909 44.6103C16.8932 44.5044 16.7591 44.4392 16.6155 44.4277Z" fill="#E53935"/>
<path d="M29.7144 44.4277H18.2858C18.1342 44.4277 17.9889 44.4879 17.8817 44.5951C17.7746 44.7023 17.7144 44.8476 17.7144 44.9992C17.7144 45.1507 17.7746 45.2961 17.8817 45.4032C17.9889 45.5104 18.1342 45.5706 18.2858 45.5706H22.8401V46.142H20.5715C20.4199 46.142 20.2746 46.2022 20.1674 46.3094C20.0603 46.4166 20.0001 46.5619 20.0001 46.7134C20.0001 46.865 20.0603 47.0103 20.1674 47.1175C20.2746 47.2247 20.4199 47.2849 20.5715 47.2849H27.7144C27.8659 47.2849 28.0113 47.2247 28.1184 47.1175C28.2256 47.0103 28.2858 46.865 28.2858 46.7134C28.2858 46.5619 28.2256 46.4166 28.1184 46.3094C28.0113 46.2022 27.8659 46.142 27.7144 46.142H25.1601V45.5706H29.7144C29.8659 45.5706 30.0113 45.5104 30.1184 45.4032C30.2256 45.2961 30.2858 45.1507 30.2858 44.9992C30.2858 44.8476 30.2256 44.7023 30.1184 44.5951C30.0113 44.4879 29.8659 44.4277 29.7144 44.4277Z" fill="#E53935"/>
<path d="M43.0631 42.1433H31.8981C31.9651 41.9572 31.9996 41.761 32 41.5632V21.8838C32.0011 21.4675 31.8594 21.0635 31.5986 20.739L28.5294 16.6901C28.3345 17.0573 28.1253 17.4142 27.9075 17.7608L30.7014 21.4465C30.8022 21.57 30.8572 21.7244 30.8571 21.8838V41.5632C30.8586 41.715 30.7999 41.8611 30.694 41.9698C30.588 42.0785 30.4434 42.1409 30.2916 42.1433H17.7081C17.5564 42.1409 17.4117 42.0786 17.3057 41.9699C17.1998 41.8612 17.1411 41.7149 17.1426 41.5632V21.8813C17.1439 21.7154 17.2033 21.5552 17.3104 21.4285L23.4648 13.2513C23.5265 13.1749 23.6043 13.1132 23.6928 13.0708C23.7813 13.0283 23.8781 13.0062 23.9763 13.0059H23.9774C24.0717 13.0053 24.165 13.0253 24.2509 13.0643C24.3368 13.1034 24.4131 13.1607 24.4746 13.2322L25.6529 14.7865C25.7712 14.5472 25.8759 14.3012 25.9663 14.05C26.0283 13.8733 26.0806 13.6956 26.1246 13.5179L25.3718 12.5247C25.2031 12.3178 24.9904 12.1512 24.7492 12.0368C24.508 11.9223 24.2443 11.8631 23.9774 11.8633H23.9743C23.7032 11.8643 23.4359 11.9263 23.192 12.0446C22.9481 12.1629 22.7339 12.3345 22.5653 12.5468L16.4107 20.7241C16.145 21.0513 15.9999 21.4598 15.9997 21.8813V41.5631C16.0001 41.761 16.0346 41.9572 16.1017 42.1433H4.93659C4.8553 42.1327 4.77268 42.1396 4.69424 42.1634C4.6158 42.1873 4.54336 42.2276 4.48175 42.2817C4.42013 42.3358 4.37077 42.4024 4.33695 42.4771C4.30314 42.5517 4.28564 42.6328 4.28564 42.7148C4.28564 42.7968 4.30314 42.8778 4.33695 42.9525C4.37077 43.0272 4.42013 43.0938 4.48175 43.1479C4.54336 43.2019 4.6158 43.2423 4.69424 43.2661C4.77268 43.29 4.8553 43.2968 4.93659 43.2862H43.0631C43.1443 43.2968 43.227 43.29 43.3054 43.2661C43.3838 43.2423 43.4563 43.2019 43.5179 43.1479C43.5795 43.0938 43.6289 43.0272 43.6627 42.9525C43.6965 42.8778 43.714 42.7968 43.714 42.7148C43.714 42.6328 43.6965 42.5517 43.6627 42.4771C43.6289 42.4024 43.5795 42.3358 43.5179 42.2817C43.4563 42.2276 43.3838 42.1873 43.3054 42.1634C43.227 42.1396 43.1443 42.1327 43.0631 42.1433Z" fill="#1A1917"/>
</g>
<defs>
<clipPath id="clip0_552_6792">
<rect width="48" height="48" fill="white"/>
</clipPath>
</defs>
</svg>
