<svg width="48" height="48" viewBox="0 0 48 48" fill="none" xmlns="http://www.w3.org/2000/svg">
<path d="M24.5714 20.1004V18.8633H23.4285V20.1004C23.0472 20.2352 22.7259 20.5005 22.5213 20.8493C22.3167 21.1981 22.242 21.608 22.3103 22.0066C22.3787 22.4051 22.5858 22.7667 22.895 23.0273C23.2042 23.288 23.5955 23.431 23.9999 23.431C24.4043 23.431 24.7957 23.288 25.1049 23.0273C25.4141 22.7667 25.6211 22.4051 25.6895 22.0066C25.7579 21.608 25.6832 21.1981 25.4786 20.8493C25.274 20.5005 24.9526 20.2352 24.5714 20.1004ZM23.9999 22.2861C23.8869 22.2861 23.7764 22.2526 23.6825 22.1898C23.5885 22.127 23.5153 22.0378 23.472 21.9334C23.4288 21.829 23.4174 21.7141 23.4395 21.6032C23.4615 21.4924 23.516 21.3906 23.5959 21.3106C23.6758 21.2307 23.7776 21.1763 23.8885 21.1543C23.9993 21.1322 24.1142 21.1435 24.2186 21.1868C24.323 21.23 24.4123 21.3033 24.4751 21.3972C24.5378 21.4912 24.5714 21.6017 24.5714 21.7147C24.5709 21.8661 24.5106 22.0112 24.4035 22.1183C24.2964 22.2253 24.1513 22.2857 23.9999 22.2861Z" fill="#E53935"/>
<path d="M33.7585 44.2852H31.3849C31.2412 44.2967 31.1072 44.3619 31.0094 44.4678C30.9117 44.5736 30.8574 44.7125 30.8574 44.8566C30.8574 45.0007 30.9117 45.1395 31.0094 45.2454C31.1072 45.3513 31.2412 45.4165 31.3849 45.428H33.7585C33.9022 45.4165 34.0362 45.3513 34.134 45.2454C34.2317 45.1395 34.286 45.0007 34.286 44.8566C34.286 44.7125 34.2317 44.5736 34.134 44.4678C34.0362 44.3619 33.9022 44.2967 33.7585 44.2852Z" fill="#E53935"/>
<path d="M16.6155 44.2852H14.2418C14.0982 44.2967 13.9641 44.3619 13.8664 44.4678C13.7686 44.5736 13.7144 44.7125 13.7144 44.8566C13.7144 45.0007 13.7686 45.1395 13.8664 45.2454C13.9641 45.3513 14.0982 45.4165 14.2418 45.428H16.6155C16.7591 45.4165 16.8932 45.3513 16.9909 45.2454C17.0887 45.1395 17.1429 45.0007 17.1429 44.8566C17.1429 44.7125 17.0887 44.5736 16.9909 44.4678C16.8932 44.3619 16.7591 44.2967 16.6155 44.2852Z" fill="#E53935"/>
<path d="M29.7144 44.2852H18.2858C18.1342 44.2852 17.9889 44.3454 17.8817 44.4525C17.7746 44.5597 17.7144 44.705 17.7144 44.8566C17.7144 45.0081 17.7746 45.1535 17.8817 45.2606C17.9889 45.3678 18.1342 45.428 18.2858 45.428H22.8401V45.9994H20.5715C20.4199 45.9994 20.2746 46.0596 20.1674 46.1668C20.0603 46.274 20.0001 46.4193 20.0001 46.5709C20.0001 46.7224 20.0603 46.8678 20.1674 46.9749C20.2746 47.0821 20.4199 47.1423 20.5715 47.1423H27.7144C27.8659 47.1423 28.0113 47.0821 28.1184 46.9749C28.2256 46.8678 28.2858 46.7224 28.2858 46.5709C28.2858 46.4193 28.2256 46.274 28.1184 46.1668C28.0113 46.0596 27.8659 45.9994 27.7144 45.9994H25.1601V45.428H29.7144C29.8659 45.428 30.0113 45.3678 30.1184 45.2606C30.2256 45.1535 30.2858 45.0081 30.2858 44.8566C30.2858 44.705 30.2256 44.5597 30.1184 44.4525C30.0113 44.3454 29.8659 44.2852 29.7144 44.2852Z" fill="#E53935"/>
<path d="M9.58008 25.2388H11.8458C12.1603 26.6746 12.7274 28.043 13.5209 29.2803L11.9164 30.8831C11.3001 31.5003 11.3623 32.5628 12.0585 33.2585L12.1536 33.3537C12.4894 33.1431 12.8361 32.9504 13.1923 32.7762L12.8663 32.4502C12.7534 32.3635 12.6764 32.2381 12.6502 32.0982C12.6239 31.9582 12.6503 31.8134 12.7242 31.6917L14.9791 29.439L14.4837 28.6646C13.7628 27.5415 13.2477 26.299 12.9625 24.9953L12.7663 24.096H9.58008C9.37331 24.096 9.14286 23.8348 9.14286 23.4599V21.6846C9.14286 21.3098 9.37331 21.0487 9.58008 21.0487H12.7662L12.9625 20.1495C13.2471 18.8461 13.7621 17.604 14.4833 16.4815L14.9795 15.7069L12.7254 13.4545C12.6915 13.4162 12.666 13.3712 12.6506 13.3224C12.6353 13.2736 12.6303 13.2221 12.6362 13.1713C12.6531 12.9898 12.7352 12.8206 12.8672 12.6949L14.1208 11.4393C14.2539 11.2983 14.437 11.2151 14.6307 11.2076C14.6765 11.205 14.7223 11.2116 14.7655 11.2272C14.8086 11.2427 14.8482 11.2668 14.8818 11.298L17.1339 13.551L17.9083 13.055C19.0307 12.3339 20.2727 11.8191 21.576 11.5347L22.4757 11.3388V8.15248C22.4757 7.94559 22.7375 7.71512 23.1129 7.71512H24.8878C25.2628 7.71512 25.5243 7.94559 25.5243 8.15248V11.3389L26.4241 11.5349C27.7277 11.8193 28.97 12.3341 30.0926 13.0551L30.8669 13.5508L33.1194 11.2981C33.153 11.2669 33.1925 11.2428 33.2356 11.2272C33.2787 11.2117 33.3245 11.205 33.3703 11.2076C33.5631 11.2151 33.7453 11.2977 33.878 11.4378L35.1339 12.6949C35.2467 12.7819 35.3234 12.9074 35.3493 13.0474C35.3753 13.1874 35.3487 13.3321 35.2745 13.4537L33.0204 15.7073L33.5167 16.4819C34.2381 17.6042 34.7534 18.8464 35.0382 20.1498L35.2349 21.0487H38.4191C38.6264 21.0487 38.8571 21.3098 38.8571 21.6846V23.46C38.8571 23.8348 38.6264 24.096 38.4191 24.096H35.2347L35.0382 24.9949C34.7528 26.2986 34.2375 27.5412 33.5165 28.6644L33.0209 29.4386L35.274 31.6907C35.3483 31.8123 35.3752 31.957 35.3496 32.0971C35.3239 32.2373 35.2474 32.3631 35.1348 32.4503L34.7718 32.8135C35.1258 32.9898 35.4703 33.1848 35.8036 33.3978L35.9428 33.2585C36.6362 32.5628 36.6989 31.5003 36.0826 30.8831L34.4791 29.2803C35.2727 28.0431 35.8401 26.6746 36.1549 25.2388H38.4191C39.2916 25.2388 40 24.4419 40 23.4599V21.6846C40 20.7001 39.2916 19.9058 38.4191 19.9058H36.1549C35.8404 18.4702 35.273 17.1019 34.4791 15.8651L36.0826 14.2619C36.6989 13.6443 36.6362 12.5819 35.9428 11.8874L34.6867 10.63C34.3397 10.2752 33.8665 10.072 33.3703 10.0647C33.1743 10.0619 32.9798 10.0981 32.798 10.1711C32.6162 10.2441 32.4507 10.3525 32.3111 10.4901L30.7087 12.0926C29.4717 11.2988 28.1031 10.7318 26.6671 10.4181V8.15248C26.6671 7.27804 25.8708 6.57227 24.8878 6.57227H23.1129C22.1288 6.57227 21.3329 7.27804 21.3329 8.15248V10.4181C19.8971 10.7318 18.5288 11.2988 17.292 12.0926L15.6901 10.4901C15.5505 10.3526 15.385 10.2442 15.2031 10.1711C15.0212 10.0981 14.8267 10.0619 14.6307 10.0647C14.1343 10.072 13.661 10.2752 13.3137 10.63L12.0585 11.8874C11.3623 12.5819 11.3001 13.6443 11.9164 14.2619L13.5209 15.8651C12.7272 17.1019 12.16 18.4702 11.8458 19.9058H9.58008C8.70649 19.9058 8 20.7001 8 21.6846V23.4599C8 24.4419 8.70649 25.2388 9.58008 25.2388Z" fill="#1A1917"/>
<path d="M0.571429 43.1429C0.88702 43.1429 1.14286 42.887 1.14286 42.5714C1.14286 42.2558 0.88702 42 0.571429 42C0.255837 42 0 42.2558 0 42.5714C0 42.887 0.255837 43.1429 0.571429 43.1429Z" fill="#1A1917"/>
<path d="M3.14293 42H2.28578C2.13423 42 1.98889 42.0602 1.88172 42.1674C1.77456 42.2745 1.71436 42.4199 1.71436 42.5714C1.71436 42.723 1.77456 42.8683 1.88172 42.9755C1.98889 43.0827 2.13423 43.1429 2.28578 43.1429H3.14293C3.29448 43.1429 3.43982 43.0827 3.54699 42.9755C3.65415 42.8683 3.71436 42.723 3.71436 42.5714C3.71436 42.4199 3.65415 42.2745 3.54699 42.1674C3.43982 42.0602 3.29448 42 3.14293 42Z" fill="#1A1917"/>
<path d="M45.7142 42H44.8571C44.7055 42 44.5602 42.0602 44.453 42.1674C44.3458 42.2745 44.2856 42.4199 44.2856 42.5714C44.2856 42.723 44.3458 42.8683 44.453 42.9755C44.5602 43.0827 44.7055 43.1429 44.8571 43.1429H45.7142C45.8658 43.1429 46.0111 43.0827 46.1183 42.9755C46.2254 42.8683 46.2856 42.723 46.2856 42.5714C46.2856 42.4199 46.2254 42.2745 46.1183 42.1674C46.0111 42.0602 45.8658 42 45.7142 42Z" fill="#1A1917"/>
<path d="M47.4284 43.1429C47.744 43.1429 47.9998 42.887 47.9998 42.5714C47.9998 42.2558 47.744 42 47.4284 42C47.1128 42 46.8569 42.2558 46.8569 42.5714C46.8569 42.887 47.1128 43.1429 47.4284 43.1429Z" fill="#1A1917"/>
<path d="M43.0631 41.9999H38.2829C38.3025 40.9741 38.2485 39.9483 38.1215 38.9302C37.7551 33.842 31.1817 32.7697 30.9114 32.7281C30.491 32.6421 30.0923 32.4725 29.7388 32.2293C29.3854 31.9861 29.0844 31.6743 28.8539 31.3125C28.6073 31.6164 28.3438 31.9062 28.0646 32.1804C28.7045 33.0596 29.6577 33.6594 30.7272 33.8559C30.787 33.8651 36.7046 34.8262 36.9834 39.04C36.9853 39.0652 36.9887 39.0903 36.9934 39.1151C37.1113 40.0719 37.1603 41.036 37.14 41.9999H25.9913L26.2429 41.7666C26.4666 41.6329 26.6428 41.4325 26.7468 41.1934C26.8507 40.9544 26.8772 40.6888 26.8224 40.434L25.3363 33.8168C24.9655 33.9124 24.5858 33.9695 24.2032 33.9873L24.6416 35.9389L23.1158 37.0069L23.8116 33.9969C23.4274 33.9904 23.0447 33.9463 22.6691 33.8651L21.1844 40.287C21.1253 40.5359 21.1418 40.7969 21.2319 41.0364C21.3219 41.2759 21.4814 41.4831 21.6898 41.6314L22.0374 41.9999H10.8643C10.8975 39.6033 10.9028 39.1153 10.9037 39.0242C11.1967 34.8354 17.1007 33.8651 17.1697 33.8542C18.1816 33.6703 19.09 33.1196 19.7209 32.3075C19.5363 32.1357 19.3616 31.9536 19.1976 31.762C19.1109 31.6605 19.0265 31.5549 18.9428 31.4484C18.4805 32.1118 17.7789 32.57 16.9856 32.7265C16.7046 32.7697 10.1021 33.8464 9.76226 38.9645C9.76138 38.9759 9.76114 38.9879 9.76098 38.9995C9.76098 39.0097 9.7592 39.2564 9.7212 41.9999H4.93659C4.8553 41.9893 4.77268 41.9961 4.69424 42.02C4.6158 42.0438 4.54336 42.0841 4.48175 42.1382C4.42013 42.1923 4.37077 42.2589 4.33695 42.3336C4.30314 42.4083 4.28564 42.4893 4.28564 42.5713C4.28564 42.6533 4.30314 42.7343 4.33695 42.809C4.37077 42.8837 4.42013 42.9503 4.48175 43.0044C4.54336 43.0585 4.6158 43.0988 4.69424 43.1227C4.77268 43.1465 4.8553 43.1534 4.93659 43.1427H43.0631C43.1443 43.1534 43.227 43.1465 43.3054 43.1227C43.3838 43.0988 43.4563 43.0585 43.5179 43.0044C43.5795 42.9503 43.6289 42.8837 43.6627 42.809C43.6965 42.7343 43.714 42.6533 43.714 42.5713C43.714 42.4893 43.6965 42.4083 43.6627 42.3336C43.6289 42.2589 43.5795 42.1923 43.5179 42.1382C43.4563 42.0841 43.3838 42.0438 43.3054 42.02C43.227 41.9961 43.1443 41.9893 43.0631 41.9999ZM22.7309 38.6715L24.9122 37.1444L25.1814 38.3428C25.1502 38.3574 25.1203 38.3749 25.0922 38.3948L22.3304 40.4033L22.7309 38.6715ZM23.5793 41.9688L22.986 41.3398L25.4518 39.5466L25.7105 40.698L25.7119 40.7047C25.6954 40.7464 25.6653 40.7814 25.6265 40.8039C25.5847 40.8265 25.5459 40.8544 25.511 40.8867L24.3427 41.9699C24.2464 41.9889 24.1485 41.9989 24.0503 41.9999H23.8904C23.786 41.9998 23.6818 41.9894 23.5793 41.9688Z" fill="#1A1917"/>
<path d="M31.7084 25.2963L31.6313 23.4734C31.577 22.9792 31.6113 22.5677 31.197 22.5677H30.8255C30.8255 22.5677 31.2627 19.4706 27.7798 17.0877C27.7798 17.0877 27.1827 15.582 26.0398 15.4277H21.9598C20.817 15.582 20.2198 17.0877 20.2198 17.0877C16.737 19.4706 17.1713 22.5677 17.1713 22.5677H16.8198C16.3855 22.5677 16.4227 22.9735 16.3684 23.4734L16.2913 25.2963C16.237 25.7963 16.6198 25.9763 17.1455 25.9763H17.6684C18.0519 27.825 18.874 29.5545 20.0655 31.0192C20.5366 31.5842 21.124 32.0408 21.7877 32.3579C22.4514 32.6749 23.1758 32.8449 23.9113 32.8563C24.9666 32.8585 25.988 32.4836 26.7913 31.7992C28.4998 30.3563 29.6684 28.1392 30.2713 25.9763H30.8541C31.3798 25.9763 31.7627 25.7963 31.7084 25.2963ZM24.8455 16.5706L24.5513 17.9992H23.4484L23.1541 16.5706H24.8455ZM26.0541 30.9249C25.4568 31.435 24.6968 31.7147 23.9113 31.7134C23.341 31.7038 22.7796 31.5703 22.266 31.3221C21.7524 31.0739 21.299 30.7171 20.937 30.2763C20.0045 29.1284 19.3249 27.7964 18.9427 26.3677L20.0027 26.8563H27.997L28.9341 26.422C28.2941 28.2877 27.2713 29.8992 26.0541 30.9249ZM29.6513 24.8334L27.7455 25.7134H20.2541L18.3484 24.8334H17.4541L17.5027 23.7106H18.4855L18.3027 22.4077C18.2998 22.3849 17.9998 19.9906 20.8655 18.0306L21.1513 17.8334L21.2798 17.5106C21.4285 17.1405 21.6829 16.8225 22.0113 16.5963C22.0113 16.6441 22.0141 16.6918 22.0198 16.7392L22.357 18.362C22.3936 18.5756 22.5029 18.7699 22.6664 18.9121C22.8299 19.0542 23.0375 19.1355 23.2541 19.142H24.7484C24.9645 19.1349 25.1715 19.0534 25.3345 18.9113C25.4974 18.7692 25.6063 18.5752 25.6427 18.362L25.9798 16.7392C25.9855 16.6918 25.9884 16.6441 25.9884 16.5963C26.3189 16.8203 26.5739 17.139 26.7198 17.5106L26.8484 17.8334L27.1341 18.0306C29.9427 19.9534 29.7055 22.322 29.6941 22.4077L29.4798 23.7106H30.497L30.5455 24.8334H29.6513Z" fill="#1A1917"/>
</svg>
