<svg width="36" height="36" viewBox="0 0 36 36" fill="none" xmlns="http://www.w3.org/2000/svg">
<path d="M25.3184 30.8574H23.5382C23.4304 30.8661 23.3299 30.9149 23.2566 30.9944C23.1833 31.0738 23.1426 31.1779 23.1426 31.286C23.1426 31.3941 23.1833 31.4982 23.2566 31.5776C23.3299 31.657 23.4304 31.7059 23.5382 31.7146H25.3184C25.4262 31.7059 25.5267 31.657 25.6 31.5776C25.6733 31.4982 25.714 31.3941 25.714 31.286C25.714 31.1779 25.6733 31.0738 25.6 30.9944C25.5267 30.9149 25.4262 30.8661 25.3184 30.8574Z" fill="#E53935"/>
<path d="M12.461 30.8574H10.6808C10.573 30.8661 10.4725 30.9149 10.3992 30.9944C10.3259 31.0738 10.2852 31.1779 10.2852 31.286C10.2852 31.3941 10.3259 31.4982 10.3992 31.5776C10.4725 31.657 10.573 31.7059 10.6808 31.7146H12.461C12.5687 31.7059 12.6693 31.657 12.7426 31.5776C12.8159 31.4982 12.8566 31.3941 12.8566 31.286C12.8566 31.1779 12.8159 31.0738 12.7426 30.9944C12.6693 30.9149 12.5687 30.8661 12.461 30.8574Z" fill="#E53935"/>
<path d="M22.2852 30.8574H13.7137C13.6001 30.8574 13.4911 30.9026 13.4107 30.9829C13.3303 31.0633 13.2852 31.1723 13.2852 31.286C13.2852 31.3997 13.3303 31.5087 13.4107 31.589C13.4911 31.6694 13.6001 31.7146 13.7137 31.7146H17.1294V32.1431H15.428C15.3143 32.1431 15.2053 32.1883 15.125 32.2687C15.0446 32.349 14.9994 32.458 14.9994 32.5717C14.9994 32.6854 15.0446 32.7944 15.125 32.8748C15.2053 32.9551 15.3143 33.0003 15.428 33.0003H20.7852C20.8988 33.0003 21.0078 32.9551 21.0882 32.8748C21.1686 32.7944 21.2137 32.6854 21.2137 32.5717C21.2137 32.458 21.1686 32.349 21.0882 32.2687C21.0078 32.1883 20.8988 32.1431 20.7852 32.1431H18.8694V31.7146H22.2852C22.3988 31.7146 22.5078 31.6694 22.5882 31.589C22.6686 31.5087 22.7137 31.3997 22.7137 31.286C22.7137 31.1723 22.6686 31.0633 22.5882 30.9829C22.5078 30.9026 22.3988 30.8574 22.2852 30.8574Z" fill="#E53935"/>
<path d="M0.428571 29.9997C0.665265 29.9997 0.857143 29.8078 0.857143 29.5711C0.857143 29.3345 0.665265 29.1426 0.428571 29.1426C0.191878 29.1426 0 29.3345 0 29.5711C0 29.8078 0.191878 29.9997 0.428571 29.9997Z" fill="#1A1917"/>
<path d="M2.35756 29.1426H1.7147C1.60104 29.1426 1.49203 29.1877 1.41166 29.2681C1.33129 29.3485 1.28613 29.4575 1.28613 29.5711C1.28613 29.6848 1.33129 29.7938 1.41166 29.8742C1.49203 29.9546 1.60104 29.9997 1.7147 29.9997H2.35756C2.47123 29.9997 2.58023 29.9546 2.66061 29.8742C2.74098 29.7938 2.78613 29.6848 2.78613 29.5711C2.78613 29.4575 2.74098 29.3485 2.66061 29.2681C2.58023 29.1877 2.47123 29.1426 2.35756 29.1426Z" fill="#1A1917"/>
<path d="M34.2853 29.1426H33.6424C33.5288 29.1426 33.4198 29.1877 33.3394 29.2681C33.259 29.3485 33.2139 29.4575 33.2139 29.5711C33.2139 29.6848 33.259 29.7938 33.3394 29.8742C33.4198 29.9546 33.5288 29.9997 33.6424 29.9997H34.2853C34.399 29.9997 34.508 29.9546 34.5883 29.8742C34.6687 29.7938 34.7139 29.6848 34.7139 29.5711C34.7139 29.4575 34.6687 29.3485 34.5883 29.2681C34.508 29.1877 34.399 29.1426 34.2853 29.1426Z" fill="#1A1917"/>
<path d="M35.5711 29.9997C35.8078 29.9997 35.9997 29.8078 35.9997 29.5711C35.9997 29.3345 35.8078 29.1426 35.5711 29.1426C35.3345 29.1426 35.1426 29.3345 35.1426 29.5711C35.1426 29.8078 35.3345 29.9997 35.5711 29.9997Z" fill="#1A1917"/>
<path d="M32.2969 29.1428H28.2622C28.5964 28.7739 28.8164 28.3159 28.8955 27.8244C28.9745 27.3329 28.9092 26.829 28.7074 26.3739C28.5056 25.9189 28.1761 25.5321 27.7588 25.2607C27.3415 24.9892 26.8544 24.8447 26.3566 24.8447C25.8588 24.8447 25.3717 24.9892 24.9544 25.2607C24.5372 25.5321 24.2076 25.9189 24.0059 26.3739C23.8041 26.829 23.7388 27.3329 23.8178 27.8244C23.8969 28.3159 24.1168 28.7739 24.4511 29.1428H11.7622C12.0964 28.7739 12.3164 28.3159 12.3955 27.8244C12.4745 27.3329 12.4092 26.829 12.2074 26.3739C12.0056 25.9189 11.6761 25.5321 11.2588 25.2607C10.8415 24.9892 10.3544 24.8447 9.85664 24.8447C9.35883 24.8447 8.87173 24.9892 8.45445 25.2607C8.03716 25.5321 7.70764 25.9189 7.50588 26.3739C7.30412 26.829 7.23879 27.3329 7.31782 27.8244C7.39685 28.3159 7.61685 28.7739 7.9511 29.1428H3.70208C3.64111 29.1348 3.57914 29.1399 3.52031 29.1578C3.46149 29.1757 3.40715 29.206 3.36094 29.2465C3.31473 29.2871 3.27771 29.337 3.25235 29.3931C3.22699 29.4491 3.21387 29.5098 3.21387 29.5713C3.21387 29.6328 3.22699 29.6936 3.25235 29.7496C3.27771 29.8056 3.31473 29.8556 3.36094 29.8962C3.40715 29.9367 3.46149 29.967 3.52031 29.9848C3.57914 30.0027 3.64111 30.0079 3.70208 29.9999H32.2969C32.3579 30.0079 32.4199 30.0027 32.4787 29.9848C32.5375 29.967 32.5919 29.9367 32.6381 29.8962C32.6843 29.8556 32.7213 29.8056 32.7467 29.7496C32.772 29.6936 32.7851 29.6328 32.7851 29.5713C32.7851 29.5098 32.772 29.4491 32.7467 29.3931C32.7213 29.337 32.6843 29.2871 32.6381 29.2465C32.5919 29.206 32.5375 29.1757 32.4787 29.1578C32.4199 29.1399 32.3579 29.1348 32.2969 29.1428ZM26.3566 25.683C26.6987 25.6805 27.0338 25.7797 27.3194 25.9679C27.605 26.1562 27.8283 26.425 27.9609 26.7403C28.0935 27.0556 28.1295 27.4032 28.0643 27.739C27.9991 28.0748 27.8356 28.3836 27.5946 28.6264C27.3536 28.8691 27.0459 29.0348 26.7106 29.1025C26.3753 29.1701 26.0275 29.1367 25.7112 29.0063C25.395 28.876 25.1245 28.6547 24.9342 28.3704C24.7439 28.0862 24.6423 27.7518 24.6423 27.4098C24.6412 26.9536 24.8211 26.5157 25.1425 26.1919C25.4638 25.8682 25.9005 25.6852 26.3566 25.683ZM9.85663 25.683C10.1987 25.6805 10.5338 25.7797 10.8194 25.9679C11.105 26.1562 11.3283 26.425 11.4609 26.7403C11.5935 27.0556 11.6295 27.4032 11.5643 27.739C11.4991 28.0748 11.3356 28.3836 11.0946 28.6264C10.8536 28.8691 10.5459 29.0348 10.2106 29.1025C9.87532 29.1701 9.52748 29.1367 9.21122 29.0063C8.89496 28.876 8.62453 28.6547 8.43423 28.3704C8.24394 28.0862 8.14235 27.7518 8.14235 27.4098C8.14122 26.9536 8.32108 26.5157 8.64245 26.1919C8.96383 25.8682 9.40049 25.6852 9.85663 25.683Z" fill="#1A1917"/>
<path d="M29.9677 21.0112C29.0983 20.3455 28.0178 20.016 26.9249 20.0833L25.3263 17.0855C25.2174 16.8792 25.0543 16.7065 24.8546 16.586C24.6548 16.4656 24.426 16.4019 24.1927 16.4019H20.5713C20.2289 16.4035 19.9012 16.541 19.6601 16.7841C19.4191 17.0271 19.2843 17.356 19.2856 17.6983V22.8776H18.4284V21.5833C18.4284 21.0991 18.1113 20.7198 17.7041 20.7198H17.1256C17.1234 15.2426 17.1213 15.2255 17.117 15.1891C17.0849 14.9701 17.0044 14.7611 16.8813 14.5773C16.7583 14.3934 16.5957 14.2393 16.4056 14.1262L7.09057 8.35334C6.80874 8.18389 6.47759 8.11551 6.15169 8.15947C5.82579 8.20344 5.52459 8.35713 5.29774 8.59521C5.07089 8.83329 4.93192 9.14156 4.90374 9.4692C4.87556 9.79684 4.95985 10.1243 5.14271 10.3976L5.99986 11.0833L13.3027 15.6069V20.7198H12.7241C12.317 20.7198 11.9999 21.0991 11.9999 21.5833V22.8776H5.57128C5.47345 22.8779 5.37864 22.9116 5.30263 22.9732C5.22661 23.0348 5.17396 23.1205 5.15343 23.2162L4.29628 27.1012C4.28244 27.1643 4.28276 27.2297 4.29721 27.2927C4.31166 27.3557 4.33988 27.4147 4.37986 27.4655C4.42005 27.5155 4.47093 27.5559 4.52878 27.5837C4.58662 27.6116 4.64996 27.6261 4.71414 27.6262H6.43914C6.43486 27.5555 6.42843 27.4826 6.42843 27.4098C6.42948 27.1926 6.45028 26.976 6.49057 26.7626H5.24771L5.91414 23.7412H19.2856V26.7626H13.2234C13.2637 26.976 13.2845 27.1926 13.2856 27.4098C13.2856 27.4826 13.2791 27.5555 13.2749 27.6262H22.9391C22.9349 27.5555 22.9284 27.4826 22.9284 27.4098C22.9295 27.1926 22.9503 26.976 22.9906 26.7626H20.1427V17.6983C20.1422 17.5841 20.187 17.4743 20.2674 17.3932C20.3477 17.312 20.4571 17.2661 20.5713 17.2655H24.1927C24.2705 17.2656 24.3469 17.2868 24.4137 17.3268C24.4804 17.3668 24.5351 17.4241 24.572 17.4926L26.3034 20.7433C26.3452 20.8219 26.4103 20.8855 26.4897 20.9254C26.5692 20.9653 26.6591 20.9796 26.747 20.9662C26.762 20.9641 28.2749 20.7455 29.4406 21.6905C30.2806 22.3741 30.7584 23.5033 30.857 25.0505V26.7626H29.7234C29.7637 26.976 29.7845 27.1926 29.7856 27.4098C29.7856 27.4826 29.7791 27.5555 29.7749 27.6262H31.2856C31.3995 27.6257 31.5085 27.5802 31.5889 27.4994C31.6692 27.4187 31.7143 27.3094 31.7141 27.1955V25.0098C31.6006 23.1991 31.0134 21.8533 29.9677 21.0112ZM17.5713 22.8776H12.857V21.5833H13.7313C13.8454 21.5824 13.9545 21.5364 14.0348 21.4553C14.1151 21.3742 14.1601 21.2646 14.1599 21.1505V15.3669C14.1599 15.2933 14.1412 15.2208 14.1056 15.1564C14.07 15.0919 14.0186 15.0375 13.9563 14.9983L6.032 10.0891C5.9467 10.0368 5.87641 9.96336 5.82796 9.87586C5.77951 9.78835 5.75457 9.68979 5.75557 9.58977C5.75509 9.48597 5.78235 9.38392 5.83454 9.29419C5.88672 9.20446 5.96194 9.1303 6.0524 9.07939C6.14286 9.02848 6.24528 9.00266 6.34907 9.00461C6.45285 9.00656 6.55423 9.03621 6.64271 9.09049L15.9577 14.8612C16.0347 14.9067 16.1015 14.9674 16.1542 15.0396C16.2069 15.1118 16.2443 15.194 16.2641 15.2812C16.2663 15.6455 16.2684 19.6076 16.2684 21.1505C16.2682 21.2646 16.3132 21.3742 16.3935 21.4553C16.4738 21.5364 16.5829 21.5824 16.697 21.5833H17.5713V22.8776Z" fill="#1A1917"/>
<path d="M7.71387 16.9117V17.381C7.70722 17.7745 7.54626 18.1495 7.26568 18.4254C6.9851 18.7013 6.60736 18.8559 6.21387 18.8559C5.82038 18.8559 5.44264 18.7013 5.16206 18.4254C4.88148 18.1495 4.72052 17.7745 4.71387 17.381C4.71387 17.2674 4.75902 17.1584 4.83939 17.078C4.91977 16.9976 5.02877 16.9525 5.14244 16.9525C5.2561 16.9525 5.36511 16.9976 5.44548 17.078C5.52586 17.1584 5.57101 17.2674 5.57101 17.381C5.57947 17.5458 5.65089 17.7011 5.77052 17.8147C5.89015 17.9284 6.04886 17.9917 6.21387 17.9917C6.37888 17.9917 6.53758 17.9284 6.65721 17.8147C6.77685 17.7011 6.84827 17.5458 6.85672 17.381V16.9117C6.85672 16.5217 6.40672 16.481 6.21387 16.481H5.57101C5.45689 16.4801 5.34778 16.434 5.26749 16.353C5.1872 16.2719 5.14224 16.1623 5.14244 16.0482V10.3975L5.99958 11.0832V15.6175H6.21387C7.11172 15.6175 7.71387 16.1382 7.71387 16.9117Z" fill="#E53935"/>
<path d="M23.5715 15.7542V16.4013H22.7143V15.7542C22.7143 15.6405 22.6692 15.5315 22.5888 15.4511C22.5084 15.3707 22.3994 15.3256 22.2857 15.3256C22.1721 15.3256 22.0631 15.3707 21.9827 15.4511C21.9023 15.5315 21.8572 15.6405 21.8572 15.7542V16.4013H21V15.7542C20.9989 15.5846 21.0313 15.4165 21.0955 15.2595C21.1596 15.1026 21.2541 14.9598 21.3736 14.8395C21.4931 14.7193 21.6352 14.6238 21.7918 14.5586C21.9483 14.4935 22.1162 14.46 22.2857 14.46C22.4553 14.46 22.6232 14.4935 22.7797 14.5586C22.9363 14.6238 23.0784 14.7193 23.1979 14.8395C23.3174 14.9598 23.4119 15.1026 23.476 15.2595C23.5401 15.4165 23.5726 15.5846 23.5715 15.7542Z" fill="#E53935"/>
</svg>
